<?xml version="1.0" encoding="UTF-8"?>
<svg width="22px" height="21px" viewBox="0 0 22 21" version="1.1" xmlns="http://www.w3.org/2000/svg" xmlns:xlink="http://www.w3.org/1999/xlink">
    <!-- Generator: Sketch 56.3 (81716) - https://sketch.com -->
    <title>target (1)</title>
    <desc>Created with Sketch.</desc>
    <g id="Page-1" stroke="none" stroke-width="1" fill="none" fill-rule="evenodd">
        <g id="Hey-Digital_Landing-Page-Design-Case-Studies" transform="translate(-452.000000, -621.000000)" fill-rule="nonzero">
            <g id="Group-4" transform="translate(443.000000, 611.000000)">
                <g id="Group-4-Copy-2">
                    <g id="target-(1)" transform="translate(9.000000, 10.000000)">
                        <path d="M13.4181559,5.29127875 C13.5019103,5.37503314 13.611653,5.41688889 13.7213957,5.41688889 C13.8311384,5.41688889 13.940924,5.37503314 14.0246355,5.29127875 C14.1921014,5.12381287 14.1921014,4.85226511 14.0246355,4.68475634 L14.018846,4.67896686 C13.8513801,4.51150097 13.5798324,4.51150097 13.4123236,4.67896686 C13.2448577,4.84643275 13.2448577,5.11798051 13.4123236,5.28548928 L13.4181559,5.29127875 Z" id="XMLID_4218_" fill="#000000"></path>
                        <path d="M20.3367485,9.34892788 L21.8315049,7.85417154 C21.9541559,7.73152047 21.9908226,7.54702924 21.9244366,7.38681092 C21.8580507,7.22654971 21.701692,7.12208187 21.5282222,7.12208187 L18.4297388,7.12208187 C18.0247329,5.46414815 17.1747096,3.9534386 15.9595634,2.73824951 C14.1938596,0.972460039 11.8461209,0 9.34892788,0 C6.85173489,0 4.5039961,0.972460039 2.73824951,2.73824951 C0.972460039,4.50403899 0,6.85173489 0,9.34892788 C0,11.8461209 0.972460039,14.1938596 2.73824951,15.9596062 C3.26333333,16.4846901 3.84017934,16.9390136 4.45682261,17.3190604 L3.16482651,19.601614 C3.08969201,19.734386 3.09072125,19.8970916 3.16757115,20.0288343 C3.24437817,20.1606628 3.3854269,20.2417154 3.5380117,20.2417154 L5.74658869,20.2417154 C5.90110331,20.2417154 6.04369591,20.1586043 6.11981676,20.024117 L7.03335283,18.4101404 C7.78105263,18.5998207 8.5574425,18.6978558 9.34892788,18.6978558 C10.1404133,18.6978558 10.9168031,18.5998207 11.6645029,18.4101404 L12.578039,20.024117 C12.6541598,20.1586043 12.7967524,20.2417154 12.9512671,20.2417154 L15.1598441,20.2417154 C15.3124288,20.2417154 15.4534776,20.1606628 15.5303275,20.0288772 C15.6071774,19.8970916 15.6082066,19.734386 15.5330721,19.6016569 L14.241076,17.3191033 C14.8577193,16.9390136 15.4345653,16.4847329 15.9596491,15.9596491 C17.1743236,14.7449747 18.0247758,13.2336218 18.4297388,11.5758168 L21.5282651,11.5758168 C21.701692,11.5758168 21.8580936,11.471306 21.9244795,11.3110877 C21.9908655,11.1508694 21.9541559,10.9663782 21.8315478,10.8437271 L20.3367485,9.34892788 Z M19.5525965,8.92007797 L16.5596959,8.92007797 L17.4999922,7.97978168 L20.4929357,7.97978168 L19.5525965,8.92007797 Z M5.49652632,19.3840156 L4.27353216,19.3840156 L5.20696686,17.7349591 C5.52731774,17.8935478 5.85620273,18.0338246 6.19267836,18.1541598 L5.49652632,19.3840156 Z M14.4243236,19.3840156 L13.2013294,19.3840156 L12.5051774,18.1541598 C12.841653,18.0338246 13.170538,17.8935478 13.4908889,17.7349591 L14.4243236,19.3840156 Z M15.3531267,15.3531267 C14.786616,15.9196374 14.1538908,16.3957466 13.4727914,16.7752788 C13.464386,16.7793528 13.4558947,16.7832125 13.4476179,16.7878869 C13.4424288,16.790846 13.4377115,16.7942339 13.432694,16.7973645 C12.9102261,17.0847797 12.3596686,17.3155439 11.7883977,17.4859688 C11.7659259,17.4904288 11.7437115,17.4970331 11.7217973,17.5052671 C10.9604172,17.7256101 10.1635283,17.8401559 9.34892788,17.8401559 C8.53432749,17.8401559 7.7374386,17.7256101 6.97605848,17.5053099 C6.95410136,17.497076 6.93188694,17.4904717 6.90937232,17.4860117 C6.33814425,17.3155867 5.78758674,17.0848226 5.26516179,16.7974074 C5.26014425,16.7942768 5.2554269,16.7908889 5.25023782,16.7879298 C5.24196101,16.7832554 5.23351267,16.7793957 5.22510721,16.7753216 C4.5440078,16.3957895 3.91128265,15.9196803 3.34477193,15.3531267 C1.74095906,13.7493567 0.857699805,11.6170292 0.857699805,9.34892788 C0.857699805,7.08082651 1.74095906,4.94849903 3.34472904,3.34472904 C4.94849903,1.74095906 7.08082651,0.857699805 9.34892788,0.857699805 C11.6170292,0.857699805 13.7493567,1.74095906 15.3531267,3.34472904 C16.4069396,4.39854191 17.1585419,5.69671345 17.5444639,7.12208187 L17.3224055,7.12208187 C17.2086745,7.12208187 17.099575,7.16728265 17.0191657,7.24769201 L15.8809552,8.38590253 C15.7661092,7.60621053 15.5140312,6.84808967 15.133384,6.15862768 C15.018924,5.95127875 14.7580117,5.87605848 14.5506628,5.99047563 C14.3433138,6.10493567 14.2680507,6.36584795 14.3825107,6.57319688 C14.7896179,7.3105614 15.017037,8.11225341 15.075232,8.92012086 L13.184347,8.92012086 C13.088885,8.0514425 12.7050214,7.24670565 12.0781287,6.61981287 C11.3491267,5.89076803 10.379883,5.48927875 9.34892788,5.48927875 C8.31797271,5.48927875 7.34872904,5.89076803 6.61976998,6.6197271 C5.89076803,7.34877193 5.48927875,8.31797271 5.48927875,9.34892788 C5.48927875,10.379883 5.89076803,11.3491267 6.6197271,12.0780858 C7.34872904,12.8070877 8.31797271,13.208577 9.34892788,13.208577 C10.379883,13.208577 11.3491267,12.8070877 12.0780858,12.0781287 C12.7049786,11.4512359 13.0888421,10.646499 13.1843041,9.77777778 L15.073345,9.77777778 C14.9710643,11.1183626 14.4053684,12.4193216 13.4123665,13.4123665 C12.3269903,14.4977856 10.8838674,15.0955166 9.34892788,15.0955166 C7.8139883,15.0955166 6.3708655,14.4977856 5.28548928,13.4123665 C4.20007018,12.3269903 3.60233918,10.8839103 3.60233918,9.34892788 C3.60233918,7.81394542 4.20007018,6.3708655 5.28548928,5.28548928 C7.08588694,3.48509162 9.8982846,3.08617544 12.1247018,4.31538791 C12.3320078,4.42980507 12.5929201,4.3545848 12.707423,4.14723587 C12.821883,3.93988694 12.7466199,3.67901754 12.539271,3.56451462 C11.3108304,2.8862885 9.86436257,2.61598441 8.46644055,2.80356335 C7.02185965,2.99731774 5.71215205,3.64582456 4.67900975,4.67900975 C3.43161404,5.92640546 2.74463938,7.5848538 2.74463938,9.34892788 C2.74463938,11.1130019 3.43161404,12.7714932 4.67896686,14.018846 C5.92636257,15.2662417 7.5848538,15.9532164 9.34892788,15.9532164 C11.1130019,15.9532164 12.7714932,15.2662417 14.018846,14.0188889 C15.0324327,13.005345 15.6754503,11.725614 15.8824561,10.31354 L17.0191228,11.4502066 C17.0995322,11.530616 17.2086316,11.5758168 17.3223626,11.5758168 L17.5444639,11.5758168 C17.1584133,13.0010994 16.4065107,14.2997427 15.3531267,15.3531267 Z M10.7495517,8.5402885 C10.6311462,8.33512671 10.3688616,8.26488109 10.1637427,8.38332943 L9.13450292,8.97754386 C9.00181676,9.05413645 8.92007797,9.19569981 8.92007797,9.34892788 C8.92007797,9.50215595 9.00181676,9.6437193 9.13450292,9.72031189 L10.1637427,10.3145263 C10.2312865,10.3535088 10.3050058,10.3720351 10.3777817,10.3720351 C10.5259922,10.3720351 10.6701287,10.2951423 10.7495517,10.1575673 C10.819154,10.0370604 10.8231423,9.89695517 10.7733528,9.77777778 L12.3203431,9.77777778 C12.2294269,10.4168928 11.9362222,11.0070331 11.4716062,11.4716062 L11.4716062,11.4716062 C10.9046238,12.0386316 10.1507914,12.3508772 9.34892788,12.3508772 C8.54706433,12.3508772 7.79323197,12.0386316 7.22620663,11.4716062 C6.65922417,10.9046238 6.34697856,10.1507914 6.34697856,9.34892788 C6.34697856,8.54706433 6.65922417,7.79323197 7.22624951,7.22620663 C7.79323197,6.65922417 8.54706433,6.34697856 9.34892788,6.34697856 C10.1507914,6.34697856 10.9046238,6.65922417 11.4716491,7.22624951 C11.9362222,7.69082261 12.2294698,8.28096296 12.3203431,8.92007797 L10.7733957,8.92007797 C10.8231423,8.8008577 10.819154,8.66079532 10.7495517,8.5402885 Z M17.4999922,10.7180741 L16.5596959,9.77777778 L19.5525965,9.77777778 L20.4929357,10.7180741 L17.4999922,10.7180741 Z" id="XMLID_4221_" fill="#183165"></path>
                    </g>
                </g>
            </g>
        </g>
    </g>
</svg>