<svg xmlns="http://www.w3.org/2000/svg" width="49" height="49" viewBox="0 0 49 49">
    <g fill="none">
        <path fill="#EEE" d="M48.16 11.464c0-5.712-4.486-10.417-10.192-10.69-5.705-.272-10.619 3.984-11.164 9.67-.545 5.685 3.471 10.797 9.125 11.613v4.696h3.057v-4.696c5.263-.767 9.167-5.275 9.174-10.593z"/>
        <path fill="#F35229" d="M34.4 26.753L40.515 26.753 40.515 48.157 34.4 48.157z"/>
        <path fill="#E1E8FA" d="M45.102 11.464c0 4.222-3.423 7.645-7.645 7.645-4.221 0-7.644-3.423-7.644-7.645 0-4.222 3.423-7.644 7.644-7.644 4.222 0 7.645 3.422 7.645 7.644z"/>
        <g fill="#3761BA">
            <path d="M0 13.853L6.116 13.853 6.116 24.555 0 24.555zM10.702 6.209L16.818 6.209 16.818 24.555 10.702 24.555zM21.404.093L27.52.093 27.52 24.555 21.404 24.555z" transform="translate(2.293 23.602)"/>
        </g>
        <path fill="#183165" d="M39.784 10.667L37.457 8.341 35.131 10.667 34.05 9.586 37.457 6.179 40.865 9.586z"/>
        <path fill="#183165" d="M36.693 7.642L38.222 7.642 38.222 16.051 36.693 16.051z"/>
        <path fill="#183165" d="M41.28 25.989h-1.53V22.7c5.768-1.177 9.708-6.53 9.116-12.387C48.274 4.457 43.344 0 37.457 0 31.571 0 26.641 4.457 26.05 10.314c-.592 5.857 3.348 11.21 9.115 12.387v3.288h-1.529v21.404h-3.057V22.93h-7.645v24.462h-3.058V29.046h-7.644v18.347H9.173V36.69H1.53v10.702H0v1.529h48.924v-1.53H41.28V25.99zM7.644 47.393H3.058V38.22h4.586v9.173zm10.703 0H13.76V30.575h4.587v16.818zm10.702 0h-4.587V24.46h4.587v22.933zm-1.53-35.929c0-5.304 4.166-9.673 9.464-9.926 5.298-.253 9.86 3.699 10.367 8.978.506 5.28-3.223 10.027-8.473 10.784l-.655.094v4.595h-1.529v-4.595l-.655-.094c-4.88-.724-8.498-4.903-8.518-9.836zm12.232 35.929h-4.587V27.518h4.587v19.875z"/>
        <path fill="#F35229" d="M45.866 11.464c0-4.644-3.764-8.408-8.409-8.408-4.644 0-8.408 3.764-8.408 8.408s3.764 8.41 8.408 8.41c4.642-.006 8.404-3.768 8.41-8.41zm-15.288 0c0-3.8 3.08-6.88 6.88-6.88s6.88 3.08 6.88 6.88-3.08 6.88-6.88 6.88c-3.798-.004-6.876-3.082-6.88-6.88z"/>
        <path fill="#000" d="M11.001 25.989L16.37 25.989 22.933 19.425 22.933 21.402 24.462 21.402 24.462 16.815 19.875 16.815 19.875 18.344 21.852 18.344 15.737 24.46 10.403 24.46 0.245 33.836 1.284 34.958z"/>
        <g fill="#183165">
            <path d="M0 0L4.587 0 4.587 1.529 0 1.529zM0 3.058L4.587 3.058 4.587 4.587 0 4.587zM0 6.116L4.587 6.116 4.587 7.644 0 7.644zM0 9.173L4.587 9.173 4.587 10.702 0 10.702zM0 12.231L4.587 12.231 4.587 13.76 0 13.76zM0 15.289L4.587 15.289 4.587 16.818 0 16.818zM0 18.347L4.587 18.347 4.587 19.875 0 19.875z" transform="translate(44.337 25.989)"/>
        </g>
    </g>
</svg>
