<svg xmlns="http://www.w3.org/2000/svg" width="50" height="50" viewBox="0 0 50 50">
    <g fill="none">
        <path fill="#183165" d="M43.333 28.82v-7.64h-1.617c-.66 0-1.247-.424-1.448-1.053-.274-.86-.618-1.687-1.026-2.476-.303-.588-.19-1.303.278-1.77l1.144-1.144-5.401-5.402-1.145 1.144c-.467.468-1.182.582-1.77.278-.789-.409-1.616-.753-2.476-1.026-.629-.201-1.053-.788-1.053-1.448V6.667H21.18v1.617c0 .66-.424 1.247-1.053 1.448-.86.274-1.687.618-2.476 1.026-.588.304-1.303.19-1.77-.278l-1.144-1.144-5.402 5.402 1.144 1.144c.468.467.582 1.182.278 1.77-.409.789-.753 1.616-1.026 2.476-.201.629-.788 1.053-1.448 1.053H6.667v7.639h1.617c.66 0 1.247.424 1.448 1.053.274.86.618 1.687 1.026 2.476.303.588.19 1.303-.278 1.77l-1.144 1.144 5.402 5.402 1.144-1.144c.467-.468 1.182-.582 1.77-.278.789.409 1.616.753 2.476 1.026.629.201 1.053.788 1.053 1.448v1.616h7.639v-1.617c0-.66.424-1.247 1.053-1.448.86-.274 1.687-.618 2.476-1.026.588-.304 1.303-.19 1.77.278l1.144 1.144 5.402-5.401-1.144-1.145c-.468-.467-.582-1.182-.278-1.77.409-.789.753-1.616 1.026-2.476.201-.629.788-1.053 1.448-1.053h1.616z"/>
        <circle cx="25" cy="25" r="12.5" fill="#E1E8FA"/>
        <path fill="#F35229" d="M23.333 22.5L26.667 22.5 26.667 30 23.333 30zM17.5 25L20.833 25 20.833 30 17.5 30zM29.167 20L32.5 20 32.5 30 29.167 30zM4.3 0l.893 1.892-1.678.847C1.875 3.342 1.12 4.362.803 4.884-.72 7.4-.057 11.537 2.642 15c-.224-.953-.635-3.243.266-5.657l.012-.03c.51-1.354 1.512-2.39 2.74-2.977l.2-.096 1.118-.565.894 1.892L10 1.807 4.3 0zM45.7 50l-.893-1.892 1.678-.847c1.64-.604 2.395-1.623 2.712-2.146 1.524-2.514.86-6.653-1.839-10.116.225.953.635 3.243-.266 5.657l-.012.03c-.51 1.354-1.512 2.39-2.74 2.977l-.2.096-1.118.565-.894-1.892L40 48.194 45.7 50z"/>
    </g>
</svg>
