<svg xmlns="http://www.w3.org/2000/svg" width="50" height="47" viewBox="0 0 50 47">
    <g fill="none">
        <path fill="#E1E8FA" d="M49.35 32.586c-1.002-1.72-3.22-2.31-4.954-1.316l-8.253 4.726c-.581.333-1.262.45-1.922.333l-10.767-1.922-1.496-.172h8.836c1.986 0 3.596-1.61 3.596-3.596 0-.625-.506-1.13-1.13-1.13H23.045c-.716 0-1.424.155-2.074.455l-6.702 3.092c-1.047.484-2.187.734-3.34.734H10.7v9.454h1.978l22.53-1.978.05-.004.65-.053c.532-.055 1.047-.22 1.51-.486l11.513-6.592c.546-.313.732-1.004.418-1.545z"/>
        <path fill="#183165" d="M12.68 43.652H10.7c-.225 0-.408-.183-.408-.408V33.79c0-.226.183-.408.408-.408h.227c1.087 0 2.183-.241 3.17-.696l6.702-3.093c.699-.322 1.475-.493 2.244-.493H33.26c.848 0 1.538.69 1.538 1.539 0 2.208-1.796 4.004-4.004 4.004h-3.691l7.19 1.284c.564.101 1.15 0 1.647-.285l8.253-4.726c1.926-1.103 4.397-.445 5.509 1.465.207.356.262.77.156 1.167-.107.398-.364.731-.723.937l-11.513 6.592c-.516.296-1.08.477-1.672.538l-.706.057-22.53 1.979h-.035zm-1.57-.816h1.552l22.566-1.982.648-.052c.47-.049.924-.194 1.341-.433l11.513-6.593c.17-.097.29-.253.34-.44.05-.185.024-.378-.073-.544-.887-1.524-2.86-2.048-4.398-1.168l-8.253 4.726c-.663.38-1.443.515-2.196.381l-10.755-1.92-1.484-.17c-.214-.025-.373-.213-.36-.429.012-.216.19-.385.407-.385h8.836c1.758 0 3.188-1.43 3.188-3.188 0-.399-.323-.722-.722-.722H23.045c-.653 0-1.31.144-1.903.417l-6.702 3.093c-1.038.48-2.186.744-3.33.77v8.639z"/>
        <path fill="#E1E8FA" d="M10.143 31.56H7.844v13.47h2.3c.308 0 .558-.25.558-.558V32.119c0-.309-.25-.559-.559-.559z"/>
        <g transform="translate(14.184)">
            <circle cx="13.151" cy="13.133" r="12.245" fill="#FFF"/>
            <circle cx="13.151" cy="13.133" r="10.03" fill="#F35229" transform="rotate(-22.5 13.151 13.133)"/>
            <path fill="#FFF" d="M12.337 19.704c-1.792-.27-3.09-1.38-3.237-3.193-.015-.189.138-.35.328-.35h1.417c.162 0 .296.12.324.28.107.63.422 1.123.971 1.383.22.104.473-.052.473-.294v-3.424c0-.147-.098-.275-.239-.315-1.61-.455-3.287-1.05-3.287-3.566 0-2.005 1.318-3.41 3.252-3.711.158-.025.274-.162.274-.322V5.27c0-.181.147-.328.327-.328h.437c.181 0 .328.147.328.328v.901c0 .16.115.298.273.322 1.669.252 2.822 1.291 3.08 3.078.028.196-.127.372-.326.372h-1.404c-.157 0-.287-.112-.32-.265-.106-.471-.375-.898-.79-1.17-.22-.145-.513.007-.513.27v3.293c0 .148.1.277.242.316 1.609.437 3.268 1.016 3.268 3.53 0 1.742-1.143 3.433-3.236 3.767-.158.025-.274.162-.274.322v.921c0 .181-.147.328-.327.328h-.437c-.181 0-.328-.147-.328-.328v-.901c0-.161-.117-.299-.276-.323zm.276-8.19V8.637c0-.222-.218-.386-.427-.313-.692.243-1.152.832-1.152 1.79 0 .885.447 1.373 1.104 1.695.219.107.475-.05.475-.293zm1.092 3.15v2.875c0 .238.245.394.463.299.717-.312 1.115-.995 1.115-1.808 0-.871-.447-1.343-1.106-1.66-.218-.106-.472.051-.472.293z"/>
            <path fill="#183165" d="M13.15 25.787C6.175 25.787.499 20.11.499 13.133.498 6.157 6.174.48 13.15.48s12.653 5.677 12.653 12.653c0 6.977-5.677 12.654-12.653 12.654zm0-24.49c-6.526 0-11.836 5.31-11.836 11.836 0 6.527 5.31 11.837 11.837 11.837 6.526 0 11.836-5.31 11.836-11.837 0-6.526-5.31-11.836-11.836-11.836z"/>
        </g>
        <path fill="#183165" d="M7.23 46.254H.498V29.928H7.23c.34 0 .614.275.614.614V45.64c0 .339-.275.614-.614.614z"/>
        <path fill="#183165" d="M7.23 46.662H.498c-.226 0-.409-.182-.409-.408V29.928c0-.226.183-.408.409-.408H7.23c.564 0 1.023.458 1.023 1.022V45.64c0 .563-.46 1.022-1.023 1.022zm-6.324-.816H7.23c.114 0 .206-.093.206-.206V30.542c0-.114-.092-.206-.206-.206H.906v15.51z"/>
        <path fill="#183165" d="M10.143 45.438H7.844c-.225 0-.408-.183-.408-.408V31.56c0-.225.183-.408.408-.408h2.3c.532 0 .966.434.966.967v12.353c0 .532-.434.966-.967.966zm-1.89-.816h1.89c.083 0 .15-.068.15-.15V32.119c0-.083-.067-.15-.15-.15h-1.89v12.653z"/>
    </g>
</svg>
