<?xml version="1.0" encoding="UTF-8"?>
<svg width="1440px" height="546px" viewBox="0 0 1440 546" version="1.1" xmlns="http://www.w3.org/2000/svg" xmlns:xlink="http://www.w3.org/1999/xlink">
    <!-- Generator: Sketch 56.3 (81716) - https://sketch.com -->
    <title>Home page banner BG</title>
    <desc>Created with Sketch.</desc>
    <defs>
        <rect id="path-1" x="0" y="0" width="1440" height="546"></rect>
        <polygon id="path-3" points="0.121552511 0.156293834 1329.5756 0.156293834 1329.5756 405.180919 0.121552511 405.180919"></polygon>
    </defs>
    <g id="Page-1" stroke="none" stroke-width="1" fill="none" fill-rule="evenodd">
        <g id="Hey-Digital_Home" transform="translate(0.000000, -2916.000000)">
            <g id="Home-page-banner-BG" transform="translate(0.000000, 2916.000000)">
                <mask id="mask-2" fill="white">
                    <use xlink:href="#path-1"></use>
                </mask>
                <use id="Rectangle-Copy-2" fill="#E1E8FA" xlink:href="#path-1"></use>
                <g id="3224657" opacity="0.100095" mask="url(#mask-2)">
                    <g transform="translate(-9.000000, -191.000000)">
                        <path d="M327.87832,230.262323 L313.620815,230.189241 C305.776959,230.148938 299.407877,236.516736 299.450419,244.356519 C299.49296,252.198326 293.123879,258.566124 285.277997,258.525629 L285.271919,258.525629 C277.428063,258.48311 271.058981,264.848884 271.099497,272.688666 L271.099497,272.69879 C271.140013,280.538572 264.770931,286.904346 256.929101,286.863851 L256.91492,286.863851 C249.07309,286.823356 242.704008,293.187105 242.744524,301.026888 L242.744524,301.043085 C242.783014,308.882868 236.413932,315.246617 228.570076,315.204097 L228.559947,315.204097 C220.718117,315.163603 214.349035,321.527352 214.387525,329.365109 L214.387525,329.39953 C214.426015,337.235263 208.063011,343.594962 200.225232,343.560542 L200.164458,343.560542 C192.326679,343.524096 185.965701,349.883796 186,357.715479 L186.06699,372 M1437,51.0730826 L1422.73844,51 C1414.89459,50.9596973 1408.52753,57.3274958 1408.57007,65.1672781 C1408.61261,73.0070605 1402.24353,79.3768837 1394.39765,79.3343642 L1394.38955,79.3343642 C1386.54772,79.2938694 1380.17864,85.6596431 1380.21915,93.4994255 L1380.21915,93.5095492 C1380.25967,101.349332 1373.89059,107.715105 1366.04673,107.674611 L1366.03457,107.674611 C1358.19072,107.634116 1351.82366,113.997865 1351.86215,121.837647 L1351.86215,121.853845 C1351.90267,129.693627 1345.53359,136.057376 1337.68973,136.014857 L1337.6796,136.014857 C1329.83777,135.974362 1323.46869,142.338111 1323.50718,150.175869 L1323.50718,150.210289 C1323.54567,158.046022 1317.18266,164.405722 1309.34489,164.371301 L1309.28411,164.371301 C1301.44633,164.334856 1295.08535,170.694555 1295.11965,178.526239 L1295.18664,192.810759" id="Stroke-1" stroke="#050511" stroke-width="1" fill="none"></path>
                        <g id="Group-35" stroke="none" stroke-width="1" fill="none" fill-rule="evenodd" transform="translate(339.000000, 548.000000)">
                            <path d="M122,100.997982 C122,114.254183 111.256201,125 98,125 C84.7458169,125 74,114.254183 74,100.997982 C74,87.7437989 84.7458169,77 98,77 C111.256201,77 122,87.7437989 122,100.997982" id="Fill-3" fill="#183165"></path>
                            <path d="M98.5,64.2077555 C78.4897673,64.2077555 62.2097426,80.4882187 62.2097426,100.49899 C62.2097426,120.511781 78.4897673,136.792245 98.5,136.792245 C118.510233,136.792245 134.792277,120.511781 134.792277,100.49899 C134.792277,80.4882187 118.510233,64.2077555 98.5,64.2077555 Z M98.5,138 C77.8232981,138 61,121.178268 61,100.49899 C61,79.8217315 77.8232981,63 98.5,63 C119.176702,63 136,79.8217315 136,100.49899 C136,121.178268 119.176702,138 98.5,138 L98.5,138 Z" id="Fill-4" fill="#040306"></path>
                            <path d="M98,53.2104513 C71.6488619,53.2104513 50.2084521,74.6483941 50.2084521,100.998988 C50.2084521,127.351606 71.6488619,148.789549 98,148.789549 C124.351138,148.789549 145.791548,127.351606 145.791548,100.998988 C145.791548,74.6483941 124.351138,53.2104513 98,53.2104513 Z M98,150 C70.9808733,150 49,128.019581 49,100.998988 C49,73.9824435 70.9808733,52 98,52 C125.019127,52 147,73.9824435 147,100.998988 C147,128.019581 125.019127,150 98,150 L98,150 Z" id="Fill-5" fill="#040306"></path>
                            <path d="M100.5,0 L100.5,17.6127551 M83.0471768,1.52643877 L86.1061278,18.8719658 M66.1267852,6.05919264 L72.1495377,22.6111335 M50.2489878,13.4626231 L59.0553653,28.7168886 M35.8996535,23.5120158 L47.2204037,37.0029813 M23.5120158,35.8976291 L37.0050057,47.2204037 M13.4646476,50.2489878 L28.7168886,59.0553653 M6.05919264,66.1267852 L22.6111335,72.1495377 M1.52643877,83.0471768 L18.8719658,86.1061278 M0,100.497976 L17.6127551,100.497976 M1.52643877,117.948774 L18.8719658,114.891848 M6.05919264,134.873215 L22.6111335,128.846413 M13.4646476,150.748988 L28.7168886,141.94261 M23.5120158,165.100346 L37.0050057,153.777572 M35.8996535,177.487984 L47.2204037,163.994994 M50.2489878,187.535352 L59.0553653,172.281087 M66.1267852,194.938783 L72.1495377,178.386842 M83.0471768,199.471537 L86.1061278,182.128034 M100.5,201 L100.5,183.387245 M117.950799,199.471537 L114.891848,182.128034 M134.87119,194.938783 L128.848438,178.386842 M150.748988,187.535352 L141.94261,172.281087 M165.098322,177.487984 L153.777572,163.994994 M177.487984,165.100346 L163.994994,153.777572 M187.535352,150.748988 L172.281087,141.94261 M194.938783,134.873215 L178.386842,128.846413 M199.471537,117.948774 L182.12601,114.891848 M201,100.497976 L183.38522,100.497976 M199.471537,83.0471768 L182.12601,86.1061278 M194.938783,66.1267852 L178.386842,72.1495377 M187.535352,50.2489878 L172.281087,59.0553653 M177.487984,35.8976291 L163.994994,47.2204037 M165.098322,23.5120158 L153.777572,37.0029813 M150.748988,13.4626231 L141.94261,28.7168886 M134.87119,6.05919264 L128.848438,22.6111335 M117.950799,1.52643877 L114.891848,18.8719658" id="Stroke-392" stroke="#040306" stroke-width="0.5" stroke-linecap="round"></path>
                        </g>
                        <path d="M1341.49515,594.561309 C1341.91732,595.476213 1342.32677,596.420694 1342.71925,597.39278 C1342.92716,597.905442 1343.52966,598.145999 1344.08125,597.907414 C1344.63284,597.670801 1344.91712,597.043776 1344.70709,596.533086 C1344.36341,595.639871 1343.89032,594.724967 1343.43844,593.849498 C1344.38462,593.482747 1345.34354,593.092335 1346.30882,592.674319 C1346.85829,592.437706 1347.14045,591.806737 1346.93042,591.294075 C1346.71615,590.775498 1346.08394,590.568461 1345.55781,590.812962 C1344.52252,591.264499 1343.49784,591.686459 1342.48376,592.078842 C1341.97885,591.17774 1341.4612,590.304243 1340.93507,589.462295 C1340.63594,589.014701 1340.00798,588.874705 1339.50943,589.119206 C1339.27394,589.231597 1339.10846,589.409057 1339.02785,589.61215 C1338.93662,589.844819 1338.95359,590.111009 1339.1021,590.349594 C1339.59429,591.136333 1340.07587,591.952649 1340.54896,592.794597 C1339.61126,593.121912 1338.72023,593.437396 1337.72313,593.679925 C1337.42824,593.756824 1337.2076,593.934284 1337.09304,594.157095 C1336.99121,594.352301 1336.96787,594.581027 1337.04849,594.807781 C1337.22457,595.298754 1337.79738,595.598464 1338.34472,595.454524 C1339.38002,595.188334 1340.43016,594.888624 1341.49515,594.561309" id="Fill-6" stroke="none" fill="#040306" fill-rule="evenodd"></path>
                        <path d="M1327.88186,612.806848 C1327.85559,613.836614 1327.85963,614.954702 1327.73233,615.964395 C1327.67575,616.510391 1328.08796,616.980109 1328.67395,616.998175 C1329.27408,617.034307 1329.75701,616.528458 1329.78934,615.958373 C1329.84592,614.946673 1329.87825,613.951032 1329.89239,612.975464 C1330.88048,613.041707 1331.90091,613.101927 1332.91527,613.117986 C1333.47498,613.109956 1333.97004,612.620165 1333.99833,612.048073 C1334.03066,611.471966 1333.59016,611.028344 1333.03246,611.03838 C1331.9595,611.042395 1330.97141,611.086557 1329.89037,610.994219 C1329.89441,609.994563 1329.75903,608.906585 1329.66608,607.902914 C1329.6095,607.364947 1329.12253,606.971508 1328.6012,607.001618 C1328.35671,607.017677 1328.14656,607.124066 1327.99703,607.286661 C1327.8273,607.475351 1327.73637,607.736305 1327.7687,608.025362 C1327.8374,608.950746 1327.86165,609.870108 1327.87984,610.823595 C1326.92003,610.727243 1325.97841,610.610817 1325.06104,610.48034 C1324.7822,610.438186 1324.52356,610.524501 1324.33766,610.695125 C1324.18005,610.851698 1324.04264,611.032358 1324.01031,611.273239 C1323.93353,611.783104 1324.2932,612.292968 1324.83271,612.395343 C1325.87738,612.61615 1326.83921,612.686407 1327.88186,612.806848" id="Fill-7" stroke="none" fill="#040306" fill-rule="evenodd"></path>
                        <path d="M1309.00037,622.892714 C1308.52133,623.784992 1308.00981,624.685131 1307.46581,625.593131 C1307.17758,626.070716 1307.34402,626.658361 1307.86163,626.898136 C1308.37721,627.137911 1309.04909,626.939408 1309.33124,626.459858 C1309.83464,625.612785 1310.30962,624.771607 1310.75618,623.938291 C1311.61684,624.406048 1312.4917,624.820741 1313.40107,625.247226 C1313.91462,625.490932 1314.58649,625.284568 1314.86864,624.805018 C1315.15688,624.323503 1314.95186,623.74765 1314.43831,623.50984 C1313.46196,623.057805 1312.51606,622.595944 1311.60263,622.124255 C1312.02077,621.178913 1312.40847,620.245363 1312.7637,619.32164 C1312.95247,618.836194 1312.68453,618.28196 1312.19128,618.075596 C1311.96394,617.981258 1311.72442,617.977328 1311.51534,618.052012 C1311.27582,618.136522 1311.07487,618.323233 1310.97541,618.584627 C1310.63845,619.441527 1310.2812,620.331839 1309.88132,621.190705 C1309.04706,620.675779 1308.24121,620.156921 1307.46175,619.628237 C1307.22832,619.467077 1306.95429,619.425804 1306.70868,619.486731 C1306.49352,619.539796 1306.29663,619.675406 1306.16266,619.877839 C1305.87442,620.320047 1305.97591,620.92145 1306.41436,621.220186 C1307.24456,621.786212 1308.10521,622.344377 1309.00037,622.892714" id="Fill-8" stroke="none" fill="#040306" fill-rule="evenodd"></path>
                        <path d="M1286.90771,624.28874 C1286.10304,624.968087 1285.26711,625.655847 1284.41751,626.219515 C1283.9683,626.530795 1283.85893,627.172283 1284.20072,627.658131 C1284.5347,628.162909 1285.20071,628.278587 1285.66164,627.90421 C1286.46631,627.283755 1287.24169,626.656989 1287.99364,626.023914 C1288.53855,626.869416 1289.11081,627.719125 1289.71236,628.570938 C1290.05025,629.082025 1290.72212,629.119883 1291.17524,628.772849 C1291.63226,628.415298 1291.70257,627.7675 1291.36078,627.325819 C1290.70454,626.505556 1290.08345,625.64533 1289.50143,624.715698 C1290.26314,624.055281 1291.00141,623.319147 1291.71039,622.536741 C1292.08538,622.130816 1292.09319,621.480915 1291.7514,621.081299 C1291.5932,620.894111 1291.38617,620.799465 1291.17133,620.786846 C1290.92524,620.784742 1290.67329,620.864665 1290.47603,621.053957 C1289.81588,621.697549 1289.13034,622.34114 1288.41746,622.980525 C1287.9077,622.139229 1287.42724,621.306346 1286.97412,620.475566 C1286.8374,620.223177 1286.61475,620.08226 1286.37452,620.029679 C1286.16749,619.970788 1285.94288,619.99813 1285.74171,620.124325 C1285.30813,620.395643 1285.13625,621.022408 1285.3843,621.527186 C1285.84718,622.513606 1286.3628,623.390657 1286.90771,624.28874" id="Fill-9" stroke="none" fill="#040306" fill-rule="evenodd"></path>
                        <path d="M1266.01613,616.162954 C1264.98395,616.364075 1263.9251,616.546913 1262.84163,616.709435 C1262.26911,616.794759 1261.89358,617.30264 1262.02697,617.86131 C1262.15625,618.417948 1262.74108,618.812064 1263.3136,618.722677 C1264.3232,618.568281 1265.30818,618.395601 1266.27263,618.208701 C1266.42038,619.200086 1266.64405,620.13662 1266.86157,621.125973 C1266.99085,621.682611 1267.57978,622.076727 1268.15025,621.98734 C1268.72482,621.902016 1269.06546,621.371788 1268.93823,620.817181 C1268.69199,619.76485 1268.47242,618.72674 1268.28363,617.708946 C1269.31786,617.428595 1270.32746,617.125898 1271.30423,616.811011 C1271.82134,616.644426 1272.10658,616.081693 1271.96293,615.563654 C1271.89522,615.321902 1271.74747,615.13297 1271.55458,615.017173 C1271.33501,614.885124 1271.05799,614.846525 1270.77891,614.935912 C1269.8678,615.222357 1268.9054,615.529118 1267.96762,615.752586 C1267.85886,614.771358 1267.77267,613.806383 1267.71111,612.859692 C1267.69264,612.571215 1267.55721,612.331495 1267.3479,612.179131 C1267.16937,612.04505 1266.93544,611.97801 1266.68304,612.006451 C1266.14336,612.065365 1265.71448,612.534648 1265.74731,613.066908 C1265.81093,614.078608 1265.89916,615.110623 1266.01613,616.162954" id="Fill-10" stroke="none" fill="#040306" fill-rule="evenodd"></path>
                        <path d="M1251.32986,598.638759 C1250.32638,598.364094 1249.30847,598.056135 1248.27614,597.719046 C1247.73216,597.542178 1247.16963,597.848055 1247.03158,598.426518 C1246.89146,599.002899 1247.23145,599.635463 1247.77749,599.808169 C1248.71298,600.132774 1249.75561,600.367904 1250.73849,600.596792 C1250.46649,601.564365 1250.20481,602.556906 1249.96166,603.574418 C1249.82155,604.150799 1250.16566,604.783363 1250.70964,604.95815 C1251.27835,605.124614 1251.83057,604.77712 1251.93566,604.223627 C1252.19322,603.131207 1252.46934,602.065837 1252.76399,601.029599 C1253.80663,601.235598 1254.83071,601.410385 1255.83419,601.562284 C1256.39878,601.618465 1256.89331,601.229356 1256.97985,600.69459 C1257.02931,600.440732 1256.98603,600.197279 1256.86858,600.001683 C1256.73465,599.776957 1256.50593,599.616735 1256.22364,599.575119 C1255.28197,599.429463 1254.32382,599.262999 1253.35125,599.071566 C1253.65208,598.135206 1253.92614,597.248785 1254.33206,596.320748 C1254.44745,596.046082 1254.43509,595.761012 1254.32382,595.523801 C1254.22697,595.317802 1254.05183,595.151338 1253.81899,595.063944 C1253.3121,594.874591 1252.72072,595.118045 1252.50643,595.632003 C1252.1005,596.603737 1251.70488,597.606682 1251.32986,598.638759" id="Fill-11" stroke="none" fill="#040306" fill-rule="evenodd"></path>
                        <path d="M1244.88114,577.409177 C1244.10503,576.7303 1243.33087,576.018608 1242.55477,575.2741 C1242.14629,574.882361 1241.54719,574.909024 1241.21458,575.364343 C1240.88002,575.813509 1240.9442,576.519048 1241.35463,576.910787 C1242.08016,577.597867 1242.80374,578.262387 1243.52538,578.894091 C1242.88155,579.636548 1242.1813,580.40977 1241.625,581.197349 C1241.29238,581.646515 1241.36241,582.352054 1241.77477,582.739691 C1242.18908,583.135531 1242.78624,583.067849 1243.11691,582.618682 C1243.74518,581.767523 1244.37346,580.945077 1245.01146,580.15955 C1245.84786,580.789202 1246.68621,581.38604 1247.51678,581.950061 C1247.95638,582.247454 1248.54381,582.116191 1248.83947,581.67728 C1248.97368,581.474232 1249.02425,581.24042 1248.98924,581.016862 C1248.95228,580.76254 1248.81029,580.524625 1248.57493,580.364648 C1247.7677,579.837545 1247.09663,579.265319 1246.36527,578.672584 C1247.02466,577.971147 1247.68406,577.298423 1248.3454,576.654414 C1248.54381,576.457519 1248.63717,576.199095 1248.6255,575.942721 C1248.61578,575.717113 1248.52241,575.491504 1248.34929,575.313068 C1247.97583,574.927483 1247.37284,574.888514 1246.99743,575.249488 C1246.2933,575.936568 1245.58527,576.656465 1244.88114,577.409177" id="Fill-12" stroke="none" fill="#040306" fill-rule="evenodd"></path>
                        <path d="M1249.50216,555.43581 C1249.08206,554.525001 1248.67255,553.580676 1248.28003,552.608752 C1248.0721,552.096175 1247.46739,551.853686 1246.91786,552.092232 C1246.36832,552.328806 1246.08188,552.957698 1246.29194,553.466332 C1246.63566,554.36137 1247.10881,555.274151 1247.56075,556.151447 C1246.61444,556.514193 1245.65753,556.908483 1244.69213,557.32643 C1244.14259,557.563004 1243.85827,558.193868 1244.07045,558.704474 C1244.28263,559.222965 1244.91491,559.431939 1245.44111,559.187479 C1246.47653,558.734045 1247.50346,558.312155 1248.51554,557.919837 C1249.02265,558.822761 1249.54036,559.696113 1250.06655,560.533979 C1250.3636,560.985441 1250.99164,561.125414 1251.49238,560.880954 C1251.72577,560.768581 1251.89127,560.591151 1251.9719,560.38612 C1252.06313,560.155461 1252.04616,559.889315 1251.89764,559.650769 C1251.40751,558.86219 1250.92375,558.047981 1250.45059,557.206172 C1251.38841,556.87694 1252.28168,556.563479 1253.27678,556.320991 C1253.57171,556.244105 1253.79237,556.066674 1253.90695,555.8439 C1254.00879,555.648727 1254.03213,555.420039 1253.9515,555.191351 C1253.77752,554.70046 1253.20252,554.402771 1252.65511,554.542744 C1251.61968,554.812832 1250.56941,555.110521 1249.50216,555.43581" id="Fill-13" stroke="none" fill="#040306" fill-rule="evenodd"></path>
                        <path d="M1262.11814,537.194025 C1262.14643,536.164097 1262.14037,535.045831 1262.26767,534.035978 C1262.32627,533.487888 1261.91204,533.018096 1261.32605,533.002034 C1260.72795,532.963889 1260.24299,533.467811 1260.21066,534.042001 C1260.15408,535.053861 1260.12175,536.047652 1260.10761,537.023374 C1259.12154,536.957122 1258.09909,536.894884 1257.08473,536.882838 C1256.52502,536.890869 1256.02996,537.380738 1256.00167,537.95292 C1255.96934,538.529118 1256.40984,538.972811 1256.96754,538.960765 C1258.0405,538.95675 1259.02859,538.910573 1260.10963,539.006941 C1260.10559,540.00274 1260.24097,541.094906 1260.33392,542.098735 C1260.39252,542.636788 1260.87747,543.030289 1261.40082,542.998166 C1261.64531,542.984113 1261.85344,542.877707 1262.00297,542.713079 C1262.1727,542.526367 1262.26363,542.263363 1262.23332,541.976268 C1262.16462,541.050738 1262.13835,540.13123 1262.12016,539.177592 C1263.08199,539.27396 1264.02159,539.388396 1264.94098,539.520902 C1265.2178,539.561055 1265.47644,539.476733 1265.66234,539.306082 C1265.81995,539.147477 1265.95736,538.968796 1265.98969,538.727877 C1266.06647,538.215924 1265.7068,537.707986 1265.16729,537.603588 C1264.12262,537.384753 1263.16281,537.312477 1262.11814,537.194025" id="Fill-14" stroke="none" fill="#040306" fill-rule="evenodd"></path>
                        <path d="M1281.99881,527.108728 C1282.47991,526.214513 1282.99146,525.314402 1283.53345,524.408396 C1283.8217,523.928861 1283.65728,523.343199 1283.13761,523.101466 C1282.62201,522.861699 1281.95009,523.06216 1281.66793,523.541695 C1281.1645,524.388742 1280.6895,525.229894 1280.24291,526.059254 C1279.38221,525.595441 1278.50933,525.178796 1277.59789,524.750359 C1277.08431,524.510592 1276.4124,524.716949 1276.13227,525.196484 C1275.84198,525.677984 1276.04904,526.253819 1276.56261,526.491621 C1277.53699,526.941677 1278.48294,527.403524 1279.39642,527.877163 C1278.97825,528.822476 1278.59256,529.755997 1278.23529,530.677726 C1278.04651,531.165122 1278.31243,531.717374 1278.80571,531.923731 C1279.03509,532.020031 1279.27665,532.021997 1279.48371,531.947315 C1279.72324,531.862807 1279.92421,531.678068 1280.0257,531.416682 C1280.36267,530.557843 1280.71792,529.667558 1281.11782,528.810684 C1281.95212,529.323629 1282.75801,529.844436 1283.53751,530.373104 C1283.77096,530.532294 1284.045,530.57553 1284.29062,530.514606 C1284.50783,530.459577 1284.7027,530.325936 1284.83668,530.121544 C1285.12493,529.681315 1285.02546,529.077966 1284.58699,528.779239 C1283.75675,528.215196 1282.89402,527.657049 1281.99881,527.108728" id="Fill-15" stroke="none" fill="#040306" fill-rule="evenodd"></path>
                        <path d="M1304.09201,525.711502 C1304.89665,525.03212 1305.73448,524.344326 1306.58208,523.780628 C1307.03127,523.469333 1307.14064,522.825708 1306.80082,522.339834 C1306.4649,521.835031 1305.79893,521.72145 1305.33998,522.091639 C1304.53339,522.71423 1303.75805,523.343132 1303.00615,523.974136 C1302.46126,523.130693 1301.88904,522.278837 1301.28751,521.429085 C1300.9516,520.917971 1300.27781,520.880111 1299.82472,521.227163 C1299.36772,521.582629 1299.29741,522.232564 1299.64114,522.674267 C1300.29734,523.492469 1300.91644,524.352739 1301.49844,525.284522 C1300.73677,525.940767 1299.99854,526.681146 1299.2896,527.463591 C1298.91462,527.867434 1298.90681,528.519472 1299.24859,528.919109 C1299.40678,529.1021 1299.6138,529.200957 1299.82863,529.211474 C1300.0747,529.213577 1300.32664,529.135753 1300.52585,528.946452 C1301.18596,528.302827 1301.86951,527.659203 1302.58235,527.019785 C1303.09208,527.861124 1303.57252,528.69405 1304.02757,529.52277 C1304.16232,529.777275 1304.38496,529.918199 1304.62518,529.970783 C1304.8322,530.029677 1305.05679,530.00023 1305.25991,529.876132 C1305.69152,529.602697 1305.86338,528.978002 1305.61535,528.473199 C1305.15249,527.484625 1304.63495,526.607529 1304.09201,525.711502" id="Fill-16" stroke="none" fill="#040306" fill-rule="evenodd"></path>
                        <path d="M1324.98314,534.836133 C1326.01519,534.635029 1327.07391,534.454238 1328.15725,534.29173 C1328.72765,534.206413 1329.10518,533.698574 1328.97386,533.139951 C1328.84255,532.583359 1328.25779,532.187245 1327.68534,532.276624 C1326.67586,532.433039 1325.68896,532.603673 1324.72667,532.792589 C1324.57894,531.801287 1324.35735,530.8628 1324.13781,529.87353 C1324.0106,529.314907 1323.42173,528.924886 1322.84929,529.012235 C1322.27479,529.097552 1321.93419,529.629767 1322.0614,530.184327 C1322.30967,531.23657 1322.52716,532.272562 1322.71592,533.290271 C1321.68182,533.57263 1320.6744,533.871239 1319.69364,534.188131 C1319.17864,534.354702 1318.89345,534.919419 1319.03707,535.437415 C1319.10478,535.677115 1319.25251,535.866031 1319.44538,535.98385 C1319.66492,536.113857 1319.94191,536.152452 1320.22095,536.063073 C1321.13194,535.778683 1322.09423,535.469917 1323.0319,535.246467 C1323.14064,536.229644 1323.22476,537.194538 1323.28632,538.14115 C1323.30683,538.429603 1323.44225,538.669303 1323.64948,538.821654 C1323.83209,538.953693 1324.06394,539.020727 1324.31631,538.99432 C1324.85798,538.93541 1325.28681,538.466167 1325.25193,537.933952 C1325.18832,536.920305 1325.10009,535.888376 1324.98314,534.836133" id="Fill-17" stroke="none" fill="#040306" fill-rule="evenodd"></path>
                        <path d="M1339.67134,551.359753 C1340.67267,551.636473 1341.69048,551.944403 1342.72272,552.281461 C1343.26665,552.458312 1343.82912,552.152463 1343.96923,551.574055 C1344.10727,550.997727 1343.76731,550.365224 1343.22132,550.190453 C1342.28592,549.867959 1341.24339,549.632851 1340.2606,549.401904 C1340.53463,548.434422 1340.79629,547.444054 1341.03941,546.426639 C1341.17746,545.850311 1340.83338,545.217807 1340.28739,545.040956 C1339.72079,544.876588 1339.17068,545.224049 1339.0656,545.77749 C1338.80806,546.869807 1338.52991,547.935077 1338.23528,548.971218 C1337.19481,548.765238 1336.16875,548.586306 1335.16537,548.438583 C1334.60289,548.382407 1334.10635,548.7694 1334.01981,549.304115 C1333.97036,549.560029 1334.01569,549.80138 1334.13107,549.999037 C1334.26705,550.221662 1334.49369,550.383949 1334.77802,550.425561 C1335.7196,550.567042 1336.67766,550.735571 1337.64808,550.926987 C1337.34727,551.86534 1337.07325,552.751677 1336.66942,553.677547 C1336.55198,553.952186 1336.56434,554.23931 1336.6756,554.474418 C1336.77244,554.680398 1336.94757,554.846846 1337.18244,554.936312 C1337.68723,555.125648 1338.27855,554.880136 1338.49283,554.368307 C1338.90077,553.394584 1339.2943,552.391733 1339.67134,551.359753" id="Fill-18" stroke="none" fill="#040306" fill-rule="evenodd"></path>
                        <g id="Group-22" stroke="none" stroke-width="1" fill="none" fill-rule="evenodd" transform="translate(0.000000, 130.000000)">
                            <mask id="mask-4" fill="white">
                                <use xlink:href="#path-3"></use>
                            </mask>
                            <g id="Clip-20"></g>
                            <path d="M1325.53621,402.802721 C1326.34251,403.472955 1327.14881,404.175587 1327.95714,404.908592 C1328.38257,405.297368 1329.00654,405.271045 1329.35296,404.821522 C1329.69939,404.37605 1329.63456,403.679493 1329.2071,403.294766 C1328.45145,402.612383 1327.69782,401.960373 1326.94622,401.334687 C1327.61679,400.603706 1328.3461,399.840328 1328.9255,399.060751 C1329.27193,398.619328 1329.199,397.922771 1328.76951,397.53602 C1328.338,397.147244 1327.71403,397.214065 1327.36963,397.657512 C1326.7173,398.499861 1326.06294,399.307786 1325.39846,400.085338 C1324.52935,399.465726 1323.65418,398.876488 1322.78913,398.317622 C1322.33331,398.02604 1321.71947,398.155632 1321.41153,398.58693 C1321.27175,398.787393 1321.2211,399.018229 1321.25554,399.236915 C1321.29403,399.488 1321.44192,399.726935 1321.68705,399.884876 C1322.52779,400.405269 1323.22469,400.968184 1323.98845,401.553373 C1323.30167,402.247905 1322.6149,402.912065 1321.92611,403.547876 C1321.71947,403.740239 1321.62222,403.997398 1321.63438,404.250507 C1321.64653,404.473244 1321.74378,404.693955 1321.92205,404.872144 C1322.31102,405.252821 1322.93904,405.291294 1323.33004,404.932891 C1324.0634,404.254557 1324.80082,403.543826 1325.53621,402.802721" id="Fill-19" fill="#040306" mask="url(#mask-4)"></path>
                            <path d="M126.773192,28.3708209 C102.440405,-1.61758706 58.2337823,-6.22822886 28.2285449,18.0925522 C-1.77264079,42.4153582 -6.38758447,86.6001692 17.9452024,116.588577 C42.2800152,146.57901 86.4866377,151.187627 116.489849,126.866846 C146.493061,102.546065 151.108005,58.3612537 126.773192,28.3708209 Z M16.1360959,118.056612 C-9.0070411,87.0699403 -4.24015677,41.4150697 26.7618113,16.2843383 C57.7637793,-8.84639303 103.441187,-4.0818607 128.584324,26.9048109 C153.727461,57.8894577 148.960577,103.546353 117.958609,128.677085 C86.9566408,153.805791 41.2792329,149.043284 16.1360959,118.056612 L16.1360959,118.056612 Z" id="Fill-21" fill="#183165" mask="url(#mask-4)"></path>
                        </g>
                        <path d="M121,202.011197 C121,229.011633 99.2531998,251 72.5,251 C45.7468002,251 24,229.011633 24,202.011197 C24,174.988367 45.7468002,153 72.5,153 C99.2531998,153 121,174.988367 121,202.011197" id="Fill-23" stroke="none" fill="#040306" fill-rule="evenodd"></path>
                        <polyline id="Fill-64" stroke="none" fill="#040306" fill-rule="evenodd" points="396 139.070944 338.006101 138 338 138.347444 394.942422 197 396 139.070944"></polyline>
                        <path d="M1435,181.998972 C1435,189.179749 1429.17929,195 1422,195 C1414.82071,195 1409,189.179749 1409,181.998972 C1409,174.818196 1414.82071,169 1422,169 C1429.17929,169 1435,174.818196 1435,181.998972" id="Fill-246" stroke="none" fill="#03AA54" fill-rule="evenodd"></path>
                        <g id="Group-13" stroke="none" stroke-width="1" fill="none" fill-rule="evenodd" transform="translate(35.000000, 648.000000)">
                            <path d="M25.6265124,82.4941892 C26.1731556,83.1057291 26.1130072,84.0540591 25.4902939,84.6124216 C24.8675806,85.167239 23.9193582,85.1211519 23.372715,84.5078394 C22.8260718,83.8945269 22.8879893,82.9444244 23.5107026,82.389607 C24.1334159,81.8312445 25.0798692,81.8791041 25.6265124,82.4941892" id="Fill-253" fill="#03AA54"></path>
                            <path d="M33.627189,76.4912444 C34.173973,77.1062922 34.1120395,78.0545649 33.4891659,78.6111212 C32.8680617,79.1676775 31.919595,79.1215932 31.372811,78.5065453 C30.826027,77.8932699 30.8879605,76.9449973 31.5108341,76.388441 C32.1319383,75.8318847 33.080405,75.8797414 33.627189,76.4912444" id="Fill-254" fill="#03AA54"></path>
                            <path d="M41.6272639,69.4919794 C42.173938,70.1071717 42.112017,71.0556671 41.4892685,71.612354 C40.8682891,72.1672681 39.920013,72.121173 39.3733388,71.5077536 C38.8266647,70.8925613 38.8868166,69.944066 39.5113343,69.3891519 C40.1323136,68.8324649 41.0805898,68.87856 41.6272639,69.4919794" id="Fill-255" fill="#03AA54"></path>
                            <path d="M48.6278124,62.4934845 C49.1745653,63.106797 49.1108659,64.0551269 48.4897971,64.6117168 C47.8669588,65.1683067 46.9203154,65.1204471 46.3735625,64.5071346 C45.8268096,63.8938222 45.8869702,62.9454922 46.5098084,62.3889023 C47.1326467,61.8323124 48.0810595,61.8783995 48.6278124,62.4934845" id="Fill-256" fill="#03AA54"></path>
                            <path d="M56.6270406,55.4921308 C57.1737937,56.1071787 57.1118638,57.0554514 56.4907947,57.6102352 C55.8679562,58.168564 54.9195431,58.1207072 54.3727899,57.5074318 C53.8260368,56.8941564 53.8879668,55.9458837 54.5108053,55.387555 C55.1336438,54.8327711 56.0802875,54.8788554 56.6270406,55.4921308" id="Fill-257" fill="#03AA54"></path>
                            <path d="M64.6270406,48.4936005 C65.1737937,49.105284 65.1118638,50.0556098 64.4907947,50.6123305 C63.8661868,51.1672783 62.9195431,51.1211804 62.3727899,50.5077238 C61.8260368,49.8942672 61.8879668,48.9457144 62.5108053,48.3889937 C63.1318744,47.832273 64.0802875,47.8783709 64.6270406,48.4936005" id="Fill-258" fill="#03AA54"></path>
                            <path d="M72.6278361,41.4944869 C73.1729497,42.1060636 73.1127748,43.0544508 72.4897879,43.6110742 C71.866801,44.1676977 70.9199317,44.1216079 70.3730483,43.5064858 C69.8261649,42.894909 69.8881096,41.9447492 70.5093266,41.3881257 C71.1323136,40.8315022 72.0809527,40.8793647 72.6278361,41.4944869" id="Fill-259" fill="#03AA54"></path>
                            <path d="M79.6264234,34.4913597 C80.1731969,35.106552 80.1130341,36.0550473 79.4901725,36.6117343 C78.8673108,37.1666484 77.9188624,37.1223262 77.372089,36.5071339 C76.8270851,35.8919416 76.8872479,34.9434463 77.5101095,34.3885322 C78.1329711,33.8318452 79.0814195,33.8797132 79.6264234,34.4913597" id="Fill-260" fill="#03AA54"></path>
                            <path d="M87.627189,27.4931299 C88.173973,28.1063332 88.1120395,29.0544944 87.4891659,29.6109852 C86.8680617,30.167476 85.919595,30.1213972 85.372811,29.5081939 C84.826027,28.8932184 84.8879605,27.9450572 85.5108341,27.3903386 C86.1337078,26.8320755 87.080405,26.8781544 87.627189,27.4931299" id="Fill-261" fill="#03AA54"></path>
                            <path d="M95.6272101,20.4921308 C96.1739632,21.1071787 96.1120332,22.0554514 95.4891947,22.6102352 C94.8681256,23.168564 93.9197125,23.1207072 93.3729594,22.5074318 C92.8262063,21.8941564 92.8881362,20.9458837 93.5092053,20.387555 C94.1338132,19.8327711 95.0804569,19.8788554 95.6272101,20.4921308" id="Fill-262" fill="#03AA54"></path>
                            <path d="M102.625688,13.4934547 C103.174262,14.1085026 103.112326,15.0567752 102.489429,15.611559 C101.866532,16.1681153 100.919799,16.1202586 100.372994,15.5087556 C99.8261899,14.8937078 99.8881257,13.9454351 100.509253,13.3888788 C101.13215,12.8323225 102.078883,12.8784068 102.625688,13.4934547" id="Fill-263" fill="#03AA54"></path>
                            <path d="M110.626512,6.49385373 C111.173156,7.10551974 111.113007,8.05581825 110.490294,8.61252297 C109.867581,9.16745475 108.919358,9.12135818 108.372715,8.50614627 C107.826072,7.89448026 107.887989,6.9459547 108.510703,6.38747703 C109.133416,5.83254525 110.079869,5.87864182 110.626512,6.49385373" id="Fill-264" fill="#03AA54"></path>
                            <path d="M118.626661,0.491244352 C119.173335,1.10629223 119.113183,2.05456489 118.488666,2.61112119 C117.867686,3.16767748 116.91941,3.1215932 116.372736,2.50654532 C115.826062,1.89326992 115.887983,0.943224781 116.510732,0.38844096 C117.131711,-0.168115333 118.079987,-0.120258582 118.626661,0.491244352" id="Fill-265" fill="#03AA54"></path>
                            <path d="M41.6272101,84.4928214 C42.1739632,85.1060792 42.1120332,86.0543247 41.4891947,86.6126374 C40.8681256,87.1674053 39.9197125,87.1213223 39.3729594,86.5062921 C38.8262063,85.8948067 38.8881362,84.9447889 39.5092053,84.3882486 C40.1320438,83.8317083 41.0804569,83.8795636 41.6272101,84.4928214" id="Fill-270" fill="#03AA54"></path>
                            <path d="M48.6272988,77.4913597 C49.1739217,78.106552 49.1120065,79.0550473 48.4893164,79.6117343 C47.8666262,80.1666484 46.920208,80.1223262 46.3735851,79.5071339 C45.8251932,78.8919416 45.8888774,77.9434463 46.5097986,77.3885322 C47.1324887,76.8318452 48.078907,76.8797132 48.6272988,77.4913597" id="Fill-271" fill="#03AA54"></path>
                            <path d="M56.6265124,70.4931299 C57.1731556,71.1063332 57.1130072,72.0544944 56.4902939,72.6109852 C55.8675806,73.167476 54.9193582,73.1213972 54.372715,72.5081939 C53.8260718,71.8932184 53.8879893,70.9450572 54.5107026,70.3903386 C55.1316468,69.8320755 56.0798692,69.8781544 56.6265124,70.4931299" id="Fill-272" fill="#03AA54"></path>
                            <path d="M64.627189,64.4921308 C65.173973,65.1071787 65.1120395,66.0554514 64.4891659,66.6102352 C63.8680617,67.168564 62.919595,67.1207072 62.372811,66.5074318 C61.826027,65.8941564 61.8879605,64.9458837 62.5108341,64.387555 C63.1319383,63.8327711 64.080405,63.8788554 64.627189,64.4921308" id="Fill-273" fill="#03AA54"></path>
                            <path d="M72.627189,57.4934547 C73.173973,58.1067301 73.1120395,59.0567752 72.4891659,59.611559 C71.8680617,60.1681153 70.919595,60.1202586 70.372811,59.5087556 C69.826027,58.8937078 69.8879605,57.9454351 70.5108341,57.3888788 C71.1319383,56.8323225 72.080405,56.8784068 72.627189,57.4934547" id="Fill-274" fill="#03AA54"></path>
                            <path d="M79.627911,50.4938537 C80.1729149,51.1055197 80.1127521,52.0540453 79.4898905,52.612523 C78.8670289,53.1674547 77.92035,53.1213582 77.3735766,52.5061463 C76.8268031,51.8944803 76.8869659,50.9441818 77.5098275,50.387477 C78.1326892,49.8325453 79.0793681,49.8786418 79.627911,50.4938537" id="Fill-275" fill="#03AA54"></path>
                            <path d="M87.6270406,43.4912444 C88.1737937,44.1062922 88.1118638,45.0545649 87.4907947,45.6111212 C86.8679562,46.1676775 85.9195431,46.1215932 85.3727899,45.5065453 C84.8260368,44.8914974 84.8879668,43.9432248 85.5108053,43.388441 C86.1336438,42.8318847 87.0802875,42.8797414 87.6270406,43.4912444" id="Fill-276" fill="#03AA54"></path>
                            <path d="M95.6272101,36.4925682 C96.1739632,37.1058436 96.1120332,38.0541163 95.4891947,38.612445 C94.8663562,39.1672289 93.9197125,39.1211446 93.3729594,38.5078692 C92.8262063,37.8928213 92.8881362,36.9445486 93.5092053,36.3897648 C94.1320438,35.831436 95.0804569,35.8792928 95.6272101,36.4925682" id="Fill-277" fill="#03AA54"></path>
                            <path d="M102.62721,29.4918061 C103.173963,30.1067816 103.112033,31.0549428 102.489195,31.6096614 C101.866356,32.1679245 100.919712,32.1218456 100.372959,31.5068701 C99.8262063,30.8936668 99.8881362,29.9455056 100.509205,29.3890148 C101.132044,28.832524 102.080457,28.8786028 102.62721,29.4918061" id="Fill-278" fill="#03AA54"></path>
                            <path d="M110.626423,22.4928661 C111.173197,23.1080584 111.113034,24.0565537 110.490172,24.6114678 C109.867311,25.1681548 108.918862,25.1202868 108.372089,24.5086403 C107.827085,23.893448 107.887248,22.9449527 108.510109,22.3882657 C109.132971,21.8333516 110.08142,21.8776738 110.626423,22.4928661" id="Fill-279" fill="#03AA54"></path>
                            <path d="M118.627189,15.4934845 C119.173973,16.1050244 119.11204,17.0551269 118.489166,17.6117168 C117.868062,18.1683067 116.919595,18.1204471 116.372811,17.5071346 C115.826027,16.8938222 115.88796,15.9454922 116.510834,15.3889023 C117.133708,14.8323124 118.080405,14.8783995 118.627189,15.4934845" id="Fill-280" fill="#03AA54"></path>
                            <path d="M126.62721,8.49227621 C127.173963,9.10573279 127.112033,10.0542856 126.489195,10.6110063 C125.868126,11.167727 124.919712,11.1216291 124.372959,10.5063995 C123.826206,9.89294297 123.888136,8.94261717 124.509205,8.38766945 C125.132044,7.83272174 126.080457,7.87881963 126.62721,8.49227621" id="Fill-281" fill="#03AA54"></path>
                            <path d="M56.6264234,86.4912444 C57.1731969,87.1062922 57.1130341,88.0545649 56.4901725,88.6111212 C55.8673108,89.1676775 54.9188624,89.1215932 54.372089,88.5065453 C53.8270851,87.8914974 53.8872479,86.9432248 54.5101095,86.388441 C55.1329711,85.8318847 56.0814195,85.8797414 56.6264234,86.4912444" id="Fill-287" fill="#03AA54"></path>
                            <path d="M64.627189,79.4925682 C65.173973,80.1058436 65.1120395,81.0541163 64.4891659,81.612445 C63.8680617,82.1672289 62.919595,82.1211446 62.372811,81.5078692 C61.826027,80.8928213 61.8879605,79.9445486 62.5108341,79.3897648 C63.1337078,78.831436 64.080405,78.8792928 64.627189,79.4925682" id="Fill-288" fill="#03AA54"></path>
                            <path d="M72.6272101,72.4921308 C73.1739632,73.1071787 73.1120332,74.0554514 72.4891947,74.6102352 C71.8681256,75.168564 70.9197125,75.1207072 70.3729594,74.5074318 C69.8262063,73.8941564 69.8881362,72.9458837 70.5092053,72.387555 C71.1320438,71.8327711 72.0804569,71.8788554 72.6272101,72.4921308" id="Fill-289" fill="#03AA54"></path>
                            <path d="M79.6272101,65.4928661 C80.1739632,66.1080584 80.1120332,67.0565537 79.4891947,67.6114678 C78.8663562,68.1681548 77.9197125,68.1202868 77.3729594,67.5086403 C76.8262063,66.893448 76.8881362,65.9449527 77.5092053,65.3882657 C78.1320438,64.8333516 79.0786875,64.8776738 79.6272101,65.4928661" id="Fill-290" fill="#03AA54"></path>
                            <path d="M87.6265124,58.4935142 C88.1731556,59.105091 88.1130072,60.0552508 87.4902939,60.6118743 C86.8675806,61.1684978 85.9193582,61.1206353 85.372715,60.5055131 C84.8260718,59.8939364 84.8879893,58.9455492 85.5107026,58.3889258 C86.1334159,57.8323023 87.0798692,57.8783921 87.6265124,58.4935142" id="Fill-291" fill="#03AA54"></path>
                            <path d="M95.627189,51.4928654 C96.173973,52.1061778 96.1120395,53.0545078 95.4891659,53.6110977 C94.8680617,54.1676876 93.919595,54.1216005 93.372811,53.5065155 C92.826027,52.8949756 92.8879605,51.9448731 93.5108341,51.3882832 C94.1319383,50.8316933 95.080405,50.8795529 95.627189,51.4928654" id="Fill-292" fill="#03AA54"></path>
                            <path d="M102.627189,45.4925682 C103.173973,46.1076161 103.11204,47.0558887 102.489166,47.612445 C101.868062,48.1672289 100.919595,48.1211446 100.372811,47.5078692 C99.826027,46.8928213 99.8879605,45.9445486 100.510834,45.3897648 C101.131938,44.831436 102.080405,44.8792928 102.627189,45.4925682" id="Fill-293" fill="#03AA54"></path>
                            <path d="M110.627911,38.4928654 C111.172915,39.1061778 111.112752,40.0545078 110.489891,40.6110977 C109.867029,41.1676876 108.91858,41.1216005 108.373577,40.5065155 C107.826803,39.893203 107.886966,38.9448731 108.509828,38.3882832 C109.132689,37.8316933 110.081138,37.8795529 110.627911,38.4928654" id="Fill-294" fill="#03AA54"></path>
                            <path d="M118.627006,31.4922464 C119.17381,32.1074387 119.111874,33.055934 118.490747,33.6108481 C117.86785,34.1675351 116.919347,34.12144 116.374312,33.5080206 C115.825738,32.8928283 115.887674,31.9443329 116.510571,31.387646 C117.133468,30.8327319 118.080201,30.878827 118.627006,31.4922464" id="Fill-295" fill="#03AA54"></path>
                            <path d="M126.627062,24.4934547 C127.173784,25.1067301 127.111857,26.0550027 126.490823,26.611559 C125.866251,27.1681153 124.919661,27.1202586 124.372938,26.5087556 C123.826216,25.8937078 123.888143,24.9454351 124.509177,24.3888788 C125.13198,23.8323225 126.080339,23.8784068 126.627062,24.4934547" id="Fill-296" fill="#03AA54"></path>
                            <path d="M133.625688,17.4922762 C134.174262,18.1057328 134.112326,19.0560586 133.489429,19.6110063 C132.866532,20.167727 131.919799,20.1216291 131.372994,19.5063995 C130.82619,18.894716 130.888126,17.9461632 131.509253,17.3876695 C132.13215,16.8327217 133.080653,16.8788196 133.625688,17.4922762" id="Fill-297" fill="#03AA54"></path>
                            <path d="M72.6270617,88.4925682 C73.1737839,89.1076161 73.1118574,90.0558887 72.4908235,90.612445 C71.8662508,91.1672289 70.9196605,91.1211446 70.3729383,90.5078692 C69.8262161,89.8928213 69.8881426,88.9445486 70.5091765,88.3897648 C71.1319799,87.831436 72.0803395,87.8792928 72.6270617,88.4925682" id="Fill-304" fill="#03AA54"></path>
                            <path d="M79.6256878,81.4933827 C80.174262,82.1065686 80.1123262,83.0547029 79.4894291,83.6111779 C78.8665319,84.167653 77.9197991,84.1215755 77.3729945,83.5066173 C76.8261899,82.8934314 76.8881257,81.9452971 77.5092532,81.3888221 C78.1321504,80.832347 79.0806528,80.8784245 79.6256878,81.4933827" id="Fill-305" fill="#03AA54"></path>
                            <path d="M87.6264234,74.4921308 C88.1731969,75.1071787 88.1130341,76.0554514 87.4901725,76.6102352 C86.8673108,77.168564 85.9188624,77.1207072 85.372089,76.5074318 C84.8270851,75.8923839 84.8872479,74.9441113 85.5101095,74.387555 C86.1329711,73.8327711 87.0814195,73.8788554 87.6264234,74.4921308" id="Fill-306" fill="#03AA54"></path>
                            <path d="M95.6271001,67.4934547 C96.1740144,68.1067301 96.1120662,69.0550027 95.4890441,69.611559 C94.867792,70.1681153 93.9190992,70.1202586 93.3721849,69.5087556 C92.8270405,68.8937078 92.8872188,67.9454351 93.5102409,67.3888788 C94.133263,66.8323225 95.0801859,66.8784068 95.6271001,67.4934547" id="Fill-307" fill="#03AA54"></path>
                            <path d="M102.62721,60.4922762 C103.173963,61.1057328 103.112033,62.0560586 102.489195,62.6110063 C101.868126,63.167727 100.919712,63.1216291 100.372959,62.5063995 C99.8262063,61.894716 99.8881362,60.9461632 100.509205,60.3876695 C101.133813,59.8327217 102.080457,59.8788196 102.62721,60.4922762" id="Fill-308" fill="#03AA54"></path>
                            <path d="M110.627299,53.4925682 C111.173922,54.1076161 111.112007,55.0558887 110.489316,55.612445 C109.866626,56.1672289 108.920208,56.1211446 108.373585,55.5078692 C107.825193,54.8945938 107.888877,53.9445486 108.509799,53.3897648 C109.132489,52.831436 110.078907,52.8792928 110.627299,53.4925682" id="Fill-309" fill="#03AA54"></path>
                            <path d="M118.626512,46.4928214 C119.173156,47.1060792 119.113007,48.0543247 118.490294,48.6126374 C117.867581,49.1674053 116.919358,49.1213223 116.372715,48.5062921 C115.826072,47.8930343 115.887989,46.9447889 116.510703,46.3882486 C117.133416,45.8317083 118.079869,45.8795636 118.626512,46.4928214" id="Fill-310" fill="#03AA54"></path>
                            <path d="M126.627189,39.4918061 C127.173973,40.1067816 127.11204,41.0549428 126.489166,41.6096614 C125.868062,42.1679245 124.919595,42.1218456 124.372811,41.5068701 C123.826027,40.8918945 123.88796,39.9437334 124.510834,39.3890148 C125.131938,38.832524 126.080405,38.8786028 126.627189,39.4918061" id="Fill-311" fill="#03AA54"></path>
                            <path d="M133.627189,33.4934547 C134.173973,34.1067301 134.11204,35.0550027 133.489166,35.611559 C132.866292,36.1681153 131.919595,36.1202586 131.372811,35.5087556 C130.826027,34.8937078 130.88796,33.9454351 131.510834,33.3888788 C132.131938,32.8323225 133.080405,32.8784068 133.627189,33.4934547" id="Fill-312" fill="#03AA54"></path>
                            <path d="M141.627911,26.4921308 C142.172915,27.1071787 142.112752,28.0554514 141.489891,28.6102352 C140.867029,29.168564 139.91858,29.1207072 139.373577,28.5074318 C138.826803,27.8941564 138.886966,26.9458837 139.509828,26.387555 C140.132689,25.8327711 141.081138,25.8788554 141.627911,26.4921308" id="Fill-313" fill="#03AA54"></path>
                            <path d="M95.6270406,83.4918061 C96.1737937,84.1067816 96.1118638,85.0549428 95.4907947,85.6096614 C94.8679562,86.1679245 93.9195431,86.1218456 93.3727899,85.5068701 C92.8260368,84.8918945 92.8879668,83.9437334 93.5108053,83.3890148 C94.1336438,82.832524 95.0802875,82.8786028 95.6270406,83.4918061" id="Fill-322" fill="#03AA54"></path>
                            <path d="M102.627062,76.4934547 C103.173784,77.1067301 103.111857,78.0550027 102.490823,78.611559 C101.86802,79.1681153 100.919661,79.1202586 100.372938,78.5087556 C99.8262161,77.8937078 99.8881426,76.9454351 100.509177,76.3888788 C101.13198,75.8323225 102.080339,75.8784068 102.627062,76.4934547" id="Fill-323" fill="#03AA54"></path>
                            <path d="M110.62721,69.4921308 C111.173963,70.1054062 111.112033,71.0554514 110.489195,71.6102352 C109.866356,72.168564 108.919712,72.1207072 108.372959,71.5074318 C107.826206,70.8941564 107.888136,69.9458837 108.509205,69.387555 C109.132044,68.8327711 110.080457,68.8788554 110.62721,69.4921308" id="Fill-324" fill="#03AA54"></path>
                            <path d="M118.626423,62.4924936 C119.173197,63.1062211 119.113034,64.0551928 118.490172,64.6121593 C117.867311,65.1673521 116.918862,65.1212339 116.372089,64.5075064 C115.827085,63.8937789 115.887248,62.9430334 116.510109,62.3878407 C117.132971,61.8326479 118.08142,61.8787661 118.626423,62.4924936" id="Fill-325" fill="#03AA54"></path>
                            <path d="M126.6271,55.4925682 C127.174014,56.1058436 127.112066,57.0541163 126.489044,57.612445 C125.867792,58.1672289 124.919099,58.1211446 124.372185,57.5078692 C123.827041,56.8928213 123.887219,55.9445486 124.510241,55.3897648 C125.133263,54.831436 126.080186,54.8792928 126.6271,55.4925682" id="Fill-326" fill="#03AA54"></path>
                            <path d="M133.62721,48.4912444 C134.173963,49.1062922 134.112033,50.0545649 133.489195,50.6111212 C132.868126,51.1676775 131.919712,51.1215932 131.372959,50.5065453 C130.826206,49.8932699 130.888136,48.9449973 131.509205,48.388441 C132.132044,47.8318847 133.080457,47.8797414 133.62721,48.4912444" id="Fill-327" fill="#03AA54"></path>
                            <path d="M141.627285,41.4933528 C142.173928,42.1082737 142.112011,43.0563505 141.489297,43.6110198 C140.866584,44.1674612 139.920131,44.1213864 139.373488,43.5082376 C138.826844,42.8933167 138.886993,41.9452399 139.509706,41.3887985 C140.132419,40.8323571 141.080642,40.8784319 141.627285,41.4933528" id="Fill-328" fill="#03AA54"></path>
                            <path d="M149.626512,34.4937079 C150.173156,35.1069657 150.113007,36.0552111 149.490294,36.6117514 C148.867581,37.1682917 147.919358,37.1204364 147.372715,36.5071786 C146.826072,35.8939208 146.887989,34.9456753 147.510703,34.3873626 C148.133416,33.8325947 149.079869,33.8786777 149.626512,34.4937079" id="Fill-329" fill="#03AA54"></path>
                            <path d="M110.627189,84.4934547 C111.173973,85.1085026 111.11204,86.0567752 110.489166,86.611559 C109.866292,87.1681153 108.919595,87.1202586 108.372811,86.5087556 C107.826027,85.8937078 107.88796,84.9454351 108.510834,84.3888788 C109.131938,83.8323225 110.080405,83.8784068 110.627189,84.4934547" id="Fill-339" fill="#03AA54"></path>
                            <path d="M118.627911,78.4937079 C119.172915,79.1069657 119.112752,80.0552111 118.489891,80.6117514 C117.867029,81.1682917 116.91858,81.1204364 116.373577,80.5071786 C115.826803,79.8939208 115.886966,78.9456753 116.509828,78.3873626 C117.132689,77.8325947 118.081138,77.8786777 118.627911,78.4937079" id="Fill-340" fill="#03AA54"></path>
                            <path d="M126.628527,71.4922762 C127.173511,72.1057328 127.111581,73.0560586 126.490512,73.6110063 C125.867674,74.167727 124.919261,74.1216291 124.374277,73.5063995 C123.825754,72.892943 123.887684,71.9443902 124.510523,71.3876695 C125.133361,70.8327217 126.080005,70.8788196 126.628527,71.4922762" id="Fill-341" fill="#03AA54"></path>
                            <path d="M133.627041,64.4941892 C134.173794,65.1057291 134.111864,66.0540591 133.490795,66.6124216 C132.867956,67.167239 131.919543,67.1211519 131.37279,66.5078394 C130.826037,65.8945269 130.887967,64.9444244 131.510805,64.389607 C132.133644,63.8312445 133.080288,63.8791041 133.627041,64.4941892" id="Fill-342" fill="#03AA54"></path>
                            <path d="M141.625688,57.4912444 C142.174262,58.1062922 142.112326,59.0545649 141.489429,59.6111212 C140.866532,60.1676775 139.919799,60.1215932 139.372994,59.5065453 C138.82619,58.8932699 138.888126,57.9449973 139.509253,57.388441 C140.13215,56.8318847 141.080653,56.8797414 141.625688,57.4912444" id="Fill-343" fill="#03AA54"></path>
                            <path d="M149.626423,50.4919794 C150.173197,51.1071717 150.113034,52.0556671 149.490172,52.612354 C148.867311,53.1672681 147.920632,53.121173 147.372089,52.5077536 C146.827085,51.8925613 146.887248,50.944066 147.510109,50.3891519 C148.132971,49.8324649 149.08142,49.87856 149.626423,50.4919794" id="Fill-344" fill="#03AA54"></path>
                            <path d="M157.6271,43.4937079 C158.174014,44.1069657 158.112066,45.0552111 157.489044,45.6117514 C156.867792,46.1682917 155.919099,46.1204364 155.372185,45.5071786 C154.827041,44.8939208 154.887219,43.9456753 155.510241,43.3873626 C156.133263,42.8325947 157.080186,42.8786777 157.6271,43.4937079" id="Fill-345" fill="#03AA54"></path>
                        </g>
                        <path d="M609.248401,241.983513 C582.746691,242.671434 560.706447,221.746491 560.016488,195.247363 C559.328552,168.746212 580.253936,146.706432 606.751599,146.016487 C633.253309,145.328566 655.295577,166.253509 655.983512,192.752637 C656.671448,219.253788 635.746064,241.293568 609.248401,241.983513" id="Fill-346" stroke="none" fill="#76B1FF" fill-rule="evenodd"></path>
                        <path d="M372.445112,422.63692 C373.85855,424.137868 373.785546,426.504043 372.284909,427.917655 C370.784271,429.331268 368.423809,429.25815 367.014426,427.755171 C365.600988,426.252193 365.673992,423.888048 367.174629,422.476467 C368.673239,421.060824 371.033701,421.133942 372.445112,422.63692 Z M381.199507,414.388818 C382.610917,415.891796 382.537913,418.255941 381.039304,419.669553 C379.538666,421.083165 377.178204,421.010047 375.764765,419.5091 C374.355383,418.006121 374.426359,415.641977 375.926996,414.228364 C377.427634,412.814752 379.788096,412.885839 381.199507,414.388818 Z M389.951874,406.142746 C391.363284,407.643694 391.29028,410.007838 389.789643,411.42145 C388.291033,412.837094 385.930571,412.763976 384.51916,411.260997 C383.10775,409.758019 383.180754,407.393874 384.679364,405.982293 C386.180001,404.56665 388.540463,404.639768 389.951874,406.142746 Z M398.704241,397.894644 C400.115652,399.397622 400.044675,401.761767 398.544038,403.175379 C397.0434,404.588991 394.682938,404.515873 393.271528,403.014926 C391.860117,401.511947 391.933121,399.147803 393.431731,397.73419 C394.932368,396.320578 397.292831,396.391665 398.704241,397.894644 Z M407.456608,389.648572 C408.870047,391.14952 408.797043,393.513664 407.296405,394.927276 C405.797795,396.340889 403.435305,396.269802 402.025923,394.766823 C400.612484,393.263845 400.685488,390.8997 402.186126,389.486088 C403.686763,388.072476 406.047226,388.145593 407.456608,389.648572 Z M416.211003,381.40047 C417.622414,382.903448 417.54941,385.267593 416.048772,386.681205 C414.548135,388.094817 412.1897,388.021699 410.77829,386.520752 C409.366879,385.017773 409.437855,382.653629 410.938493,381.240016 C412.43913,379.826404 414.799593,379.897491 416.211003,381.40047 Z M424.96337,373.152367 C426.374781,374.655346 426.301777,377.01949 424.803167,378.433102 C423.30253,379.846715 420.942067,379.775628 419.530657,378.272649 C418.119246,376.769671 418.190223,374.405526 419.69086,372.991914 C421.191498,371.578302 423.55196,371.651419 424.96337,373.152367 Z M433.715738,364.906295 C435.127148,366.409274 435.056172,368.773419 433.555534,370.187031 C432.054897,371.600643 429.694434,371.527525 428.283024,370.024547 C426.871614,368.523599 426.944618,366.159455 428.445255,364.745842 C429.943865,363.33223 432.304327,363.403317 433.715738,364.906295 Z M442.470133,356.658193 C443.879515,358.161172 443.808539,360.525316 442.307902,361.938928 C440.807264,363.352541 438.44883,363.281454 437.035391,361.778475 C435.626009,360.275497 435.696985,357.911352 437.197622,356.49774 C438.69826,355.084128 441.058722,355.157245 442.470133,356.658193 Z M451.2225,348.412121 C452.63391,349.9151 452.560906,352.279245 451.060269,353.690826 C449.561659,355.106469 447.201197,355.033351 445.789786,353.530373 C444.378376,352.029425 444.449352,349.665281 445.949989,348.251668 C447.450627,346.836025 449.811089,346.909143 451.2225,348.412121 Z M459.974867,340.164019 C461.386277,341.666998 461.313273,344.031142 459.814664,345.444754 C458.314026,346.858367 455.953564,346.78728 454.542153,345.284301 C453.130743,343.781323 453.201719,341.417178 454.702357,340.003566 C456.202994,338.589954 458.563456,338.663071 459.974867,340.164019 Z M468.727234,331.917947 C470.138645,333.418895 470.067668,335.785071 468.567031,337.196652 C467.066393,338.612295 464.705931,338.539177 463.294521,337.036199 C461.88311,335.53322 461.956114,333.169076 463.456752,331.757494 C464.955361,330.341851 467.315824,330.414969 468.727234,331.917947 Z M477.481629,323.669845 C478.891012,325.172823 478.820036,327.536968 477.319398,328.95058 C475.81876,330.364193 473.458298,330.291075 472.046888,328.790127 C470.637505,327.287149 470.708481,324.923004 472.209119,323.509392 C473.709756,322.09578 476.068191,322.166866 477.481629,323.669845 Z M486.233996,315.423773 C487.645407,316.924721 487.572403,319.288866 486.071765,320.702478 C484.573156,322.118121 482.212693,322.045003 480.801283,320.542025 C479.389872,319.039046 479.460848,316.674902 480.961486,315.26332 C482.462124,313.847677 484.822586,313.920795 486.233996,315.423773 Z M494.986363,307.175671 C496.397774,308.678649 496.326798,311.042794 494.82616,312.456406 C493.325523,313.870019 490.96506,313.796901 489.55365,312.295953 C488.142239,310.792975 488.215243,308.42883 489.713853,307.015218 C491.214491,305.601606 493.574953,305.672692 494.986363,307.175671 Z M380.964272,431.705568 C382.375682,433.208546 382.304706,435.572691 380.804068,436.986303 C379.303431,438.397884 376.942969,438.326797 375.531558,436.82585 C374.120148,435.32084 374.193152,432.958727 375.691761,431.543083 C377.192399,430.131502 379.552861,430.202589 380.964272,431.705568 Z M389.716639,423.459496 C391.128049,424.960444 391.057073,427.324588 389.556436,428.738201 C388.055798,430.151813 385.695336,430.080726 384.283925,428.577747 C382.872515,427.074769 382.945519,424.710624 384.446156,423.297012 C385.944766,421.8834 388.307256,421.956518 389.716639,423.459496 Z M398.471034,415.211394 C399.882444,416.714372 399.80944,419.078517 398.308803,420.492129 C396.808165,421.90371 394.447703,421.832623 393.03832,420.329645 C391.62691,418.826666 391.697886,416.464553 393.198524,415.048909 C394.699161,413.637328 397.057596,413.708415 398.471034,415.211394 Z M407.223401,406.963291 C408.634811,408.46627 408.561807,410.830414 407.063198,412.244027 C405.56256,413.657639 403.202098,413.586552 401.790687,412.081542 C400.379277,410.580595 400.450253,408.21645 401.950891,406.802838 C403.451528,405.389226 405.811991,405.462344 407.223401,406.963291 Z M415.975768,398.71722 C417.387179,400.220198 417.316203,402.584343 415.815565,403.995924 C414.314927,405.409536 411.954465,405.338449 410.543055,403.835471 C409.131644,402.332492 409.204648,399.970379 410.703258,398.554735 C412.203895,397.141123 414.564358,397.214241 415.975768,398.71722 Z M424.728135,390.469117 C426.139546,391.972096 426.06857,394.33624 424.567932,395.749853 C423.067295,397.163465 420.706832,397.092378 419.295422,395.587368 C417.884011,394.086421 417.957015,391.722276 419.457653,390.308664 C420.95829,388.895052 423.316725,388.96817 424.728135,390.469117 Z M433.480502,382.223046 C434.893941,383.726024 434.820937,386.090169 433.320299,387.50175 C431.82169,388.915362 429.459199,388.844275 428.049817,387.341297 C426.636379,385.838318 426.709382,383.474174 428.21002,382.060561 C429.710658,380.646949 432.07112,380.720067 433.480502,382.223046 Z" id="Stroke-349" stroke="#FFCC0C" stroke-width="0.5" fill="none"></path>
                        <path d="M441.963892,373.906043 C443.369719,375.409015 443.297004,377.773149 441.804323,379.186756 C440.307603,380.600362 437.958499,380.527244 436.552672,379.024272 C435.146846,377.523331 435.217541,375.159197 436.712242,373.74559 C438.206942,372.331984 440.558066,372.403071 441.963892,373.906043 Z M450.681632,365.660007 C452.087458,367.160948 452.014743,369.525082 450.522063,370.938688 C449.027362,372.352295 446.676239,372.279177 445.270412,370.778236 C443.864586,369.275264 443.935281,366.911129 445.432001,365.497523 C446.924682,364.083917 449.275806,364.157035 450.681632,365.660007 Z M459.399372,357.41194 C460.805198,358.914912 460.734503,361.279046 459.239802,362.692652 C457.745102,364.106258 455.393978,364.033141 453.988152,362.530169 C452.582325,361.027197 452.655041,358.665093 454.149741,357.251487 C455.642422,355.837881 457.993545,355.908967 459.399372,357.41194 Z M468.119131,349.165903 C469.524958,350.666844 469.452242,353.030979 467.957542,354.444585 C466.464861,355.858191 464.113738,355.785074 462.705891,354.284133 C461.302085,352.781161 461.37278,350.417026 462.867481,349.00342 C464.362181,347.589814 466.713305,347.662931 468.119131,349.165903 Z M476.836871,340.917836 C478.242697,342.420808 478.169982,344.782912 476.675282,346.198549 C475.182601,347.610124 472.831477,347.539038 471.425651,346.036066 C470.019825,344.533093 470.09254,342.168959 471.58522,340.755353 C473.079921,339.343778 475.431044,339.414864 476.836871,340.917836 Z M485.55461,332.6718 C486.960437,334.172741 486.887722,336.536876 485.395041,337.950482 C483.900341,339.364088 481.549217,339.290971 480.143391,337.790029 C478.737564,336.287057 478.80826,333.922923 480.30296,332.509317 C481.797661,331.095711 484.148784,331.168828 485.55461,332.6718 Z M494.27235,324.423733 C495.680196,325.926705 495.607481,328.288809 494.112781,329.704446 C492.61808,331.116021 490.266957,331.044934 488.86315,329.541962 C487.455304,328.03899 487.528019,325.674856 489.02272,324.26125 C490.5154,322.849674 492.866524,322.920761 494.27235,324.423733 Z M502.99211,316.175666 C504.395916,317.678638 504.325221,320.042772 502.83052,321.456379 C501.33582,322.869985 498.986716,322.796867 497.57887,321.293895 C496.175064,319.792954 496.245759,317.42882 497.740459,316.015213 C499.23516,314.601607 501.586283,314.672694 502.99211,316.175666 Z M389.42113,440.705028 C390.824936,442.208 390.754241,444.572135 389.261561,445.985741 C387.76484,447.399347 385.415737,447.32623 384.00789,445.823258 C382.604084,444.322317 382.674779,441.958182 384.16948,440.544576 C385.66418,439.13097 388.015304,439.202056 389.42113,440.705028 Z M398.13887,432.456961 C399.544696,433.959933 399.471981,436.324068 397.97728,437.737674 C396.4846,439.15128 394.133476,439.080194 392.72765,437.577222 C391.321823,436.074249 391.392519,433.710115 392.887219,432.296509 C394.38192,430.882903 396.733043,430.95602 398.13887,432.456961 Z M406.856609,424.210925 C408.262436,425.713897 408.19174,428.078032 406.69704,429.491638 C405.202339,430.905244 402.851216,430.832126 401.44539,429.329154 C400.039563,427.828213 400.112278,425.464079 401.604959,424.050473 C403.099659,422.634835 405.450783,422.707953 406.856609,424.210925 Z M415.574349,415.962858 C416.980175,417.46583 416.90948,419.829965 415.41478,421.243571 C413.920079,422.657177 411.568956,422.58609 410.163129,421.083118 C408.757303,419.580146 408.830018,417.216012 410.324718,415.802406 C411.817399,414.388799 414.170542,414.461917 415.574349,415.962858 Z M424.294109,407.716822 C425.699935,409.217763 425.62722,411.583928 424.132519,412.995504 C422.637819,414.411141 420.286695,414.338023 418.882889,412.835051 C417.477062,411.332079 417.547758,408.967945 419.042458,407.556369 C420.537159,406.140732 422.886262,406.21385 424.294109,407.716822 Z M433.011848,399.468755 C434.417675,400.971727 434.344959,403.335861 432.852279,404.749467 C431.357578,406.163074 429.006455,406.089956 427.600628,404.589015 C426.194802,403.086043 426.265497,400.721908 427.760198,399.308302 C429.254898,397.894696 431.606022,397.965783 433.011848,399.468755 Z M441.729588,391.222719 C443.135414,392.72366 443.064719,395.087794 441.570018,396.5014 C440.075318,397.917038 437.724194,397.84392 436.318368,396.340948 C434.912542,394.837976 434.985257,392.473841 436.477937,391.062266 C437.972638,389.646629 440.323761,389.719746 441.729588,391.222719 Z M450.447328,382.974651 C451.853154,384.477624 451.782459,386.841758 450.287758,388.255364 C448.793058,389.66897 446.443954,389.595853 445.036108,388.094912 C443.630281,386.59194 443.702996,384.227805 445.197697,382.814199 C446.692397,381.400593 449.043521,381.471679 450.447328,382.974651 Z M459.167087,374.728615 C460.572913,376.229556 460.500198,378.593691 459.005498,380.007297 C457.512817,381.420903 455.159674,381.349817 453.755867,379.846845 C452.350041,378.343873 452.420736,375.979738 453.915437,374.566132 C455.410137,373.152526 457.761261,373.225643 459.167087,374.728615 Z M467.884827,366.480548 C469.290653,367.98352 469.217938,370.347655 467.725257,371.761261 C466.230557,373.174867 463.879433,373.10175 462.473607,371.598778 C461.067781,370.097836 461.138476,367.733702 462.633176,366.320096 C464.127877,364.90649 466.479,364.977576 467.884827,366.480548 Z M476.602566,358.232481 C478.008393,359.735453 477.937698,362.099588 476.442997,363.513194 C474.948297,364.9268 472.597173,364.855714 471.191347,363.352741 C469.78552,361.849769 469.858235,359.485635 471.352936,358.072029 C472.845617,356.658422 475.19674,356.73154 476.602566,358.232481 Z M485.322326,349.986445 C486.726133,351.489417 486.655437,353.853552 485.160737,355.267158 C483.666036,356.680764 481.314913,356.607646 479.909086,355.104674 C478.50528,353.603733 478.575975,351.239599 480.070676,349.825993 C481.565376,348.412386 483.91448,348.483473 485.322326,349.986445 Z M494.040066,341.738378 C495.445892,343.24135 495.373177,345.605484 493.878476,347.019091 C492.385796,348.432697 490.034672,348.36161 488.628846,346.858638 C487.223019,345.355666 487.293715,342.991532 488.788415,341.577925 C490.283116,340.164319 492.634239,340.237437 494.040066,341.738378 Z M502.757805,333.492342 C504.163632,334.995314 504.092936,337.359448 502.596216,338.771023 C501.103535,340.186661 498.752412,340.113543 497.346586,338.610571 C495.940759,337.10963 496.013474,334.743464 497.506155,333.331889 C499.000855,331.916252 501.351979,331.98937 502.757805,333.492342 Z" id="Stroke-350" stroke="#FFCC0C" stroke-width="0.5" fill="none"></path>
                        <path d="M512.468108,325.174942 C513.879525,326.677923 513.808549,329.04207 512.307904,330.455684 C510.807258,331.869298 508.446784,331.798211 507.035366,330.295231 C505.623948,328.792251 505.696953,326.428103 507.197598,325.014489 C508.696215,323.600875 511.05669,323.673993 512.468108,325.174942 Z M398.44543,449.704994 C399.856848,451.207974 399.783843,453.572121 398.285226,454.985736 C396.784581,456.39935 394.424106,456.326232 393.012689,454.823251 C391.601271,453.322302 391.674275,450.958154 393.174921,449.54454 C394.673538,448.128895 397.034012,448.202013 398.44543,449.704994 Z M407.19987,441.458912 C408.611288,442.959861 408.538283,445.32604 407.037638,446.737623 C405.536993,448.151237 403.176518,448.08015 401.767129,446.577169 C400.353683,445.074189 400.426687,442.710041 401.927333,441.296427 C403.42595,439.882813 405.786425,439.955931 407.19987,441.458912 Z M415.952282,433.210799 C417.3637,434.713779 417.290696,437.077927 415.792078,438.491541 C414.291433,439.905155 411.930959,439.832037 410.517513,438.329057 C409.108123,436.826076 409.1791,434.46396 410.679745,433.050346 C412.18039,431.636732 414.540865,431.707819 415.952282,433.210799 Z M424.704694,424.964717 C426.116112,426.465667 426.043108,428.829814 424.542462,430.243428 C423.043845,431.657042 420.683371,431.585955 419.271953,430.082975 C417.860535,428.579995 417.93354,426.215847 419.432157,424.802233 C420.932802,423.388619 423.293277,423.461737 424.704694,424.964717 Z M433.457106,416.716605 C434.868524,418.219585 434.797548,420.583733 433.296902,421.997347 C431.796257,423.408929 429.435783,423.337843 428.024365,421.834862 C426.612947,420.331882 426.685952,417.969765 428.184569,416.55412 C429.687242,415.142537 432.045689,415.213624 433.457106,416.716605 Z M442.209519,408.470523 C443.622964,409.971472 443.54996,412.33562 442.049315,413.749234 C440.550697,415.162848 438.188195,415.091761 436.778805,413.58878 C435.365359,412.0858 435.438364,409.721652 436.939009,408.308038 C438.437626,406.894424 440.800129,406.967542 442.209519,408.470523 Z M450.963959,400.22241 C452.375376,401.72539 452.302372,404.089538 450.801727,405.503152 C449.301081,406.914735 446.942635,406.843648 445.531217,405.340668 C444.119799,403.837687 444.190776,401.475571 445.691421,400.059926 C447.192066,398.648343 449.552541,398.71943 450.963959,400.22241 Z M459.716371,391.974297 C461.127788,393.477278 461.054784,395.841425 459.556167,397.255039 C458.055521,398.668653 455.695047,398.597566 454.283629,397.092555 C452.872212,395.591606 452.943188,393.227458 454.443833,391.813844 C455.944479,390.40023 458.304953,390.473348 459.716371,391.974297 Z M468.468783,383.728216 C469.880201,385.231196 469.809224,387.595344 468.308579,389.006927 C466.807934,390.420541 464.447459,390.349454 463.036041,388.846473 C461.624624,387.343493 461.697628,384.981376 463.196245,383.565731 C464.696891,382.152117 467.057365,382.225235 468.468783,383.728216 Z M477.221195,375.480103 C478.632613,376.983083 478.561636,379.347231 477.060991,380.760845 C475.560346,382.174459 473.201899,382.101341 471.788454,380.59836 C470.377036,379.097411 470.45004,376.733264 471.950685,375.31965 C473.451331,373.906036 475.811805,373.979153 477.221195,375.480103 Z M485.975635,367.234021 C487.387053,368.737002 487.314048,371.101149 485.813403,372.512732 C484.314786,373.926346 481.952283,373.855259 480.542894,372.352279 C479.131476,370.849298 479.202452,368.485151 480.703098,367.071537 C482.203743,365.657923 484.564217,365.731041 485.975635,367.234021 Z M494.728047,358.985908 C496.139465,360.488889 496.06646,362.853036 494.567843,364.26665 C493.067198,365.680264 490.706723,365.607146 489.295306,364.104166 C487.883888,362.601186 487.954864,360.237038 489.45551,358.825455 C490.956155,357.411841 493.316629,357.482928 494.728047,358.985908 Z M503.480459,350.739827 C504.891877,352.240776 504.8209,354.604924 503.320255,356.018538 C501.81961,357.432152 499.459135,357.359034 498.047718,355.858084 C496.6363,354.355104 496.709304,351.990956 498.20995,350.577342 C499.708567,349.163728 502.069041,349.236846 503.480459,350.739827 Z M512.234899,342.491714 C513.644289,343.994694 513.573313,346.356811 512.072667,347.772456 C510.572022,349.18607 508.211548,349.112952 506.80013,347.609971 C505.39074,346.106991 505.461717,343.742844 506.962362,342.331261 C508.463007,340.917647 510.821454,340.988733 512.234899,342.491714 Z M520.987311,334.245632 C522.398729,335.746582 522.325725,338.110729 520.825079,339.524343 C519.326462,340.937957 516.965988,340.864839 515.55457,339.36389 C514.143152,337.860909 514.214129,335.496762 515.714774,334.083148 C517.215419,332.669534 519.575894,332.740621 520.987311,334.245632 Z" id="Stroke-351" stroke="#FFCC0C" stroke-width="0.5" fill="none"></path>
                        <g id="Group-34" stroke="none" stroke-width="1" fill="none" fill-rule="evenodd" transform="translate(1307.000000, 712.000000)">
                            <path d="M132.410119,27.9998893 C132.689799,28.0038647 132.949501,27.9005056 133.147275,27.7275779 C133.375014,27.5307981 133.518849,27.2445729 133.522844,26.9205819 L133.57878,23.7244008 L136.769126,24.0921206 C137.092755,24.1298864 137.396407,24.0245397 137.622149,23.8277598 C137.82192,23.6548321 137.957764,23.4123358 137.991725,23.1340613 C138.06564,22.5337835 137.636133,21.993136 137.032824,21.9235673 L133.612742,21.5300077 L133.670675,18.1032563 C133.680664,17.5009908 133.197218,17.0060598 132.591911,17 C131.984607,16.9921461 131.483181,17.4751511 131.47519,18.0794042 L131.42325,21.2755853 L128.230907,20.9078655 C127.6256,20.8363092 127.076229,21.2696223 127.008307,21.8659248 C126.934392,22.4662026 127.361902,23.0068501 127.965211,23.0764188 L131.385293,23.471966 L131.329357,26.8967298 C131.319369,27.4989953 131.800817,27.9939263 132.410119,27.9998893" id="Fill-366" fill="#183165"></path>
                            <path d="M99.4100868,27 C99.6917641,27.0019586 99.9514666,26.9006048 100.147242,26.727707 C100.376979,26.5309613 100.520814,26.2427984 100.52481,25.9188635 L100.578748,22.723236 L103.771091,23.0928795 C104.092723,23.1306387 104.396375,23.0233229 104.624114,22.8265772 C104.821887,22.6536794 104.959729,22.4132124 104.991693,22.1349861 C105.065608,21.5348123 104.638098,20.9922711 104.034789,20.9227145 L100.614707,20.5292231 L100.670643,17.1030652 C100.680631,16.500904 100.199183,16.0060587 99.5918785,16 C98.9845742,15.9921474 98.4831487,16.4750687 98.4771555,17.0792172 L98.4232173,20.2768321 L95.2308743,19.9071886 C94.6275654,19.837632 94.076197,20.2688828 94.0082748,20.8650819 C93.9343595,21.4652557 94.3638675,22.0058097 94.9671764,22.0753662 L98.3872585,22.470845 L98.3293249,25.8950155 C98.3193363,26.4971767 98.8027825,26.992022 99.4100868,27" id="Fill-372" fill="#183165"></path>
                            <path d="M117.40809,10.9998873 C117.691765,11.0038626 117.951467,10.9024912 118.147243,10.7295635 C118.374982,10.5307961 118.520815,10.244571 118.52481,9.92058003 L118.576751,6.72439948 L121.769093,7.09410694 C122.090725,7.12988508 122.396375,7.02453833 122.624114,6.82775856 C122.821887,6.65483088 122.959729,6.41233459 122.991693,6.13604784 C123.065608,5.53378248 122.638098,4.99313502 122.034789,4.92356642 L118.614707,4.53000687 L118.670643,1.10325609 C118.680632,0.50099073 118.199183,0.00605978775 117.589881,0 C116.984575,-0.00785393351 116.483149,0.475150962 116.477156,1.079404 L116.42122,4.27558454 L113.230875,3.90786477 C112.625569,3.83829616 112.076198,4.26962152 112.008276,4.86592386 C111.93436,5.46620155 112.363868,6.006849 112.965179,6.07641761 L116.387259,6.47196483 L116.329325,9.89672793 C116.319337,10.4989933 116.802783,10.9939242 117.40809,10.9998873" id="Fill-373" fill="#183165"></path>
                        </g>
                        <polyline id="Fill-381" stroke="none" fill="#76B1FF" fill-rule="evenodd" points="1289.00845 697 1288 675.008355 1309.99362 674 1311 695.991645 1289.00845 697"></polyline>
                        <polyline id="Fill-382" stroke="none" fill="#040306" fill-rule="evenodd" points="1263.00836 726 1262 704.006289 1283.99371 703 1285 724.989579 1263.00836 726"></polyline>
                        <polyline id="Fill-383" stroke="none" fill="#76B1FF" fill-rule="evenodd" points="1237.00836 754 1236 732.006289 1257.99164 731 1259 752.991645 1237.00836 754"></polyline>
                        <path d="M1332.5,243 L1332.5,250.273581 M1325.29288,243.630027 L1326.557,250.792546 M1318.30587,245.501934 L1320.79373,252.337323 M1311.74899,248.559181 L1315.38587,254.859451 M1305.82417,252.708878 L1310.499,258.280174 M1300.70911,257.823808 L1306.28055,262.500547 M1296.55932,263.750505 L1302.85772,267.387295 M1293.502,270.305209 L1300.33755,272.793008 M1291.62802,277.294066 L1298.79274,278.556139 M1291,284.50101 L1298.27174,284.50101 M1291.62802,291.707953 L1298.79274,290.443861 M1293.502,298.694791 L1300.33755,296.206992 M1296.55932,305.251514 L1302.85772,301.612705 M1300.70911,311.176192 L1306.28055,306.501472 M1305.82417,316.291122 L1310.499,310.719826 M1311.74899,320.440819 L1315.38587,314.140549 M1318.30587,323.498066 L1320.79373,316.662677 M1325.29288,325.369973 L1326.557,318.207454 M1332.5,326 L1332.5,318.726419 M1339.70712,325.369973 L1338.443,318.207454 M1346.69413,323.498066 L1344.20829,316.662677 M1353.25101,320.440819 L1349.61413,314.140549 M1359.17785,316.291122 L1354.501,310.719826 M1364.29291,311.176192 L1358.71945,306.501472 M1368.44068,305.251514 L1362.14228,301.612705 M1371.498,298.694791 L1364.66245,296.206992 M1373.37198,291.707953 L1366.20726,290.443861 M1374,284.50101 L1366.72826,284.50101 M1373.37198,277.294066 L1366.20726,278.556139 M1371.498,270.305209 L1364.66245,272.793008 M1368.44068,263.750505 L1362.14228,267.387295 M1364.29291,257.823808 L1358.71945,262.500547 M1359.17785,252.708878 L1354.501,258.280174 M1353.25101,248.559181 L1349.61413,254.859451 M1346.69413,245.501934 L1344.20829,252.337323 M1339.70712,243.630027 L1338.443,250.792546" id="Stroke-388" stroke="#040306" stroke-width="0.5" fill="none" stroke-linecap="round"></path>
                        <path d="M1309,285.001005 C1309,272.298387 1319.29683,262 1332,262 C1344.70317,262 1355,272.298387 1355,285.001005 C1355,297.703623 1344.70317,308 1332,308 C1319.29683,308 1309,297.703623 1309,285.001005" id="Fill-389" stroke="none" fill="#040306" fill-rule="evenodd"></path>
                        <path d="M35,572 C35,580.835132 27.8366899,588 19.0010038,588 C10.1653178,588 3,580.835132 3,572 C3,563.162861 10.1653178,556 19.0010038,556 C27.8366899,556 35,563.162861 35,572" id="Fill-424" stroke="none" fill="#183165" fill-rule="evenodd"></path>
                        <path d="M62,19.7273044 L62.7241427,40.5800745 L83.4862628,39.8527701 L82.7621201,19 L62,19.7273044 Z M156.513737,457.14723 L157.23788,478 L178,477.274721 L177.275857,456.421951 L156.513737,457.14723 Z" id="Stroke-427" stroke="#040306" stroke-width="1" fill="none"></path>
                        <polyline id="Fill-428" stroke="none" fill="#183165" fill-rule="evenodd" points="167 445.739461 167.741527 467 189 466.260539 188.260539 445 167 445.739461"></polyline>
                        <polygon id="Stroke-429" stroke="#040306" stroke-width="1" fill="none" points="178 433.741457 178.741457 455 200 454.260608 199.258543 433"></polygon>
                        <polyline id="Fill-436" stroke="none" fill="#1C7CFB" fill-rule="evenodd" points="1389 453.233898 1371 453 1386.42187 471 1389 453.233898"></polyline>
                        <polyline id="Fill-437" stroke="none" fill="#040306" fill-rule="evenodd" points="1403 441.379752 1374 441 1398.84749 470 1403 441.379752"></polyline>
                        <path d="M102.498673,511.879489 C80.0550303,483.740572 39.4527341,478.820472 11,500.450654 L93.5951927,604 C120.8453,580.86234 124.942316,540.016377 102.498673,511.879489" id="Fill-438" stroke="none" fill="#76B1FF" fill-rule="evenodd"></path>
                        <polyline id="Fill-440" stroke="none" fill="#183165" fill-rule="evenodd" points="1413.87914 602 1403 590.881179 1414.12086 580 1425 591.120835 1413.87914 602"></polyline>
                        <polyline id="Fill-441" stroke="none" fill="#183165" fill-rule="evenodd" points="252.880161 543 242 531.881179 253.119839 521 264 532.120835 252.880161 543"></polyline>
                        <polyline id="Fill-444" stroke="none" fill="#183165" fill-rule="evenodd" points="438.880161 276 428 264.879165 439.119839 254 450 265.120835 438.880161 276"></polyline>
                    </g>
                </g>
            </g>
        </g>
    </g>
</svg>