<?xml version="1.0" encoding="UTF-8"?>
<svg width="271px" height="64px" viewBox="0 0 271 64" version="1.1" xmlns="http://www.w3.org/2000/svg" xmlns:xlink="http://www.w3.org/1999/xlink">
    <!-- Generator: Sketch 56.3 (81716) - https://sketch.com -->
    <title>Ford Bennett Copy</title>
    <desc>Created with Sketch.</desc>
    <defs>
        <linearGradient x1="36.690902%" y1="34.722118%" x2="61.4776447%" y2="75.190957%" id="linearGradient-1">
            <stop stop-color="#D1D2D4" offset="0%"></stop>
            <stop stop-color="#AEAFB2" offset="100%"></stop>
        </linearGradient>
        <linearGradient x1="23.0350171%" y1="57.1019544%" x2="637.363345%" y2="-22.3702228%" id="linearGradient-2">
            <stop stop-color="#97989B" offset="0%"></stop>
            <stop stop-color="#AEB0B4" offset="100%"></stop>
        </linearGradient>
        <linearGradient x1="-49.3018322%" y1="61.7037129%" x2="522.15172%" y2="-17.5835093%" id="linearGradient-3">
            <stop stop-color="#97989B" offset="0%"></stop>
            <stop stop-color="#AEB0B4" offset="100%"></stop>
        </linearGradient>
        <linearGradient x1="-52.9955826%" y1="71.3065015%" x2="330.459691%" y2="-7.75232198%" id="linearGradient-4">
            <stop stop-color="#97989B" offset="0%"></stop>
            <stop stop-color="#AEB0B4" offset="100%"></stop>
        </linearGradient>
        <linearGradient x1="-212.403748%" y1="80.1100238%" x2="477.390082%" y2="0.844567148%" id="linearGradient-5">
            <stop stop-color="#97989B" offset="0%"></stop>
            <stop stop-color="#AEB0B4" offset="100%"></stop>
        </linearGradient>
        <linearGradient x1="-247.134572%" y1="91.2199961%" x2="289.871923%" y2="11.826887%" id="linearGradient-6">
            <stop stop-color="#97989B" offset="0%"></stop>
            <stop stop-color="#AEB0B4" offset="100%"></stop>
        </linearGradient>
        <linearGradient x1="-1598.20607%" y1="135.218115%" x2="957.267709%" y2="3.09123081%" id="linearGradient-7">
            <stop stop-color="#97989B" offset="0%"></stop>
            <stop stop-color="#AEB0B4" offset="100%"></stop>
        </linearGradient>
        <linearGradient x1="-243.036646%" y1="123.534732%" x2="217.224048%" y2="8.04992764%" id="linearGradient-8">
            <stop stop-color="#97989B" offset="0%"></stop>
            <stop stop-color="#AEB0B4" offset="100%"></stop>
        </linearGradient>
        <linearGradient x1="-410.622215%" y1="99.3959638%" x2="206.655554%" y2="33.9039944%" id="linearGradient-9">
            <stop stop-color="#97989B" offset="0%"></stop>
            <stop stop-color="#AEB0B4" offset="100%"></stop>
        </linearGradient>
        <linearGradient x1="-516.999991%" y1="110.680608%" x2="100.288889%" y2="45.1886382%" id="linearGradient-10">
            <stop stop-color="#97989B" offset="0%"></stop>
            <stop stop-color="#AEB0B4" offset="100%"></stop>
        </linearGradient>
    </defs>
    <g id="Page-1" stroke="none" stroke-width="1" fill="none" fill-rule="evenodd">
        <g id="Ford-Bennett-Copy">
            <rect id="Rectangle-Copy-6" fill="#000000" x="0" y="0" width="271" height="64"></rect>
            <g id="Auto-Digg-02" transform="translate(91.000000, 2.000000)" fill-rule="nonzero">
                <path d="M84.9947539,20.594263 C84.4241152,-0.0537895301 65.8310686,7.26183732e-07 65.8310686,7.26183732e-07 L40.3903581,7.26183732e-07 L40.3903581,0.0584030889 L39.5139076,0.0584030889 L12.5,41.1654713 L23.6826259,41.1654713 L40.3919345,14.3529723 L40.3919345,41.2330943 L60.5424148,41.2330943 L65.842103,41.25 L65.842103,41.2330943 C66.1589494,41.2300205 85.3636197,41.0117828 84.9947539,20.594263 Z M72.194793,29.1070701 C69.527609,31.7674184 65.1138294,32.0087093 65.0192484,32.0117831 L51.1284534,32.0117831 L51.2135763,16.6736689 L58.6113862,16.6736689 L58.6113862,9.22899703 L64.9561944,9.22899703 C65.2525482,9.24436588 67.8598309,9.41188637 70.2164739,10.848874 C71.2868155,11.5005133 74.5419779,13.4830952 74.7563615,20.8048163 C74.8115338,24.5686481 73.9508467,27.3642423 72.194793,29.1116808 L72.194793,29.1070701 Z" id="Shape" fill="url(#linearGradient-1)"></path>
                <polygon id="Path" fill="url(#linearGradient-2)" points="0 58.75 3.20682594 58.75 8.01706485 50.8482198 8.01706485 58.7235466 11.25 58.7235466 11.25 46.25 7.9894198 46.25"></polygon>
                <path d="M19.2855995,46.25 L19.2855995,46.25 L18.1412729,46.25 L18.1412729,49.1076307 L19.2855995,49.1076307 L19.2855995,54.2299454 C19.2855995,55.1823674 18.4861594,55.954458 17.5,55.954458 C16.5138406,55.954458 15.7144005,55.1823674 15.7144005,54.2299454 L15.7144005,49.1076307 L16.7976535,49.1076307 L16.7976535,46.2546566 L15.7144005,46.2546566 L15.7144005,46.2546566 L12.5,46.2546566 L12.5,53.9288153 C12.5044331,56.592737 14.7417115,58.75 17.5,58.75 L17.5,58.75 C18.8260824,58.75 20.097852,58.2412375 21.0355339,57.3356345 C21.9732158,56.4300315 22.5,55.2017703 22.5,53.9210543 L22.5,46.25 L19.2855995,46.25 Z" id="Path" fill="url(#linearGradient-3)"></path>
                <polygon id="Path" fill="url(#linearGradient-4)" points="22.5 46.2701238 22.5 49.0952012 25.2022363 49.0952012 25.2022363 58.75 28.75 58.75 28.75 46.25"></polygon>
                <path d="M34.9627779,46.2500322 C31.5157345,46.270609 28.7361433,49.0781828 28.750052,52.5252825 C28.7640653,55.9723821 31.5663066,58.7573488 35.0134034,58.7499854 C38.4605001,58.7425929 41.2507944,55.9456563 41.2499998,52.4985284 C41.245068,50.8361214 40.5798439,49.2437852 39.4007146,48.0719247 C38.2215853,46.9000643 36.6251724,46.2447055 34.9627779,46.2500322 Z M34.973642,56.0821605 C33.1981343,56.0821605 31.7563103,54.4928841 31.7563103,52.5342251 C31.7563103,50.5755661 33.1981343,48.9847377 34.973642,48.9847377 C36.7491497,48.9847377 38.1925257,50.5740141 38.1925257,52.5342251 C38.1925257,54.4944361 36.7507017,56.0821605 34.973642,56.0821605 L34.973642,56.0821605 Z" id="Shape" fill="url(#linearGradient-5)"></path>
                <path d="M48.9268993,46.25 L45,46.25 L45,51.4126041 L47.567588,51.4126041 L47.567588,49.0481594 L48.7758647,49.0481594 C49.9910003,49.0216166 51.1250325,49.6736667 51.7401669,50.7525853 C52.3553012,51.8315038 52.3553012,53.168496 51.7401669,54.2474145 C51.1250325,55.3263331 49.9910003,55.9783833 48.7758647,55.9518404 L47.567588,55.9518404 L47.567588,55.9145316 L45,55.9145316 L45,58.75 L48.9268993,58.75 C50.5374468,58.7504122 52.0821676,58.0921959 53.2211384,56.9201946 C54.3601091,55.7481933 55,54.1584434 55,52.5007772 L55,52.5007772 C55,49.0485683 52.2809802,46.25 48.9268993,46.25 Z" id="Path" fill="url(#linearGradient-6)"></path>
                <rect id="Rectangle" fill="url(#linearGradient-7)" x="56.25" y="46.25" width="3.75" height="2.46575342"></rect>
                <rect id="Rectangle" fill="url(#linearGradient-8)" x="56.25" y="50" width="3.75" height="8.75"></rect>
                <path d="M69.0034723,54.0206058 L70.0591667,54.0206058 C70.0591667,54.0206058 70.0484723,54.5993669 69.383889,55.2882944 C68.9393056,55.753786 68.036389,55.9337761 68.036389,55.9337761 L67.5429168,55.9337761 C65.6973798,55.8939972 64.2217186,54.3631452 64.2217186,52.4883627 C64.2217186,50.6135802 65.6973798,49.0827282 67.5429168,49.0429494 L68.036389,49.0429494 L72.0361112,49.0693272 L74.6944444,46.2608615 L68.0302779,46.25 L67.3840279,46.25 C63.9944661,46.2542816 61.2491544,49.0466361 61.25,52.4891385 L61.25,52.4891385 C61.25,55.9340626 63.999718,58.7267254 67.3916668,58.7267254 L68.0379168,58.7267254 L70.5633334,58.75 L75,51.6900447 L66.5681946,51.6559086 L69.0034723,54.0206058 Z" id="Path" fill="url(#linearGradient-9)"></path>
                <path d="M84.0034723,54.0206058 L85.0591667,54.0206058 C85.0591667,54.0206058 85.0484723,54.5993669 84.383889,55.2882944 C83.9393056,55.753786 83.036389,55.9337761 83.036389,55.9337761 L82.5429168,55.9337761 C80.6973798,55.8939972 79.2217186,54.3631452 79.2217186,52.4883627 C79.2217186,50.6135802 80.6973798,49.0827282 82.5429168,49.0429494 L83.036389,49.0429494 L87.0361112,49.0693272 L89.6944444,46.2608615 L83.0302779,46.25 L82.3840279,46.25 C78.9944661,46.2542816 76.2491544,49.0466361 76.25,52.4891385 L76.25,52.4891385 C76.25,55.9340626 78.999718,58.7267254 82.3916668,58.7267254 L83.0379168,58.7267254 L85.5633334,58.75 L90,51.6900447 L81.5681946,51.6559086 L84.0034723,54.0206058 Z" id="Path" fill="url(#linearGradient-10)"></path>
            </g>
        </g>
    </g>
</svg>