<?xml version="1.0" encoding="UTF-8"?>
<svg width="210px" height="54px" viewBox="0 0 210 54" version="1.1" xmlns="http://www.w3.org/2000/svg" xmlns:xlink="http://www.w3.org/1999/xlink">
    <!-- Generator: Sketch 56.3 (81716) - https://sketch.com -->
    <title>Auto Digg</title>
    <desc>Created with Sketch.</desc>
    <defs>
        <linearGradient x1="36.690902%" y1="33.9274232%" x2="61.4776447%" y2="76.5012907%" id="linearGradient-1">
            <stop stop-color="#D1D2D4" offset="0%"></stop>
            <stop stop-color="#AEAFB2" offset="100%"></stop>
        </linearGradient>
        <linearGradient x1="22.3194411%" y1="57.1019544%" x2="652.950342%" y2="-22.3702228%" id="linearGradient-2">
            <stop stop-color="#97989B" offset="0%"></stop>
            <stop stop-color="#AEB0B4" offset="100%"></stop>
        </linearGradient>
        <linearGradient x1="-42.6236525%" y1="61.7037129%" x2="490.398892%" y2="-17.5835093%" id="linearGradient-3">
            <stop stop-color="#97989B" offset="0%"></stop>
            <stop stop-color="#AEB0B4" offset="100%"></stop>
        </linearGradient>
        <linearGradient x1="-32.8877631%" y1="71.3065015%" x2="275.705568%" y2="-7.75232198%" id="linearGradient-4">
            <stop stop-color="#97989B" offset="0%"></stop>
            <stop stop-color="#AEB0B4" offset="100%"></stop>
        </linearGradient>
        <linearGradient x1="-212.403748%" y1="80.1100238%" x2="477.390082%" y2="0.844567148%" id="linearGradient-5">
            <stop stop-color="#97989B" offset="0%"></stop>
            <stop stop-color="#AEB0B4" offset="100%"></stop>
        </linearGradient>
        <linearGradient x1="-264.775012%" y1="91.2199961%" x2="304.112764%" y2="11.826887%" id="linearGradient-6">
            <stop stop-color="#97989B" offset="0%"></stop>
            <stop stop-color="#AEB0B4" offset="100%"></stop>
        </linearGradient>
        <linearGradient x1="-1598.20607%" y1="231.992281%" x2="957.267709%" y2="-50.178629%" id="linearGradient-7">
            <stop stop-color="#97989B" offset="0%"></stop>
            <stop stop-color="#AEB0B4" offset="100%"></stop>
        </linearGradient>
        <linearGradient x1="-206.608373%" y1="123.534732%" x2="196.43592%" y2="8.04992764%" id="linearGradient-8">
            <stop stop-color="#97989B" offset="0%"></stop>
            <stop stop-color="#AEB0B4" offset="100%"></stop>
        </linearGradient>
        <linearGradient x1="-410.622215%" y1="97.8884431%" x2="206.655554%" y2="34.3952301%" id="linearGradient-9">
            <stop stop-color="#97989B" offset="0%"></stop>
            <stop stop-color="#AEB0B4" offset="100%"></stop>
        </linearGradient>
        <linearGradient x1="-516.999991%" y1="108.82869%" x2="100.288889%" y2="45.3354767%" id="linearGradient-10">
            <stop stop-color="#97989B" offset="0%"></stop>
            <stop stop-color="#AEB0B4" offset="100%"></stop>
        </linearGradient>
    </defs>
    <g id="Page-1" stroke="none" stroke-width="1" fill="none" fill-rule="evenodd">
        <g id="Auto-Digg">
            <rect id="Rectangle" fill="#FFFFFF" x="0" y="0" width="210" height="53"></rect>
            <g id="Auto-Digg-02" transform="translate(65.000000, 0.000000)" fill-rule="nonzero">
                <path d="M74.8688696,18.6434783 C74.3652174,-0.0486956522 57.9547826,-6.5668408e-07 57.9547826,-6.5668408e-07 L35.5005217,-6.5668408e-07 L35.5005217,0.0528695652 L34.7269565,0.0528695652 L10.8841739,37.266087 L20.754087,37.266087 L35.501913,12.9933913 L35.501913,37.3273043 L53.2869565,37.3273043 L57.9645217,37.3426087 L57.9645217,37.3273043 C58.2441739,37.3245217 75.1944348,37.1269565 74.8688696,18.6434783 Z M63.5714783,26.349913 C61.2173913,28.7582609 57.3217391,28.9766957 57.2382609,28.9794783 L44.978087,28.9794783 L45.0532174,15.0942609 L51.5826087,15.0942609 L51.5826087,8.35478261 L57.1826087,8.35478261 C57.4441739,8.36869565 59.7453913,8.52034783 61.8253913,9.82121739 C62.770087,10.4111304 65.6431304,12.205913 65.8323478,18.834087 C65.8810435,22.2413913 65.1213913,24.7721739 63.5714783,26.354087 L63.5714783,26.349913 Z" id="Shape" fill="url(#linearGradient-1)"></path>
                <polygon id="Path" fill="url(#linearGradient-2)" points="0.0445217391 52.9947826 2.94956522 52.9947826 7.30713043 45.9297391 7.30713043 52.9711304 10.2358261 52.9711304 10.2358261 41.8184348 7.28208696 41.8184348"></polygon>
                <path d="M16.7833043,41.8045217 L16.7833043,41.8045217 L15.7926957,41.8045217 L15.7926957,44.365913 L16.7833043,44.365913 L16.7833043,48.9572174 C16.7833043,49.8109055 16.0912534,50.5029565 15.2375652,50.5029565 C14.3838771,50.5029565 13.6918261,49.8109055 13.6918261,48.9572174 L13.6918261,44.365913 L14.6295652,44.365913 L14.6295652,41.8086957 L13.6918261,41.8086957 L13.6918261,41.8086957 L10.9092174,41.8086957 L10.9092174,48.6873043 C10.913055,51.0750677 12.8497988,53.0086957 15.2375652,53.0086957 L15.2375652,53.0086957 C16.3855144,53.0086957 17.4864466,52.5526746 18.2981693,51.7409519 C19.109892,50.9292292 19.565913,49.828297 19.565913,48.6803478 L19.565913,41.8045217 L16.7833043,41.8045217 Z" id="Path" fill="url(#linearGradient-3)"></path>
                <polygon id="Path" fill="url(#linearGradient-4)" points="20.173913 41.8156522 20.173913 44.3547826 22.3526957 44.3547826 22.3526957 53.0323478 25.2132174 53.0323478 25.2132174 41.7975652"></polygon>
                <path d="M31.4086957,41.7627534 C28.3185969,41.7811993 25.8268351,44.2980291 25.8393035,47.3881574 C25.8518658,50.4782856 28.3639323,52.9748494 31.4540788,52.9682486 C34.5442254,52.9616216 37.045582,50.4543275 37.0448697,47.3641739 C37.0404486,45.8739208 36.4441091,44.4464822 35.3870798,43.3959761 C34.3300504,42.34547 32.8989476,41.7579783 31.4086957,41.7627534 Z M31.4184348,50.5766957 C29.8267826,50.5766957 28.5342609,49.152 28.5342609,47.3961739 C28.5342609,45.6403478 29.8267826,44.2142609 31.4184348,44.2142609 C33.010087,44.2142609 34.304,45.6389565 34.304,47.3961739 C34.304,49.1533913 33.0114783,50.5766957 31.4184348,50.5766957 L31.4184348,50.5766957 Z" id="Shape" fill="url(#linearGradient-5)"></path>
                <path d="M43.9652174,41.8073043 L40.3478261,41.8073043 L40.3478261,46.4278261 L42.7130435,46.4278261 L42.7130435,44.3116522 L43.826087,44.3116522 C44.9454488,44.2878964 45.9900995,44.8714802 46.5567506,45.8371104 C47.1234017,46.8027406 47.1234017,47.9993463 46.5567506,48.9649766 C45.9900995,49.9306068 44.9454488,50.5141906 43.826087,50.4904348 L42.7130435,50.4904348 L42.7130435,50.4570435 L40.3478261,50.4570435 L40.3478261,52.9947828 L43.9652174,52.9947828 C45.4488258,52.9951517 46.8717957,52.4060492 47.9209958,51.3571101 C48.9701958,50.308171 49.5596522,48.8853476 49.5596522,47.4017391 L49.5596522,47.4017391 C49.5596522,44.3120181 47.0549384,41.8073043 43.9652174,41.8073043 Z" id="Path" fill="url(#linearGradient-6)"></path>
                <rect id="Rectangle" fill="url(#linearGradient-7)" x="50.1773913" y="41.8017391" width="3.02469565" height="2.90643478"></rect>
                <rect id="Rectangle" fill="url(#linearGradient-8)" x="50.1773913" y="45.3203478" width="3.08452174" height="7.69113043"></rect>
                <path d="M60.9043478,48.7749565 L61.8657391,48.7749565 C61.8657391,48.7749565 61.856,49.293913 61.2507826,49.9116522 C60.845913,50.3290435 60.0236522,50.4904348 60.0236522,50.4904348 L59.5742609,50.4904348 C57.8935822,50.4547664 56.5497389,49.0821006 56.5497389,47.4010435 C56.5497389,45.7199863 57.8935822,44.3473206 59.5742609,44.3116522 L60.0236522,44.3116522 L63.666087,44.3353043 L66.0869565,41.8170435 L60.018087,41.8073043 L59.4295652,41.8073043 C56.3427864,41.8111435 53.842708,44.314958 53.8434781,47.4017391 L53.8434781,47.4017391 C53.8434781,50.4906917 56.3475691,52.9947826 59.4365217,52.9947826 L60.0250435,52.9947826 L62.3248696,53.0156522 L66.3652174,46.6852174 L58.6866087,46.6546087 L60.9043478,48.7749565 Z" id="Path" fill="url(#linearGradient-9)"></path>
                <path d="M74.4,48.7749565 L75.3613913,48.7749565 C75.3613913,48.7749565 75.3516522,49.293913 74.7464348,49.9116522 C74.3415652,50.3290435 73.5193043,50.4904348 73.5193043,50.4904348 L73.069913,50.4904348 C71.3892343,50.4547664 70.0453911,49.0821006 70.0453911,47.4010435 C70.0453911,45.7199863 71.3892343,44.3473206 73.069913,44.3116522 L73.5193043,44.3116522 L77.1617391,44.3353043 L79.5826087,41.8170435 L73.5137391,41.8073043 L72.9252174,41.8073043 C69.8384385,41.8111435 67.3383602,44.314958 67.3391303,47.4017391 L67.3391303,47.4017391 C67.3391303,50.4906917 69.8432213,52.9947826 72.9321739,52.9947826 L73.5206957,52.9947826 L75.8205217,53.0156522 L79.8608696,46.6852174 L72.1822609,46.6546087 L74.4,48.7749565 Z" id="Path" fill="url(#linearGradient-10)"></path>
            </g>
        </g>
    </g>
</svg>