<?xml version="1.0" encoding="UTF-8"?>
<svg width="50px" height="49px" viewBox="0 0 50 49" version="1.1" xmlns="http://www.w3.org/2000/svg" xmlns:xlink="http://www.w3.org/1999/xlink">
    <!-- Generator: Sketch 56.3 (81716) - https://sketch.com -->
    <title>dental-care (1)</title>
    <desc>Created with Sketch.</desc>
    <g id="Page-1" stroke="none" stroke-width="1" fill="none" fill-rule="evenodd">
        <g id="Hey-Digital_Home" transform="translate(-1233.000000, -767.000000)" fill-rule="nonzero">
            <g id="Group-14" transform="translate(0.000000, 667.000000)">
                <g id="Dentists" transform="translate(1227.000000, 92.000000)">
                    <g id="dental-care-(1)" transform="translate(6.000000, 8.000000)">
                        <path d="M34.7870118,30.2333081 C35.5397845,30.9096488 36.0380365,31.8337373 36.1956998,32.8459473 L37.2580412,32.2727054 L43.6543322,28.7422291 L44.4222261,28.3185286 C46.0637075,27.4115363 48.1121043,27.9846145 49.0740741,29.6199718 L33.9989938,40.2092336 C31.9672167,41.238854 29.6652632,41.571339 27.4342957,41.1574125 L18.720554,39.5157085 C17.9192171,39.3097344 17.0712358,39.4248679 16.3501452,39.8375475 L11.6305107,42.8901417 L8.33333333,31.8262486 L8.36193076,31.8175796 C9.37915862,31.6256203 10.3254311,31.1518608 11.0977512,30.4478674 L12.5413916,29.1334206 C15.4287037,26.9097657 19.288789,26.524125 22.5420175,28.1343109 L23.1404451,28.4301428 C24.0760572,28.8929489 25.1018282,29.1333672 26.1410566,29.1334206 L31.9389199,29.1334206 C32.9877516,29.1316876 34.0008995,29.5229491 34.7870118,30.2333081 L34.7870118,30.2333081 Z" id="Path" fill="#F7CAA5"></path>
                        <path d="M44.4400205,28.7040719 L44.4444444,28.7125059 L37.765435,32.1472575 L36.6561377,32.7049565 C36.4915056,31.7201915 35.9712308,30.8211585 35.1851852,30.163156 L39.4785971,27.9576618 L40.5701987,27.3967999 C41.9205995,26.7452725 43.6912725,27.4495125 44.4400205,28.7040719 L44.4400205,28.7040719 Z" id="Path" fill="#EDB288"></path>
                        <path d="M38.837508,27.4592845 L38.8888889,27.5599918 L34.7334618,29.9271788 C33.9389845,29.1854135 32.9150556,28.7768535 31.8550632,28.7786631 L30.5555556,28.7786631 L34.0109184,26.792806 C35.5768287,25.8334433 37.5572663,26.1069116 38.837508,27.4592845 L38.837508,27.4592845 Z" id="Path" fill="#EDB288"></path>
                        <path d="M25.0346722,5.32182736 L25.0357301,5.31861439 C25.061266,5.26112492 25.1073881,5.21557953 25.1647921,5.19116635 C26.7738364,4.51108652 27.1060125,3.84385859 28.9213445,3.3426344 C35.8653066,1.42662995 36.5698585,10.3790509 33.3105125,12.1301226 C30.5684726,13.6038074 30.8117863,13.7516043 30.9990321,16.2363054 C31.2010883,18.9169981 30.824481,22.3613079 29.110706,24.1530773 C29.0206063,24.2307999 28.9153578,24.288455 28.8018034,24.322294 C28.5439155,24.420104 28.2539401,24.369022 28.0438436,24.1887721 C27.8337472,24.0085222 27.7364063,23.7273105 27.7894067,23.4537196 C27.7894067,23.4537196 28.3892279,17.6468017 25.9613801,14.57841 C25.8492082,14.4366364 25.7062019,14.3230132 25.5435152,14.2464026 C25.3808678,14.1695701 25.2035754,14.1297243 25.0240933,14.1296645 C24.6651986,14.1280318 24.3244269,14.2891335 24.0952696,14.5687711 C21.619817,17.6189559 22.2259855,23.4537196 22.2259855,23.4537196 C22.2797995,23.7272694 22.1828677,24.0088511 21.9727731,24.1892879 C21.7626786,24.3697247 21.4724614,24.4206406 21.2146467,24.322294 C21.1008687,24.2882224 20.9953199,24.2306001 20.9046862,24.1530773 C19.1919691,22.3613079 18.8143039,18.9169981 19.017418,16.2363054 C19.2046638,13.7516043 19.4490354,13.6005945 16.7059376,12.1301226 C13.5217015,10.4229616 14.0792073,2.39909056 20.5312525,3.26552298 C22.138181,3.48186334 24.2074055,4.90521153 24.9860095,5.29719455 C25.0018777,5.30576248 25.0188039,5.31325943 25.0346722,5.32182736 L25.0346722,5.32182736 Z" id="Path" fill="#F8EC7D"></path>
                        <path d="M12.3484375,42.4366092 L13.8888889,47.5197714 L3.28273076,47.5197714 L0.925925926,28.0753269 L7.99634043,28.0753269 L9.00900487,31.4176949 L12.3484375,42.4366092 Z M9.44453689,44.1169666 C9.44424011,43.3310867 8.81074945,42.6942467 8.02959537,42.6945447 C7.24844129,42.6948428 6.61543094,43.332166 6.61572705,44.1180459 C6.61602336,44.9039258 7.24951396,45.5407658 8.03066804,45.540468 C8.40584392,45.5404966 8.76564609,45.3904958 9.03083488,45.1235002 C9.29602366,44.8565047 9.44484954,44.4944121 9.44453689,44.1169666 L9.44453689,44.1169666 Z" id="Shape" fill="#E48E66"></path>
                        <path d="M7.87089716,42.8901417 C8.63795923,42.8904332 9.25955006,43.5124956 9.25925926,44.2795575 C9.25896825,45.0466195 8.63690578,45.6682103 7.86984371,45.6679195 C7.10278164,45.6676285 6.48119075,45.0455662 6.48148148,44.2785042 C6.4814535,43.9100966 6.62786257,43.5567853 6.88846493,43.2963805 C7.14906729,43.0359758 7.50248958,42.8898347 7.87089716,42.8901417 L7.87089716,42.8901417 Z" id="Path" fill="#F8EC7D"></path>
                        <g id="Group" transform="translate(0.000000, 0.297549)" fill="#63316D">
                            <path d="M33.5488372,12.6152447 C35.5378436,11.5421214 36.3571882,8.22441303 35.3023256,5.51532738 C34.2593023,2.83654927 31.7912262,1.74859458 28.6988372,2.6052662 C27.5546512,2.92252811 26.9307611,3.31588128 26.3273784,3.69612269 C25.8847283,3.98830944 25.4192903,4.24315668 24.9357294,4.45811012 C24.8172304,4.39040179 24.6820296,4.31130126 24.5372093,4.22607474 C23.4988372,3.61648479 21.9295983,2.69522156 20.5654334,2.51079696 C16.1276956,1.91173942 14.7527484,5.14518849 14.4366808,6.15028108 C13.6317125,8.70997851 14.4957717,11.6099372 16.3627907,12.6155671 C17.4589852,13.2057044 18.0938689,13.5923942 18.3088795,13.9456597 C18.4828753,14.2313244 18.4561311,14.6561673 18.3790698,15.590005 C18.3655391,15.7534722 18.3511628,15.9286541 18.3367865,16.1166253 C18.2338266,17.4806796 18.0784355,22.1207424 20.3998943,24.5596396 C20.5582333,24.7128708 20.7497844,24.8261129 20.9590909,24.8902282 C21.1076568,24.9420659 21.2636474,24.9685046 21.4207188,24.9684689 C21.8323533,24.974189 22.2251502,24.793407 22.4925432,24.4751692 C22.7599362,24.1569315 22.8741998,23.7342355 22.804334,23.3217593 C22.7700846,22.9474289 22.3294926,17.6297454 24.5337209,14.9022817 C24.6419166,14.7705561 24.8026739,14.6953278 24.9714588,14.6974372 C25.0580801,14.6975881 25.1436345,14.716877 25.2221987,14.7539683 C25.296428,14.7891142 25.361712,14.8411471 25.4130021,14.9060433 C27.5800211,17.6559689 27.1385835,22.9634425 27.1057082,23.3233714 C27.0234673,23.820607 27.2074026,24.3248065 27.5886704,24.6472563 C27.9699381,24.9697061 28.4910555,25.0617913 28.9569767,24.889046 C29.1646012,24.8253841 29.3543787,24.7124819 29.5106765,24.5596396 C30.3837209,23.6428902 30.9985201,22.3109706 31.338055,20.600959 C31.6140899,19.1239868 31.693519,17.6159823 31.5742072,16.1174851 C31.5602537,15.9296214 31.5457717,15.7548694 31.5319239,15.591832 C31.4548626,14.6581019 31.4281184,14.2332589 31.6020085,13.9474868 C31.8172304,13.5947586 32.4524313,13.2071015 33.5488372,12.6152447 L33.5488372,12.6152447 Z M30.5239958,13.2683614 C30.1223044,13.9280341 30.1802326,14.6326306 30.2682875,15.6991981 C30.2815011,15.8592262 30.295666,16.030754 30.3095137,16.2150711 C30.4984144,18.7325314 30.1542283,21.9947834 28.6239958,23.6356895 C28.5970022,23.6489782 28.5692171,23.6605363 28.5408034,23.670296 C28.4762476,23.6967262 28.4023668,23.6716425 28.3663848,23.611078 C28.3550252,23.5839507 28.3522542,23.5539005 28.3584567,23.5250992 C28.3614165,23.5085483 28.3637421,23.4918899 28.3655391,23.4752315 C28.3910148,23.2265377 28.9624736,17.3471974 26.4034884,14.0993469 C26.2301785,13.8797609 26.0095635,13.703594 25.7586681,13.5844411 C25.5119736,13.4677378 25.2432334,13.4070775 24.9711416,13.4066799 C24.4224927,13.4038926 23.9017134,13.6521733 23.5529598,14.082796 C20.9409091,17.3149554 21.5184989,23.2255704 21.5445032,23.4759838 C21.5464059,23.4938244 21.5489429,23.511665 21.5523256,23.5297206 C21.5579375,23.5576309 21.5550236,23.5866184 21.5439746,23.6127976 C21.5087331,23.6710588 21.4379203,23.6958973 21.3748414,23.672123 C21.3441161,23.6614755 21.3140111,23.6490602 21.2846723,23.6349372 C19.7551797,21.9957507 19.4113108,18.7326389 19.6012685,16.2151786 C19.6151163,16.0302166 19.6292812,15.8582589 19.6424947,15.6978009 C19.7305497,14.6312335 19.7887949,13.9267444 19.3868922,13.2667493 C19.0131078,12.6528604 18.334778,12.21813 16.9556025,11.4758102 C15.6286469,10.7612186 15.0281184,8.50233962 15.644186,6.54277447 C16.2950317,4.47315642 18.0283298,3.46903108 20.3976744,3.7890873 C21.5123679,3.93955026 22.9505285,4.78407738 23.9022199,5.34272487 C24.195666,5.51468254 24.4495772,5.66407077 24.6440803,5.76283896 C24.6564482,5.76939484 24.669556,5.77595073 24.6845666,5.78325893 C24.6899577,5.78616071 24.6951374,5.78895503 24.7009514,5.79174934 C25.6265328,6.25539021 27.0205074,6.83972388 28.4337209,6.55878803 C28.6561244,6.51463194 28.8384637,6.35319775 28.9120532,6.13529613 C28.9856428,5.91739452 28.9393027,5.67612994 28.7904888,5.50238442 C28.6416748,5.3286389 28.4129955,5.24880852 28.190592,5.29296462 C27.6803383,5.39441964 27.1106765,5.34272487 26.4448203,5.12960483 C26.6443975,5.01299603 26.8243129,4.89971892 26.9951374,4.79203042 C27.569556,4.42995205 28.0656448,4.11731151 29.0319239,3.84937996 C32.3758985,2.92328042 33.656871,4.79332011 34.1226216,5.99003803 C34.9260042,8.05256283 34.3577167,10.718874 32.9538055,11.4761326 C31.5750529,12.2202794 30.8972516,12.6556548 30.5239958,13.2683614 L30.5239958,13.2683614 Z" id="Shape"></path>
                            <path d="M49.8034884,28.9122106 C48.670744,26.9926494 46.2523399,26.3200333 44.3162791,27.3860863 L44.0495772,27.5324653 C43.0190275,26.2529927 41.2261099,25.7552827 39.8615222,26.4577298 L39.8470402,26.4653604 L39.2339323,26.8014302 C37.7587698,25.5269993 35.6552863,25.3318256 33.9775899,26.3137153 L30.7139535,28.1172288 L26.372093,28.1172288 C25.4305973,28.1159707 24.5014215,27.8995582 23.653277,27.4839947 L23.0563425,27.1908069 C19.5973055,25.4788939 15.4857399,25.8870685 12.417759,28.2469494 C12.4036646,28.2576251 12.3902396,28.2688024 12.3774841,28.2804812 L10.9364693,29.5844577 C10.3868059,30.0811222 9.73625191,30.4485441 9.03107822,30.6605903 L8.20813953,27.9164683 C8.12683283,27.6450312 7.88056472,27.4595252 7.60147992,27.4594907 L0.634249471,27.4594907 C0.452642884,27.4594844 0.279745512,27.5386267 0.159358864,27.676868 C0.0389722171,27.8151093 -0.0173535022,27.9991863 0.00465116279,28.1824653 L2.32706131,47.5462963 C2.36585504,47.8698647 2.63605026,48.1131118 2.95665962,48.1131118 L13.4080338,48.1131118 C13.6090254,48.1131118 13.7981193,48.0162457 13.9177316,47.8520226 C14.0373439,47.6877996 14.073316,47.4756548 14.0146934,47.2801918 L12.6378436,42.6884921 L16.9238901,39.9330853 C17.4990827,39.6093264 18.1739625,39.5204401 18.8113108,39.684499 C18.8244186,39.6878307 18.8376321,39.6908399 18.8509514,39.6932044 L27.5493658,41.321751 C29.9101425,41.7517088 32.3442971,41.4023672 34.4957717,40.3248264 C34.5226686,40.3113134 34.5485647,40.2958324 34.5732558,40.2785053 L49.6194503,29.7762979 C49.8959147,29.5830836 49.9765696,29.2043963 49.8034884,28.9122106 L49.8034884,28.9122106 Z M40.4411205,27.604795 C41.2027484,27.2171379 42.2293869,27.4809854 42.9014799,28.1622603 L37.1714588,31.3052166 L36.8232558,31.4918981 C36.6412876,30.9601765 36.3727905,30.4632959 36.0289641,30.0219825 L40.4411205,27.604795 Z M34.590592,27.4425099 L34.6056025,27.433912 C35.6584724,26.8152615 36.9600391,26.8325871 37.9966173,27.4790509 L35.0697674,29.0823413 C34.5048368,28.6629933 33.8585426,28.3707754 33.1738901,28.2251323 L34.590592,27.4425099 Z M3.51818182,46.8229993 L1.35052854,28.7491733 L7.13181818,28.7491733 L12.5515856,46.8229993 L3.51818182,46.8229993 Z M33.8933404,39.189046 C31.9962403,40.128284 29.8548199,40.4308856 27.7776956,40.0532407 L19.1002114,38.4284557 C18.1493846,38.1895692 17.144759,38.3279186 16.2906977,38.8153604 C16.2808668,38.8210565 16.2711416,38.8268601 16.2615222,38.8330936 L12.2542283,41.4086971 L9.40169133,31.8962136 C10.2821098,31.6290694 11.0940573,31.1685467 11.7801268,30.5472057 L13.2011628,29.2614997 C15.8883347,27.2065558 19.4812525,26.8551643 22.5044397,28.3516286 L23.1013742,28.6448165 C24.1217016,29.1448149 25.2395386,29.405195 26.3721987,29.4066964 L32.1586681,29.4066964 C33.9276524,29.4068931 35.4446279,30.6903801 35.7661734,32.4589451 L31.554334,32.2654927 C30.0304142,32.1953388 28.503377,32.2669634 26.9922833,32.4794726 C26.7678216,32.5110922 26.5770021,32.6620586 26.4917049,32.8755042 C26.4064076,33.0889498 26.4395911,33.3324472 26.5787556,33.5142732 C26.7179201,33.6960992 26.941923,33.7886302 27.1663848,33.7570106 C28.6007895,33.5551903 30.0503457,33.4871987 31.4969345,33.5538856 L36.4323467,33.7806548 C36.4418605,33.7806548 36.4514799,33.7812996 36.4609937,33.7812996 C36.81128,33.7812996 37.0952431,33.4925943 37.0952431,33.1364583 C37.0952431,33.0271577 37.0909091,32.9183945 37.0840381,32.8102761 L37.7684989,32.443254 L44.9188161,28.5214368 C46.059281,27.8932746 47.4731701,28.1280344 48.3578224,29.0924438 L33.8933404,39.189046 Z" id="Shape"></path>
                            <path d="M5.60676526,44.0791997 C5.60647346,45.2179445 6.514209,46.1413202 7.63424943,46.141617 C8.75428985,46.1419137 9.66249864,45.2190192 9.66279063,44.0802744 C9.66308248,42.9415296 8.75534698,42.018154 7.63530655,42.0178571 C6.51589338,42.0190998 5.60857101,42.9410935 5.60676526,44.0791997 L5.60676526,44.0791997 Z M7.63530655,43.3075397 C8.05477426,43.3078366 8.39458333,43.6538016 8.39429158,44.0802743 C8.39399945,44.5067471 8.05371706,44.8522309 7.63424935,44.8519343 C7.21478164,44.8516374 6.87497247,44.5056724 6.87526408,44.0791997 C6.87573103,43.6528007 7.21591104,43.3074208 7.63530655,43.3075397 L7.63530655,43.3075397 Z" id="Shape"></path>
                            <path d="M45.9365751,7.99495701 C45.9365751,7.63882101 45.6526119,7.35011574 45.3023256,7.35011574 L41.6088795,7.35011574 C41.2585932,7.35011574 40.97463,7.63882101 40.97463,7.99495701 C40.97463,8.35109301 41.2585932,8.63979828 41.6088795,8.63979828 L45.3023256,8.63979828 C45.6526119,8.63979828 45.9365751,8.35109301 45.9365751,7.99495701 L45.9365751,7.99495701 Z" id="Path"></path>
                            <path d="M40.2256871,4.13880622 C40.3626952,4.13880622 40.4959958,4.09355836 40.6054968,4.00983796 L44.2988372,1.19618056 C44.5700234,0.979744791 44.6214962,0.582705772 44.4147316,0.302220905 C44.2079669,0.0217360388 43.8186978,-0.0394597543 43.5382664,0.164434524 L39.844926,2.97809193 C39.6265258,3.14462751 39.5374435,3.4345658 39.6237738,3.69788166 C39.7101041,3.96119752 39.9524754,4.13880622 40.2254757,4.13880622 L40.2256871,4.13880622 Z" id="Path"></path>
                            <path d="M39.844926,13.012037 L43.5382664,15.8256944 C43.8186978,16.0295887 44.2079669,15.9683929 44.4147316,15.6879081 C44.6214962,15.4074232 44.5700234,15.0103842 44.2988372,14.7939484 L40.6054968,11.980291 C40.3250654,11.7763967 39.9357963,11.8375925 39.7290317,12.1180774 C39.522267,12.3985623 39.5737398,12.7956013 39.844926,13.012037 L39.844926,13.012037 Z" id="Path"></path>
                            <path d="M8.91966173,7.99495701 C8.91966173,7.63882101 8.63569857,7.35011574 8.28541226,7.35011574 L4.59196617,7.35011574 C4.24167986,7.35011574 3.9577167,7.63882101 3.9577167,7.99495701 C3.9577167,8.35109301 4.24167986,8.63979828 4.59196617,8.63979828 L8.28541226,8.63979828 C8.63569857,8.63979828 8.91966173,8.35109301 8.91966173,7.99495701 L8.91966173,7.99495701 Z" id="Path"></path>
                            <path d="M5.97621564,15.9545552 C6.11322497,15.9545552 6.24652796,15.9093144 6.35602537,15.825587 L10.0493658,13.0119296 C10.320552,12.7954938 10.3720248,12.3984548 10.1652601,12.1179699 C9.95849545,11.837485 9.56922635,11.7762893 9.28879493,11.9801835 L5.59545455,14.7938409 C5.37705434,14.9603765 5.28797209,15.2503148 5.37430235,15.5136307 C5.46063261,15.7769465 5.70300397,15.9545552 5.97600423,15.9545552 L5.97621564,15.9545552 Z" id="Path"></path>
                            <path d="M10.0493658,2.97787698 L6.35602537,0.164219577 C6.07559395,-0.0396747014 5.68632484,0.0215210917 5.47956019,0.302005958 C5.27279554,0.582490825 5.32426831,0.979529844 5.59545455,1.19596561 L9.28879493,4.00962302 C9.56922635,4.21351729 9.95849545,4.1523215 10.1652601,3.87183663 C10.3720248,3.59135177 10.320552,3.19431275 10.0493658,2.97787698 L10.0493658,2.97787698 Z" id="Path"></path>
                        </g>
                    </g>
                </g>
            </g>
        </g>
    </g>
</svg>