<?xml version="1.0" encoding="UTF-8"?>
<svg width="44px" height="44px" viewBox="0 0 44 44" version="1.1" xmlns="http://www.w3.org/2000/svg" xmlns:xlink="http://www.w3.org/1999/xlink">
    <!-- Generator: Sketch 56.3 (81716) - https://sketch.com -->
    <title>dental-care (1)</title>
    <desc>Created with Sketch.</desc>
    <g id="Page-1" stroke="none" stroke-width="1" fill="none" fill-rule="evenodd">
        <g id="Hey-Digital_Home" transform="translate(-1236.000000, -755.000000)" fill-rule="nonzero">
            <g id="Group-14" transform="translate(0.000000, 667.000000)">
                <g id="Group-56" transform="translate(1227.000000, 88.000000)">
                    <g id="dental-care-(1)" transform="translate(9.000000, 0.000000)">
                        <path d="M30.3754322,27.2058262 C31.0406096,27.8073716 31.4808831,28.6292668 31.6202002,29.5295383 L32.5589237,29.0196902 L38.210919,25.879643 L38.8894579,25.5027988 C40.3399306,24.6961092 42.1499685,25.2058116 43,26.6603177 L29.6791109,36.0785318 C27.8837588,36.9942882 25.8496689,37.2900043 23.878305,36.9218532 L16.1785259,35.4617024 C15.4704354,35.2785065 14.7211284,35.3809076 14.0839464,35.7479498 L9.91350578,38.462963 L7,28.6226063 L7.02526973,28.6148959 C7.92412925,28.4441651 8.76029004,28.0227978 9.44274015,27.3966578 L10.7183933,26.2275733 C13.2697272,24.2498285 16.680639,23.9068351 19.55531,25.3389535 L20.0841024,25.6020698 C20.9108433,26.013695 21.8172518,26.2275259 22.7355518,26.2275733 L27.8587547,26.2275733 C28.7855405,26.226032 29.6807949,26.5740246 30.3754322,27.2058262 L30.3754322,27.2058262 Z" id="Path" fill="#F7CAA5"></path>
                        <path d="M38.9961777,25.8621668 L39,25.8697574 L33.2293359,28.9610338 L32.270903,29.462963 C32.1286609,28.5766744 31.6791434,27.7675447 31,27.1753425 L34.7095079,25.1903977 L35.6526517,24.685622 C36.819398,24.0992473 38.3492594,24.7330633 38.9961777,25.8621668 L38.9961777,25.8621668 Z" id="Path" fill="#EDB288"></path>
                        <path d="M33.9568401,24.4639686 L34,24.5455415 L30.5094412,26.462963 C29.8420803,25.8621331 28.98198,25.5311995 28.0915864,25.5326653 L27,25.5326653 L29.9025048,23.924121 C31.2178695,23.1470373 32.881437,23.3685466 33.9568401,24.4639686 L33.9568401,24.4639686 Z" id="Path" fill="#EDB288"></path>
                        <path d="M22.0306376,4.46723206 L22.0315724,4.46436553 C22.0541368,4.41307492 22.0948921,4.37244052 22.1456163,4.35065972 C23.5674263,3.74391023 23.8609492,3.14862688 25.4650426,2.70144773 C31.60098,0.992038543 32.2235477,8.97915501 29.343471,10.5414155 C26.9205049,11.8561986 27.1355057,11.9880592 27.3009629,14.2048447 C27.4795071,16.5964887 27.1467232,19.6694121 25.6323693,21.267982 C25.5527539,21.3373241 25.4597525,21.3887624 25.3594117,21.4189528 C25.1315326,21.5062162 24.8752998,21.4606422 24.6896509,21.299828 C24.504002,21.1390137 24.4179881,20.888124 24.4648212,20.6440333 C24.4648212,20.6440333 24.9948451,15.4632527 22.8495104,12.7257137 C22.7503912,12.5992269 22.6240257,12.4978553 22.4802698,12.4295052 C22.3365486,12.3609573 22.1798867,12.3254079 22.0212898,12.3253545 C21.7041573,12.3238979 21.403039,12.4676287 21.2005474,12.7171141 C19.0131474,15.4384094 19.5487799,20.6440333 19.5487799,20.6440333 C19.5963319,20.8880873 19.5106794,21.1393072 19.3250323,21.3002882 C19.1393851,21.4612692 18.8829386,21.506695 18.6551242,21.4189528 C18.5545858,21.3885549 18.4613191,21.3371459 18.3812318,21.267982 C16.8678127,19.6694121 16.534094,16.5964887 16.713573,14.2048447 C16.8790302,11.9880592 17.0949658,11.8533321 14.6710649,10.5414155 C11.857358,9.01833096 12.3499904,1.85964253 18.0512522,2.63265093 C19.4711927,2.82566416 21.2996347,4.09553828 21.9876374,4.44525531 C22.0016592,4.45289939 22.0166158,4.45958797 22.0306376,4.46723206 L22.0306376,4.46723206 Z" id="Path" fill="#F8EC7D"></path>
                        <path d="M10.6928169,38.0188269 L12,42.462963 L2.99991725,42.462963 L1,25.462963 L6.99975174,25.462963 L7.85906984,28.3851476 L10.6928169,38.0188269 Z M8.22864987,39.4879394 C8.22839804,38.8008558 7.69083596,38.2440757 7.02797093,38.2443362 C6.3651059,38.2445969 5.8279514,38.8017994 5.82820267,39.488883 C5.82845411,40.1759666 6.36601614,40.7327467 7.02888117,40.7324863 C7.3472447,40.7325113 7.65256254,40.6013678 7.87759417,40.3679374 C8.1026258,40.134507 8.22891518,39.8179346 8.22864987,39.4879394 L8.22864987,39.4879394 Z" id="Shape" fill="#E48E66"></path>
                        <path d="M7.00037929,38.462963 C7.55266398,38.4631728 8.00020938,38.9110577 8,39.4633423 C7.99979048,40.015627 7.5519055,40.4631723 6.99962081,40.462963 C6.44733611,40.4627535 5.99979068,40.0148686 6,39.462584 C5.99997985,39.1973304 6.10539438,38.9429463 6.29302808,38.7554549 C6.48066178,38.5679635 6.73512583,38.4627419 7.00037929,38.462963 L7.00037929,38.462963 Z" id="Path" fill="#F8EC7D"></path>
                        <g id="Group" transform="translate(0.000000, 0.462963)" fill="#63316D">
                            <path d="M29.5229767,11.2663839 C31.2733023,10.3080022 31.9943256,7.34503348 31.0660465,4.92561161 C30.148186,2.5332567 27.9762791,1.56162946 25.2549767,2.32670312 C24.248093,2.61004241 23.6990698,2.96133705 23.168093,3.30092187 C22.7785609,3.56186713 22.3689754,3.78946531 21.9434419,3.98143527 C21.8391628,3.92096652 21.720186,3.85032366 21.5927442,3.77420982 C20.6789767,3.22979911 19.2980465,2.40704018 18.0975814,2.24233482 C14.1923721,1.70733036 12.9824186,4.59504911 12.7042791,5.49267411 C11.995907,7.7786808 12.7562791,10.368567 14.3992558,11.2666719 C15.363907,11.7937098 15.9226047,12.1390536 16.111814,12.4545469 C16.2649302,12.7096674 16.2413953,13.0890848 16.1735814,13.9230737 C16.1616744,14.0690625 16.1490233,14.2255134 16.1363721,14.3933862 C16.0457674,15.6115915 15.9090233,19.7555246 17.951907,21.9336473 C18.0912453,22.0704946 18.2598103,22.1716285 18.444,22.2288884 C18.574738,22.2751835 18.7120097,22.2987952 18.8502326,22.2987634 C19.2124709,22.3038719 19.5581322,22.1424196 19.793438,21.8582088 C20.0287438,21.573998 20.1292958,21.196498 20.067814,20.828125 C20.0376744,20.4938192 19.6499535,15.7447187 21.5896744,13.3088839 C21.6848866,13.1912428 21.8263531,13.1240582 21.9748837,13.125942 C22.0511105,13.1260768 22.1263983,13.1433032 22.1955349,13.1764286 C22.2608567,13.2078166 22.3183066,13.254286 22.3634419,13.3122433 C24.2704186,15.7681384 23.8819535,20.5081205 23.8530233,20.8295647 C23.7806512,21.2736344 23.9425143,21.7239234 24.2780299,22.0118958 C24.6135455,22.2998683 25.0721288,22.3821075 25.4821395,22.2278326 C25.664849,22.1709776 25.8318532,22.0701473 25.9693953,21.9336473 C26.7376744,21.1149196 27.2786977,19.9254129 27.5774884,18.3982411 C27.8203991,17.0791912 27.8902967,15.7324272 27.7853023,14.394154 C27.7730233,14.2263772 27.7602791,14.0703103 27.748093,13.9247054 C27.6802791,13.0908125 27.6567442,12.7113951 27.8097674,12.4561786 C27.9991628,12.1411652 28.5581395,11.7949576 29.5229767,11.2663839 L29.5229767,11.2663839 Z M26.8611163,11.8496674 C26.5076279,12.4388058 26.5586047,13.0680647 26.636093,14.0205915 C26.6477209,14.1635089 26.660186,14.3166964 26.6723721,14.4813058 C26.8386047,16.7295915 26.5357209,19.6430335 25.1891163,21.1084888 C25.165362,21.1203567 25.1409111,21.1306789 25.115907,21.1393951 C25.0590979,21.1629993 24.9940828,21.1405976 24.9624186,21.0865089 C24.9524221,21.0622821 24.9499837,21.035445 24.9554419,21.0097232 C24.9580465,20.994942 24.960093,20.9800647 24.9616744,20.9651875 C24.984093,20.7430848 25.4869767,15.4923817 23.2350698,12.5918013 C23.0825571,12.3956941 22.8884158,12.2383636 22.6676279,12.1319509 C22.4505368,12.0277258 22.2140454,11.9735515 21.9746047,11.9731964 C21.4917936,11.9707072 21.0335078,12.192441 20.7266047,12.5770201 C18.428,15.4635871 18.9362791,20.742221 18.9591628,20.9658594 C18.9608372,20.9817924 18.9630698,20.9977254 18.9660465,21.0138504 C18.970985,21.0387765 18.9684208,21.0646646 18.9586977,21.0880446 C18.9276852,21.1400764 18.8653699,21.162259 18.8098605,21.1410268 C18.7828221,21.1315178 18.7563297,21.1204299 18.7305116,21.107817 C17.3845581,19.6438973 17.0819535,16.7296875 17.2491163,14.4814018 C17.2613023,14.3162165 17.2737674,14.1626451 17.2853953,14.0193438 C17.3628837,13.066817 17.4141395,12.437654 17.0604651,11.8482277 C16.7315349,11.2999777 16.1346047,10.9117299 14.9209302,10.2487813 C13.7532093,9.61059598 13.2247442,7.5932433 13.7668837,5.84320089 C14.3396279,3.99487277 15.8649302,3.09811161 17.9499535,3.38394643 C18.9308837,3.51832143 20.1964651,4.27254911 21.0339535,4.77146429 C21.292186,4.92503571 21.5156279,5.05845089 21.6867907,5.14665848 C21.6976744,5.15251339 21.7092093,5.1583683 21.7224186,5.16489509 C21.7271628,5.16748661 21.7317209,5.16998214 21.7368372,5.17247768 C22.5513488,5.58654464 23.7780465,6.10839955 25.0216744,5.85750223 C25.2173895,5.81806745 25.377848,5.67389429 25.4426069,5.47929139 C25.5073657,5.28468849 25.4665864,5.06922066 25.3356301,4.91405255 C25.2046739,4.75888443 25.003436,4.68758976 24.8077209,4.72702455 C24.3586977,4.8176317 23.8573953,4.77146429 23.2714419,4.5811317 C23.4470698,4.47699107 23.6053953,4.37582589 23.7557209,4.27965179 C24.2612093,3.95628795 24.6977674,3.67707589 25.548093,3.43779241 C28.4907907,2.61071429 29.6180465,4.28080357 30.027907,5.34956473 C30.7348837,7.19155804 30.2347907,9.57277902 28.9993488,10.2490692 C27.7860465,10.9136496 27.1895814,11.3024732 26.8611163,11.8496674 L26.8611163,11.8496674 Z" id="Shape"></path>
                            <path d="M43.8270698,25.8208281 C42.8302547,24.1065123 40.7020591,23.5058144 38.9983256,24.4578817 L38.7636279,24.5886094 C37.8567442,23.445942 36.2789767,23.0014487 35.0781395,23.6287879 L35.0653953,23.6356027 L34.5258605,23.9357388 C33.2277174,22.797574 31.376652,22.6232688 29.9002791,23.5001719 L27.0282791,25.1108482 L23.2074419,25.1108482 C22.3789256,25.1097246 21.5612509,24.9164516 20.8148837,24.5453214 L20.2895814,24.2834821 C17.2456288,22.7546122 13.6274511,23.1191435 10.9276279,25.2266987 C10.9152248,25.2362329 10.9034109,25.246215 10.892186,25.2566451 L9.62409302,26.4211964 C9.14038923,26.8647561 8.56790168,27.1928921 7.94734884,27.3822656 L7.22316279,24.9315536 C7.15161289,24.6891394 6.93489695,24.5234683 6.68930233,24.5234375 L0.558139535,24.5234375 C0.398325738,24.5234318 0.24617605,24.594112 0.140235801,24.7175721 C0.0342955511,24.8410322 -0.0152710819,25.0054271 0.00409302326,25.1691094 L2.04781395,42.4625 C2.08195244,42.7514715 2.31972423,42.9687098 2.60186047,42.9687098 L11.7990698,42.9687098 C11.9759424,42.9687098 12.142345,42.8822009 12.2476038,42.7355371 C12.3528626,42.5888733 12.3845181,42.3994118 12.3329302,42.2248482 L11.1213023,38.1241071 L14.8930233,35.663317 C15.3991927,35.3741753 15.993087,35.294793 16.5539535,35.4413103 C16.5654884,35.4442857 16.5771163,35.4469732 16.5888372,35.4490848 L24.2434419,36.9035022 C26.3209254,37.2874876 28.4629814,36.9754987 30.3562791,36.0131719 C30.3799484,36.0011038 30.402737,35.987278 30.4244651,35.9718036 L43.6651163,26.5925246 C43.908405,26.4199692 43.9793813,26.0817724 43.8270698,25.8208281 L43.8270698,25.8208281 Z M35.588186,24.6532054 C36.2584186,24.3069978 37.1618605,24.5426339 37.7533023,25.1510647 L32.7108837,27.9579665 L32.4044651,28.1246875 C32.2443331,27.6498191 32.0080557,27.2060666 31.7054884,26.8119397 L35.588186,24.6532054 Z M30.4397209,24.5082723 L30.4529302,24.5005938 C31.3794558,23.9480912 32.5248344,23.9635643 33.4370233,24.5409063 L30.8613953,25.9727679 C30.3642564,25.5982579 29.7955175,25.3372848 29.1930233,25.2072143 L30.4397209,24.5082723 Z M3.096,41.8165402 L1.18846512,25.6752232 L6.276,25.6752232 L11.0453953,41.8165402 L3.096,41.8165402 Z M29.8261395,34.9988326 C28.1566915,35.8376444 26.2722415,36.1078909 24.4443721,35.770625 L16.808186,34.319567 C15.9714584,34.106223 15.087388,34.2297796 14.335814,34.6651027 C14.3271628,34.6701897 14.3186047,34.6753728 14.3101395,34.6809397 L10.7837209,36.9811518 L8.27348837,28.4857723 C9.04825665,28.247192 9.76277046,27.8359098 10.3665116,27.2810045 L11.6170233,26.1327701 C13.9817345,24.2975471 17.1435022,23.9837275 19.803907,25.3201853 L20.3292093,25.5820246 C21.2270974,26.0285616 22.210794,26.2611011 23.2075349,26.262442 L28.2996279,26.262442 C29.8563341,26.2626176 31.1912725,27.4088703 31.4742326,28.9883348 L27.767814,28.815567 C26.4267645,28.7529141 25.0829717,28.8168804 23.7532093,29.0066674 C23.555683,29.0349061 23.3877619,29.1697308 23.3127003,29.3603541 C23.2376387,29.5509775 23.2668402,29.7684394 23.3893049,29.930824 C23.5117697,30.0932086 23.7088923,30.1758459 23.9064186,30.1476071 C25.1686947,29.9673661 26.4443042,29.9066443 27.7173023,29.9662009 L32.0604651,30.1687232 C32.0688372,30.1687232 32.0773023,30.1692991 32.0856744,30.1692991 C32.3939264,30.1692991 32.643814,29.9114631 32.643814,29.5934062 C32.643814,29.4957924 32.64,29.3986585 32.6339535,29.3021004 L33.2362791,28.9743214 L39.5285581,25.4718371 C40.5321673,24.9108399 41.7763896,25.1204985 42.5548837,25.9817902 L29.8261395,34.9988326 Z" id="Shape"></path>
                            <path d="M4.93395343,39.3661161 C4.93369665,40.3831028 5.73250392,41.2077482 6.71813949,41.2080133 C7.70377507,41.2082783 8.5029988,40.3840626 8.50325575,39.3670759 C8.50351258,38.3500891 7.70470534,37.5254437 6.71906977,37.5251786 C5.73398617,37.5262883 4.93554249,38.3496996 4.93395343,39.3661161 L4.93395343,39.3661161 Z M6.71906977,38.6769643 C7.08820135,38.6772294 7.38723333,38.9862028 7.38697659,39.3670758 C7.38671951,39.7479487 7.08727101,40.0564924 6.71813943,40.0562275 C6.34900784,40.0559623 6.04997577,39.746989 6.05023239,39.3661161 C6.0506433,38.9853089 6.35000172,38.6768581 6.71906977,38.6769643 L6.71906977,38.6769643 Z" id="Shape"></path>
                            <path d="M40.424186,7.14011161 C40.424186,6.82205476 40.1742985,6.56421875 39.8660465,6.56421875 L36.615814,6.56421875 C36.307562,6.56421875 36.0576744,6.82205476 36.0576744,7.14011161 C36.0576744,7.45816845 36.307562,7.71600446 36.615814,7.71600446 L39.8660465,7.71600446 C40.1742985,7.71600446 40.424186,7.45816845 40.424186,7.14011161 L40.424186,7.14011161 Z" id="Path"></path>
                            <path d="M35.3986047,3.69627233 C35.5191718,3.69627233 35.6364763,3.6558625 35.7328372,3.58109375 L38.9829767,1.06828125 C39.2216206,0.874987463 39.2669167,0.520401078 39.0849638,0.269906516 C38.9030109,0.0194119546 38.5604541,-0.0352405959 38.3136744,0.146852679 L35.0635349,2.65966518 C34.8713427,2.80839426 34.7929503,3.06733145 34.8689209,3.30249278 C34.9448916,3.5376541 35.1581784,3.69627233 35.3984186,3.69627233 L35.3986047,3.69627233 Z" id="Path"></path>
                            <path d="M35.0635349,11.62075 L38.3136744,14.1335625 C38.5604541,14.3156558 38.9030109,14.2610032 39.0849638,14.0105087 C39.2669167,13.7600141 39.2216206,13.4054277 38.9829767,13.2121339 L35.7328372,10.6993214 C35.4860576,10.5172282 35.1435007,10.5718807 34.9615479,10.8223753 C34.779595,11.0728698 34.824891,11.4274562 35.0635349,11.62075 L35.0635349,11.62075 Z" id="Path"></path>
                            <path d="M7.84930233,7.14011161 C7.84930233,6.82205476 7.59941474,6.56421875 7.29116279,6.56421875 L4.04093023,6.56421875 C3.73267828,6.56421875 3.4827907,6.82205476 3.4827907,7.14011161 C3.4827907,7.45816845 3.73267828,7.71600446 4.04093023,7.71600446 L7.29116279,7.71600446 C7.59941474,7.71600446 7.84930233,7.45816845 7.84930233,7.14011161 L7.84930233,7.14011161 Z" id="Path"></path>
                            <path d="M5.25906977,14.2486451 C5.37963797,14.2486451 5.49694461,14.2082415 5.59330233,14.1334665 L8.84344186,11.620654 C9.08208574,11.4273602 9.12738178,11.0727738 8.94542889,10.8222793 C8.763476,10.5717847 8.42091919,10.5171322 8.17413953,10.6992254 L4.924,13.2120379 C4.73180782,13.360767 4.65341544,13.6197042 4.72938607,13.8548655 C4.8053567,14.0900269 5.01864349,14.2486451 5.25888372,14.2486451 L5.25906977,14.2486451 Z" id="Path"></path>
                            <path d="M8.84344186,2.65947321 L5.59330233,0.146660714 C5.34652267,-0.0354325602 5.00396586,0.0192199904 4.82201297,0.269714552 C4.64006008,0.520209114 4.68535612,0.874795499 4.924,1.06808929 L8.17413953,3.58090179 C8.42091919,3.76299506 8.763476,3.70834251 8.94542889,3.45784795 C9.12738178,3.20735339 9.08208574,2.852767 8.84344186,2.65947321 L8.84344186,2.65947321 Z" id="Path"></path>
                        </g>
                    </g>
                </g>
            </g>
        </g>
    </g>
</svg>