<?xml version="1.0" encoding="UTF-8"?>
<svg width="39px" height="49px" viewBox="0 0 39 49" version="1.1" xmlns="http://www.w3.org/2000/svg" xmlns:xlink="http://www.w3.org/1999/xlink">
    <!-- Generator: Sketch 56.3 (81716) - https://sketch.com -->
    <title>opportunities</title>
    <desc>Created with Sketch.</desc>
    <g id="Page-1" stroke="none" stroke-width="1" fill="none" fill-rule="evenodd">
        <g id="Hey-Digital_Version_02" transform="translate(-537.000000, -4756.000000)" fill-rule="nonzero">
            <g id="Group-7" transform="translate(0.000000, 4546.000000)">
                <g id="Group-29" transform="translate(537.000000, 210.000000)">
                    <g id="opportunities">
                        <path d="M20.2199082,13.6769617 C19.9745,13.6528189 19.7300204,13.6407474 19.4864694,13.6407474 C15.4962947,13.6431799 12.2359537,16.8269816 12.13875,20.8159729 C12.0415463,24.8049641 15.142944,28.1437886 19.1282642,28.3405679 C23.1135845,28.5373471 26.5288105,25.5202875 26.8250425,21.5411235 C27.1212746,17.5619595 24.1904345,14.0724619 20.2199082,13.6769617 L20.2199082,13.6769617 Z" id="Path" fill="#102553"></path>
                        <path d="M21.2959853,20.5611151 C20.9267849,20.3708207 20.5342666,20.2258344 20.1456346,20.0754112 C19.920228,19.9884194 19.7045373,19.8869291 19.5141076,19.7455675 C19.1390777,19.4664689 19.2109746,19.0133869 19.6501288,18.8339664 C19.774491,18.7832212 19.9046827,18.7669102 20.0368176,18.7596609 C20.5459256,18.7342883 21.0297724,18.8212801 21.4903013,19.0278855 C21.7195942,19.1311882 21.7953774,19.0985663 21.8731038,18.8756499 C21.9547166,18.6400473 22.0227272,18.4008199 22.0985104,18.163405 C22.1490326,18.0039201 22.0868515,17.898805 21.9255692,17.8317489 C21.6302088,17.7103229 21.3270759,17.6233312 21.0083976,17.5762106 C20.5925614,17.5164038 20.5925614,17.5145915 20.5906182,17.1249409 C20.5886751,16.5758055 20.5886751,16.5758055 19.9979544,16.5758055 C19.9124554,16.5758055 19.8269563,16.5739932 19.7414573,16.5758055 C19.4655286,16.5830548 19.4188927,16.628363 19.4111201,16.8875259 C19.4072338,17.0035149 19.4111201,17.1195039 19.4091769,17.2373053 C19.4072338,17.5816476 19.4052906,17.5762106 19.0516355,17.6958243 C18.1966451,17.9857968 17.6681056,18.5294952 17.6117539,19.3994128 C17.5612318,20.1696522 17.9926133,20.6897904 18.6707761,21.068567 C19.0885555,21.3023574 19.5510276,21.4400943 19.9940681,21.6231394 C20.1670093,21.6938202 20.3321779,21.775375 20.4759718,21.8877394 C20.9015238,22.2157708 20.8237974,22.7612815 20.3185758,22.9678869 C20.0484766,23.078439 19.7628321,23.1056239 19.4694149,23.0711897 C19.0166586,23.0186321 18.5833339,22.9080801 18.1752703,22.7105363 C17.9362616,22.5945473 17.8663079,22.6253569 17.7846952,22.8663966 C17.7147414,23.0748143 17.6525603,23.2850444 17.5903792,23.4952744 C17.5068233,23.7779976 17.5379138,23.8450538 17.8274447,23.9773537 C18.1966451,24.1440879 18.5911066,24.2292674 18.9933407,24.2890742 C19.3081326,24.3361947 19.3178484,24.348881 19.3217347,24.6533521 C19.3236779,24.7910891 19.3236779,24.9306384 19.3256211,25.0683753 C19.3275642,25.2423588 19.4169496,25.3438492 19.6093224,25.3474738 C19.8269563,25.3510985 20.0465334,25.3510985 20.2641673,25.3456615 C20.4429381,25.3420369 20.5342666,25.2514204 20.5342666,25.0828739 C20.5342666,24.8943918 20.5439824,24.7040973 20.5362098,24.5156152 C20.5264939,24.3235084 20.6158793,24.2256427 20.8140816,24.1748975 C21.2707242,24.0589085 21.6593562,23.8305552 21.9586029,23.4898375 C22.7902754,22.5474268 22.4735403,21.1682451 21.2959853,20.5611151 Z" id="Path" fill="#FF9D0E"></path>
                        <path d="M14.3265306,39.3979592 L15.9780612,39.3979592 C16.3077414,39.3979592 16.575,39.6652178 16.575,39.994898 C16.575,40.3245781 16.3077414,40.5918367 15.9780612,40.5918367 L14.3265306,40.5918367 L14.3265306,42.2831633 L21.1352143,42.2831633 C21.4648945,42.2831633 21.7321531,42.5504219 21.7321531,42.880102 C21.7321531,43.2097822 21.4648945,43.4770408 21.1352143,43.4770408 L14.3265306,43.4770408 L14.3265306,43.7042755 C14.320722,44.0663144 14.4613351,44.4153624 14.7164863,44.6722743 C14.9716375,44.9291863 15.3197104,45.0721963 15.6817806,45.0688776 L19.0759745,45.0688776 C18.9650875,45.1805375 18.9029194,45.3315582 18.9030612,45.4889235 L18.9030612,48.0635204 C18.9030612,48.3932006 19.1703198,48.6604592 19.5,48.6604592 C19.8296802,48.6604592 20.0969388,48.3932006 20.0969388,48.0635204 L20.0969388,45.4887245 C20.097028,45.3314281 20.0348639,45.1804886 19.9240255,45.0688776 L23.3182194,45.0688776 C23.6802896,45.0721963 24.0283625,44.9291863 24.2835137,44.6722743 C24.5386649,44.4153624 24.679278,44.0663144 24.6734694,43.7042755 L24.6734694,43.4770408 L23.1882857,43.4770408 C22.8586055,43.4770408 22.5913469,43.2097822 22.5913469,42.880102 C22.5913469,42.5504219 22.8586055,42.2831633 23.1882857,42.2831633 L24.6734694,42.2831633 L24.6734694,40.5918367 L18.0310332,40.5918367 C17.701353,40.5918367 17.4340944,40.3245781 17.4340944,39.994898 C17.4340944,39.6652178 17.701353,39.3979592 18.0310332,39.3979592 L24.6734694,39.3979592 L24.6734694,37.9056122 L14.3265306,37.9056122 L14.3265306,39.3979592 Z" id="Path" fill="#102553"></path>
                        <path d="M28.113727,12.3023112 C25.8490524,10.0625137 22.7998941,8.79462777 19.6148112,8.76833418 C19.5763087,8.76833418 19.5376071,8.76903061 19.4992041,8.76903061 C12.7066329,8.77172251 7.20213261,14.2799643 7.20405562,21.0725357 C7.20800291,24.5181378 8.65102944,27.8054684 11.1846429,30.1406327 C13.0373383,31.8406448 14.1478457,34.2005803 14.2767857,36.7117347 L24.7244082,36.7117347 C24.8952883,34.1805255 26.0237362,31.8094011 27.880324,30.0804413 C30.3367892,27.7917061 31.7510824,24.5984103 31.7951575,21.2412407 C31.8392327,17.8840711 30.5092599,14.6547467 28.113727,12.3023112 L28.113727,12.3023112 Z M27.9892653,21.815227 C27.5589862,26.1750367 23.8967012,29.500462 19.5157194,29.5093699 C19.2326378,29.5093699 18.9483622,29.495375 18.6628929,29.4673852 C15.2292956,29.1288125 12.3377444,26.7552271 11.3365672,23.4534297 C10.3353899,20.1516324 11.4217515,16.5718567 14.0890826,14.3833488 C16.7564137,12.194841 20.4794281,11.8285909 23.5220876,13.4553806 C26.5647471,15.0821704 28.3278509,18.381631 27.9892653,21.815227 L27.9892653,21.815227 Z" id="Shape" fill="#102553"></path>
                        <path d="M19.4005102,0.686479592 L19.4005102,4.65333673 C19.4005102,4.98301692 19.6677688,5.25027551 19.997449,5.25027551 C20.3271292,5.25027551 20.5943878,4.98301692 20.5943878,4.65333673 L20.5943878,0.686479592 C20.5943878,0.35679941 20.3271292,0.0895408163 19.997449,0.0895408163 C19.6677688,0.0895408163 19.4005102,0.35679941 19.4005102,0.686479592 Z" id="Path" fill="#102553"></path>
                        <path d="M38.4030612,19.002551 L34.4360051,19.002551 C34.1063249,19.002551 33.8390663,19.2698096 33.8390663,19.5994898 C33.8390663,19.92917 34.1063249,20.1964286 34.4360051,20.1964286 L38.4030612,20.1964286 C38.7327414,20.1964286 39,19.92917 39,19.5994898 C39,19.2698096 38.7327414,19.002551 38.4030612,19.002551 Z" id="Path" fill="#102553"></path>
                        <path d="M4.5639949,19.002551 L0.596938776,19.002551 C0.267258593,19.002551 0,19.2698096 0,19.5994898 C0,19.92917 0.267258593,20.1964286 0.596938776,20.1964286 L4.5639949,20.1964286 C4.89367508,20.1964286 5.16093367,19.92917 5.16093367,19.5994898 C5.16093367,19.2698096 4.89367508,19.002551 4.5639949,19.002551 L4.5639949,19.002551 Z" id="Path" fill="#102553"></path>
                        <path d="M30.7738852,9.15962755 L33.8695102,6.06410204 C34.102649,5.83099067 34.1026713,5.45302023 33.8695599,5.2198814 C33.6364486,4.98674258 33.2584781,4.9867203 33.0253393,5.21983163 L29.9297143,8.31535714 C29.6965755,8.54846851 29.6965532,8.92643896 29.9296646,9.15957778 C30.1627759,9.39271661 30.5407464,9.39273889 30.7738852,9.15962755 Z" id="Path" fill="#102553"></path>
                        <path d="M5.1304898,5.21993112 C4.89738937,5.45304701 4.89738937,5.83098615 5.1304898,6.06410204 L8.2261148,9.15962755 C8.45925363,9.3927389 8.83722409,9.39271663 9.07033545,9.1595778 C9.30344681,8.92643897 9.30342454,8.54846851 9.07028571,8.31535714 L5.97466071,5.21983163 C5.74151735,4.98675867 5.36357821,4.98680322 5.1304898,5.21993112 L5.1304898,5.21993112 Z" id="Path" fill="#102553"></path>
                    </g>
                </g>
            </g>
        </g>
    </g>
</svg>