<?xml version="1.0" encoding="UTF-8"?>
<svg width="47px" height="46px" viewBox="0 0 47 46" version="1.1" xmlns="http://www.w3.org/2000/svg" xmlns:xlink="http://www.w3.org/1999/xlink">
    <!-- Generator: Sketch 56.3 (81716) - https://sketch.com -->
    <title>“</title>
    <desc>Created with Sketch.</desc>
    <g id="Page-1" stroke="none" stroke-width="1" fill="none" fill-rule="evenodd" opacity="0.1429734">
        <g id="Hey-Digital_Landing-Page-Design-Case-Studies" transform="translate(-1124.000000, -1932.000000)" fill="#183165" fill-rule="nonzero">
            <g id="Group-20" transform="translate(216.000000, 1607.000000)">
                <path d="M928,325 L928,332.909502 C920.708333,334.99095 916.75,341.027149 916.75,351.0181 L927.166667,351.0181 L927.166667,371 L908,371 L908,351.434389 C908,338.321267 915.708333,327.705882 928,325 Z M955,325 L955,332.909502 C947.708333,334.99095 943.75,341.027149 943.75,351.0181 L954.166667,351.0181 L954.166667,371 L935,371 L935,351.434389 C935,338.321267 942.5,327.705882 955,325 Z" id="“" transform="translate(931.500000, 348.000000) scale(-1, -1) translate(-931.500000, -348.000000) "></path>
            </g>
        </g>
    </g>
</svg>