<?xml version="1.0" encoding="UTF-8"?>
<svg width="44px" height="41px" viewBox="0 0 44 41" version="1.1" xmlns="http://www.w3.org/2000/svg" xmlns:xlink="http://www.w3.org/1999/xlink">
    <!-- Generator: Sketch 56.3 (81716) - https://sketch.com -->
    <title>Ecommerce</title>
    <desc>Created with Sketch.</desc>
    <g id="Page-1" stroke="none" stroke-width="1" fill="none" fill-rule="evenodd">
        <g id="Hey-Digital_Home" transform="translate(-733.000000, -756.000000)" fill-rule="nonzero">
            <g id="Group-14" transform="translate(0.000000, 667.000000)">
                <g id="Group-53" transform="translate(712.000000, 89.000000)">
                    <g id="Ecommerce" transform="translate(21.000000, 0.000000)">
                        <path d="M39.9553907,21.243607 L36.7992204,8.26757926 C36.7480393,8.09317029 36.5774355,7.97108401 36.4068317,8.0059658 L26.3070868,9.61052836 C26.136483,9.64541016 26,9.80237824 26,9.97678721 L26.853019,23.3190737 C26.8700794,23.7202144 27.1942266,24.0167096 27.5866153,23.9992687 L27.6719172,23.9992687 L39.4094585,22.1330927 C39.7847869,22.08077 40.057753,21.6970703 39.9895114,21.3133705 C39.9553907,21.2959296 39.9553907,21.2610478 39.9553907,21.243607 L39.9553907,21.243607 Z" id="Path" fill="#FF5454"></path>
                        <path d="M26.027243,23.7748588 L25.1855572,10.4794257 C25.1855572,10.2882495 25.3033932,10.1318326 25.4885641,10.114453 L30,9.38450763 L29.0236445,5.35242854 C28.9563096,5.12649308 28.7374713,4.97007622 28.518633,5.00483552 L15.3883345,7.10777332 C15.1526625,7.14253262 14.9843254,7.35108843 15.0011591,7.59440355 L16.0953506,25.0957123 C16.1121843,25.6171019 16.5498609,26.0168338 17.0380387,25.9994542 C17.0717061,25.9994542 17.1053736,25.9994542 17.139041,25.9820745 L26.8184277,24.4352856 C26.4480859,24.4874245 26.0777442,24.2267298 26.027243,23.8443774 C26.0440767,23.8269978 26.027243,23.8096181 26.027243,23.7748588 L26.027243,23.7748588 Z" id="Path" fill="#F5C84C"></path>
                        <circle id="Oval" fill="#DAE6F1" cx="19" cy="38" r="3"></circle>
                        <circle id="Oval" fill="#DAE6F1" cx="33" cy="38" r="3"></circle>
                        <path d="M6.94983201,8 C6.91670705,8 6.8835821,8 6.85045714,8 L1.96452593,7.44314869 C1.38483918,7.38554338 0.954214735,6.79028854 1.00390217,6.11822661 C1.05358961,5.44616469 1.56702645,4.94691869 2.1467132,5.004524 L7.04920688,5.5613753 C7.62889364,5.61898061 8.05951808,6.23343723 7.99326817,6.90549915 C7.94358073,7.51995577 7.49639381,8 6.94983201,8 L6.94983201,8 Z" id="Path" fill="#FC657E"></path>
                        <path d="M36.9759921,32.8812199 L16.5220734,32.8812199 L18.2962248,30.2150883 C18.9274133,29.2616372 19.8997847,28.6260032 21.0086294,28.4317817 L34.6388888,26.1187801 C35.2018407,26.0304976 35.577142,25.4831461 35.4918462,24.9004815 C35.4065505,24.388443 34.9800718,24 34.4682973,24 L20.2580268,26.4012841 C18.7738809,26.7720706 17.4773857,27.6902087 16.6073691,28.9791332 L14.2702658,32.5104334 C13.7926097,33.2343499 13.9632012,34.223114 14.6626262,34.717496 C14.9185135,34.894061 15.2255781,35 15.5326428,35 L36.9759921,35 C37.538944,35 37.999541,34.5232745 37.999541,33.94061 C38.0166001,33.3579454 37.5560031,32.8812199 36.9759921,32.8812199 L36.9759921,32.8812199 Z" id="Path" fill="#DAE6F1"></path>
                        <circle id="Oval" fill="#FFFFFF" cx="19" cy="38" r="1"></circle>
                        <circle id="Oval" fill="#FFFFFF" cx="33" cy="38" r="1"></circle>
                        <path d="M43.4545455,25.9545455 L43.0454545,25.9545455 L43.0454545,25.5454545 C43.0454545,25.2532468 42.7922078,25 42.5,25 C42.2077922,25 41.9545455,25.2532468 41.9545455,25.5454545 L41.9545455,25.9545455 L41.5454545,25.9545455 C41.2532468,25.9545455 41,26.2077922 41,26.5 C41,26.7922078 41.2532468,27.0454545 41.5454545,27.0454545 L41.9545455,27.0454545 L41.9545455,27.4545455 C41.9545455,27.7467532 42.2077922,28 42.5,28 C42.7922078,28 43.0454545,27.7467532 43.0454545,27.4545455 L43.0454545,27.0454545 L43.4545455,27.0454545 C43.7467532,27.0454545 44,26.7922078 44,26.5 C44,26.2077922 43.7467532,25.9545455 43.4545455,25.9545455 Z" id="Path" fill="#70D6F9"></path>
                        <path d="M14.9741031,4.47184481 C14.2416295,4.34045391 13.6739625,3.75857995 13.5274678,3.02654497 C13.5274678,3.00777484 13.5091559,2.98900471 13.4908441,3.00777484 C13.4725322,3.00777484 13.4725322,3.02654497 13.4725322,3.02654497 C13.3260375,3.77735008 12.7583705,4.34045391 12.0258969,4.47184481 C12.007585,4.47184481 11.9892732,4.49061494 12.007585,4.50938506 C12.007585,4.52815519 12.0258969,4.52815519 12.0258969,4.52815519 C12.7583705,4.65954609 13.3260375,5.24142005 13.4725322,5.97345503 C13.4725322,5.99222516 13.4908441,6.01099529 13.5091559,5.99222516 C13.5274678,5.99222516 13.5274678,5.97345503 13.5274678,5.97345503 C13.6739625,5.22264992 14.2416295,4.65954609 14.9741031,4.52815519 C14.992415,4.52815519 15.0107268,4.50938506 14.992415,4.49061494 C14.992415,4.47184481 14.992415,4.47184481 14.9741031,4.47184481 Z" id="Path" fill="#F5C84C"></path>
                        <circle id="Oval" fill="#FC657E" cx="11.5" cy="7.5" r="1"></circle>
                        <circle id="Oval" fill="#87D147" cx="9.5" cy="22.5" r="1"></circle>
                        <circle id="Oval" fill="#F5C84C" cx="40.5" cy="29.5" r="1"></circle>
                        <path d="M1.37146884,8.004552 L6.39960505,8.47867308 C6.4848277,8.49560598 6.58709488,8.49560598 6.67231752,8.47867308 L14.154866,25.5300993 C14.7002909,26.7831336 16.0127197,27.5451139 17.3762821,27.3757849 C16.8819907,27.7652415 16.4558775,28.2224297 16.0979424,28.7473495 L13.7628418,32.1000629 C13.1492387,32.9805735 13.3708176,34.199742 14.2741777,34.8093263 C14.5980238,35.0294539 14.9900479,35.1479842 15.3820721,35.1479842 L16.3195212,35.1479842 C14.9218698,36.3671527 14.8025581,38.4837647 16.0297642,39.8722621 C17.2569704,41.2607596 19.3875366,41.3792899 20.785188,40.1601214 C22.1828394,38.9409529 22.3021511,36.8243409 21.074945,35.4358434 C20.9897223,35.334246 20.8874552,35.2326487 20.785188,35.1479842 L30.8755495,35.1479842 C29.477898,36.3671527 29.3585863,38.4837647 30.5857925,39.8722621 C31.8129986,41.2607596 33.9435648,41.3792899 35.3412162,40.1601214 C36.7388676,38.9409529 36.8581793,36.8243409 35.6309732,35.4358434 C35.5457506,35.334246 35.4434834,35.2326487 35.3412162,35.1479842 L36.7900012,35.1479842 C37.5910941,35.1479842 38.2387862,34.5045341 38.2387862,33.708688 C38.2387862,32.9128419 37.5910941,32.2693919 36.7900012,32.2693919 L17.1887922,32.2693919 L18.501221,30.3898404 C19.0636905,29.5770614 19.950006,29.0182758 20.9215442,28.8658798 L34.5401233,26.6476704 C35.3241717,26.5122072 35.8695966,25.7840927 35.7332404,24.9882466 C35.6991513,24.7850519 35.6309732,24.59879 35.5116615,24.429461 L39.4659923,23.786011 C40.3523079,23.6505478 41,22.8885675 41,21.991124 L41,11.916051 C41,11.1202048 40.3523079,10.4936877 39.5682595,10.4936877 C39.551215,10.4936877 39.5341705,10.4936877 39.5341705,10.4936877 L37.0968027,10.5614193 L36.5854669,8.49560598 C36.4831997,8.12308227 36.10822,7.86908883 35.7161958,7.93682041 L34.6764795,8.08921648 L34.6423905,7.86908883 C34.3014999,5.68474525 32.2391118,4.17771752 30.0403675,4.51637543 C29.8017441,4.55024123 29.5801652,4.61797281 29.3415418,4.68570439 C29.154052,4.55024123 28.9154286,4.48250964 28.6768051,4.51637543 L27.1768866,4.75343598 L27.1087084,4.33011358 C26.6825952,1.53618575 24.0236486,-0.377231489 21.2113012,0.0630238047 C18.3989538,0.503279099 16.472922,3.12787797 16.8990352,5.9218058 L16.9672134,6.34512819 L15.4161612,6.58218874 C14.9730034,6.64992032 14.6321128,7.05630982 14.6662019,7.49656512 L14.9048253,11.1540706 L8.87106183,11.3233996 L7.49045494,8.19081385 C8.15519159,7.68282697 8.2745033,6.7345848 7.76316741,6.07420186 C7.50749947,5.75247684 7.13251982,5.53234919 6.70640658,5.4984834 L1.66122584,5.02436231 C0.826043895,4.93969783 0.0931291251,5.54928209 0.00790647749,6.37899399 C-0.0773161702,7.20870589 0.536286893,7.93682041 1.37146884,8.004552 Z M16.3024767,19.7390489 L15.8593189,12.9320247 L20.9044997,24.4125282 L18.5182655,24.7850519 L16.3024767,19.7390489 Z M17.63195,24.920515 L17.1887922,24.9882466 C16.9160798,25.0221124 16.6604118,24.8527834 16.6263228,24.5818571 C16.6263228,24.5649242 16.6263228,24.5310584 16.6263228,24.5141255 L16.472922,22.2451175 L17.63195,24.920515 Z M27.5177771,8.98665996 C27.3132428,7.73362566 27.8927568,6.49752426 28.9665622,5.82020842 L29.733566,8.86812969 L27.5518662,9.20678761 L27.5177771,8.98665996 Z M36.0570864,11.424997 L36.977491,13.5246761 L38.9205674,21.2968753 L38.9205674,21.3138082 C38.9546565,21.4662043 38.8694338,21.6186003 38.7330776,21.6524661 C38.716033,21.6524661 38.716033,21.6524661 38.6989885,21.6524661 L38.0342519,21.7540635 L33.5344961,11.4927286 L36.0570864,11.424997 Z M32.631136,11.5265943 L37.1820254,21.9064596 L34.7957913,22.2789833 L30.1085456,11.6112588 L32.631136,11.5265943 Z M35.3753053,23.5997491 L35.1366818,23.0578965 L37.522916,22.6853728 L37.7444949,23.2102925 L35.3753053,23.5997491 Z M28.8813395,24.6665216 L28.6256716,24.0738702 L31.0119057,23.7013465 L31.2675736,24.277065 L28.8813395,24.6665216 Z M28.284781,23.2780241 L26.4098827,18.9940015 L25.966725,12.1700444 L30.6710151,22.9224333 L28.284781,23.2780241 Z M26.9893967,23.464286 C26.835996,23.4812189 26.6996397,23.3796215 26.6825952,23.2272254 C26.6825952,23.2102925 26.6825952,23.1933596 26.6825952,23.1933596 L26.5632835,21.4662043 L27.41551,23.3965544 L26.9893967,23.464286 Z M27.7564006,24.2093334 L28.0120685,24.8019848 L25.6428789,25.1914414 L25.3701664,24.5818571 L27.7564006,24.2093334 Z M24.7736079,25.3269045 L22.4044183,25.7163611 L22.1317058,25.0729111 L24.5179399,24.7003874 L24.7736079,25.3269045 Z M32.1368446,24.1416018 L31.8811767,23.5828163 L34.2674108,23.2102925 L34.5060342,23.7521452 L32.1368446,24.1416018 Z M29.188141,11.6112588 L33.9094757,22.3975135 L31.5232416,22.7700372 L26.6655507,11.6789904 L29.188141,11.6112588 Z M25.8644578,10.8662114 L25.8303687,10.3243587 L26.8530405,10.1719627 L26.9553077,10.8323456 L25.8644578,10.8662114 Z M25.3872109,16.6911276 L23.2396002,11.7805878 L25.0633649,11.7297891 L25.3872109,16.6911276 Z M22.3191956,11.7975207 L25.5576562,19.1802633 L25.8303687,23.2441583 C25.8303687,23.3796215 25.8644578,23.4981518 25.9155914,23.6336149 L25.0292758,23.7690781 L19.7966053,11.8652523 L22.3191956,11.7975207 Z M18.8762007,11.8991181 L24.1429603,23.9045413 L21.7567262,24.277065 L16.3706548,11.9668496 L18.8762007,11.8991181 Z M21.2453903,25.2083743 L21.5351473,25.8518243 L19.1659577,26.2412809 L18.8762007,25.580898 L21.2453903,25.2083743 Z M21.0919895,37.6709857 C21.0919895,39.0594831 19.9670506,40.1770543 18.5693991,40.1770543 C17.1717477,40.1770543 16.0468088,39.0594831 16.0468088,37.6709857 C16.0468088,36.2824882 17.1717477,35.1649171 18.5693991,35.1649171 C19.9670506,35.1649171 21.0919895,36.2824882 21.0919895,37.6709857 Z M35.6480177,37.6709857 C35.6480177,39.0594831 34.5230788,40.1770543 33.1254274,40.1770543 C31.7277759,40.1770543 30.602837,39.0594831 30.602837,37.6709857 C30.602837,36.2824882 31.7277759,35.1649171 33.1254274,35.1649171 C34.5230788,35.1649171 35.6480177,36.2824882 35.6480177,37.6709857 Z M34.8980584,25.1237098 C34.949192,25.4454348 34.7276131,25.7502269 34.4037671,25.8010256 L20.785188,28.019235 C19.5750264,28.2224297 18.501221,28.8997456 17.8023953,29.8987864 L16.0297642,32.4725866 C15.893408,32.6588485 15.9445416,32.9297748 16.1320314,33.065238 C16.2002095,33.1160367 16.2854322,33.1329696 16.3706548,33.1329696 L36.8070457,33.1329696 C37.1308918,33.1329696 37.4036043,33.4038959 37.4036043,33.7256209 C37.4036043,34.0473459 37.1308918,34.3182723 36.8070457,34.3182723 L15.3991166,34.3182723 C14.7855136,34.3182723 14.2912222,33.8272183 14.2912222,33.217634 C14.2912222,32.9975064 14.3594003,32.7773787 14.4957566,32.5911169 L16.8308571,29.2384035 C17.63195,28.0869666 18.8421116,27.2572547 20.2227185,26.9355296 L34.369678,24.6326558 C34.625346,24.6495887 34.8639694,24.8527834 34.8980584,25.1237098 Z M39.3466806,22.9562991 L38.6308104,23.0748294 L38.4092315,22.5668425 L38.8523893,22.4991109 C39.4659923,22.3975135 39.8921056,21.8217951 39.7898384,21.2122108 C39.7898384,21.178345 39.7727939,21.1275463 39.7727939,21.0936805 L39.0398791,18.1981553 L40.1818626,20.8058213 L40.1818626,22.0080569 C40.1648181,22.482178 39.8239275,22.8885675 39.3466806,22.9562991 L39.3466806,22.9562991 Z M39.5682595,11.3403325 C39.8921056,11.3233996 40.1648181,11.577393 40.1648181,11.8991181 L40.1648181,11.916051 L40.1648181,18.6892093 L37.7956284,13.2706826 L37.3354262,11.4080641 L39.5682595,11.3403325 Z M35.8014185,8.78346521 L36.2445763,10.5783522 L27.8075341,10.7984798 L27.6882224,10.0195666 L33.9776538,9.05439154 L34.1140101,9.91796924 C34.1480991,10.1550298 34.369678,10.3074258 34.6083014,10.2735601 C34.8469248,10.2396943 35.0003256,10.0195666 34.9662365,9.78250607 L34.8298803,8.91892838 L35.8014185,8.78346521 Z M30.1767237,5.36302023 C31.9152658,5.0920939 33.5344961,6.27739661 33.8072085,8.004552 L33.8412976,8.22467964 L30.5687479,8.73266652 L29.7506105,5.46461761 C29.9040113,5.41381892 30.0403675,5.37995313 30.1767237,5.36302023 L30.1767237,5.36302023 Z M27.9779794,5.4984834 C27.7734451,5.68474525 27.5689107,5.88794 27.3984654,6.12500055 L27.3132428,5.60008077 L27.9779794,5.4984834 Z M17.7342172,5.80327552 C17.3592375,3.46653589 18.9614233,1.24832652 21.3306129,0.875802809 C23.6998025,0.503279099 25.9155914,2.09497132 26.290571,4.44864385 L26.290571,4.48250964 L26.3587491,4.90583204 L17.8023953,6.22659792 L17.7342172,5.80327552 Z M15.5354729,7.42883353 L17.0865251,7.19177299 L17.2910594,8.46174019 C17.3762821,9.02052575 18.211464,8.88506258 18.1262414,8.32627702 L17.921707,7.05630982 L26.4780608,5.73554394 L26.6825952,7.00551114 C26.6996397,7.10710851 26.7507733,7.19177299 26.835996,7.25950457 C26.6314616,7.85215593 26.580328,8.49560598 26.6825952,9.12212313 L26.7166843,9.34225077 L25.6428789,9.51157973 C25.2508547,9.57931132 24.9610977,9.91796924 24.9781422,10.3243587 L25.0122313,10.9000772 L15.7400072,11.1540706 L15.5013838,7.46269933 C15.5013838,7.44576643 15.5184284,7.42883353 15.5354729,7.42883353 L15.5354729,7.42883353 Z M15.2968495,17.4531079 L12.9276599,12.0515141 L14.9389143,12.0007154 L15.2968495,17.4531079 Z M12.0072553,12.0853799 L15.4502502,19.9591765 L15.7570518,24.5649242 C15.7911408,25.3099716 16.4217884,25.8856901 17.1717477,25.8518243 C17.2228813,25.8518243 17.2740149,25.8518243 17.3251485,25.8348914 L17.9898851,25.733294 L18.2796421,26.4106099 L17.3933266,26.5630059 C16.3706548,26.7323349 15.3650276,26.1904822 14.9389143,25.2422401 L9.22899695,12.1531115 L12.0072553,12.0853799 Z M1.57600319,5.85407421 L6.60413941,6.3281953 C6.96207453,6.36206109 7.234787,6.68378611 7.20069794,7.03937693 C7.16660888,7.39496774 6.84276282,7.66589408 6.4848277,7.63202829 L1.45669149,7.1748401 C1.09875637,7.1409743 0.826043895,6.81924928 0.860132954,6.44672557 C0.894222013,6.09113476 1.21806807,5.82020842 1.57600319,5.85407421 Z" id="Shape" fill="#000000"></path>
                        <path d="M18.5,40 C19.3275862,40 20,39.3275862 20,38.5 C20,37.6724138 19.3275862,37 18.5,37 C17.6724138,37 17,37.6724138 17,38.5 C17,39.3275862 17.6724138,40 18.5,40 Z M18.5,37.862069 C18.862069,37.862069 19.137931,38.1551724 19.137931,38.5 C19.137931,38.8448276 18.8448276,39.137931 18.5,39.137931 C18.137931,39.137931 17.862069,38.8448276 17.862069,38.5 C17.862069,38.137931 18.1551724,37.862069 18.5,37.862069 Z" id="Shape" fill="#000000"></path>
                        <path d="M33.5,40 C34.3275862,40 35,39.3275862 35,38.5 C35,37.6724138 34.3275862,37 33.5,37 C32.6724138,37 32,37.6724138 32,38.5 C32,39.3275862 32.6724138,40 33.5,40 Z M33.5,37.862069 C33.862069,37.862069 34.137931,38.1551724 34.137931,38.5 C34.137931,38.862069 33.8448276,39.137931 33.5,39.137931 C33.137931,39.137931 32.862069,38.8448276 32.862069,38.5 C32.862069,38.137931 33.1551724,37.862069 33.5,37.862069 Z" id="Shape" fill="#000000"></path>
                    </g>
                </g>
            </g>
        </g>
    </g>
</svg>