<?xml version="1.0" encoding="UTF-8"?>
<svg width="80px" height="77px" viewBox="0 0 80 77" version="1.1" xmlns="http://www.w3.org/2000/svg" xmlns:xlink="http://www.w3.org/1999/xlink">
    <!-- Generator: Sketch 56.3 (81716) - https://sketch.com -->
    <title>Facebook Ads</title>
    <desc>Created with Sketch.</desc>
    <defs>
        <linearGradient x1="-3.04574141%" y1="112.484128%" x2="104.87563%" y2="-12.6612369%" id="linearGradient-1">
            <stop stop-color="#1C7CFB" stop-opacity="0.267318619" offset="0%"></stop>
            <stop stop-color="#1C7CFB" stop-opacity="0" offset="100%"></stop>
        </linearGradient>
    </defs>
    <g id="Page-1" stroke="none" stroke-width="1" fill="none" fill-rule="evenodd">
        <g id="Hey-Digital_Version_02" transform="translate(-280.000000, -1505.000000)" fill-rule="nonzero">
            <g id="Group-7-Copy-5" transform="translate(140.000000, 1461.000000)">
                <g id="Facebook-Ads" transform="translate(136.000000, 41.000000)">
                    <g id="Group-10" transform="translate(4.000000, 3.000000)">
                        <path d="M80,40.21625 C80,35.8989062 78.04625,31.8514062 74.6332813,28.3667187 C72.2584375,25.9420312 70.2810938,23.164375 68.771875,20.124375 C63.9454688,10.4029687 55.7165625,4 46.375625,4 C39.7376563,4 33.6617187,7.2340625 28.9689063,12.5942187 C25.8626563,16.1421875 21.940625,18.86375 17.5646875,20.6209375 C6.96484375,24.8775 0,32.0651562 0,40.21625 C0,48.3673437 6.96484375,55.555 17.5646875,59.8115625 C21.940625,61.56875 25.8626563,64.2903125 28.9690625,67.8382812 C33.661875,73.1984375 39.7378125,76.4325 46.3757813,76.4325 C55.7167187,76.4325 63.945625,70.0295312 68.7720312,60.308125 C70.28125,57.268125 72.2585938,54.4904687 74.6334375,52.0657812 C78.04625,48.5810937 80,44.5335937 80,40.21625 Z" id="Path" fill="url(#linearGradient-1)"></path>
                        <path d="M8.40171875,46.1915625 C8.20171875,46.1915625 8.001875,46.1153125 7.84921875,45.9628125 L6.83921875,44.9528125 L5.82921875,45.9628125 C5.5240625,46.2678125 5.02953125,46.2678125 4.724375,45.9628125 C4.41921875,45.6576563 4.41921875,45.1629688 4.724375,44.8579688 L6.286875,43.2954688 C6.59203125,42.9904688 7.0865625,42.9904688 7.39171875,43.2954688 L8.95421875,44.8579688 C9.259375,45.163125 9.259375,45.6578125 8.95421875,45.9628125 C8.8015625,46.1151563 8.6015625,46.1915625 8.40171875,46.1915625 Z" id="Path" fill="#6C6CFF"></path>
                        <path d="M74.3515625,61.6704687 C74.1515625,61.6704687 73.9517188,61.5942187 73.7990625,61.4417187 L72.7890625,60.4317187 L71.7790625,61.4417187 C71.4739063,61.7467187 70.979375,61.7467187 70.6742188,61.4417187 C70.3690625,61.1365625 70.3690625,60.641875 70.6742188,60.336875 L72.2367188,58.774375 C72.541875,58.469375 73.0364063,58.469375 73.3415625,58.774375 L74.9040625,60.336875 C75.2092188,60.6420312 75.2092188,61.1367187 74.9040625,61.4417187 C74.7514063,61.5940625 74.5515625,61.6704687 74.3515625,61.6704687 Z" id="Path" fill="#6C6CFF"></path>
                        <path d="M14.6484375,71.8829688 C14.4484375,71.8829688 14.2485937,71.8067188 14.0959375,71.6542188 C13.7907812,71.3490625 13.7907812,70.854375 14.0959375,70.549375 L15.6584375,68.986875 C15.9635937,68.681875 16.458125,68.681875 16.7632812,68.986875 C17.0684375,69.2920313 17.0684375,69.7867188 16.7632812,70.0917188 L15.2007812,71.6542188 C15.0482812,71.8065625 14.8484375,71.8829688 14.6484375,71.8829688 L14.6484375,71.8829688 Z" id="Path" fill="#FF9D33"></path>
                        <path d="M72.6953125,35.7370313 C72.4953125,35.7370313 72.2954687,35.6607813 72.1428125,35.5082813 C71.8376562,35.203125 71.8376562,34.7084375 72.1428125,34.4034375 L73.7053125,32.8409375 C74.0104687,32.5359375 74.505,32.5359375 74.8101562,32.8409375 C75.1153125,33.1460938 75.1153125,33.6407813 74.8101562,33.9457813 L73.2476562,35.5082813 C73.0951562,35.6607813 72.8953125,35.7370313 72.6953125,35.7370313 Z" id="Path" fill="#FF6C6C"></path>
                        <path d="M6.484375,23.7196875 C6.284375,23.7196875 6.08453125,23.6434375 5.931875,23.4909375 C5.62671875,23.1857813 5.62671875,22.6910938 5.931875,22.3860938 L7.494375,20.8235938 C7.79953125,20.5185938 8.2940625,20.5185938 8.59921875,20.8235938 C8.904375,21.12875 8.904375,21.6234375 8.59921875,21.9284375 L7.03671875,23.4909375 C6.88421875,23.6434375 6.684375,23.7196875 6.484375,23.7196875 Z" id="Path" fill="#FF6C6C"></path>
                        <path d="M46.484375,3.7196875 C46.284375,3.7196875 46.0845312,3.6434375 45.931875,3.4909375 C45.6267187,3.18578125 45.6267187,2.69109375 45.931875,2.38609375 L47.494375,0.82359375 C47.7995312,0.51859375 48.2940625,0.51859375 48.5992187,0.82359375 C48.904375,1.12875 48.904375,1.6234375 48.5992187,1.9284375 L47.0367187,3.4909375 C46.8842187,3.6434375 46.684375,3.7196875 46.484375,3.7196875 Z" id="Path-Copy-2" fill="#FF6C6C" transform="translate(47.265547, 2.157266) scale(-1, 1) translate(-47.265547, -2.157266) "></path>
                    </g>
                    <g id="online-advertising" transform="translate(20.000000, 25.000000)">
                        <polygon id="Path" fill="#293D7C" points="16.7080307 33.395023 33.3706281 33.395023 33.3706281 42.3928254 16.7080307 42.3928254"></polygon>
                        <path d="M35.0003109,42.2275355 L15.0888749,42.2275355 C14.0510342,42.2275355 13.2096904,43.068877 13.2096904,44.1067272 L13.2096904,45.5860911 L36.8795119,45.5860911 L36.8795119,44.1067272 C36.8795119,43.068877 36.0381705,42.2275355 35.0003109,42.2275355 Z" id="Path" fill="#445EA0"></path>
                        <path d="M48.0712997,0.109232768 L2.01792262,0.109232768 C0.96551934,0.109232768 0.117998715,0.956753393 0.117998715,2.28064199 L0.117998715,33.2275355 L49.9712247,33.2275355 L49.9712247,2.28064199 C49.9712247,0.956753393 49.123703,0.109232768 48.0712997,0.109232768 Z" id="Path" fill="#445EA0"></path>
                        <polygon id="Path" fill="#EBF0F3" points="2.98417323 2.71360633 47.1050269 2.71360633 47.1050269 29.2146936 2.98417323 29.2146936"></polygon>
                        <path d="M0.117998777,32.0818184 L0.117998777,34.2697941 C0.117998777,35.3222303 0.965519402,36.1697509 2.01792269,36.1697509 L48.0713009,36.1697509 C49.1237042,36.1697509 49.9712248,35.3222303 49.9712248,34.2697941 L49.9712248,32.0818184 L0.117998777,32.0818184 Z" id="Path" fill="#EDEDED"></path>
                        <path d="M25.0446106,32.3628385 C24.474526,32.3628385 24.0123579,32.8249384 24.0123579,33.3950229 C24.0123579,33.9650745 24.474526,34.4272073 25.0446106,34.4272073 C25.6146292,34.4272073 26.076795,33.9650745 26.076795,33.3950229 C26.076795,32.8249384 25.6146292,32.3628385 25.0446106,32.3628385 Z" id="Path" fill="#EBF0F3"></path>
                        <g id="Group" transform="translate(6.438389, 6.438389)" fill="#D5D6DB">
                            <polygon id="Path" points="0.0789352882 14.3687878 37.3384377 14.3687878 37.3384377 15.4201651 0.0789352882 15.4201651"></polygon>
                            <polygon id="Path" points="0.0789352882 19.1248049 37.3384377 19.1248049 37.3384377 20.1761821 0.0789352882 20.1761821"></polygon>
                            <polygon id="Path" points="14.4015038 0.0908659561 37.3384371 0.0908659561 37.3384371 1.14720702 14.4015038 1.14720702"></polygon>
                            <polygon id="Path" points="14.4015038 9.60783479 37.3384371 9.60783479 37.3384371 10.6641759 14.4015038 10.6641759"></polygon>
                            <polygon id="Path" points="14.4015038 4.85181778 37.3384371 4.85181778 37.3384371 5.90319502 14.4015038 5.90319502"></polygon>
                        </g>
                        <g id="facebook" transform="translate(6.498674, 6.498674)" fill="#293D7C">
                            <path d="M0,0 L0,10.6037973 L5.64716832,10.6037973 L5.64716832,6.50777142 L4.26669459,6.50777142 L4.26669459,4.83566011 L5.64716832,4.83566011 L5.64716832,3.4313835 C5.64716832,2.41009354 6.47508027,1.58218158 7.49637024,1.58218158 L8.93955047,1.58218158 L8.93955047,3.08578808 L7.90688259,3.08578808 C7.58236772,3.08578808 7.31927963,3.34887617 7.31927963,3.67339104 L7.31927963,4.83568337 L8.91360696,4.83568337 L8.69326167,6.50779469 L7.31927963,6.50779469 L7.31927963,10.6037973 L10.6037973,10.6037973 L10.6037973,0 L0,0 Z" id="Path"></path>
                        </g>
                        <polygon id="Path" fill="#FF9518" points="36.9893099 18.011074 26.076795 15.3190818 28.7687895 26.2315967 31.6040116 23.3963746 35.2694342 27.0617973 37.8195175 24.5117093 34.1540996 20.846289"></polygon>
                    </g>
                </g>
            </g>
        </g>
    </g>
</svg>