<?xml version="1.0" encoding="UTF-8"?>
<svg width="80px" height="77px" viewBox="0 0 80 77" version="1.1" xmlns="http://www.w3.org/2000/svg" xmlns:xlink="http://www.w3.org/1999/xlink">
    <!-- Generator: Sketch 56.3 (81716) - https://sketch.com -->
    <title>Facebook Ads</title>
    <desc>Created with Sketch.</desc>
    <defs>
        <linearGradient x1="-3.04574141%" y1="112.484128%" x2="104.87563%" y2="-12.6612369%" id="linearGradient-1">
            <stop stop-color="#1C7CFB" stop-opacity="0.267318619" offset="0%"></stop>
            <stop stop-color="#1C7CFB" stop-opacity="0" offset="100%"></stop>
        </linearGradient>
    </defs>
    <g id="Page-1" stroke="none" stroke-width="1" fill="none" fill-rule="evenodd">
        <g id="Hey-Digital_Home" transform="translate(-280.000000, -1425.000000)">
            <g id="Group-7-Copy-5" transform="translate(140.000000, 1381.000000)">
                <g id="Facebook-Ads" transform="translate(136.000000, 41.000000)">
                    <g id="Group-10" transform="translate(4.000000, 3.000000)" fill-rule="nonzero">
                        <path d="M80,40.21625 C80,35.8989062 78.04625,31.8514062 74.6332813,28.3667187 C72.2584375,25.9420312 70.2810938,23.164375 68.771875,20.124375 C63.9454688,10.4029687 55.7165625,4 46.375625,4 C39.7376563,4 33.6617187,7.2340625 28.9689063,12.5942187 C25.8626563,16.1421875 21.940625,18.86375 17.5646875,20.6209375 C6.96484375,24.8775 0,32.0651562 0,40.21625 C0,48.3673437 6.96484375,55.555 17.5646875,59.8115625 C21.940625,61.56875 25.8626563,64.2903125 28.9690625,67.8382812 C33.661875,73.1984375 39.7378125,76.4325 46.3757813,76.4325 C55.7167187,76.4325 63.945625,70.0295312 68.7720312,60.308125 C70.28125,57.268125 72.2585938,54.4904687 74.6334375,52.0657812 C78.04625,48.5810937 80,44.5335937 80,40.21625 Z" id="Path" fill="url(#linearGradient-1)"></path>
                        <path d="M8.40171875,46.1915625 C8.20171875,46.1915625 8.001875,46.1153125 7.84921875,45.9628125 L6.83921875,44.9528125 L5.82921875,45.9628125 C5.5240625,46.2678125 5.02953125,46.2678125 4.724375,45.9628125 C4.41921875,45.6576563 4.41921875,45.1629688 4.724375,44.8579688 L6.286875,43.2954688 C6.59203125,42.9904688 7.0865625,42.9904688 7.39171875,43.2954688 L8.95421875,44.8579688 C9.259375,45.163125 9.259375,45.6578125 8.95421875,45.9628125 C8.8015625,46.1151563 8.6015625,46.1915625 8.40171875,46.1915625 Z" id="Path" fill="#6C6CFF"></path>
                        <path d="M74.3515625,61.6704687 C74.1515625,61.6704687 73.9517188,61.5942187 73.7990625,61.4417187 L72.7890625,60.4317187 L71.7790625,61.4417187 C71.4739063,61.7467187 70.979375,61.7467187 70.6742188,61.4417187 C70.3690625,61.1365625 70.3690625,60.641875 70.6742188,60.336875 L72.2367188,58.774375 C72.541875,58.469375 73.0364063,58.469375 73.3415625,58.774375 L74.9040625,60.336875 C75.2092188,60.6420312 75.2092188,61.1367187 74.9040625,61.4417187 C74.7514063,61.5940625 74.5515625,61.6704687 74.3515625,61.6704687 Z" id="Path" fill="#6C6CFF"></path>
                        <path d="M14.6484375,71.8829688 C14.4484375,71.8829688 14.2485937,71.8067188 14.0959375,71.6542188 C13.7907812,71.3490625 13.7907812,70.854375 14.0959375,70.549375 L15.6584375,68.986875 C15.9635937,68.681875 16.458125,68.681875 16.7632812,68.986875 C17.0684375,69.2920313 17.0684375,69.7867188 16.7632812,70.0917188 L15.2007812,71.6542188 C15.0482812,71.8065625 14.8484375,71.8829688 14.6484375,71.8829688 L14.6484375,71.8829688 Z" id="Path" fill="#FF9D33"></path>
                        <path d="M72.6953125,35.7370313 C72.4953125,35.7370313 72.2954687,35.6607813 72.1428125,35.5082813 C71.8376562,35.203125 71.8376562,34.7084375 72.1428125,34.4034375 L73.7053125,32.8409375 C74.0104687,32.5359375 74.505,32.5359375 74.8101562,32.8409375 C75.1153125,33.1460938 75.1153125,33.6407813 74.8101562,33.9457813 L73.2476562,35.5082813 C73.0951562,35.6607813 72.8953125,35.7370313 72.6953125,35.7370313 Z" id="Path" fill="#FF6C6C"></path>
                        <path d="M6.484375,23.7196875 C6.284375,23.7196875 6.08453125,23.6434375 5.931875,23.4909375 C5.62671875,23.1857813 5.62671875,22.6910938 5.931875,22.3860938 L7.494375,20.8235938 C7.79953125,20.5185938 8.2940625,20.5185938 8.59921875,20.8235938 C8.904375,21.12875 8.904375,21.6234375 8.59921875,21.9284375 L7.03671875,23.4909375 C6.88421875,23.6434375 6.684375,23.7196875 6.484375,23.7196875 Z" id="Path" fill="#FF6C6C"></path>
                        <path d="M46.484375,3.7196875 C46.284375,3.7196875 46.0845312,3.6434375 45.931875,3.4909375 C45.6267187,3.18578125 45.6267187,2.69109375 45.931875,2.38609375 L47.494375,0.82359375 C47.7995312,0.51859375 48.2940625,0.51859375 48.5992187,0.82359375 C48.904375,1.12875 48.904375,1.6234375 48.5992187,1.9284375 L47.0367187,3.4909375 C46.8842187,3.6434375 46.684375,3.7196875 46.484375,3.7196875 Z" id="Path-Copy-2" fill="#FF6C6C" transform="translate(47.265547, 2.157266) scale(-1, 1) translate(-47.265547, -2.157266) "></path>
                    </g>
                    <g id="028-video-web-copy" transform="translate(24.000000, 19.000000)">
                        <g id="Group-47" transform="translate(4.567568, 26.736655)" fill-rule="nonzero">
                            <path d="M12.4324322,8.2633452 L12.4324322,19.2633452 L6.93243224,19.2633452 C3.89486612,19.2633452 1.43243224,16.8009113 1.43243224,13.7633452 C1.43505277,13.2199245 1.51278866,12.679475 1.66343224,12.1573452 C1.95388578,11.3084041 2.43997917,10.5396983 3.08243224,9.9133452 C4.09789977,8.87706675 5.48170127,8.28400896 6.93243224,8.2633452 L12.4324322,8.2633452 Z" id="Path" fill="#2854B1"></path>
                            <path d="M12.4324322,8.40929962 L12.2756094,16.2633452 L6.67479476,16.1623646 C4.26297932,16.117375 2.15085966,14.5306781 1.43243224,12.2241218 C1.72309411,11.349231 2.21856217,10.5567162 2.87744242,9.91278834 C3.93621713,8.84889855 5.37673281,8.25476881 6.87642409,8.26343877 L12.4324322,8.40929962 Z" id="Path" fill="#3761BA"></path>
                            <path d="M27.418355,2.66206517 L27.418355,25.9297368 C27.3960842,26.6567195 26.8194568,27.240787 26.1017347,27.2633452 L25.8769458,27.2633452 C25.4770561,27.1992835 25.1291146,26.9509799 24.9349735,26.5911198 C22.5138876,22.3211394 18.021679,19.6903136 13.1603199,19.6953886 L12.4324322,19.6953886 L12.4324322,8.83135928 L13.1496157,8.83135928 C18.0109748,8.83643433 22.5031833,6.20560854 24.9242693,1.93562807 C25.1184104,1.57576802 25.4663519,1.32746444 25.8662416,1.2633452 L26.0910305,1.2633452 C26.7250433,1.25754472 27.2774838,1.69978436 27.418355,2.32595248 C27.4371246,2.43718351 27.4371246,2.55083414 27.418355,2.66206517 Z" id="Path" fill="#DCD9D9"></path>
                            <path d="M27.4324322,2.33775716 L27.4324322,22.8710704 C27.4324322,23.2403246 27.2890717,23.5944552 27.0338883,23.8555573 C26.7787048,24.1166595 26.4326018,24.2633452 26.071718,24.2633452 L25.846718,24.2633452 C25.4464526,24.1985718 25.0981843,23.9475098 24.9038608,23.583652 C22.4805005,19.2662356 17.9840722,16.6061835 13.1181465,16.611315 L12.4324322,16.611315 L12.4324322,8.91543357 L13.1502894,8.91543357 C18.0162151,8.920565 22.5126434,6.26051294 24.9360037,1.94309657 C25.1303271,1.57923877 25.4785954,1.32817675 25.8788608,1.2633452 L26.1038608,1.2633452 C26.7384692,1.25748028 27.2914287,1.70463283 27.4324322,2.33775716 L27.4324322,2.33775716 Z" id="Path" fill="#F0F0F0"></path>
                            <path d="M27.4324322,11.2633452 L28.4324322,11.2633452 C30.0892865,11.2633452 31.4324322,12.6064909 31.4324322,14.2633452 C31.4324322,15.9201994 30.0892865,17.2633452 28.4324322,17.2633452 L27.4324322,17.2633452 L27.4324322,11.2633452 Z" id="Path" fill="#CCD3EB"></path>
                            <path d="M12.3880895,29.2630191 C11.5873354,29.2769134 10.8482281,28.8459155 10.4827355,28.1519442 L6.43243224,19.2633452 L10.9961543,19.2633452 L14.2478062,26.4075566 C14.5362094,27.0283244 14.4842099,27.7487923 14.1094753,28.3241705 C13.7347408,28.8995487 13.0876604,29.2524681 12.3880895,29.2630191 L12.3880895,29.2630191 Z" id="Path" fill="#2854B1"></path>
                            <path d="M11.8918917,20.5551601 L6.48648629,20.5551601 C2.9040988,20.5551601 7.22977234e-13,17.6489942 7.22977234e-13,14.0640569 C7.22977234e-13,10.4791197 2.9040988,7.57295374 6.48648629,7.57295374 L11.8918917,7.57295374 C12.4889563,7.57295374 12.9729728,8.05731472 12.9729728,8.65480427 L12.9729728,19.4733096 C12.9729728,20.0707992 12.4889563,20.5551601 11.8918917,20.5551601 L11.8918917,20.5551601 Z M6.48648629,9.7366548 C4.09822792,9.7366548 2.16216197,11.6740987 2.16216197,14.0640569 C2.16216197,16.4540151 4.09822792,18.3914591 6.48648629,18.3914591 L10.8108106,18.3914591 L10.8108106,9.7366548 L6.48648629,9.7366548 Z" id="Shape" fill="#183165"></path>
                            <path d="M25.6540539,28.1283487 C24.7601589,28.1404838 23.9308851,27.663312 23.4918917,26.8839858 C22.5143888,25.1891273 21.1606037,23.7418411 19.5351349,22.6539502 C19.1736144,22.4598899 18.9530076,22.077776 18.9655845,21.6674295 C18.9781615,21.257083 19.2217548,20.8892169 19.5944804,20.717693 C19.967206,20.546169 20.4048339,20.6005452 20.7243241,20.8580783 C22.6352002,22.1285892 24.2262736,23.8244736 25.3729728,25.8129537 C25.4057853,25.888502 25.4753022,25.9416999 25.5567566,25.9535943 C25.6411521,25.9695268 25.7282763,25.9474567 25.7949322,25.8932602 C25.861588,25.8390638 25.9010102,25.7582418 25.9027025,25.6723132 L25.9027025,2.45580071 C25.9027025,2.37833107 25.8719497,2.30403438 25.8172094,2.24925507 C25.762469,2.19447576 25.6882252,2.16370107 25.6108106,2.16370107 C25.5129773,2.1676944 25.423662,2.22050922 25.3729728,2.30434164 C22.8164594,6.775045 18.1182005,9.59108785 12.9729728,9.7366548 L12.9729728,18.3914591 C14.1950489,18.4218327 15.408338,18.6072272 16.5837836,18.9432028 C17.1157422,19.136555 17.4086462,19.7077524 17.2554148,20.2529631 C17.1021833,20.7981738 16.5546863,21.1328402 15.9999998,21.0203559 C14.8982775,20.712905 13.7599739,20.5564134 12.616216,20.5551601 L11.8918917,20.5551601 C11.2948271,20.5551601 10.8108106,20.0707992 10.8108106,19.4733096 L10.8108106,8.65480427 C10.8108106,8.05731472 11.2948271,7.57295374 11.8918917,7.57295374 L12.616216,7.57295374 C17.1296426,7.57609472 21.2978432,5.15599172 23.5351349,1.23330961 C23.8864344,0.578093694 24.5211932,0.122659695 25.2540539,-1.77635684e-14 L25.6540539,-1.77635684e-14 C27.0093905,-1.77635684e-14 28.1081079,1.09949943 28.1081079,2.45580071 L28.1081079,25.6723132 C28.1081079,27.0286144 27.0093905,28.1283487 25.6540539,28.1283487 L25.6540539,28.1283487 Z" id="Path" fill="#183165"></path>
                            <path d="M28.1081079,18.3914591 L27.0270268,18.3914591 C26.4299622,18.3914591 25.9459458,17.9070981 25.9459458,17.3096085 L25.9459458,10.8185053 C25.9459458,10.2210158 26.4299622,9.7366548 27.0270268,9.7366548 L28.1081079,9.7366548 C30.4963663,9.7366548 32.4324322,11.6740987 32.4324322,14.0640569 C32.4324322,16.4540151 30.4963663,18.3914591 28.1081079,18.3914591 Z M28.1081079,11.9003559 L28.1081079,16.227758 C29.3022371,16.227758 30.2702701,15.259036 30.2702701,14.0640569 C30.2702701,12.8690778 29.3022371,11.9003559 28.1081079,11.9003559 Z" id="Shape" fill="#183165"></path>
                            <path d="M40.4324322,15.2633452 L37.4324322,15.2633452 C36.8801475,15.2633452 36.4324322,14.8156299 36.4324322,14.2633452 C36.4324322,13.7110604 36.8801475,13.2633452 37.4324322,13.2633452 L40.4324322,13.2633452 C40.984717,13.2633452 41.4324322,13.7110604 41.4324322,14.2633452 C41.4324322,14.8156299 40.984717,15.2633452 40.4324322,15.2633452 Z" id="Path" fill="#FF6C36"></path>
                            <path d="M36.4039865,23.2616143 C36.1321984,23.2631873 35.8709677,23.1563753 35.6779995,22.9647727 L33.5613895,20.7845226 C33.3393769,20.3849645 33.4089897,19.886469 33.7319458,19.5631735 C34.0549018,19.239878 34.5528739,19.1701921 34.9520125,19.392438 L37.1299735,21.5624522 C37.3235488,21.7546486 37.4324322,22.0162743 37.4324322,22.2892023 C37.4324322,22.5621302 37.3235488,22.823756 37.1299735,23.0159523 C36.9289407,23.188955 36.6686447,23.2770348 36.4039865,23.2616143 Z" id="Path" fill="#FF6C36"></path>
                            <path d="M34.4029251,9.2633452 C34.1451695,9.26481948 33.8974262,9.16360948 33.7144209,8.98205604 C33.338436,8.60375614 33.338436,7.99278762 33.7144209,7.61448771 L35.7702362,5.54858661 C36.1504865,5.16826472 36.7669941,5.16826472 37.1472445,5.54858661 C37.5274948,5.9289085 37.5274948,6.54553212 37.1472445,6.92585401 L35.081732,8.98205604 C34.9011106,9.16124063 34.6573224,9.26225758 34.4029251,9.2633452 L34.4029251,9.2633452 Z" id="Path" fill="#FF6C36"></path>
                            <path d="M12.2918105,30.2633452 C11.0515006,30.2623542 9.92737096,29.5447679 9.42076576,28.4306146 L5.52989047,19.8015265 C5.37586836,19.4643322 5.40585798,19.0733148 5.60956526,18.7626926 C5.81327254,18.4520704 6.16297505,18.2641158 6.53863591,18.2633452 L10.9726818,18.2633452 C11.4082154,18.2642395 11.8028591,18.5160443 11.9814273,18.9069813 L15.1517701,25.8997063 C15.5928988,26.8558231 15.5099629,27.9670436 14.9316145,28.849469 C14.3532662,29.7318944 13.3588118,30.2645216 12.2918105,30.2633452 L12.2918105,30.2633452 Z M8.24574359,20.4451627 L11.4493418,27.5469785 C11.5959362,27.8752111 11.9275108,28.0855947 12.2918105,28.0815819 C12.6030212,28.0850026 12.8933073,27.9276735 13.0566834,27.6669785 C13.2345164,27.4163768 13.2599892,27.0904892 13.1231941,26.8160697 L10.2521494,20.4451627 L8.24574359,20.4451627 Z" id="Shape" fill="#183165"></path>
                        </g>
                        <g id="Group-45" transform="translate(10.000000, 0.000000)" fill-rule="nonzero">
                            <path d="M32,3 L32,7 L1,7 L1,3 C1,1.8954305 1.95718433,1 3.13793103,1 L29.862069,1 C31.0428157,1 32,1.8954305 32,3 Z" id="Path" fill="#3761BA"></path>
                            <path d="M32,8 L32,22.875 C32,24.0486051 31.0428157,25 29.862069,25 L3.13793103,25 L3.13793103,19.6875 C3.13636575,18.1706784 2.32160072,16.7696604 1,16.01125 L1,8 L32,8 Z" id="Path" fill="#F0F0F0"></path>
                            <rect id="Rectangle" fill="#DCD9D9" x="6" y="11" width="9" height="11" rx="4.5"></rect>
                            <path d="M29.8064524,26 L3.193556,26 C2.60564012,26 2.12904014,25.5149751 2.12904014,24.9166667 L2.12904014,19.5 C2.12597451,18.3420138 1.51769834,17.2731576 0.532266355,16.6941667 C0.201591331,16.4998806 -0.00150745069,16.1402418 0,15.7516667 L0,3.25 C0,1.45507456 1.42980838,0 3.193556,0 L29.8064524,0 C31.5702001,0 33,1.45507456 33,3.25 L33,11.9166667 C33,12.5149751 32.5234,13 31.9354841,13 C31.3475683,13 30.8709683,12.5149751 30.8709683,11.9166667 L30.8709683,3.25 C30.8709683,2.65169152 30.3943683,2.16666667 29.8064524,2.16666667 L3.193556,2.16666667 C2.60564012,2.16666667 2.12904014,2.65169152 2.12904014,3.25 L2.12904014,15.1666667 C3.4692967,16.1896279 4.25807186,17.7950646 4.25807186,19.5 L4.25807186,23.8333333 L29.8064524,23.8333333 C30.3943683,23.8333333 30.8709683,23.3483085 30.8709683,22.75 L30.8709683,20.5833333 C30.8709683,19.9850249 31.3475683,19.5 31.9354841,19.5 C32.5234,19.5 33,19.9850249 33,20.5833333 L33,22.75 C33,24.5449254 31.5702001,26 29.8064524,26 Z" id="Path" fill="#183165"></path>
                            <circle id="Oval" fill="#F5F7FF" cx="5" cy="4" r="1"></circle>
                            <circle id="Oval" fill="#F5F7FF" cx="9" cy="4" r="1"></circle>
                            <circle id="Oval" fill="#F5F7FF" cx="13" cy="4" r="1"></circle>
                            <path d="M14.9,22 L6.1,22 C5.49248678,22 5,21.5075132 5,20.9 L5,12.1 C5,11.4924868 5.49248678,11 6.1,11 L14.9,11 C15.5075132,11 16,11.4924868 16,12.1 L16,20.9 C16,21.5075132 15.5075132,22 14.9,22 Z M7.2,19.8 L13.8,19.8 L13.8,13.2 L7.2,13.2 L7.2,19.8 Z" id="Shape" fill="#C4C4C4"></path>
                            <path d="M26.8888889,13 L19.1111111,13 C18.4974614,13 18,12.5522847 18,12 C18,11.4477153 18.4974614,11 19.1111111,11 L26.8888889,11 C27.5025386,11 28,11.4477153 28,12 C28,12.5522847 27.5025386,13 26.8888889,13 Z" id="Path" fill="#DCD9D9"></path>
                            <path d="M26.8888889,17 L19.1111111,17 C18.4974614,17 18,16.5522847 18,16 C18,15.4477153 18.4974614,15 19.1111111,15 L26.8888889,15 C27.5025386,15 28,15.4477153 28,16 C28,16.5522847 27.5025386,17 26.8888889,17 Z" id="Path" fill="#DCD9D9"></path>
                            <path d="M23,21 L19,21 C18.4477153,21 18,20.5522847 18,20 C18,19.4477153 18.4477153,19 19,19 L23,19 C23.5522847,19 24,19.4477153 24,20 C24,20.5522847 23.5522847,21 23,21 Z" id="Path" fill="#DCD9D9"></path>
                            <path d="M31.9354839,9 L1.06451613,9 C0.476600105,9 0,8.55228475 0,8 C0,7.44771525 0.476600105,7 1.06451613,7 L31.9354839,7 C32.5233999,7 33,7.44771525 33,8 C33,8.55228475 32.5233999,9 31.9354839,9 Z" id="Path" fill="#183165"></path>
                            <circle id="Oval" fill="#033C59" cx="32" cy="16" r="1"></circle>
                        </g>
                        <g id="Group-69" transform="translate(0.000000, 16.000000)">
                            <circle id="Oval" fill="#FF6C36" fill-rule="nonzero" cx="9.5" cy="9.5" r="7.5"></circle>
                            <path d="M8.61818255,15.7281987 C5.28709118,15.7322907 2.49912407,13.0962698 2.17995278,9.64085698 C1.86078149,6.1854442 4.11505796,3.04362258 7.38573509,2.38547387 C10.6564122,1.72732516 13.8710793,3.7686474 14.8093397,7.09948271 C14.9594292,7.58123043 15.4006102,7.89846593 15.8860627,7.8737108 C16.2274955,7.88601231 16.55427,7.728725 16.7666512,7.44985455 C16.9790324,7.1709841 17.0518153,6.8036265 16.9627857,6.45990298 C15.831152,2.42252885 12.1611921,-0.254636542 8.1336572,0.0192229037 C3.6832048,0.331410431 0.176052661,4.09276716 0.00439866728,8.73770447 C-0.133370944,13.2598757 2.97989252,17.182081 7.26818771,17.8888966 C11.5564829,18.5957123 15.6792884,15.8661876 16.8874151,11.5204373 C16.9723758,11.1782701 16.8976707,10.8143857 16.6858034,10.538398 C16.4739361,10.2624102 16.1496728,10.1065807 15.8106921,10.1178502 C15.3252396,10.0930951 14.8840586,10.4103306 14.7339691,10.8920783 C13.9352398,13.7284903 11.4545072,15.6901548 8.61818255,15.7281987 L8.61818255,15.7281987 Z" id="Path" fill="#183165" fill-rule="nonzero"></path>
                            <circle id="Oval" fill="#FF6C36" cx="9" cy="9" r="7"></circle>
                            <path d="M8,14 C7.44771525,14 7,13.4963203 7,12.875 L7,8.375 C7,6.51103897 8.34314575,5 10,5 C10.5522847,5 11,5.50367966 11,6.125 C11,6.74632034 10.5522847,7.25 10,7.25 C9.44771525,7.25 9,7.75367966 9,8.375 L9,12.875 C9,13.4963203 8.55228475,14 8,14 L8,14 Z" id="Path" fill="#F5F7FF" fill-rule="nonzero"></path>
                            <path d="M10,10 L8,10 C7.44771525,10 7,9.55228475 7,9 C7,8.44771525 7.44771525,8 8,8 L10,8 C10.5522847,8 11,8.44771525 11,9 C11,9.55228475 10.5522847,10 10,10 Z" id="Path" fill="#F5F7FF" fill-rule="nonzero"></path>
                        </g>
                    </g>
                </g>
            </g>
        </g>
    </g>
</svg>