<svg xmlns="http://www.w3.org/2000/svg" width="80" height="63" viewBox="0 0 80 63">
    <g fill="none" opacity=".3">
        <path fill="#E1E8FA" d="M0 47.75L80 47.75 80 49.417 0 49.417z"/>
        <path fill="#183165" d="M63.696 44.824H16.304c-.368 0-.667-.299-.667-.667V14.29c0-.368.299-.666.667-.666h47.392c.368 0 .667.298.667.666v29.867c0 .368-.299.667-.667.667zM16.97 43.49h46.06V14.957H16.97V43.49z"/>
        <path fill="#183165" d="M71.446 48.417c-.095 0-.19-.021-.28-.062l-7.75-3.593c-.236-.11-.387-.346-.387-.605V14.29c0-.161.06-.318.166-.44l7.75-8.832c.183-.209.477-.282.736-.184.26.097.432.346.432.624V47.75c0 .228-.116.44-.308.562-.109.07-.233.105-.359.105zm-7.083-4.686l6.417 2.975V7.228l-6.417 7.313v29.19z"/>
        <path fill="#183165" d="M63.696 14.957H16.304c-.192 0-.375-.083-.501-.227l-7.75-8.833c-.173-.197-.215-.476-.106-.715.108-.238.345-.391.607-.391h62.893c.262 0 .5.153.607.391.108.239.067.518-.106.715l-7.75 8.833c-.127.144-.31.227-.502.227zm-47.09-1.333h46.788l6.58-7.5H10.026l6.58 7.5z"/>
        <path fill="#183165" d="M8.554 48.417c-.125 0-.25-.036-.36-.105-.191-.122-.307-.334-.307-.562V5.457c0-.277.172-.526.432-.624.26-.097.553-.024.736.185l7.75 8.833c.106.121.165.277.165.44v29.866c0 .26-.15.496-.386.605l-7.75 3.593c-.09.041-.185.062-.28.062zM9.22 7.228v39.478l6.417-2.975v-29.19L9.22 7.228zM56.922 14.957H23.078c-.23 0-.443-.118-.565-.313L16.98 5.811c-.129-.205-.136-.464-.018-.677.117-.212.34-.343.583-.343h44.912c.243 0 .466.131.584.343.117.213.11.472-.019.677l-5.534 8.833c-.122.195-.336.313-.565.313zm-33.475-1.333h33.106l4.699-7.5H18.748l4.7 7.5z"/>
        <path fill="#183165" d="M50.153 14.957H29.847c-.278 0-.526-.172-.624-.432l-3.32-8.833c-.078-.205-.05-.434.075-.614s.33-.287.549-.287h26.947c.219 0 .424.107.549.287.124.18.152.41.076.614l-3.321 8.833c-.099.26-.347.432-.625.432zm-19.844-1.333H49.69l2.82-7.5H27.489l2.82 7.5z"/>
        <path fill="#183165" d="M43.384 14.957h-6.768c-.336 0-.62-.25-.662-.584L34.847 5.54c-.023-.19.035-.38.162-.524.126-.143.309-.225.5-.225h8.982c.192 0 .374.082.5.225.127.144.186.334.162.524l-1.107 8.833c-.042.334-.326.584-.662.584zm-6.18-1.333h5.592l.94-7.5h-7.472l.94 7.5zM23.069 44.824c-.368 0-.667-.299-.667-.667V14.29c0-.368.299-.666.667-.666.368 0 .667.298.667.666v29.867c0 .368-.299.667-.667.667zM29.834 44.824c-.368 0-.667-.299-.667-.667V14.29c0-.368.299-.666.667-.666.368 0 .667.298.667.666v29.867c0 .368-.299.667-.667.667z"/>
        <path fill="#183165" d="M36.635 44.824c-.368 0-.667-.299-.667-.667V14.29c0-.368.299-.666.667-.666.368 0 .667.298.667.666v29.867c0 .368-.299.667-.667.667zM43.4 44.824c-.368 0-.666-.299-.666-.667V14.29c0-.368.298-.666.666-.666.368 0 .667.298.667.666v29.867c0 .368-.298.667-.667.667zM50.166 44.824c-.368 0-.667-.299-.667-.667V14.29c0-.368.299-.666.667-.666.368 0 .666.298.666.666v29.867c0 .368-.298.667-.666.667zM56.93 44.824c-.367 0-.666-.299-.666-.667V14.29c0-.368.299-.666.667-.666.368 0 .666.298.666.666v29.867c0 .368-.298.667-.666.667z"/>
        <path fill="#183165" d="M56.93 44.824c-.367 0-.666-.299-.666-.667V14.29c0-.368.299-.666.667-.666.368 0 .666.298.666.666v29.867c0 .368-.298.667-.666.667zM63.696 44.824c-.368 0-.667-.299-.667-.667V14.29c0-.368.299-.666.667-.666.368 0 .667.298.667.666v29.867c0 .368-.299.667-.667.667z"/>
        <path fill="#183165" d="M63.696 21.722H16.304c-.368 0-.667-.299-.667-.667 0-.368.299-.666.667-.666h47.392c.368 0 .667.298.667.666 0 .368-.299.667-.667.667z"/>
        <path fill="#183165" d="M63.696 21.722H16.304c-.368 0-.667-.299-.667-.667 0-.368.299-.666.667-.666h47.392c.368 0 .667.298.667.666 0 .368-.299.667-.667.667zM63.696 28.487H16.304c-.368 0-.667-.298-.667-.666 0-.368.299-.667.667-.667h47.392c.368 0 .667.299.667.667 0 .368-.299.666-.667.666zM63.696 35.253H16.304c-.368 0-.667-.299-.667-.667 0-.368.299-.667.667-.667h47.392c.368 0 .667.299.667.667 0 .368-.299.667-.667.667zM63.696 42.018H16.304c-.368 0-.667-.299-.667-.667 0-.368.299-.667.667-.667h47.392c.368 0 .667.299.667.667 0 .368-.299.667-.667.667z"/>
        <path fill="#183165" d="M8.554 36.852c-.152 0-.301-.052-.421-.15-.156-.126-.246-.316-.246-.517V17.172c0-.232.12-.448.319-.569.198-.121.445-.13.652-.024l7.75 3.97c.222.115.362.344.362.594V34.57c0 .316-.221.588-.53.653l-7.75 1.615c-.046.01-.091.014-.136.014zm.666-18.59v17.103l6.417-1.337V21.55L9.22 18.263zM8.554 45.086c-.267 0-.519-.161-.621-.425-.134-.343.035-.729.378-.863l7.75-3.027c.343-.134.73.035.863.378.134.343-.035.73-.378.864l-7.75 3.027c-.08.031-.162.046-.242.046z"/>
        <path fill="#183165" d="M16.304 28.487h-7.75c-.368 0-.667-.298-.667-.666 0-.368.299-.667.667-.667h7.75c.368 0 .666.299.666.667 0 .368-.298.666-.666.666zM71.446 36.852c-.045 0-.09-.005-.136-.014l-7.75-1.616c-.309-.064-.53-.337-.53-.652V21.143c0-.25.14-.48.362-.593l7.75-3.971c.207-.106.454-.097.652.024s.319.337.319.569v19.013c0 .2-.09.39-.246.517-.12.098-.269.15-.42.15zm-7.083-2.824l6.417 1.337V18.263l-6.417 3.287v12.478zM71.446 45.086c-.08 0-.162-.015-.242-.046l-7.75-3.027c-.343-.134-.512-.521-.378-.864.134-.343.521-.512.863-.378l7.75 3.027c.343.134.512.52.378.863-.102.264-.354.425-.62.425z"/>
        <path fill="#183165" d="M71.446 28.487h-7.75c-.368 0-.666-.298-.666-.666 0-.368.298-.667.666-.667h7.75c.368 0 .667.299.667.667 0 .368-.298.666-.667.666z"/>
        <path fill="#183165" d="M67.571 46.62c-.368 0-.666-.299-.666-.667V10.54h-53.81v35.413c0 .368-.298.667-.666.667-.368 0-.667-.299-.667-.667V9.873c0-.367.299-.666.667-.666h55.143c.368 0 .666.299.666.667v36.08c0 .368-.298.666-.667.666z"/>
        <path fill="#3761BA" d="M4.07 4.859V46.75c0 .552.448 1 1 1h3.483V7.553c0-1.157.939-2.096 2.096-2.096h58.702c1.157 0 2.096.939 2.096 2.096V47.75h3.483c.553 0 1-.448 1-1V4.859c0-2.315-1.876-4.192-4.192-4.192H8.262C5.947.667 4.07 2.543 4.07 4.859z"/>
        <path fill="#3762CC" d="M74.93 48.417h-3.484c-.368 0-.666-.299-.666-.667V7.553c0-.788-.641-1.429-1.43-1.429h-58.7c-.789 0-1.43.641-1.43 1.43V47.75c0 .368-.299.667-.667.667H5.07c-.919 0-1.667-.748-1.667-1.667V4.859C3.403 2.179 5.583 0 8.262 0h63.476c2.68 0 4.859 2.18 4.859 4.859V46.75c0 .919-.748 1.667-1.667 1.667zm-2.817-1.334h2.817c.184 0 .333-.15.333-.333V4.859c0-1.944-1.581-3.526-3.525-3.526H8.262c-1.944 0-3.525 1.582-3.525 3.526V46.75c0 .184.15.333.333.333h2.817V7.553c0-1.523 1.24-2.762 2.763-2.762H69.35c1.523 0 2.763 1.239 2.763 2.762v39.53h-.001z"/>
        <circle cx="40" cy="46.763" r="15" fill="#FFF"/>
        <path fill="#F35229" d="M25 46.777l4.27-3.102-1.717-5.285C25.94 40.782 25 43.663 25 46.763v.014zM35.092 32.586L40 36.152l4.908-3.566c-1.538-.533-3.189-.823-4.908-.823-1.719 0-3.37.29-4.908.823zM33.498 56.148l-5.347-.187c1.714 2.204 4.028 3.918 6.697 4.894l-1.35-4.707zM45.153 60.855c2.669-.977 4.983-2.69 6.696-4.894l-5.346.187-1.35 4.707zM50.7 43.675l4.3 3.124c.007-3.128-.943-6.032-2.573-8.438L50.7 43.675zM40 40.902L34.056 45.22 36.326 52.208 43.674 52.208 45.944 45.22z"/>
        <path fill="#183165" d="M43.674 52.875h-7.348c-.288 0-.544-.186-.634-.461l-2.27-6.988c-.09-.274.008-.575.242-.745l5.944-4.319c.234-.17.55-.17.784 0l5.945 4.319c.233.17.331.47.242.745l-2.27 6.988c-.09.275-.347.46-.635.46zM36.81 51.54h6.378l1.972-6.066L40 41.725l-5.16 3.75 1.97 6.066z"/>
        <path fill="#183165" d="M40 62.43c-8.639 0-15.667-7.028-15.667-15.667 0-8.638 7.028-15.666 15.667-15.666s15.667 7.028 15.667 15.666c0 8.639-7.028 15.667-15.667 15.667zm0-30c-7.903 0-14.333 6.43-14.333 14.333 0 7.904 6.43 14.334 14.333 14.334 7.903 0 14.333-6.43 14.333-14.334 0-7.903-6.43-14.333-14.333-14.333z"/>
        <path fill="#183165" d="M54.92 47.407c-.137 0-.274-.041-.392-.127l-4.22-3.066c-.233-.17-.331-.47-.242-.745l1.68-5.169c.114-.35.49-.541.84-.428.35.114.542.49.428.84l-1.53 4.709 3.828 2.78c.298.217.363.634.147.932-.13.18-.334.274-.54.274z"/>
        <path fill="#183165" d="M45.944 45.887c-.281 0-.542-.179-.634-.46-.114-.351.078-.727.428-.841l4.756-1.545c.351-.113.727.077.84.428.115.35-.077.726-.427.84l-4.757 1.545c-.068.022-.138.033-.206.033zM45.178 61.435c-.061 0-.123-.008-.184-.026-.354-.101-.559-.47-.457-.824l1.325-4.621c.08-.278.329-.472.618-.483l5.217-.182c.367-.005.677.275.69.643.012.368-.275.677-.643.69l-4.734.165-1.191 4.155c-.084.293-.351.483-.641.483z"/>
        <path fill="#183165" d="M46.503 56.814c-.207 0-.412-.096-.542-.277l-2.829-3.94c-.215-.299-.146-.716.153-.93.298-.215.715-.147.93.152l2.829 3.94c.215.299.146.716-.153.93-.117.085-.253.125-.388.125zM33.499 56.815h-.024l-.22-.008-5.035-.176c-.368-.013-.656-.322-.643-.69.013-.368.319-.661.69-.643l5.046.176.209.008c.368.013.656.321.643.689-.013.36-.309.644-.666.644z"/>
        <path fill="#183165" d="M34.783 61.296c-.29 0-.557-.19-.64-.483l-1.285-4.481c-.057-.196-.02-.407.099-.572l2.828-3.94c.214-.3.631-.368.93-.153.299.214.368.631.153.93l-2.64 3.678 1.196 4.171c.102.354-.103.723-.457.825-.061.017-.123.025-.184.025zM25.119 47.358c-.206 0-.41-.095-.54-.275-.217-.298-.15-.715.147-.931l3.76-2.731-1.524-4.688c-.113-.35.078-.726.428-.84.35-.113.727.077.84.428l1.674 5.148c.089.275-.009.576-.243.745L25.51 47.23c-.118.087-.255.128-.391.128z"/>
        <path fill="#183165" d="M34.056 45.887c-.068 0-.137-.01-.205-.032l-4.786-1.545c-.35-.113-.543-.49-.43-.84.113-.35.49-.542.84-.43l4.786 1.546c.35.113.542.489.43.839-.092.282-.354.462-.635.462zM40 36.818c-.138 0-.275-.042-.392-.127l-4.828-3.508c-.298-.216-.363-.633-.147-.931.217-.298.634-.363.931-.147L40 35.328l4.425-3.216c.298-.216.715-.15.932.148.216.298.15.715-.148.931l-4.817 3.5c-.117.085-.254.127-.392.127z"/>
        <path fill="#183165" d="M40 41.568c-.368 0-.667-.298-.667-.666v-4.75c0-.368.299-.667.667-.667.368 0 .667.299.667.667v4.75c0 .368-.299.666-.667.666z"/>
    </g>
</svg>
