<svg xmlns="http://www.w3.org/2000/svg" width="102" height="80" viewBox="0 0 102 80">
    <g fill="none">
        <path fill="#E1E8FA" d="M0 62L102 62 102 64 0 64z"/>
        <path fill="#183165" d="M81.152 57H20.848c-.468 0-.848-.383-.848-.855v-38.29c0-.472.38-.855.848-.855h60.304c.468 0 .848.383.848.855v38.29c0 .473-.38.855-.848.855zm-59.455-1.71h58.606V18.71H21.697v36.58z"/>
        <path fill="#183165" d="M91.193 62c-.116 0-.232-.027-.34-.081l-9.385-4.694c-.286-.143-.468-.452-.468-.79V17.411c0-.211.071-.416.2-.575l9.386-11.54c.222-.273.577-.369.891-.241.315.128.523.453.523.815V61.13c0 .297-.14.574-.373.734-.132.09-.283.137-.434.137zm-8.578-6.122l7.77 3.887V8.185l-7.77 9.555v38.138z"/>
        <path fill="#183165" d="M81.253 19H20.746c-.245 0-.479-.106-.64-.29L10.211 7.415c-.22-.252-.273-.61-.135-.914.138-.305.441-.501.776-.501h80.297c.334 0 .637.196.775.5.138.306.085.663-.135.915L81.893 18.71c-.162.184-.395.29-.64.29zM21.13 17.295h59.737l8.401-9.59H12.73l8.401 9.59z"/>
        <path fill="#183165" d="M10.807 62c-.151 0-.302-.046-.434-.137-.233-.16-.373-.437-.373-.734V5.871c0-.363.208-.687.523-.815.315-.128.67-.032.891.24L20.8 16.837c.13.16.201.363.201.575v39.023c0 .34-.182.648-.468.79l-9.385 4.694c-.108.054-.224.081-.34.081zm.808-53.816v51.58l7.77-3.886V17.74l-7.77-9.556zM73.088 19H29.911c-.293 0-.565-.15-.72-.4L22.13 7.305c-.164-.263-.173-.594-.024-.866.15-.27.435-.439.745-.439h57.298c.31 0 .595.168.745.44.15.271.14.602-.024.865L73.81 18.6c-.156.249-.429.4-.722.4zm-42.706-1.705h42.236l5.995-9.59H24.387l5.995 9.59z"/>
        <path fill="#183165" d="M64.064 19h-25.13c-.343 0-.65-.22-.772-.552l-4.11-11.296c-.094-.262-.06-.555.095-.785.154-.23.407-.367.678-.367h33.35c.27 0 .524.137.678.367.155.23.19.523.094.785l-4.11 11.296c-.121.332-.429.552-.773.552zm-24.558-1.705h23.987l3.49-9.59H36.015l3.49 9.59z"/>
        <path fill="#183165" d="M55.765 19h-8.53c-.424 0-.781-.32-.833-.746L45.006 6.959c-.03-.243.045-.487.204-.67.16-.184.39-.289.63-.289h11.32c.24 0 .47.105.63.289.16.183.233.427.204.67l-1.396 11.295c-.052.426-.41.746-.833.746zm-7.789-1.705h7.047l1.184-9.59h-9.415l1.184 9.59zM29 57c-.552 0-1-.383-1-.855v-38.29c0-.472.448-.855 1-.855s1 .383 1 .855v38.29c0 .473-.448.855-1 .855zM38 57c-.552 0-1-.383-1-.855v-38.29c0-.472.448-.855 1-.855s1 .383 1 .855v38.29c0 .473-.447.855-1 .855z"/>
        <path fill="#183165" d="M47 57c-.552 0-1-.383-1-.855v-38.29c0-.472.448-.855 1-.855s1 .383 1 .855v38.29c0 .473-.447.855-1 .855zM55 57c-.552 0-1-.383-1-.855v-38.29c0-.472.448-.855 1-.855s1 .383 1 .855v38.29c0 .473-.447.855-1 .855zM64 57c-.552 0-1-.383-1-.855v-38.29c0-.472.448-.855 1-.855s1 .383 1 .855v38.29c0 .473-.448.855-1 .855zM73 57c-.552 0-1-.383-1-.855v-38.29c0-.472.448-.855 1-.855s1 .383 1 .855v38.29c0 .473-.448.855-1 .855z"/>
        <path fill="#183165" d="M73 57c-.552 0-1-.383-1-.855v-38.29c0-.472.448-.855 1-.855s1 .383 1 .855v38.29c0 .473-.448.855-1 .855zM81 57c-.552 0-1-.383-1-.855v-38.29c0-.472.448-.855 1-.855s1 .383 1 .855v38.29c0 .473-.448.855-1 .855z"/>
        <path fill="#183165" d="M81.152 28H20.848c-.468 0-.848-.448-.848-1s.38-1 .848-1h60.304c.468 0 .848.448.848 1s-.38 1-.848 1z"/>
        <path fill="#183165" d="M81.152 28H20.848c-.468 0-.848-.448-.848-1s.38-1 .848-1h60.304c.468 0 .848.448.848 1s-.38 1-.848 1zM81.152 38H20.848c-.468 0-.848-.448-.848-1s.38-1 .848-1h60.304c.468 0 .848.448.848 1s-.38 1-.848 1zM81.152 45H20.848c-.468 0-.848-.448-.848-1s.38-1 .848-1h60.304c.468 0 .848.448.848 1s-.38 1-.848 1zM81.152 54H20.848c-.468 0-.848-.448-.848-1s.38-1 .848-1h60.304c.468 0 .848.448.848 1s-.38 1-.848 1z"/>
        <path fill="#183165" d="M10.807 47c-.184 0-.364-.066-.51-.19-.188-.163-.297-.405-.297-.662V21.852c0-.297.146-.572.386-.727.24-.155.54-.167.79-.031l9.385 5.074c.27.146.439.439.439.758v17.158c0 .404-.268.752-.643.834l-9.385 2.065c-.055.011-.11.017-.165.017zm.808-23.754V45.1l7.77-1.709V27.447l-7.77-4.201zM10.808 58c-.323 0-.628-.222-.752-.584-.163-.472.042-1.003.458-1.188l9.385-4.165c.415-.184.883.049 1.045.52.163.473-.042 1.004-.458 1.189l-9.385 4.165c-.096.043-.196.063-.293.063z"/>
        <path fill="#183165" d="M20.193 38h-9.386c-.445 0-.807-.448-.807-1s.362-1 .807-1h9.386c.445 0 .807.448.807 1s-.362 1-.807 1zM91.193 47c-.055 0-.11-.006-.165-.018l-9.385-2.064c-.375-.082-.643-.43-.643-.834V26.926c0-.319.17-.612.44-.758l9.385-5.074c.25-.136.549-.124.789.03.24.156.386.431.386.728v24.296c0 .257-.11.5-.298.661-.145.125-.325.191-.51.191zm-8.578-3.609l7.77 1.71V23.245l-7.77 4.201v15.944zM91.192 58c-.097 0-.197-.02-.293-.063l-9.385-4.165c-.416-.185-.62-.717-.458-1.188.162-.472.63-.705 1.045-.52l9.385 4.164c.416.185.62.717.458 1.188-.124.362-.429.584-.752.584z"/>
        <path fill="#183165" d="M91.193 38h-9.386c-.445 0-.807-.448-.807-1s.362-1 .807-1h9.386c.445 0 .807.448.807 1s-.361 1-.807 1z"/>
        <path fill="#183165" d="M87.15 60c-.47 0-.85-.383-.85-.855V13.71H17.7v45.434c0 .472-.38.855-.85.855s-.85-.383-.85-.855v-46.29c0-.472.38-.855.85-.855h70.3c.47 0 .85.383.85.855v46.29c0 .472-.38.855-.85.855z"/>
        <path fill="#3761BA" d="M6 6.431v54.273C6 61.42 6.573 62 7.28 62h4.46V9.922c0-1.5 1.201-2.715 2.683-2.715h75.153c1.482 0 2.684 1.215 2.684 2.715V62h4.46c.707 0 1.28-.58 1.28-1.296V6.431C98 3.431 95.597 1 92.633 1H11.366C8.403 1 6 3.431 6 6.431z"/>
        <path fill="#3762CC" d="M95.882 62h-4.426c-.468 0-.847-.382-.847-.854V9.672c0-1.009-.815-1.83-1.816-1.83H14.207c-1.001 0-1.816.82-1.816 1.83v51.474c0 .472-.38.854-.847.854H7.118C5.95 62 5 61.043 5 59.866V6.222C5 2.792 7.77 0 11.173 0h80.654C95.231 0 98 2.791 98 6.222v53.644C98 61.043 97.05 62 95.882 62zm-3.579-1.707h3.58c.233 0 .423-.192.423-.427V6.222c0-2.49-2.01-4.515-4.479-4.515H11.173c-2.47 0-4.479 2.025-4.479 4.515v53.644c0 .235.19.427.424.427h3.579V9.673c0-1.951 1.575-3.538 3.51-3.538h74.587c1.935 0 3.51 1.587 3.51 3.537v50.62h-.001z"/>
        <ellipse cx="51.5" cy="60" fill="#FFF" rx="19.5" ry="19"/>
        <path fill="#F35229" d="M32 60l6-3.699L35.587 50C33.322 52.852 32 56.287 32 59.983V60zM45 42.124L51 47l6-4.876C55.12 41.397 53.101 41 51 41s-4.12.397-6 1.124zM42.186 71.267L35 71c2.303 3.152 5.413 5.603 9 7l-1.814-6.733zM58 78c3.587-1.397 6.697-3.848 9-7l-7.186.267L58 78zM64 56.298L70 60c.01-3.706-1.316-7.149-3.59-10L64 56.298zM52 52L44 57.73 47.056 67 56.944 67 60 57.73z"/>
        <path fill="#183165" d="M56.223 68h-9.447c-.37 0-.7-.25-.815-.62l-2.919-9.398c-.115-.37.011-.774.312-1.002l7.642-5.809c.3-.228.707-.228 1.008 0l7.643 5.809c.3.228.426.633.311 1.002l-2.92 9.398c-.115.37-.444.62-.815.62zm-8.824-1.793H55.6l2.535-8.16-6.635-5.042-6.635 5.043 2.534 8.159z"/>
        <path fill="#183165" d="M51 80c-11.028 0-20-8.972-20-20s8.972-20 20-20 20 8.972 20 20-8.972 20-20 20zm0-38.298c-10.09 0-18.298 8.209-18.298 18.298 0 10.09 8.209 18.298 18.298 18.298 10.09 0 18.298-8.209 18.298-18.298 0-10.09-8.209-18.298-18.298-18.298z"/>
        <path fill="#183165" d="M70.16 61c-.172 0-.345-.052-.494-.16l-5.32-3.845c-.294-.212-.417-.59-.305-.934l2.117-6.483c.144-.44.619-.68 1.06-.537.44.143.683.614.54 1.054L65.827 56l4.826 3.488c.375.271.458.794.185 1.168-.164.225-.42.344-.68.344z"/>
        <path fill="#183165" d="M58.876 59c-.37 0-.713-.187-.833-.48-.15-.365.102-.757.562-.876l6.248-1.61c.461-.118.954.08 1.104.446.15.365-.103.757-.562.876l-6.248 1.61c-.09.023-.181.034-.271.034zM57.847 79c-.077 0-.156-.01-.234-.034-.45-.132-.709-.614-.58-1.075l1.682-6.024c.102-.362.418-.616.785-.63L66.124 71c.466-.006.859.359.875.838.017.48-.349.883-.816.9l-6.01.215-1.512 5.417c-.107.381-.446.63-.814.63z"/>
        <path fill="#183165" d="M60.04 73c-.3 0-.594-.128-.782-.369l-4.077-5.23c-.31-.397-.211-.95.22-1.235.43-.285 1.03-.194 1.34.203l4.078 5.23c.31.397.211.95-.22 1.235-.17.112-.365.166-.56.166zM43.09 73h-.033l-.3-.01-6.878-.232c-.503-.017-.896-.424-.878-.91.017-.484.435-.871.942-.847l6.893.232.285.01c.503.017.896.424.878.908-.017.475-.422.849-.91.849z"/>
        <path fill="#183165" d="M44.813 79c-.418 0-.802-.235-.923-.594l-1.853-5.513c-.08-.241-.028-.5.143-.704l4.078-4.847c.31-.368.91-.452 1.341-.188.431.264.53.777.22 1.144l-3.805 4.525 1.724 5.13c.147.436-.148.89-.659 1.015-.089.021-.178.032-.266.032zM31.852 61c-.263 0-.523-.12-.69-.347-.276-.377-.191-.903.189-1.177l4.798-3.45-1.944-5.923c-.146-.443.1-.918.546-1.062.447-.142.927.098 1.072.54l2.135 6.505c.114.347-.01.728-.309.942l-5.298 3.81c-.15.11-.326.162-.5.162z"/>
        <path fill="#183165" d="M43.129 59c-.09 0-.18-.01-.268-.034l-6.257-1.61c-.458-.118-.71-.51-.562-.874.148-.366.64-.566 1.097-.448l6.257 1.61c.458.118.71.51.562.875-.12.294-.462.481-.83.481zM50.007 48c-.176 0-.351-.061-.5-.184l-6.157-5.072c-.38-.313-.463-.916-.188-1.347.277-.43.809-.525 1.188-.213l5.657 4.66 5.643-4.649c.38-.312.912-.217 1.188.213.276.431.191 1.034-.188 1.347l-6.144 5.06c-.149.124-.324.185-.5.185z"/>
        <path fill="#183165" d="M51 53c-.552 0-1-.393-1-.877v-6.246c0-.484.448-.877 1-.877s1 .393 1 .877v6.246c0 .485-.448.877-1 .877z"/>
    </g>
</svg>
