<?xml version="1.0" encoding="UTF-8"?>
<svg width="71px" height="55px" viewBox="0 0 71 55" version="1.1" xmlns="http://www.w3.org/2000/svg" xmlns:xlink="http://www.w3.org/1999/xlink">
    <!-- Generator: Sketch 56.3 (81716) - https://sketch.com -->
    <title>goal-post</title>
    <desc>Created with Sketch.</desc>
    <g id="Page-1" stroke="none" stroke-width="1" fill="none" fill-rule="evenodd">
        <g id="Hey-Digital_Home_Get-My-Free-Proposal_03" transform="translate(-831.000000, -150.000000)" fill-rule="nonzero">
            <g id="Group-3" transform="translate(270.000000, 56.000000)">
                <g id="Group-5" transform="translate(269.000000, 81.000000)">
                    <g id="goal-post" transform="translate(292.806630, 13.000000)">
                        <polygon id="Path" fill="#E1E8FA" points="0 42.625 70.1933702 42.625 70.1933702 44 0 44"></polygon>
                        <path d="M55.8461986,39.1875 L14.3471716,39.1875 C14.0249329,39.1875 13.7634059,38.9242521 13.7634059,38.5998932 L13.7634059,12.2751068 C13.7634059,11.9507479 14.0249329,11.6875 14.3471716,11.6875 L55.8461986,11.6875 C56.1684372,11.6875 56.4299643,11.9507479 56.4299643,12.2751068 L56.4299643,38.600187 C56.4299643,38.9245459 56.1687291,39.1875 55.8461986,39.1875 Z M14.9309373,38.0122863 L55.2624329,38.0122863 L55.2624329,12.8627137 L14.9309373,12.8627137 L14.9309373,38.0122863 Z" id="Shape" fill="#183165"></path>
                        <path d="M62.7561006,42.625 C62.6766545,42.625 62.5969307,42.6064359 62.5224848,42.5693077 L56.0637448,39.3418485 C55.867352,39.2436384 55.741794,39.0316484 55.741794,38.7986988 L55.741794,11.9705756 C55.741794,11.8253564 55.7909616,11.684928 55.8798523,11.5756393 L62.3385922,3.64128177 C62.4910953,3.45414364 62.7358224,3.38797159 62.9519378,3.47600137 C63.168331,3.56373173 63.3116672,3.78709981 63.3116672,4.03651752 L63.3116672,42.026158 C63.3116672,42.2306625 63.2149986,42.4207949 63.0552732,42.5309818 C62.9644381,42.5932614 62.8605471,42.625 62.7561006,42.625 Z M56.8529272,38.4163382 L62.2005339,41.0883713 L62.2005339,5.62674254 L56.8529272,12.1960397 L56.8529272,38.4163382 Z" id="Shape" fill="#183165"></path>
                        <path d="M55.9158127,13.0625 L14.2765907,13.0625 C14.1078982,13.0625 13.9474061,12.9898255 13.8364087,12.8629381 L7.02720676,5.09760771 C6.87550066,4.9247127 6.83889205,4.67885013 6.93407444,4.46932481 C7.02896397,4.2597995 7.2377795,4.125 7.46768159,4.125 L62.7258933,4.125 C62.9557954,4.125 63.1646109,4.25950646 63.2595004,4.46932481 C63.35439,4.67885013 63.3177813,4.9247127 63.1663681,5.09760771 L56.3562875,12.8629381 C56.2449973,12.9898255 56.0845052,13.0625 55.9158127,13.0625 Z M14.5419299,11.8903304 L55.6507663,11.8903304 L61.4322914,5.29716958 L8.76040492,5.29716958 L14.5419299,11.8903304 Z" id="Shape" fill="#183165"></path>
                        <path d="M7.43728999,42.625 C7.33311742,42.625 7.22894485,42.5932614 7.13810637,42.5309819 C6.9783751,42.4210944 6.88170296,42.2306628 6.88170296,42.0261584 L6.88170296,4.03624606 C6.88170296,3.78682853 7.02504441,3.56376003 7.24144556,3.47573032 C7.4581245,3.38829944 7.70258279,3.4538726 7.85481364,3.64131002 L14.3135128,11.5756618 C14.4024068,11.6849504 14.4515762,11.8250793 14.4515762,11.9705979 L14.4515762,38.799001 C14.4515762,39.0322498 14.3260135,39.2442397 14.1296135,39.3421503 L7.67091433,42.5696072 C7.59646567,42.6064359 7.51673893,42.625 7.43728999,42.625 L7.43728999,42.625 Z M7.99287701,5.62676935 L7.99287701,41.0883725 L13.3404022,38.4163412 L13.3404022,12.1960617 L7.99287701,5.62676935 Z" id="Shape" fill="#183165"></path>
                        <path d="M50.2972478,13.0625 L20.584,13.0625 C20.3823608,13.0625 20.1950617,12.958763 20.08795,12.7876262 L15.2290014,5.02229581 C15.1160367,4.84148866 15.1098909,4.61379471 15.2129054,4.42712671 C15.3162126,4.24075175 15.5119987,4.125 15.7250514,4.125 L55.156489,4.125 C55.3695418,4.125 55.5653279,4.24075175 55.668635,4.42712671 C55.7716495,4.61379471 55.7655038,4.84148866 55.652539,5.02229581 L50.7932978,12.7876262 C50.6861861,12.9584699 50.498887,13.0625 50.2972478,13.0625 Z M20.907969,11.8903304 L49.9732788,11.8903304 L54.0988344,5.29716958 L16.7824134,5.29716958 L20.907969,11.8903304 Z" id="Shape" fill="#183165"></path>
                        <path d="M44.0872111,13.0625 L26.7936027,13.0625 C26.5571278,13.0625 26.3453508,12.9109921 26.262173,12.6827046 L23.4341266,4.91711957 C23.3685496,4.73718564 23.3926797,4.5352728 23.498852,4.37731777 C23.6050244,4.21906969 23.7793288,4.125 23.9658402,4.125 L46.9158252,4.125 C47.1020527,4.125 47.276641,4.21936275 47.3828134,4.37731777 C47.4889858,4.53556586 47.512832,4.73718564 47.4475388,4.91711957 L44.6194925,12.6827046 C44.535463,12.9109921 44.323686,13.0625 44.0872111,13.0625 L44.0872111,13.0625 Z M27.1867812,11.890292 L43.6940326,11.890292 L46.0951183,5.29691496 L24.7854116,5.29691496 L27.1867812,11.890292 Z" id="Shape" fill="#183165"></path>
                        <path d="M38.3755902,13.0625 L32.5056612,13.0625 C32.214275,13.0625 31.9682734,12.8427182 31.9321392,12.5493828 L30.9721257,4.78405235 C30.9516015,4.61731122 31.0024784,4.44939793 31.1123264,4.3233897 C31.2218853,4.19738147 31.3800086,4.125 31.5459368,4.125 L39.3356036,4.125 C39.5015319,4.125 39.6593661,4.19738147 39.7692141,4.3233897 C39.8790621,4.44939793 39.929939,4.61701818 39.9094148,4.78405235 L38.9494013,12.5493828 C38.912978,12.8424252 38.6669764,13.0625 38.3755902,13.0625 Z M33.0158762,11.8903304 L37.8650861,11.8903304 L38.6802738,5.29716958 L32.2006886,5.29716958 L33.0158762,11.8903304 Z" id="Shape" fill="#183165"></path>
                        <path d="M19.9569386,39.1875 C19.5770686,39.1875 19.2687683,38.9242521 19.2687683,38.5998932 L19.2687683,12.2751068 C19.2687683,11.9507479 19.5770686,11.6875 19.9569386,11.6875 C20.3368086,11.6875 20.6451089,11.9507479 20.6451089,12.2751068 L20.6451089,38.600187 C20.6451089,38.9245459 20.3371527,39.1875 19.9569386,39.1875 Z" id="Path" fill="#183165"></path>
                        <path d="M26.1504712,39.1875 C25.7706012,39.1875 25.4623009,38.9242521 25.4623009,38.5998932 L25.4623009,12.2751068 C25.4623009,11.9507479 25.7706012,11.6875 26.1504712,11.6875 C26.5303412,11.6875 26.8386415,11.9507479 26.8386415,12.2751068 L26.8386415,38.600187 C26.8386415,38.9245459 26.5306853,39.1875 26.1504712,39.1875 Z" id="Path" fill="#183165"></path>
                        <path d="M32.3440039,39.1875 C31.9641339,39.1875 31.6558336,38.9242521 31.6558336,38.5998932 L31.6558336,12.2751068 C31.6558336,11.9507479 31.9641339,11.6875 32.3440039,11.6875 C32.7238739,11.6875 33.0321742,11.9507479 33.0321742,12.2751068 L33.0321742,38.600187 C33.0321742,38.9245459 32.724218,39.1875 32.3440039,39.1875 Z" id="Path" fill="#183165"></path>
                        <path d="M37.8493663,39.1875 C37.4694963,39.1875 37.161196,38.9242521 37.161196,38.5998932 L37.161196,12.2751068 C37.161196,11.9507479 37.4694963,11.6875 37.8493663,11.6875 C38.2292363,11.6875 38.5375366,11.9507479 38.5375366,12.2751068 L38.5375366,38.600187 C38.5375366,38.9245459 38.2295804,39.1875 37.8493663,39.1875 Z" id="Path" fill="#183165"></path>
                        <path d="M44.0428989,39.1875 C43.6630289,39.1875 43.3547286,38.9242521 43.3547286,38.5998932 L43.3547286,12.2751068 C43.3547286,11.9507479 43.6630289,11.6875 44.0428989,11.6875 C44.4227689,11.6875 44.7310692,11.9507479 44.7310692,12.2751068 L44.7310692,38.600187 C44.7310692,38.9245459 44.423113,39.1875 44.0428989,39.1875 Z" id="Path" fill="#183165"></path>
                        <path d="M50.2364316,39.1875 C49.8565616,39.1875 49.5482613,38.9242521 49.5482613,38.5998932 L49.5482613,12.2751068 C49.5482613,11.9507479 49.8565616,11.6875 50.2364316,11.6875 C50.6163016,11.6875 50.9246019,11.9507479 50.9246019,12.2751068 L50.9246019,38.600187 C50.9246019,38.9245459 50.6166457,39.1875 50.2364316,39.1875 Z" id="Path" fill="#183165"></path>
                        <path d="M50.2364316,39.1875 C49.8565616,39.1875 49.5482613,38.9242521 49.5482613,38.5998932 L49.5482613,12.2751068 C49.5482613,11.9507479 49.8565616,11.6875 50.2364316,11.6875 C50.6163016,11.6875 50.9246019,11.9507479 50.9246019,12.2751068 L50.9246019,38.600187 C50.9246019,38.9245459 50.6166457,39.1875 50.2364316,39.1875 Z" id="Path" fill="#183165"></path>
                        <path d="M55.741794,39.1875 C55.361924,39.1875 55.0536237,38.9242521 55.0536237,38.5998932 L55.0536237,12.2751068 C55.0536237,11.9507479 55.361924,11.6875 55.741794,11.6875 C56.121664,11.6875 56.4299643,11.9507479 56.4299643,12.2751068 L56.4299643,38.600187 C56.4299643,38.9245459 56.122008,39.1875 55.741794,39.1875 Z" id="Path" fill="#183165"></path>
                        <path d="M55.8461986,19.25 L14.3471716,19.25 C14.0249329,19.25 13.7634059,18.942 13.7634059,18.5625 C13.7634059,18.183 14.0249329,17.875 14.3471716,17.875 L55.8461986,17.875 C56.1684372,17.875 56.4299643,18.183 56.4299643,18.5625 C56.4299643,18.942 56.1684372,19.25 55.8461986,19.25 Z" id="Path" fill="#183165"></path>
                        <path d="M55.8461986,19.25 L14.3471716,19.25 C14.0249329,19.25 13.7634059,18.942 13.7634059,18.5625 C13.7634059,18.183 14.0249329,17.875 14.3471716,17.875 L55.8461986,17.875 C56.1684372,17.875 56.4299643,18.183 56.4299643,18.5625 C56.4299643,18.942 56.1684372,19.25 55.8461986,19.25 Z" id="Path" fill="#183165"></path>
                        <path d="M55.8461986,26.125 L14.3471716,26.125 C14.0249329,26.125 13.7634059,25.817 13.7634059,25.4375 C13.7634059,25.058 14.0249329,24.75 14.3471716,24.75 L55.8461986,24.75 C56.1684372,24.75 56.4299643,25.058 56.4299643,25.4375 C56.4299643,25.817 56.1684372,26.125 55.8461986,26.125 Z" id="Path" fill="#183165"></path>
                        <path d="M55.8461986,30.9375 L14.3471716,30.9375 C14.0249329,30.9375 13.7634059,30.6295 13.7634059,30.25 C13.7634059,29.8705 14.0249329,29.5625 14.3471716,29.5625 L55.8461986,29.5625 C56.1684372,29.5625 56.4299643,29.8705 56.4299643,30.25 C56.4299643,30.6295 56.1684372,30.9375 55.8461986,30.9375 Z" id="Path" fill="#183165"></path>
                        <path d="M55.8461986,37.125 L14.3471716,37.125 C14.0249329,37.125 13.7634059,36.817 13.7634059,36.4375 C13.7634059,36.058 14.0249329,35.75 14.3471716,35.75 L55.8461986,35.75 C56.1684372,35.75 56.4299643,36.058 56.4299643,36.4375 C56.4299643,36.817 56.1684372,37.125 55.8461986,37.125 Z" id="Path" fill="#183165"></path>
                        <path d="M7.43728999,32.3125 C7.31061614,32.3125 7.18672024,32.2668163 7.08671457,32.1813058 C6.956985,32.070025 6.88170296,31.9031038 6.88170296,31.7268116 L6.88170296,15.0232701 C6.88170296,14.8191577 6.98226421,14.6299803 7.14755135,14.523385 C7.3125607,14.4170825 7.51840569,14.4088829 7.69063767,14.5020074 L14.1493369,17.9906606 C14.3349029,18.0908133 14.4515762,18.2919973 14.4515762,18.5119233 L14.4515762,30.3079813 C14.4515762,30.5853048 14.2668435,30.8248514 14.0093289,30.8813703 L7.55062974,32.3004934 C7.51284982,32.308693 7.47479211,32.3125 7.43728999,32.3125 Z M7.99287701,15.9814564 L7.99287701,31.0064148 L13.3404022,29.8315238 L13.3404022,18.8697789 L7.99287701,15.9814564 Z" id="Shape" fill="#183165"></path>
                        <path d="M7.43747876,39.875 C7.21524738,39.875 7.00551651,39.7226929 6.91995743,39.4735777 C6.80828616,39.1490974 6.94940309,38.7836234 7.2352482,38.6568584 L13.6938476,35.7932955 C13.979415,35.6668459 14.3016505,35.8267211 14.4133217,36.1512014 C14.524993,36.4756818 14.3838761,36.8411558 14.098031,36.9679207 L7.63943152,39.8314837 C7.5730399,39.8611252 7.50470375,39.875 7.43747876,39.875 Z" id="Path" fill="#183165"></path>
                        <path d="M13.8959892,26.125 L7.43728999,26.125 C7.13060595,26.125 6.88170296,25.817 6.88170296,25.4375 C6.88170296,25.058 7.13060595,24.75 7.43728999,24.75 L13.8959892,24.75 C14.2026732,24.75 14.4515762,25.058 14.4515762,25.4375 C14.4515762,25.817 14.2026732,26.125 13.8959892,26.125 Z" id="Path" fill="#183165"></path>
                        <path d="M62.7560802,32.3125 C62.7183003,32.3125 62.6805203,32.3084002 62.6427404,32.3002005 L56.1840412,30.8810775 C55.9265266,30.8245585 55.741794,30.5850119 55.741794,30.3076885 L55.741794,18.5119233 C55.741794,18.2922901 55.8584672,18.0908133 56.0440333,17.9906606 L62.5027325,14.5020074 C62.6752423,14.4088829 62.8808095,14.4170825 63.0458188,14.523385 C63.211106,14.6296874 63.3116672,14.8191577 63.3116672,15.0232701 L63.3116672,31.7268116 C63.3116672,31.9031038 63.2363852,32.070025 63.1066556,32.1813058 C63.0066499,32.2668163 62.882754,32.3125 62.7560802,32.3125 Z M56.852968,29.8315238 L62.2004932,31.0064148 L62.2004932,15.9814564 L56.852968,18.8697789 L56.852968,29.8315238 Z" id="Shape" fill="#183165"></path>
                        <path d="M62.7558914,39.875 C62.6886664,39.875 62.6203303,39.8611261 62.5539386,39.8314864 L56.0953392,36.9681033 C55.8094941,36.8413464 55.6683772,36.47558 55.7800484,36.1514353 C55.8917197,35.8269753 56.2145108,35.6664796 56.4995225,35.7935518 L62.958122,38.6569349 C63.2439671,38.7836919 63.385084,39.1494583 63.2734127,39.4736029 C63.1878537,39.7227025 62.9781228,39.875 62.7558914,39.875 Z" id="Path" fill="#183165"></path>
                        <path d="M62.7560802,26.125 L56.297381,26.125 C55.9906969,26.125 55.741794,25.817 55.741794,25.4375 C55.741794,25.058 55.9906969,24.75 56.297381,24.75 L62.7560802,24.75 C63.0627642,24.75 63.3116672,25.058 63.3116672,25.4375 C63.3116672,25.817 63.063042,26.125 62.7560802,26.125 Z" id="Path" fill="#183165"></path>
                        <path d="M59.9738083,41.25 C59.6509517,41.25 59.3889231,40.9865622 59.3889231,40.6619691 L59.3889231,9.4260618 L12.1804952,9.4260618 L12.1804952,40.6619691 C12.1804952,40.9865622 11.9184666,41.25 11.59561,41.25 C11.2727533,41.25 11.0107247,40.9865622 11.0107247,40.6619691 L11.0107247,8.8380309 C11.0107247,8.51343784 11.2727533,8.25 11.59561,8.25 L59.9741008,8.25 C60.2969574,8.25 60.558986,8.51343784 60.558986,8.8380309 L60.558986,40.6619691 C60.558986,40.9868562 60.2969574,41.25 59.9738083,41.25 Z" id="Path" fill="#183165"></path>
                        <path d="M4.12902177,4.42134779 L4.12902177,41.734292 C4.12902177,42.2262597 4.52343301,42.625 5.01005954,42.625 L8.07900774,42.625 L8.07900774,6.82150885 C8.07900774,5.79036593 8.90571484,4.95458496 9.92566289,4.95458496 L61.6437542,4.95458496 C62.6637022,4.95458496 63.4904093,5.79036593 63.4904093,6.82150885 L63.4904093,42.625 L66.5596512,42.625 C67.0462777,42.625 67.440689,42.2262597 67.440689,41.734292 L67.440689,4.42134779 C67.440689,2.35935885 65.7872748,0.6875 63.7473787,0.6875 L7.82203839,0.6875 C5.78243597,0.6875 4.12902177,2.35906195 4.12902177,4.42134779 Z" id="Path" fill="#3761BA"></path>
                        <path d="M65.9833651,42.625 L62.9372666,42.625 C62.6154895,42.625 62.354337,42.3620602 62.354337,42.0380809 L62.354337,6.64979346 C62.354337,5.95605508 61.7938502,5.3914389 61.104536,5.3914389 L9.77671298,5.3914389 C9.08769022,5.3914389 8.52691198,5.95576162 8.52691198,6.64979346 L8.52691198,42.0380809 C8.52691198,42.3620602 8.26575953,42.625 7.94398241,42.625 L4.8981754,42.625 C4.09460699,42.625 3.44085148,41.9667702 3.44085148,41.1577022 L3.44085148,4.27746644 C3.44085148,1.91893201 5.34673971,0 7.68895072,0 L63.1925897,0 C65.5350922,0 67.440689,1.91893201 67.440689,4.27746644 L67.440689,41.1577022 C67.440689,41.9667702 66.7869335,42.625 65.9833651,42.625 L65.9833651,42.625 Z M63.5201962,41.4511618 L65.9833651,41.4511618 C66.1439622,41.4511618 66.2748298,41.3193985 66.2748298,41.1577022 L66.2748298,4.27746644 C66.2748298,2.56601033 64.8921209,1.17383821 63.1925897,1.17383821 L7.68895072,1.17383821 C5.98941956,1.17383821 4.60671062,2.56601033 4.60671062,4.27746644 L4.60671062,41.1577022 C4.60671062,41.3193985 4.73757831,41.4511618 4.8981754,41.4511618 L7.3613443,41.4511618 L7.3613443,6.64979346 C7.3613443,5.3086833 8.44501037,4.21760069 9.77700444,4.21760069 L61.1051189,4.21760069 C62.437113,4.21760069 63.5207791,5.3086833 63.5207791,6.64979346 L63.5207791,41.4511618 L63.5201962,41.4511618 Z" id="Shape" fill="#3762CC"></path>
                        <ellipse id="Oval" fill="#FFFFFF" cx="35.4407702" cy="41.25" rx="13.4193208" ry="13.0625"></ellipse>
                        <path d="M22.0217718,41.25 L26.1504712,38.7071244 L24.4900301,34.375 C22.9314525,36.3355773 22.0214495,38.6970141 22.0214495,41.2385234 C22.0214495,41.242349 22.0217718,41.2461745 22.0217718,41.25 Z" id="Path" fill="#F35229"></path>
                        <path d="M30.9676633,28.9604871 L35.0966851,32.3125 L39.2257069,28.9604871 C37.9319,28.4600978 36.542754,28.1875 35.0966851,28.1875 C33.6506161,28.1875 32.2614702,28.4600978 30.9676633,28.9604871 Z" id="Path" fill="#F35229"></path>
                        <path d="M29.0312295,48.9960706 L24.0859604,48.8125 C25.6705675,50.9796165 27.810712,52.6648602 30.279493,53.625 L29.0312295,48.9960706 Z" id="Path" fill="#F35229"></path>
                        <path d="M39.9138772,53.625 C42.3825956,52.6647948 44.5226449,50.9797641 46.1074098,48.8125 L41.1622649,48.9960831 L39.9138772,53.625 Z" id="Path" fill="#F35229"></path>
                        <path d="M44.0428989,38.7049409 L48.1715637,41.25 C48.1719207,41.25 48.1719207,41.25 48.1719207,41.2497284 C48.1786064,38.7019535 47.2665675,36.3353283 45.7011515,34.375 L44.0428989,38.7049409 Z" id="Path" fill="#F35229"></path>
                        <polygon id="Path" fill="#F35229" points="35.7848554 35.75 30.279493 39.6890533 32.382287 46.0625 39.1874237 46.0625 41.2902177 39.6890533"></polygon>
                        <path d="M38.6908771,46.75 L32.1901974,46.75 C31.9347946,46.75 31.7082942,46.5780105 31.629255,46.3240333 L29.6202436,39.8627163 C29.5412044,39.6087391 29.6279116,39.3304121 29.8346522,39.1735256 L35.0940034,35.1801648 C35.300744,35.0232784 35.5806254,35.0232784 35.7876609,35.1801648 L41.0470122,39.1735256 C41.2537528,39.3304121 41.340165,39.6087391 41.2614208,39.8627163 L39.2524093,46.3240333 C39.1727803,46.5780105 38.9462799,46.75 38.6908771,46.75 Z M32.6187197,45.5171007 L38.2623548,45.5171007 L40.0065259,39.9077172 L35.4405372,36.4408044 L30.8748435,39.9077172 L32.6187197,45.5171007 Z" id="Shape" fill="#183165"></path>
                        <path d="M35.0966851,55 C27.5074845,55 21.3332792,48.8318085 21.3332792,41.25 C21.3332792,33.6681915 27.5074845,27.5 35.0966851,27.5 C42.6858857,27.5 48.860091,33.6681915 48.860091,41.25 C48.860091,48.8318085 42.6858857,55 35.0966851,55 Z M35.0966851,28.6702128 C28.1534861,28.6702128 22.5046329,34.3135638 22.5046329,41.25 C22.5046329,48.1864362 28.1534861,53.8297872 35.0966851,53.8297872 C42.0398841,53.8297872 47.6887373,48.1864362 47.6887373,41.25 C47.6887373,34.3135638 42.0398841,28.6702128 35.0966851,28.6702128 Z" id="Shape" fill="#183165"></path>
                        <path d="M48.2813914,41.9375 C48.1634117,41.9375 48.0445644,41.9018596 47.9419105,41.8277045 L44.2813576,39.1842765 C44.0786522,39.0379783 43.9939265,38.7784355 44.0711339,38.541599 L45.5282415,34.0848203 C45.6271363,33.7827389 45.9538939,33.6177582 46.2572291,33.7157694 C46.5608535,33.8137806 46.7271239,34.1379935 46.6285183,34.440075 L45.3012462,38.4999227 L48.6217398,40.8978916 C48.8802543,41.084429 48.93722,41.443995 48.7495512,41.7006636 C48.6364873,41.8555845 48.460096,41.9375 48.2813914,41.9375 L48.2813914,41.9375 Z" id="Path" fill="#183165"></path>
                        <path d="M40.5165933,40.5625 C40.2625818,40.5625 40.0263481,40.4342594 39.9434855,40.2324655 C39.8407358,39.9814768 40.013994,39.7120998 40.3303785,39.630427 L44.6298928,38.5233068 C44.9471812,38.4423504 45.2864659,38.5789494 45.3895168,38.829938 C45.4925678,39.0809267 45.3190083,39.3503037 45.0026238,39.4319765 L40.7031095,40.5390967 C40.6410379,40.5548581 40.5783636,40.5625 40.5165933,40.5625 Z" id="Path" fill="#183165"></path>
                        <path d="M39.8085558,54.3125 C39.7552577,54.3125 39.701377,54.3050305 39.6477876,54.2891952 C39.3384836,54.1983661 39.1596581,53.8673179 39.2484883,53.5500136 L40.4061942,49.4083263 C40.4758021,49.1594426 40.6936547,48.9849551 40.9458744,48.9756929 L45.5044684,48.8125591 C45.8251311,48.8080774 46.0956993,49.0590525 46.1070579,49.3889056 C46.1181253,49.7187586 45.8667793,49.9954288 45.5452429,50.0070812 L41.4095392,50.1552761 L40.3686233,53.8795679 C40.2949379,54.1415979 40.0619405,54.3125 39.8085558,54.3125 L39.8085558,54.3125 Z" id="Path" fill="#183165"></path>
                        <path d="M41.317472,50.1875 C41.1118098,50.1875 40.9091235,50.0992738 40.7798406,49.9340777 L37.9736428,46.3384022 C37.7603757,46.0655093 37.8284889,45.6852238 38.125079,45.4893007 C38.4210077,45.2933776 38.8346466,45.3554402 39.0479137,45.6286373 L41.8541115,49.2243129 C42.0673786,49.4972057 41.9992654,49.8774913 41.7026753,50.0734143 C41.5859571,50.1503841 41.4513839,50.1875 41.317472,50.1875 Z" id="Path" fill="#183165"></path>
                        <path d="M29.6530831,50.1875 C29.6455634,50.1875 29.6380438,50.1875 29.6308374,50.1871979 L29.42436,50.1802497 C29.4112006,50.1799476 29.1925037,50.1723952 24.6907319,50.021045 C24.3448274,50.0092632 24.0744328,49.7295221 24.0863389,49.3960078 C24.0985584,49.0624936 24.3861855,48.7963468 24.7345966,48.8132642 C29.4713579,48.9724689 29.4729245,48.972771 29.4785642,48.972771 L29.6747021,48.9794171 C30.0206067,48.9911989 30.2913145,49.27094 30.2790951,49.6041521 C30.2668756,49.9307182 29.9886481,50.1875 29.6530831,50.1875 L29.6530831,50.1875 Z" id="Path" fill="#183165"></path>
                        <path d="M30.8392721,54.3125 C30.5515193,54.3125 30.286919,54.1512459 30.2039007,53.9040083 L28.9288581,50.113972 C28.8729613,49.9482073 28.9093438,49.7697565 29.0270909,49.6299277 L31.8331769,46.2977179 C32.0461802,46.0445602 32.4596181,45.986768 32.7563012,46.1683199 C33.0529842,46.3498718 33.1211188,46.7022628 32.9081156,46.9551387 L30.2889035,50.065765 L31.4756358,53.5933403 C31.5765147,53.8927318 31.3734339,54.2048093 31.0221771,54.2907927 C30.9609883,54.3051703 30.8997994,54.3125 30.8392721,54.3125 L30.8392721,54.3125 Z" id="Path" fill="#183165"></path>
                        <path d="M21.9193576,41.9375 C21.738439,41.9375 21.5598623,41.8546908 21.4451049,41.6989169 C21.255111,41.4400658 21.3130753,41.077848 21.5744998,40.8899349 L24.8764111,38.5174228 L23.53855,34.4455853 C23.4387228,34.141276 23.6070532,33.814672 23.9144392,33.7156484 C24.222118,33.617783 24.5523384,33.7831118 24.6524584,34.0874211 L26.1217636,38.5594065 C26.2002202,38.7979896 26.1141521,39.0594466 25.9089353,39.2068238 L22.2630444,41.8266052 C22.1591187,41.9015967 22.038799,41.9375 21.9193576,41.9375 L21.9193576,41.9375 Z" id="Path" fill="#183165"></path>
                        <path d="M29.6797565,40.5625 C29.6185865,40.5625 29.5565169,40.5550965 29.4953469,40.5393342 L25.1897574,39.4323894 C24.8746119,39.3514284 24.7015967,39.082036 24.8032468,38.831033 C24.904897,38.58003 25.2434311,38.4422291 25.5582767,38.5231901 L29.8638663,39.6301349 C30.1790118,39.7110959 30.352027,39.9804883 30.2503768,40.2314913 C30.1682171,40.4337744 29.9328325,40.5625 29.6797565,40.5625 Z" id="Path" fill="#183165"></path>
                        <path d="M34.4130907,33 C34.2922779,33 34.1717576,32.9579154 34.0690813,32.8734149 L29.8324425,29.3863597 C29.5709252,29.1712976 29.5132978,28.7567479 29.7031465,28.460499 C29.8932877,28.1642501 30.2592364,28.0993007 30.5204612,28.3140314 L34.4130907,31.5180927 L38.2966519,28.3216531 C38.5581692,28.1069223 38.9241179,28.1722031 39.1139666,28.4681206 C39.3038153,28.7643696 39.2458953,29.1789192 38.9846706,29.3939813 L34.7568075,32.8734149 C34.6544238,32.9579154 34.5339035,33 34.4130907,33 L34.4130907,33 Z" id="Path" fill="#183165"></path>
                        <path d="M35.0966851,36.4375 C34.7168151,36.4375 34.4085148,36.1674726 34.4085148,35.8347603 L34.4085148,31.5402397 C34.4085148,31.2075274 34.7168151,30.9375 35.0966851,30.9375 C35.4765551,30.9375 35.7848554,31.2075274 35.7848554,31.5402397 L35.7848554,35.8347603 C35.7848554,36.167774 35.4765551,36.4375 35.0966851,36.4375 Z" id="Path" fill="#183165"></path>
                    </g>
                </g>
            </g>
        </g>
    </g>
</svg>