<?xml version="1.0" encoding="UTF-8"?>
<svg width="55px" height="44px" viewBox="0 0 55 44" version="1.1" xmlns="http://www.w3.org/2000/svg" xmlns:xlink="http://www.w3.org/1999/xlink">
    <!-- Generator: Sketch 56.3 (81716) - https://sketch.com -->
    <title>goal-post</title>
    <desc>Created with Sketch.</desc>
    <g id="Page-1" stroke="none" stroke-width="1" fill="none" fill-rule="evenodd" opacity="0.3">
        <g id="Hey-Digital_Home_Get-My-Free-Proposal" transform="translate(-847.000000, -142.000000)" fill-rule="nonzero">
            <g id="Group-3" transform="translate(340.000000, 56.000000)">
                <g id="Group-5" transform="translate(199.000000, 68.500000)">
                    <g id="goal-post" transform="translate(308.000000, 17.500000)">
                        <polygon id="Path" fill="#E1E8FA" points="0 33.3492063 55 33.3492063 55 34.5132275 0 34.5132275"></polygon>
                        <path d="M43.791,31.305418 L11.2087708,31.305418 C10.9557708,31.305418 10.7504375,31.0968254 10.7504375,30.8398095 L10.7504375,9.98055026 C10.7504375,9.72353439 10.9557708,9.5149418 11.2087708,9.5149418 L43.791,9.5149418 C44.044,9.5149418 44.2493333,9.72353439 44.2493333,9.98055026 L44.2493333,30.8400423 C44.2493333,31.0970582 44.0442292,31.305418 43.791,31.305418 Z M11.6671042,30.3742011 L43.3326667,30.3742011 L43.3326667,10.4461587 L11.6671042,10.4461587 L11.6671042,30.3742011 Z" id="Shape" fill="#183165"></path>
                        <path d="M49.1193542,33.8148148 C49.0538125,33.8148148 48.9880417,33.800381 48.926625,33.7715132 L43.5982708,31.2621164 C43.43625,31.1857566 43.3326667,31.0209312 43.3326667,30.8398095 L43.3326667,9.98055026 C43.3326667,9.86764021 43.3732292,9.75845503 43.4465625,9.67348148 L48.7749167,3.50440212 C48.9007292,3.35889947 49.102625,3.30744974 49.2809167,3.37589418 C49.4594375,3.44410582 49.5776875,3.61777778 49.5776875,3.8117037 L49.5776875,33.3492063 C49.5776875,33.5082116 49.4979375,33.6560423 49.3661667,33.7417143 C49.2912292,33.7901376 49.2055208,33.8148148 49.1193542,33.8148148 Z M44.2493333,30.5425185 L48.6610208,32.6200635 L48.6610208,5.04812698 L44.2493333,10.1558519 L44.2493333,30.5425185 Z" id="Shape" fill="#183165"></path>
                        <path d="M43.791,10.4461587 L11.2087708,10.4461587 C11.0767708,10.4461587 10.9511875,10.3884233 10.8643333,10.287619 L5.53620833,4.11853968 C5.4175,3.98118519 5.38885417,3.78586243 5.46333333,3.61940741 C5.53758333,3.45295238 5.70097917,3.34586243 5.880875,3.34586243 L49.1198125,3.34586243 C49.2997083,3.34586243 49.4631042,3.45271958 49.5373542,3.61940741 C49.6116042,3.78586243 49.5829583,3.98118519 49.4644792,4.11853968 L44.1356667,10.287619 C44.0485833,10.3884233 43.923,10.4461587 43.791,10.4461587 Z M11.4163958,9.5149418 L43.5836042,9.5149418 L48.1075833,4.27707937 L6.89241667,4.27707937 L11.4163958,9.5149418 Z" id="Shape" fill="#183165"></path>
                        <path d="M5.88064583,33.8148148 C5.79470833,33.8148148 5.70877083,33.7901376 5.63383333,33.7417143 C5.5020625,33.6562751 5.4223125,33.5082116 5.4223125,33.3492063 L5.4223125,3.8114709 C5.4223125,3.61754497 5.5405625,3.44410582 5.71908333,3.37566138 C5.89783333,3.30768254 6.0995,3.35866667 6.22508333,3.50440212 L11.5532083,9.67348148 C11.6265417,9.75845503 11.6671042,9.86740741 11.6671042,9.98055026 L11.6671042,30.8400423 C11.6671042,31.0213968 11.5635208,31.1862222 11.4015,31.2623492 L6.073375,33.771746 C6.01195833,33.800381 5.9461875,33.8148148 5.88064583,33.8148148 L5.88064583,33.8148148 Z M6.33897917,5.04812698 L6.33897917,32.6200635 L10.7504375,30.5425185 L10.7504375,10.1558519 L6.33897917,5.04812698 Z" id="Shape" fill="#183165"></path>
                        <path d="M39.1336458,10.4461587 L15.8663542,10.4461587 C15.7084583,10.4461587 15.5617917,10.363746 15.4779167,10.2277884 L11.6730625,4.05870899 C11.5846042,3.91506878 11.5797917,3.73417989 11.6604583,3.5858836 C11.7413542,3.43782011 11.8946667,3.34586243 12.0615,3.34586243 L42.9387292,3.34586243 C43.1055625,3.34586243 43.258875,3.43782011 43.3397708,3.5858836 C43.4204375,3.73417989 43.415625,3.91506878 43.3271667,4.05870899 L39.5220833,10.2277884 C39.4382083,10.3635132 39.2915417,10.4461587 39.1336458,10.4461587 Z M16.1200417,9.5149418 L38.8799583,9.5149418 L42.1105208,4.27707937 L12.8894792,4.27707937 L16.1200417,9.5149418 Z" id="Shape" fill="#183165"></path>
                        <path d="M34.4801875,10.4461587 L20.5198125,10.4461587 C20.3289167,10.4461587 20.1579583,10.3257989 20.0908125,10.1444444 L17.8078542,3.97536508 C17.7549167,3.83242328 17.7743958,3.67202116 17.8601042,3.54653968 C17.9458125,3.4208254 18.0865208,3.34609524 18.2370833,3.34609524 L36.7636042,3.34609524 C36.9139375,3.34609524 37.054875,3.4210582 37.1405833,3.54653968 C37.2262917,3.67225397 37.2455417,3.83242328 37.1928333,3.97536508 L34.909875,10.1444444 C34.8420417,10.3257989 34.6710833,10.4461587 34.4801875,10.4461587 L34.4801875,10.4461587 Z M20.8372083,9.5149418 L34.1627917,9.5149418 L36.1010833,4.27707937 L18.8986875,4.27707937 L20.8372083,9.5149418 Z" id="Shape" fill="#183165"></path>
                        <path d="M29.8267292,10.4461587 L25.1732708,10.4461587 C24.9422708,10.4461587 24.74725,10.2715556 24.7186042,10.0385185 L23.9575417,3.86943915 C23.9412708,3.73697354 23.9816042,3.60357672 24.0686875,3.5034709 C24.1555417,3.40336508 24.2808958,3.34586243 24.4124375,3.34586243 L30.5877917,3.34586243 C30.7193333,3.34586243 30.8444583,3.40336508 30.9315417,3.5034709 C31.018625,3.60357672 31.0589583,3.73674074 31.0426875,3.86943915 L30.281625,10.0385185 C30.25275,10.2713228 30.0577292,10.4461587 29.8267292,10.4461587 Z M25.57775,9.5149418 L29.4220208,9.5149418 L30.0682708,4.27707937 L24.9315,4.27707937 L25.57775,9.5149418 Z" id="Shape" fill="#183165"></path>
                        <path d="M15.8599375,31.305418 C15.6069375,31.305418 15.4016042,31.0968254 15.4016042,30.8398095 L15.4016042,9.98055026 C15.4016042,9.72353439 15.6069375,9.5149418 15.8599375,9.5149418 C16.1129375,9.5149418 16.3182708,9.72353439 16.3182708,9.98055026 L16.3182708,30.8400423 C16.3182708,31.0970582 16.1131667,31.305418 15.8599375,31.305418 Z" id="Path" fill="#183165"></path>
                        <path d="M20.510875,31.305418 C20.257875,31.305418 20.0525417,31.0968254 20.0525417,30.8398095 L20.0525417,9.98055026 C20.0525417,9.72353439 20.257875,9.5149418 20.510875,9.5149418 C20.763875,9.5149418 20.9692083,9.72353439 20.9692083,9.98055026 L20.9692083,30.8400423 C20.9692083,31.0970582 20.7641042,31.305418 20.510875,31.305418 Z" id="Path" fill="#183165"></path>
                        <path d="M25.1865625,31.305418 C24.9335625,31.305418 24.7282292,31.0968254 24.7282292,30.8398095 L24.7282292,9.98055026 C24.7282292,9.72353439 24.9335625,9.5149418 25.1865625,9.5149418 C25.4395625,9.5149418 25.6448958,9.72353439 25.6448958,9.98055026 L25.6448958,30.8400423 C25.6448958,31.0970582 25.4397917,31.305418 25.1865625,31.305418 Z" id="Path" fill="#183165"></path>
                        <path d="M29.8377292,31.305418 C29.5847292,31.305418 29.3793958,31.0968254 29.3793958,30.8398095 L29.3793958,9.98055026 C29.3793958,9.72353439 29.5847292,9.5149418 29.8377292,9.5149418 C30.0907292,9.5149418 30.2960625,9.72353439 30.2960625,9.98055026 L30.2960625,30.8400423 C30.2960625,31.0970582 30.0909583,31.305418 29.8377292,31.305418 Z" id="Path" fill="#183165"></path>
                        <path d="M34.4888958,31.305418 C34.2358958,31.305418 34.0305625,31.0968254 34.0305625,30.8398095 L34.0305625,9.98055026 C34.0305625,9.72353439 34.2358958,9.5149418 34.4888958,9.5149418 C34.7418958,9.5149418 34.9472292,9.72353439 34.9472292,9.98055026 L34.9472292,30.8400423 C34.9472292,31.0970582 34.742125,31.305418 34.4888958,31.305418 Z" id="Path" fill="#183165"></path>
                        <path d="M39.1398333,31.305418 C38.8868333,31.305418 38.6815,31.0968254 38.6815,30.8398095 L38.6815,9.98055026 C38.6815,9.72353439 38.8868333,9.5149418 39.1398333,9.5149418 C39.3928333,9.5149418 39.5981667,9.72353439 39.5981667,9.98055026 L39.5981667,30.8400423 C39.5981667,31.0970582 39.3930625,31.305418 39.1398333,31.305418 Z" id="Path" fill="#183165"></path>
                        <path d="M39.1398333,31.305418 C38.8868333,31.305418 38.6815,31.0968254 38.6815,30.8398095 L38.6815,9.98055026 C38.6815,9.72353439 38.8868333,9.5149418 39.1398333,9.5149418 C39.3928333,9.5149418 39.5981667,9.72353439 39.5981667,9.98055026 L39.5981667,30.8400423 C39.5981667,31.0970582 39.3930625,31.305418 39.1398333,31.305418 Z" id="Path" fill="#183165"></path>
                        <path d="M43.791,31.305418 C43.538,31.305418 43.3326667,31.0968254 43.3326667,30.8398095 L43.3326667,9.98055026 C43.3326667,9.72353439 43.538,9.5149418 43.791,9.5149418 C44.044,9.5149418 44.2493333,9.72353439 44.2493333,9.98055026 L44.2493333,30.8400423 C44.2493333,31.0970582 44.0442292,31.305418 43.791,31.305418 Z" id="Path" fill="#183165"></path>
                        <path d="M43.791,15.1709206 L11.2087708,15.1709206 C10.9557708,15.1709206 10.7504375,14.962328 10.7504375,14.7053122 C10.7504375,14.4482963 10.9557708,14.2397037 11.2087708,14.2397037 L43.791,14.2397037 C44.044,14.2397037 44.2493333,14.4482963 44.2493333,14.7053122 C44.2493333,14.962328 44.044,15.1709206 43.791,15.1709206 Z" id="Path" fill="#183165"></path>
                        <path d="M43.791,15.1709206 L11.2087708,15.1709206 C10.9557708,15.1709206 10.7504375,14.962328 10.7504375,14.7053122 C10.7504375,14.4482963 10.9557708,14.2397037 11.2087708,14.2397037 L43.791,14.2397037 C44.044,14.2397037 44.2493333,14.4482963 44.2493333,14.7053122 C44.2493333,14.962328 44.044,15.1709206 43.791,15.1709206 Z" id="Path" fill="#183165"></path>
                        <path d="M43.791,19.8959153 L11.2087708,19.8959153 C10.9557708,19.8959153 10.7504375,19.6873228 10.7504375,19.4303069 C10.7504375,19.173291 10.9557708,18.9646984 11.2087708,18.9646984 L43.791,18.9646984 C44.044,18.9646984 44.2493333,19.173291 44.2493333,19.4303069 C44.2493333,19.6873228 44.044,19.8959153 43.791,19.8959153 Z" id="Path" fill="#183165"></path>
                        <path d="M43.791,24.6209101 L11.2087708,24.6209101 C10.9557708,24.6209101 10.7504375,24.4123175 10.7504375,24.1553016 C10.7504375,23.8982857 10.9557708,23.6896931 11.2087708,23.6896931 L43.791,23.6896931 C44.044,23.6896931 44.2493333,23.8982857 44.2493333,24.1553016 C44.2493333,24.4123175 44.044,24.6209101 43.791,24.6209101 Z" id="Path" fill="#183165"></path>
                        <path d="M43.791,29.345672 L11.2087708,29.345672 C10.9557708,29.345672 10.7504375,29.1370794 10.7504375,28.8800635 C10.7504375,28.6230476 10.9557708,28.414455 11.2087708,28.414455 L43.791,28.414455 C44.044,28.414455 44.2493333,28.6230476 44.2493333,28.8800635 C44.2493333,29.1370794 44.044,29.345672 43.791,29.345672 Z" id="Path" fill="#183165"></path>
                        <path d="M5.88064583,25.737672 C5.77614583,25.737672 5.6739375,25.7013545 5.5914375,25.6333757 C5.48441667,25.5449101 5.4223125,25.4122116 5.4223125,25.2720635 L5.4223125,11.9931429 C5.4223125,11.8308783 5.50527083,11.6804868 5.641625,11.595746 C5.77775,11.5112381 5.9475625,11.5047196 6.08964583,11.5787513 L11.4177708,14.3521481 C11.5708542,14.4317672 11.6671042,14.5917037 11.6671042,14.7665397 L11.6671042,24.144127 C11.6671042,24.3645926 11.5147083,24.5550265 11.3022708,24.5999577 L5.97414583,25.728127 C5.94297917,25.7346455 5.91158333,25.737672 5.88064583,25.737672 Z M6.33897917,12.7548783 L6.33897917,24.6993651 L10.7504375,23.7653545 L10.7504375,15.0510265 L6.33897917,12.7548783 Z" id="Shape" fill="#183165"></path>
                        <path d="M5.88064583,31.4884021 C5.6973125,31.4884021 5.52429167,31.3759577 5.45370833,31.1920423 C5.36158333,30.9524868 5.478,30.6826667 5.7138125,30.5890794 L11.0419375,28.4749841 C11.2775208,28.3816296 11.5433542,28.4996614 11.6354792,28.7392169 C11.7276042,28.9787725 11.6111875,29.2485926 11.375375,29.3421799 L6.04725,31.4562751 C5.99247917,31.4781587 5.93610417,31.4884021 5.88064583,31.4884021 Z" id="Path" fill="#183165"></path>
                        <path d="M11.2087708,19.8959153 L5.88064583,19.8959153 C5.62764583,19.8959153 5.4223125,19.6873228 5.4223125,19.4303069 C5.4223125,19.173291 5.62764583,18.9646984 5.88064583,18.9646984 L11.2087708,18.9646984 C11.4617708,18.9646984 11.6671042,19.173291 11.6671042,19.4303069 C11.6671042,19.6873228 11.4617708,19.8959153 11.2087708,19.8959153 Z" id="Path" fill="#183165"></path>
                        <path d="M49.1193542,25.737672 C49.0881875,25.737672 49.0570208,25.7344127 49.0258542,25.7278942 L43.6977292,24.5997249 C43.4852917,24.5547937 43.3328958,24.3643598 43.3328958,24.1438942 L43.3328958,14.7665397 C43.3328958,14.5919365 43.4291458,14.4317672 43.5822292,14.3521481 L48.9103542,11.5787513 C49.0526667,11.5047196 49.22225,11.5112381 49.358375,11.595746 C49.4947292,11.680254 49.5776875,11.8308783 49.5776875,11.9931429 L49.5776875,25.2720635 C49.5776875,25.4122116 49.5155833,25.5449101 49.4085625,25.6333757 C49.3260625,25.7013545 49.2238542,25.737672 49.1193542,25.737672 Z M44.2495625,23.7653545 L48.6610208,24.6993651 L48.6610208,12.7548783 L44.2495625,15.0510265 L44.2495625,23.7653545 Z" id="Shape" fill="#183165"></path>
                        <path d="M49.1193542,31.4884021 C49.0638958,31.4884021 49.0075208,31.4781587 48.95275,31.4562751 L43.624625,29.3421799 C43.3888125,29.2485926 43.2723958,28.9785397 43.3645208,28.7392169 C43.4566458,28.4996614 43.7229375,28.381164 43.9580625,28.4749841 L49.2861875,30.5890794 C49.522,30.6826667 49.6384167,30.9527196 49.5462917,31.1920423 C49.4757083,31.3759577 49.3026875,31.4884021 49.1193542,31.4884021 Z" id="Path" fill="#183165"></path>
                        <path d="M49.1193542,19.8959153 L43.7912292,19.8959153 C43.5382292,19.8959153 43.3328958,19.6873228 43.3328958,19.4303069 C43.3328958,19.173291 43.5382292,18.9646984 43.7912292,18.9646984 L49.1193542,18.9646984 C49.3723542,18.9646984 49.5776875,19.173291 49.5776875,19.4303069 C49.5776875,19.6873228 49.3725833,19.8959153 49.1193542,19.8959153 Z" id="Path" fill="#183165"></path>
                        <path d="M46.4552917,32.56 C46.2022917,32.56 45.9969583,32.3514074 45.9969583,32.0943915 L45.9969583,7.36150265 L9.00304167,7.36150265 L9.00304167,32.0943915 C9.00304167,32.3514074 8.79770833,32.56 8.54470833,32.56 C8.29170833,32.56 8.086375,32.3514074 8.086375,32.0943915 L8.086375,6.89589418 C8.086375,6.63887831 8.29170833,6.43028571 8.54470833,6.43028571 L46.4555208,6.43028571 C46.7085208,6.43028571 46.9138542,6.63887831 46.9138542,6.89589418 L46.9138542,32.0943915 C46.9138542,32.3516402 46.7085208,32.56 46.4552917,32.56 Z" id="Path" fill="#183165"></path>
                        <path d="M2.798125,3.3933545 L2.798125,32.6507937 C2.798125,33.0365503 3.10589583,33.3492063 3.485625,33.3492063 L5.88041667,33.3492063 L5.88041667,5.27534392 C5.88041667,4.46681481 6.52552083,3.8114709 7.32141667,3.8114709 L47.6785833,3.8114709 C48.4744792,3.8114709 49.1195833,4.46681481 49.1195833,5.27534392 L49.1195833,33.3492063 L51.5146042,33.3492063 C51.8943333,33.3492063 52.2021042,33.0365503 52.2021042,32.6507937 L52.2021042,3.3933545 C52.2021042,1.7765291 50.9118958,0.465608466 49.3201042,0.465608466 L5.67989583,0.465608466 C4.08833333,0.465608466 2.798125,1.7762963 2.798125,3.3933545 Z" id="Path" fill="#3761BA"></path>
                        <path d="M51.514375,33.8148148 L49.1193542,33.8148148 C48.8663542,33.8148148 48.6610208,33.6062222 48.6610208,33.3492063 L48.6610208,5.27534392 C48.6610208,4.72499471 48.2203333,4.27707937 47.6783542,4.27707937 L7.32141667,4.27707937 C6.77966667,4.27707937 6.33875,4.7247619 6.33875,5.27534392 L6.33875,33.3492063 C6.33875,33.6062222 6.13341667,33.8148148 5.88041667,33.8148148 L3.485625,33.8148148 C2.8538125,33.8148148 2.33979167,33.2926349 2.33979167,32.6507937 L2.33979167,3.3933545 C2.33979167,1.52230688 3.8383125,0 5.67989583,0 L49.3201042,0 C51.1619167,0 52.6602083,1.52230688 52.6602083,3.3933545 L52.6602083,32.6507937 C52.6602083,33.2926349 52.1461875,33.8148148 51.514375,33.8148148 L51.514375,33.8148148 Z M49.5776875,32.8835979 L51.514375,32.8835979 C51.6406458,32.8835979 51.7435417,32.7790688 51.7435417,32.6507937 L51.7435417,3.3933545 C51.7435417,2.03564021 50.656375,0.931216931 49.3201042,0.931216931 L5.67989583,0.931216931 C4.343625,0.931216931 3.25645833,2.03564021 3.25645833,3.3933545 L3.25645833,32.6507937 C3.25645833,32.7790688 3.35935417,32.8835979 3.485625,32.8835979 L5.4223125,32.8835979 L5.4223125,5.27534392 C5.4223125,4.21142857 6.27435417,3.34586243 7.32164583,3.34586243 L47.6788125,3.34586243 C48.7261042,3.34586243 49.5781458,4.21142857 49.5781458,5.27534392 L49.5781458,32.8835979 L49.5776875,32.8835979 Z" id="Shape" fill="#3762CC"></path>
                        <ellipse id="Oval" fill="#FFFFFF" cx="27.5" cy="32.659873" rx="10.3125" ry="10.4761905"></ellipse>
                        <path d="M17.1877292,32.6696508 L20.1228958,30.5031746 L18.9424583,26.8122963 C17.8344375,28.4826667 17.1875,30.4945608 17.1875,32.659873 C17.1875,32.6631323 17.1877292,32.6663915 17.1877292,32.6696508 Z" id="Path" fill="#F35229"></path>
                        <path d="M24.1255208,22.7582434 L27.5,25.2487831 L30.8744792,22.7582434 C29.8171042,22.386455 28.6818125,22.1839153 27.5,22.1839153 C26.3181875,22.1839153 25.1828958,22.386455 24.1255208,22.7582434 Z" id="Path" fill="#F35229"></path>
                        <path d="M23.0301042,39.2144762 L19.3540417,39.0841058 C20.5319583,40.6231746 22.1228333,41.8200212 23.958,42.5019048 L23.0301042,39.2144762 Z" id="Path" fill="#F35229"></path>
                        <path d="M31.0426875,42.501672 C32.877625,41.8197884 34.4682708,40.6231746 35.6461875,39.0841058 L31.9705833,39.2144762 L31.0426875,42.501672 Z" id="Path" fill="#F35229"></path>
                        <path d="M34.8564792,30.5031746 L37.8120417,32.6847831 C37.8122973,32.6847831 37.8122973,32.6847831 37.8122973,32.6845503 C37.8170833,30.5006138 37.1641875,28.4719577 36.0435625,26.7915767 L34.8564792,30.5031746 Z" id="Path" fill="#F35229"></path>
                        <polygon id="Path" fill="#F35229" points="27.5 28.5662434 23.4135 31.582455 24.9743542 36.4627302 30.0256458 36.4627302 31.5865 31.582455"></polygon>
                        <path d="M30.0256458,36.9283386 L24.9743542,36.9283386 C24.7758958,36.9283386 24.5998958,36.7984339 24.5384792,36.6066032 L22.9773958,31.726328 C22.9159792,31.5344974 22.9833542,31.3242751 23.144,31.2057778 L27.2307292,28.1895661 C27.391375,28.0710688 27.6088542,28.0710688 27.7697292,28.1895661 L31.8564583,31.2057778 C32.0171042,31.3242751 32.08425,31.5344974 32.0230625,31.726328 L30.4619792,36.6066032 C30.4001042,36.7984339 30.2241042,36.9283386 30.0256458,36.9283386 Z M25.3073333,35.9971217 L29.6926667,35.9971217 L31.0479583,31.7603175 L27.5,29.1417354 L23.9522708,31.7603175 L25.3073333,35.9971217 Z" id="Shape" fill="#183165"></path>
                        <path d="M27.5,43.6019048 C21.5609167,43.6019048 16.7291667,38.6934603 16.7291667,32.6601058 C16.7291667,26.6267513 21.5609167,21.7183069 27.5,21.7183069 C33.4390833,21.7183069 38.2708333,26.6267513 38.2708333,32.6601058 C38.2708333,38.6934603 33.4390833,43.6019048 27.5,43.6019048 Z M27.5,22.6495238 C22.0664583,22.6495238 17.6458333,27.1403175 17.6458333,32.6601058 C17.6458333,38.1798942 22.0664583,42.6706878 27.5,42.6706878 C32.9335417,42.6706878 37.3541667,38.1798942 37.3541667,32.6601058 C37.3541667,27.1403175 32.9335417,22.6495238 27.5,22.6495238 Z" id="Shape" fill="#183165"></path>
                        <path d="M37.7570417,33.1098836 C37.6635417,33.1098836 37.5693542,33.0810159 37.488,33.0209524 L34.5869792,30.8798519 C34.4263333,30.7613545 34.3591875,30.5511323 34.420375,30.3593016 L35.5751458,26.7494392 C35.6535208,26.5047619 35.9124792,26.3711323 36.152875,26.4505185 C36.3935,26.5299048 36.5252708,26.7925079 36.447125,27.0371852 L35.39525,30.325545 L38.0267708,32.2678307 C38.2316458,32.4189206 38.2767917,32.7101587 38.1280625,32.9180529 C38.0384583,33.0435344 37.8986667,33.1098836 37.7570417,33.1098836 L37.7570417,33.1098836 Z" id="Path" fill="#183165"></path>
                        <path d="M31.5865,32.0480635 C31.3933125,32.0480635 31.2136458,31.9230476 31.150625,31.726328 C31.0724792,31.4816508 31.20425,31.2190476 31.444875,31.1394286 L34.7148542,30.0601481 C34.9561667,29.9812275 35.2142083,30.1143915 35.2925833,30.3590688 C35.3709583,30.603746 35.2389583,30.8663492 34.9983333,30.9459683 L31.7283542,32.0252487 C31.6811458,32.0406138 31.6334792,32.0480635 31.5865,32.0480635 Z" id="Path" fill="#183165"></path>
                        <path d="M31.059875,42.9072169 C31.0179375,42.9072169 30.9755417,42.9013968 30.933375,42.8890582 C30.69,42.8182857 30.5492917,42.5603386 30.6191875,42.3131005 L31.530125,39.0859683 C31.5848958,38.8920423 31.7563125,38.7560847 31.9547708,38.7488677 L35.5416875,38.6217566 C35.794,38.6182646 36.0068958,38.8138201 36.0158333,39.070836 C36.0245417,39.3278519 35.8267708,39.5434286 35.5737708,39.5525079 L32.3196042,39.6679788 L31.5005625,42.5698836 C31.4425833,42.7740529 31.25925,42.9072169 31.059875,42.9072169 L31.059875,42.9072169 Z" id="Path" fill="#183165"></path>
                        <path d="M31.9708125,39.6798519 C31.8282708,39.6798519 31.6877917,39.6123386 31.5981875,39.4859259 L29.65325,36.7344127 C29.5054375,36.5255873 29.5526458,36.234582 29.7582083,36.0846561 C29.9633125,35.9347302 30.25,35.9822222 30.3978125,36.1912804 L32.34275,38.9427937 C32.4905625,39.151619 32.4433542,39.4426243 32.2377917,39.5925503 C32.1568958,39.6514497 32.063625,39.6798519 31.9708125,39.6798519 Z" id="Path" fill="#183165"></path>
                        <path d="M23.0305625,39.6800847 C23.0250625,39.6800847 23.0195625,39.6800847 23.0142917,39.6798519 L22.8632708,39.6744974 C22.8536458,39.6742646 22.6936875,39.6684444 19.4010208,39.5518095 C19.1480208,39.5427302 18.95025,39.3271534 18.9589583,39.0701376 C18.9678958,38.8131217 19.1782708,38.6080212 19.4331042,38.6210582 C22.8976458,38.743746 22.8987917,38.7439788 22.9029167,38.7439788 L23.046375,38.7491005 C23.299375,38.7581799 23.497375,38.9737566 23.4884375,39.2305397 C23.4795,39.4822011 23.276,39.6800847 23.0305625,39.6800847 L23.0305625,39.6800847 Z" id="Path" fill="#183165"></path>
                        <path d="M23.9133125,42.8101376 C23.7139375,42.8101376 23.5306042,42.6769735 23.4730833,42.4728042 L22.5896458,39.3429841 C22.5509167,39.2060952 22.576125,39.0587302 22.6577083,38.9432593 L24.6019583,36.1915132 C24.7495417,35.982455 25.036,35.9347302 25.2415625,36.0846561 C25.447125,36.234582 25.4943333,36.5255873 25.34675,36.7344127 L23.5319792,39.3031746 L24.3542292,42.216254 C24.424125,42.4634921 24.2834167,42.7212063 24.0400417,42.7922116 C23.9976458,42.8040847 23.95525,42.8101376 23.9133125,42.8101376 L23.9133125,42.8101376 Z" id="Path" fill="#183165"></path>
                        <path d="M17.2690833,33.0754286 C17.1274583,33.0754286 16.9876667,33.0088466 16.8978333,32.8835979 C16.7491042,32.6754709 16.7944792,32.3842328 16.999125,32.2331429 L19.5838958,30.325545 L18.5366042,27.051619 C18.4584583,26.8069418 18.5902292,26.5443386 18.8308542,26.4647196 C19.0717083,26.3860317 19.3302083,26.518963 19.4085833,26.7636402 L20.5587708,30.3593016 C20.6201875,30.5511323 20.5528125,30.7613545 20.3921667,30.8798519 L17.538125,32.9862646 C17.4567708,33.0465608 17.3625833,33.0754286 17.2690833,33.0754286 L17.2690833,33.0754286 Z" id="Path" fill="#183165"></path>
                        <path d="M23.4135,32.0480635 C23.36675,32.0480635 23.3193125,32.0408466 23.2725625,32.0254815 L19.9819583,30.9464339 C19.7411042,30.8675132 19.608875,30.6049101 19.6865625,30.3602328 C19.76425,30.1155556 20.0229792,29.9812275 20.2636042,30.0601481 L23.5542083,31.1391958 C23.7950625,31.2181164 23.9272917,31.4807196 23.8496042,31.7253968 C23.7868125,31.922582 23.6069167,32.0480635 23.4135,32.0480635 Z" id="Path" fill="#183165"></path>
                        <path d="M27.5,25.7143915 C27.4053542,25.7143915 27.3109375,25.6848254 27.2305,25.6254603 L23.9114792,23.1756614 C23.7066042,23.0245714 23.6614583,22.7333333 23.8101875,22.5252063 C23.9591458,22.3170794 24.2458333,22.2714497 24.4504792,22.4223069 L27.5,24.673291 L30.5424167,22.4276614 C30.7472917,22.2768042 31.0339792,22.3226667 31.1827083,22.5305608 C31.3314375,22.7386878 31.2860625,23.0299259 31.0814167,23.1810159 L27.7692708,25.6254603 C27.6890625,25.6848254 27.5946458,25.7143915 27.5,25.7143915 L27.5,25.7143915 Z" id="Path" fill="#183165"></path>
                        <path d="M27.5,29.0318519 C27.247,29.0318519 27.0416667,28.8232593 27.0416667,28.5662434 L27.0416667,25.2487831 C27.0416667,24.9917672 27.247,24.7831746 27.5,24.7831746 C27.753,24.7831746 27.9583333,24.9917672 27.9583333,25.2487831 L27.9583333,28.5662434 C27.9583333,28.8234921 27.753,29.0318519 27.5,29.0318519 Z" id="Path" fill="#183165"></path>
                    </g>
                </g>
            </g>
        </g>
    </g>
</svg>