<svg xmlns="http://www.w3.org/2000/svg" width="50" height="50" viewBox="0 0 50 50">
    <g fill="none" fill-rule="evenodd">
        <circle cx="25" cy="25" r="25" fill="#F35229"/>
        <g fill="#FFF" fill-rule="nonzero">
            <path d="M28.66 22.083l-4.188-2.819c-.503-.337-1.097-.514-1.72-.514-1.039 0-2.042.482-2.752 1.3 3.458 2.72 6.73 4.836 9.586 6.2.05-.105.103-.207.149-.317.6-1.437.158-3.02-1.074-3.85zM10.75 5.502l-2.794-4.18C7.161.132 5.533-.332 4.14.251c-.134.056-.261.122-.39.185C5.177 3.32 7.27 6.572 9.915 10c1.365-1.16 1.755-3.113.834-4.498z" transform="translate(10 10)"/>
            <path d="M18.16 21.446c-1.678-1.068-3.532-2.59-5.28-4.343-1.75-1.753-3.27-3.61-4.336-5.292l.778-.567C6.584 7.678 4.407 4.284 2.9 1.25l-.263.194c-.16.126-.31.265-.452.408C1.396 2.642.81 3.62.443 4.76c-1.59 4.95 1.19 12.134 6.918 17.873C11.966 27.246 17.526 30 22.234 30c1.067 0 2.065-.147 2.966-.438 1.136-.367 2.112-.954 2.9-1.744.143-.143.282-.293.425-.475l.225-.308c-2.996-1.437-6.402-3.63-9.984-6.423l-.605.834z" transform="translate(10 10)"/>
        </g>
    </g>
</svg>
