<?xml version="1.0" encoding="UTF-8"?>
<svg width="44px" height="44px" viewBox="0 0 44 44" version="1.1" xmlns="http://www.w3.org/2000/svg" xmlns:xlink="http://www.w3.org/1999/xlink">
    <!-- Generator: Sketch 56.3 (81716) - https://sketch.com -->
    <title>Home Services</title>
    <desc>Created with Sketch.</desc>
    <g id="Page-1" stroke="none" stroke-width="1" fill="none" fill-rule="evenodd">
        <g id="Hey-Digital_Home" transform="translate(-1073.000000, -754.000000)">
            <g id="Group-14" transform="translate(0.000000, 667.000000)">
                <g id="Group-55" transform="translate(1041.000000, 87.000000)">
                    <g id="Home-Services" transform="translate(32.000000, 0.000000)">
                        <polygon id="Path" fill="#99EBFA" points="36.2581849 10 40 6.25580812 36.7442425 3 33 6.74184951"></polygon>
                        <path d="M40.4437931,7 L42.2898618,5.15424769 C43.2379961,4.20881057 43.2354285,2.65891656 42.2898618,1.71100216 C41.3417274,0.762999281 39.7916354,0.762999281 38.8460686,1.71100216 L37,3.55675447 L40.4437931,7 Z" id="Path" fill="#E6D5CF"></path>
                        <polygon id="Path" fill="#E6D5CF" points="26.3919126 21 37 10.3944121 33.6055585 7 23 17.6081153 24.3611426 18.9692967"></polygon>
                        <path d="M21.1486847,22.8511706 L27.2974559,29 L29.2114642,27.088493 C30.2628453,26.0371598 30.2628453,24.3143048 29.2114642,23.2629716 L26.6578384,20.7069178 L24.6433978,18.6924389 L23.2930557,17.3421329 L20.7370077,14.7884999 C19.6856266,13.7371667 17.9627942,13.7371667 16.9114997,14.7884999 L15,16.7025142 L21.1486847,22.8511706 Z" id="Path" fill="#99EBFA"></path>
                        <path d="M11,18.8316077 L24.5619991,32 C24.8599905,31.9401893 25.157982,31.9091451 25.4534524,31.9019746 L27,28.9990889 L20.8211117,22.9995445 L14.6422234,17 L11,18.8316077 Z" id="Path" fill="#33D6F5"></path>
                        <path d="M8,20.6967874 L21.8938392,34 C22.5890184,33.0017429 23.6762095,32.2560056 25,31.9964088 L11.4242081,19 L8,20.6967874 Z" id="Path" fill="#99EBFA"></path>
                        <path d="M21.8017413,39.8010369 C22.8320613,41.4281435 24.710112,42.3167159 26.6208949,41.896185 C27.4521767,41.7134722 28.1850967,41.3079539 28.775268,40.7471872 C29.6112613,41.6508606 30.845331,42.0989441 32.0980811,41.8235944 C34.0650707,41.3905235 35.3295582,39.3354681 34.924456,37.2352863 C34.5193539,35.1326319 32.5991481,33.780875 30.6321585,34.2114732 C30.3183923,34.2815911 30.0233067,34.3917134 29.7493813,34.5368945 C28.9110735,32.9549142 27.3116598,31.9610767 25.583549,32.0011693 C25.302515,32.0086756 25.0191667,32.0412619 24.735901,32.1037852 C23.4784394,32.3791349 22.4457223,33.170125 21.7853752,34.2289586 C21.1180023,35.3003321 20.8346539,36.6470553 21.0969247,38.0087911 C21.2256217,38.6696128 21.469212,39.2753291 21.8017413,39.8010369 L21.8017413,39.8010369 Z" id="Path" fill="#FFE6B4"></path>
                        <path d="M36.9987059,30 C38.6573252,30 40,28.6554122 40,27 C40,25.342002 38.6574144,24 36.9987059,24 C35.3425856,24 34,25.342002 34,27 C33.9999108,28.6554122 35.3424963,30 36.9987059,30 Z" id="Path" fill="#FFE6B4"></path>
                        <path d="M9.73308813,34.5878764 L15.1305713,39.7726444 L17.5790026,42.1221958 C18.8627014,43.3552967 20.0175492,43.3981273 21.0137169,41.5485179 L22,39.7178884 C21.6480872,39.2179464 21.3903852,38.641917 21.2540988,38.0134832 C20.97654,36.7184879 21.276405,35.4377695 21.9826799,34.4189055 L8.01568722,21 L2.48690371,23.7518229 C1.5774239,24.2041475 1.10654481,24.6921642 1,25.2086506 L1,25.684742 C1.08423863,26.1203542 1.39652515,26.5774657 1.88962294,27.0511215 L4.33560491,29.4030244 L9.73308813,34.5878764 Z" id="Path" fill="#FFCD69"></path>
                        <path d="M41.0011706,41 C42.1012533,41 42.9931381,40.1080541 43,39.010287 L43,38.9988301 L43,38.989713 C42.9931381,37.8896867 42.1011726,37 41.0011706,37 C39.896567,37 39,37.8964641 39,38.9988301 C39,40.1035359 39.8964863,41 41.0011706,41 Z" id="Path" fill="#FFE6B4"></path>
                        <g id="Group" fill="#000000" fill-rule="nonzero">
                            <path d="M30.4858366,33.5014453 C30.3487004,33.5302344 30.2133619,33.5649531 30.0801634,33.6056016 C29.253751,32.5038828 28.0745681,31.7564844 26.7697198,31.4662734 L27.6546848,29.7478672 L29.4550039,27.9418906 C30.8321868,26.5585547 30.8321868,24.3076797 29.4550039,22.9243437 L27.5315875,20.9923828 L37.3157665,11.1645703 C37.3241556,11.15675 37.3329728,11.1497031 37.3411907,11.1415391 C37.3494942,11.1332031 37.3566848,11.1240937 37.3646459,11.1155 L41.167821,7.29532031 C41.1679066,7.29523437 41.1679922,7.29514844 41.1680778,7.29514844 C41.1681634,7.2950625 41.1681634,7.29497656 41.168249,7.29489062 L42.9523891,5.50275 C44.2044202,4.24857812 44.2051051,2.20317969 42.9532451,0.942476562 C42.3481167,0.334640625 41.5417354,-3.01980663e-14 40.6821089,-3.01980663e-14 C40.6814241,-3.01980663e-14 40.6805681,-3.01980663e-14 40.6798833,-3.01980663e-14 C39.8206848,0.0006015625 39.0152451,0.335585937 38.4126848,0.942476562 L36.6281167,2.73496094 C36.6281167,2.73496094 36.6281167,2.73496094 36.6280311,2.73496094 L36.6279455,2.73504687 L32.8239144,6.556 C32.8156109,6.56373437 32.8067938,6.57078125 32.7986615,6.57885937 C32.790358,6.58719531 32.7832529,6.59613281 32.7753774,6.60472656 L30.618179,8.77155469 C30.2839844,9.1073125 30.28407,9.65138281 30.6184358,9.98696875 C30.9528016,10.3223828 31.4948405,10.3222969 31.829035,9.986625 L33.4049883,8.40365625 L35.5244358,10.5325 L26.3212451,19.7767109 L24.2017977,17.6478672 L26.3968327,15.4430547 C26.7310272,15.1072969 26.730856,14.5632266 26.3964903,14.2276406 C26.0619533,13.8921406 25.52,13.8922266 25.1858054,14.2279844 L22.9914553,16.4321094 L21.0687237,14.5008359 C20.4038444,13.8330156 19.5165681,13.4652031 18.5703969,13.4652031 C17.6242257,13.4652031 16.737035,13.8330156 16.0717276,14.5012656 L14.2740623,16.3093047 L10.8075642,18.1127031 C10.8038833,18.1145937 10.8002023,18.1164844 10.796607,18.118375 L7.45765759,19.8554297 C7.44293385,19.8625625 7.42846693,19.8700391 7.4140856,19.8780312 L2.0266537,22.6808828 C0.869984436,23.2820156 0.24311284,23.9924609 0.11,24.8529531 C-0.0187470817,25.6856016 0.358163424,26.5519375 1.23011673,27.4277266 L3.60106615,29.81 C3.60988327,29.819625 3.61929961,29.8283906 3.62845914,29.8375859 L8.90580545,35.1401016 L14.1691128,40.4251719 C14.1822101,40.4391797 14.1957354,40.4528438 14.2098599,40.4660781 L16.5837198,42.8498125 C17.3448171,43.6142266 18.0985525,43.9999141 18.8291751,43.9999141 C18.9358366,43.9999141 19.0419844,43.9916641 19.1475331,43.97525 C20.004677,43.8417031 20.7122724,43.2119531 21.3107237,42.0500781 L21.6995331,41.2955469 C21.9156809,41.4917422 22.147751,41.6732422 22.3956576,41.8372109 C23.3373774,42.4601719 24.4157198,42.7825234 25.5170039,42.7825234 C25.9030739,42.7825234 26.2922257,42.7428203 26.6789805,42.6626406 C27.4096031,42.5117344 28.1003346,42.2201484 28.7106848,41.8083359 C29.7524747,42.565875 31.0657121,42.8574609 32.3515564,42.5919141 C33.5607004,42.34175 34.6002646,41.6337969 35.2787549,40.5983359 C35.9569883,39.5633047 36.1934241,38.3250313 35.9443191,37.1118516 C35.4313852,34.6076328 32.984249,32.987625 30.4858366,33.5014453 L30.4858366,33.5014453 Z M40.6809961,1.71875 L40.6820233,1.71875 C41.0841012,1.71875 41.4606693,1.87455469 41.7415331,2.1566875 C42.3264591,2.74578906 42.3272296,3.70107031 41.7423035,4.28699219 L40.5628638,5.47164062 L38.4434163,3.34279687 L39.6243113,2.15660156 C39.9044903,1.87455469 40.2796887,1.71900781 40.6809961,1.71875 Z M34.6154163,7.18789844 L37.2331595,4.55846875 L39.352607,6.6873125 L36.7347782,9.31674219 L34.6154163,7.18789844 Z M21.4359611,33.0782891 L9.26371206,20.851875 L11.0368949,19.9294219 L22.9879455,31.9336875 C22.401821,32.2271641 21.879214,32.6166328 21.4359611,33.0782891 L21.4359611,33.0782891 Z M14.6235798,18.0632891 L25.9076109,29.3976719 L24.8925292,31.3689062 C24.8786615,31.3704531 24.8647938,31.372 24.8509261,31.3736328 L12.6315097,19.0996953 L14.6235798,18.0632891 Z M17.2831829,15.7159062 C17.6246537,15.3729297 18.0818599,15.1840391 18.5705681,15.1840391 C19.0591907,15.1840391 19.5163969,15.3729297 19.8579533,15.7159062 L28.2440623,24.1393281 C28.9543113,24.8526953 28.9543113,26.0135391 28.2444903,26.7264766 L26.9559066,28.0191484 L15.9960545,17.0104687 L17.2831829,15.7159062 Z M19.7902412,41.2605703 C19.4787315,41.8653984 19.1488171,42.235875 18.8852451,42.2768672 C18.6367393,42.3159688 18.2395409,42.0815313 17.7947471,41.6347422 L15.8421401,39.6739922 L17.7117977,36.0508672 C17.9293152,35.6294297 17.7652996,35.1107969 17.3455019,34.8925156 C16.9256187,34.6742344 16.4090895,34.8388047 16.1916576,35.2602422 L14.5721323,38.3986797 L10.7234163,34.5339844 L13.4330117,31.8043516 C13.7666926,31.4681641 13.765751,30.9240078 13.4308716,30.5890234 C13.0959922,30.2540391 12.5539533,30.2548984 12.2202724,30.5911719 L9.51315953,33.3183125 L5.66238911,29.4491484 L8.78767315,27.8219219 C9.20738521,27.6034688 9.37114397,27.08475 9.15345525,26.6633984 C8.93585214,26.2421328 8.41898054,26.0775625 7.99943969,26.2961875 L4.39315175,28.1738359 L2.44148638,26.2128281 C1.9965214,25.7659531 1.76350973,25.3663437 1.80211673,25.1166094 C1.84312062,24.8516641 2.21189883,24.5202031 2.81437354,24.2071328 L7.66918288,21.6814297 L20.4340623,34.5032188 C19.882179,35.6115547 19.6806693,36.9057734 19.9476654,38.2115938 C20.0647704,38.7812734 20.2636265,39.3202734 20.5345603,39.8162188 L19.7902412,41.2605703 Z M33.8488405,39.6537969 C33.4217665,40.3055469 32.7674163,40.7512188 32.0066615,40.9085703 C31.037463,41.1090625 30.0430117,40.8060469 29.346716,40.0987813 C29.0267315,39.7737656 28.5092607,39.7569219 28.1689883,40.0607969 C27.6546848,40.5199609 27.0201946,40.8376719 26.333572,40.9794688 C25.2912685,41.1956016 24.227393,40.9905547 23.3378911,40.4022266 C22.4482179,39.8137266 21.8396654,38.9124141 21.6243735,37.8652656 C21.1817198,35.7003281 22.5734553,33.5776719 24.7268016,33.1334609 C24.7268872,33.1334609 24.7269728,33.1334609 24.727144,33.133375 C24.9981634,33.0773437 25.2693541,33.0501875 25.5377198,33.0501875 C26.9531673,33.0501875 28.28207,33.8072109 29.001821,35.0829531 C29.2258444,35.4799844 29.7199455,35.6320078 30.1270739,35.4292812 C30.3493852,35.3185937 30.5879611,35.2360078 30.8328716,35.1846172 C32.4036031,34.8618359 33.9445447,35.8816562 34.2678677,37.4588672 C34.4246926,38.2225937 34.2759144,39.0022187 33.8488405,39.6537969 L33.8488405,39.6537969 Z" id="Shape"></path>
                            <path d="M40.9388327,36.2602109 C39.2967082,36.2602109 37.960786,37.6008359 37.960786,39.2486016 C37.960786,40.8977422 39.2967082,42.2393984 40.9388327,42.2393984 C42.5795875,42.2393984 43.9143969,40.8977422 43.9143969,39.2486016 C43.9143969,37.6008359 42.5795875,36.2602109 40.9388327,36.2602109 Z M40.9388327,40.5206484 C40.2407393,40.5206484 39.6728482,39.9500234 39.6728482,39.2486016 C39.6728482,38.5485547 40.2407393,37.9789609 40.9388327,37.9789609 C41.6355564,37.9789609 42.2023346,38.5484687 42.2023346,39.2486016 C42.2023346,39.9500234 41.6354708,40.5206484 40.9388327,40.5206484 Z" id="Shape"></path>
                            <path d="M40.7277354,27.1200703 C40.7277354,25.0518984 39.0523969,23.3692422 36.9930428,23.3692422 C34.9350584,23.3692422 33.2608327,25.0518984 33.2608327,27.1200703 C33.2608327,29.1882422 34.935144,30.8708984 36.9930428,30.8708984 C39.0523969,30.8708984 40.7277354,29.1882422 40.7277354,27.1200703 Z M36.9930428,29.1521484 C35.8790895,29.1521484 34.9728949,28.2406094 34.9728949,27.1200703 C34.9728949,25.9995312 35.8790895,25.0879922 36.9930428,25.0879922 C38.1082802,25.0879922 39.0156732,25.9995312 39.0156732,27.1200703 C39.0156732,28.2406094 38.1083658,29.1521484 36.9930428,29.1521484 Z" id="Shape"></path>
                            <path d="M28.505751,12.9673672 C28.7254942,12.9673672 28.9454086,12.8831484 29.1128482,12.7150547 C29.4471284,12.3794688 29.4471284,11.8353125 29.1128482,11.4996406 C28.7785681,11.1640547 28.2365292,11.1640547 27.9021634,11.4996406 L27.8997665,11.5020469 C27.5654864,11.8376328 27.5666848,12.3805859 27.900965,12.7161719 C28.0678911,12.88375 28.2866926,12.9673672 28.505751,12.9673672 L28.505751,12.9673672 Z" id="Path"></path>
                        </g>
                    </g>
                </g>
            </g>
        </g>
    </g>
</svg>