<?xml version="1.0" encoding="UTF-8"?>
<svg width="203px" height="48px" viewBox="0 0 203 48" version="1.1" xmlns="http://www.w3.org/2000/svg" xmlns:xlink="http://www.w3.org/1999/xlink">
    <!-- Generator: Sketch 56.3 (81716) - https://sketch.com -->
    <title>Auto Digg-02</title>
    <desc>Created with Sketch.</desc>
    <defs>
        <linearGradient x1="36.690902%" y1="34.722118%" x2="61.4776447%" y2="75.190957%" id="linearGradient-1">
            <stop stop-color="#D1D2D4" offset="0%"></stop>
            <stop stop-color="#AEAFB2" offset="100%"></stop>
        </linearGradient>
        <linearGradient x1="23.0350171%" y1="57.1019544%" x2="637.363345%" y2="-22.3702228%" id="linearGradient-2">
            <stop stop-color="#97989B" offset="0%"></stop>
            <stop stop-color="#AEB0B4" offset="100%"></stop>
        </linearGradient>
        <linearGradient x1="-49.3018322%" y1="61.7037129%" x2="522.15172%" y2="-17.5835093%" id="linearGradient-3">
            <stop stop-color="#97989B" offset="0%"></stop>
            <stop stop-color="#AEB0B4" offset="100%"></stop>
        </linearGradient>
        <linearGradient x1="-52.9955826%" y1="71.3065015%" x2="330.459691%" y2="-7.75232198%" id="linearGradient-4">
            <stop stop-color="#97989B" offset="0%"></stop>
            <stop stop-color="#AEB0B4" offset="100%"></stop>
        </linearGradient>
        <linearGradient x1="-212.403748%" y1="80.1100238%" x2="477.390082%" y2="0.844567148%" id="linearGradient-5">
            <stop stop-color="#97989B" offset="0%"></stop>
            <stop stop-color="#AEB0B4" offset="100%"></stop>
        </linearGradient>
        <linearGradient x1="-247.134572%" y1="91.2199961%" x2="289.871923%" y2="11.826887%" id="linearGradient-6">
            <stop stop-color="#97989B" offset="0%"></stop>
            <stop stop-color="#AEB0B4" offset="100%"></stop>
        </linearGradient>
        <linearGradient x1="-1598.20607%" y1="247.103877%" x2="957.267709%" y2="-58.4968885%" id="linearGradient-7">
            <stop stop-color="#97989B" offset="0%"></stop>
            <stop stop-color="#AEB0B4" offset="100%"></stop>
        </linearGradient>
        <linearGradient x1="-243.036646%" y1="123.534732%" x2="217.224048%" y2="8.04992764%" id="linearGradient-8">
            <stop stop-color="#97989B" offset="0%"></stop>
            <stop stop-color="#AEB0B4" offset="100%"></stop>
        </linearGradient>
        <linearGradient x1="-410.622215%" y1="99.3959638%" x2="206.655554%" y2="33.9039944%" id="linearGradient-9">
            <stop stop-color="#97989B" offset="0%"></stop>
            <stop stop-color="#AEB0B4" offset="100%"></stop>
        </linearGradient>
        <linearGradient x1="-516.999991%" y1="110.680608%" x2="100.288889%" y2="45.1886382%" id="linearGradient-10">
            <stop stop-color="#97989B" offset="0%"></stop>
            <stop stop-color="#AEB0B4" offset="100%"></stop>
        </linearGradient>
    </defs>
    <g id="Page-1" stroke="none" stroke-width="1" fill="none" fill-rule="evenodd">
        <g id="Auto-Digg-02">
            <rect id="Rectangle-Copy-6" fill="#000000" x="0" y="0" width="203" height="48"></rect>
            <g fill-rule="nonzero">
                <path d="M68.9401893,16.7042356 C68.4773379,-0.0436292856 53.3963112,5.89015695e-07 53.3963112,5.89015695e-07 L32.7610683,5.89015695e-07 L32.7610683,0.0473713943 L32.0501695,0.0473713943 L10.1388889,33.3897712 L19.209241,33.3897712 L32.7623469,11.6418553 L32.7623469,33.4446209 L49.1066253,33.4446209 L53.4052613,33.4583333 L53.4052613,33.4446209 C53.6622589,33.4421277 69.2393805,33.2651127 68.9401893,16.7042356 Z M58.5579988,23.609068 C56.3946162,25.766906 52.8145505,25.9626198 52.7378348,25.965113 L41.4708567,25.965113 L41.5399008,13.5241981 L47.5403466,13.5241981 L47.5403466,7.48574203 L52.686691,7.48574203 C52.9270669,7.49820788 55.0418628,7.63408561 56.9533622,8.79964226 C57.8215281,9.32819415 60.4618265,10.9362884 60.6357154,16.8750177 C60.6804663,19.9279035 59.9823535,22.195441 58.5579988,23.6128077 L58.5579988,23.609068 Z" id="Shape" fill="url(#linearGradient-1)"></path>
                <polygon id="Path" fill="url(#linearGradient-2)" points="0 47.6527778 2.60109215 47.6527778 6.50273038 41.2435561 6.50273038 47.6313211 9.125 47.6313211 9.125 37.5138889 6.48030717 37.5138889"></polygon>
                <path d="M15.642764,37.5138889 L15.642764,37.5138889 L14.714588,37.5138889 L14.714588,39.8317449 L15.642764,39.8317449 L15.642764,43.9865112 C15.642764,44.7590313 14.9943293,45.3852826 14.1944444,45.3852826 C13.3945596,45.3852826 12.7461249,44.7590313 12.7461249,43.9865112 L12.7461249,39.8317449 L13.6247634,39.8317449 L13.6247634,37.5176659 L12.7461249,37.5176659 L12.7461249,37.5176659 L10.1388889,37.5176659 L10.1388889,43.7422613 C10.1424846,45.9029978 11.957166,47.6527778 14.1944444,47.6527778 L14.1944444,47.6527778 C15.2700447,47.6527778 16.3015911,47.2401149 17.0621553,46.5055702 C17.8227195,45.7710256 18.25,44.7747692 18.25,43.7359662 L18.25,37.5138889 L15.642764,37.5138889 Z" id="Path" fill="url(#linearGradient-3)"></path>
                <polygon id="Path" fill="url(#linearGradient-4)" points="18.25 37.5302116 18.25 39.8216632 20.4418139 39.8216632 20.4418139 47.6527778 23.3194444 47.6527778 23.3194444 37.5138889"></polygon>
                <path d="M28.3586976,37.513915 C25.5627624,37.5306051 23.3082051,39.8078594 23.3194866,42.6038402 C23.330853,45.3998211 25.6037821,47.6587384 28.3997605,47.652766 C31.195739,47.6467698 33.4589777,45.3781434 33.4583332,42.5821397 C33.454333,41.2337429 32.9147623,39.9421813 31.9583574,38.9916723 C31.0019525,38.0411632 29.7070843,37.5095945 28.3586976,37.513915 Z M28.3675096,45.4888635 C26.9273756,45.4888635 25.7578961,44.1997837 25.7578961,42.6110937 C25.7578961,41.0224036 26.9273756,39.732065 28.3675096,39.732065 C29.8076436,39.732065 30.978382,41.0211447 30.978382,42.6110937 C30.978382,44.2010426 29.8089025,45.4888635 28.3675096,45.4888635 L28.3675096,45.4888635 Z" id="Shape" fill="url(#linearGradient-5)"></path>
                <path d="M39.6851516,37.5138889 L36.5,37.5138889 L36.5,41.7013344 L38.5825991,41.7013344 L38.5825991,39.7835071 L39.5626458,39.7835071 C40.5482558,39.7619779 41.4680819,40.290863 41.9670242,41.1659858 C42.4659666,42.0411087 42.4659666,43.1255579 41.9670242,44.0006807 C41.4680819,44.8758035 40.5482558,45.4046886 39.5626458,45.3831594 L38.5825991,45.3831594 L38.5825991,45.3528979 L36.5,45.3528979 L36.5,47.6527778 L39.6851516,47.6527778 C40.9914846,47.6531121 42.2444249,47.1192255 43.1682567,46.1686023 C44.0920885,45.217979 44.6111111,43.9285152 44.6111111,42.5839637 L44.6111111,42.5839637 C44.6111111,39.7838387 42.4056839,37.5138889 39.6851516,37.5138889 Z" id="Path" fill="url(#linearGradient-6)"></path>
                <rect id="Rectangle" fill="url(#linearGradient-7)" x="45.625" y="37.5138889" width="3.04166667" height="3.04166667"></rect>
                <rect id="Rectangle" fill="url(#linearGradient-8)" x="45.625" y="40.5555556" width="3.04166667" height="7.09722222"></rect>
                <path d="M55.9694831,43.8167136 L56.8257686,43.8167136 C56.8257686,43.8167136 56.8170942,44.2861532 56.2780433,44.8449499 C55.9174368,45.2225153 55.1850711,45.3685073 55.1850711,45.3685073 L54.7848103,45.3685073 C53.2878748,45.3362422 52.0909496,44.0945511 52.0909496,42.5738942 C52.0909496,41.0532373 53.2878748,39.8115462 54.7848103,39.7792811 L55.1850711,39.7792811 L58.4292902,39.8006765 L60.5854938,37.5226987 L55.1801143,37.5138889 L54.6559337,37.5138889 C51.9066225,37.5173618 49.6798697,39.7822715 49.6805556,42.5745235 L49.6805556,42.5745235 C49.6805556,45.3687397 51.9108824,47.6338995 54.6621297,47.6338995 L55.1863103,47.6338995 L57.2347038,47.6527778 L60.8333333,41.9263696 L53.9942023,41.8986815 L55.9694831,43.8167136 Z" id="Path" fill="url(#linearGradient-9)"></path>
                <path d="M68.1361498,43.8167136 L68.9924352,43.8167136 C68.9924352,43.8167136 68.9837609,44.2861532 68.4447099,44.8449499 C68.0841035,45.2225153 67.3517377,45.3685073 67.3517377,45.3685073 L66.9514769,45.3685073 C65.4545414,45.3362422 64.2576162,44.0945511 64.2576162,42.5738942 C64.2576162,41.0532373 65.4545414,39.8115462 66.9514769,39.7792811 L67.3517377,39.7792811 L70.5959568,39.8006765 L72.7521605,37.5226987 L67.3467809,37.5138889 L66.8226004,37.5138889 C64.0732892,37.5173618 61.8465363,39.7822715 61.8472222,42.5745235 L61.8472222,42.5745235 C61.8472222,45.3687397 64.077549,47.6338995 66.8287964,47.6338995 L67.3529769,47.6338995 L69.4013704,47.6527778 L73,41.9263696 L66.1608689,41.8986815 L68.1361498,43.8167136 Z" id="Path" fill="url(#linearGradient-10)"></path>
            </g>
        </g>
    </g>
</svg>