<?xml version="1.0" encoding="UTF-8"?>
<svg width="80px" height="77px" viewBox="0 0 80 77" version="1.1" xmlns="http://www.w3.org/2000/svg" xmlns:xlink="http://www.w3.org/1999/xlink">
    <!-- Generator: Sketch 56.3 (81716) - https://sketch.com -->
    <title>Group 42</title>
    <desc>Created with Sketch.</desc>
    <defs>
        <linearGradient x1="-3.04574141%" y1="112.484128%" x2="104.87563%" y2="-12.6612369%" id="linearGradient-1">
            <stop stop-color="#1C7CFB" stop-opacity="0.267318619" offset="0%"></stop>
            <stop stop-color="#1C7CFB" stop-opacity="0" offset="100%"></stop>
        </linearGradient>
    </defs>
    <g id="Page-1" stroke="none" stroke-width="1" fill="none" fill-rule="evenodd">
        <g id="Hey-Digital_PPC-Management" transform="translate(-280.000000, -949.000000)">
            <g id="Group-42" transform="translate(276.000000, 949.000000)">
                <g id="Google-Shopping-Copy-2">
                    <g id="Group-10" transform="translate(4.000000, 0.000000)" fill-rule="nonzero">
                        <path d="M80,40.21625 C80,35.8989062 78.04625,31.8514062 74.6332813,28.3667187 C72.2584375,25.9420312 70.2810938,23.164375 68.771875,20.124375 C63.9454688,10.4029687 55.7165625,4 46.375625,4 C39.7376563,4 33.6617187,7.2340625 28.9689063,12.5942187 C25.8626563,16.1421875 21.940625,18.86375 17.5646875,20.6209375 C6.96484375,24.8775 0,32.0651562 0,40.21625 C0,48.3673437 6.96484375,55.555 17.5646875,59.8115625 C21.940625,61.56875 25.8626563,64.2903125 28.9690625,67.8382812 C33.661875,73.1984375 39.7378125,76.4325 46.3757813,76.4325 C55.7167187,76.4325 63.945625,70.0295312 68.7720312,60.308125 C70.28125,57.268125 72.2585938,54.4904687 74.6334375,52.0657812 C78.04625,48.5810937 80,44.5335937 80,40.21625 Z" id="Path" fill="url(#linearGradient-1)"></path>
                        <path d="M8.40171875,46.1915625 C8.20171875,46.1915625 8.001875,46.1153125 7.84921875,45.9628125 L6.83921875,44.9528125 L5.82921875,45.9628125 C5.5240625,46.2678125 5.02953125,46.2678125 4.724375,45.9628125 C4.41921875,45.6576563 4.41921875,45.1629688 4.724375,44.8579688 L6.286875,43.2954688 C6.59203125,42.9904688 7.0865625,42.9904688 7.39171875,43.2954688 L8.95421875,44.8579688 C9.259375,45.163125 9.259375,45.6578125 8.95421875,45.9628125 C8.8015625,46.1151563 8.6015625,46.1915625 8.40171875,46.1915625 Z" id="Path" fill="#6C6CFF"></path>
                        <path d="M74.3515625,61.6704687 C74.1515625,61.6704687 73.9517188,61.5942187 73.7990625,61.4417187 L72.7890625,60.4317187 L71.7790625,61.4417187 C71.4739063,61.7467187 70.979375,61.7467187 70.6742188,61.4417187 C70.3690625,61.1365625 70.3690625,60.641875 70.6742188,60.336875 L72.2367188,58.774375 C72.541875,58.469375 73.0364063,58.469375 73.3415625,58.774375 L74.9040625,60.336875 C75.2092188,60.6420312 75.2092188,61.1367187 74.9040625,61.4417187 C74.7514063,61.5940625 74.5515625,61.6704687 74.3515625,61.6704687 Z" id="Path" fill="#6C6CFF"></path>
                        <path d="M14.6484375,71.8829688 C14.4484375,71.8829688 14.2485937,71.8067188 14.0959375,71.6542188 C13.7907812,71.3490625 13.7907812,70.854375 14.0959375,70.549375 L15.6584375,68.986875 C15.9635937,68.681875 16.458125,68.681875 16.7632812,68.986875 C17.0684375,69.2920313 17.0684375,69.7867188 16.7632812,70.0917188 L15.2007812,71.6542188 C15.0482812,71.8065625 14.8484375,71.8829688 14.6484375,71.8829688 L14.6484375,71.8829688 Z" id="Path" fill="#FF9D33"></path>
                        <path d="M72.6953125,35.7370313 C72.4953125,35.7370313 72.2954687,35.6607813 72.1428125,35.5082813 C71.8376562,35.203125 71.8376562,34.7084375 72.1428125,34.4034375 L73.7053125,32.8409375 C74.0104687,32.5359375 74.505,32.5359375 74.8101562,32.8409375 C75.1153125,33.1460938 75.1153125,33.6407813 74.8101562,33.9457813 L73.2476562,35.5082813 C73.0951562,35.6607813 72.8953125,35.7370313 72.6953125,35.7370313 Z" id="Path" fill="#FF6C6C"></path>
                        <path d="M6.484375,23.7196875 C6.284375,23.7196875 6.08453125,23.6434375 5.931875,23.4909375 C5.62671875,23.1857813 5.62671875,22.6910938 5.931875,22.3860938 L7.494375,20.8235938 C7.79953125,20.5185938 8.2940625,20.5185938 8.59921875,20.8235938 C8.904375,21.12875 8.904375,21.6234375 8.59921875,21.9284375 L7.03671875,23.4909375 C6.88421875,23.6434375 6.684375,23.7196875 6.484375,23.7196875 Z" id="Path" fill="#FF6C6C"></path>
                        <path d="M46.484375,3.7196875 C46.284375,3.7196875 46.0845312,3.6434375 45.931875,3.4909375 C45.6267187,3.18578125 45.6267187,2.69109375 45.931875,2.38609375 L47.494375,0.82359375 C47.7995312,0.51859375 48.2940625,0.51859375 48.5992187,0.82359375 C48.904375,1.12875 48.904375,1.6234375 48.5992187,1.9284375 L47.0367187,3.4909375 C46.8842187,3.6434375 46.684375,3.7196875 46.484375,3.7196875 Z" id="Path-Copy-2" fill="#FF6C6C" transform="translate(47.265547, 2.157266) scale(-1, 1) translate(-47.265547, -2.157266) "></path>
                    </g>
                    <g id="supermarket-(1)" transform="translate(17.000000, 51.000000)"></g>
                </g>
                <g id="monitor-(1)" transform="translate(17.000000, 15.000000)" fill-rule="nonzero">
                    <path d="M36,56 L16,56 C16,53.7910564 18.0117591,52 20.4934405,52 L31.5065596,52 C33.988241,52 36,53.7910564 36,56 Z" id="Path" fill="#F35229"></path>
                    <polygon id="Path" fill="#EDF2FA" points="21 47 30 47 30 51 21 51"></polygon>
                    <path d="M46.4335477,9 C48.9555528,9 51,10.9959174 51,13.4580568 L51,41.5419432 C51,44.0040826 48.9555528,46 46.4335477,46 L5.56645231,46 C3.04444719,46 1,44.0040826 1,41.5419432 L1,13.4580568 C1,10.9959174 3.04444719,9 5.56645231,9 L46.4335477,9 Z" id="Path" fill="#F0F0F0"></path>
                    <path d="M5.56645231,46 L46.4335477,46 C48.9555528,46 51,43.8930438 51,41.2939284 L51,38 L1,38 L1,41.2939284 C1,43.8930438 3.04444719,46 5.56645231,46 L5.56645231,46 Z" id="Path" fill="#F35229"></path>
                    <path d="M44,14.4997802 C44,21.9556174 37.9556174,28 30.4997802,28 C23.0439431,28 17,21.9556174 17,14.4997802 C17,7.0439431 23.0439431,1 30.4997802,1 C37.9556174,1 44,7.0439431 44,14.4997802 Z" id="Path" fill="#FFFFFF"></path>
                    <path d="M41,13.9997747 C41,18.9706539 36.9706539,23 31.9997747,23 C27.0293462,23 23,18.9706539 23,13.9997747 C23,9.02934623 27.0293462,5 31.9997747,5 C36.9706539,5 41,9.02934623 41,13.9997747 L41,13.9997747 Z" id="Path" fill="#3761BA"></path>
                    <path d="M39,25.5477831 L48.3885027,34.2654036 C49.4433411,35.2448655 51.1540329,35.2448655 52.2088712,34.2654036 C53.2637096,33.2855319 53.2637096,31.6974922 52.2088712,30.7176205 L42.8203685,22 L39,25.5477831 Z" id="Path" fill="#F35229"></path>
                    <path d="M7.14779489,27 L15.8522051,27 C16.4861824,27 17,26.3285157 17,25.5 C17,24.6720703 16.4861824,24 15.8522051,24 L7.14779489,24 C6.51381761,24 6,24.6720703 6,25.5 C6,26.3285157 6.51381761,27 7.14779489,27 Z" id="Path" fill="#183165"></path>
                    <path d="M6.1706871,32 L15.8293129,32 C16.4754774,32 17,31.3279296 17,30.5 C17,29.6714843 16.4754774,29 15.8293129,29 L6.1706871,29 C5.52406545,29 5,29.6714843 5,30.5 C5,31.3279296 5.52406545,32 6.1706871,32 Z" id="Path" fill="#183165"></path>
                    <path d="M20.5,32 C20.8943359,32 21.2816405,31.8412111 21.5605468,31.5605469 C21.839453,31.2816407 22,30.8960937 22,30.5 C22,30.1056641 21.839453,29.7183595 21.5605468,29.4394532 C21.2816405,29.160547 20.8943359,29 20.5,29 C20.105664,29 19.7183593,29.160547 19.4394531,29.4394532 C19.158789,29.7183595 19,30.1056641 19,30.5 C19,30.8960937 19.158789,31.2816407 19.4394531,31.5605469 C19.7183593,31.8412111 20.1039063,32 20.5,32 Z" id="Path" fill="#183165"></path>
                    <path d="M31.5,24 C36.7385148,24 41,19.5142262 41,14 C41,8.4862178 36.7385148,4 31.5,4 C26.2619069,4 22,8.4862178 22,14 C22,19.5142262 26.2619069,24 31.5,24 L31.5,24 Z M31.5,6.27307024 C35.5476941,6.27307024 38.8410049,9.73926935 38.8410049,14 C38.8410049,18.2607307 35.5476941,21.7273736 31.5,21.7273736 C27.4523059,21.7273736 24.1594167,18.2607307 24.1594167,14 C24.1594167,9.73926935 27.4523059,6.27307024 31.5,6.27307024 L31.5,6.27307024 Z" id="Shape" fill="#183165"></path>
                    <path d="M52.8847224,30.5178223 L51.5246814,29.1718826 L51.5246814,14.0256042 C51.5246814,10.956253 49.0010254,8.45876315 45.8995166,8.45876315 L44.5785851,8.45876315 C42.266735,3.4720459 37.1746008,0 31.2774278,0 C25.3806944,0 20.2881207,3.4720459 17.9767101,8.45876315 L5.62516476,8.45876315 C2.5232167,8.45876315 0,10.956253 0,14.0256042 L0,42.0811616 C0,45.1509475 2.5232167,47.6480027 5.62516476,47.6480027 L20.1334407,47.6480027 L20.1334407,50.3224868 C17.0820272,50.3807602 14.6181338,52.8534622 14.6181338,55.8867188 C14.6181338,56.5016327 15.1217226,57 15.7430789,57 L35.7732533,57 C36.3946097,57 36.8981983,56.5016327 36.8981983,55.8867188 C36.8981983,52.8534622 34.4343049,50.3811951 31.3833308,50.3224868 L31.3833308,47.6480027 L45.8995166,47.6480027 C49.0014648,47.6480027 51.5246814,45.1509475 51.5246814,42.0811616 L51.5246814,36.7239304 C52.0291489,36.5373687 52.49231,36.2451324 52.8847224,35.8567886 C54.3717592,34.3847351 54.3717592,31.9898758 52.8847224,30.5178223 L52.8847224,30.5178223 Z M45.8995166,10.6857605 C47.7605098,10.6857605 49.2747912,12.1839065 49.2747912,14.0256042 L49.2747912,26.9453201 L43.9559103,21.6815872 C45.1937894,19.5580903 45.9025927,17.09626 45.9025927,14.4730911 C45.9025927,13.1632461 45.7246229,11.8934097 45.3932913,10.6857605 L45.8995166,10.6857605 Z M31.2774278,2.2265625 C38.1009228,2.2265625 43.652263,7.72034452 43.652263,14.4730911 C43.652263,21.2258377 38.1009228,26.7196197 31.2774278,26.7196197 C24.4539329,26.7196197 18.9025926,21.2258377 18.9025926,14.4730911 C18.9025926,7.72034452 24.4539329,2.2265625 31.2774278,2.2265625 Z M5.62516476,10.6857605 L17.1620038,10.6857605 C16.8306723,11.8934097 16.6527025,13.1632461 16.6527025,14.4730911 C16.6527025,15.8855667 16.8592354,17.250206 17.2419803,18.5417862 L6.8801816,18.5417862 C6.25882528,18.5417862 5.75523653,19.0401535 5.75523653,19.6550674 C5.75523653,20.2695465 6.25882528,20.7683487 6.8801816,20.7683487 L18.1098579,20.7683487 C20.4801524,25.6041641 25.4918705,28.9466172 31.2774278,28.9466172 C33.9276403,28.9466172 36.4152629,28.245163 38.5610078,27.0205536 L47.4898199,35.8567886 C47.989893,36.351677 48.604658,36.6917495 49.2747912,36.8539581 L49.2747912,37.8506928 L2.24989014,37.8506928 L2.24989014,14.0256042 C2.24989014,12.1839065 3.76417173,10.6857605 5.62516476,10.6857605 L5.62516476,10.6857605 Z M34.4558371,54.7734375 L17.0609345,54.7734375 C17.5249743,53.4770737 18.7764757,52.5464402 20.2432987,52.5464402 L31.2730336,52.5464402 C32.7398564,52.5464402 33.9913578,53.4770737 34.4558371,54.7734375 Z M29.1334407,50.3198777 L22.3833309,50.3198777 L22.3833309,47.6480027 L29.1334407,47.6480027 L29.1334407,50.3198777 Z M45.8995166,45.4214402 L5.62516476,45.4214402 C3.76417173,45.4214402 2.24989014,43.9228592 2.24989014,42.0811616 L2.24989014,40.0772553 L49.2747912,40.0772553 L49.2747912,42.0811616 C49.2747912,43.9228592 47.7605098,45.4214402 45.8995166,45.4214402 L45.8995166,45.4214402 Z M51.2935404,34.2821045 C50.6836092,34.8861465 49.6904937,34.8857117 49.0805625,34.2821045 L40.4479274,25.7385406 C41.2617547,25.0888367 42.0039549,24.354332 42.6604658,23.5489426 L51.2935404,32.0925064 C51.9034715,32.6961136 51.9034715,33.6784973 51.2935404,34.2821045 L51.2935404,34.2821045 Z" id="Shape" fill="#183165"></path>
                    <path d="M31.0909091,11.1819731 C32.5947443,11.1819731 33.8181818,12.4054976 33.8181818,13.9090134 C33.8181818,14.5116131 34.3065341,15 34.9090909,15 C35.5116478,15 36,14.5116131 36,13.9090134 C36,11.202003 33.7977273,9 31.0909091,9 C30.4883523,9 30,9.48881315 30,10.0909866 C30,10.6935862 30.4883523,11.1819731 31.0909091,11.1819731 Z" id="Path" fill="#FFFFFF"></path>
                </g>
            </g>
        </g>
    </g>
</svg>