<?xml version="1.0" encoding="UTF-8"?>
<svg width="80px" height="77px" viewBox="0 0 80 77" version="1.1" xmlns="http://www.w3.org/2000/svg" xmlns:xlink="http://www.w3.org/1999/xlink">
    <!-- Generator: Sketch 56.3 (81716) - https://sketch.com -->
    <title>Group 40</title>
    <desc>Created with Sketch.</desc>
    <defs>
        <linearGradient x1="-3.04574141%" y1="112.484128%" x2="104.87563%" y2="-12.6612369%" id="linearGradient-1">
            <stop stop-color="#1C7CFB" stop-opacity="0.267318619" offset="0%"></stop>
            <stop stop-color="#1C7CFB" stop-opacity="0" offset="100%"></stop>
        </linearGradient>
    </defs>
    <g id="Page-1" stroke="none" stroke-width="1" fill="none" fill-rule="evenodd">
        <g id="Hey-Digital_PPC-Management" transform="translate(-680.000000, -1262.000000)">
            <g id="Group-40" transform="translate(680.000000, 1262.000000)">
                <g id="Remarketing" fill-rule="nonzero">
                    <g id="Group-10">
                        <path d="M80,40.21625 C80,35.8989062 78.04625,31.8514062 74.6332813,28.3667187 C72.2584375,25.9420312 70.2810938,23.164375 68.771875,20.124375 C63.9454688,10.4029687 55.7165625,4 46.375625,4 C39.7376563,4 33.6617187,7.2340625 28.9689063,12.5942187 C25.8626563,16.1421875 21.940625,18.86375 17.5646875,20.6209375 C6.96484375,24.8775 0,32.0651562 0,40.21625 C0,48.3673437 6.96484375,55.555 17.5646875,59.8115625 C21.940625,61.56875 25.8626563,64.2903125 28.9690625,67.8382812 C33.661875,73.1984375 39.7378125,76.4325 46.3757813,76.4325 C55.7167187,76.4325 63.945625,70.0295312 68.7720312,60.308125 C70.28125,57.268125 72.2585938,54.4904687 74.6334375,52.0657812 C78.04625,48.5810937 80,44.5335937 80,40.21625 Z" id="Path" fill="url(#linearGradient-1)"></path>
                        <path d="M8.40171875,46.1915625 C8.20171875,46.1915625 8.001875,46.1153125 7.84921875,45.9628125 L6.83921875,44.9528125 L5.82921875,45.9628125 C5.5240625,46.2678125 5.02953125,46.2678125 4.724375,45.9628125 C4.41921875,45.6576563 4.41921875,45.1629688 4.724375,44.8579688 L6.286875,43.2954688 C6.59203125,42.9904688 7.0865625,42.9904688 7.39171875,43.2954688 L8.95421875,44.8579688 C9.259375,45.163125 9.259375,45.6578125 8.95421875,45.9628125 C8.8015625,46.1151563 8.6015625,46.1915625 8.40171875,46.1915625 Z" id="Path" fill="#6C6CFF"></path>
                        <path d="M74.3515625,61.6704687 C74.1515625,61.6704687 73.9517188,61.5942187 73.7990625,61.4417187 L72.7890625,60.4317187 L71.7790625,61.4417187 C71.4739063,61.7467187 70.979375,61.7467187 70.6742188,61.4417187 C70.3690625,61.1365625 70.3690625,60.641875 70.6742188,60.336875 L72.2367188,58.774375 C72.541875,58.469375 73.0364063,58.469375 73.3415625,58.774375 L74.9040625,60.336875 C75.2092188,60.6420312 75.2092188,61.1367187 74.9040625,61.4417187 C74.7514063,61.5940625 74.5515625,61.6704687 74.3515625,61.6704687 Z" id="Path" fill="#6C6CFF"></path>
                        <path d="M14.6484375,71.8829688 C14.4484375,71.8829688 14.2485937,71.8067188 14.0959375,71.6542188 C13.7907812,71.3490625 13.7907812,70.854375 14.0959375,70.549375 L15.6584375,68.986875 C15.9635937,68.681875 16.458125,68.681875 16.7632812,68.986875 C17.0684375,69.2920313 17.0684375,69.7867188 16.7632812,70.0917188 L15.2007812,71.6542188 C15.0482812,71.8065625 14.8484375,71.8829688 14.6484375,71.8829688 L14.6484375,71.8829688 Z" id="Path" fill="#FF9D33"></path>
                        <path d="M72.6953125,35.7370313 C72.4953125,35.7370313 72.2954687,35.6607813 72.1428125,35.5082813 C71.8376562,35.203125 71.8376562,34.7084375 72.1428125,34.4034375 L73.7053125,32.8409375 C74.0104687,32.5359375 74.505,32.5359375 74.8101562,32.8409375 C75.1153125,33.1460938 75.1153125,33.6407813 74.8101562,33.9457813 L73.2476562,35.5082813 C73.0951562,35.6607813 72.8953125,35.7370313 72.6953125,35.7370313 Z" id="Path" fill="#FF6C6C"></path>
                        <path d="M6.484375,23.7196875 C6.284375,23.7196875 6.08453125,23.6434375 5.931875,23.4909375 C5.62671875,23.1857813 5.62671875,22.6910938 5.931875,22.3860938 L7.494375,20.8235938 C7.79953125,20.5185938 8.2940625,20.5185938 8.59921875,20.8235938 C8.904375,21.12875 8.904375,21.6234375 8.59921875,21.9284375 L7.03671875,23.4909375 C6.88421875,23.6434375 6.684375,23.7196875 6.484375,23.7196875 Z" id="Path" fill="#FF6C6C"></path>
                        <path d="M46.484375,3.7196875 C46.284375,3.7196875 46.0845312,3.6434375 45.931875,3.4909375 C45.6267187,3.18578125 45.6267187,2.69109375 45.931875,2.38609375 L47.494375,0.82359375 C47.7995312,0.51859375 48.2940625,0.51859375 48.5992187,0.82359375 C48.904375,1.12875 48.904375,1.6234375 48.5992187,1.9284375 L47.0367187,3.4909375 C46.8842187,3.6434375 46.684375,3.7196875 46.484375,3.7196875 Z" id="Path-Copy-2" fill="#FF6C6C" transform="translate(47.265547, 2.157266) scale(-1, 1) translate(-47.265547, -2.157266) "></path>
                    </g>
                </g>
                <g id="Group-33" transform="translate(19.000000, 12.000000)">
                    <path d="M43,53 L27,53 L27,32.1469907 C27,30.4093273 28.4458837,29 30.229822,29 L39.770178,29 C41.5541163,29 43,30.4093273 43,32.1469907 L43,53 Z" id="Fill-1" fill="#183165"></path>
                    <path d="M21,53 L5,53 L5,25.5642004 C5,23.5956074 6.64936245,22 8.68361202,22 L17.3169263,22 C19.3511759,22 21,23.5956074 21,25.5642004 L21,53 Z" id="Fill-3" fill="#183165"></path>
                    <path d="M47.2161218,54 L0.783878238,54 C0.350654865,54 0,53.552 0,53 C0,52.448 0.350654865,52 0.783878238,52 L47.2161218,52 C47.6493451,52 48,52.448 48,53 C48,53.552 47.6493451,54 47.2161218,54" id="Fill-5" fill="#183165"></path>
                    <path d="M17,51 C16.4473333,51 16,50.6609143 16,50.2431123 L16,41.7568877 C16,41.3390857 16.4473333,41 17,41 C17.5526667,41 18,41.3390857 18,41.7568877 L18,50.2431123 C18,50.6609143 17.5526667,51 17,51" id="Fill-8" fill="#FFFFFF"></path>
                    <path d="M17,39 C16.4473333,39 16,38.6731082 16,38.2692433 L16,36.7307567 C16,36.3268918 16.4473333,36 17,36 C17.5526667,36 18,36.3268918 18,36.7307567 L18,38.2692433 C18,38.6731082 17.5526667,39 17,39" id="Fill-10" fill="#FFFFFF"></path>
                    <path d="M17,35 C16.4473333,35 16,34.6731612 16,34.2693619 L16,32.7306381 C16,32.3273259 16.4473333,32 17,32 C17.5526667,32 18,32.3273259 18,32.7306381 L18,34.2693619 C18,34.6731612 17.5526667,35 17,35" id="Fill-12" fill="#FFFFFF"></path>
                    <path d="M37,50 C36.4473333,50 36,49.6223507 36,49.1570328 L36,43.8429672 C36,43.3770873 36.4473333,43 37,43 C37.5526667,43 38,43.3770873 38,43.8429672 L38,49.1570328 C38,49.6223507 37.5526667,50 37,50" id="Fill-14" fill="#FFFFFF"></path>
                    <path d="M37,41 C36.4473333,41 36,40.6731612 36,40.2693619 L36,38.7306381 C36,38.3273259 36.4473333,38 37,38 C37.5526667,38 38,38.3273259 38,38.7306381 L38,40.2693619 C38,40.6731612 37.5526667,41 37,41" id="Fill-16" fill="#FFFFFF"></path>
                    <path d="M37,37 C36.4473333,37 36,36.6731082 36,36.2692433 L36,34.7307567 C36,34.3268918 36.4473333,34 37,34 C37.5526667,34 38,34.3268918 38,34.7307567 L38,36.2692433 C38,36.6731082 37.5526667,37 37,37" id="Fill-18" fill="#FFFFFF"></path>
                    <path d="M17,30 C16.4473333,30 16,29.6731612 16,29.2693619 L16,27.7306381 C16,27.3273259 16.4473333,27 17,27 C17.5526667,27 18,27.3273259 18,27.7306381 L18,29.2693619 C18,29.6731612 17.5526667,30 17,30" id="Fill-20" fill="#FFFFFF"></path>
                    <path d="M47.2161218,57 L0.783878238,57 C0.350654865,57 0,56.552 0,56 C0,55.448 0.350654865,55 0.783878238,55 L47.2161218,55 C47.6493451,55 48,55.448 48,56 C48,56.552 47.6493451,57 47.2161218,57" id="Fill-22" fill="#183165"></path>
                    <g id="Group-39" transform="translate(4.000000, 0.000000)">
                        <path d="M19,10 C19,15.5231169 14.7465697,20 9.50025213,20 C4.25343029,20 0,15.5231169 0,10 C0,4.47741388 4.25343029,0 9.50025213,0 C14.7465697,0 19,4.47741388 19,10" id="Fill-25" fill="#F35229"></path>
                        <path d="M11.1240821,10.5177025 L9.88159015,6.98332868 L8.66378677,10.5177025 L11.1240821,10.5177025 Z M14.4761905,14.2857143 L12.4955595,14.2857143 L11.7085471,12.1223007 L8.10401037,12.1223007 L7.35982519,14.2857143 L5.42857143,14.2857143 L8.9409038,4.76190476 L10.8656075,4.76190476 L14.4761905,14.2857143 Z" id="Fill-27" fill="#FFFFFF"></path>
                    </g>
                    <g id="Group-20" transform="translate(25.000000, 6.000000)">
                        <path d="M19,10 C19,15.5231169 14.7465697,20 9.50025213,20 C4.25343029,20 0,15.5231169 0,10 C0,4.47688306 4.25343029,0 9.50025213,0 C14.7465697,0 19,4.47688306 19,10" id="Fill-29" fill="#F35229"></path>
                        <path d="M8.07791226,11.0868958 L8.07791226,13.633497 L9.69308428,13.633497 C10.3212872,13.633497 10.7206137,13.6143376 10.8896153,13.5749544 C11.148912,13.5233305 11.3599225,13.3961335 11.5231297,13.19496 C11.6863369,12.9937865 11.7679405,12.7239585 11.7679405,12.3860083 C11.7679405,12.1002142 11.7046857,11.8580609 11.5791416,11.658484 C11.4531148,11.4594393 11.2715588,11.3141473 11.0339909,11.2231403 C10.7959402,11.1321332 10.280244,11.0868958 9.48641952,11.0868958 L8.07791226,11.0868958 Z M8.07791226,7.29919238 L8.07791226,9.50145691 L9.2213285,9.50145691 C9.90119762,9.50145691 10.3237015,9.49081281 10.4888402,9.4689924 C10.7872486,9.43014143 11.0224022,9.31624955 11.1928524,9.12838117 C11.3642682,8.93944837 11.4492519,8.69197302 11.4492519,8.38435849 C11.4492519,8.0900491 11.3758569,7.85055682 11.2281013,7.66641387 C11.0813114,7.48227092 10.8620922,7.37104006 10.5714095,7.33165689 C10.3980622,7.31036869 9.90119762,7.29919238 9.07985006,7.29919238 L8.07791226,7.29919238 Z M6.33333333,5.71428571 L9.78724229,5.71428571 C10.4709743,5.71428571 10.9808761,5.74568581 11.3169478,5.80848601 C11.6525366,5.87128621 11.9533594,6.00220865 12.2184504,6.20125334 C12.4840243,6.40083024 12.7051749,6.66586836 12.8819022,6.99743211 C13.0586296,7.32846366 13.1469932,7.69994279 13.1469932,8.1113373 C13.1469932,8.55785734 13.0378665,8.96712303 12.8196131,9.33913437 C12.6018425,9.71221011 12.3058483,9.99108557 11.9325963,10.1773573 C12.4593983,10.3460663 12.8640363,10.6345215 13.1469932,11.0416584 C13.4299501,11.4487952 13.5714286,11.9272476 13.5714286,12.4770154 C13.5714286,12.9102303 13.4801677,13.3312045 13.297646,13.7410024 C13.1146415,14.1497359 12.8650021,14.477042 12.5487277,14.7218563 C12.2324534,14.9666707 11.8423012,15.1172847 11.3787541,15.1731662 C11.0875886,15.2082918 10.3864735,15.22958 9.27444328,15.2380952 L6.33333333,15.2380952 L6.33333333,5.71428571 Z" id="Fill-31" fill="#FFFFFF"></path>
                    </g>
                </g>
            </g>
        </g>
    </g>
</svg>