<?xml version="1.0" encoding="UTF-8"?>
<svg width="80px" height="77px" viewBox="0 0 80 77" version="1.1" xmlns="http://www.w3.org/2000/svg" xmlns:xlink="http://www.w3.org/1999/xlink">
    <!-- Generator: Sketch 56.3 (81716) - https://sketch.com -->
    <title>Group 31</title>
    <desc>Created with Sketch.</desc>
    <defs>
        <linearGradient x1="-3.04574141%" y1="112.484128%" x2="104.87563%" y2="-12.6612369%" id="linearGradient-1">
            <stop stop-color="#1C7CFB" stop-opacity="0.267318619" offset="0%"></stop>
            <stop stop-color="#1C7CFB" stop-opacity="0" offset="100%"></stop>
        </linearGradient>
    </defs>
    <g id="Page-1" stroke="none" stroke-width="1" fill="none" fill-rule="evenodd">
        <g id="Hey-Digital_Landing-Page-Design" transform="translate(-1081.000000, -1212.000000)" fill-rule="nonzero">
            <g id="Group-31" transform="translate(1081.000000, 1212.000000)">
                <g id="Group-10">
                    <path d="M80,40.21625 C80,35.8989062 78.04625,31.8514062 74.6332813,28.3667187 C72.2584375,25.9420312 70.2810938,23.164375 68.771875,20.124375 C63.9454688,10.4029687 55.7165625,4 46.375625,4 C39.7376563,4 33.6617187,7.2340625 28.9689063,12.5942187 C25.8626563,16.1421875 21.940625,18.86375 17.5646875,20.6209375 C6.96484375,24.8775 0,32.0651562 0,40.21625 C0,48.3673437 6.96484375,55.555 17.5646875,59.8115625 C21.940625,61.56875 25.8626563,64.2903125 28.9690625,67.8382812 C33.661875,73.1984375 39.7378125,76.4325 46.3757813,76.4325 C55.7167187,76.4325 63.945625,70.0295312 68.7720312,60.308125 C70.28125,57.268125 72.2585938,54.4904687 74.6334375,52.0657812 C78.04625,48.5810937 80,44.5335937 80,40.21625 Z" id="Path" fill="url(#linearGradient-1)"></path>
                    <path d="M8.40171875,46.1915625 C8.20171875,46.1915625 8.001875,46.1153125 7.84921875,45.9628125 L6.83921875,44.9528125 L5.82921875,45.9628125 C5.5240625,46.2678125 5.02953125,46.2678125 4.724375,45.9628125 C4.41921875,45.6576563 4.41921875,45.1629688 4.724375,44.8579688 L6.286875,43.2954688 C6.59203125,42.9904688 7.0865625,42.9904688 7.39171875,43.2954688 L8.95421875,44.8579688 C9.259375,45.163125 9.259375,45.6578125 8.95421875,45.9628125 C8.8015625,46.1151563 8.6015625,46.1915625 8.40171875,46.1915625 Z" id="Path" fill="#6C6CFF"></path>
                    <path d="M74.3515625,61.6704687 C74.1515625,61.6704687 73.9517188,61.5942187 73.7990625,61.4417187 L72.7890625,60.4317187 L71.7790625,61.4417187 C71.4739063,61.7467187 70.979375,61.7467187 70.6742188,61.4417187 C70.3690625,61.1365625 70.3690625,60.641875 70.6742188,60.336875 L72.2367188,58.774375 C72.541875,58.469375 73.0364063,58.469375 73.3415625,58.774375 L74.9040625,60.336875 C75.2092188,60.6420312 75.2092188,61.1367187 74.9040625,61.4417187 C74.7514063,61.5940625 74.5515625,61.6704687 74.3515625,61.6704687 Z" id="Path" fill="#6C6CFF"></path>
                    <path d="M14.6484375,71.8829688 C14.4484375,71.8829688 14.2485937,71.8067188 14.0959375,71.6542188 C13.7907812,71.3490625 13.7907812,70.854375 14.0959375,70.549375 L15.6584375,68.986875 C15.9635937,68.681875 16.458125,68.681875 16.7632812,68.986875 C17.0684375,69.2920313 17.0684375,69.7867188 16.7632812,70.0917188 L15.2007812,71.6542188 C15.0482812,71.8065625 14.8484375,71.8829688 14.6484375,71.8829688 L14.6484375,71.8829688 Z" id="Path" fill="#FF9D33"></path>
                    <path d="M72.6953125,35.7370313 C72.4953125,35.7370313 72.2954687,35.6607813 72.1428125,35.5082813 C71.8376562,35.203125 71.8376562,34.7084375 72.1428125,34.4034375 L73.7053125,32.8409375 C74.0104687,32.5359375 74.505,32.5359375 74.8101562,32.8409375 C75.1153125,33.1460938 75.1153125,33.6407813 74.8101562,33.9457813 L73.2476562,35.5082813 C73.0951562,35.6607813 72.8953125,35.7370313 72.6953125,35.7370313 Z" id="Path" fill="#FF6C6C"></path>
                    <path d="M6.484375,23.7196875 C6.284375,23.7196875 6.08453125,23.6434375 5.931875,23.4909375 C5.62671875,23.1857813 5.62671875,22.6910938 5.931875,22.3860938 L7.494375,20.8235938 C7.79953125,20.5185938 8.2940625,20.5185938 8.59921875,20.8235938 C8.904375,21.12875 8.904375,21.6234375 8.59921875,21.9284375 L7.03671875,23.4909375 C6.88421875,23.6434375 6.684375,23.7196875 6.484375,23.7196875 Z" id="Path" fill="#FF6C6C"></path>
                    <path d="M46.484375,3.7196875 C46.284375,3.7196875 46.0845312,3.6434375 45.931875,3.4909375 C45.6267187,3.18578125 45.6267187,2.69109375 45.931875,2.38609375 L47.494375,0.82359375 C47.7995312,0.51859375 48.2940625,0.51859375 48.5992187,0.82359375 C48.904375,1.12875 48.904375,1.6234375 48.5992187,1.9284375 L47.0367187,3.4909375 C46.8842187,3.6434375 46.684375,3.7196875 46.484375,3.7196875 Z" id="Path-Copy-2" fill="#FF6C6C" transform="translate(47.265547, 2.157266) scale(-1, 1) translate(-47.265547, -2.157266) "></path>
                </g>
                <g id="038-analytics-5" transform="translate(15.000000, 15.000000)">
                    <rect id="Rectangle" fill="#F35229" x="0.850746269" y="0.850746269" width="55.2985075" height="34.880597"></rect>
                    <path d="M56.1093662,36.5820896 L0.890633833,36.5820896 C0.356276147,36.5820896 0,36.2234148 0,35.6854597 L0,0.896629886 C0,0.35867472 0.356276147,0 0.890633833,0 L56.1093662,0 C56.6437239,0 57,0.35867472 57,0.896629886 L57,35.6855735 C57,36.1338315 56.6437239,36.5820896 56.1093662,36.5820896 Z M1.78126767,34.7889436 L55.2187323,34.7889436 L55.2187323,1.79325977 L1.78126767,1.79325977 L1.78126767,34.7889436 Z" id="Shape" fill="#183165"></path>
                    <rect id="Rectangle" fill="#FFFFFF" x="4.25373134" y="4.25373134" width="47.641791" height="27.2238806"></rect>
                    <path d="M51.6998183,49.6191887 L45.1307869,45.9402985 L38.5617554,49.6191887 C37.3919373,50.2630061 36.5820896,51.6425316 36.5820896,53.0221737 L36.5820896,56.1492537 L53.589463,56.1492537 L53.589463,53.0221737 C53.6794842,51.6425316 52.9596576,50.2630061 51.6998183,49.6191887 Z" id="Path" fill="#709EFF"></path>
                    <path d="M53.4671172,57 L36.6226013,57 C36.0878691,57 35.7313433,56.637681 35.7313433,56.0942599 L35.7313433,53.0147206 C35.7313433,51.2938489 36.6226013,49.6634707 38.1377512,48.8483391 L44.6439232,45.2253788 C44.9112893,45.0442767 45.2678152,45.0442767 45.5351812,45.2253788 L52.0413533,48.8483391 C53.5565032,49.6634707 54.4477612,51.2938489 54.4477612,53.0147206 L54.4477612,56.0942599 C54.3583752,56.637681 54.0019625,57 53.4671172,57 Z M37.5138593,55.1885198 L52.5759723,55.1885198 L52.5759723,53.0147206 C52.5759723,51.9278785 52.0412401,50.9315299 51.0608224,50.4787173 L45.0003359,47.1274675 L38.9398494,50.4787173 C38.0485914,51.0221384 37.4246995,52.018487 37.4246995,53.0147206 L37.4246995,55.1885198 L37.5138593,55.1885198 Z" id="Shape" fill="#183165"></path>
                    <path d="M49.3432836,42.5079658 C49.3432836,45.3242216 47.4426509,48.4925373 45.0895522,48.4925373 C42.7364536,48.4925373 40.8358209,45.3242216 40.8358209,42.5079658 C40.8358209,39.69171 42.7364536,38.2835821 45.0895522,38.2835821 C47.4426509,38.2835821 49.3432836,39.69171 49.3432836,42.5079658 Z" id="Path" fill="#FFFFFF"></path>
                    <path d="M45.1339566,49.3432836 C42.2043931,49.3432836 39.9850746,45.7526715 39.9850746,42.5122817 C39.9850746,39.4471142 42.0268882,37.4328358 45.1339566,37.4328358 C48.152329,37.4328358 50.1940299,39.4471142 50.1940299,42.5122817 C50.1941426,45.7526715 48.0635202,49.3432836 45.1339566,49.3432836 Z M45.1339566,39.1843919 C43.0921431,39.1843919 41.7605745,40.4105034 41.7605745,42.5122817 C41.7605745,45.0520046 43.4472656,47.5917275 45.1339566,47.5917275 C46.8206477,47.5917275 48.4186427,45.0520046 48.4186427,42.5122817 C48.4186427,40.4105034 47.1757702,39.1843919 45.1339566,39.1843919 Z" id="Shape" fill="#183165"></path>
                    <path d="M34.6914915,49.6191887 L28.1195431,45.9402985 L21.5477091,49.6191887 C20.3773715,50.2630061 19.5671642,51.6425316 19.5671642,53.0221737 L19.5671642,56.1492537 L36.5820896,56.1492537 L36.5820896,53.0221737 C36.5820896,51.6425316 35.8618291,50.2630061 34.6914915,49.6191887 Z" id="Path" fill="#709EFF"></path>
                    <path d="M37.2140046,57 L20.4584222,57 C19.92369,57 19.5671642,56.637681 19.5671642,56.0942599 L19.5671642,53.0147206 C19.5671642,51.2938489 20.4584222,49.6634707 21.9735721,48.8483391 L28.4797441,45.2253788 C28.7471102,45.0442767 29.103636,45.0442767 29.3710021,45.2253788 L35.8771742,48.8483391 C37.3923241,49.6634707 38.2835821,51.2938489 38.2835821,53.0147206 L38.2835821,56.0942599 C38.1052626,56.637681 37.7487368,57 37.2140046,57 Z M21.3496802,55.1885198 L36.4117932,55.1885198 L36.4117932,53.0147206 C36.4117932,51.9278785 35.877061,50.9315299 34.8966433,50.4787173 L28.8361568,47.1274675 L22.7756703,50.4787173 C21.8844123,51.0221384 21.2605204,52.018487 21.2605204,53.0147206 L21.2605204,55.1885198 L21.3496802,55.1885198 Z" id="Shape" fill="#183165"></path>
                    <path d="M33.1791045,42.5079658 C33.1791045,45.3242216 31.2784718,48.4925373 28.9253731,48.4925373 C26.5722745,48.4925373 24.6716418,45.3242216 24.6716418,42.5079658 C24.6716418,39.69171 26.5722745,38.2835821 28.9253731,38.2835821 C31.2784718,38.2835821 33.1791045,39.69171 33.1791045,42.5079658 Z" id="Path" fill="#FFFFFF"></path>
                    <path d="M28.0302225,49.3432836 C25.1006589,49.3432836 22.9701493,45.7526715 22.9701493,42.5122817 C22.9701493,39.4471142 25.0119628,37.4328358 28.0302225,37.4328358 C31.0484821,37.4328358 33.1791045,39.4471142 33.1791045,42.5122817 C33.1791045,45.7526715 30.9596733,49.3432836 28.0302225,49.3432836 Z M28.0302225,39.1843919 C25.9884089,39.1843919 24.7455364,40.4105034 24.7455364,42.5122817 C24.7455364,45.0520046 26.4322275,47.5917275 28.0302225,47.5917275 C29.7169135,47.5917275 31.4036046,45.0520046 31.4036046,42.5122817 C31.4036046,40.4105034 30.0719233,39.1843919 28.0302225,39.1843919 Z" id="Shape" fill="#183165"></path>
                    <path d="M18.5212617,49.6191887 L11.9519425,45.9402985 L5.38273763,49.6191887 C4.21286827,50.2630061 3.40298507,51.6425316 3.40298507,53.0221737 L3.40298507,56.1492537 L20.4111034,56.1492537 L20.4111034,53.0221737 C20.5010142,51.6425316 19.6911311,50.2630061 18.5212617,49.6191887 Z" id="Path" fill="#709EFF"></path>
                    <path d="M20.2880127,57 L3.4434968,57 C2.90876463,57 2.55223881,56.637681 2.55223881,56.0942599 L2.55223881,53.0147206 C2.55223881,51.2938489 3.4434968,49.6634707 4.95864671,48.8483391 L11.4648188,45.2253788 C11.7321848,45.0442767 12.0887107,45.0442767 12.3560768,45.2253788 L18.8622488,48.8483391 C20.3773987,49.6634707 21.2686567,51.2938489 21.2686567,53.0147206 L21.2686567,56.0942599 C21.1792707,56.637681 20.7336983,57 20.2880127,57 Z M4.3347548,55.1885198 L19.3968678,55.1885198 L19.3968678,53.0147206 C19.3968678,51.9278785 18.8621357,50.9315299 17.8817179,50.4787173 L11.8212314,47.1274675 L5.76074496,50.4787173 C4.86948697,51.0221384 4.24559505,52.018487 4.24559505,53.0147206 L4.24559505,55.1885198 L4.3347548,55.1885198 Z" id="Shape" fill="#183165"></path>
                    <path d="M16.1641791,42.5079658 C16.1641791,45.3242216 14.2635464,48.4925373 11.9104478,48.4925373 C9.55734912,48.4925373 7.65671642,45.3242216 7.65671642,42.5079658 C7.65671642,39.69171 9.55734912,38.2835821 11.9104478,38.2835821 C14.2635464,38.2835821 16.1641791,39.69171 16.1641791,42.5079658 Z" id="Path" fill="#FFFFFF"></path>
                    <g id="Group" transform="translate(6.805970, 5.955224)">
                        <path d="M5.20383558,43.2936736 C2.27518524,43.2936736 0.0565585317,39.6255653 0.0565585317,36.3152381 C0.0565585317,33.183915 2.09773566,31.1261624 5.20383558,31.1261624 C8.3099355,31.1261624 10.2623315,33.183915 10.2623315,36.3152381 C10.3511126,39.6255653 8.13248592,43.2936736 5.20383558,43.2936736 Z M5.20383558,32.9155223 C3.16265845,32.9155223 1.83150496,34.168097 1.83150496,36.3152381 C1.83150496,38.9097759 3.51767027,41.5043137 5.20383558,41.5043137 C6.89000089,41.5043137 8.48749774,38.9097759 8.48749774,36.3152381 C8.5761662,34.168097 7.33368116,32.9155223 5.20383558,32.9155223 Z" id="Shape" fill="#183165"></path>
                        <path d="M2.54141593,16.0957208 C2.18640411,15.7378261 2.18640411,15.2010408 2.54141593,14.8431461 L9.64108899,7.68581996 C9.99610081,7.32792526 10.5285622,7.32792526 10.883574,7.68581996 L14.6996976,11.5329324 L21.6219211,4.55449687 C21.9769329,4.19660217 22.5093943,4.19660217 22.8644061,4.55449687 L29.4316177,11.1750377 L40.1699648,0.349489685 C40.5249766,-0.0084050168 41.057438,-0.0084050168 41.4124498,0.349489685 C41.7674616,0.707384387 41.7674616,1.24416965 41.4124498,1.60206435 L30.1415287,13.0537862 C29.7865169,13.4116809 29.2540555,13.4116809 28.8990437,13.0537862 L22.331832,6.43324529 L15.3208274,13.4116809 C14.9658156,13.7695756 14.4333542,13.7695756 14.0783424,13.4116809 L10.2622188,9.56456838 L3.78367564,16.0957208 C3.42888915,16.4536155 2.89642775,16.4536155 2.54141593,16.0957208 Z" id="Path" fill="#183165"></path>
                        <polygon id="Path" fill="#183651" points="41.6785678 6.07535059 39.9036214 6.07535059 39.9036214 1.87045698 35.8213798 1.87045698 35.8213798 0.081097054 41.6785678 0.081097054"></polygon>
                        <rect id="Rectangle" fill="#183165" x="5.29250403" y="12.4274988" width="1.77494643" height="10.5571554"></rect>
                        <rect id="Rectangle" fill="#183165" x="10.883574" y="9.83296101" width="1.77494643" height="13.0621912"></rect>
                        <rect id="Rectangle" fill="#183165" x="16.9183243" y="9.56456838" width="1.77494643" height="13.4200859"></rect>
                        <rect id="Rectangle" fill="#183165" x="22.8642934" y="6.70163792" width="1.77494643" height="16.2830163"></rect>
                        <rect id="Rectangle" fill="#183165" x="28.8991564" y="12.0697177" width="1.77494643" height="10.8255481"></rect>
                        <rect id="Rectangle" fill="#183165" x="34.9339066" y="6.07535059" width="1.77494643" height="16.9093037"></rect>
                        <rect id="Rectangle" fill="#183651" x="1.47649314" y="0.975777018" width="1.77494643" height="1.78935993"></rect>
                        <rect id="Rectangle" fill="#183651" x="5.91374655" y="0.975777018" width="1.77494643" height="1.78935993"></rect>
                        <rect id="Rectangle" fill="#183651" x="10.2623315" y="0.975777018" width="1.77494643" height="1.78935993"></rect>
                    </g>
                </g>
            </g>
        </g>
    </g>
</svg>