<?xml version="1.0" encoding="UTF-8"?>
<svg width="80px" height="77px" viewBox="0 0 80 77" version="1.1" xmlns="http://www.w3.org/2000/svg" xmlns:xlink="http://www.w3.org/1999/xlink">
    <!-- Generator: Sketch 56.3 (81716) - https://sketch.com -->
    <title>Group 51</title>
    <desc>Created with Sketch.</desc>
    <defs>
        <linearGradient x1="-3.04574141%" y1="112.484128%" x2="104.87563%" y2="-12.6612369%" id="linearGradient-1">
            <stop stop-color="#1C7CFB" stop-opacity="0.267318619" offset="0%"></stop>
            <stop stop-color="#1C7CFB" stop-opacity="0" offset="100%"></stop>
        </linearGradient>
    </defs>
    <g id="Page-1" stroke="none" stroke-width="1" fill="none" fill-rule="evenodd">
        <g id="Hey-Digital_Paid-Social-Media-Management" transform="translate(-280.000000, -1266.000000)">
            <g id="Group-51" transform="translate(276.000000, 1263.000000)">
                <g id="Facebook-Ads" fill-rule="nonzero">
                    <g id="Group-10" transform="translate(4.000000, 3.000000)">
                        <path d="M80,40.21625 C80,35.8989062 78.04625,31.8514062 74.6332813,28.3667187 C72.2584375,25.9420312 70.2810938,23.164375 68.771875,20.124375 C63.9454688,10.4029687 55.7165625,4 46.375625,4 C39.7376563,4 33.6617187,7.2340625 28.9689063,12.5942187 C25.8626563,16.1421875 21.940625,18.86375 17.5646875,20.6209375 C6.96484375,24.8775 0,32.0651562 0,40.21625 C0,48.3673437 6.96484375,55.555 17.5646875,59.8115625 C21.940625,61.56875 25.8626563,64.2903125 28.9690625,67.8382812 C33.661875,73.1984375 39.7378125,76.4325 46.3757813,76.4325 C55.7167187,76.4325 63.945625,70.0295312 68.7720312,60.308125 C70.28125,57.268125 72.2585938,54.4904687 74.6334375,52.0657812 C78.04625,48.5810937 80,44.5335937 80,40.21625 Z" id="Path" fill="url(#linearGradient-1)"></path>
                        <path d="M8.40171875,46.1915625 C8.20171875,46.1915625 8.001875,46.1153125 7.84921875,45.9628125 L6.83921875,44.9528125 L5.82921875,45.9628125 C5.5240625,46.2678125 5.02953125,46.2678125 4.724375,45.9628125 C4.41921875,45.6576563 4.41921875,45.1629688 4.724375,44.8579688 L6.286875,43.2954688 C6.59203125,42.9904688 7.0865625,42.9904688 7.39171875,43.2954688 L8.95421875,44.8579688 C9.259375,45.163125 9.259375,45.6578125 8.95421875,45.9628125 C8.8015625,46.1151563 8.6015625,46.1915625 8.40171875,46.1915625 Z" id="Path" fill="#6C6CFF"></path>
                        <path d="M74.3515625,61.6704687 C74.1515625,61.6704687 73.9517188,61.5942187 73.7990625,61.4417187 L72.7890625,60.4317187 L71.7790625,61.4417187 C71.4739063,61.7467187 70.979375,61.7467187 70.6742188,61.4417187 C70.3690625,61.1365625 70.3690625,60.641875 70.6742188,60.336875 L72.2367188,58.774375 C72.541875,58.469375 73.0364063,58.469375 73.3415625,58.774375 L74.9040625,60.336875 C75.2092188,60.6420312 75.2092188,61.1367187 74.9040625,61.4417187 C74.7514063,61.5940625 74.5515625,61.6704687 74.3515625,61.6704687 Z" id="Path" fill="#6C6CFF"></path>
                        <path d="M14.6484375,71.8829688 C14.4484375,71.8829688 14.2485937,71.8067188 14.0959375,71.6542188 C13.7907812,71.3490625 13.7907812,70.854375 14.0959375,70.549375 L15.6584375,68.986875 C15.9635937,68.681875 16.458125,68.681875 16.7632812,68.986875 C17.0684375,69.2920313 17.0684375,69.7867188 16.7632812,70.0917188 L15.2007812,71.6542188 C15.0482812,71.8065625 14.8484375,71.8829688 14.6484375,71.8829688 L14.6484375,71.8829688 Z" id="Path" fill="#FF9D33"></path>
                        <path d="M72.6953125,35.7370313 C72.4953125,35.7370313 72.2954687,35.6607813 72.1428125,35.5082813 C71.8376562,35.203125 71.8376562,34.7084375 72.1428125,34.4034375 L73.7053125,32.8409375 C74.0104687,32.5359375 74.505,32.5359375 74.8101562,32.8409375 C75.1153125,33.1460938 75.1153125,33.6407813 74.8101562,33.9457813 L73.2476562,35.5082813 C73.0951562,35.6607813 72.8953125,35.7370313 72.6953125,35.7370313 Z" id="Path" fill="#FF6C6C"></path>
                        <path d="M6.484375,23.7196875 C6.284375,23.7196875 6.08453125,23.6434375 5.931875,23.4909375 C5.62671875,23.1857813 5.62671875,22.6910938 5.931875,22.3860938 L7.494375,20.8235938 C7.79953125,20.5185938 8.2940625,20.5185938 8.59921875,20.8235938 C8.904375,21.12875 8.904375,21.6234375 8.59921875,21.9284375 L7.03671875,23.4909375 C6.88421875,23.6434375 6.684375,23.7196875 6.484375,23.7196875 Z" id="Path" fill="#FF6C6C"></path>
                        <path d="M46.484375,3.7196875 C46.284375,3.7196875 46.0845312,3.6434375 45.931875,3.4909375 C45.6267187,3.18578125 45.6267187,2.69109375 45.931875,2.38609375 L47.494375,0.82359375 C47.7995312,0.51859375 48.2940625,0.51859375 48.5992187,0.82359375 C48.904375,1.12875 48.904375,1.6234375 48.5992187,1.9284375 L47.0367187,3.4909375 C46.8842187,3.6434375 46.684375,3.7196875 46.484375,3.7196875 Z" id="Path-Copy-2" fill="#FF6C6C" transform="translate(47.265547, 2.157266) scale(-1, 1) translate(-47.265547, -2.157266) "></path>
                    </g>
                </g>
                <g id="digital-marketing-(1)" transform="translate(19.000000, 19.000000)">
                    <g id="Group" transform="translate(0.751953, 0.751953)">
                        <g transform="translate(0.000000, 3.544922)" fill-rule="nonzero" id="Path">
                            <path d="M53.442168,34.1494141 L53.442168,3.62720703 C53.442168,1.66149414 51.8486719,0.0679980469 49.8830664,0.0679980469 L3.61302734,0.0679980469 C1.64731445,0.0679980469 0.0539257812,1.66149414 0.0539257812,3.62720703 L0.0539257812,34.1494141 L53.442168,34.1494141 Z" fill="#F35229"></path>
                            <path d="M50.9714648,3.62720703 L50.9714648,34.1494141 L53.442168,34.1494141 L53.442168,3.62720703 C53.442168,1.66149414 51.8486719,0.0679980469 49.8830664,0.0679980469 L47.4123633,0.0679980469 C49.3779687,0.0679980469 50.9714648,1.66149414 50.9714648,3.62720703 Z" fill="#D93C14"></path>
                            <path d="M49.8831738,32.101416 L49.8831738,4.51719727 C49.8831738,4.02574219 49.4847461,3.62742187 48.9933984,3.62742187 L4.50269531,3.62742187 C4.01124023,3.62742187 3.61291992,4.02584961 3.61291992,4.51719727 L3.61291992,32.101416 L49.8831738,32.101416 L49.8831738,32.101416 Z" fill="#F0F0F0"></path>
                            <path d="M48.9933984,3.62742187 L46.5224805,3.62742187 C47.0139355,3.62742187 47.4122559,4.02584961 47.4122559,4.51719727 L47.4122559,32.1013086 L49.8830664,32.1013086 L49.8830664,4.51719727 C49.8831738,4.02584961 49.4848535,3.62742187 48.9933984,3.62742187 Z" fill="#F0F0F0"></path>
                            <polygon fill="#75A1FF" points="20.0743555 39.2197266 19.1845801 46.3378223 19.1845801 47.3265332 34.3115137 47.3265332 34.3115137 46.3378223 33.4217383 39.2197266 33.4217383 37.7659863 20.0743555 37.7659863"></polygon>
                            <path d="M53.442168,32.101416 L0.0538183594,32.101416 L0.0538183594,35.660625 C0.0538183594,37.6263379 1.64731445,39.2197266 3.61291992,39.2197266 L49.882959,39.2197266 C51.8485645,39.2197266 53.442168,37.6262305 53.442168,35.660625 L53.442168,32.101416 L53.442168,32.101416 Z" fill="#F0F0F0"></path>
                            <path d="M50.9722168,32.101416 L50.9722168,35.660625 C50.9722168,37.6263379 49.3787207,39.2197266 47.4131152,39.2197266 L49.8830664,39.2197266 C51.8486719,39.2197266 53.442168,37.6262305 53.442168,35.660625 L53.442168,32.101416 L50.9722168,32.101416 Z" fill="#D8E4F0"></path>
                            <path d="M38.3460645,46.3383594 L15.1501367,46.3383594 C14.6755469,46.3383594 14.2907617,46.7231445 14.2907617,47.1977344 L14.2907617,49.0380859 C14.2907617,49.5126758 14.6755469,49.8974609 15.1501367,49.8974609 L38.3460645,49.8974609 C38.8206543,49.8974609 39.2054395,49.5126758 39.2054395,49.0380859 L39.2054395,47.1977344 C39.2054395,46.7231445 38.8206543,46.3383594 38.3460645,46.3383594 Z" fill="#ECF0F9"></path>
                            <path d="M38.3460645,46.3383594 L15.1501367,46.3383594 C14.6755469,46.3383594 14.2907617,46.7231445 14.2907617,47.1977344 L14.2907617,49.0380859 C14.2907617,49.5126758 14.6755469,49.8974609 15.1501367,49.8974609 L38.3460645,49.8974609 C38.8206543,49.8974609 39.2054395,49.5126758 39.2054395,49.0380859 L39.2054395,47.1977344 C39.2054395,46.7231445 38.8206543,46.3383594 38.3460645,46.3383594 Z" fill="#F0F0F0"></path>
                            <path d="M38.3460645,46.3383594 L35.8753613,46.3383594 C36.3499512,46.3383594 36.7347363,46.7231445 36.7347363,47.1977344 L36.7347363,49.0380859 C36.7347363,49.5126758 36.3499512,49.8974609 35.8753613,49.8974609 L38.3460645,49.8974609 C38.8206543,49.8974609 39.2054395,49.5126758 39.2054395,49.0380859 L39.2054395,47.1977344 C39.2054395,46.7231445 38.8206543,46.3383594 38.3460645,46.3383594 Z" fill="#D8E4F0"></path>
                        </g>
                        <path d="M46.3238574,35.646123 L7.17223633,35.646123 L7.17223633,1.77246094 C7.17223633,0.823173828 7.94169922,0.0537109375 8.89098633,0.0537109375 L44.6051074,0.0537109375 C45.5543945,0.0537109375 46.3238574,0.823173828 46.3238574,1.77246094 L46.3238574,35.646123 Z" id="Path" fill="#F0F0F0" fill-rule="nonzero"></path>
                        <path d="M44.6051074,0.0537109375 L42.1344043,0.0537109375 C43.0836914,0.0537109375 43.8531543,0.82328125 43.8531543,1.77246094 L43.8531543,35.646123 L46.3238574,35.646123 L46.3238574,1.77246094 C46.3238574,0.823173828 45.5543945,0.0537109375 44.6051074,0.0537109375 Z" id="Path" fill="#799CE4" fill-rule="nonzero"></path>
                        <g id="Group-4" transform="translate(14.831380, 5.664714)">
                            <path d="M6.81877396,9.79633789 L1.52663529,12.8517741 C0.795808469,13.2734945 0.545157428,14.2078857 0.966877805,14.9387126 C0.96714636,14.9390706 0.96714636,14.9394287 0.967504433,14.9397868 L2.49531205,17.5857666 C2.91703243,18.3165934 3.85133419,18.5666178 4.58216101,18.1448975 L9.87456823,15.0893717 L6.81877396,9.79633789 Z" id="Fill-2" fill="#F0F0F0"></path>
                            <polygon id="Fill-3" fill="#F0F0F0" points="17.6354406 13.254248 12.2884273 3.99233398 6.81877396 9.79633789 9.87456823 15.0893717"></polygon>
                            <path d="M12.5681718,2.94953613 L13.8913407,2.18549805 C14.2567541,1.97468262 14.7239497,2.0998291 14.9348547,2.46524251 L20.2817785,11.726888 C20.4930415,12.0923014 20.3678055,12.5594971 20.0023921,12.7703125 L18.6792232,13.534082 C18.3138098,13.7452555 17.8466141,13.6200195 17.6357987,13.2546061 L12.2884273,3.99296061 C12.0776119,3.6275472 12.2027583,3.16044108 12.5681718,2.94953613 Z" id="Fill-4" fill="#F0F0F0"></path>
                            <polygon id="Fill-5" fill="#78B9EB" points="16.8433833 5.77249349 18.1665523 5.00881348 19.6943599 7.65488281 18.3711014 8.4189209"></polygon>
                            <polygon id="Fill-6" fill="#F0F0F0" points="9.06299597 24.3783203 11.0477941 23.2323975 7.22823034 16.6171794 4.58216101 18.1448975"></polygon>
                            <path d="M6.34074662,9.18994141 L1.14618282,12.1902344 C0.0510168025,12.8245605 -0.324870242,14.2249837 0.305964719,15.3222982 L1.83368282,17.9676514 C2.31726029,18.8408122 3.32335567,19.284196 4.29409135,19.0523438 L8.44442501,24.8248372 C8.67341264,25.1430745 9.10632279,25.236084 9.44586544,25.0403076 L11.4320959,23.8947428 C11.7971512,23.6834798 11.9226558,23.2163737 11.7114823,22.8513184 L9.80187943,19.5432617 L11.1250484,18.7795817 C11.4901037,18.5687663 11.6153397,18.1015706 11.4044348,17.7361572 L10.2756994,15.7810791 L17.4049312,14.0952718 C17.6640865,14.2897054 17.9784745,14.3966797 18.30262,14.400887 C18.5708166,14.4016032 18.8344478,14.3309733 19.0663,14.1963379 L20.3901851,13.4322998 C21.1210119,13.0105794 21.3713944,12.0761882 20.949316,11.3453613 L19.4215979,8.69830729 L20.0825109,8.31642253 C20.4479244,8.10596517 20.573787,7.6391276 20.3632401,7.27335612 C20.3632401,7.27299805 20.362882,7.27263997 20.362882,7.2722819 L18.8348059,4.62701823 C18.6243485,4.26124674 18.1575109,4.13565267 17.7917395,4.34584147 C17.7913814,4.34619954 17.7910233,4.34655762 17.7906652,4.34655762 L17.1297522,4.72871094 L15.6020341,2.08273112 C15.1803137,1.3519043 14.2459224,1.10152181 13.5150956,1.52360026 L12.1912105,2.28728027 C11.6645747,2.59253743 11.3691646,3.18138835 11.4394364,3.78599447 L6.34074662,9.18994141 Z M16.4608719,12.7465902 L10.2518876,14.2183594 L7.76292273,9.90716146 L12.1383947,5.26411947 L16.4608719,12.7465902 Z M3.15685176,17.2028971 L1.62877559,14.5586182 C1.41724402,14.1935628 1.54167435,13.7260091 1.90681921,13.5144775 C1.90744584,13.5141195 1.90780391,13.5137614 1.90852006,13.5134033 L6.53938757,10.8397624 L8.83078568,14.8121338 L4.20036576,17.4857747 C3.83459428,17.6959635 3.36739864,17.5697428 3.15720984,17.2039714 C3.15720984,17.2036133 3.15685176,17.2032552 3.15685176,17.2028971 Z M9.28088334,23.3712402 L5.69523067,18.3840902 L6.94884395,17.6606038 L10.0043697,22.952653 L9.28088334,23.3712402 Z M8.65389766,17.558195 L9.31445267,17.1763102 L9.69624792,17.8379395 L9.03569291,18.2197347 L8.65389766,17.558195 Z M14.2735835,2.84641113 L19.6208654,12.1087728 L18.2962642,12.8724528 L12.9489823,3.61044922 L14.2735835,2.84641113 Z" id="Fill-11" fill="#183165"></path>
                            <path d="M21.5770178,4.80426432 C21.7137121,5.04095052 21.966243,5.18650716 22.2392736,5.18615178 C22.373551,5.18650716 22.5054113,5.15114746 22.6211584,5.08400879 L23.9450435,4.3199707 C24.3118892,4.11157227 24.4401688,3.64509277 24.2317704,3.27824707 C24.0233719,2.91140137 23.5568925,2.78347982 23.1900468,2.99187826 C23.1869136,2.9935791 23.1841385,2.99501139 23.1813635,2.99680176 L21.8574784,3.76083984 C21.492065,3.9712972 21.3661128,4.43849284 21.5770178,4.80390625 L21.5770178,4.80426432 Z" id="Fill-12" fill="#F35229"></path>
                            <path d="M22.3424882,7.49607747 C22.3665686,7.9003418 22.7015458,8.21571452 23.1065262,8.21508882 L23.1529862,8.21508882 L24.8580399,8.11258952 C25.2801184,8.08779297 25.6014888,7.72515462 25.5766923,7.30343424 C25.5514481,6.88135579 25.1891678,6.55962728 24.7671789,6.58487142 L23.0621252,6.68728027 C22.641121,6.71109212 22.3186763,7.07158203 22.3424882,7.49294434 L22.3424882,7.49607747 Z" id="Fill-13" fill="#F35229"></path>
                            <path d="M19.628564,2.7946696 C19.9803706,3.02679036 20.4538326,2.93064779 20.686759,2.57919922 L21.6284012,1.15603841 C21.8448563,0.793758138 21.7270503,0.324861654 21.3647701,0.108406576 C21.0252274,-0.0947998047 20.5864091,-0.0049235026 20.3541988,0.315730794 L19.412467,1.73647461 C19.1799882,2.08828125 19.2768469,2.56210124 19.628564,2.7946696 Z" id="Fill-15" fill="#F35229"></path>
                        </g>
                    </g>
                    <g id="Group" fill-rule="nonzero">
                        <path d="M55,36.398291 C55,36.3968945 55,36.395498 55,36.3941016 L55,7.92397461 C55,5.5171875 53.0418066,3.55920898 50.6350195,3.55920898 L47.8814746,3.55920898 L47.8814746,2.52441406 C47.8814746,1.13244141 46.7490332,-1.0658141e-14 45.3570605,-1.0658141e-14 L9.64293945,-1.0658141e-14 C8.2509668,-1.0658141e-14 7.11852539,1.13244141 7.11852539,2.52441406 L7.11852539,3.55920898 L4.36498047,3.55920898 C1.95819336,3.55920898 2.44422538e-15,5.51729492 2.44422538e-15,7.92397461 L2.44422538e-15,36.3950684 C2.44422538e-15,36.3961426 2.44422538e-15,36.3971094 2.44422538e-15,36.3981836 C2.44422538e-15,36.3992578 2.44422538e-15,36.4002246 2.44422538e-15,36.4012988 L2.44422538e-15,39.9573926 C2.44422538e-15,42.3641797 1.95830078,44.3221582 4.36498047,44.3221582 L8.62844727,44.3221582 C9.07338867,44.3221582 9.43411133,43.9614355 9.43411133,43.5164941 C9.43411133,43.0715527 9.07338867,42.7108301 8.62844727,42.7108301 L4.36498047,42.7108301 C2.84667969,42.7108301 1.61154297,41.4755859 1.61154297,39.9573926 L1.61154297,37.2038477 L53.388457,37.2038477 L53.388457,39.9573926 C53.388457,41.4756934 52.1533203,42.7108301 50.6350195,42.7108301 L11.8509961,42.7108301 C11.4060547,42.7108301 11.045332,43.0715527 11.045332,43.5164941 C11.045332,43.9614355 11.4060547,44.3221582 11.8509961,44.3221582 L19.9136523,44.3221582 L19.2251855,49.8294629 L15.0427148,49.8294629 C14.5977734,49.8294629 14.2370508,50.1901855 14.2370508,50.635127 L14.2370508,54.1943359 C14.2370508,54.6392773 14.5977734,55 15.0427148,55 L39.9573926,55 C40.402334,55 40.7630566,54.6392773 40.7630566,54.1943359 L40.7630566,50.6352344 C40.7630566,50.190293 40.402334,49.8295703 39.9573926,49.8295703 L35.774707,49.8295703 L35.0862402,44.3222656 L50.6349121,44.3222656 C53.0416992,44.3222656 55,42.3641797 55,39.9575 L55,36.402373 C55,36.4009766 55,36.3996875 55,36.398291 Z M26.5261133,44.3222656 L28.4739941,44.3222656 L28.4739941,46.2701465 L26.5261133,46.2701465 L26.5261133,44.3222656 Z M39.1517285,53.3886719 L15.8483789,53.3886719 L15.8483789,51.4408984 L39.1517285,51.4408984 L39.1517285,53.3886719 Z M34.150918,49.8295703 L20.849082,49.8295703 L21.5375488,44.3222656 L24.9147852,44.3222656 L24.9147852,47.0758105 C24.9147852,47.520752 25.2755078,47.8814746 25.7204492,47.8814746 L29.2796582,47.8814746 C29.7245996,47.8814746 30.0853223,47.520752 30.0853223,47.0758105 L30.0853223,44.3222656 L33.4624512,44.3222656 L34.150918,49.8295703 Z M49.8294629,35.592627 L47.8814746,35.592627 L47.8814746,8.72985352 L49.7453516,8.72985352 C49.7917578,8.72985352 49.8294629,8.76766602 49.8294629,8.81396484 L49.8294629,35.592627 Z M8.72985352,2.52441406 C8.72985352,2.02092773 9.13945313,1.61132812 9.64293945,1.61132812 L45.3570605,1.61132812 C45.8605469,1.61132812 46.2701465,2.02092773 46.2701465,2.52441406 L46.2701465,35.5924121 L8.72985352,35.5924121 L8.72985352,2.52441406 Z M1.61154297,7.92397461 C1.61154297,6.40567383 2.84667969,5.17053711 4.36498047,5.17053711 L7.11852539,5.17053711 L7.11852539,7.11852539 L5.25464844,7.11852539 C4.31975586,7.11852539 3.55920898,7.87907227 3.55920898,8.81396484 L3.55920898,10.8744238 C3.55920898,11.3193652 3.91993164,11.6800879 4.36487305,11.6800879 C4.80981445,11.6800879 5.17053711,11.3193652 5.17053711,10.8744238 L5.17053711,8.81407227 C5.17053711,8.76766602 5.20834961,8.72996094 5.25464844,8.72996094 L7.11852539,8.72996094 L7.11852539,35.592627 L5.17053711,35.592627 L5.17053711,14.0971875 C5.17053711,13.6522461 4.80981445,13.2915234 4.36487305,13.2915234 C3.91993164,13.2915234 3.55920898,13.6522461 3.55920898,14.0971875 L3.55920898,35.592627 L1.61154297,35.592627 L1.61154297,7.92397461 Z M51.440791,35.592627 L51.440791,8.81407227 C51.440791,7.87917969 50.6801367,7.11863281 49.7453516,7.11863281 L47.8814746,7.11863281 L47.8814746,5.17053711 L50.6350195,5.17053711 C52.1533203,5.17053711 53.388457,6.40578125 53.388457,7.92397461 L53.388457,35.592627 L51.440791,35.592627 L51.440791,35.592627 Z" id="Shape" fill="#183165"></path>
                        <path d="M29.2795508,40.7629492 C29.7244922,40.7629492 30.0852148,40.4022266 30.0852148,39.9572852 C30.0852148,39.5123438 29.7244922,39.1516211 29.2795508,39.1516211 L25.7203418,39.1516211 C25.2754004,39.1516211 24.9146777,39.5123438 24.9146777,39.9572852 C24.9146777,40.4022266 25.2754004,40.7629492 25.7203418,40.7629492 L29.2795508,40.7629492 Z" id="Path" fill="#3761BA"></path>
                    </g>
                </g>
            </g>
        </g>
    </g>
</svg>