<?xml version="1.0" encoding="UTF-8"?>
<svg width="80px" height="77px" viewBox="0 0 80 77" version="1.1" xmlns="http://www.w3.org/2000/svg" xmlns:xlink="http://www.w3.org/1999/xlink">
    <!-- Generator: Sketch 56.3 (81716) - https://sketch.com -->
    <title>Group 51</title>
    <desc>Created with Sketch.</desc>
    <defs>
        <linearGradient x1="-3.04574141%" y1="112.484128%" x2="104.87563%" y2="-12.6612369%" id="linearGradient-1">
            <stop stop-color="#1C7CFB" stop-opacity="0.267318619" offset="0%"></stop>
            <stop stop-color="#1C7CFB" stop-opacity="0" offset="100%"></stop>
        </linearGradient>
    </defs>
    <g id="Page-1" stroke="none" stroke-width="1" fill="none" fill-rule="evenodd">
        <g id="Hey-Digital_Landing-Page-Design" transform="translate(-280.000000, -916.000000)" fill-rule="nonzero">
            <g id="Group-51" transform="translate(276.000000, 913.000000)">
                <g id="Facebook-Ads-Copy">
                    <g id="Group-10" transform="translate(4.000000, 3.000000)">
                        <path d="M80,40.21625 C80,35.8989062 78.04625,31.8514062 74.6332813,28.3667187 C72.2584375,25.9420312 70.2810938,23.164375 68.771875,20.124375 C63.9454688,10.4029687 55.7165625,4 46.375625,4 C39.7376563,4 33.6617187,7.2340625 28.9689063,12.5942187 C25.8626563,16.1421875 21.940625,18.86375 17.5646875,20.6209375 C6.96484375,24.8775 0,32.0651562 0,40.21625 C0,48.3673437 6.96484375,55.555 17.5646875,59.8115625 C21.940625,61.56875 25.8626563,64.2903125 28.9690625,67.8382812 C33.661875,73.1984375 39.7378125,76.4325 46.3757813,76.4325 C55.7167187,76.4325 63.945625,70.0295312 68.7720312,60.308125 C70.28125,57.268125 72.2585938,54.4904687 74.6334375,52.0657812 C78.04625,48.5810937 80,44.5335937 80,40.21625 Z" id="Path" fill="url(#linearGradient-1)"></path>
                        <path d="M8.40171875,46.1915625 C8.20171875,46.1915625 8.001875,46.1153125 7.84921875,45.9628125 L6.83921875,44.9528125 L5.82921875,45.9628125 C5.5240625,46.2678125 5.02953125,46.2678125 4.724375,45.9628125 C4.41921875,45.6576563 4.41921875,45.1629688 4.724375,44.8579688 L6.286875,43.2954688 C6.59203125,42.9904688 7.0865625,42.9904688 7.39171875,43.2954688 L8.95421875,44.8579688 C9.259375,45.163125 9.259375,45.6578125 8.95421875,45.9628125 C8.8015625,46.1151563 8.6015625,46.1915625 8.40171875,46.1915625 Z" id="Path" fill="#6C6CFF"></path>
                        <path d="M74.3515625,61.6704687 C74.1515625,61.6704687 73.9517188,61.5942187 73.7990625,61.4417187 L72.7890625,60.4317187 L71.7790625,61.4417187 C71.4739063,61.7467187 70.979375,61.7467187 70.6742188,61.4417187 C70.3690625,61.1365625 70.3690625,60.641875 70.6742188,60.336875 L72.2367188,58.774375 C72.541875,58.469375 73.0364063,58.469375 73.3415625,58.774375 L74.9040625,60.336875 C75.2092188,60.6420312 75.2092188,61.1367187 74.9040625,61.4417187 C74.7514063,61.5940625 74.5515625,61.6704687 74.3515625,61.6704687 Z" id="Path" fill="#6C6CFF"></path>
                        <path d="M14.6484375,71.8829688 C14.4484375,71.8829688 14.2485937,71.8067188 14.0959375,71.6542188 C13.7907812,71.3490625 13.7907812,70.854375 14.0959375,70.549375 L15.6584375,68.986875 C15.9635937,68.681875 16.458125,68.681875 16.7632812,68.986875 C17.0684375,69.2920313 17.0684375,69.7867188 16.7632812,70.0917188 L15.2007812,71.6542188 C15.0482812,71.8065625 14.8484375,71.8829688 14.6484375,71.8829688 L14.6484375,71.8829688 Z" id="Path" fill="#FF9D33"></path>
                        <path d="M72.6953125,35.7370313 C72.4953125,35.7370313 72.2954687,35.6607813 72.1428125,35.5082813 C71.8376562,35.203125 71.8376562,34.7084375 72.1428125,34.4034375 L73.7053125,32.8409375 C74.0104687,32.5359375 74.505,32.5359375 74.8101562,32.8409375 C75.1153125,33.1460938 75.1153125,33.6407813 74.8101562,33.9457813 L73.2476562,35.5082813 C73.0951562,35.6607813 72.8953125,35.7370313 72.6953125,35.7370313 Z" id="Path" fill="#FF6C6C"></path>
                        <path d="M6.484375,23.7196875 C6.284375,23.7196875 6.08453125,23.6434375 5.931875,23.4909375 C5.62671875,23.1857813 5.62671875,22.6910938 5.931875,22.3860938 L7.494375,20.8235938 C7.79953125,20.5185938 8.2940625,20.5185938 8.59921875,20.8235938 C8.904375,21.12875 8.904375,21.6234375 8.59921875,21.9284375 L7.03671875,23.4909375 C6.88421875,23.6434375 6.684375,23.7196875 6.484375,23.7196875 Z" id="Path" fill="#FF6C6C"></path>
                        <path d="M46.484375,3.7196875 C46.284375,3.7196875 46.0845312,3.6434375 45.931875,3.4909375 C45.6267187,3.18578125 45.6267187,2.69109375 45.931875,2.38609375 L47.494375,0.82359375 C47.7995312,0.51859375 48.2940625,0.51859375 48.5992187,0.82359375 C48.904375,1.12875 48.904375,1.6234375 48.5992187,1.9284375 L47.0367187,3.4909375 C46.8842187,3.6434375 46.684375,3.7196875 46.484375,3.7196875 Z" id="Path-Copy-2" fill="#FF6C6C" transform="translate(47.265547, 2.157266) scale(-1, 1) translate(-47.265547, -2.157266) "></path>
                    </g>
                </g>
                <g id="036-data-driven" transform="translate(14.000000, 23.000000)">
                    <path d="M57.8856351,39 L2.86436492,39 C1.69656653,39 0.75,38.0498414 0.75,36.8776114 L0.75,2.87238865 C0.75,1.70015862 1.69656653,0.75 2.86436492,0.75 L57.8856351,0.75 C59.0534335,0.75 60,1.70015862 60,2.87238865 L60,36.8776114 C60,38.0498414 59.0534335,39 57.8856351,39 Z" id="Path" fill="#F0F0F0"></path>
                    <polygon id="Path" fill="#3761BA" points="5 24 31.25 24 31.25 27.75 5 27.75"></polygon>
                    <polygon id="Path" fill="#3761BA" points="5 30.75 31.25 30.75 31.25 34.5 5 34.5"></polygon>
                    <path d="M57.1372679,0.75 L54.75,0.75 C55.9168966,0.75 56.8627321,1.70015862 56.8627321,2.87238865 L56.8627321,36.8776114 C56.8627321,38.0498414 55.9168966,39 54.75,39 L57.1372679,39 C58.3041645,39 59.25,38.0498414 59.25,36.8776114 L59.25,2.87238865 C59.25,1.70015862 58.3041645,0.75 57.1372679,0.75 Z" id="Path" fill="#D6D1CF"></path>
                    <path d="M2.8627321,39 L5.25,39 C4.08310345,39 3.1372679,38.0498414 3.1372679,36.8776114 L3.1372679,2.87238865 C3.1372679,1.70015862 4.08310345,0.75 5.25,0.75 L2.8627321,0.75 C1.69583554,0.75 0.75,1.70015862 0.75,2.87238865 L0.75,36.8776114 C0.75,38.0498414 1.69583554,39 2.8627321,39 Z" id="Path" fill="#CECECE"></path>
                    <path d="M57.4166667,39 L2.58333333,39 C1.15880952,39 0,37.8390358 0,36.4116247 L0,2.58813671 C0,1.16120272 1.15880952,0 2.58333333,0 L57.4166667,0 C58.8409524,0 60,1.16096418 60,2.58813671 L60,36.4118633 C60,37.8390358 58.8411905,39 57.4166667,39 Z M2.58333333,0.954151784 C1.68404762,0.954151784 0.952380952,1.68694035 0.952380952,2.58813671 L0.952380952,36.4118633 C0.952380952,37.3128211 1.68404762,38.0460868 2.58333333,38.0460868 L57.4166667,38.0460868 C58.3159524,38.0460868 59.047619,37.3130596 59.047619,36.4118633 L59.047619,2.58813671 C59.047619,1.68717889 58.3161905,0.954151784 57.4166667,0.954151784 L2.58333333,0.954151784 Z" id="Shape" fill="#183165"></path>
                    <path d="M49.5,47.25 L11.25,47.25 L11.25,44.2441316 C11.25,43.0046609 12.186617,42 13.3421404,42 L47.4078596,42 C48.563383,42 49.5,43.0046609 49.5,44.2441316 L49.5,47.25 Z" id="Path" fill="#F35229"></path>
                    <path d="M47.3872679,42 L45,42 C46.1668966,42 47.1127321,43.0046124 47.1127321,44.2440232 L47.1127321,47.25 L49.5,47.25 L49.5,44.2440232 C49.5,43.0046124 48.5541645,42 47.3872679,42 Z" id="Path" fill="#C74928"></path>
                    <path d="M12.6127321,42 L15,42 C13.8331034,42 12.8872679,43.0046124 12.8872679,44.2440232 L12.8872679,47.25 L10.5,47.25 L10.5,44.2440232 C10.5,43.0046124 11.4458355,42 12.6127321,42 Z" id="Path" fill="#C74928"></path>
                    <polygon id="Path" fill="#F0F0F0" points="18.75 39 41.25 39 41.25 42.75 18.75 42.75"></polygon>
                    <path d="M2.625,9.75 C2.418,9.75 2.25,9.54 2.25,9.28125 L2.25,6.46875 C2.25,6.21 2.418,6 2.625,6 C2.832,6 3,6.21 3,6.46875 L3,9.28125 C3,9.54023437 2.832,9.75 2.625,9.75 Z" id="Path" fill="#183165"></path>
                    <path d="M49.7702756,48 L10.9794847,48 C10.7148091,48 10.5,47.7823922 10.5,47.5142684 L10.5,44.635337 C10.5,43.1822708 11.666826,42 13.1012044,42 L47.6485558,42 C49.0829343,42 50.25,43.1820279 50.25,44.635337 L50.25,47.5142684 C50.25,47.7823922 50.0351909,48 49.7702756,48 Z M11.4589694,47.0285367 L49.2907909,47.0285367 L49.2907909,44.635337 C49.2907909,43.7180328 48.5540627,42.9714633 47.6483161,42.9714633 L13.1012044,42.9714633 C12.1956976,42.9714633 11.4589694,43.7177899 11.4589694,44.635337 L11.4589694,47.0285367 Z" id="Shape" fill="#183165"></path>
                    <path d="M41.5302746,42.75 L19.2197254,42.75 C18.960437,42.75 18.75,42.5395067 18.75,42.2801488 L18.75,38.7198512 C18.75,38.4604933 18.960437,38.25 19.2197254,38.25 L41.5302746,38.25 C41.789563,38.25 42,38.4604933 42,38.7198512 L42,42.2801488 C42,42.5395067 41.7897979,42.75 41.5302746,42.75 Z M19.6894509,41.8102976 L41.0605491,41.8102976 L41.0605491,39.1897024 L19.6894509,39.1897024 L19.6894509,41.8102976 Z" id="Shape" fill="#183165"></path>
                    <path d="M55.5,22.2586413 L55.5,18.7413587 L53.5534845,18.7413587 C53.3274128,17.6359064 52.8908358,16.6073282 52.2899737,15.6970544 L53.6681967,14.3188313 L51.1811687,11.8318033 L49.8029456,13.2100263 C48.8926718,12.6091642 47.864333,12.1725872 46.7586413,11.9465155 L46.7586413,10 L43.2413587,10 L43.2413587,11.9465155 C42.1359064,12.1725872 41.1073282,12.6091642 40.1970544,13.2100263 L38.8188313,11.8318033 L36.3318033,14.3188313 L37.7100263,15.6970544 C37.1091642,16.6073282 36.6725872,17.635667 36.4465155,18.7413587 L34.5,18.7413587 L34.5,22.2586413 L36.4465155,22.2586413 C36.6725872,23.3640936 37.1091642,24.3926718 37.7100263,25.3029456 L36.3318033,26.6811687 L38.8190708,29.1681967 L40.1972938,27.7899737 C41.1075677,28.3908358 42.1359064,28.8274128 43.2415981,29.0534845 L43.2415981,31 L46.7588808,31 L46.7588808,29.0534845 C47.864333,28.8274128 48.8929113,28.3908358 49.8031851,27.7899737 L51.1814082,29.1681967 L53.6684362,26.6811687 L52.2902131,25.3029456 C52.8910753,24.3926718 53.3276523,23.364333 53.553724,22.2586413 L55.5,22.2586413 Z M45.0001197,26.1947793 C41.8549932,26.1947793 39.3054602,23.6452463 39.3054602,20.4998803 C39.3054602,17.3547537 41.8549932,14.8052207 45.0001197,14.8052207 C48.1452463,14.8052207 50.6950188,17.3547537 50.6950188,20.4998803 C50.6947793,23.6450068 48.1452463,26.1947793 45.0001197,26.1947793 Z" id="Shape" fill="#F35229"></path>
                    <path d="M46.3670875,31.5 L42.8829125,31.5 C42.6210301,31.5 42.4084878,31.2874531 42.4084878,31.025565 L42.4084878,29.4762973 C41.5381557,29.2592433 40.7093358,28.9150407 39.9350747,28.4493827 L38.8379676,29.5467509 C38.6600583,29.7246641 38.3450404,29.7246641 38.1671311,29.5467509 L35.7034437,27.0830098 C35.5181808,26.8977429 35.5181808,26.5974255 35.7034437,26.4121586 L36.8005508,25.3147904 C36.3351401,24.541224 35.990945,23.7121488 35.7736585,22.8413233 L34.2244247,22.8413233 C33.9625423,22.8413233 33.75,22.6287764 33.75,22.3668883 L33.75,18.8828745 C33.75,18.6209864 33.9625423,18.4084395 34.2244247,18.4084395 L35.7736585,18.4084395 C35.990945,17.537614 36.3351401,16.7085387 36.8005508,15.9349724 L35.7034437,14.8376042 C35.5181808,14.6523373 35.5181808,14.3520199 35.7034437,14.166753 L38.1671311,11.7032491 C38.2560857,11.6142925 38.3768268,11.5642396 38.5025494,11.5642396 C38.6282719,11.5642396 38.749013,11.6142925 38.8379676,11.7032491 L39.9350747,12.8006173 C40.7088614,12.3351965 41.5379185,11.9909939 42.4084878,11.7737027 L42.4084878,10.224435 C42.4084878,9.9625469 42.6210301,9.75 42.8829125,9.75 L46.3670875,9.75 C46.6289699,9.75 46.8415122,9.9625469 46.8415122,10.224435 L46.8415122,11.7737027 C47.7120815,11.9909939 48.5411386,12.3351965 49.3146881,12.8003801 L50.4120324,11.7032491 C50.5972952,11.5179822 50.8976061,11.5179822 51.0828689,11.7032491 L53.5465563,14.1669902 C53.7318192,14.3522571 53.7318192,14.6525745 53.5465563,14.8378414 L52.4494492,15.9352096 C52.9148599,16.708776 53.259055,17.5378512 53.4763415,18.4086767 L55.0255753,18.4086767 C55.2874577,18.4086767 55.5,18.6212236 55.5,18.8831117 L55.5,22.3671255 C55.5,22.6290136 55.2874577,22.8415605 55.0255753,22.8415605 L53.4763415,22.8415605 C53.259055,23.712386 52.9148599,24.5414613 52.4494492,25.3150276 L53.5465563,26.4123958 C53.7318192,26.5976627 53.7318192,26.8979801 53.5465563,27.083247 L51.0828689,29.5469882 C50.9939143,29.6359447 50.8731732,29.6859976 50.7474506,29.6859976 C50.6217281,29.6859976 50.500987,29.6359447 50.4120324,29.5469882 L49.3149253,28.4496199 C48.5406642,28.9152779 47.7118443,29.2594805 46.8415122,29.4765346 L46.8415122,31.0258022 C46.8415122,31.2876903 46.6289699,31.5 46.3670875,31.5 Z M43.3573372,30.5511299 L45.8926628,30.5511299 L45.8926628,29.097461 C45.8926628,28.8721043 46.0513578,28.6775859 46.2722025,28.6325146 C47.288183,28.4249493 48.2467581,28.0271355 49.12136,27.4502225 C49.3097066,27.3256833 49.559254,27.3513028 49.7181863,27.510713 L50.7476879,28.5404742 L52.5405388,26.7475842 L51.5108,25.7178229 C51.3513933,25.5584128 51.3262488,25.3088599 51.4503108,25.1207464 C52.0272113,24.2473115 52.4247791,23.2887155 52.6330516,22.271764 C52.6781219,22.0506773 52.8723988,21.892216 53.0977506,21.892216 L54.5513878,21.892216 L54.5513878,19.3570724 L53.0977506,19.3570724 C52.8723988,19.3570724 52.6781219,19.1986111 52.6330516,18.9775243 C52.4247791,17.9605728 52.026974,17.0019768 51.4503108,16.1285419 C51.3262488,15.9404284 51.3513933,15.6908756 51.5108,15.5314654 L52.5400643,14.5024158 L50.7472134,12.7095258 L49.7174746,13.739287 C49.5580679,13.8986972 49.3092322,13.9243167 49.1206484,13.7997775 C48.2467581,13.2231017 47.2884202,12.8252879 46.2717281,12.6172482 C46.0506462,12.5721768 45.8921884,12.3778957 45.8921884,12.152539 L45.8921884,10.6988701 L43.3568628,10.6988701 L43.3568628,12.152539 C43.3568628,12.3778957 43.198405,12.5721768 42.977323,12.6172482 C41.9608681,12.8252879 41.0022931,13.2233389 40.1281656,13.7997775 C39.939819,13.9238423 39.6902716,13.89846 39.5313393,13.739287 L38.5018377,12.7095258 L36.7099357,14.5024158 L37.7396744,15.5321771 C37.8990811,15.6915872 37.9242257,15.9411401 37.8001636,16.1292536 C37.2232632,17.0026885 36.8256953,17.9612845 36.6174228,18.978236 C36.5723525,19.1993227 36.3780756,19.357784 36.1527239,19.357784 L34.6990866,19.357784 L34.6990866,21.8929276 L36.1527239,21.8929276 C36.3780756,21.8929276 36.5723525,22.0513889 36.6174228,22.2724757 C36.8256953,23.2894272 37.2235004,24.2480232 37.8001636,25.1214581 C37.9242257,25.3095716 37.8990811,25.5591244 37.7396744,25.7185346 L36.7099357,26.7482959 L38.5027866,28.5411859 L39.5322881,27.5114246 C39.6914576,27.3522517 39.941005,27.3266322 40.1291144,27.4509341 C41.0037163,28.0280844 41.9622914,28.4256609 42.9782719,28.6332263 C43.1991166,28.6782976 43.3578116,28.872816 43.3578116,29.0981726 L43.3578116,30.5511299 L43.3573372,30.5511299 Z M44.625,26.7404677 C41.2530265,26.7404677 38.5099029,23.9970471 38.5099029,20.625 C38.5099029,17.2529529 41.2530265,14.5095323 44.625,14.5095323 C47.9969735,14.5095323 50.7400971,17.2527157 50.7400971,20.6247628 C50.7400971,23.9968098 47.9969735,26.7404677 44.625,26.7404677 Z M44.625,15.4584024 C41.7763169,15.4584024 39.4587523,17.7762548 39.4587523,20.6247628 C39.4587523,23.4737452 41.7765541,25.7913604 44.625,25.7913604 C47.4734459,25.7913604 49.7912477,23.473508 49.7912477,20.6247628 C49.7912477,17.7762548 47.4736831,15.4584024 44.625,15.4584024 Z" id="Shape" fill="#183165"></path>
                    <path d="M6.4764084,18.75 C6.35588955,18.75 6.23537071,18.704298 6.14271887,18.6121723 C5.95479522,18.4262372 5.95217524,18.1214767 6.1365262,17.9319336 L14.1793727,9.65794094 C14.3475274,9.48523535 14.6164321,9.46551132 14.8072139,9.61199837 L22.2598515,15.323069 L31.4385762,6.13912478 C31.6253089,5.95270858 31.9270824,5.95343019 32.1121479,6.1424923 C32.2972134,6.33107332 32.2957843,6.63583374 32.1088134,6.82273101 L22.6364133,16.3003709 C22.4677822,16.4692279 22.2022121,16.4867871 22.0130975,16.3417433 L14.5652235,10.6340402 L6.81629059,18.6061589 C6.72292421,18.7018926 6.59978539,18.75 6.4764084,18.75 Z" id="Path" fill="#183165"></path>
                    <path d="M7.75,18.375 C7.75,19.4105108 6.91051076,20.25 5.875,20.25 C4.83948924,20.25 4,19.4105108 4,18.375 C4,17.3394892 4.83948924,16.5 5.875,16.5 C6.91051076,16.5002638 7.75,17.3397531 7.75,18.375 Z" id="Path" fill="#F35229"></path>
                    <path d="M15.75,10.125 C15.75,11.1605108 14.9105108,12 13.875,12 C12.8394892,12 12,11.1605108 12,10.125 C12,9.08948924 12.8394892,8.25 13.875,8.25 C14.9105108,8.25026382 15.75,9.08948924 15.75,10.125 Z" id="Path" fill="#F35229"></path>
                    <path d="M23.75,16.125 C23.75,17.1605108 22.9105108,18 21.875,18 C20.8394892,18 20,17.1605108 20,16.125 C20,15.0894892 20.8394892,14.25 21.875,14.25 C22.9105108,14.25 23.75,15.0894892 23.75,16.125 Z" id="Path" fill="#F35229"></path>
                    <path d="M33.75,6.875 C33.75,7.91051076 32.9105108,8.75 31.875,8.75 C30.8394892,8.75 30,7.91051076 30,6.875 C30,5.83948924 30.8394892,5 31.875,5 C32.9105108,5.00026382 33.75,5.83948924 33.75,6.875 Z" id="Path" fill="#F35229"></path>
                    <g id="Group" transform="translate(3.750000, 4.500000)">
                        <path d="M2.20554217,16.1366534 C0.995662651,16.1366534 0.0113253012,15.1601594 0.0113253012,13.9599203 C0.0113253012,12.7596813 0.995662651,11.7831873 2.20554217,11.7831873 C3.41542169,11.7831873 4.4,12.7596813 4.4,13.9599203 C4.4,15.1601594 3.41542169,16.1366534 2.20554217,16.1366534 Z M2.20554217,12.7391235 C1.52698795,12.7391235 0.975180723,13.2867729 0.975180723,13.9596813 C0.975180723,14.6325896 1.52722892,15.180239 2.20554217,15.180239 C2.88385542,15.180239 3.43614458,14.6325896 3.43614458,13.9596813 C3.43614458,13.2867729 2.88409639,12.7391235 2.20554217,12.7391235 Z" id="Shape" fill="#183165"></path>
                        <path d="M10.3421687,7.91378486 C9.13228916,7.91378486 8.14771084,6.93729084 8.14771084,5.73705179 C8.14771084,4.53681275 9.13204819,3.56031873 10.3421687,3.56031873 C11.5522892,3.56031873 12.5363855,4.53681275 12.5363855,5.73705179 C12.5363855,6.93729084 11.5522892,7.91378486 10.3421687,7.91378486 L10.3421687,7.91378486 Z M10.3421687,4.51649402 C9.66361446,4.51649402 9.11156627,5.06414343 9.11156627,5.73705179 C9.11156627,6.40996016 9.66361446,6.95760956 10.3421687,6.95760956 C11.0207229,6.95760956 11.5725301,6.40996016 11.5725301,5.73705179 C11.5725301,5.06414343 11.0207229,4.51649402 10.3421687,4.51649402 L10.3421687,4.51649402 Z" id="Shape" fill="#183165"></path>
                        <path d="M18.2151807,13.8403984 C17.0053012,13.8403984 16.0209639,12.8639044 16.0209639,11.6636653 C16.0209639,10.4634263 17.0053012,9.48669323 18.2151807,9.48669323 C19.4250602,9.48669323 20.4096386,10.4634263 20.4096386,11.6636653 C20.4096386,12.8639044 19.4253012,13.8403984 18.2151807,13.8403984 Z M18.2151807,10.4428685 C17.5366265,10.4428685 16.9848193,10.9905179 16.9848193,11.6636653 C16.9848193,12.3365737 17.5368675,12.8842231 18.2151807,12.8842231 C18.893494,12.8842231 19.4457831,12.3365737 19.4457831,11.6636653 C19.4457831,10.9905179 18.8937349,10.4428685 18.2151807,10.4428685 Z" id="Shape" fill="#183165"></path>
                        <path d="M27.7983133,4.42159363 C26.5884337,4.42159363 25.6040964,3.4450996 25.6040964,2.24486056 C25.6040964,1.04462151 26.5884337,0.0678884462 27.7983133,0.0678884462 C29.0081928,0.0678884462 29.9925301,1.04462151 29.9925301,2.24486056 C29.9925301,3.4450996 29.0084337,4.42159363 27.7983133,4.42159363 Z M27.7983133,1.0238247 C27.12,1.0238247 26.5679518,1.5714741 26.5679518,2.24462151 C26.5679518,2.91752988 27.12,3.46517928 27.7983133,3.46517928 C28.4766265,3.46517928 29.0286748,2.91752988 29.0286748,2.24462151 C29.0289157,1.5714741 28.4768675,1.0238247 27.7983133,1.0238247 Z" id="Shape" fill="#183165"></path>
                        <path d="M27.7983133,23.5388845 L0.927710843,23.5388845 C0.661686747,23.5388845 0.445783133,23.3247012 0.445783133,23.0607968 L0.445783133,19.3625498 C0.445783133,19.0986454 0.661686747,18.8844622 0.927710843,18.8844622 L27.7983133,18.8844622 C28.0643373,18.8844622 28.280241,19.0986454 28.280241,19.3625498 L28.280241,23.0607968 C28.280241,23.3247012 28.0645783,23.5388845 27.7983133,23.5388845 Z M1.40963855,22.5827092 L27.3163855,22.5827092 L27.3163855,19.8406375 L1.40963855,19.8406375 L1.40963855,22.5827092 Z" id="Shape" fill="#3761BA"></path>
                        <path d="M27.7983133,29.9359363 L0.927710843,29.9359363 C0.661686747,29.9359363 0.445783133,29.721753 0.445783133,29.4578486 L0.445783133,25.7596016 C0.445783133,25.4956972 0.661686747,25.2815139 0.927710843,25.2815139 L27.7983133,25.2815139 C28.0643373,25.2815139 28.280241,25.4956972 28.280241,25.7596016 L28.280241,29.4578486 C28.280241,29.721992 28.0645783,29.9359363 27.7983133,29.9359363 Z M1.40963855,28.979761 L27.3163855,28.979761 L27.3163855,26.2376892 L1.40963855,26.2376892 L1.40963855,28.979761 Z" id="Shape" fill="#3761BA"></path>
                    </g>
                </g>
            </g>
        </g>
    </g>
</svg>