<?xml version="1.0" encoding="UTF-8"?>
<svg width="80px" height="77px" viewBox="0 0 80 77" version="1.1" xmlns="http://www.w3.org/2000/svg" xmlns:xlink="http://www.w3.org/1999/xlink">
    <!-- Generator: Sketch 56.3 (81716) - https://sketch.com -->
    <title>Group 42</title>
    <desc>Created with Sketch.</desc>
    <defs>
        <linearGradient x1="-3.04574141%" y1="112.484128%" x2="104.87563%" y2="-12.6612369%" id="linearGradient-1">
            <stop stop-color="#1C7CFB" stop-opacity="0.267318619" offset="0%"></stop>
            <stop stop-color="#1C7CFB" stop-opacity="0" offset="100%"></stop>
        </linearGradient>
    </defs>
    <g id="Page-1" stroke="none" stroke-width="1" fill="none" fill-rule="evenodd">
        <g id="Hey-Digital_Paid-Social-Media-Management" transform="translate(-681.000000, -959.000000)">
            <g id="Group-42" transform="translate(681.000000, 959.000000)">
                <g id="Google-Shopping-Copy-2">
                    <g id="Group-10" fill-rule="nonzero">
                        <path d="M80,40.21625 C80,35.8989062 78.04625,31.8514062 74.6332813,28.3667187 C72.2584375,25.9420312 70.2810938,23.164375 68.771875,20.124375 C63.9454688,10.4029687 55.7165625,4 46.375625,4 C39.7376563,4 33.6617187,7.2340625 28.9689063,12.5942187 C25.8626563,16.1421875 21.940625,18.86375 17.5646875,20.6209375 C6.96484375,24.8775 0,32.0651562 0,40.21625 C0,48.3673437 6.96484375,55.555 17.5646875,59.8115625 C21.940625,61.56875 25.8626563,64.2903125 28.9690625,67.8382812 C33.661875,73.1984375 39.7378125,76.4325 46.3757813,76.4325 C55.7167187,76.4325 63.945625,70.0295312 68.7720312,60.308125 C70.28125,57.268125 72.2585938,54.4904687 74.6334375,52.0657812 C78.04625,48.5810937 80,44.5335937 80,40.21625 Z" id="Path" fill="url(#linearGradient-1)"></path>
                        <path d="M8.40171875,46.1915625 C8.20171875,46.1915625 8.001875,46.1153125 7.84921875,45.9628125 L6.83921875,44.9528125 L5.82921875,45.9628125 C5.5240625,46.2678125 5.02953125,46.2678125 4.724375,45.9628125 C4.41921875,45.6576563 4.41921875,45.1629688 4.724375,44.8579688 L6.286875,43.2954688 C6.59203125,42.9904688 7.0865625,42.9904688 7.39171875,43.2954688 L8.95421875,44.8579688 C9.259375,45.163125 9.259375,45.6578125 8.95421875,45.9628125 C8.8015625,46.1151563 8.6015625,46.1915625 8.40171875,46.1915625 Z" id="Path" fill="#6C6CFF"></path>
                        <path d="M74.3515625,61.6704687 C74.1515625,61.6704687 73.9517188,61.5942187 73.7990625,61.4417187 L72.7890625,60.4317187 L71.7790625,61.4417187 C71.4739063,61.7467187 70.979375,61.7467187 70.6742188,61.4417187 C70.3690625,61.1365625 70.3690625,60.641875 70.6742188,60.336875 L72.2367188,58.774375 C72.541875,58.469375 73.0364063,58.469375 73.3415625,58.774375 L74.9040625,60.336875 C75.2092188,60.6420312 75.2092188,61.1367187 74.9040625,61.4417187 C74.7514063,61.5940625 74.5515625,61.6704687 74.3515625,61.6704687 Z" id="Path" fill="#6C6CFF"></path>
                        <path d="M14.6484375,71.8829688 C14.4484375,71.8829688 14.2485937,71.8067188 14.0959375,71.6542188 C13.7907812,71.3490625 13.7907812,70.854375 14.0959375,70.549375 L15.6584375,68.986875 C15.9635937,68.681875 16.458125,68.681875 16.7632812,68.986875 C17.0684375,69.2920313 17.0684375,69.7867188 16.7632812,70.0917188 L15.2007812,71.6542188 C15.0482812,71.8065625 14.8484375,71.8829688 14.6484375,71.8829688 L14.6484375,71.8829688 Z" id="Path" fill="#FF9D33"></path>
                        <path d="M72.6953125,35.7370313 C72.4953125,35.7370313 72.2954687,35.6607813 72.1428125,35.5082813 C71.8376562,35.203125 71.8376562,34.7084375 72.1428125,34.4034375 L73.7053125,32.8409375 C74.0104687,32.5359375 74.505,32.5359375 74.8101562,32.8409375 C75.1153125,33.1460938 75.1153125,33.6407813 74.8101562,33.9457813 L73.2476562,35.5082813 C73.0951562,35.6607813 72.8953125,35.7370313 72.6953125,35.7370313 Z" id="Path" fill="#FF6C6C"></path>
                        <path d="M6.484375,23.7196875 C6.284375,23.7196875 6.08453125,23.6434375 5.931875,23.4909375 C5.62671875,23.1857813 5.62671875,22.6910938 5.931875,22.3860938 L7.494375,20.8235938 C7.79953125,20.5185938 8.2940625,20.5185938 8.59921875,20.8235938 C8.904375,21.12875 8.904375,21.6234375 8.59921875,21.9284375 L7.03671875,23.4909375 C6.88421875,23.6434375 6.684375,23.7196875 6.484375,23.7196875 Z" id="Path" fill="#FF6C6C"></path>
                        <path d="M46.484375,3.7196875 C46.284375,3.7196875 46.0845312,3.6434375 45.931875,3.4909375 C45.6267187,3.18578125 45.6267187,2.69109375 45.931875,2.38609375 L47.494375,0.82359375 C47.7995312,0.51859375 48.2940625,0.51859375 48.5992187,0.82359375 C48.904375,1.12875 48.904375,1.6234375 48.5992187,1.9284375 L47.0367187,3.4909375 C46.8842187,3.6434375 46.684375,3.7196875 46.484375,3.7196875 Z" id="Path-Copy-2" fill="#FF6C6C" transform="translate(47.265547, 2.157266) scale(-1, 1) translate(-47.265547, -2.157266) "></path>
                    </g>
                    <g id="supermarket-(1)" transform="translate(13.000000, 51.000000)"></g>
                </g>
                <g id="Group-53" transform="translate(19.000000, 22.000000)" fill-rule="nonzero">
                    <polygon id="Path" stroke="#183165" stroke-width="2" fill="#F0F0F0" points="0 0 47.4249106 0 47.4249106 37.9399284 0 37.9399284"></polygon>
                    <polygon id="Path" fill="#183165" points="0.689527101 0.474249106 46.4764123 0.474249106 46.4764123 7.58798569 0.689527101 7.58798569"></polygon>
                    <g id="Group-52" transform="translate(36.679919, 33.222866) rotate(-39.000000) translate(-36.679919, -33.222866) translate(26.179919, 14.222866)">
                        <path d="M20.4794815,10.2764847 C20.4787155,4.83431436 16.2270515,0.346472873 10.8073479,0.0668948614 C5.38726141,-0.21268315 0.699018633,3.81393145 0.141423353,9.2272991 C-0.416171926,14.6406667 3.35257481,19.5432668 8.71483376,20.3808488 L8.71483376,23.6470727 L11.8520731,23.6470727 L11.8520731,20.3808488 C16.8183476,19.6054807 20.4802473,15.3165696 20.4794815,10.2764847 Z" id="Path" fill="#183165"></path>
                        <polygon id="Path" stroke="#183165" stroke-width="1.5" fill="#F0F0F0" points="7.18652819 23.6143762 13.4703288 23.6143762 13.4703288 37.8418494 7.18652819 37.8418494"></polygon>
                        <path d="M17.3685705,10.3778851 C17.3685705,14.3068043 14.1837532,17.4916217 10.254834,17.4916217 C6.32591478,17.4916217 3.14109738,14.3068043 3.14109738,10.3778851 C3.14109738,6.44896588 6.32591478,3.26414849 10.254834,3.26414849 C14.1837532,3.26414849 17.3685705,6.44896588 17.3685705,10.3778851 Z" id="Path" fill="#F35229"></path>
                        <polygon id="Path" fill="#F0F0F0" points="5.84324618 11.3836902 8.99669478 8.23024155 10.1114881 9.34503491 6.95803953 12.4984835"></polygon>
                        <polygon id="Path" fill="#F0F0F0" points="10.5649337 11.3932087 13.7183823 8.2397601 14.8331756 9.35455345 11.679727 12.508002"></polygon>
                        <path d="M18.2731201,10.2857449 C18.2731201,5.89849486 14.7166976,2.34207236 10.3294476,2.34207236 C5.94219761,2.34207236 2.38577511,5.89849486 2.38577511,10.2857449 C2.38577511,14.6729949 5.94219761,18.2294174 10.3294476,18.2294174 C14.7147582,18.2247629 18.2684656,14.6710554 18.2731201,10.2857449 Z M3.97450961,10.2857449 C3.97450961,6.77586733 6.81957008,3.93080686 10.3294476,3.93080686 C13.8393252,3.93080686 16.6843856,6.77586733 16.6843856,10.2857449 C16.6843856,13.7956224 13.8393252,16.6406829 10.3294476,16.6406829 C6.82150943,16.6368042 3.97838831,13.7936831 3.97450961,10.2857449 Z" id="Shape" fill="#F0F0F0"></path>
                    </g>
                    <g id="Group" transform="translate(2.845495, 2.845495)">
                        <polygon id="Path" fill="#FFFFFF" points="13.278975 0 41.7339213 0 41.7339213 1.89699642 13.278975 1.89699642"></polygon>
                        <polygon id="Path" fill="#FFFFFF" points="0 0 1.89699642 0 1.89699642 1.89699642 0 1.89699642"></polygon>
                        <polygon id="Path" fill="#FFFFFF" points="3.79399284 0 5.69098927 0 5.69098927 1.89699642 3.79399284 1.89699642"></polygon>
                        <polygon id="Path" fill="#FFFFFF" points="7.58798569 0 9.48498211 0 9.48498211 1.89699642 7.58798569 1.89699642"></polygon>
                        <polygon id="Path" fill="#F35229" points="0.474249106 11.3819785 18.4957151 11.3819785 18.4957151 13.278975 0.474249106 13.278975"></polygon>
                        <polygon id="Path" fill="#F35229" points="0.474249106 17.0729678 13.7532241 17.0729678 13.7532241 18.9699642 0.474249106 18.9699642"></polygon>
                        <polygon id="Path" fill="#F35229" points="0.474249106 22.7639571 12.3304767 22.7639571 12.3304767 24.6609535 0.474249106 24.6609535"></polygon>
                        <polygon id="Path" fill="#F35229" points="0.474249106 28.4549463 14.7017223 28.4549463 14.7017223 30.3519428 0.474249106 30.3519428"></polygon>
                    </g>
                </g>
            </g>
        </g>
    </g>
</svg>