<?xml version="1.0" encoding="UTF-8"?>
<svg width="80px" height="77px" viewBox="0 0 80 77" version="1.1" xmlns="http://www.w3.org/2000/svg" xmlns:xlink="http://www.w3.org/1999/xlink">
    <!-- Generator: Sketch 56.3 (81716) - https://sketch.com -->
    <title>Mobile &amp; Display Ads</title>
    <desc>Created with Sketch.</desc>
    <defs>
        <linearGradient x1="-3.04574141%" y1="112.484128%" x2="104.87563%" y2="-12.6612369%" id="linearGradient-1">
            <stop stop-color="#1C7CFB" stop-opacity="0.267318619" offset="0%"></stop>
            <stop stop-color="#1C7CFB" stop-opacity="0" offset="100%"></stop>
        </linearGradient>
    </defs>
    <g id="Page-1" stroke="none" stroke-width="1" fill="none" fill-rule="evenodd">
        <g id="Hey-Digital_Landing-Page-Design" transform="translate(-1081.000000, -919.000000)" fill-rule="nonzero">
            <g id="Mobile-&amp;-Display-Ads" transform="translate(1081.000000, 919.000000)">
                <g id="Group-10">
                    <path d="M80,40.21625 C80,35.8989062 78.04625,31.8514062 74.6332813,28.3667187 C72.2584375,25.9420312 70.2810938,23.164375 68.771875,20.124375 C63.9454688,10.4029687 55.7165625,4 46.375625,4 C39.7376563,4 33.6617187,7.2340625 28.9689063,12.5942187 C25.8626563,16.1421875 21.940625,18.86375 17.5646875,20.6209375 C6.96484375,24.8775 0,32.0651562 0,40.21625 C0,48.3673437 6.96484375,55.555 17.5646875,59.8115625 C21.940625,61.56875 25.8626563,64.2903125 28.9690625,67.8382812 C33.661875,73.1984375 39.7378125,76.4325 46.3757813,76.4325 C55.7167187,76.4325 63.945625,70.0295312 68.7720312,60.308125 C70.28125,57.268125 72.2585938,54.4904687 74.6334375,52.0657812 C78.04625,48.5810937 80,44.5335937 80,40.21625 Z" id="Path" fill="url(#linearGradient-1)"></path>
                    <path d="M8.40171875,46.1915625 C8.20171875,46.1915625 8.001875,46.1153125 7.84921875,45.9628125 L6.83921875,44.9528125 L5.82921875,45.9628125 C5.5240625,46.2678125 5.02953125,46.2678125 4.724375,45.9628125 C4.41921875,45.6576563 4.41921875,45.1629688 4.724375,44.8579688 L6.286875,43.2954688 C6.59203125,42.9904688 7.0865625,42.9904688 7.39171875,43.2954688 L8.95421875,44.8579688 C9.259375,45.163125 9.259375,45.6578125 8.95421875,45.9628125 C8.8015625,46.1151563 8.6015625,46.1915625 8.40171875,46.1915625 Z" id="Path" fill="#6C6CFF"></path>
                    <path d="M74.3515625,61.6704687 C74.1515625,61.6704687 73.9517188,61.5942187 73.7990625,61.4417187 L72.7890625,60.4317187 L71.7790625,61.4417187 C71.4739063,61.7467187 70.979375,61.7467187 70.6742188,61.4417187 C70.3690625,61.1365625 70.3690625,60.641875 70.6742188,60.336875 L72.2367188,58.774375 C72.541875,58.469375 73.0364063,58.469375 73.3415625,58.774375 L74.9040625,60.336875 C75.2092188,60.6420312 75.2092188,61.1367187 74.9040625,61.4417187 C74.7514063,61.5940625 74.5515625,61.6704687 74.3515625,61.6704687 Z" id="Path" fill="#6C6CFF"></path>
                    <path d="M14.6484375,71.8829688 C14.4484375,71.8829688 14.2485937,71.8067188 14.0959375,71.6542188 C13.7907812,71.3490625 13.7907812,70.854375 14.0959375,70.549375 L15.6584375,68.986875 C15.9635937,68.681875 16.458125,68.681875 16.7632812,68.986875 C17.0684375,69.2920313 17.0684375,69.7867188 16.7632812,70.0917188 L15.2007812,71.6542188 C15.0482812,71.8065625 14.8484375,71.8829688 14.6484375,71.8829688 L14.6484375,71.8829688 Z" id="Path" fill="#FF9D33"></path>
                    <path d="M72.6953125,35.7370313 C72.4953125,35.7370313 72.2954687,35.6607813 72.1428125,35.5082813 C71.8376562,35.203125 71.8376562,34.7084375 72.1428125,34.4034375 L73.7053125,32.8409375 C74.0104687,32.5359375 74.505,32.5359375 74.8101562,32.8409375 C75.1153125,33.1460938 75.1153125,33.6407813 74.8101562,33.9457813 L73.2476562,35.5082813 C73.0951562,35.6607813 72.8953125,35.7370313 72.6953125,35.7370313 Z" id="Path" fill="#FF6C6C"></path>
                    <path d="M6.484375,23.7196875 C6.284375,23.7196875 6.08453125,23.6434375 5.931875,23.4909375 C5.62671875,23.1857813 5.62671875,22.6910938 5.931875,22.3860938 L7.494375,20.8235938 C7.79953125,20.5185938 8.2940625,20.5185938 8.59921875,20.8235938 C8.904375,21.12875 8.904375,21.6234375 8.59921875,21.9284375 L7.03671875,23.4909375 C6.88421875,23.6434375 6.684375,23.7196875 6.484375,23.7196875 Z" id="Path" fill="#FF6C6C"></path>
                    <path d="M46.484375,3.7196875 C46.284375,3.7196875 46.0845312,3.6434375 45.931875,3.4909375 C45.6267187,3.18578125 45.6267187,2.69109375 45.931875,2.38609375 L47.494375,0.82359375 C47.7995312,0.51859375 48.2940625,0.51859375 48.5992187,0.82359375 C48.904375,1.12875 48.904375,1.6234375 48.5992187,1.9284375 L47.0367187,3.4909375 C46.8842187,3.6434375 46.684375,3.7196875 46.484375,3.7196875 Z" id="Path-Copy-2" fill="#FF6C6C" transform="translate(47.265547, 2.157266) scale(-1, 1) translate(-47.265547, -2.157266) "></path>
                </g>
                <g id="048-analytics-1" transform="translate(9.000000, 14.000000)">
                    <path d="M27.9586563,52.6027397 L55.8769601,52.6027397 C57.6689944,52.6027397 59.1780822,51.1083525 59.1780822,49.3337751 L59.1780822,10.6662249 C59.1780822,8.89164747 57.6689944,7.39726027 55.8769601,7.39726027 L27.9586563,7.39726027 C26.166622,7.39726027 24.6575342,8.89164747 24.6575342,10.6662249 L24.6575342,49.2403389 C24.6575342,51.1083525 26.166622,52.6027397 27.9586563,52.6027397 Z" id="Path" fill="#3761BA"></path>
                    <path d="M55.78396,53.4246575 L28.0516564,53.4246575 C25.7094384,53.4246575 23.8356164,51.5655399 23.8356164,49.2417019 L23.8356164,10.7582981 C23.8356164,8.43446007 25.7094384,6.57534247 28.0516564,6.57534247 L55.78396,6.57534247 C58.126178,6.57534247 60,8.43446007 60,10.7582981 L60,49.1487107 C60,51.4726667 58.126178,53.4246575 55.78396,53.4246575 Z M28.0516564,8.43446007 C26.7399572,8.43446007 25.7094384,9.45701015 25.7094384,10.7582981 L25.7094384,49.1487107 C25.7094384,50.4501166 26.7400762,51.4725487 28.0516564,51.4725487 L55.78396,51.4725487 C57.0956592,51.4725487 58.126178,50.4499986 58.126178,49.1487107 L58.126178,10.7582981 C58.126178,9.45689214 57.0955403,8.43446007 55.78396,8.43446007 L28.0516564,8.43446007 Z" id="Shape" fill="#183651"></path>
                    <rect id="Rectangle" fill="#FFFFFF" x="28.7671233" y="11.5068493" width="26.3013699" height="37.8082192"></rect>
                    <rect id="Rectangle" fill="#E1E6E8" x="47.6712329" y="19.7260274" width="4.10958904" height="10.6849315"></rect>
                    <rect id="Rectangle" fill="#F35229" x="39.4520548" y="18.9041096" width="4.10958904" height="11.5068493"></rect>
                    <rect id="Rectangle" fill="#3761BA" x="32.0547945" y="23.8356164" width="4.10958904" height="6.57534247"></rect>
                    <rect id="Rectangle" fill="#FFFFFF" x="33.6986301" y="4.10958904" width="16.4383562" height="7.39726027"></rect>
                    <path d="M50.0834135,11.5068493 L33.013774,11.5068493 C32.4384107,11.5068493 32.0547945,11.1533134 32.0547945,10.6230655 L32.0547945,4.17145503 C32.0547945,3.64120719 32.4384107,3.28767123 33.013774,3.28767123 L49.9876008,3.28767123 C50.5629641,3.28767123 50.9465803,3.64120719 50.9465803,4.17145503 L50.9465803,10.6230655 C51.042393,11.0649013 50.5629641,11.5068493 50.0834135,11.5068493 Z M33.9727534,9.73928172 L49.0286214,9.73928172 L49.0286214,5.05523882 L33.9727534,5.05523882 L33.9727534,9.73928172 Z" id="Shape" fill="#183651"></path>
                    <circle id="Oval" fill="#FFFFFF" cx="41.9178082" cy="4.10958904" r="3.28767123"></circle>
                    <path d="M41.9178082,8.21917808 C39.6761387,8.21917808 37.8082192,6.35116689 37.8082192,4.10964833 C37.8082192,1.86812976 39.6762573,0 41.9178082,0 C44.1594777,0 46.0273973,1.86801119 46.0273973,4.10952975 C46.0273973,6.35104832 44.1594777,8.21917808 41.9178082,8.21917808 Z M41.9178082,1.86801119 C40.7035953,1.86801119 39.6761387,2.89545291 39.6761387,4.10964833 C39.6761387,5.32384374 40.7035953,6.35128547 41.9178082,6.35128547 C43.1320212,6.35128547 44.1594777,5.32384374 44.1594777,4.10964833 C44.1594777,2.89533434 43.1320212,1.86801119 41.9178082,1.86801119 Z" id="Shape" fill="#183651"></path>
                    <path d="M26.3013699,41.7842731 L26.3013699,59.1780822 L0.821917808,59.1780822 L0.821917808,41.7842731 C0.821917808,39.1517411 2.94521525,36.9892573 5.53004303,36.9892573 L8.11487082,36.9892573 C11.3459348,39.2457985 15.5925297,39.2457985 18.9159467,36.9892573 L21.5931274,36.9892573 C24.1780724,36.8951999 26.3013699,39.0576838 26.3013699,41.7842731 Z" id="Path" fill="#F35229"></path>
                    <path d="M27.0012176,60 L0.944107736,60 C0.377667066,60 0,59.6275408 0,59.0689111 L0,41.8439433 C0,38.6782173 2.64342975,36.1643836 5.75897329,36.1643836 L8.49684977,36.1643836 C8.68562337,36.1643836 8.87451684,36.2575279 9.06329044,36.3505541 C11.9899405,38.3058763 16.0495918,38.3058763 18.9763617,36.3505541 C19.1651353,36.2574097 19.3540288,36.1643836 19.5428024,36.1643836 L22.1862322,36.1643836 C25.3962224,36.1643836 27.9452055,38.6783355 27.9452055,41.8439433 L27.9452055,59.0689111 C27.9452055,59.6275408 27.5676582,60 27.0012176,60 Z M1.88821547,58.1378221 L26.0571098,58.1378221 L26.0571098,41.8439433 C26.0571098,39.7024506 24.2633411,38.0265614 22.186352,38.0265614 L19.7316959,38.0265614 C16.2384853,40.1680541 11.6123933,40.1680541 8.11930256,38.0265614 L5.75897329,38.0265614 C3.58753748,38.0265614 1.88821547,39.7024506 1.88821547,41.8439433 L1.88821547,58.1378221 Z" id="Shape" fill="#183651"></path>
                    <path d="M4.10958904,55.0684932 L4.10958904,41.3172223 C4.10958904,40.7482208 4.57081746,40.2739726 5.12445552,40.2739726 L6.69272583,40.2739726 C10.6597821,42.550099 15.5492952,42.550099 19.5163515,40.2739726 L21.1769143,40.2739726 C21.7304353,40.2739726 22.1917808,40.7481004 22.1917808,41.3172223 L22.1917808,55.0684932 L4.10958904,55.0684932 L4.10958904,55.0684932 Z" id="Path" fill="#F0F0F0"></path>
                    <circle id="Oval" fill="#F0F0F0" cx="13.1506849" cy="28.7671233" r="6.57534247"></circle>
                    <g id="Group" transform="translate(6.575342, 20.547945)" fill="#183651">
                        <path d="M7.40634667,15.0111504 C3.36895696,15.0111504 0.065585158,11.6414458 0.065585158,7.52298399 C0.065585158,3.4045222 3.36895696,0.0348176267 7.40634667,0.0348176267 C11.4437364,0.0348176267 14.7471082,3.4045222 14.7471082,7.52298399 C14.7471082,11.6414458 11.4438529,15.0111504 7.40634667,15.0111504 Z M7.40634667,2.00040931 C4.37824614,2.00040931 1.90068817,4.52771745 1.90068817,7.61662321 C1.90068817,10.705529 4.37824614,13.2328371 7.40634667,13.2328371 C10.4344472,13.2328371 12.9120052,10.705529 12.9120052,7.61662321 C12.9120052,4.52771745 10.4344472,2.00040931 7.40634667,2.00040931 Z" id="Shape"></path>
                        <path d="M13.8296149,39.3478396 C13.2790724,39.3478396 12.9120052,38.9734016 12.9120052,38.4118039 L12.9120052,25.8690213 C12.9120052,25.3074237 13.2790724,24.9329856 13.8296149,24.9329856 C14.3801575,24.9329856 14.7472247,25.3074237 14.7472247,25.8690213 L14.7472247,38.4118039 C14.7472247,38.9734016 14.3801575,39.3478396 13.8296149,39.3478396 Z" id="Path"></path>
                        <path d="M0.983194909,39.3478396 C0.432652357,39.3478396 0.065585158,38.9734016 0.065585158,38.4118039 L0.065585158,25.8690213 C0.065585158,25.3074237 0.432652357,24.9329856 0.983194909,24.9329856 C1.53373746,24.9329856 1.90080466,25.3074237 1.90080466,25.8690213 L1.90080466,38.4118039 C1.90080466,38.9734016 1.53373746,39.3478396 0.983194909,39.3478396 Z" id="Path"></path>
                    </g>
                    <rect id="Rectangle" fill="#173651" x="30.4109589" y="30.4109589" width="22.1917808" height="1.64383562"></rect>
                    <g id="Group" transform="translate(32.054795, 35.342466)" fill="#183651">
                        <rect id="Rectangle" x="0.091248004" y="0.0796724241" width="19.5417161" height="1.82967838"></rect>
                        <rect id="Rectangle" x="0.091248004" y="4.47083085" width="19.5417161" height="1.82967838"></rect>
                        <rect id="Rectangle" x="0.091248004" y="8.77058666" width="1.9065266" height="1.82967838"></rect>
                        <rect id="Rectangle" x="5.90606942" y="8.77058666" width="1.9065266" height="1.82967838"></rect>
                        <rect id="Rectangle" x="11.8162535" y="8.77058666" width="1.9065266" height="1.82967838"></rect>
                        <rect id="Rectangle" x="17.6310749" y="8.77058666" width="1.9065266" height="1.82967838"></rect>
                    </g>
                </g>
            </g>
        </g>
    </g>
</svg>