<?xml version="1.0" encoding="UTF-8"?>
<svg width="80px" height="77px" viewBox="0 0 80 77" version="1.1" xmlns="http://www.w3.org/2000/svg" xmlns:xlink="http://www.w3.org/1999/xlink">
    <!-- Generator: Sketch 56.3 (81716) - https://sketch.com -->
    <title>Group 40</title>
    <desc>Created with Sketch.</desc>
    <defs>
        <linearGradient x1="-3.04574141%" y1="112.484128%" x2="104.87563%" y2="-12.6612369%" id="linearGradient-1">
            <stop stop-color="#1C7CFB" stop-opacity="0.267318619" offset="0%"></stop>
            <stop stop-color="#1C7CFB" stop-opacity="0" offset="100%"></stop>
        </linearGradient>
    </defs>
    <g id="Page-1" stroke="none" stroke-width="1" fill="none" fill-rule="evenodd">
        <g id="Hey-Digital_Landing-Page-Design" transform="translate(-680.000000, -1213.000000)" fill-rule="nonzero">
            <g id="Group-40" transform="translate(680.000000, 1213.000000)">
                <g id="Remarketing">
                    <g id="Group-10">
                        <path d="M80,40.21625 C80,35.8989062 78.04625,31.8514062 74.6332813,28.3667187 C72.2584375,25.9420312 70.2810938,23.164375 68.771875,20.124375 C63.9454688,10.4029687 55.7165625,4 46.375625,4 C39.7376563,4 33.6617187,7.2340625 28.9689063,12.5942187 C25.8626563,16.1421875 21.940625,18.86375 17.5646875,20.6209375 C6.96484375,24.8775 0,32.0651562 0,40.21625 C0,48.3673437 6.96484375,55.555 17.5646875,59.8115625 C21.940625,61.56875 25.8626563,64.2903125 28.9690625,67.8382812 C33.661875,73.1984375 39.7378125,76.4325 46.3757813,76.4325 C55.7167187,76.4325 63.945625,70.0295312 68.7720312,60.308125 C70.28125,57.268125 72.2585938,54.4904687 74.6334375,52.0657812 C78.04625,48.5810937 80,44.5335937 80,40.21625 Z" id="Path" fill="url(#linearGradient-1)"></path>
                        <g id="Group-57" transform="translate(4.495508, 0.594844)">
                            <path d="M3.90621094,45.5967187 C3.70621094,45.5967187 3.50636719,45.5204687 3.35371094,45.3679687 L2.34371094,44.3579687 L1.33371094,45.3679687 C1.02855469,45.6729687 0.534023437,45.6729687 0.228867187,45.3679687 C-0.0762890625,45.0628125 -0.0762890625,44.568125 0.228867187,44.263125 L1.79136719,42.700625 C2.09652344,42.395625 2.59105469,42.395625 2.89621094,42.700625 L4.45871094,44.263125 C4.76386719,44.5682812 4.76386719,45.0629687 4.45871094,45.3679687 C4.30605469,45.5203125 4.10605469,45.5967187 3.90621094,45.5967187 Z" id="Path" fill="#6C6CFF"></path>
                            <path d="M69.8560547,61.075625 C69.6560547,61.075625 69.4562109,60.999375 69.3035547,60.846875 L68.2935547,59.836875 L67.2835547,60.846875 C66.9783984,61.151875 66.4838672,61.151875 66.1787109,60.846875 C65.8735547,60.5417187 65.8735547,60.0470312 66.1787109,59.7420312 L67.7412109,58.1795312 C68.0463672,57.8745312 68.5408984,57.8745312 68.8460547,58.1795312 L70.4085547,59.7420312 C70.7137109,60.0471875 70.7137109,60.541875 70.4085547,60.846875 C70.2558984,60.9992187 70.0560547,61.075625 69.8560547,61.075625 Z" id="Path" fill="#6C6CFF"></path>
                            <path d="M10.1529297,71.288125 C9.95292969,71.288125 9.75308594,71.211875 9.60042969,71.059375 C9.29527344,70.7542187 9.29527344,70.2595312 9.60042969,69.9545312 L11.1629297,68.3920312 C11.4680859,68.0870312 11.9626172,68.0870312 12.2677734,68.3920312 C12.5729297,68.6971875 12.5729297,69.191875 12.2677734,69.496875 L10.7052734,71.059375 C10.5527734,71.2117187 10.3529297,71.288125 10.1529297,71.288125 L10.1529297,71.288125 Z" id="Path" fill="#FF9D33"></path>
                            <path d="M68.1998047,35.1421875 C67.9998047,35.1421875 67.7999609,35.0659375 67.6473047,34.9134375 C67.3421484,34.6082812 67.3421484,34.1135937 67.6473047,33.8085937 L69.2098047,32.2460937 C69.5149609,31.9410937 70.0094922,31.9410937 70.3146484,32.2460937 C70.6198047,32.55125 70.6198047,33.0459375 70.3146484,33.3509375 L68.7521484,34.9134375 C68.5996484,35.0659375 68.3998047,35.1421875 68.1998047,35.1421875 Z" id="Path" fill="#FF6C6C"></path>
                            <path d="M1.98886719,23.1248437 C1.78886719,23.1248437 1.58902344,23.0485937 1.43636719,22.8960937 C1.13121094,22.5909375 1.13121094,22.09625 1.43636719,21.79125 L2.99886719,20.22875 C3.30402344,19.92375 3.79855469,19.92375 4.10371094,20.22875 C4.40886719,20.5339062 4.40886719,21.0285937 4.10371094,21.3335937 L2.54121094,22.8960937 C2.38871094,23.0485937 2.18886719,23.1248437 1.98886719,23.1248437 Z" id="Path" fill="#FF6C6C"></path>
                            <path d="M41.9888672,3.12484375 C41.7888672,3.12484375 41.5890234,3.04859375 41.4363672,2.89609375 C41.1312109,2.5909375 41.1312109,2.09625 41.4363672,1.79125 L42.9988672,0.22875 C43.3040234,-0.07625 43.7985547,-0.07625 44.1037109,0.22875 C44.4088672,0.53390625 44.4088672,1.02859375 44.1037109,1.33359375 L42.5412109,2.89609375 C42.3887109,3.04859375 42.1888672,3.12484375 41.9888672,3.12484375 Z" id="Path-Copy-2" fill="#FF6C6C" transform="translate(42.770039, 1.562422) scale(-1, 1) translate(-42.770039, -1.562422) "></path>
                        </g>
                    </g>
                </g>
                <g id="thinking" transform="translate(13.000000, 14.000000)">
                    <polygon id="Path" fill="#F0F0F0" points="5.85774194 32.3753226 29.9750806 38.475121 54.0924194 32.3753226 54.0924194 32.3753226 29.9750806 28.5278226"></polygon>
                    <path d="M29.9750806,39.4134677 C29.8812097,39.4134677 29.7873387,39.4134677 29.7873387,39.4134677 L5.57625,33.2199194 C5.10701613,33.1260484 4.82552419,32.7506855 4.82552419,32.2814516 C4.82552419,31.8122177 5.2008871,31.4368548 5.57625,31.4368548 L29.6935887,27.5893548 C29.7874597,27.5893548 29.8813306,27.5893548 29.9750806,27.5893548 L54.0924194,31.4368548 C54.5616532,31.5307258 54.8431452,31.9060887 54.8431452,32.2814516 C54.8431452,32.7506855 54.5616532,33.1260484 54.0924194,33.2199194 L29.9750806,39.3195968 C30.1627016,39.4134677 30.0689516,39.4134677 29.9750806,39.4134677 Z M10.4559677,32.5630645 L29.9750806,37.5366532 L49.4941935,32.5630645 L29.9750806,29.4662903 L10.4559677,32.5630645 Z" id="Shape" fill="#183165"></path>
                    <path d="M23.7815323,31.6245968 C24.5322581,31.9999597 25.0014919,32.8445565 25.0014919,33.6891532 L25.0014919,39.0381048 L34.9486694,39.0381048 L34.9486694,33.6891532 C34.9486694,32.8445565 35.4179032,32.0938306 36.168629,31.6245968 C40.11,29.4662903 42.8314113,25.2434274 42.8314113,20.3635887 C42.8314113,12.7624597 36.2625,6.66266129 28.473629,7.60112903 C22.4678226,8.25798387 17.6818548,13.1378226 17.11875,19.143629 C16.6495161,24.4927016 19.4647984,29.1847984 23.7815323,31.6245968 Z" id="Path" fill="#F0F0F0"></path>
                    <path d="M34.9486694,39.9765726 L25.0014919,39.9765726 C24.4383871,39.9765726 24.0630242,39.6012097 24.0630242,39.0381048 L24.0630242,33.6891532 C24.0630242,33.2199194 23.7815323,32.7506855 23.3122984,32.4691935 C18.5263306,29.8416532 15.7111694,24.4927016 16.2741532,19.049879 C16.8372581,12.5748387 21.9984677,7.3196371 28.4735081,6.66278226 C29.0366129,6.56891129 29.5057258,6.56891129 30.0688306,6.56891129 C37.6699597,6.56891129 43.8635081,12.7624597 43.8635081,20.3635887 C43.8635081,25.4310484 41.1420968,30.0292742 36.7314919,32.4691935 C36.2622581,32.7506855 35.9807661,33.2199194 35.9807661,33.6891532 L35.9807661,39.0381048 C35.8871371,39.5073387 35.5117742,39.9765726 34.9486694,39.9765726 Z M25.9398387,38.0997581 L34.0102016,38.0997581 L34.0102016,33.6891532 C34.0102016,32.4691935 34.6670565,31.4369758 35.6993952,30.780121 C39.5468952,28.7155645 41.8929435,24.6804435 41.8929435,20.3637097 C41.8929435,13.7947984 36.5439919,8.44584677 29.9750806,8.44584677 C29.5058468,8.44584677 29.0366129,8.44584677 28.5675,8.53971774 C23.0308065,9.19657258 18.5264516,13.7010484 18.0572177,19.237621 C17.5879839,24.0235887 20.0279032,28.5279435 24.1568952,30.8739919 C25.1891129,31.4370968 25.8460887,32.5631855 25.8460887,33.7830242 L25.8460887,38.0997581 L25.9398387,38.0997581 Z" id="Shape" fill="#183165"></path>
                    <polygon id="Path" fill="#F0F0F0" points="29.9750806 59.4955645 5.85774194 53.3958871 5.85774194 32.3753226 29.9750806 38.475121"></polygon>
                    <path d="M29.9750806,60.4340323 C29.8812097,60.4340323 29.7873387,60.4340323 29.7873387,60.4340323 L5.57625,54.3343548 C5.2008871,54.2404839 4.82552419,53.865121 4.82552419,53.3958871 L4.82552419,32.3753226 C4.82552419,32.0938306 4.91939516,31.8122177 5.2008871,31.6245968 C5.38862903,31.4368548 5.76399194,31.3431048 6.04548387,31.4368548 L30.1628226,37.5365323 C30.5381855,37.6304032 30.9135484,38.0057661 30.9135484,38.475 L30.9135484,59.4955645 C30.9135484,59.7770565 30.8196774,60.0586694 30.5381855,60.2462903 C30.3504435,60.4340323 30.1627016,60.4340323 29.9750806,60.4340323 Z M6.79620968,52.6451613 L29.0367339,58.3694758 L29.0367339,39.2258468 L6.79620968,33.5952823 C6.79620968,33.5952823 6.79620968,52.6451613 6.79620968,52.6451613 Z" id="Shape" fill="#193651"></path>
                    <polygon id="Path" fill="#F35229" points="9.61149194 50.4868548 9.61149194 37.1612903 26.2214516 41.3841532 26.2214516 54.7097177"></polygon>
                    <polygon id="Path" fill="#F0F0F0" points="29.9750806 59.4955645 54.0924194 53.3958871 54.0924194 32.3753226 29.9750806 38.475121"></polygon>
                    <path d="M29.9750806,60.4341532 C29.7873387,60.4341532 29.5997177,60.3401613 29.4119758,60.2464113 C29.2242339,60.0587903 29.0366129,59.7771774 29.0366129,59.4956855 L29.0366129,38.475121 C29.0366129,38.0058871 29.3181048,37.6305242 29.7873387,37.5366532 L53.9046774,31.4369758 C54.1861694,31.3431048 54.4677823,31.4369758 54.7492742,31.6247177 C54.9370161,31.8124597 55.1246371,32.0939516 55.1246371,32.3754435 L55.1246371,53.3960081 C55.1246371,53.8652419 54.8431452,54.2406048 54.3739113,54.3344758 L30.2565726,60.4341532 C30.1627016,60.4341532 30.0689516,60.4341532 29.9750806,60.4341532 Z M30.9134274,39.2258468 L30.9134274,58.3695968 L53.1539516,52.7391532 L53.1539516,33.5016532 L30.9134274,39.2258468 Z" id="Shape" fill="#183165"></path>
                    <polygon id="Path" fill="#F35229" points="33.7287097 41.3841532 50.3386694 37.1612903 50.3386694 50.4868548 33.7287097 54.7097177"></polygon>
                    <polygon id="Path" fill="#DFDFDF" points="34.9486694 44.5747984 59.0660081 38.475121 54.0924194 32.3753226 29.9750806 38.475121"></polygon>
                    <path d="M34.9486694,45.5131452 C34.6671774,45.5131452 34.3855645,45.4192742 34.1979435,45.1377823 L29.2243548,39.0381048 C29.0366129,38.7566129 28.9428629,38.475 29.0366129,38.1935081 C29.1304839,37.9120161 29.4119758,37.6304032 29.6934677,37.5366532 L53.8108065,31.4369758 C54.1861694,31.3431048 54.5615323,31.4369758 54.7492742,31.7184677 L59.7228629,37.8181452 C59.9106048,38.0996371 60.0043548,38.38125 59.9106048,38.6627419 C59.8167339,38.9442339 59.5352419,39.2258468 59.25375,39.3195968 L35.1364113,45.4192742 C35.1364113,45.5131452 35.0425403,45.5131452 34.9486694,45.5131452 Z M31.6642742,39.0381048 L35.3241532,43.5424597 L57.4708065,37.9120161 L53.8109274,33.4076613 L31.6642742,39.0381048 Z" id="Shape" fill="#183165"></path>
                    <polygon id="Path" fill="#DFDFDF" points="25.0014919 44.5747984 0.884153226 38.475121 5.85774194 32.3753226 29.9750806 38.475121"></polygon>
                    <path d="M25.0014919,45.5131452 C24.907621,45.5131452 24.81375,45.5131452 24.81375,45.5131452 L0.696532258,39.4134677 C0.415040323,39.3195968 0.133427419,39.1319758 0.0396774194,38.7566129 C-0.0541935484,38.475121 0.0396774194,38.0997581 0.227419355,37.9120161 L5.20100806,31.8123387 C5.38875,31.5308468 5.7641129,31.4369758 6.13947581,31.5308468 L30.2568145,37.6305242 C30.5383065,37.7243952 30.8199194,37.9120161 30.9136694,38.287379 C31.0075403,38.568871 30.9136694,38.9442339 30.7259274,39.1319758 L25.7523387,45.2316532 C25.5644758,45.4193952 25.2829839,45.5131452 25.0014919,45.5131452 Z M2.57334677,37.9120161 L24.72,43.5424597 L28.379879,39.0381048 L6.23310484,33.4076613 L2.57334677,37.9120161 Z" id="Shape" fill="#183165"></path>
                    <circle id="Oval" fill="#3761BA" cx="29.9750806" cy="20.5513306" r="9.94717742"></circle>
                    <path d="M49.6818145,21.4896774 L47.5235081,21.4896774 C46.9604032,21.4896774 46.5850403,21.1143145 46.5850403,20.5512097 C46.5850403,19.9881048 46.9604032,19.6127419 47.5235081,19.6127419 L49.6818145,19.6127419 C50.2449194,19.6127419 50.6202823,19.9881048 50.6202823,20.5512097 C50.6202823,21.1143145 50.1510484,21.4896774 49.6818145,21.4896774 Z" id="Path" fill="#3761BA"></path>
                    <path d="M12.4266532,21.4896774 L10.2683468,21.4896774 C9.70524194,21.4896774 9.32987903,21.1143145 9.32987903,20.5512097 C9.32987903,19.9881048 9.70524194,19.6127419 10.2683468,19.6127419 L12.4266532,19.6127419 C12.9897581,19.6127419 13.365121,19.9881048 13.365121,20.5512097 C13.365121,21.1143145 12.8958871,21.4896774 12.4266532,21.4896774 Z" id="Path" fill="#3761BA"></path>
                    <path d="M45.3650806,14.2639113 C45.1773387,13.7946774 45.3650806,13.2316935 45.8343145,13.0439516 L47.805,12.1993548 C48.2742339,12.0116129 48.8372177,12.1993548 49.0249597,12.6685887 C49.2127016,13.1378226 49.0249597,13.7008065 48.5557258,13.8885484 L46.5850403,14.7331452 C46.1158065,14.9207661 45.5528226,14.7331452 45.3650806,14.2639113 Z" id="Path" fill="#3761BA"></path>
                    <path d="M41.7053226,8.82108871 C41.3299597,8.44572581 41.3299597,7.88262097 41.7053226,7.50725806 L43.2067742,6.00580645 C43.5821371,5.63044355 44.1452419,5.63044355 44.5206048,6.00580645 C44.8959677,6.38116935 44.8959677,6.94427419 44.5206048,7.3196371 L43.1129032,8.82108871 C42.7375403,9.19645161 42.0806855,9.19645161 41.7053226,8.82108871 Z" id="Path" fill="#3761BA"></path>
                    <path d="M36.35625,5.25508065 C35.8870161,5.06733871 35.6055242,4.50435484 35.8870161,4.03512097 L36.6377419,2.06443548 C36.8254839,1.59520161 37.3884677,1.31370968 37.8577016,1.59520161 C38.3269355,1.78294355 38.6084274,2.34592742 38.3269355,2.81516129 L37.4823387,4.78584677 C37.3885887,5.16133065 36.8254839,5.44282258 36.35625,5.25508065 Z" id="Path" fill="#3761BA"></path>
                    <path d="M29.9750806,3.94137097 C29.4119758,3.94137097 29.0366129,3.56600806 29.0366129,3.00290323 L29.0366129,0.938467742 C29.0366129,0.375362903 29.4119758,0 29.9750806,0 C30.5381855,0 30.9135484,0.375362903 30.9135484,0.938467742 L30.9135484,3.00302419 C30.9134274,3.56600806 30.5380645,3.94137097 29.9750806,3.94137097 Z" id="Path" fill="#3761BA"></path>
                    <path d="M22.3739516,4.69209677 L21.5293548,2.72141129 C21.3416129,2.25217742 21.5293548,1.68919355 21.9985887,1.50145161 C22.4678226,1.31370968 23.0308065,1.50145161 23.2185484,1.97068548 L24.0631452,3.94137097 C24.2508871,4.41060484 24.0631452,4.97358871 23.5939113,5.16133065 C23.1246774,5.44282258 22.5615726,5.16133065 22.3739516,4.69209677 Z" id="Path" fill="#3761BA"></path>
                    <path d="M16.8372581,8.82108871 L15.3358065,7.3196371 C14.9604435,6.94427419 14.9604435,6.38116935 15.3358065,6.00580645 C15.7111694,5.63044355 16.2742742,5.63044355 16.6496371,6.00580645 L18.1510887,7.50725806 C18.5264516,7.88262097 18.5264516,8.44572581 18.1510887,8.82108871 C17.8694758,9.19645161 17.212621,9.19645161 16.8372581,8.82108871 Z" id="Path" fill="#3761BA"></path>
                    <path d="M13.365121,14.7331452 L11.3944355,13.8885484 C10.9252016,13.7008065 10.6437097,13.1378226 10.9252016,12.6685887 C11.1129435,12.1993548 11.6759274,11.9178629 12.1451613,12.1993548 L14.1158468,13.0439516 C14.5850806,13.2316935 14.8665726,13.7946774 14.5850806,14.2639113 C14.3973387,14.7331452 13.8343548,14.9207661 13.365121,14.7331452 Z" id="Path" fill="#3761BA"></path>
                    <g id="Group" transform="translate(28.427419, 13.790323)" fill="#FFFFFF">
                        <path d="M1.54766129,0.00435483871 C0.703064516,0.00435483871 0.0462096774,0.755080645 0.0462096774,1.59967742 L0.703064516,9.85778226 C0.703064516,10.3270161 1.07842742,10.6085081 1.54766129,10.6085081 C2.01689516,10.6085081 2.39225806,10.2331452 2.39225806,9.85778226 L3.0491129,1.59967742 C3.0491129,0.755080645 2.39225806,0.00435483871 1.54766129,0.00435483871 Z" id="Path"></path>
                        <circle id="Oval" cx="1.54766129" cy="12.6730645" r="1"></circle>
                    </g>
                </g>
            </g>
        </g>
    </g>
</svg>