<?xml version="1.0" encoding="UTF-8"?>
<svg width="80px" height="77px" viewBox="0 0 80 77" version="1.1" xmlns="http://www.w3.org/2000/svg" xmlns:xlink="http://www.w3.org/1999/xlink">
    <!-- Generator: Sketch 56.3 (81716) - https://sketch.com -->
    <title>Group 45</title>
    <desc>Created with Sketch.</desc>
    <defs>
        <linearGradient x1="-3.04574141%" y1="112.484128%" x2="104.87563%" y2="-12.6612369%" id="linearGradient-1">
            <stop stop-color="#1C7CFB" stop-opacity="0.267318619" offset="0%"></stop>
            <stop stop-color="#1C7CFB" stop-opacity="0" offset="100%"></stop>
        </linearGradient>
    </defs>
    <g id="Page-1" stroke="none" stroke-width="1" fill="none" fill-rule="evenodd">
        <g id="Hey-Digital_PPC-Management" transform="translate(-280.000000, -1265.000000)">
            <g id="Group-45" transform="translate(276.000000, 1262.000000)">
                <g id="Facebook-Ads" fill-rule="nonzero">
                    <g id="Group-10" transform="translate(4.000000, 3.000000)">
                        <path d="M80,40.21625 C80,35.8989062 78.04625,31.8514062 74.6332813,28.3667187 C72.2584375,25.9420312 70.2810938,23.164375 68.771875,20.124375 C63.9454688,10.4029687 55.7165625,4 46.375625,4 C39.7376563,4 33.6617187,7.2340625 28.9689063,12.5942187 C25.8626563,16.1421875 21.940625,18.86375 17.5646875,20.6209375 C6.96484375,24.8775 0,32.0651562 0,40.21625 C0,48.3673437 6.96484375,55.555 17.5646875,59.8115625 C21.940625,61.56875 25.8626563,64.2903125 28.9690625,67.8382812 C33.661875,73.1984375 39.7378125,76.4325 46.3757813,76.4325 C55.7167187,76.4325 63.945625,70.0295312 68.7720312,60.308125 C70.28125,57.268125 72.2585938,54.4904687 74.6334375,52.0657812 C78.04625,48.5810937 80,44.5335937 80,40.21625 Z" id="Path" fill="url(#linearGradient-1)"></path>
                        <path d="M8.40171875,46.1915625 C8.20171875,46.1915625 8.001875,46.1153125 7.84921875,45.9628125 L6.83921875,44.9528125 L5.82921875,45.9628125 C5.5240625,46.2678125 5.02953125,46.2678125 4.724375,45.9628125 C4.41921875,45.6576563 4.41921875,45.1629688 4.724375,44.8579688 L6.286875,43.2954688 C6.59203125,42.9904688 7.0865625,42.9904688 7.39171875,43.2954688 L8.95421875,44.8579688 C9.259375,45.163125 9.259375,45.6578125 8.95421875,45.9628125 C8.8015625,46.1151563 8.6015625,46.1915625 8.40171875,46.1915625 Z" id="Path" fill="#6C6CFF"></path>
                        <path d="M74.3515625,61.6704687 C74.1515625,61.6704687 73.9517188,61.5942187 73.7990625,61.4417187 L72.7890625,60.4317187 L71.7790625,61.4417187 C71.4739063,61.7467187 70.979375,61.7467187 70.6742188,61.4417187 C70.3690625,61.1365625 70.3690625,60.641875 70.6742188,60.336875 L72.2367188,58.774375 C72.541875,58.469375 73.0364063,58.469375 73.3415625,58.774375 L74.9040625,60.336875 C75.2092188,60.6420312 75.2092188,61.1367187 74.9040625,61.4417187 C74.7514063,61.5940625 74.5515625,61.6704687 74.3515625,61.6704687 Z" id="Path" fill="#6C6CFF"></path>
                        <path d="M14.6484375,71.8829688 C14.4484375,71.8829688 14.2485937,71.8067188 14.0959375,71.6542188 C13.7907812,71.3490625 13.7907812,70.854375 14.0959375,70.549375 L15.6584375,68.986875 C15.9635937,68.681875 16.458125,68.681875 16.7632812,68.986875 C17.0684375,69.2920313 17.0684375,69.7867188 16.7632812,70.0917188 L15.2007812,71.6542188 C15.0482812,71.8065625 14.8484375,71.8829688 14.6484375,71.8829688 L14.6484375,71.8829688 Z" id="Path" fill="#FF9D33"></path>
                        <path d="M72.6953125,35.7370313 C72.4953125,35.7370313 72.2954687,35.6607813 72.1428125,35.5082813 C71.8376562,35.203125 71.8376562,34.7084375 72.1428125,34.4034375 L73.7053125,32.8409375 C74.0104687,32.5359375 74.505,32.5359375 74.8101562,32.8409375 C75.1153125,33.1460938 75.1153125,33.6407813 74.8101562,33.9457813 L73.2476562,35.5082813 C73.0951562,35.6607813 72.8953125,35.7370313 72.6953125,35.7370313 Z" id="Path" fill="#FF6C6C"></path>
                        <path d="M6.484375,23.7196875 C6.284375,23.7196875 6.08453125,23.6434375 5.931875,23.4909375 C5.62671875,23.1857813 5.62671875,22.6910938 5.931875,22.3860938 L7.494375,20.8235938 C7.79953125,20.5185938 8.2940625,20.5185938 8.59921875,20.8235938 C8.904375,21.12875 8.904375,21.6234375 8.59921875,21.9284375 L7.03671875,23.4909375 C6.88421875,23.6434375 6.684375,23.7196875 6.484375,23.7196875 Z" id="Path" fill="#FF6C6C"></path>
                        <path d="M46.484375,3.7196875 C46.284375,3.7196875 46.0845312,3.6434375 45.931875,3.4909375 C45.6267187,3.18578125 45.6267187,2.69109375 45.931875,2.38609375 L47.494375,0.82359375 C47.7995312,0.51859375 48.2940625,0.51859375 48.5992187,0.82359375 C48.904375,1.12875 48.904375,1.6234375 48.5992187,1.9284375 L47.0367187,3.4909375 C46.8842187,3.6434375 46.684375,3.7196875 46.484375,3.7196875 Z" id="Path-Copy-2" fill="#FF6C6C" transform="translate(47.265547, 2.157266) scale(-1, 1) translate(-47.265547, -2.157266) "></path>
                    </g>
                </g>
                <g id="Group-17" transform="translate(26.000000, 10.000000)">
                    <path d="M29.1992019,45.0964038 C30.7196827,45.0964038 32.1605481,45.1223654 33.6005481,45.0868846 C34.5143942,45.06525 35.1885288,44.3383269 35.1842226,43.4876538 C35.1781442,42.6049615 34.4745865,41.9507308 33.5070865,41.9386154 C32.9826635,41.9325577 32.4582404,41.9386154 31.9338173,41.9386154 C31.0251635,41.9386154 30.117375,41.9386154 29.1992019,41.9386154 L29.1992019,45.0964038 Z M30.0446827,32.0680385 L26.5753558,32.0680385 L26.5753558,36.4010192 C28.1832404,36.9315 28.9941058,38.1032308 29.2017981,39.7535192 L30.0446827,39.7535192 L30.0446827,32.0680385 Z M29.1940096,50.3579423 C31.0692981,50.3579423 32.8770865,50.3614038 34.684875,50.3562115 C35.6471827,50.35275 36.3585288,49.7037115 36.3844904,48.8253462 C36.4113173,47.934 35.6817981,47.2183269 34.6935288,47.2044808 C33.5157404,47.1871731 32.3370865,47.1992885 31.1592981,47.1984231 L29.1940096,47.1984231 L29.1940096,50.3579423 Z M29.3835288,57.8019808 C28.3796827,57.8019808 27.3758365,57.7933269 26.3719904,57.8045769 C25.4875673,57.8140962 24.897375,58.3540962 24.8480481,59.1718846 C24.7874712,60.1592885 25.2746827,60.8931346 26.1937212,60.9190962 C28.3312212,60.9788077 30.4713173,60.9753462 32.6079519,60.9260192 C33.5053558,60.9061154 34.0228558,60.1826538 33.9735288,59.2566923 C33.9250673,58.3601538 33.3712212,57.8149615 32.4608365,57.8037115 C31.4353558,57.7907308 30.4090096,57.8011154 29.3835288,57.8019808 L29.3835288,57.8019808 Z M29.3869904,55.6324615 C30.7629519,55.6324615 32.1389135,55.6437115 33.514875,55.629 C34.4841058,55.6194808 35.179875,54.9522692 35.1833442,54.0687115 C35.1859327,53.2137115 34.5247788,52.5032308 33.5849712,52.4937115 C30.8122788,52.4651538 28.0378558,52.4651538 25.2651635,52.4911154 C24.2794904,52.5006346 23.6434327,53.1912115 23.6538173,54.1033269 C23.6642019,55.0180385 24.3115096,55.6220769 25.324875,55.6307308 C26.6792019,55.6419808 28.0335288,55.6333269 29.3869904,55.6324615 L29.3869904,55.6324615 Z M2.14554808,59.2030385 L6.85756731,59.2030385 L6.85756731,43.1492885 L2.14554808,43.1492885 L2.14554808,59.2030385 Z M19.7725673,45.0193846 C19.6202596,45.7393846 19.5181442,46.4109231 19.3338173,47.0590962 C18.4000673,50.3241923 16.1059327,52.2098654 12.7465096,52.5040962 C12.6816058,52.5101538 12.6158365,52.5188077 12.5509327,52.5214038 C11.7859327,52.5465 11.2416058,52.1060192 11.2355481,51.4604423 C11.2303558,50.8520769 11.7288173,50.4115962 12.4678558,50.3709231 C14.839875,50.2393846 16.3941058,49.1117885 17.1288173,46.8418846 C17.4143942,45.9617885 17.5268942,45.0150577 17.629875,44.0882308 C17.7207404,43.2661154 18.0279519,42.8879423 18.8422788,42.8792885 C19.6730481,42.8706346 20.5038173,42.8715 21.3345865,42.8784231 C22.1817981,42.8862115 22.568625,43.2695769 22.591125,44.1237115 C22.6075673,44.7355385 22.5772788,45.3490962 22.6179519,45.9591923 C22.759875,48.0863077 25.0341058,49.8447692 27.0097788,49.3315962 C27.0097788,46.2395769 27.0141058,43.1363077 27.0071827,40.0339038 C27.0054519,38.8907308 26.5087212,38.4095769 25.3603558,38.4095769 C21.6660288,38.4078462 17.9717019,38.3991923 14.277375,38.4268846 C13.9571827,38.4294808 13.5599712,38.6034231 13.332375,38.8310192 C12.0645865,40.0979423 10.8417981,41.4098654 9.59477885,42.6966923 C9.33083654,42.9692885 9.03747115,43.1423654 9.0400502,43.6356346 C9.06775962,48.7509231 9.05391346,53.8662115 9.05824038,58.9815 C9.05910577,60.3124615 9.60949038,60.8645769 10.9205481,60.8663077 C14.7247788,60.8706346 18.5281442,60.8690233 22.3315096,60.8671731 C22.523625,60.8671731 22.714875,60.8481346 22.9467981,60.8360192 C22.5876635,59.5725577 22.6231442,58.3826538 23.2799712,57.2740962 C21.2662212,55.8981346 20.6085288,52.8805385 23.2349712,50.8650577 C22.5409327,50.0169808 21.6902596,49.25025 21.1969904,48.2983269 C20.6916058,47.3239038 20.5367019,46.1686154 20.2078558,45.0193846 L19.7725673,45.0193846 Z M28.8971827,29.9937528 C36.3092019,29.9755385 42.3400673,23.9178462 42.3392019,16.4919808 C42.3383365,8.96659615 36.3005481,2.98419231 28.7128558,2.9902454 C21.3847788,2.99630769 15.3539135,9.11890385 15.3840883,16.524 C15.4144904,24.02775 21.4176635,30.0118846 28.8971827,29.9937528 L28.8971827,29.9937528 Z M32.2271827,31.7590962 L32.2271827,39.7993846 C32.7507404,39.7993846 33.2474712,39.7699615 33.7407404,39.8045769 C36.5887212,40.0079423 38.1377596,42.7962115 36.8197788,45.3291923 C36.7799712,45.4044808 36.7427596,45.4823654 36.7046827,45.5576538 C38.9347788,47.0513077 39.2843942,50.1814038 36.7193942,51.9874615 C37.744875,54.3058269 37.4714135,55.5753462 35.5563173,57.2715 C36.0608365,58.2121731 36.2719904,59.2073654 36.0141058,60.2839038 C35.6281442,61.8926538 34.2270865,63.0626538 32.5620865,63.0617889 C25.3058365,63.0591923 18.0504519,63.0418846 10.7942019,63.0237115 C9.62420192,63.0211154 8.63420192,62.6014038 7.819875,61.7334231 C7.62949038,61.5300577 7.27727885,61.3786154 6.99775962,61.3751538 C4.68285577,61.3465962 2.36795192,61.3587115 0.000259615385,61.3587115 L0.000259615385,41.0368846 C0.228721154,41.0247692 0.459778846,41.0031346 0.690836538,41.0022692 C3.00747115,40.9996731 5.32497115,40.9892885 7.64160577,41.0100577 C8.09247115,41.0143846 8.41352885,40.8906346 8.72420192,40.5557308 C9.86997115,39.3234231 11.059875,38.1317885 12.2013173,36.8960192 C12.6071827,36.4564038 13.0476635,36.2893846 13.6395865,36.2928462 C16.9834327,36.31275 20.3281442,36.3023654 23.6719904,36.3023654 L24.4447788,36.3023654 C24.4447788,34.7265 24.4577596,33.2241923 24.4231442,31.72275 C24.4205481,31.5825577 24.1349712,31.3869808 23.9445865,31.3220769 C21.016125,30.3173654 18.6060288,28.5969808 16.6433365,26.2033269 C12.0602596,20.6181346 12.1113173,12.0490962 16.8103558,6.55303846 C20.363625,2.39573077 24.8930481,0.518711538 30.342375,0.917653846 C36.8794904,1.39621154 42.8117019,6.68198077 44.1270865,13.1550577 C45.811125,21.4411154 40.9087212,29.394 32.7706442,31.5834231 C32.5854519,31.6336154 32.4054519,31.7011154 32.2271827,31.7590962 L32.2271827,31.7590962 Z" id="Fill-1" fill="#183165"></path>
                    <path d="M27.88425,8.71390385 C24.9566538,9.65457692 24.2487692,12.9248654 26.0098269,14.9091923 C26.8025192,15.8005385 27.8305962,16.119 28.9850192,16.2107308 C29.8599231,16.2808269 30.4605,17.0051538 30.4475192,17.8506346 C30.4354038,18.6658269 29.8330962,19.3408269 29.0057885,19.4637115 C28.098,19.5995769 27.32175,18.9323654 27.1988654,17.9103462 C27.1071346,17.1349615 26.6199231,16.6884231 25.9648269,16.7784231 C25.3452115,16.8632308 24.9947308,17.4049615 25.0734808,18.1491923 C25.2119423,19.4567885 25.8177115,20.5030385 26.9920385,21.0854423 C27.6272308,21.4004423 27.9829038,21.6842885 27.9102115,22.4605385 C27.8548269,23.0420769 28.4173269,23.4687115 28.98675,23.4496731 C29.5388654,23.4306346 29.9395385,23.0334231 29.9914615,22.4449615 C30.0053077,22.2926538 30.0191538,22.1360192 29.9975192,21.9863077 C29.9395385,21.5813077 30.1065577,21.3831346 30.4821346,21.2031346 C32.33925,20.3117885 33.1423269,18.1924615 32.3262692,16.3362115 C31.6625192,14.8261154 30.4501154,14.0991923 28.8214615,14.0247692 C27.9439615,13.9849615 27.2897308,13.4051538 27.2057885,12.6064038 C27.1140577,11.7289038 27.6125192,10.9872692 28.4398269,10.7691923 C29.4488654,10.5035192 30.35925,11.2226538 30.4994423,12.39525 C30.5764615,13.0408269 31.0429038,13.4890962 31.6036731,13.4570769 C32.1895385,13.4241923 32.60925,12.9525577 32.5971346,12.2965962 C32.5729038,10.9457308 31.9775192,9.87005769 30.8213654,9.21063462 C30.2216538,8.86967308 29.9101154,8.55726923 29.9741538,7.82775 C30.0269423,7.21851923 29.5206923,6.80140385 28.94175,6.804844 C28.3688654,6.80919231 27.9309808,7.23063462 27.8877115,7.84159615 C27.8678077,8.12284615 27.88425,8.40755769 27.88425,8.71390385" id="Path" fill="#FEFEFE"></path>
                    <path d="M29.0153077,28.0682308 C29.4255,28.0206346 30.1731923,27.9929423 30.8949231,27.8397692 C37.2061731,26.4975577 41.1289615,20.8578462 40.1796346,14.4799615 C39.9364615,12.8409231 39.3151154,11.3290962 38.3891538,9.95140385 C38.0135769,9.39323077 37.4277115,9.25044231 36.9128077,9.56111538 C36.4178077,9.85880769 36.2629038,10.4368846 36.5432885,10.9898654 C36.6505962,11.2036154 36.7916538,11.4000577 36.9154038,11.6068846 C39.1446346,15.3488077 38.4280962,20.3481346 35.2365577,23.3146731 C31.5266538,26.7623654 26.2261731,26.8385192 22.3189615,23.499 C21.6673269,22.9425577 21.0355962,22.9217885 20.5959808,23.4436154 C20.1814615,23.9342885 20.2956923,24.54525 20.9101154,25.0904423 C23.1280962,27.0557308 25.7277115,28.0189038 29.0153077,28.0682308" id="Path" fill="#FEFEFE"></path>
                    <path d="M15.3835556,16.524 C15.3543462,9.11890385 21.3843462,2.99630769 28.7124231,2.99024081 C36.3001154,2.98419231 42.3379038,8.96659615 42.3387692,16.4919808 C42.3396346,23.9178462 36.3087692,29.9755385 28.8976154,29.9937939 C21.4180962,30.0118846 15.4140577,24.02775 15.3835556,16.524 Z" id="Path" fill="#F35229"></path>
                    <path d="M19.773,45.019125 L20.2074231,45.019125 C20.5371346,46.1683558 20.6920385,47.3236442 21.1974231,48.2980673 C21.6906923,49.2499904 22.5413654,50.0167212 23.2354038,50.8647981 C20.6080962,52.8802788 21.2657885,55.8987404 23.2804038,57.2738365 C22.6227115,58.3823942 22.5872308,59.5722981 22.9463654,60.8357596 C22.7153077,60.8487404 22.5240577,60.8669135 22.3319423,60.8669135 C18.5285769,60.8687637 14.7252115,60.870375 10.9209808,60.8660481 C9.60905769,60.8651827 9.05953846,60.3122019 9.05780769,58.9812404 C9.05348077,53.8659519 9.06732692,48.7506635 9.03961751,43.635375 C9.03703846,43.1429712 9.33040385,42.9690288 9.59434615,42.6964327 C10.8422308,41.4096058 12.0641538,40.0976827 13.3319423,38.8307596 C13.5595385,38.6031635 13.95675,38.4292212 14.2778077,38.426625 C17.9712692,38.3989327 21.6664615,38.4075865 25.3607885,38.4093173 C26.5091538,38.4101827 27.0050192,38.8904712 27.0076154,40.0345096 C27.0145385,43.1369135 27.0102115,46.2393173 27.0102115,49.3313365 C25.0345385,49.8445096 22.7603077,48.0860481 22.6175192,45.9589327 C22.5768462,45.3497019 22.6071346,44.7352788 22.5915577,44.1234519 C22.5681923,43.2693173 22.1822308,42.8868173 21.3341538,42.8790288 C20.5033846,42.8712404 19.6726154,42.870375 18.8418462,42.8790288 C18.0275192,42.8876827 17.7211731,43.2658558 17.6294423,44.0888365 C17.5264615,45.0147981 17.4139615,45.9615288 17.12925,46.841625 C16.3945385,49.1115288 14.8403077,50.239125 12.4674231,50.3706635 C11.7283846,50.4113365 11.2307885,50.8518173 11.2359808,51.4601827 C11.2411731,52.1057596 11.7863654,52.5462404 12.5505,52.5211442 C12.6162692,52.5194135 12.6811731,52.5098942 12.7469423,52.5038365 C16.1063654,52.2096058 18.3996346,50.3239327 19.3333846,47.0588365 C19.5185769,46.4106635 19.6198269,45.739125 19.773,45.019125" id="Fill-6" fill="#F0F0F0"></path>
                    <polygon id="Fill-8" fill="#F35229" points="2.14528846 59.2026058 6.85730769 59.2026058 6.85730769 43.1488558 2.14528846 43.1488558"></polygon>
                    <path d="M29.38725,55.6331538 C28.0337885,55.6331538 26.6794615,55.6418077 25.3251346,55.6305577 C24.3117692,55.6219038 23.6644615,55.0187308 23.6540769,54.1031538 C23.6436923,53.1910385 24.27975,52.5004615 25.2645577,52.4918077 C28.0381154,52.4649808 30.8116731,52.4649808 33.5852308,52.4935385 C34.5250385,52.5030577 35.1861923,53.2144038 35.1827443,54.0685385 C35.1792692,54.9520962 34.4843654,55.6193077 33.5151346,55.6296923 C32.1391731,55.6435385 30.7632115,55.6331538 29.38725,55.6331538" id="Fill-10" fill="#F0F0F0"></path>
                    <path d="M29.383875,57.8012885 C30.4093558,57.8012885 31.4357019,57.7909038 32.4611827,57.8038846 C33.3707019,57.8151346 33.9254135,58.3603269 33.9730096,59.2568654 C34.0232019,60.1828269 33.5057019,60.9054231 32.6082981,60.9261923 C30.4707981,60.9746538 28.3307019,60.9789808 26.1940673,60.9192692 C25.2741635,60.8933077 24.7878173,60.1594615 24.8475288,59.1720577 C24.8968558,58.3542692 25.4879135,57.8142692 26.3723365,57.8038846 C27.3761827,57.7935 28.3800288,57.8012885 29.383875,57.8012885" id="Fill-11" fill="#F0F0F0"></path>
                    <path d="M29.19375,50.3575962 L29.19375,47.1989423 L31.1590385,47.1989423 C32.3376923,47.1989423 33.5163462,47.1868269 34.6932692,47.2041346 C35.6824038,47.2179808 36.4110577,47.9345192 36.3850962,48.825 C36.3591346,49.7033654 35.6469231,50.3532692 34.6846154,50.3558654 C32.8768269,50.3619231 31.0690385,50.3575962 29.19375,50.3575962" id="Fill-12" fill="#F0F0F0"></path>
                    <path d="M30.0443365,32.0682981 L30.0443365,39.7529135 L29.2023173,39.7529135 C28.994625,38.1034904 28.1837596,36.9317596 26.575875,36.4012788 L26.575875,32.0682981 L30.0443365,32.0682981 Z" id="Fill-13" fill="#FEFEFE"></path>
                    <path d="M29.1992019,45.0964038 L29.1992019,41.9386154 C30.117375,41.9386154 31.0251635,41.9386154 31.9338173,41.9386154 C32.4582404,41.9386154 32.9826635,41.9325577 33.5070865,41.9386154 C34.4745865,41.9507308 35.1781442,42.6049615 35.1842226,43.4876538 C35.1885288,44.3383269 34.5143942,45.06525 33.6005481,45.0868846 C32.1605481,45.1223654 30.7196827,45.0964038 29.1992019,45.0964038" id="Fill-14" fill="#F0F0F0"></path>
                    <path d="M29.0150481,28.0684904 C25.7283173,28.0182981 23.1278365,27.0559904 20.9107212,25.0907019 C20.2954327,24.5455096 20.1812019,23.9345481 20.5957212,23.4430096 C21.0353365,22.9220481 21.6679327,22.9428173 22.3187019,23.4992596 C26.2267788,26.8387788 31.5263942,26.762625 35.2362981,23.3149327 C38.4278365,20.3483942 39.144375,15.3490673 36.9151442,11.6071442 C36.7922596,11.4003173 36.6512019,11.203875 36.5430288,10.990125 C36.2626442,10.4362788 36.4184135,9.85906731 36.9125481,9.561375 C37.4274519,9.24983654 38.0133173,9.392625 38.3897596,9.95166346 C39.3157212,11.3293558 39.9362019,12.8411827 40.1802404,14.4802212 C41.1287019,20.8572404 37.2067788,26.4978173 30.8946635,27.8400288 C30.1729327,27.9932019 29.4252404,28.0208942 29.0150481,28.0684904" id="Fill-15" fill="#FFFFFF"></path>
                    <path d="M27.88425,8.71390385 C27.88425,8.40755769 27.8678077,8.12284615 27.8877115,7.84159615 C27.9309808,7.23063462 28.3688654,6.80919231 28.94175,6.804844 C29.5206923,6.80140385 30.0269423,7.21851923 29.9741538,7.82775 C29.9101154,8.55726923 30.2216538,8.86967308 30.8213654,9.21063462 C31.9775192,9.87005769 32.5729038,10.9457308 32.5971346,12.2965962 C32.60925,12.9525577 32.1895385,13.4241923 31.6036731,13.4570769 C31.0429038,13.4890962 30.5764615,13.0408269 30.4994423,12.39525 C30.35925,11.2226538 29.4488654,10.5035192 28.4398269,10.7691923 C27.6125192,10.9872692 27.1140577,11.7289038 27.2057885,12.6064038 C27.2897308,13.4051538 27.9439615,13.9849615 28.8214615,14.0247692 C30.4501154,14.0991923 31.6625192,14.8261154 32.3262692,16.3362115 C33.1423269,18.1924615 32.33925,20.3117885 30.4821346,21.2031346 C30.1065577,21.3831346 29.9395385,21.5813077 29.9975192,21.9863077 C30.0191538,22.1360192 30.0053077,22.2926538 29.9914615,22.4449615 C29.9395385,23.0334231 29.5388654,23.4306346 28.98675,23.4496731 C28.4173269,23.4687115 27.8548269,23.0420769 27.9102115,22.4605385 C27.9829038,21.6842885 27.6272308,21.4004423 26.9920385,21.0854423 C25.8177115,20.5030385 25.2119423,19.4567885 25.0734808,18.1491923 C24.9947308,17.4049615 25.3452115,16.8632308 25.9648269,16.7784231 C26.6199231,16.6884231 27.1071346,17.1349615 27.1988654,17.9103462 C27.32175,18.9323654 28.098,19.5995769 29.0057885,19.4637115 C29.8330962,19.3408269 30.4354038,18.6658269 30.4475192,17.8506346 C30.4605,17.0051538 29.8599231,16.2808269 28.9850192,16.2107308 C27.8305962,16.119 26.8025192,15.8005385 26.0098269,14.9091923 C24.2487692,12.9248654 24.9566538,9.65457692 27.88425,8.71390385" id="Fill-16" fill="#FFFFFF"></path>
                </g>
            </g>
        </g>
    </g>
</svg>