<?xml version="1.0" encoding="UTF-8"?>
<svg width="80px" height="77px" viewBox="0 0 80 77" version="1.1" xmlns="http://www.w3.org/2000/svg" xmlns:xlink="http://www.w3.org/1999/xlink">
    <!-- Generator: Sketch 56.3 (81716) - https://sketch.com -->
    <title>Group 31</title>
    <desc>Created with Sketch.</desc>
    <defs>
        <linearGradient x1="-3.04574141%" y1="112.484128%" x2="104.87563%" y2="-12.6612369%" id="linearGradient-1">
            <stop stop-color="#1C7CFB" stop-opacity="0.267318619" offset="0%"></stop>
            <stop stop-color="#1C7CFB" stop-opacity="0" offset="100%"></stop>
        </linearGradient>
    </defs>
    <g id="Page-1" stroke="none" stroke-width="1" fill="none" fill-rule="evenodd">
        <g id="Hey-Digital_PPC-Management" transform="translate(-1081.000000, -1262.000000)" fill-rule="nonzero">
            <g id="Group-31" transform="translate(1081.000000, 1262.000000)">
                <g id="Group-10">
                    <path d="M80,40.21625 C80,35.8989062 78.04625,31.8514062 74.6332813,28.3667187 C72.2584375,25.9420312 70.2810938,23.164375 68.771875,20.124375 C63.9454688,10.4029687 55.7165625,4 46.375625,4 C39.7376563,4 33.6617187,7.2340625 28.9689063,12.5942187 C25.8626563,16.1421875 21.940625,18.86375 17.5646875,20.6209375 C6.96484375,24.8775 0,32.0651562 0,40.21625 C0,48.3673437 6.96484375,55.555 17.5646875,59.8115625 C21.940625,61.56875 25.8626563,64.2903125 28.9690625,67.8382812 C33.661875,73.1984375 39.7378125,76.4325 46.3757813,76.4325 C55.7167187,76.4325 63.945625,70.0295312 68.7720312,60.308125 C70.28125,57.268125 72.2585938,54.4904687 74.6334375,52.0657812 C78.04625,48.5810937 80,44.5335937 80,40.21625 Z" id="Path" fill="url(#linearGradient-1)"></path>
                    <path d="M8.40171875,46.1915625 C8.20171875,46.1915625 8.001875,46.1153125 7.84921875,45.9628125 L6.83921875,44.9528125 L5.82921875,45.9628125 C5.5240625,46.2678125 5.02953125,46.2678125 4.724375,45.9628125 C4.41921875,45.6576563 4.41921875,45.1629688 4.724375,44.8579688 L6.286875,43.2954688 C6.59203125,42.9904688 7.0865625,42.9904688 7.39171875,43.2954688 L8.95421875,44.8579688 C9.259375,45.163125 9.259375,45.6578125 8.95421875,45.9628125 C8.8015625,46.1151563 8.6015625,46.1915625 8.40171875,46.1915625 Z" id="Path" fill="#6C6CFF"></path>
                    <path d="M74.3515625,61.6704687 C74.1515625,61.6704687 73.9517188,61.5942187 73.7990625,61.4417187 L72.7890625,60.4317187 L71.7790625,61.4417187 C71.4739063,61.7467187 70.979375,61.7467187 70.6742188,61.4417187 C70.3690625,61.1365625 70.3690625,60.641875 70.6742188,60.336875 L72.2367188,58.774375 C72.541875,58.469375 73.0364063,58.469375 73.3415625,58.774375 L74.9040625,60.336875 C75.2092188,60.6420312 75.2092188,61.1367187 74.9040625,61.4417187 C74.7514063,61.5940625 74.5515625,61.6704687 74.3515625,61.6704687 Z" id="Path" fill="#6C6CFF"></path>
                    <path d="M14.6484375,71.8829688 C14.4484375,71.8829688 14.2485937,71.8067188 14.0959375,71.6542188 C13.7907812,71.3490625 13.7907812,70.854375 14.0959375,70.549375 L15.6584375,68.986875 C15.9635937,68.681875 16.458125,68.681875 16.7632812,68.986875 C17.0684375,69.2920313 17.0684375,69.7867188 16.7632812,70.0917188 L15.2007812,71.6542188 C15.0482812,71.8065625 14.8484375,71.8829688 14.6484375,71.8829688 L14.6484375,71.8829688 Z" id="Path" fill="#FF9D33"></path>
                    <path d="M72.6953125,35.7370313 C72.4953125,35.7370313 72.2954687,35.6607813 72.1428125,35.5082813 C71.8376562,35.203125 71.8376562,34.7084375 72.1428125,34.4034375 L73.7053125,32.8409375 C74.0104687,32.5359375 74.505,32.5359375 74.8101562,32.8409375 C75.1153125,33.1460938 75.1153125,33.6407813 74.8101562,33.9457813 L73.2476562,35.5082813 C73.0951562,35.6607813 72.8953125,35.7370313 72.6953125,35.7370313 Z" id="Path" fill="#FF6C6C"></path>
                    <path d="M6.484375,23.7196875 C6.284375,23.7196875 6.08453125,23.6434375 5.931875,23.4909375 C5.62671875,23.1857813 5.62671875,22.6910938 5.931875,22.3860938 L7.494375,20.8235938 C7.79953125,20.5185938 8.2940625,20.5185938 8.59921875,20.8235938 C8.904375,21.12875 8.904375,21.6234375 8.59921875,21.9284375 L7.03671875,23.4909375 C6.88421875,23.6434375 6.684375,23.7196875 6.484375,23.7196875 Z" id="Path" fill="#FF6C6C"></path>
                    <path d="M46.484375,3.7196875 C46.284375,3.7196875 46.0845312,3.6434375 45.931875,3.4909375 C45.6267187,3.18578125 45.6267187,2.69109375 45.931875,2.38609375 L47.494375,0.82359375 C47.7995312,0.51859375 48.2940625,0.51859375 48.5992187,0.82359375 C48.904375,1.12875 48.904375,1.6234375 48.5992187,1.9284375 L47.0367187,3.4909375 C46.8842187,3.6434375 46.684375,3.7196875 46.484375,3.7196875 Z" id="Path-Copy-2" fill="#FF6C6C" transform="translate(47.265547, 2.157266) scale(-1, 1) translate(-47.265547, -2.157266) "></path>
                </g>
                <g id="analytics" transform="translate(18.000000, 18.000000)">
                    <path d="M8.46341463,44 L5.14634146,44 C2.85642073,44 1,42.1739204 1,39.9214258 L1,5.07857421 C1,2.82607964 2.85642073,1 5.14634146,1 L47.8536585,1 C50.1435793,1 52,2.82607964 52,5.07857421 L52,39.9214258 C52,42.1739204 50.1435793,44 47.8536585,44 L43.6036585,44 L8.46341463,44 Z" id="Path" fill="#F0F0F0"></path>
                    <path d="M47.8536585,1 L5.14634146,1 C2.85642073,1 1,2.98988889 1,5.44444444 L1,9 L52,9 L52,5.44444444 C52,2.98988889 50.1435793,1 47.8536585,1 Z" id="Path" fill="#F35229"></path>
                    <path d="M3,9 L51,9" id="Path" fill="#231F20"></path>
                    <rect id="Rectangle" fill="#3761BA" x="6" y="39" width="7" height="12"></rect>
                    <rect id="Rectangle" fill="#3761BA" x="28" y="38" width="7" height="13"></rect>
                    <rect id="Rectangle" fill="#3761BA" x="17" y="29" width="7" height="22"></rect>
                    <rect id="Rectangle" fill="#3761BA" x="39" y="27" width="7" height="25"></rect>
                    <circle id="Oval" fill="#F35229" cx="19.5" cy="17.5" r="2.5"></circle>
                    <circle id="Oval" fill="#F35229" cx="31.5" cy="29.5" r="2.5"></circle>
                    <circle id="Oval" fill="#F35229" cx="43.5" cy="17.5" r="2.5"></circle>
                    <circle id="Oval" fill="#F35229" cx="9.5" cy="28.5" r="2.5"></circle>
                    <path d="M48.4537422,44.7384844 C50.409125,44.7384844 52,43.1476094 52,41.192125 L52,5.078125 C52,2.27804687 49.7219531,0 46.921875,0 L5.078125,0 C2.27804687,0 0,2.27804687 0,5.078125 L0,41.192125 C0,43.1476094 1.590875,44.7384844 3.54625781,44.7384844 L4.671875,44.7384844 L4.671875,49.96875 L1.015625,49.96875 C0.454695313,49.96875 0,50.4235469 0,50.984375 C0,51.5452031 0.454695313,52 1.015625,52 L50.984375,52 C51.5453047,52 52,51.5452031 52,50.984375 C52,50.4235469 51.5453047,49.96875 50.984375,49.96875 L47.328125,49.96875 L47.328125,44.7384844 L48.4537422,44.7384844 Z M5.078125,2.03125 L46.921875,2.03125 C48.6019219,2.03125 49.96875,3.39807813 49.96875,5.078125 L49.96875,7.3125 L2.13321875,7.3125 C2.09878906,7.3125 2.06476563,7.31432813 2.03125,7.31767969 L2.03125,5.078125 C2.03125,3.39807813 3.39807813,2.03125 5.078125,2.03125 Z M6.703125,49.96875 L6.703125,40.828125 L11.171875,40.828125 L11.171875,49.96875 L6.703125,49.96875 Z M18.078125,49.96875 L18.078125,29.5985625 L22.546875,29.5985625 L22.546875,49.96875 L18.078125,49.96875 Z M29.453125,49.96875 L29.453125,38.1875 L33.921875,38.1875 L33.921875,49.96875 L29.453125,49.96875 Z M40.828125,49.96875 L40.828125,39.0253906 C40.828125,38.4645625 40.3734297,38.0097656 39.8125,38.0097656 C39.2515703,38.0097656 38.796875,38.4645625 38.796875,39.0253906 L38.796875,49.96875 L35.953125,49.96875 L35.953125,37.171875 C35.953125,36.6110469 35.4984297,36.15625 34.9375,36.15625 L28.4375,36.15625 C27.8765703,36.15625 27.421875,36.6110469 27.421875,37.171875 L27.421875,49.96875 L24.578125,49.96875 L24.578125,28.5829375 C24.578125,28.0221094 24.1234297,27.5673125 23.5625,27.5673125 L17.0625,27.5673125 C16.5015703,27.5673125 16.046875,28.0221094 16.046875,28.5829375 L16.046875,49.96875 L13.203125,49.96875 L13.203125,39.8125 C13.203125,39.2516719 12.7484297,38.796875 12.1875,38.796875 L5.6875,38.796875 C5.12657031,38.796875 4.671875,39.2516719 4.671875,39.8125 L4.671875,42.7072344 L3.54625781,42.7072344 C2.71080469,42.7072344 2.03125,42.0275781 2.03125,41.192125 L2.03125,9.33857031 C2.06476562,9.34192187 2.09878906,9.34375 2.13321875,9.34375 L49.96875,9.34375 L49.96875,41.192125 C49.96875,42.0275781 49.2890938,42.7072344 48.4537422,42.7072344 L47.328125,42.7072344 L47.328125,27.0664063 C47.328125,26.5055781 46.8734297,26.0507813 46.3125,26.0507813 L39.8125,26.0507813 C39.2515703,26.0507813 38.796875,26.5055781 38.796875,27.0664063 L38.796875,32.1952109 C38.796875,32.7560391 39.2515703,33.2108359 39.8125,33.2108359 C40.3734297,33.2108359 40.828125,32.7560391 40.828125,32.1952109 L40.828125,28.0820313 L45.296875,28.0820313 L45.296875,49.96875 L40.828125,49.96875 Z" id="Shape" fill="#183165"></path>
                    <path d="M22.0165288,5 L44.9834712,5 C45.5449001,5 46,4.7761 46,4.5 C46,4.2239 45.5449001,4 44.9834712,4 L22.0165288,4 C21.4550999,4 21,4.2239 21,4.5 C21,4.7761 21.4550999,5 22.0165288,5 Z" id="Path" fill="#FFFFFF"></path>
                    <path d="M11.5,5 C11.6315,5 11.7605,4.9465 11.8535,4.85345 C11.9465,4.7605 12,4.6315 12,4.5 C12,4.3685 11.9465,4.2395 11.8535,4.1465 C11.7605,4.0535 11.6315,4 11.5,4 C11.3685,4 11.2395,4.05345 11.1465,4.1465 C11.0535,4.2395 11,4.3685 11,4.5 C11,4.6315 11.0535,4.7605 11.1465,4.85345 C11.2395,4.9465 11.3685,5 11.5,5 Z" id="Path" fill="#FFFFFF"></path>
                    <path d="M7.5,5 C7.6315,5 7.7605,4.9465 7.8535,4.85345 C7.9465,4.7605 8,4.6315 8,4.5 C8,4.3685 7.9465,4.2395 7.8535,4.1465 C7.7605,4.0535 7.6315,4 7.5,4 C7.3685,4 7.2395,4.05345 7.1465,4.1465 C7.0535,4.2395 7,4.3685 7,4.5 C7,4.6315 7.0535,4.7605 7.1465,4.85345 C7.2395,4.9465 7.3685,5 7.5,5 Z" id="Path" fill="#FFFFFF"></path>
                    <path d="M14.5,5 C14.6315,5 14.7605,4.9465 14.8535,4.85345 C14.9465,4.7605 15,4.6315 15,4.5 C15,4.3685 14.9465,4.2395 14.8535,4.1465 C14.7605,4.0535 14.632,4 14.5,4 C14.3685,4 14.2395,4.05345 14.1465,4.1465 C14.0535,4.2395 14,4.3685 14,4.5 C14,4.6315 14.0535,4.7605 14.1465,4.85345 C14.2395,4.9465 14.3685,5 14.5,5 Z" id="Path" fill="#FFFFFF"></path>
                    <path d="M39.5,35 C39.3685,35 39.2395,35.05305 39.1465,35.1465 C39.0535,35.2395 39,35.3685 39,35.5 C39,35.6315 39.0535,35.7605 39.1465,35.8535 C39.2395,35.94645 39.3685,36 39.5,36 C39.6315,36 39.7605,35.9465 39.8535,35.8535 C39.9465,35.7605 40,35.6315 40,35.5 C40,35.368 39.9465,35.2395 39.8535,35.1465 C39.7605,35.053 39.6315,35 39.5,35 Z" id="Path" fill="#000000"></path>
                    <path d="M43.300139,20.5369783 C45.340304,20.5369783 47,18.8464969 47,16.7684891 C47,14.6904814 45.340304,13 43.300139,13 C41.259974,13 39.600278,14.6904814 39.600278,16.7684891 C39.600278,17.593893 39.8628653,18.3576401 40.3064376,18.9791268 L33.4796801,25.9325126 C32.9498806,25.6338599 32.3412535,25.4632311 31.6939833,25.4632311 C31.1107413,25.4632311 30.5588454,25.6019324 30.0676889,25.8478263 L22.9393928,18.5873086 C23.2326067,18.0476819 23.4001282,17.4277654 23.4001282,16.7684891 C23.4001282,14.6904814 21.7404322,13 19.7002672,13 C17.6601022,13 16.0004062,14.6904814 16.0004062,16.7684891 C16.0004062,17.4947608 16.203693,18.1732982 16.5545632,18.7492489 L10.485455,24.9308273 C9.9556555,24.6321745 9.34702837,24.4615457 8.69986101,24.4615457 C6.65969598,24.4615457 5,26.1520271 5,28.2300349 C5,30.3080426 6.65969598,31.998524 8.69986101,31.998524 C10.740026,31.998524 12.399722,30.3080426 12.399722,28.2300349 C12.399722,27.5707586 12.2322005,26.9508422 11.9389866,26.4112154 L18.0805503,20.1557328 C18.5700624,20.3995331 19.1196974,20.5368736 19.7002672,20.5368736 C20.3474346,20.5368736 20.9560617,20.3662448 21.4858612,20.067592 L28.5443739,27.2569272 C28.1958675,27.8316218 27.9941223,28.5078563 27.9941223,29.2315109 C27.9941223,31.3095186 29.6538183,33 31.6939833,33 C33.7341483,33 35.3938443,31.3095186 35.3938443,29.2315109 C35.3938443,28.5722346 35.2263228,27.9523181 34.9331089,27.4126914 L41.9428039,20.2729747 C42.3634575,20.4427661 42.8211098,20.5369783 43.300139,20.5369783 Z M43.300139,15.0936051 C44.2068105,15.0936051 44.9445217,15.8449999 44.9445217,16.7684891 C44.9445217,17.6919784 44.2068105,18.4433732 43.300139,18.4433732 C42.3934675,18.4433732 41.6557563,17.6919784 41.6557563,16.7684891 C41.6557563,15.8449999 42.3934675,15.0936051 43.300139,15.0936051 Z M8.69996378,29.9051283 C7.79329229,29.9051283 7.05558111,29.1537334 7.05558111,28.2302442 C7.05558111,27.306755 7.79329229,26.5553602 8.69996378,26.5553602 C9.60663528,26.5553602 10.3443465,27.306755 10.3443465,28.2302442 C10.3443465,29.1537334 9.60663528,29.9051283 8.69996378,29.9051283 Z M19.70037,18.4433732 C18.7936985,18.4433732 18.0559873,17.6919784 18.0559873,16.7684891 C18.0559873,15.8449999 18.7936985,15.0936051 19.70037,15.0936051 C20.6070415,15.0936051 21.3447527,15.8449999 21.3447527,16.7684891 C21.3447527,17.6919784 20.6070415,18.4433732 19.70037,18.4433732 Z M31.6940861,30.9066043 C30.7874146,30.9066043 30.0497034,30.1552094 30.0497034,29.2317202 C30.0497034,28.308231 30.7874146,27.5568361 31.6940861,27.5568361 C32.6007576,27.5568361 33.3384688,28.308231 33.3384688,29.2317202 C33.3384688,30.1552094 32.6007576,30.9066043 31.6940861,30.9066043 Z" id="Shape" fill="#183165"></path>
                </g>
            </g>
        </g>
    </g>
</svg>