<?xml version="1.0" encoding="UTF-8"?>
<svg width="80px" height="77px" viewBox="0 0 80 77" version="1.1" xmlns="http://www.w3.org/2000/svg" xmlns:xlink="http://www.w3.org/1999/xlink">
    <!-- Generator: Sketch 56.3 (81716) - https://sketch.com -->
    <title>Mobile &amp; Display Ads</title>
    <desc>Created with Sketch.</desc>
    <defs>
        <linearGradient x1="-3.04574141%" y1="112.484128%" x2="104.87563%" y2="-12.6612369%" id="linearGradient-1">
            <stop stop-color="#1C7CFB" stop-opacity="0.267318619" offset="0%"></stop>
            <stop stop-color="#1C7CFB" stop-opacity="0" offset="100%"></stop>
        </linearGradient>
    </defs>
    <g id="Page-1" stroke="none" stroke-width="1" fill="none" fill-rule="evenodd">
        <g id="Hey-Digital_Paid-Social-Media-Management" transform="translate(-1081.000000, -959.000000)" fill-rule="nonzero">
            <g id="Mobile-&amp;-Display-Ads" transform="translate(1081.000000, 959.000000)">
                <g id="Group-10">
                    <path d="M80,40.21625 C80,35.8989062 78.04625,31.8514062 74.6332813,28.3667187 C72.2584375,25.9420312 70.2810938,23.164375 68.771875,20.124375 C63.9454688,10.4029687 55.7165625,4 46.375625,4 C39.7376563,4 33.6617187,7.2340625 28.9689063,12.5942187 C25.8626563,16.1421875 21.940625,18.86375 17.5646875,20.6209375 C6.96484375,24.8775 0,32.0651562 0,40.21625 C0,48.3673437 6.96484375,55.555 17.5646875,59.8115625 C21.940625,61.56875 25.8626563,64.2903125 28.9690625,67.8382812 C33.661875,73.1984375 39.7378125,76.4325 46.3757813,76.4325 C55.7167187,76.4325 63.945625,70.0295312 68.7720312,60.308125 C70.28125,57.268125 72.2585938,54.4904687 74.6334375,52.0657812 C78.04625,48.5810937 80,44.5335937 80,40.21625 Z" id="Path" fill="url(#linearGradient-1)"></path>
                    <path d="M8.40171875,46.1915625 C8.20171875,46.1915625 8.001875,46.1153125 7.84921875,45.9628125 L6.83921875,44.9528125 L5.82921875,45.9628125 C5.5240625,46.2678125 5.02953125,46.2678125 4.724375,45.9628125 C4.41921875,45.6576563 4.41921875,45.1629688 4.724375,44.8579688 L6.286875,43.2954688 C6.59203125,42.9904688 7.0865625,42.9904688 7.39171875,43.2954688 L8.95421875,44.8579688 C9.259375,45.163125 9.259375,45.6578125 8.95421875,45.9628125 C8.8015625,46.1151563 8.6015625,46.1915625 8.40171875,46.1915625 Z" id="Path" fill="#6C6CFF"></path>
                    <path d="M74.3515625,61.6704687 C74.1515625,61.6704687 73.9517188,61.5942187 73.7990625,61.4417187 L72.7890625,60.4317187 L71.7790625,61.4417187 C71.4739063,61.7467187 70.979375,61.7467187 70.6742188,61.4417187 C70.3690625,61.1365625 70.3690625,60.641875 70.6742188,60.336875 L72.2367188,58.774375 C72.541875,58.469375 73.0364063,58.469375 73.3415625,58.774375 L74.9040625,60.336875 C75.2092188,60.6420312 75.2092188,61.1367187 74.9040625,61.4417187 C74.7514063,61.5940625 74.5515625,61.6704687 74.3515625,61.6704687 Z" id="Path" fill="#6C6CFF"></path>
                    <path d="M14.6484375,71.8829688 C14.4484375,71.8829688 14.2485937,71.8067188 14.0959375,71.6542188 C13.7907812,71.3490625 13.7907812,70.854375 14.0959375,70.549375 L15.6584375,68.986875 C15.9635937,68.681875 16.458125,68.681875 16.7632812,68.986875 C17.0684375,69.2920313 17.0684375,69.7867188 16.7632812,70.0917188 L15.2007812,71.6542188 C15.0482812,71.8065625 14.8484375,71.8829688 14.6484375,71.8829688 L14.6484375,71.8829688 Z" id="Path" fill="#FF9D33"></path>
                    <path d="M72.6953125,35.7370313 C72.4953125,35.7370313 72.2954687,35.6607813 72.1428125,35.5082813 C71.8376562,35.203125 71.8376562,34.7084375 72.1428125,34.4034375 L73.7053125,32.8409375 C74.0104687,32.5359375 74.505,32.5359375 74.8101562,32.8409375 C75.1153125,33.1460938 75.1153125,33.6407813 74.8101562,33.9457813 L73.2476562,35.5082813 C73.0951562,35.6607813 72.8953125,35.7370313 72.6953125,35.7370313 Z" id="Path" fill="#FF6C6C"></path>
                    <path d="M6.484375,23.7196875 C6.284375,23.7196875 6.08453125,23.6434375 5.931875,23.4909375 C5.62671875,23.1857813 5.62671875,22.6910938 5.931875,22.3860938 L7.494375,20.8235938 C7.79953125,20.5185938 8.2940625,20.5185938 8.59921875,20.8235938 C8.904375,21.12875 8.904375,21.6234375 8.59921875,21.9284375 L7.03671875,23.4909375 C6.88421875,23.6434375 6.684375,23.7196875 6.484375,23.7196875 Z" id="Path" fill="#FF6C6C"></path>
                    <path d="M46.484375,3.7196875 C46.284375,3.7196875 46.0845312,3.6434375 45.931875,3.4909375 C45.6267187,3.18578125 45.6267187,2.69109375 45.931875,2.38609375 L47.494375,0.82359375 C47.7995312,0.51859375 48.2940625,0.51859375 48.5992187,0.82359375 C48.904375,1.12875 48.904375,1.6234375 48.5992187,1.9284375 L47.0367187,3.4909375 C46.8842187,3.6434375 46.684375,3.7196875 46.484375,3.7196875 Z" id="Path-Copy-2" fill="#FF6C6C" transform="translate(47.265547, 2.157266) scale(-1, 1) translate(-47.265547, -2.157266) "></path>
                </g>
                <g id="sales" transform="translate(11.000000, 12.000000)">
                    <path d="M54.8197116,1 L3.17457447,1 C1.90606311,1 1,1.91668871 1,3 L1,3 C1,4.16667548 1.99670393,5 3.17457447,5 L54.8197116,5 C56.088223,5 56.9942861,4.08331129 56.9942861,3 L56.9942861,3 C57.0848119,1.91668871 56.088223,1 54.8197116,1 Z" id="Path" fill="#FFFFFF"></path>
                    <path d="M54.9090457,6 L3.09095431,6 C1.36370384,6 0,4.69570017 0,3.04343986 C0,1.39117956 1.36370384,0 3.09095431,0 L54.9090457,0 C56.6362962,0 58,1.30429983 58,2.95656014 C58,4.60882044 56.6362962,6 54.9090457,6 Z M3.09095431,1.73914003 C2.36363021,1.73914003 1.81819484,2.26085997 1.81819484,2.95656014 C1.81819484,3.65226031 2.36363021,4.26085997 3.09095431,4.26085997 L54.9090457,4.26085997 C55.6363698,4.26085997 56.1818052,3.73914003 56.1818052,3.04343986 C56.1818052,2.34773969 55.6363698,1.73914003 54.9090457,1.73914003 L3.09095431,1.73914003 Z" id="Shape" fill="#183165"></path>
                    <path d="M54.8197116,38 L3.17457447,38 C1.90606311,38 1,38.9166887 1,40 L1,40 C1,41.1666755 1.99670393,42 3.17457447,42 L54.8197116,42 C56.088223,42 56.9942861,41.0833113 56.9942861,40 L56.9942861,40 C57.0848119,38.9166887 56.088223,38 54.8197116,38 Z" id="Path" fill="#FFFFFF"></path>
                    <path d="M54.9090457,43 L3.09095431,43 C1.36370384,43 0,41.6765365 0,40 C0,38.3235755 1.36358843,37 3.09095431,37 L54.9090457,37 C56.6362962,37 58,38.3234635 58,40 C58,41.6765365 56.6362962,43 54.9090457,43 Z M3.09095431,38.6765365 C2.36363021,38.6765365 1.81819484,39.2059219 1.81819484,39.9118438 C1.81819484,40.6177657 2.36363021,41.1471511 3.09095431,41.1471511 L54.9090457,41.1471511 C55.6363698,41.1471511 56.1818052,40.6177657 56.1818052,39.9118438 C56.1818052,39.2059219 55.6363698,38.6765365 54.9090457,38.6765365 L3.09095431,38.6765365 Z" id="Shape" fill="#183165"></path>
                    <rect id="Rectangle" fill="#F35229" x="5" y="5" width="49" height="32"></rect>
                    <path d="M54.0957369,38 L4.90426305,38 C4.36172818,38 4,37.6503596 4,37.1259546 L4,4.8740454 C4,4.34964035 4.36172818,4 4.90426305,4 L54.0957369,4 C54.6382718,4 55,4.34964035 55,4.8740454 L55,37.1259546 C55,37.6503596 54.6382718,38 54.0957369,38 Z M5.80852611,36.2519092 L53.1914739,36.2519092 L53.1914739,5.74809081 L5.80852611,5.74809081 L5.80852611,36.2519092 Z" id="Shape" fill="#183165"></path>
                    <rect id="Rectangle" fill="#FFFFFF" x="8" y="9" width="42" height="25"></rect>
                    <g id="Group" transform="translate(15.000000, 14.000000)" fill="#183165">
                        <path d="M24.9658405,42.4805013 L18.9217665,28.8788451 C18.7440428,28.434399 18.9217665,27.9009055 19.3661323,27.7231496 C19.8104981,27.5453937 20.3438949,27.7231496 20.5216187,28.1675958 L26.5656926,41.769252 C26.7434163,42.2136982 26.5656926,42.7471916 26.1213268,42.9249475 C25.6769611,43.1028163 25.143677,42.9249475 24.9658405,42.4805013 Z" id="Path"></path>
                        <path d="M0.522902724,42.9249475 C0.078536965,42.7471916 -0.0992996109,42.2136982 0.078536965,41.769252 L6.12261089,28.1675958 C6.30033463,27.7231496 6.83373152,27.5452808 7.27809728,27.7231496 C7.72246304,27.9009055 7.90029961,28.434399 7.72246304,28.8788451 L1.67838911,42.4805013 C1.50055253,42.9249475 0.967268482,43.1028163 0.522902724,42.9249475 Z" id="Path"></path>
                        <path d="M13.3221712,40.4358005 C12.7888872,40.4358005 12.4333268,40.0801759 12.4333268,39.5467953 L12.4333268,28.5232205 C12.4333268,27.9898399 12.7888872,27.6342152 13.3221712,27.6342152 C13.8554553,27.6342152 14.2110156,27.9898399 14.2110156,28.5232205 L14.2110156,39.5467953 C14.2109027,39.9913543 13.8554553,40.4358005 13.3221712,40.4358005 Z" id="Path"></path>
                        <path d="M17.0552724,12.8768635 C16.7886304,12.8768635 16.6109066,12.7879291 16.43307,12.6101732 L9.05578599,5.23155381 L1.85622568,12.4324173 C1.50066537,12.788042 0.967381323,12.788042 0.611821012,12.4324173 C0.2562607,12.0767927 0.2562607,11.5434121 0.611821012,11.1877874 L8.43358366,3.36460892 C8.78914397,3.00898425 9.32242802,3.00898425 9.67798833,3.36460892 L17.0552724,10.7432283 L27.4546498,0.341968504 C27.8102101,-0.013656168 28.3434942,-0.013656168 28.6990545,0.341968504 C29.0546148,0.697593176 29.0546148,1.23097375 28.6990545,1.58659843 L17.6774747,12.6101732 C17.4996381,12.788042 17.2329961,12.8768635 17.0552724,12.8768635 Z" id="Path"></path>
                    </g>
                    <circle id="Oval" fill="#FFFFFF" cx="33.5" cy="26.5" r="2.5"></circle>
                    <path d="M33.5,30 C31.5256673,30 30,28.384668 30,26.5 C30,24.615332 31.615332,23 33.5,23 C35.4743327,23 37,24.615332 37,26.5 C37,28.384668 35.4743327,30 33.5,30 Z M33.5,24.7052246 C32.5127767,24.7052246 31.7948893,25.5128906 31.7948893,26.4103353 C31.7948893,27.3077799 32.6025553,28.115446 33.5,28.115446 C34.4872233,28.115446 35.2051107,27.3077799 35.2051107,26.4103353 C35.2051107,25.5128906 34.4871094,24.7052246 33.5,24.7052246 Z" id="Shape" fill="#183165"></path>
                    <circle id="Oval" fill="#FFFFFF" cx="16.5" cy="26.5" r="2.5"></circle>
                    <path d="M16.5,30 C14.5256673,30 13,28.384668 13,26.5 C13,24.615332 14.615332,23 16.5,23 C18.384668,23 20,24.615332 20,26.5 C20,28.384668 18.384668,30 16.5,30 Z M16.5,24.7052246 C15.5127767,24.7052246 14.7948893,25.5128906 14.7948893,26.4103353 C14.7948893,27.3077799 15.6025553,28.115446 16.5,28.115446 C17.4872233,28.115446 18.2051107,27.3077799 18.2051107,26.4103353 C18.2051107,25.5128906 17.3974447,24.7052246 16.5,24.7052246 Z" id="Shape" fill="#3761BA"></path>
                    <circle id="Oval" fill="#FFFFFF" cx="24.5" cy="18.5" r="2.5"></circle>
                    <g id="Group" transform="translate(10.000000, 11.000000)">
                        <path d="M14.2157178,10.3476947 C12.2489294,10.3476947 10.729092,8.78065263 10.729092,6.95232632 C10.729092,5.124 12.3382515,3.55695789 14.2157178,3.55695789 C16.093184,3.55695789 17.7023436,5.124 17.7023436,6.95232632 C17.7023436,8.78065263 16.1826196,10.3476947 14.2157178,10.3476947 Z M14.2157178,5.21109474 C13.2322669,5.21109474 12.5171227,5.99461579 12.5171227,6.86523158 C12.5171227,7.82294211 13.3217025,8.51936842 14.2157178,8.51936842 C15.1991687,8.51936842 15.9143129,7.73584737 15.9143129,6.86523158 C16.0037485,5.99461579 15.1991687,5.21109474 14.2157178,5.21109474 Z" id="Shape" fill="#183165"></path>
                        <path d="M33.3474417,9.21590526 C32.8110552,9.21590526 32.4534264,8.86763684 32.4534264,8.34528947 L32.4534264,4.68874737 L28.6986074,4.68874737 C28.1622209,4.68874737 27.804592,4.34047895 27.804592,3.81813158 C27.804592,3.29578421 28.1622209,2.94751579 28.6986074,2.94751579 L33.3474417,2.94751579 C33.8838282,2.94751579 34.2414571,3.29578421 34.2414571,3.81813158 L34.2414571,8.34528947 C34.2414571,8.86763684 33.7945061,9.21590526 33.3474417,9.21590526 Z" id="Path" fill="#183165"></path>
                        <rect id="Rectangle" fill="#183651" x="27.9834632" y="19.2278211" width="1.78803067" height="1.74123158"></rect>
                        <rect id="Rectangle" fill="#183651" x="31.5595245" y="19.2278211" width="1.78803067" height="1.74123158"></rect>
                        <rect id="Rectangle" fill="#183651" x="35.1354724" y="19.2278211" width="1.78803067" height="1.74123158"></rect>
                        <rect id="Rectangle" fill="#183651" x="0.0904570552" y="0.0744947368" width="1.78803067" height="1.74123158"></rect>
                        <rect id="Rectangle" fill="#183651" x="3.6665184" y="0.0744947368" width="1.78803067" height="1.74123158"></rect>
                        <rect id="Rectangle" fill="#183651" x="7.24246626" y="0.0744947368" width="1.78803067" height="1.74123158"></rect>
                    </g>
                    <g id="Group-43" transform="translate(9.000000, 20.000000)">
                        <circle id="Oval" stroke="#183165" stroke-width="1.5" fill="#3761BA" cx="6.5" cy="6.5" r="6.5"></circle>
                        <path d="M7.07503234,3 C7.25552393,3 7.39834411,3.15354293 7.39834411,3.34758559 L7.39834411,3.52538386 C7.84191462,3.58190546 8.21780078,3.73567092 8.563674,3.96999078 C8.68413972,4.04275678 8.78928849,4.16403344 8.78928849,4.35785358 C8.78928849,4.60841784 8.60134541,4.8024605 8.36827943,4.8024605 C8.2931436,4.8024605 8.21800776,4.77820517 8.14287193,4.7296945 C7.87979301,4.55990717 7.6239586,4.43885304 7.36853816,4.37409798 L7.36853816,5.92599421 C8.5113066,6.2333026 9,6.72619767 9,7.59115618 C9,8.48037003 8.35337646,9.07028642 7.3985511,9.16730775 L7.3985511,9.65241441 C7.3985511,9.84645707 7.25573092,10 7.07523933,10 C6.89474774,10 6.74426908,9.84645707 6.74426908,9.65241441 L6.74426908,9.15128588 C6.18043984,9.08653082 5.66173351,8.86845535 5.20305304,8.52086976 C5.07513583,8.43208189 5,8.30257176 5,8.13300696 C5,7.8824427 5.18049159,7.68840004 5.41355757,7.68840004 C5.50380336,7.68840004 5.59384217,7.72066631 5.66173351,7.77718791 C6.01505821,8.0520075 6.36093144,8.2378167 6.774489,8.31881616 L6.774489,6.72642019 C5.67663648,6.41933433 5.16538163,5.97472741 5.16538163,5.06125823 C5.16538163,4.19629971 5.80455369,3.59814986 6.74426908,3.51737292 L6.74426908,3.34758559 C6.7440621,3.15376546 6.89454075,3 7.07503234,3 L7.07503234,3 Z M6.77428202,5.75642941 L6.77428202,4.32580984 C6.2930401,4.3743205 6.05252264,4.6491401 6.05252264,5.00473662 C6.05252264,5.34408876 6.19534282,5.55437581 6.77428202,5.75642941 Z M7.36812419,6.87996312 L7.36812419,8.35108243 C7.84936611,8.29456083 8.11244521,8.03576311 8.11244521,7.64790031 C8.11265201,7.29208125 7.94706339,7.07378326 7.36812419,6.87996312 L7.36812419,6.87996312 Z" id="Shape" fill="#FFFFFF"></path>
                    </g>
                </g>
            </g>
        </g>
    </g>
</svg>