<?xml version="1.0" encoding="UTF-8"?>
<svg width="80px" height="77px" viewBox="0 0 80 77" version="1.1" xmlns="http://www.w3.org/2000/svg" xmlns:xlink="http://www.w3.org/1999/xlink">
    <!-- Generator: Sketch 56.3 (81716) - https://sketch.com -->
    <title>Mobile &amp; Display Ads</title>
    <desc>Created with Sketch.</desc>
    <defs>
        <linearGradient x1="-3.04574141%" y1="112.484128%" x2="104.87563%" y2="-12.6612369%" id="linearGradient-1">
            <stop stop-color="#1C7CFB" stop-opacity="0.267318619" offset="0%"></stop>
            <stop stop-color="#1C7CFB" stop-opacity="0" offset="100%"></stop>
        </linearGradient>
    </defs>
    <g id="Page-1" stroke="none" stroke-width="1" fill="none" fill-rule="evenodd">
        <g id="Hey-Digital_Landing-Page-Design" transform="translate(-681.000000, -919.000000)" fill-rule="nonzero">
            <g id="Mobile-&amp;-Display-Ads" transform="translate(677.000000, 916.000000)">
                <g id="Group-10" transform="translate(4.000000, 3.000000)">
                    <path d="M80,40.21625 C80,35.8989062 78.04625,31.8514062 74.6332813,28.3667187 C72.2584375,25.9420312 70.2810938,23.164375 68.771875,20.124375 C63.9454688,10.4029687 55.7165625,4 46.375625,4 C39.7376563,4 33.6617187,7.2340625 28.9689063,12.5942187 C25.8626563,16.1421875 21.940625,18.86375 17.5646875,20.6209375 C6.96484375,24.8775 0,32.0651562 0,40.21625 C0,48.3673437 6.96484375,55.555 17.5646875,59.8115625 C21.940625,61.56875 25.8626563,64.2903125 28.9690625,67.8382812 C33.661875,73.1984375 39.7378125,76.4325 46.3757813,76.4325 C55.7167187,76.4325 63.945625,70.0295312 68.7720312,60.308125 C70.28125,57.268125 72.2585938,54.4904687 74.6334375,52.0657812 C78.04625,48.5810937 80,44.5335937 80,40.21625 Z" id="Path" fill="url(#linearGradient-1)"></path>
                    <path d="M8.40171875,46.1915625 C8.20171875,46.1915625 8.001875,46.1153125 7.84921875,45.9628125 L6.83921875,44.9528125 L5.82921875,45.9628125 C5.5240625,46.2678125 5.02953125,46.2678125 4.724375,45.9628125 C4.41921875,45.6576563 4.41921875,45.1629688 4.724375,44.8579688 L6.286875,43.2954688 C6.59203125,42.9904688 7.0865625,42.9904688 7.39171875,43.2954688 L8.95421875,44.8579688 C9.259375,45.163125 9.259375,45.6578125 8.95421875,45.9628125 C8.8015625,46.1151563 8.6015625,46.1915625 8.40171875,46.1915625 Z" id="Path" fill="#6C6CFF"></path>
                    <path d="M74.3515625,61.6704687 C74.1515625,61.6704687 73.9517188,61.5942187 73.7990625,61.4417187 L72.7890625,60.4317187 L71.7790625,61.4417187 C71.4739063,61.7467187 70.979375,61.7467187 70.6742188,61.4417187 C70.3690625,61.1365625 70.3690625,60.641875 70.6742188,60.336875 L72.2367188,58.774375 C72.541875,58.469375 73.0364063,58.469375 73.3415625,58.774375 L74.9040625,60.336875 C75.2092188,60.6420312 75.2092188,61.1367187 74.9040625,61.4417187 C74.7514063,61.5940625 74.5515625,61.6704687 74.3515625,61.6704687 Z" id="Path" fill="#6C6CFF"></path>
                    <path d="M14.6484375,71.8829688 C14.4484375,71.8829688 14.2485937,71.8067188 14.0959375,71.6542188 C13.7907812,71.3490625 13.7907812,70.854375 14.0959375,70.549375 L15.6584375,68.986875 C15.9635937,68.681875 16.458125,68.681875 16.7632812,68.986875 C17.0684375,69.2920313 17.0684375,69.7867188 16.7632812,70.0917188 L15.2007812,71.6542188 C15.0482812,71.8065625 14.8484375,71.8829688 14.6484375,71.8829688 L14.6484375,71.8829688 Z" id="Path" fill="#FF9D33"></path>
                    <path d="M72.6953125,35.7370313 C72.4953125,35.7370313 72.2954687,35.6607813 72.1428125,35.5082813 C71.8376562,35.203125 71.8376562,34.7084375 72.1428125,34.4034375 L73.7053125,32.8409375 C74.0104687,32.5359375 74.505,32.5359375 74.8101562,32.8409375 C75.1153125,33.1460938 75.1153125,33.6407813 74.8101562,33.9457813 L73.2476562,35.5082813 C73.0951562,35.6607813 72.8953125,35.7370313 72.6953125,35.7370313 Z" id="Path" fill="#FF6C6C"></path>
                    <path d="M6.484375,23.7196875 C6.284375,23.7196875 6.08453125,23.6434375 5.931875,23.4909375 C5.62671875,23.1857813 5.62671875,22.6910938 5.931875,22.3860938 L7.494375,20.8235938 C7.79953125,20.5185938 8.2940625,20.5185938 8.59921875,20.8235938 C8.904375,21.12875 8.904375,21.6234375 8.59921875,21.9284375 L7.03671875,23.4909375 C6.88421875,23.6434375 6.684375,23.7196875 6.484375,23.7196875 Z" id="Path" fill="#FF6C6C"></path>
                    <path d="M46.484375,3.7196875 C46.284375,3.7196875 46.0845312,3.6434375 45.931875,3.4909375 C45.6267187,3.18578125 45.6267187,2.69109375 45.931875,2.38609375 L47.494375,0.82359375 C47.7995312,0.51859375 48.2940625,0.51859375 48.5992187,0.82359375 C48.904375,1.12875 48.904375,1.6234375 48.5992187,1.9284375 L47.0367187,3.4909375 C46.8842187,3.6434375 46.684375,3.7196875 46.484375,3.7196875 Z" id="Path-Copy-2" fill="#FF6C6C" transform="translate(47.265547, 2.157266) scale(-1, 1) translate(-47.265547, -2.157266) "></path>
                </g>
                <g id="responsive" transform="translate(18.000000, 22.000000)">
                    <path d="M21,42.4285714 L34,42.4285714 C36.0513304,42.4285714 37.7142857,44.1874665 37.7142857,46.3571429 L37.7142857,46.3571429 L17.2857143,46.3571429 L17.2857143,46.3571429 C17.2857143,44.1874665 18.9486696,42.4285714 21,42.4285714 Z" id="Path" fill="#F35229"></path>
                    <path d="M8.36,0.785714286 L46.64,0.785714286 C48.6534596,0.785714286 50.2857143,2.41500658 50.2857143,4.42481203 L50.2857143,31.7180451 C50.2857143,33.7278506 48.6534596,35.3571429 46.64,35.3571429 L8.36,35.3571429 C6.34654036,35.3571429 4.71428571,33.7278506 4.71428571,31.7180451 L4.71428571,4.42481203 C4.71428571,2.41500658 6.34654036,0.785714286 8.36,0.785714286 Z" id="Path" fill="#F0F0F0"></path>
                    <path d="M4.71428571,28.2857143 L50.2857143,28.2857143 L50.2857143,28.2857143 L50.2857143,31.8214286 C50.2857143,33.7741373 48.6534596,35.3571429 46.64,35.3571429 L8.36,35.3571429 C6.34654036,35.3571429 4.71428571,33.7741373 4.71428571,31.8214286 L4.71428571,28.2857143 L4.71428571,28.2857143 Z" id="Path" fill="#F35229"></path>
                    <g id="Group" transform="translate(0.785714, 18.857143)" fill="#F0F0F0">
                        <path d="M1.84236453,0 L18.4236453,0 C19.4412063,0 20.2660099,0.820760417 20.2660099,1.83333333 L20.2660099,25.6666667 C20.2660099,26.6792396 19.4412063,27.5 18.4236453,27.5 L1.84236453,27.5 C0.824803571,27.5 0,26.6792396 0,25.6666667 L0,1.83333333 C0,0.820760417 0.824803571,0 1.84236453,0 Z" id="Path"></path>
                        <path d="M44.2167488,5.5 L51.5862069,5.5 C52.6037679,5.5 53.4285714,6.32076042 53.4285714,7.33333333 L53.4285714,25.6666667 C53.4285714,26.6792396 52.6037679,27.5 51.5862069,27.5 L44.2167488,27.5 C43.1991878,27.5 42.3743842,26.6792396 42.3743842,25.6666667 L42.3743842,7.33333333 C42.3743842,6.32076042 43.1991878,5.5 44.2167488,5.5 Z" id="Path"></path>
                    </g>
                    <g id="Group" transform="translate(0.785714, 29.071429)">
                        <path d="M42.3743842,13.6938776 L53.4285714,13.6938776 L53.4285714,13.6938776 L53.4285714,15.4897959 C53.4285714,16.4817041 52.6037679,17.2857143 51.5862069,17.2857143 L44.2167488,17.2857143 C43.1991878,17.2857143 42.3743842,16.4817041 42.3743842,15.4897959 L42.3743842,13.6938776 L42.3743842,13.6938776 Z" id="Path" fill="#F35229"></path>
                        <path d="M0,13.6938776 L20.2660099,13.6938776 L20.2660099,13.6938776 L20.2660099,15.4897959 C20.2660099,16.4817041 19.4412063,17.2857143 18.4236453,17.2857143 L1.84236453,17.2857143 C0.824803571,17.2857143 0,16.4817041 0,15.4897959 L0,13.6938776 L0,13.6938776 Z" id="Path" fill="#F35229"></path>
                        <polygon id="Path" fill="#F0F0F0" points="23.9507389 6.51020408 29.4778325 6.51020408 29.4778325 13.6938776 23.9507389 13.6938776"></polygon>
                        <path d="M5.5270936,5.72089796 C5.01837069,5.72078571 4.60602648,5.31872449 4.6061416,4.82271429 C4.6061416,4.58464286 4.70321121,4.35644898 4.87581773,4.18808163 L8.78347291,0.378938776 C9.13686145,0.0222244898 9.72008498,0.0123469388 10.0860246,0.356938776 C10.4519643,0.701530612 10.4620973,1.26993878 10.1085936,1.62665306 C10.1012241,1.63417347 10.0936244,1.64146939 10.0860246,1.64865306 L6.17836946,5.45779592 C6.00564778,5.62616327 5.77143719,5.72089796 5.5270936,5.72089796 Z" id="Path" fill="#FCF05A"></path>
                        <path d="M11.0541872,5.72089796 C10.5454643,5.72078571 10.1331201,5.31872449 10.1332352,4.82271429 C10.1332352,4.58464286 10.2303048,4.35644898 10.4029113,4.18808163 L14.3105665,0.378938776 C14.6765062,0.0344591837 15.2597297,0.0442244898 15.6131182,0.400938776 C15.9578707,0.748897959 15.9578707,1.30058163 15.6131182,1.64865306 L11.7054631,5.45779592 C11.5327414,5.62616327 11.2985308,5.72089796 11.0541872,5.72089796 Z" id="Path" fill="#FCF05A"></path>
                    </g>
                    <g id="Group" transform="translate(20.428571, 8.642857)" fill="#FDBD40">
                        <path d="M0.916666667,10.908337 C0.4104375,10.9082188 0.000114583333,10.4977813 0.000229142674,9.9914375 C0.000229142674,9.74840625 0.0968229167,9.51534375 0.268583333,9.34358333 L9.34358333,0.268583333 C9.70772917,-0.0830729167 10.2879792,-0.0731041667 10.63975,0.291041667 C10.9828125,0.64625 10.9828125,1.20942708 10.63975,1.56475 L1.56475,10.63975 C1.39333333,10.8123125 1.15992708,10.9090208 0.916666667,10.908337 L0.916666667,10.908337 Z" id="Path"></path>
                        <path d="M6.50833333,10.9083333 C6.00210417,10.9082188 5.59178125,10.4977813 5.59189581,9.9914375 C5.59189581,9.74840625 5.68848958,9.51534375 5.86025,9.34358333 L14.93525,0.268583333 C15.2993958,-0.0830729167 15.8796458,-0.0731041667 16.2314167,0.291041667 C16.5744792,0.64625 16.5744792,1.20942708 16.2314167,1.56475 L7.15641667,10.63975 C6.98454167,10.811625 6.75147917,10.9083333 6.50833333,10.9083333 L6.50833333,10.9083333 Z" id="Path"></path>
                    </g>
                    <path d="M47.3358733,36.1428571 C46.7952343,36.1427348 46.3570205,35.7044209 46.3571429,35.163687 C46.3571429,34.9041494 46.4603024,34.65538 46.6437379,34.4718315 L49.4122798,31.7034304 C49.8011777,31.3277678 50.420869,31.338536 50.7965507,31.7274141 C51.1630545,32.1067477 51.1630545,32.7082974 50.7965507,33.087631 L48.0280088,35.856032 C47.844451,36.0395805 47.5955465,36.1428571 47.3358733,36.1428571 Z" id="Path" fill="#FCF05A"></path>
                    <path d="M27.5019643,32.2142857 C27.0691384,32.2164365 26.716451,31.866403 26.7142857,31.432495 C26.7121403,30.998587 27.0613009,30.6450178 27.4941268,30.6428571 L27.5019643,30.6428571 C27.9347902,30.6428571 28.2857143,30.9946585 28.2857143,31.4285665 C28.2857143,31.8624744 27.9347902,32.2142857 27.5019643,32.2142857 Z" id="Path" fill="#000000"></path>
                    <path d="M29.7261905,5.5 L26.0595238,5.5 C25.5532946,5.5 25.1428571,5.14819643 25.1428571,4.71428571 C25.1428571,4.280375 25.5532946,3.92857143 26.0595238,3.92857143 L29.7261905,3.92857143 C30.2324196,3.92857143 30.6428571,4.280375 30.6428571,4.71428571 C30.6428571,5.14819643 30.2324196,5.5 29.7261905,5.5 Z" id="Path" fill="#FDBD40"></path>
                    <path d="M52.25,23.5714286 L51.3333333,23.5714286 L51.3333333,4.53296703 C51.3303542,2.03076923 49.28,0.00294642857 46.75,0 L8.25,0 C5.72,0.00294642857 3.66964583,2.03076923 3.66666667,4.53296703 L3.66666667,18.1318681 L2.75,18.1318681 C1.23119792,18.1318681 0,19.3495364 0,20.8516484 L0,44.4230769 C0,45.9251889 1.23119792,47.1428571 2.75,47.1428571 L2.75,47.1428571 L37.5833333,47.1428571 C38.0895625,47.1428571 38.5,46.7369299 38.5,46.2362637 C38.4970208,43.7340659 36.4466667,41.7062431 33.9166667,41.7032967 L31.1666667,41.7032967 L31.1666667,36.2637363 L42.1666667,36.2637363 L42.1666667,44.4230769 C42.1666667,45.9251889 43.3978646,47.1428571 44.9166667,47.1428571 L44.9166667,47.1428571 L52.25,47.1428571 C53.7688021,47.1428571 55,45.9251889 55,44.4230769 L55,44.4230769 L55,26.2912088 C55,24.7890968 53.7688021,23.5714286 52.25,23.5714286 Z M20.1666667,44.4230769 C20.1666667,44.9237431 19.7562292,45.3296703 19.25,45.3296703 L2.75,45.3296703 C2.24377083,45.3296703 1.83333333,44.9237431 1.83333333,44.4230769 L1.83333333,43.5164835 L20.1666667,43.5164835 L20.1666667,44.4230769 Z M20.1666667,41.7032967 L1.83333333,41.7032967 L1.83333333,20.8516484 C1.83333333,20.3509821 2.24377083,19.9450549 2.75,19.9450549 L19.25,19.9450549 C19.7562292,19.9450549 20.1666667,20.3509821 20.1666667,20.8516484 L20.1666667,41.7032967 Z M33.9166667,43.5164835 C35.08175,43.5178434 36.1199896,44.2437981 36.5099167,45.3296703 L21.8313333,45.3296703 C21.9398437,45.0393338 21.9969062,44.7326786 22,44.4230769 L22,43.5164835 L33.9166667,43.5164835 Z M22,41.7032967 L22,36.2637363 L23.8333333,36.2637363 L23.8333333,41.7032967 L22,41.7032967 Z M25.6666667,41.7032967 L25.6666667,36.2637363 L29.3333333,36.2637363 L29.3333333,41.7032967 L25.6666667,41.7032967 Z M42.1666667,34.4505495 L22,34.4505495 L22,29.010989 L42.1666667,29.010989 L42.1666667,34.4505495 Z M42.1666667,26.2912088 L42.1666667,27.1978022 L22,27.1978022 L22,20.8516484 C21.9969062,20.4214698 21.8893125,19.9983173 21.6865,19.6177747 C21.70025,19.6050824 21.7185833,19.601456 21.7314167,19.5878571 L30.8064167,10.6125824 C31.1580729,10.2524382 31.1481042,9.67845124 30.7839583,9.33065934 C30.42875,8.99136676 29.8655729,8.99136676 29.51025,9.33065934 L20.43525,18.3059341 C20.41325,18.3285989 20.4040833,18.3576099 20.3848333,18.3811813 C20.0291667,18.2179945 19.6419896,18.1330014 19.25,18.1318681 L5.5,18.1318681 L5.5,4.53296703 C5.5,3.03085508 6.73119792,1.81318681 8.25,1.81318681 L46.75,1.81318681 C48.2688021,1.81318681 49.5,3.03085508 49.5,4.53296703 L49.5,23.5714286 L44.9166667,23.5714286 C43.3978646,23.5714286 42.1666667,24.7890968 42.1666667,26.2912088 Z M53.1666667,44.4230769 C53.1666667,44.9237431 52.7562292,45.3296703 52.25,45.3296703 L44.9166667,45.3296703 C44.4104375,45.3296703 44,44.9237431 44,44.4230769 L44,43.5164835 L53.1666667,43.5164835 L53.1666667,44.4230769 Z M53.1666667,41.7032967 L44,41.7032967 L44,26.2912088 C44,25.7905426 44.4104375,25.3846154 44.9166667,25.3846154 L52.25,25.3846154 C52.7562292,25.3846154 53.1666667,25.7905426 53.1666667,26.2912088 L53.1666667,41.7032967 Z" id="Shape" fill="#183165"></path>
                    <path d="M10.7425197,29.3289089 C10.3991026,28.9856018 9.842424,28.9856018 9.49900695,29.3289089 L5.76846882,33.059447 C5.41911562,33.396818 5.4094419,33.9536065 5.74692281,34.3029597 C6.08429379,34.6523129 6.64108232,34.6619867 6.99043552,34.3245058 C6.99780074,34.3174703 7.0049461,34.310215 7.01198153,34.3029597 L10.7425197,30.5724216 C11.0858268,30.2290046 11.0858268,29.672326 10.7425197,29.3289089 Z" id="Path" fill="#183165"></path>
                    <path d="M15.006698,29.3187516 L11.2689852,33.0565176 C10.9189601,33.3945422 10.9092677,33.9524095 11.2473977,34.3024396 C11.5854175,34.6524697 12.1432769,34.6621621 12.493302,34.3240273 C12.5006814,34.3169783 12.5078405,34.3097089 12.5148894,34.3024396 L16.2526023,30.5646736 C16.5907323,30.2146435 16.5810399,29.6568864 16.2310148,29.3187516 C15.8894705,28.9889876 15.3481322,28.9889876 15.006698,29.3187516 Z" id="Path" fill="#183165"></path>
                    <path d="M35.3620186,8.9023166 L26.2107745,18.0535921 C25.8435693,18.408204 25.8334012,18.9934466 26.188012,19.3606531 C26.5426227,19.7278596 27.1278632,19.7380277 27.4950684,19.3834157 C27.50281,19.3760208 27.5103205,19.3683947 27.517831,19.3606531 L36.6690751,10.2093776 C37.0236858,9.84217108 37.0136333,9.25692853 36.6464281,8.9023166 C36.2881199,8.55637066 35.7202113,8.55637066 35.3620186,8.9023166 Z" id="Path" fill="#183165"></path>
                    <path d="M49.4165875,31.7027361 L46.6552257,34.4640951 C46.2673364,34.8388022 46.2565956,35.4568857 46.631303,35.8447746 C47.0060104,36.2326635 47.6240946,36.2434043 48.0119839,35.8686973 C48.0200395,35.8608858 48.0280951,35.8529523 48.0359066,35.8447746 L50.7972684,33.0834156 C51.1719759,32.6955267 51.1612351,32.0774432 50.7733457,31.7027361 C50.3949767,31.3371832 49.7949566,31.3371832 49.4165875,31.7027361 Z" id="Path" fill="#183165"></path>
                    <path d="M27.5019643,32.2142857 C27.9347902,32.2142857 28.2857143,31.8624744 28.2857143,31.4285665 C28.2857143,30.9946585 27.9347902,30.6428571 27.5019643,30.6428571 L27.4941268,30.6428571 C27.0613009,30.6450178 26.7121403,30.998587 26.7142857,31.432495 C26.716451,31.866403 27.0691384,32.2164365 27.5019643,32.2142857 Z" id="Path" fill="#183165"></path>
                    <path d="M29.7261905,3.92857143 L26.0595238,3.92857143 C25.5532946,3.92857143 25.1428571,4.280375 25.1428571,4.71428571 C25.1428571,5.14819643 25.5532946,5.5 26.0595238,5.5 L29.7261905,5.5 C30.2324196,5.5 30.6428571,5.14819643 30.6428571,4.71428571 C30.6428571,4.280375 30.2324196,3.92857143 29.7261905,3.92857143 Z" id="Path" fill="#183165"></path>
                </g>
            </g>
        </g>
    </g>
</svg>