<?xml version="1.0" encoding="UTF-8"?>
<svg width="80px" height="77px" viewBox="0 0 80 77" version="1.1" xmlns="http://www.w3.org/2000/svg" xmlns:xlink="http://www.w3.org/1999/xlink">
    <!-- Generator: Sketch 56.3 (81716) - https://sketch.com -->
    <title>Group 43</title>
    <desc>Created with Sketch.</desc>
    <defs>
        <linearGradient x1="-3.04574141%" y1="112.484128%" x2="104.87563%" y2="-12.6612369%" id="linearGradient-1">
            <stop stop-color="#1C7CFB" stop-opacity="0.267318619" offset="0%"></stop>
            <stop stop-color="#1C7CFB" stop-opacity="0" offset="100%"></stop>
        </linearGradient>
    </defs>
    <g id="Page-1" stroke="none" stroke-width="1" fill="none" fill-rule="evenodd">
        <g id="Hey-Digital_PPC-Management" transform="translate(-681.000000, -952.000000)" fill-rule="nonzero">
            <g id="Group-43" transform="translate(677.000000, 949.000000)">
                <g id="Google-Shopping-Copy">
                    <g id="Group-10" transform="translate(4.000000, 3.000000)">
                        <path d="M80,40.21625 C80,35.8989062 78.04625,31.8514062 74.6332813,28.3667187 C72.2584375,25.9420312 70.2810938,23.164375 68.771875,20.124375 C63.9454688,10.4029687 55.7165625,4 46.375625,4 C39.7376563,4 33.6617187,7.2340625 28.9689063,12.5942187 C25.8626563,16.1421875 21.940625,18.86375 17.5646875,20.6209375 C6.96484375,24.8775 0,32.0651562 0,40.21625 C0,48.3673437 6.96484375,55.555 17.5646875,59.8115625 C21.940625,61.56875 25.8626563,64.2903125 28.9690625,67.8382812 C33.661875,73.1984375 39.7378125,76.4325 46.3757813,76.4325 C55.7167187,76.4325 63.945625,70.0295312 68.7720312,60.308125 C70.28125,57.268125 72.2585938,54.4904687 74.6334375,52.0657812 C78.04625,48.5810937 80,44.5335937 80,40.21625 Z" id="Path" fill="url(#linearGradient-1)"></path>
                        <path d="M8.40171875,46.1915625 C8.20171875,46.1915625 8.001875,46.1153125 7.84921875,45.9628125 L6.83921875,44.9528125 L5.82921875,45.9628125 C5.5240625,46.2678125 5.02953125,46.2678125 4.724375,45.9628125 C4.41921875,45.6576563 4.41921875,45.1629688 4.724375,44.8579688 L6.286875,43.2954688 C6.59203125,42.9904688 7.0865625,42.9904688 7.39171875,43.2954688 L8.95421875,44.8579688 C9.259375,45.163125 9.259375,45.6578125 8.95421875,45.9628125 C8.8015625,46.1151563 8.6015625,46.1915625 8.40171875,46.1915625 Z" id="Path" fill="#6C6CFF"></path>
                        <path d="M74.3515625,61.6704687 C74.1515625,61.6704687 73.9517188,61.5942187 73.7990625,61.4417187 L72.7890625,60.4317187 L71.7790625,61.4417187 C71.4739063,61.7467187 70.979375,61.7467187 70.6742188,61.4417187 C70.3690625,61.1365625 70.3690625,60.641875 70.6742188,60.336875 L72.2367188,58.774375 C72.541875,58.469375 73.0364063,58.469375 73.3415625,58.774375 L74.9040625,60.336875 C75.2092188,60.6420312 75.2092188,61.1367187 74.9040625,61.4417187 C74.7514063,61.5940625 74.5515625,61.6704687 74.3515625,61.6704687 Z" id="Path" fill="#6C6CFF"></path>
                        <path d="M14.6484375,71.8829688 C14.4484375,71.8829688 14.2485937,71.8067188 14.0959375,71.6542188 C13.7907812,71.3490625 13.7907812,70.854375 14.0959375,70.549375 L15.6584375,68.986875 C15.9635937,68.681875 16.458125,68.681875 16.7632812,68.986875 C17.0684375,69.2920313 17.0684375,69.7867188 16.7632812,70.0917188 L15.2007812,71.6542188 C15.0482812,71.8065625 14.8484375,71.8829688 14.6484375,71.8829688 L14.6484375,71.8829688 Z" id="Path" fill="#FF9D33"></path>
                        <path d="M72.6953125,35.7370313 C72.4953125,35.7370313 72.2954687,35.6607813 72.1428125,35.5082813 C71.8376562,35.203125 71.8376562,34.7084375 72.1428125,34.4034375 L73.7053125,32.8409375 C74.0104687,32.5359375 74.505,32.5359375 74.8101562,32.8409375 C75.1153125,33.1460938 75.1153125,33.6407813 74.8101562,33.9457813 L73.2476562,35.5082813 C73.0951562,35.6607813 72.8953125,35.7370313 72.6953125,35.7370313 Z" id="Path" fill="#FF6C6C"></path>
                        <path d="M6.484375,23.7196875 C6.284375,23.7196875 6.08453125,23.6434375 5.931875,23.4909375 C5.62671875,23.1857813 5.62671875,22.6910938 5.931875,22.3860938 L7.494375,20.8235938 C7.79953125,20.5185938 8.2940625,20.5185938 8.59921875,20.8235938 C8.904375,21.12875 8.904375,21.6234375 8.59921875,21.9284375 L7.03671875,23.4909375 C6.88421875,23.6434375 6.684375,23.7196875 6.484375,23.7196875 Z" id="Path" fill="#FF6C6C"></path>
                        <path d="M46.484375,3.7196875 C46.284375,3.7196875 46.0845312,3.6434375 45.931875,3.4909375 C45.6267187,3.18578125 45.6267187,2.69109375 45.931875,2.38609375 L47.494375,0.82359375 C47.7995312,0.51859375 48.2940625,0.51859375 48.5992187,0.82359375 C48.904375,1.12875 48.904375,1.6234375 48.5992187,1.9284375 L47.0367187,3.4909375 C46.8842187,3.6434375 46.684375,3.7196875 46.484375,3.7196875 Z" id="Path-Copy-2" fill="#FF6C6C" transform="translate(47.265547, 2.157266) scale(-1, 1) translate(-47.265547, -2.157266) "></path>
                    </g>
                </g>
                <g id="target-(1)" transform="translate(20.000000, 20.000000)">
                    <ellipse id="Oval" fill="#183165" cx="26.5" cy="27" rx="26.5" ry="27"></ellipse>
                    <ellipse id="Oval" fill="#F0F0F0" cx="26.5" cy="27" rx="22.7142857" ry="23.2105263"></ellipse>
                    <path d="M26.5000514,44.5263158 C17.1064878,44.5263158 9.46428571,36.6640304 9.46428571,26.9999471 C9.46428571,17.3358638 17.1064878,9.47368421 26.5000514,9.47368421 C35.8936151,9.47368421 43.5357143,17.3359696 43.5357143,27.0000529 C43.5357143,36.6641362 35.8935122,44.5263158 26.5000514,44.5263158 Z" id="Path" fill="#183165"></path>
                    <path d="M26.9732664,38.8421053 C20.4499216,38.8421053 15.1428571,33.5297941 15.1428571,27 C15.1428571,20.4702059 20.4499216,15.1578947 26.9732664,15.1578947 C33.496507,15.1578947 38.8035714,20.4702059 38.8035714,27 C38.8035714,33.5297941 33.496507,38.8421053 26.9732664,38.8421053 Z" id="Path" fill="#F0F0F0"></path>
                    <path d="M26.0268358,33.1578947 C22.6347452,33.1578947 19.875,30.3955319 19.875,27 C19.875,23.6044681 22.6346449,20.8421053 26.0268358,20.8421053 C29.4190268,20.8421053 32.1785714,23.6044681 32.1785714,27 C32.1785714,30.3955319 29.4189265,33.1578947 26.0268358,33.1578947 Z" id="Path" fill="#F35229"></path>
                    <path d="M48.2678571,6.83990579 L27.1430947,27.9855407 C26.5629883,28.5662233 25.6223292,28.5662233 25.0422227,27.9855407 L25.0422227,27.9855407 C24.4621162,27.4048582 24.4621162,26.463265 25.0422227,25.8825825 L46.1668798,4.73684211 L48.2678571,6.83990579 Z" id="Path" fill="#3761BA"></path>
                    <path d="M48.2678571,5.79321346 L26.74737,27.0361679 C26.1563965,27.619523 25.1981163,27.619523 24.6071429,27.0361679 L24.6071429,27.0361679 L47.19769,4.73684211 L48.2678571,5.79321346 Z" id="Path" fill="#3761BA"></path>
                    <polygon id="Path" fill="#FF7957" points="36.7366909 7.57942937 43.9933419 0.307611984 46.1668798 4.73684211 38.2863988 12.6800717"></polygon>
                    <g id="Group" transform="translate(37.857143, 1.894737)" fill="#F35229">
                        <polygon id="Path" points="-3.67261777e-13 4.599105 1.27201204 3.25272689 3.17885123 7.97913714 1.9690936 9.21578651"></polygon>
                        <polygon id="Path" points="3.17885123 1.4598806 4.28264924 0.312599811 6.13619901 4.95631134 4.92633695 6.19285397"></polygon>
                        <polygon id="Path" points="10.3035133 4.95631134 2.33650108 12.9857518 6.66371313 14.9727742 15.1428571 6.87986953"></polygon>
                    </g>
                    <g id="Group" transform="translate(41.642857, 8.526316)" fill="#FF7957">
                        <polygon id="Path" points="4.03311907 0.747431764 2.83353826 1.99727315 7.57142857 3.78045817 8.94416132 2.58420756"></polygon>
                        <polygon id="Path" points="1.30791314 3.58860281 0.0866842532 4.82862444 4.73214286 6.63157895 6.00520257 5.29561626"></polygon>
                    </g>
                </g>
            </g>
        </g>
    </g>
</svg>