<?xml version="1.0" encoding="UTF-8"?>
<svg width="210px" height="53px" viewBox="0 0 210 53" version="1.1" xmlns="http://www.w3.org/2000/svg" xmlns:xlink="http://www.w3.org/1999/xlink">
    <!-- Generator: Sketch 56.3 (81716) - https://sketch.com -->
    <title>Sketch</title>
    <desc>Created with Sketch.</desc>
    <g id="Page-1" stroke="none" stroke-width="1" fill="none" fill-rule="evenodd">
        <g id="Sketch">
            <rect id="Rectangle" fill="#FFFFFF" x="0" y="0" width="210" height="53"></rect>
            <g id="sketch-1" transform="translate(45.000000, 13.000000)" fill-rule="nonzero">
                <g id="a-link" transform="translate(38.076692, 3.493793)" fill="#000000">
                    <path d="M2.61253504,14.5128154 L2.58910693,14.2046456 L0,14.2046456 L0.0144173008,14.5512615 C0.17360833,18.4078895 2.7927513,20.963356 7.45014017,20.963356 C11.892471,20.963356 14.9134962,18.6716059 14.9134962,15.2024429 C14.9134962,13.3269924 14.2581097,11.9993993 13.0092111,11.0935122 C12.0480577,10.3960753 10.9000801,10.0026031 8.99519423,9.59291149 L8.57649179,9.50400481 L8.16139367,9.417501 C4.70124149,8.69843813 3.60432519,8.07188626 3.60432519,6.20965158 C3.60432519,4.28313977 5.19022827,3.05646776 7.85142171,3.05646776 C10.4405286,3.05646776 12.0762915,4.62615138 12.1525831,7.09751702 L12.1627954,7.42010412 L14.7332799,7.42010412 L14.7254706,7.08009612 C14.6359632,3.22767321 12.0330396,0.634961954 7.82559071,0.634961954 C3.70164197,0.634961954 0.978574289,3.09911894 0.978574289,6.28894674 C0.978574289,8.15959151 1.63336003,9.46195435 2.88406087,10.3317982 C3.83680416,10.994994 4.94092911,11.3470164 6.88846616,11.737485 C7.08734861,11.7775211 7.28638902,11.8167685 7.4855827,11.8552263 C9.32799359,12.2168602 10.1407689,12.4403284 10.8826592,12.8686424 C11.8035643,13.4002803 12.2601121,14.1595915 12.2601121,15.335803 C12.2601121,17.3782539 10.5312375,18.5418502 7.50360433,18.5418502 C4.60572687,18.5418502 2.8071686,17.0989187 2.61253504,14.5128154 L2.61253504,14.5128154 Z M20.324189,0.332799359 L20.324189,0 L17.7693232,0 L17.7693232,20.6455747 L20.324189,20.6455747 L20.324189,16.7498999 L23.0142171,14.128354 L27.8175811,20.5128154 L27.9173008,20.644974 L31.0957149,20.644974 L30.6902283,20.1109331 L24.824189,12.3778534 L30.2342811,6.98938726 L30.804966,6.41990388 L27.3327994,6.41990388 L27.2348819,6.51842211 L20.324189,13.4837805 L20.324189,0.332799359 L20.324189,0.332799359 Z M44.3770525,14.3818582 L44.6924309,14.3818582 L44.7122547,14.0682819 C44.7227884,13.8990074 44.7307989,13.7295853 44.7362835,13.5600721 C44.7386864,13.4735683 44.7398879,13.3948738 44.7398879,13.3251902 C44.7398879,9.12735282 41.9495394,6.03484181 37.8261914,6.03484181 C33.7106528,6.03484181 30.7785342,9.32679215 30.7785342,13.4855827 C30.7785342,17.7651181 33.5778935,20.963356 37.8532239,20.963356 C41.0857028,20.963356 43.5835002,19.0518622 44.4833801,16.1527833 L44.6179415,15.7196636 L41.9387265,15.7196636 L41.8594313,15.9419303 C41.2947537,17.5290348 39.7647177,18.5820985 37.8796556,18.5820985 C35.4167,18.5820985 33.6986384,16.8958751 33.3892671,14.3818582 L44.3776532,14.3818582 L44.3770525,14.3818582 Z M33.3165799,12.387465 C33.7478975,10.0963156 35.3932719,8.57589107 37.63336,8.57589107 C39.9419303,8.57589107 41.5356428,10.0464557 41.8840609,12.387465 L33.3171806,12.387465 L33.3165799,12.387465 Z M52.9745695,8.65578694 L53.3067681,8.65578694 L53.3067681,6.39587505 L50.1932319,6.39587505 L50.1932319,2.54104926 L47.638366,2.54104926 L47.638366,6.39587505 L45.0570685,6.39587505 L45.0570685,8.65578694 L47.638366,8.65578694 L47.638366,16.6177413 C47.638366,19.2296756 48.9947938,20.6455747 51.484181,20.6455747 C51.9185022,20.6455747 52.293352,20.6197437 52.607529,20.5758911 C52.8021626,20.5488586 52.9361233,20.5206247 53.010012,20.5002002 L53.2539047,20.4329195 L53.2539047,18.06668 L52.8502203,18.1537845 C52.7318502,18.1777573 52.6128657,18.1985896 52.4933921,18.2162595 C52.2386361,18.2549225 51.9815202,18.2759975 51.7238686,18.2793352 C50.6329596,18.2793352 50.1932319,17.767521 50.1932319,16.484982 L50.1932319,8.65578694 L52.9745695,8.65578694 L52.9745695,8.65578694 Z M60.8992791,20.963356 C64.4080897,20.963356 66.8854626,18.7136564 67.5078094,15.5304365 L67.5859031,15.1309571 L65.0286344,15.1309571 L64.9637565,15.3796556 C64.4309171,17.4106928 62.9843813,18.5814978 60.8992791,18.5814978 C58.2981578,18.5814978 56.5032038,16.5030036 56.5032038,13.5126151 C56.5032038,10.4987986 58.2945535,8.41609932 60.8992791,8.41609932 C62.9843813,8.41609932 64.4309171,9.58750501 64.9637565,11.6185423 L65.0286344,11.8672407 L67.5859031,11.8672407 L67.5078094,11.4677613 C66.8854626,8.28394073 64.4080897,6.03484181 60.8992791,6.03484181 C56.8233881,6.03484181 53.9417301,9.35022026 53.9417301,13.5126151 C53.9417301,17.6515819 56.8275931,20.963356 60.8992791,20.963356 L60.8992791,20.963356 Z M72.3562275,0.332198638 L72.3562275,0 L69.8067681,0 L69.8067681,20.6455747 L72.3562275,20.6455747 L72.3562275,12.2937525 C72.3562275,9.85122147 73.8388066,8.41790148 76.0879055,8.41790148 C78.2360833,8.41790148 79.314978,9.66559872 79.314978,12.0276332 L79.314978,20.6455747 L81.8644373,20.6455747 L81.8644373,11.6539848 C81.8644373,8.31698038 79.8045655,6.09971966 76.4068883,6.09971966 C74.6587905,6.09971966 73.2537044,6.74249099 72.3562275,7.6639968 L72.3562275,0.332799359 L72.3562275,0.332198638 Z" id="a"></path>
                </g>
                <g id="b-link" fill="#FDB300">
                    <polygon id="b" points="6.64577493 0.899279135 15.2300761 0 23.814978 0.899279135 30.4613536 9.74008811 15.2306768 27.3153785 0 9.74008811"></polygon>
                </g>
                <g id="c-link" transform="translate(0.000000, 9.846416)" fill="#EA6C00">
                    <polygon id="c" points="6.16940328 0 15.2306768 17.4689628 0 0"></polygon>
                </g>
                <g id="d-link" transform="translate(22.845414, 18.592911) scale(-1, 1) translate(-22.845414, -18.592911) translate(15.228274, 9.846416)" fill="#EA6C00">
                    <polygon id="d" points="6.16880256 0 15.2306768 17.4689628 0 0"></polygon>
                </g>
                <g id="e-link" transform="translate(6.031237, 9.846416)" fill="#FDAD00">
                    <polygon id="e" points="0 0 18.0865038 0 9.0432519 17.4689628"></polygon>
                </g>
                <g id="f-link" transform="translate(6.031237, 0.000000)" fill="#FDD231">
                    <polygon id="f" points="8.88466159 0 0.467360833 0.908890669 0 9.8464157"></polygon>
                </g>
                <g id="g-link" transform="translate(19.667601, 4.925911) scale(-1, 1) translate(-19.667601, -4.925911) translate(15.222267, 0.000000)" fill="#FDD231">
                    <polygon id="g" points="8.88466159 0 0.467360833 0.908890669 0 9.8464157"></polygon>
                </g>
                <g id="h-link" transform="translate(27.122547, 5.422107) scale(-1, 1) translate(-27.122547, -5.422107) translate(23.782539, 0.952743)" fill="#FDAD00">
                    <polygon id="h" points="0 8.89367241 6.66379656 0 6.18562275 8.89367241"></polygon>
                </g>
                <g id="Group" transform="translate(0.000000, 0.937125)" fill="#FDAD00">
                    <g id="i-link" transform="translate(0.000000, 0.015619)">
                        <polygon id="i" points="0 8.89367241 6.66319584 0 6.18502203 8.89367241"></polygon>
                    </g>
                </g>
                <g id="Group" transform="translate(6.007209, 0.000000)" fill="#FEEEB7">
                    <g id="j-link" transform="translate(0.024029, 0.000000)">
                        <polygon id="j" points="9.0432519 0 0 9.8464157 18.0865038 9.8464157"></polygon>
                    </g>
                </g>
            </g>
        </g>
    </g>
</svg>