<?xml version="1.0" encoding="UTF-8"?>
<svg width="80px" height="77px" viewBox="0 0 80 77" version="1.1" xmlns="http://www.w3.org/2000/svg" xmlns:xlink="http://www.w3.org/1999/xlink">
    <!-- Generator: Sketch 56.3 (81716) - https://sketch.com -->
    <title>Landing page optimization</title>
    <desc>Created with Sketch.</desc>
    <defs>
        <linearGradient x1="-3.04574141%" y1="112.484128%" x2="104.87563%" y2="-12.6612369%" id="linearGradient-1">
            <stop stop-color="#1C7CFB" stop-opacity="0.267318619" offset="0%"></stop>
            <stop stop-color="#1C7CFB" stop-opacity="0" offset="100%"></stop>
        </linearGradient>
    </defs>
    <g id="Page-1" stroke="none" stroke-width="1" fill="none" fill-rule="evenodd">
        <g id="Hey-Digital_Home" transform="translate(-1080.000000, -1428.000000)" fill-rule="nonzero">
            <g id="Group-7-Copy-3" transform="translate(940.000000, 1381.000000)">
                <g id="Landing-page-optimization" transform="translate(136.000000, 41.000000)">
                    <g id="Group-10" transform="translate(4.000000, 6.000000)">
                        <path d="M80,40.21625 C80,35.8989062 78.04625,31.8514062 74.6332813,28.3667187 C72.2584375,25.9420312 70.2810938,23.164375 68.771875,20.124375 C63.9454688,10.4029687 55.7165625,4 46.375625,4 C39.7376563,4 33.6617187,7.2340625 28.9689063,12.5942187 C25.8626563,16.1421875 21.940625,18.86375 17.5646875,20.6209375 C6.96484375,24.8775 0,32.0651562 0,40.21625 C0,48.3673437 6.96484375,55.555 17.5646875,59.8115625 C21.940625,61.56875 25.8626563,64.2903125 28.9690625,67.8382812 C33.661875,73.1984375 39.7378125,76.4325 46.3757813,76.4325 C55.7167187,76.4325 63.945625,70.0295312 68.7720312,60.308125 C70.28125,57.268125 72.2585938,54.4904687 74.6334375,52.0657812 C78.04625,48.5810937 80,44.5335937 80,40.21625 Z" id="Path" fill="url(#linearGradient-1)"></path>
                        <path d="M8.40171875,46.1915625 C8.20171875,46.1915625 8.001875,46.1153125 7.84921875,45.9628125 L6.83921875,44.9528125 L5.82921875,45.9628125 C5.5240625,46.2678125 5.02953125,46.2678125 4.724375,45.9628125 C4.41921875,45.6576563 4.41921875,45.1629688 4.724375,44.8579688 L6.286875,43.2954688 C6.59203125,42.9904688 7.0865625,42.9904688 7.39171875,43.2954688 L8.95421875,44.8579688 C9.259375,45.163125 9.259375,45.6578125 8.95421875,45.9628125 C8.8015625,46.1151563 8.6015625,46.1915625 8.40171875,46.1915625 Z" id="Path" fill="#6C6CFF"></path>
                        <path d="M74.3515625,61.6704687 C74.1515625,61.6704687 73.9517188,61.5942187 73.7990625,61.4417187 L72.7890625,60.4317187 L71.7790625,61.4417187 C71.4739063,61.7467187 70.979375,61.7467187 70.6742188,61.4417187 C70.3690625,61.1365625 70.3690625,60.641875 70.6742188,60.336875 L72.2367188,58.774375 C72.541875,58.469375 73.0364063,58.469375 73.3415625,58.774375 L74.9040625,60.336875 C75.2092188,60.6420312 75.2092188,61.1367187 74.9040625,61.4417187 C74.7514063,61.5940625 74.5515625,61.6704687 74.3515625,61.6704687 Z" id="Path" fill="#6C6CFF"></path>
                        <path d="M14.6484375,71.8829688 C14.4484375,71.8829688 14.2485937,71.8067188 14.0959375,71.6542188 C13.7907812,71.3490625 13.7907812,70.854375 14.0959375,70.549375 L15.6584375,68.986875 C15.9635937,68.681875 16.458125,68.681875 16.7632812,68.986875 C17.0684375,69.2920313 17.0684375,69.7867188 16.7632812,70.0917188 L15.2007812,71.6542188 C15.0482812,71.8065625 14.8484375,71.8829688 14.6484375,71.8829688 L14.6484375,71.8829688 Z" id="Path" fill="#FF9D33"></path>
                        <path d="M72.6953125,35.7370313 C72.4953125,35.7370313 72.2954687,35.6607813 72.1428125,35.5082813 C71.8376562,35.203125 71.8376562,34.7084375 72.1428125,34.4034375 L73.7053125,32.8409375 C74.0104687,32.5359375 74.505,32.5359375 74.8101562,32.8409375 C75.1153125,33.1460938 75.1153125,33.6407813 74.8101562,33.9457813 L73.2476562,35.5082813 C73.0951562,35.6607813 72.8953125,35.7370313 72.6953125,35.7370313 Z" id="Path" fill="#FF6C6C"></path>
                        <path d="M6.484375,23.7196875 C6.284375,23.7196875 6.08453125,23.6434375 5.931875,23.4909375 C5.62671875,23.1857813 5.62671875,22.6910938 5.931875,22.3860938 L7.494375,20.8235938 C7.79953125,20.5185938 8.2940625,20.5185938 8.59921875,20.8235938 C8.904375,21.12875 8.904375,21.6234375 8.59921875,21.9284375 L7.03671875,23.4909375 C6.88421875,23.6434375 6.684375,23.7196875 6.484375,23.7196875 Z" id="Path" fill="#FF6C6C"></path>
                        <path d="M46.484375,3.7196875 C46.284375,3.7196875 46.0845312,3.6434375 45.931875,3.4909375 C45.6267187,3.18578125 45.6267187,2.69109375 45.931875,2.38609375 L47.494375,0.82359375 C47.7995312,0.51859375 48.2940625,0.51859375 48.5992187,0.82359375 C48.904375,1.12875 48.904375,1.6234375 48.5992187,1.9284375 L47.0367187,3.4909375 C46.8842187,3.6434375 46.684375,3.7196875 46.484375,3.7196875 Z" id="Path-Copy-2" fill="#FF6C6C" transform="translate(47.265547, 2.157266) scale(-1, 1) translate(-47.265547, -2.157266) "></path>
                    </g>
                    <g id="maintenance" transform="translate(24.000000, 27.000000)">
                        <path d="M1,9 L48,9 L48,40.4285714 C48,41.2964475 47.2743925,42 46.3793103,42 L2.62068966,42 C1.72560747,42 1,41.2964475 1,40.4285714 L1,9 Z" id="Path" fill="#F0F0F0"></path>
                        <rect id="Rectangle" fill="#DCD9D9" x="4" y="12" width="9" height="11" rx="4.5"></rect>
                        <path d="M12.9,23 L4.1,23 C3.49248678,23 3,22.5075132 3,21.9 L3,13.1 C3,12.4924868 3.49248678,12 4.1,12 L12.9,12 C13.5075132,12 14,12.4924868 14,13.1 L14,21.9 C14,22.5075132 13.5075132,23 12.9,23 Z M5.2,20.8 L11.8,20.8 L11.8,14.2 L5.2,14.2 L5.2,20.8 Z" id="Shape" fill="#C4C4C4"></path>
                        <path d="M24.8888889,14 L17.1111111,14 C16.4974614,14 16,13.5522847 16,13 C16,12.4477153 16.4974614,12 17.1111111,12 L24.8888889,12 C25.5025386,12 26,12.4477153 26,13 C26,13.5522847 25.5025386,14 24.8888889,14 Z" id="Path" fill="#DCD9D9"></path>
                        <path d="M24.8888889,18 L17.1111111,18 C16.4974614,18 16,17.5522847 16,17 C16,16.4477153 16.4974614,16 17.1111111,16 L24.8888889,16 C25.5025386,16 26,16.4477153 26,17 C26,17.5522847 25.5025386,18 24.8888889,18 Z" id="Path" fill="#DCD9D9"></path>
                        <path d="M21,22 L17,22 C16.4477153,22 16,21.5522847 16,21 C16,20.4477153 16.4477153,20 17,20 L21,20 C21.5522847,20 22,20.4477153 22,21 C22,21.5522847 21.5522847,22 21,22 Z" id="Path" fill="#DCD9D9"></path>
                        <path d="M18,43 L45.3888889,43 C46.278681,43 47,42.278681 47,41.3888889 L47,14 C47,30.0162577 34.0162577,43 18,43 Z" id="Path" fill="#D0D0D0"></path>
                        <path d="M48,2.6 L48,9 L1,9 L1,2.6 C1.00266993,1.71743851 1.72671573,1.00263584 2.62068966,1 L46.3793103,1 C47.2732843,1.00263584 47.9973301,1.71743851 48,2.6 Z" id="Path" fill="#3761BA"></path>
                        <path d="M41.4375,3 L19.5625,3 C18.6995551,3 18,3.67157288 18,4.5 C18,5.32842712 18.6995551,6 19.5625,6 L41.4375,6 C42.3004449,6 43,5.32842712 43,4.5 C43,3.67157288 42.3004449,3 41.4375,3 Z" id="Path" fill="#FF6C36"></path>
                        <circle id="Oval" fill="#57A4FF" cx="5.5" cy="5.5" r="1"></circle>
                        <circle id="Oval" fill="#57A4FF" cx="9.5" cy="5.5" r="1"></circle>
                        <circle id="Oval" fill="#57A4FF" cx="14.5" cy="5.5" r="1"></circle>
                        <path d="M18.1092857,46.3735714 L20.705,43.7778571 C21.1298315,44.0058739 21.5754149,44.1929089 22.0357143,44.3364286 L22.0357143,48 L26.9642857,48 L26.9642857,44.3364286 C27.4245851,44.1929089 27.8701685,44.0058739 28.295,43.7778571 L30.8907143,46.3735714 L34.3735714,42.8907143 L31.7778571,40.295 C32.0058739,39.8701685 32.1929089,39.4245851 32.3364286,38.9642857 L36,38.9642857 L36,34.0357143 L32.3364286,34.0357143 C32.1929089,33.5754149 32.0058739,33.1298315 31.7778571,32.705 L34.3735714,30.1092857 L30.8907143,26.6264286 L28.295,29.2221429 C27.8701685,28.9941261 27.4245851,28.8070911 26.9642857,28.6635714 L26.9642857,25 L22.0357143,25 L22.0357143,28.6635714 C21.5754149,28.8070911 21.1298315,28.9941261 20.705,29.2221429 L18.1092857,26.6264286 L14.6264286,30.1092857 L17.2221429,32.705 C16.9941261,33.1298315 16.8070911,33.5754149 16.6635714,34.0357143 L13,34.0357143 L13,38.9642857 L16.6635714,38.9642857 C16.8070911,39.4245851 16.9941261,39.8701685 17.2221429,40.295 L14.6264286,42.8907143 L18.1092857,46.3735714 Z M24.5,32.3928571 C26.7683124,32.3928571 28.6071429,34.2316876 28.6071429,36.5 C28.6071429,38.7683124 26.7683124,40.6071429 24.5,40.6071429 C22.2316876,40.6071429 20.3928571,38.7683124 20.3928571,36.5 C20.3928571,34.2316876 22.2316876,32.3928571 24.5,32.3928571 Z" id="Shape" fill="#FF6C36"></path>
                        <circle id="Oval" fill="#F1F2F2" cx="24" cy="36" r="4"></circle>
                        <path d="M45.6,0 L2.4,0 C1.0745166,0 0,1.0745166 0,2.4 L0,40.8 C0,42.1254834 1.0745166,43.2 2.4,43.2 L14.2288,43.2 L17.2104,46.1816 C17.5227999,46.4939056 18.0292001,46.4939056 18.3416,46.1816 L20.4648,44.0584 C20.5736,44.1056 20.6848,44.152 20.8,44.1976 L20.8,47.2 C20.8,47.6418278 21.1581722,48 21.6,48 L26.4,48 C26.8418278,48 27.2,47.6418278 27.2,47.2 L27.2,44.1976 C27.3152,44.152 27.4264,44.1056 27.5352,44.0584 L29.6584,46.1816 C29.9757563,46.4816985 30.4722437,46.4816985 30.7896,46.1816 L33.7712,43.2 L45.6,43.2 C46.9254834,43.2 48,42.1254834 48,40.8 L48,2.4 C48,1.0745166 46.9254834,0 45.6,0 Z M30.224,44.4848 L28.2616,42.5224 C28.0102329,42.2708824 27.623018,42.2154729 27.3112,42.3864 C26.9421276,42.5846967 26.5547195,42.7467866 26.1544,42.8704 C25.8238791,42.9770186 25.5998991,43.2847082 25.6,43.632 L25.6,46.4 L22.4,46.4 L22.4,43.632 C22.4001009,43.2847082 22.1761209,42.9770186 21.8456,42.8704 C21.4452805,42.7467866 21.0578724,42.5846967 20.6888,42.3864 C20.376982,42.2154729 19.9897671,42.2708824 19.7384,42.5224 L17.776,44.4848 L15.52,42.224 L17.4816,40.2616 C17.7327326,40.0103663 17.7881214,39.6236223 17.6176,39.312 C17.4198083,38.9426872 17.2577392,38.5553287 17.1336,38.1552 C17.0268149,37.8229541 16.7169805,37.5982675 16.368,37.6 L13.6,37.6 L13.6,34.4 L16.368,34.4 C16.7155067,34.399989 17.0232629,34.1756373 17.1296,33.8448 C17.2537392,33.4446713 17.4158083,33.0573128 17.6136,32.688 C17.7841214,32.3763777 17.7287326,31.9896337 17.4776,31.7384 L15.52,29.776 L17.78,27.5152 L19.7424,29.4776 C19.9937671,29.7291176 20.380982,29.7845271 20.6928,29.6136 C21.0618724,29.4153033 21.4492805,29.2532134 21.8496,29.1296 C22.1785392,29.0215795 22.4006638,28.7142211 22.4,28.368 L22.4,25.6 L25.6,25.6 L25.6,28.368 C25.5998991,28.7152918 25.8238791,29.0229814 26.1544,29.1296 C26.5547195,29.2532134 26.9421276,29.4153033 27.3112,29.6136 C27.623018,29.7845271 28.0102329,29.7291176 28.2616,29.4776 L30.224,27.5152 L32.484,29.776 L30.5224,31.7384 C30.2712674,31.9896337 30.2158786,32.3763777 30.3864,32.688 C30.5841917,33.0573128 30.7462608,33.4446713 30.8704,33.8448 C30.9767371,34.1756373 31.2844933,34.399989 31.632,34.4 L34.4,34.4 L34.4,37.6 L31.632,37.6 C31.2844933,37.600011 30.9767371,37.8243627 30.8704,38.1552 C30.7462608,38.5553287 30.5841917,38.9426872 30.3864,39.312 C30.2158786,39.6236223 30.2712674,40.0103663 30.5224,40.2616 L32.484,42.224 L30.224,44.4848 Z M46.4,40.8 C46.4,41.2418278 46.0418278,41.6 45.6,41.6 L34.1232,41.6 L32.0584,39.5344 C32.1064,39.4264 32.152,39.3152 32.1976,39.2 L35.2,39.2 C35.6418278,39.2 36,38.8418278 36,38.4 L36,33.6 C36,33.1581722 35.6418278,32.8 35.2,32.8 L32.1976,32.8 C32.152,32.6848 32.1064,32.5736 32.0584,32.4648 L34.1816,30.3416 C34.4939056,30.0292001 34.4939056,29.5227999 34.1816,29.2104 L30.7896,25.8184 C30.4772001,25.5060944 29.9707999,25.5060944 29.6584,25.8184 L27.5352,27.9416 C27.4264,27.8944 27.3152,27.848 27.2,27.8024 L27.2,24.8 C27.2,24.3581722 26.8418278,24 26.4,24 L21.6,24 C21.1581722,24 20.8,24.3581722 20.8,24.8 L20.8,27.8024 C20.6848,27.848 20.5736,27.8944 20.4648,27.9416 L18.3416,25.8184 C18.0242437,25.5183015 17.5277563,25.5183015 17.2104,25.8184 L13.8184,29.2104 C13.5060944,29.5227999 13.5060944,30.0292001 13.8184,30.3416 L15.9416,32.4648 C15.8936,32.5736 15.848,32.6848 15.8024,32.8 L12.8,32.8 C12.3581722,32.8 12,33.1581722 12,33.6 L12,38.4 C12,38.8418278 12.3581722,39.2 12.8,39.2 L15.8024,39.2 C15.848,39.3152 15.8936,39.4264 15.9416,39.5344 L13.8768,41.6 L2.4,41.6 C1.9581722,41.6 1.6,41.2418278 1.6,40.8 L1.6,9.6 L46.4,9.6 L46.4,40.8 Z M1.6,8 L1.6,2.4 C1.6,1.9581722 1.9581722,1.6 2.4,1.6 L45.6,1.6 C46.0418278,1.6 46.4,1.9581722 46.4,2.4 L46.4,8 L1.6,8 Z" id="Shape" fill="#183165"></path>
                        <path d="M41.6176471,2 L19.3823529,2 C18.0666157,2 17,3.11928813 17,4.5 C17,5.88071187 18.0666157,7 19.3823529,7 L41.6176471,7 C42.9333843,7 44,5.88071187 44,4.5 C44,3.11928813 42.9333843,2 41.6176471,2 Z M41.6176471,5.33333333 L19.3823529,5.33333333 C18.9437739,5.33333333 18.5882353,4.96023729 18.5882353,4.5 C18.5882353,4.03976271 18.9437739,3.66666667 19.3823529,3.66666667 L41.6176471,3.66666667 C42.0562261,3.66666667 42.4117647,4.03976271 42.4117647,4.5 C42.4117647,4.96023729 42.0562261,5.33333333 41.6176471,5.33333333 Z" id="Shape" fill="#183165"></path>
                        <circle id="Oval" fill="#183165" cx="5.5" cy="5.5" r="1.5"></circle>
                        <circle id="Oval" fill="#183165" cx="9.5" cy="5.5" r="1.5"></circle>
                        <circle id="Oval" fill="#183165" cx="14.5" cy="5.5" r="1.5"></circle>
                        <path d="M24.5,32 C22.0147186,32 20,34.0147186 20,36.5 C20,38.9852814 22.0147186,41 24.5,41 C26.9852814,41 29,38.9852814 29,36.5 C28.9975195,34.0157468 26.9842532,32.0024805 24.5,32 Z M24.5,39.5 C22.8431458,39.5 21.5,38.1568542 21.5,36.5 C21.5,34.8431458 22.8431458,33.5 24.5,33.5 C26.1568542,33.5 27.5,34.8431458 27.5,36.5 C27.5,38.1568542 26.1568542,39.5 24.5,39.5 Z" id="Shape" fill="#183165"></path>
                    </g>
                </g>
            </g>
        </g>
    </g>
</svg>