<?xml version="1.0" encoding="UTF-8"?>
<svg width="17px" height="16px" viewBox="0 0 17 16" version="1.1" xmlns="http://www.w3.org/2000/svg" xmlns:xlink="http://www.w3.org/1999/xlink">
    <!-- Generator: Sketch 56.3 (81716) - https://sketch.com -->
    <title>web</title>
    <desc>Created with Sketch.</desc>
    <g id="Page-1" stroke="none" stroke-width="1" fill="none" fill-rule="evenodd">
        <g id="Hey-Digital_Landing-Page-Design-Case-Studies" transform="translate(-755.000000, -623.000000)" fill="#183165" fill-rule="nonzero">
            <g id="Group-4" transform="translate(443.000000, 611.000000)">
                <g id="Group-4-Copy-4" transform="translate(300.000000, 0.000000)">
                    <g id="web" transform="translate(12.000000, 12.000000)">
                        <path d="M15.2291667,0 L1.77083333,0 C0.793333333,0.00115104167 0.00115104167,0.793333333 0,1.77083333 L0,11.3333333 C0.00115104167,12.3108333 0.793333333,13.1030156 1.77083333,13.1041667 L6.61370833,13.1041667 L6.10795833,14.875 L4.95833333,14.875 L4.95833333,15.5833333 L12.0416667,15.5833333 L12.0416667,14.875 L10.8920417,14.875 L10.3862917,13.1041667 L15.2291667,13.1041667 C16.2066667,13.1030156 16.998849,12.3108333 17,11.3333333 L17,1.77083333 C16.998849,0.793333333 16.2066667,0.00115104167 15.2291667,0 Z M6.844625,14.875 L7.350375,13.1041667 L9.649625,13.1041667 L10.155375,14.875 L6.844625,14.875 Z M16.2916667,11.3333333 C16.2916667,11.9201432 15.8159766,12.3958333 15.2291667,12.3958333 L1.77083333,12.3958333 C1.18402344,12.3958333 0.708333333,11.9201432 0.708333333,11.3333333 L0.708333333,10.625 L16.2916667,10.625 L16.2916667,11.3333333 Z M16.2916667,9.91666667 L0.708333333,9.91666667 L0.708333333,1.77083333 C0.708333333,1.18402344 1.18402344,0.708333333 1.77083333,0.708333333 L15.2291667,0.708333333 C15.8159766,0.708333333 16.2916667,1.18402344 16.2916667,1.77083333 L16.2916667,9.91666667 Z" id="Shape"></path>
                        <polygon id="Rectangle" transform="translate(8.497608, 5.672693) rotate(-74.031780) translate(-8.497608, -5.672693) " points="5.92041996 5.31868655 11.0747957 5.31868655 11.0747957 6.02669936 5.92041996 6.02669936"></polygon>
                        <path d="M6.60166667,4.16783333 L6.14833333,3.62383333 L4.02333333,5.39466667 C3.8731224,5.51995313 3.85289063,5.74325521 3.97817708,5.89351042 C3.99185677,5.90989063 4.00695312,5.92503125 4.02333333,5.93866667 L6.14833333,7.7095 L6.60166667,7.1655 L4.80320833,5.66666667 L6.60166667,4.16783333 Z" id="Path"></path>
                        <path d="M13.0218229,5.43982292 C13.0081432,5.42344271 12.9930469,5.40830208 12.9766667,5.39466667 L10.8516667,3.62383333 L10.3983333,4.16783333 L12.1967917,5.66666667 L10.3983333,7.1655 L10.8516667,7.7095 L12.9766667,5.93866667 C13.1268776,5.81338021 13.1471094,5.59007813 13.0218229,5.43982292 Z" id="Path"></path>
                    </g>
                </g>
            </g>
        </g>
    </g>
</svg>