<?xml version="1.0" encoding="UTF-8"?>
<svg width="80px" height="77px" viewBox="0 0 80 77" version="1.1" xmlns="http://www.w3.org/2000/svg" xmlns:xlink="http://www.w3.org/1999/xlink">
    <!-- Generator: Sketch 56.3 (81716) - https://sketch.com -->
    <title>Landing page optimization</title>
    <desc>Created with Sketch.</desc>
    <defs>
        <linearGradient x1="-3.04574141%" y1="112.484128%" x2="104.87563%" y2="-12.6612369%" id="linearGradient-1">
            <stop stop-color="#1C7CFB" stop-opacity="0.267318619" offset="0%"></stop>
            <stop stop-color="#1C7CFB" stop-opacity="0" offset="100%"></stop>
        </linearGradient>
    </defs>
    <g id="Page-1" stroke="none" stroke-width="1" fill="none" fill-rule="evenodd">
        <g id="Hey-Digital_Version_02" transform="translate(-1080.000000, -1508.000000)">
            <g id="Group-7-Copy-3" transform="translate(940.000000, 1461.000000)">
                <g id="Landing-page-optimization" transform="translate(136.000000, 41.000000)">
                    <g id="Group-10" transform="translate(4.000000, 6.000000)" fill-rule="nonzero">
                        <path d="M80,40.21625 C80,35.8989062 78.04625,31.8514062 74.6332813,28.3667187 C72.2584375,25.9420312 70.2810938,23.164375 68.771875,20.124375 C63.9454688,10.4029687 55.7165625,4 46.375625,4 C39.7376563,4 33.6617187,7.2340625 28.9689063,12.5942187 C25.8626563,16.1421875 21.940625,18.86375 17.5646875,20.6209375 C6.96484375,24.8775 0,32.0651562 0,40.21625 C0,48.3673437 6.96484375,55.555 17.5646875,59.8115625 C21.940625,61.56875 25.8626563,64.2903125 28.9690625,67.8382812 C33.661875,73.1984375 39.7378125,76.4325 46.3757813,76.4325 C55.7167187,76.4325 63.945625,70.0295312 68.7720312,60.308125 C70.28125,57.268125 72.2585938,54.4904687 74.6334375,52.0657812 C78.04625,48.5810937 80,44.5335937 80,40.21625 Z" id="Path" fill="url(#linearGradient-1)"></path>
                        <path d="M8.40171875,46.1915625 C8.20171875,46.1915625 8.001875,46.1153125 7.84921875,45.9628125 L6.83921875,44.9528125 L5.82921875,45.9628125 C5.5240625,46.2678125 5.02953125,46.2678125 4.724375,45.9628125 C4.41921875,45.6576563 4.41921875,45.1629688 4.724375,44.8579688 L6.286875,43.2954688 C6.59203125,42.9904688 7.0865625,42.9904688 7.39171875,43.2954688 L8.95421875,44.8579688 C9.259375,45.163125 9.259375,45.6578125 8.95421875,45.9628125 C8.8015625,46.1151563 8.6015625,46.1915625 8.40171875,46.1915625 Z" id="Path" fill="#6C6CFF"></path>
                        <path d="M74.3515625,61.6704687 C74.1515625,61.6704687 73.9517188,61.5942187 73.7990625,61.4417187 L72.7890625,60.4317187 L71.7790625,61.4417187 C71.4739063,61.7467187 70.979375,61.7467187 70.6742188,61.4417187 C70.3690625,61.1365625 70.3690625,60.641875 70.6742188,60.336875 L72.2367188,58.774375 C72.541875,58.469375 73.0364063,58.469375 73.3415625,58.774375 L74.9040625,60.336875 C75.2092188,60.6420312 75.2092188,61.1367187 74.9040625,61.4417187 C74.7514063,61.5940625 74.5515625,61.6704687 74.3515625,61.6704687 Z" id="Path" fill="#6C6CFF"></path>
                        <path d="M14.6484375,71.8829688 C14.4484375,71.8829688 14.2485937,71.8067188 14.0959375,71.6542188 C13.7907812,71.3490625 13.7907812,70.854375 14.0959375,70.549375 L15.6584375,68.986875 C15.9635937,68.681875 16.458125,68.681875 16.7632812,68.986875 C17.0684375,69.2920313 17.0684375,69.7867188 16.7632812,70.0917188 L15.2007812,71.6542188 C15.0482812,71.8065625 14.8484375,71.8829688 14.6484375,71.8829688 L14.6484375,71.8829688 Z" id="Path" fill="#FF9D33"></path>
                        <path d="M72.6953125,35.7370313 C72.4953125,35.7370313 72.2954687,35.6607813 72.1428125,35.5082813 C71.8376562,35.203125 71.8376562,34.7084375 72.1428125,34.4034375 L73.7053125,32.8409375 C74.0104687,32.5359375 74.505,32.5359375 74.8101562,32.8409375 C75.1153125,33.1460938 75.1153125,33.6407813 74.8101562,33.9457813 L73.2476562,35.5082813 C73.0951562,35.6607813 72.8953125,35.7370313 72.6953125,35.7370313 Z" id="Path" fill="#FF6C6C"></path>
                        <path d="M6.484375,23.7196875 C6.284375,23.7196875 6.08453125,23.6434375 5.931875,23.4909375 C5.62671875,23.1857813 5.62671875,22.6910938 5.931875,22.3860938 L7.494375,20.8235938 C7.79953125,20.5185938 8.2940625,20.5185938 8.59921875,20.8235938 C8.904375,21.12875 8.904375,21.6234375 8.59921875,21.9284375 L7.03671875,23.4909375 C6.88421875,23.6434375 6.684375,23.7196875 6.484375,23.7196875 Z" id="Path" fill="#FF6C6C"></path>
                        <path d="M46.484375,3.7196875 C46.284375,3.7196875 46.0845312,3.6434375 45.931875,3.4909375 C45.6267187,3.18578125 45.6267187,2.69109375 45.931875,2.38609375 L47.494375,0.82359375 C47.7995312,0.51859375 48.2940625,0.51859375 48.5992187,0.82359375 C48.904375,1.12875 48.904375,1.6234375 48.5992187,1.9284375 L47.0367187,3.4909375 C46.8842187,3.6434375 46.684375,3.7196875 46.484375,3.7196875 Z" id="Path-Copy-2" fill="#FF6C6C" transform="translate(47.265547, 2.157266) scale(-1, 1) translate(-47.265547, -2.157266) "></path>
                    </g>
                    <g id="browser" transform="translate(24.000000, 24.000000)" fill-rule="nonzero">
                        <path d="M37.7585938,41 L2.24140625,41 C1.0034375,41 0,39.9965625 0,38.7585937 L0,9.27585937 L40,9.27585937 L40,38.7585937 C40,39.9965625 38.9965625,41 37.7585938,41 Z" id="Path" fill="#4A85E0"></path>
                        <path d="M40,8.27585937 L0,8.27585937 L0,2.24140625 C0,1.0034375 1.0034375,0 2.24140625,0 L37.7585938,0 C38.9965625,0 40,1.0034375 40,2.24140625 L40,8.27585937 Z" id="Path" fill="#3F52B6"></path>
                        <rect id="Rectangle" fill="#FFFFFF" x="2.75859375" y="2.75859375" width="2.75859375" height="2.75859375"></rect>
                        <rect id="Rectangle" fill="#FFFFFF" x="8.27585937" y="2.75859375" width="2.75859375" height="2.75859375"></rect>
                        <rect id="Rectangle" fill="#FFFFFF" x="13.793125" y="2.75859375" width="2.75859375" height="2.75859375"></rect>
                        <g id="Group" transform="translate(0.000000, 14.046875)" fill="#FFFFFF">
                            <rect id="Rectangle" x="0" y="9.71171875" width="40" height="1.37929688"></rect>
                            <path d="M14.4827344,16.6082812 L3.44828125,16.6082812 C3.06757812,16.6082812 2.75859375,16.3 2.75859375,15.9185937 C2.75859375,15.5371875 3.06757812,15.2289062 3.44828125,15.2289062 L14.4827344,15.2289062 C14.8634375,15.2289062 15.1724219,15.5371875 15.1724219,15.9185937 C15.1724219,16.3 14.8634375,16.6082812 14.4827344,16.6082812 Z" id="Path"></path>
                            <path d="M17.9310156,19.3669531 L3.44828125,19.3669531 C3.06757812,19.3669531 2.75859375,19.0586719 2.75859375,18.6772656 C2.75859375,18.2958594 3.06757812,17.9875781 3.44828125,17.9875781 L17.9310156,17.9875781 C18.3117187,17.9875781 18.6207031,18.2958594 18.6207031,18.6772656 C18.6207031,19.0586719 18.3117187,19.3669531 17.9310156,19.3669531 Z" id="Path"></path>
                            <path d="M21.3792969,22.1255469 L3.44828125,22.1255469 C3.06757813,22.1255469 2.75859375,21.8172656 2.75859375,21.4358594 C2.75859375,21.0544531 3.06757813,20.7461719 3.44828125,20.7461719 L21.3792969,20.7461719 C21.76,20.7461719 22.0689844,21.0544531 22.0689844,21.4358594 C22.0689844,21.8172656 21.76,22.1255469 21.3792969,22.1255469 Z" id="Path"></path>
                            <path d="M32.4138281,1.43585937 L24.1379687,1.43585937 C23.7572656,1.43585937 23.4482813,1.12757812 23.4482813,0.746171875 C23.4482813,0.364765625 23.7572656,0.056484375 24.1379687,0.056484375 L32.4138281,0.056484375 C32.7945312,0.056484375 33.1035156,0.364765625 33.1035156,0.746171875 C33.1035156,1.12757812 32.7944531,1.43585937 32.4138281,1.43585937 Z" id="Path"></path>
                            <path d="M34.4827344,4.19453125 L24.1379687,4.19453125 C23.7572656,4.19453125 23.4482813,3.88625 23.4482813,3.50484375 C23.4482813,3.1234375 23.7572656,2.81515625 24.1379687,2.81515625 L34.4828125,2.81515625 C34.8635156,2.81515625 35.1725,3.1234375 35.1725,3.50484375 C35.1725,3.88625 34.8634375,4.19453125 34.4827344,4.19453125 Z" id="Path"></path>
                            <path d="M36.5517188,6.953125 L24.1379687,6.953125 C23.7572656,6.953125 23.4482813,6.64484375 23.4482813,6.2634375 C23.4482813,5.88203125 23.7572656,5.57375 24.1379687,5.57375 L36.5517969,5.57375 C36.9325,5.57375 37.2414844,5.88203125 37.2414844,6.2634375 C37.2414844,6.64484375 36.9324219,6.953125 36.5517188,6.953125 Z" id="Path"></path>
                        </g>
                        <rect id="Rectangle" fill="#FFFFFF" x="2.75859375" y="14.1034375" width="4.13796875" height="7.58617188"></rect>
                        <rect id="Rectangle" fill="#FBBC05" x="9.65515625" y="16.1724219" width="4.13796875" height="5.51726562"></rect>
                        <rect id="Rectangle" fill="#48DD70" x="16.5517187" y="12.0344531" width="4.13796875" height="9.65515625"></rect>
                    </g>
                    <circle id="Oval" fill="#DBE4FF" cx="57" cy="60" r="6"></circle>
                    <g id="cogwheel" transform="translate(47.000000, 50.000000)" fill="#3F52B6" fill-rule="nonzero">
                        <path d="M19.5667559,12.8041855 C19.5657973,12.803227 19.5640401,12.8024282 19.5632413,12.8006709 L18.2213347,11.5678741 C18.2667039,11.196134 18.290347,10.8280682 18.290347,10.4694277 C18.290347,10.1107872 18.2667039,9.74272136 18.2213347,9.37098127 L19.5667559,8.1346699 C20.0107033,7.71676184 20.1119853,7.05379609 19.8110148,6.51639443 L18.3304445,3.9565478 C18.0337873,3.42873119 17.3890331,3.17744317 16.7984344,3.36163586 L15.0569911,3.91117857 C14.4663924,3.45141578 13.829466,3.08143295 13.1593115,2.80921761 L12.7572187,1.0216063 C12.6254243,0.430049123 12.0905787,0 11.4851232,0 L8.51887058,0 C7.91325533,0 7.37856943,0.430049123 7.24677504,1.02080756 L6.84452253,2.80921761 C6.17452775,3.08143295 5.53760134,3.45141578 4.94700269,3.91117857 L3.20380208,3.36163586 C2.61671792,3.17920044 1.97020647,3.4279324 1.67706376,3.95127603 L0.19042294,6.52150646 C-0.107991533,7.05379609 -0.00686929414,7.71676184 0.441710921,8.13818444 L1.78345781,9.37098127 C1.73728984,9.74272136 1.71364672,10.1107872 1.71364672,10.4694277 C1.71364672,10.8280682 1.73728984,11.196134 1.78265906,11.5678741 L0.437237899,12.8041855 C-0.00686929414,13.2220935 -0.107991533,13.8850593 0.192978953,14.4216622 L1.67354926,16.9813491 C1.97020647,17.5101242 2.61400217,17.7604537 3.20555931,17.5772195 L4.94700269,17.0276768 C5.53760134,17.4874396 6.17452775,17.8574224 6.84452253,18.1296378 L7.24677504,19.9162906 C7.37856943,20.5088063 7.91325533,20.9388554 8.51887058,20.9388554 L11.4851232,20.9388554 C12.0905787,20.9388554 12.6254243,20.5088063 12.7572187,19.9180478 L13.1593115,18.1296378 C13.829466,17.8574224 14.4663924,17.4882383 15.0569911,17.0276768 L16.8001917,17.5772195 C17.3890331,17.7614122 18.0337873,17.5101242 18.3277288,16.9866209 L19.8145293,14.4163904 C20.1119853,13.8850593 20.0107033,13.2220935 19.5667559,12.8041855 Z M10.0019969,14.8317425 C7.59662925,14.8317425 5.63968211,12.8747953 5.63968211,10.4694277 C5.63968211,8.06406008 7.59662925,6.10711289 10.0019969,6.10711289 C12.4073645,6.10711289 14.3643117,8.06406008 14.3643117,10.4694277 C14.3643117,12.8747953 12.4073645,14.8317425 10.0019969,14.8317425 L10.0019969,14.8317425 Z" id="Shape"></path>
                    </g>
                </g>
            </g>
        </g>
    </g>
</svg>