<?xml version="1.0" encoding="UTF-8"?>
<svg width="33px" height="40px" viewBox="0 0 33 40" version="1.1" xmlns="http://www.w3.org/2000/svg" xmlns:xlink="http://www.w3.org/1999/xlink">
    <!-- Generator: Sketch 56.3 (81716) - https://sketch.com -->
    <title>money-bag-with-dollar-symbol</title>
    <desc>Created with Sketch.</desc>
    <g id="Page-1" stroke="none" stroke-width="1" fill="none" fill-rule="evenodd">
        <g id="Hey-Digital_Version_02" transform="translate(-1002.000000, -4761.000000)" fill-rule="nonzero">
            <g id="Group-7" transform="translate(0.000000, 4546.000000)">
                <g id="Group-28" transform="translate(1002.000000, 210.000000)">
                    <g id="money-bag-with-dollar-symbol" transform="translate(0.000000, 5.000000)">
                        <path d="M19.2012323,26.3910255 C19.0528725,26.2285496 18.8651558,26.1070198 18.6711756,26.0057762 C18.248813,25.7855269 17.7869065,25.6519377 17.328272,25.5313428 L17.328272,29.0852465 C18.0726884,29.0011105 18.9273229,28.7309405 19.3181813,28.0359773 L19.3181813,28.0359773 C19.5047762,27.7040142 19.5418895,27.2961416 19.4658867,26.9265977 C19.4246601,26.7263541 19.3394958,26.5425637 19.2012323,26.3910255 Z" id="Path" fill="#102553"></path>
                        <path d="M19.3188728,28.0479739 C19.3205228,28.0451895 19.3214509,28.0434364 19.323204,28.0404457 L19.323204,28.0404457 C19.3217603,28.0429207 19.3203165,28.0453957 19.3188728,28.0479739 Z" id="Path" fill="#102553"></path>
                        <path d="M13.8365354,20.7097904 C13.7085552,20.8966657 13.6282521,21.1089688 13.6060963,21.3346402 C13.5839405,21.560779 13.5963739,21.8123456 13.6822861,22.0252096 C13.764085,22.2280708 13.9354419,22.3778329 14.1123144,22.4984278 C14.3107819,22.6334193 14.529068,22.7388697 14.7513739,22.8282408 C14.9378754,22.9033088 15.1476544,22.9751048 15.3737932,23.0444703 L15.3737932,19.8286062 C14.8025099,19.9505099 14.1783144,20.2107705 13.8365354,20.7097904 Z" id="Path" fill="#102553"></path>
                        <path d="M19.3385289,28.0131788 C19.3333727,28.0223569 19.3278039,28.0319476 19.3223383,28.0420538 L19.3223383,28.0420538 C19.328732,28.0302976 19.3337852,28.0216351 19.3385289,28.0131788 Z" id="Path" fill="#102553"></path>
                        <path d="M19.3564183,27.9813385 C19.357759,27.9788635 19.3579652,27.9786572 19.3564183,27.9813385 L19.3564183,27.9813385 Z" id="Path" fill="#102553"></path>
                        <path d="M18.5580438,8.64439372 C21.5803016,6.10554386 23.599752,0.385886636 22.3569702,0.13572233 C20.7056614,-0.196801749 17.119786,1.26127474 15.3865849,1.51816992 C12.9283186,1.81498295 10.2509248,-1.14753829 8.74806931,0.503770488 C7.52613446,1.84639372 9.6241118,6.72908494 12.9064432,8.85622941 C3.11376336,13.6691813 -10.6505086,37.8306033 13.3619928,39.5837167 C46.5873838,42.0095439 29.9502421,13.334507 18.5580438,8.64439372 Z" id="Path" fill="#102553"></path>
                        <path d="M18.9156652,24.3589818 C18.2340645,24.0076689 17.5094152,23.740002 16.7919408,23.4622976 C16.3758056,23.3016974 15.9776072,23.1143306 15.6260448,22.8533553 C14.9336819,22.3380965 15.0664147,21.5016373 15.8771608,21.1703995 C16.1067527,21.0767161 16.3471066,21.0466035 16.5910479,21.0332202 C17.5309395,20.9863785 18.4241952,21.1469786 19.2744024,21.528404 C19.6977124,21.7191167 19.8376199,21.6588916 19.9811148,21.2473537 C20.1317844,20.812395 20.2573425,20.3707445 20.39725,19.9324399 C20.4905217,19.6380063 20.3757258,19.4439478 20.0779738,19.3201518 C19.5326933,19.0959808 18.9730632,18.9353806 18.3847341,18.8483889 C17.6170364,18.7379762 17.6170364,18.7346304 17.613449,18.0152755 C17.6098617,17.001487 17.6098617,17.001487 16.5193005,17.001487 C16.3614561,17.001487 16.2036117,16.9981412 16.0457673,17.001487 C15.5363604,17.0148704 15.4502635,17.0985163 15.435914,17.5769709 C15.4287393,17.7911045 15.435914,18.005238 15.4323266,18.2227174 C15.4287393,18.8584264 15.4251519,18.8483889 14.7722501,19.0692141 C13.1938063,19.6045479 12.218041,20.6082989 12.1140072,22.2143005 C12.0207355,23.6362811 12.8171322,24.5965362 14.0691252,25.295816 C14.8404102,25.727429 15.6942048,25.9817125 16.5121257,26.319642 C16.8314019,26.4501297 17.1363285,26.6006923 17.4017941,26.8081342 C18.1874286,27.4137306 18.0439337,28.4208274 17.1112169,28.8022528 C16.6125722,29.0063489 16.0852284,29.0565364 15.5435352,28.9929655 C14.7076774,28.8959362 13.9076934,28.6918402 13.1543452,28.327144 C12.7130984,28.1130105 12.583953,28.1698897 12.4332834,28.614886 C12.304138,28.9996572 12.189342,29.3877742 12.0745461,29.7758913 C11.9202891,30.2978418 11.9776871,30.4216378 12.5122056,30.6658838 C13.1938063,30.9737008 13.9220429,31.1309551 14.664629,31.2413677 C15.2457833,31.3283595 15.2637201,31.3517803 15.2708949,31.9138809 C15.2744823,32.1681645 15.2744823,32.4257939 15.2780696,32.6800775 C15.281657,33.0012778 15.4466761,33.1886446 15.801826,33.1953363 C16.2036117,33.202028 16.6089848,33.202028 17.0107705,33.1919905 C17.3408087,33.1852988 17.5094152,33.018007 17.5094152,32.7068442 C17.5094152,32.3588772 17.5273521,32.0075643 17.5130026,31.6595973 C17.4950658,31.3049386 17.6600849,31.1242634 18.0259969,31.03058 C18.8690294,30.8164465 19.5865038,30.3948711 20.1389592,29.7658538 C21.6743545,28.0260187 21.0896129,25.4798371 18.9156652,24.3589818 Z" id="Path" fill="#FF9D0E"></path>
                        <path d="M19.3094504,28.0646049 C19.3031598,28.0758455 19.2976942,28.0857455 19.2933629,28.0932736 C19.2970754,28.0867768 19.3026442,28.0769799 19.3094504,28.0646049 Z" id="Path" fill="#FFFFFF"></path>
                    </g>
                </g>
            </g>
        </g>
    </g>
</svg>