<?xml version="1.0" encoding="UTF-8"?>
<svg width="119px" height="23px" viewBox="0 0 119 23" version="1.1" xmlns="http://www.w3.org/2000/svg" xmlns:xlink="http://www.w3.org/1999/xlink">
    <!-- Generator: Sketch 56.3 (81716) - https://sketch.com -->
    <title>Asset 1 Copy</title>
    <desc>Created with Sketch.</desc>
    <g id="Page-1" stroke="none" stroke-width="1" fill="none" fill-rule="evenodd">
        <g id="Hey-Digital_Home" transform="translate(-141.000000, -26.000000)">
            <g id="Asset-1-Copy" transform="translate(141.000000, 26.000000)">
                <path d="M2,16.4863354 C2,17.1621118 1.66391185,17.5 0.991735537,17.5 C0.319559229,17.5 -0.0109274564,17.1621118 0.000275482094,16.4863354 L0.000275482094,1.5136646 C0.000275482094,0.837888199 0.330762167,0.5 0.991735537,0.5 C1.65270891,0.5 1.98879706,0.837888199 2,1.5136646 L2,16.4863354 Z" id="Path" fill="#231F20" fill-rule="nonzero"></path>
                <path d="M15.4762986,1.51372196 C15.4762986,0.837947983 15.8969137,0.5 16.738144,0.5 C17.5793742,0.5 18,0.837947983 18,1.51372196 L18,16.0850982 C18.0021253,16.576028 17.6819686,17.0117689 17.2086626,17.162113 L17.2086626,17.162113 C16.9790514,17.2617609 16.7403337,17.3395459 16.4957556,17.3944103 C16.2501184,17.4495183 15.9990987,17.477845 15.7472032,17.4788821 C15.5537856,17.475861 15.3608235,17.4593952 15.1697485,17.4296069 C14.9735389,17.3957765 14.7820907,17.3390651 14.5994229,17.2606634 C14.4175269,17.1819829 14.2510314,17.0723834 14.1075171,16.936855 C13.9543162,16.801256 13.8347878,16.6326511 13.7581927,16.4441032 L9.1242971,5.01929944 L8.54684242,5.08265325 L8.54684242,16.486339 C8.54684242,17.162113 8.11909822,17.5 7.26360981,17.5 C6.40812139,17.5 5.98750626,17.162113 6.0017644,16.486339 L6.0017644,1.90792344 C5.97348002,1.40281133 6.28765424,0.940355783 6.77170397,0.774594173 C7.24866665,0.590425683 7.75668183,0.497267858 8.26880869,0.5 C8.65346442,0.5 9.03418942,0.576463217 9.3880727,0.725318988 C9.77627235,0.880105425 10.0882098,1.17801678 10.2578192,1.55595783 L14.8774567,13.0018795 L15.4762986,12.9385257 L15.4762986,1.51372196 Z" id="Path" fill="#231F20" fill-rule="nonzero"></path>
                <path d="M25.7251098,16.482568 C25.7251098,17.160856 25.3200989,17.5 24.5100771,17.5 C23.7000552,17.5 23.3017945,17.160856 23.3152949,16.482568 L23.3152949,2.64125405 L19.7714494,2.64125405 C19.2854363,2.64125405 19.0289294,2.28091356 19.0019286,1.56023259 C18.9749279,0.839551613 19.2314348,0.486276626 19.7714494,0.500407625 L29.2689553,0.500407625 C29.7819691,0.500407625 30.0249757,0.853682612 29.9979749,1.56023259 C29.9709742,2.26678256 29.7279677,2.62712305 29.2689553,2.64125405 L25.7251098,2.64125405 L25.7251098,16.482568 Z" id="Path" fill="#231F20" fill-rule="nonzero"></path>
                <path d="M33.3496731,17.4906145 C32.9472603,17.5393809 32.5455213,17.3960468 32.2791543,17.1086704 C32.0957482,16.860974 31.9985184,16.5660383 32.0008195,16.2643729 L32.0008195,2.74891285 C31.989934,2.43989408 32.0877514,2.13611127 32.2791543,1.88451308 C32.5484529,1.60160912 32.9488014,1.46127708 33.3496731,1.50926976 L40.7719366,1.50926976 C41.3000591,1.50926976 41.578394,1.84430844 41.6069412,2.51438578 C41.6354884,3.18446313 41.3571535,3.52620258 40.7719366,3.53960412 L34.5272437,3.53960412 L34.5272437,15.4803824 L41.1858705,15.4803824 C41.7139931,15.4803824 41.9851912,15.8087203 41.9994647,16.4653961 C42.0137383,17.1220719 41.7425402,17.4638114 41.1858705,17.4906145 L33.3496731,17.4906145 Z M40.0082998,9.46882075 C40.0163978,9.91606637 39.8249066,10.3461098 39.4801772,10.6548577 C39.1447489,10.971925 38.6857084,11.1462603 38.2098283,11.1373133 C37.7426921,11.1444215 37.2932293,10.9697995 36.9680265,10.6548577 C36.2845407,9.99437386 36.2845407,8.94326763 36.9680265,8.28278384 C37.2932293,7.96784198 37.7426921,7.79321999 38.2098283,7.80032815 C38.6857084,7.79138117 39.1447489,7.96571648 39.4801772,8.28278384 C39.8249066,8.59153173 40.0163978,9.02157513 40.0082998,9.46882075 Z" id="Shape" fill="#231F20" fill-rule="nonzero"></path>
                <path d="M53.4818654,1.51395405 C53.4818654,0.838189893 53.8991681,0.500307812 54.7337736,0.500307812 C55.5683791,0.500307812 55.990451,0.838189893 56,1.51395405 L56,16.0851188 C56.0021326,16.5760414 55.6808671,17.011776 55.2059218,17.1621179 L55.2059218,17.1621179 C54.9755154,17.2617644 54.7359709,17.3395482 54.4905457,17.3944118 C54.2557302,17.4470228 54.0159683,17.4753335 53.7751696,17.4788824 C53.581082,17.4758614 53.3874516,17.4593958 53.1957149,17.4296079 C52.9988257,17.395778 52.8067144,17.3390674 52.623414,17.2606669 C52.4408879,17.1819875 52.2738158,17.0723896 52.1298045,16.9368632 C51.9760729,16.8012662 51.8561306,16.6326637 51.7792702,16.4441185 L47.107864,5.01948064 L46.5284094,5.08283353 L46.5284094,16.4863538 C46.5284094,17.1621179 46.0991837,17.5 45.2407323,17.5 C44.382281,17.5 43.9697474,17.1621179 44.0031316,16.4863538 L44.0031316,1.90814982 C43.9664178,1.41765855 44.2553982,0.9598501 44.7185077,0.774837003 C45.20607,0.587134516 45.7259024,0.49391567 46.2494127,0.500307812 C46.6354006,0.5 47.0174443,0.576708923 47.3725532,0.725562533 C47.7620974,0.880346723 48.0751152,1.17825375 48.2453121,1.55618931 L52.8809494,13.0019448 L53.4818654,12.9385919 L53.4818654,1.51395405 Z" id="Path" fill="#231F20" fill-rule="nonzero"></path>
                <path d="M64.7251098,16.482568 C64.7251098,17.160856 64.3200989,17.5 63.5100771,17.5 C62.7000552,17.5 62.3017945,17.160856 62.3152949,16.482568 L62.3152949,2.64125405 L58.7714494,2.64125405 C58.2854363,2.64125405 58.0289294,2.28091356 58.0019286,1.56023259 C57.9749279,0.839551613 58.2314348,0.486276626 58.7714494,0.500407625 L68.2689553,0.500407625 C68.7819691,0.500407625 69.0249757,0.853682612 68.9979749,1.56023259 C68.9709742,2.26678256 68.7279677,2.62712305 68.2689553,2.64125405 L64.7251098,2.64125405 L64.7251098,16.482568 Z" id="Path" fill="#231F20" fill-rule="nonzero"></path>
                <path d="M81.992842,14.2597484 C82.0602752,15.2019622 81.6480064,16.1153622 80.8936902,16.6949686 C80.5579771,16.941037 80.1906283,17.1418222 79.8013232,17.2920335 C79.455496,17.4268415 79.0874644,17.4973459 78.7157412,17.5 L74.2784246,17.5 C73.9044944,17.4974042 73.5342275,17.4269122 73.1860576,17.2920335 C72.7989108,17.1417202 72.4338182,16.940921 72.1004756,16.6949686 C71.7521577,16.4336871 71.4728383,16.0930669 71.2862891,15.7020964 C71.084639,15.248052 70.987315,14.7554478 71.0013238,14.2597484 L71.0013238,4.7 C70.9913052,4.21330665 71.0885443,3.73028901 71.2862891,3.28448637 C71.465715,2.88729496 71.7462396,2.54289349 72.1004756,2.28490566 L72.1004756,2.28490566 C72.4463884,2.06036518 72.8147035,1.87153442 73.1996274,1.72138365 C73.548668,1.57989173 73.921574,1.50478355 74.2987792,1.5 L78.7360959,1.5 C79.1133011,1.50478355 79.4862071,1.57989173 79.8352477,1.72138365 C80.2201716,1.87153442 80.5884867,2.06036518 80.9343995,2.28490566 L80.9343995,2.28490566 C81.2687511,2.5495503 81.5301281,2.89336501 81.6943069,3.28448637 C81.8920517,3.73028901 81.9892908,4.21330665 81.9792722,4.7 L81.9792722,6.09538784 C81.9792722,6.739413 81.572179,7.06142558 80.7579924,7.06142558 C79.9438059,7.06142558 79.5480208,6.739413 79.5706371,6.09538784 L79.5706371,4.88113208 C79.5716314,4.54819047 79.4646187,4.22370805 79.2653171,3.95534591 C79.005617,3.64908921 78.6088372,3.49065301 78.2068746,3.5327044 L74.8144307,3.5327044 C74.4124681,3.49065301 74.0156883,3.64908921 73.7559882,3.95534591 C73.5566867,4.22370805 73.4496739,4.54819047 73.4506683,4.88113208 L73.4506683,14.0987421 C73.4477053,14.4381885 73.5546978,14.769662 73.7559882,15.0446541 C74.0156883,15.3509108 74.4124681,15.509347 74.8144307,15.4672956 L78.2068746,15.4672956 C78.6088372,15.509347 79.005617,15.3509108 79.2653171,15.0446541 C79.4666075,14.769662 79.5736,14.4381885 79.5706371,14.0987421 L79.5706371,12.9314465 C79.5706371,12.3008386 79.9709454,11.9855346 80.7715622,11.9855346 C81.572179,11.9855346 81.9792722,12.3008386 81.992842,12.9314465 L81.992842,14.2597484 Z" id="Path" fill="#F36C3C" fill-rule="nonzero"></path>
                <path d="M86.292783,17.4900844 C85.9071095,17.5416049 85.5220818,17.390176 85.2667951,17.0865699 C85.0910182,16.8248848 84.9978329,16.5132925 85,16.1945905 L85,1.51940507 C85,0.839801689 85.3967536,0.5 86.1901842,0.5 C86.9836148,0.5 87.3940099,0.839801689 87.4213696,1.51940507 L87.4213696,15.3663239 L94.2612887,15.3663239 C94.7537629,15.3663239 95,15.7132048 95,16.4069665 C95,17.1007283 94.7583229,17.4617676 94.2749686,17.4900844 L86.292783,17.4900844 Z" id="Path" fill="#F36C3C" fill-rule="nonzero"></path>
                <path d="M99,16.4863354 C99,17.1621118 98.6639118,17.5 97.9917355,17.5 C97.3195592,17.5 96.9890725,17.1621118 97.0002755,16.4863354 L97.0002755,1.5136646 C97.0002755,0.837888199 97.3307622,0.5 97.9917355,0.5 C98.6527089,0.5 98.9887971,0.837888199 99,1.5136646 L99,16.4863354 Z" id="Path" fill="#F36C3C" fill-rule="nonzero"></path>
                <path d="M114.795971,17.912993 C114.932398,18.0499014 115.006306,18.2393993 114.999578,18.4350348 C114.998254,18.5513998 114.970361,18.6658277 114.918135,18.7691415 C114.851228,18.8966251 114.761421,19.009985 114.653447,19.1032483 C114.489739,19.3252378 114.244419,19.4686488 113.974759,19.5 C113.783444,19.4788046 113.60793,19.3813014 113.486103,19.2285383 L112.081219,17.787703 C111.650395,17.9736574 111.190808,18.0797106 110.723843,18.1009281 L106.285223,18.1009281 C105.911183,18.0982348 105.540808,18.0250952 105.192536,17.8851508 C104.805275,17.729192 104.440075,17.5208512 104.106635,17.2656613 C103.352097,16.664286 102.939707,15.7165806 103.00716,14.7389791 L103.00716,4.82018561 C102.997139,4.31521304 103.094406,3.81405422 103.292209,3.35150812 C103.471688,2.93939899 103.752295,2.58206249 104.106635,2.31438515 L104.106635,2.31438515 C104.445511,2.07737409 104.809879,1.88118549 105.192536,1.72969838 C105.546566,1.58339355 105.923931,1.50551721 106.305584,1.5 L110.744204,1.5 C111.114778,1.50641874 111.48086,1.58434238 111.823318,1.72969838 C112.208355,1.88548851 112.576778,2.08141138 112.922792,2.31438515 L112.922792,2.31438515 C113.277132,2.58206249 113.557739,2.93939899 113.737218,3.35150812 C113.935021,3.81405422 114.032288,4.31521304 114.022267,4.82018561 L114.022267,14.7389791 C114.022371,15.0641988 113.976653,15.3877274 113.886529,15.699536 C113.802546,15.9983118 113.684068,16.2857304 113.533612,16.5556845 L114.795971,17.912993 Z M110.133384,16.0128299 C110.493788,16.0158967 110.847369,15.9119432 111.151417,15.7134571 C111.476107,15.4872666 111.655439,15.0981001 111.619711,14.6972158 L111.57899,5.02900232 C111.579985,4.68355609 111.47294,4.34688676 111.27358,4.06844548 C111.007414,3.74724914 110.602905,3.58287066 110.194466,3.62993039 L106.801026,3.62993039 C106.395204,3.58771526 105.994858,3.75143204 105.728699,4.06844548 C105.524713,4.34484009 105.415013,4.68236291 105.416503,5.02900232 L105.416503,14.5719258 C105.412554,14.9253727 105.522277,15.2703053 105.728699,15.5533643 C105.994858,15.8703777 106.395204,16.0340945 106.801026,15.9918794 L110.133384,16.0128299 Z M110.29627,11.8364269 C110.30179,12.2978069 110.125517,12.7419449 109.807389,13.0682143 C109.48926,13.3944837 109.056204,13.5752673 108.606336,13.5696056 C108.162104,13.5769893 107.734678,13.3955974 107.425419,13.0684455 C107.103966,12.7443722 106.927164,12.2986116 106.936764,11.8364269 C106.936764,10.8907514 107.684257,10.1241299 108.606336,10.1241299 C109.056989,10.1142849 109.491627,10.2956112 109.807614,10.62529 C110.126603,10.9424623 110.303469,11.3808261 110.29627,11.8364269 L110.29627,11.8364269 Z" id="Shape" fill="#F36C3C" fill-rule="nonzero"></path>
                <path d="M116.061241,21.4118998 L114.210354,19.5393904 L113.256867,20.4010161 C113.17478,20.476712 113.05882,20.5073159 112.948386,20.4824295 C112.84047,20.4555807 112.755192,20.3756367 112.724036,20.2721114 L111.013368,14.905608 C110.978239,14.7911977 111.013619,14.6674187 111.10451,14.5867387 C111.191633,14.5045176 111.319857,14.4781174 111.434024,14.5188941 L116.895542,16.4185414 C117.001623,16.4539268 117.079483,16.542262 117.098859,16.6492128 C117.119045,16.754999 117.085085,16.8636983 117.007717,16.9409444 L116.061241,17.8025701 L117.905117,19.6750795 C118.031628,19.7992338 118.031628,19.9986991 117.905117,20.1228535 L116.50293,21.4186842 C116.376958,21.529669 116.183509,21.5266976 116.061241,21.4118998 L116.061241,21.4118998 Z" id="Path" stroke="#E1E8FA" stroke-width="2"></path>
                <path d="M116.061241,21.4118998 L114.210354,19.5393904 L113.256867,20.4010161 C113.17478,20.476712 113.05882,20.5073159 112.948386,20.4824295 C112.84047,20.4555807 112.755192,20.3756367 112.724036,20.2721114 L111.013368,14.905608 C110.978239,14.7911977 111.013619,14.6674187 111.10451,14.5867387 C111.191633,14.5045176 111.319857,14.4781174 111.434024,14.5188941 L116.895542,16.4185414 C117.001623,16.4539268 117.079483,16.542262 117.098859,16.6492128 C117.119045,16.754999 117.085085,16.8636983 117.007717,16.9409444 L116.061241,17.8025701 L117.905117,19.6750795 C118.031628,19.7992338 118.031628,19.9986991 117.905117,20.1228535 L116.50293,21.4186842 C116.376958,21.529669 116.183509,21.5266976 116.061241,21.4118998 L116.061241,21.4118998 Z" id="Path" fill="#010101" fill-rule="nonzero"></path>
            </g>
        </g>
    </g>
</svg>