<?xml version="1.0" encoding="UTF-8"?>
<svg width="80px" height="77px" viewBox="0 0 80 77" version="1.1" xmlns="http://www.w3.org/2000/svg" xmlns:xlink="http://www.w3.org/1999/xlink">
    <!-- Generator: Sketch 56.3 (81716) - https://sketch.com -->
    <title>Mobile &amp; Display Ads</title>
    <desc>Created with Sketch.</desc>
    <defs>
        <linearGradient x1="-3.04574141%" y1="112.484128%" x2="104.87563%" y2="-12.6612369%" id="linearGradient-1">
            <stop stop-color="#1C7CFB" stop-opacity="0.267318619" offset="0%"></stop>
            <stop stop-color="#1C7CFB" stop-opacity="0" offset="100%"></stop>
        </linearGradient>
    </defs>
    <g id="Page-1" stroke="none" stroke-width="1" fill="none" fill-rule="evenodd">
        <g id="Hey-Digital_Home" transform="translate(-1080.000000, -1103.000000)">
            <g id="Group-7-Copy-2" transform="translate(940.000000, 1059.000000)">
                <g id="Mobile-&amp;-Display-Ads" transform="translate(136.000000, 41.000000)">
                    <g id="Group-10" transform="translate(4.000000, 3.000000)" fill-rule="nonzero">
                        <path d="M80,40.21625 C80,35.8989062 78.04625,31.8514062 74.6332813,28.3667187 C72.2584375,25.9420312 70.2810938,23.164375 68.771875,20.124375 C63.9454688,10.4029687 55.7165625,4 46.375625,4 C39.7376563,4 33.6617187,7.2340625 28.9689063,12.5942187 C25.8626563,16.1421875 21.940625,18.86375 17.5646875,20.6209375 C6.96484375,24.8775 0,32.0651562 0,40.21625 C0,48.3673437 6.96484375,55.555 17.5646875,59.8115625 C21.940625,61.56875 25.8626563,64.2903125 28.9690625,67.8382812 C33.661875,73.1984375 39.7378125,76.4325 46.3757813,76.4325 C55.7167187,76.4325 63.945625,70.0295312 68.7720312,60.308125 C70.28125,57.268125 72.2585938,54.4904687 74.6334375,52.0657812 C78.04625,48.5810937 80,44.5335937 80,40.21625 Z" id="Path" fill="url(#linearGradient-1)"></path>
                        <path d="M8.40171875,46.1915625 C8.20171875,46.1915625 8.001875,46.1153125 7.84921875,45.9628125 L6.83921875,44.9528125 L5.82921875,45.9628125 C5.5240625,46.2678125 5.02953125,46.2678125 4.724375,45.9628125 C4.41921875,45.6576563 4.41921875,45.1629688 4.724375,44.8579688 L6.286875,43.2954688 C6.59203125,42.9904688 7.0865625,42.9904688 7.39171875,43.2954688 L8.95421875,44.8579688 C9.259375,45.163125 9.259375,45.6578125 8.95421875,45.9628125 C8.8015625,46.1151563 8.6015625,46.1915625 8.40171875,46.1915625 Z" id="Path" fill="#6C6CFF"></path>
                        <path d="M74.3515625,61.6704687 C74.1515625,61.6704687 73.9517188,61.5942187 73.7990625,61.4417187 L72.7890625,60.4317187 L71.7790625,61.4417187 C71.4739063,61.7467187 70.979375,61.7467187 70.6742188,61.4417187 C70.3690625,61.1365625 70.3690625,60.641875 70.6742188,60.336875 L72.2367188,58.774375 C72.541875,58.469375 73.0364063,58.469375 73.3415625,58.774375 L74.9040625,60.336875 C75.2092188,60.6420312 75.2092188,61.1367187 74.9040625,61.4417187 C74.7514063,61.5940625 74.5515625,61.6704687 74.3515625,61.6704687 Z" id="Path" fill="#6C6CFF"></path>
                        <path d="M14.6484375,71.8829688 C14.4484375,71.8829688 14.2485937,71.8067188 14.0959375,71.6542188 C13.7907812,71.3490625 13.7907812,70.854375 14.0959375,70.549375 L15.6584375,68.986875 C15.9635937,68.681875 16.458125,68.681875 16.7632812,68.986875 C17.0684375,69.2920313 17.0684375,69.7867188 16.7632812,70.0917188 L15.2007812,71.6542188 C15.0482812,71.8065625 14.8484375,71.8829688 14.6484375,71.8829688 L14.6484375,71.8829688 Z" id="Path" fill="#FF9D33"></path>
                        <path d="M72.6953125,35.7370313 C72.4953125,35.7370313 72.2954687,35.6607813 72.1428125,35.5082813 C71.8376562,35.203125 71.8376562,34.7084375 72.1428125,34.4034375 L73.7053125,32.8409375 C74.0104687,32.5359375 74.505,32.5359375 74.8101562,32.8409375 C75.1153125,33.1460938 75.1153125,33.6407813 74.8101562,33.9457813 L73.2476562,35.5082813 C73.0951562,35.6607813 72.8953125,35.7370313 72.6953125,35.7370313 Z" id="Path" fill="#FF6C6C"></path>
                        <path d="M6.484375,23.7196875 C6.284375,23.7196875 6.08453125,23.6434375 5.931875,23.4909375 C5.62671875,23.1857813 5.62671875,22.6910938 5.931875,22.3860938 L7.494375,20.8235938 C7.79953125,20.5185938 8.2940625,20.5185938 8.59921875,20.8235938 C8.904375,21.12875 8.904375,21.6234375 8.59921875,21.9284375 L7.03671875,23.4909375 C6.88421875,23.6434375 6.684375,23.7196875 6.484375,23.7196875 Z" id="Path" fill="#FF6C6C"></path>
                        <path d="M46.484375,3.7196875 C46.284375,3.7196875 46.0845312,3.6434375 45.931875,3.4909375 C45.6267187,3.18578125 45.6267187,2.69109375 45.931875,2.38609375 L47.494375,0.82359375 C47.7995312,0.51859375 48.2940625,0.51859375 48.5992187,0.82359375 C48.904375,1.12875 48.904375,1.6234375 48.5992187,1.9284375 L47.0367187,3.4909375 C46.8842187,3.6434375 46.684375,3.7196875 46.484375,3.7196875 Z" id="Path-Copy-2" fill="#FF6C6C" transform="translate(47.265547, 2.157266) scale(-1, 1) translate(-47.265547, -2.157266) "></path>
                    </g>
                    <g id="computer" transform="translate(24.000000, 18.000000)">
                        <path d="M45.9986304,36 L45.9986304,39.1833333 C46.0363033,40.1438592 45.2922156,40.9549641 44.3320652,41 L2.66793482,41 C1.7077844,40.9549641 0.963696739,40.1438592 1.0013696,39.1833333 L1.0013696,36 L45.9986304,36 Z" id="Shape" fill="#3761BA" fill-rule="nonzero"></path>
                        <path d="M43.5994742,36 L43.5994742,39.1833333 C43.6356305,40.1438592 42.9214976,40.9549641 42,41 L44.3992113,41 C45.3207089,40.9549641 46.0348418,40.1438592 45.9986855,39.1833333 L45.9986855,36 L43.5994742,36 Z" id="Shape" fill="#1A459F" fill-rule="nonzero"></path>
                        <path d="M45.9986304,5.83578947 L45.9986304,36 L1.0013696,36 L1.0013696,5.83578947 C0.963696739,4.86515284 1.7077844,4.04550997 2.66793482,4 L7.26765481,4 C5.1740635,7.16203863 5.72466267,11.4026243 8.55460405,13.911781 C11.3845454,16.4209376 15.6166721,16.4209376 18.4466134,13.911781 C21.2765548,11.4026243 21.8271539,7.16203863 19.7335626,4 L44.3320652,4 C45.2922156,4.04550997 46.0363033,4.86515284 45.9986304,5.83578947 Z" id="Shape" fill="#F5F5F5" fill-rule="nonzero"></path>
                        <path d="M44.3992113,4 L42,4 C42.9214976,4.04550997 43.6356305,4.86515284 43.5994742,5.83578947 L43.5994742,36 L45.9986855,36 L45.9986855,5.83578947 C46.0348418,4.86515284 45.3207089,4.04550997 44.3992113,4 Z" id="Shape" fill="#CFD8DC" fill-rule="nonzero"></path>
                        <polygon id="Shape" fill="#3F51B5" fill-rule="nonzero" points="29.45 42 32 47 23.5 47 15 47 17.55 42"></polygon>
                        <polygon id="Shape" fill="#283593" fill-rule="nonzero" points="29.5 42 27 42 29.5 47 32 47"></polygon>
                        <rect id="Rectangle-path" fill="#3761BA" fill-rule="nonzero" x="10" y="47" width="27" height="3" rx="1.5"></rect>
                        <path d="M35.4,47 L33,47 C33.8836556,47 34.6,47.6715729 34.6,48.5 C34.6,49.3284271 33.8836556,50 33,50 L35.4,50 C36.2836556,50 37,49.3284271 37,48.5 C37,47.6715729 36.2836556,47 35.4,47 Z" id="Shape" fill="#183165" fill-rule="nonzero"></path>
                        <circle id="Oval" fill="#F0F0F0" fill-rule="nonzero" cx="13.5" cy="8.5" r="7.5"></circle>
                        <path d="M13.2793574,1 C12.8504456,1.0028118 12.42251,1.04044166 12,1.11262483 C15.6928462,1.71820665 18.397711,4.84149491 18.397711,8.50001636 C18.397711,12.1585378 15.6928462,15.281826 12,15.8874079 C14.8632765,16.3772049 17.7640951,15.2447688 19.4935482,12.962039 C21.2230013,10.6793091 21.4843657,7.63793469 20.1687185,5.10539954 C18.8530713,2.57286439 16.1861389,0.983676997 13.2793574,1 Z" id="Shape" fill="#C6C6C6" fill-rule="nonzero"></path>
                        <circle id="Oval" fill="#F0F0F0" fill-rule="nonzero" cx="33.5" cy="14.5" r="7.5"></circle>
                        <path d="M34.2793574,7 C33.8504456,7.0028118 33.42251,7.04044166 33,7.11262483 C36.6928462,7.71820665 39.397711,10.8414949 39.397711,14.5000164 C39.397711,18.1585378 36.6928462,21.281826 33,21.8874079 C35.8632765,22.3772049 38.7640951,21.2447688 40.4935482,18.962039 C42.2230013,16.6793091 42.4843657,13.6379347 41.1687185,11.1053995 C39.8530713,8.57286439 37.1861389,6.983677 34.2793574,7 Z" id="Shape" fill="#C6C6C6" fill-rule="nonzero"></path>
                        <rect id="Rectangle-path" fill="#FF6C36" fill-rule="nonzero" x="6" y="20" width="15" height="6"></rect>
                        <path d="M20.25,20 L18,20 C18.4142135,20 18.75,20.3357865 18.75,20.75 L18.75,25.25 C18.75,25.6642135 18.4142135,26 18,26 L20.25,26 C20.6642135,26 21,25.6642135 21,25.25 L21,20.75 C21,20.3357865 20.6642135,20 20.25,20 Z" id="Shape" fill="#D24613" fill-rule="nonzero"></path>
                        <rect id="Rectangle-path" fill="#E91E63" fill-rule="nonzero" x="27" y="27" width="15" height="6" rx="3"></rect>
                        <rect id="Rectangle" fill="#FF6C36" x="27" y="26" width="15" height="7"></rect>
                        <path d="M41,27 L38,27 C38.5522847,27 39,27.3357865 39,27.75 L39,32.25 C39,32.6642135 38.5522847,33 38,33 L41,33 C41.5522847,33 42,32.6642135 42,32.25 L42,27.75 C42,27.3357865 41.5522847,27 41,27 Z" id="Shape" fill="#D24613" fill-rule="nonzero"></path>
                        <g id="Group" fill-rule="nonzero">
                            <path d="M44.4085213,42.4668228 C45.8362454,42.4206024 46.9590611,41.2138124 46.9214703,39.7659329 L46.9214703,6.09823575 C46.9590611,4.65035615 45.8362454,3.4435662 44.4085213,3.39734582 L20.1007652,3.39734582 C18.5254975,1.25919043 16.0476363,-2.57179079e-05 13.4154832,-2.57179079e-05 C10.78333,-2.57179079e-05 8.3054688,1.25919043 6.73020106,3.39734582 L2.52603732,3.39734582 C1.09831319,3.4435662 -0.024502518,4.65035615 0.0130882762,6.09823575 L0.0130882762,39.7659329 C-0.024502518,41.2138124 1.09831319,42.4206024 2.52603732,42.4668228 L16.2484144,42.4668228 L14.573115,45.8641686 L11.7401838,45.8641686 C10.3523204,45.8641686 9.22723475,47.0049513 9.22723475,48.412178 C9.22723475,49.8194047 10.3523204,50.9601874 11.7401838,50.9601874 L35.1943748,50.9601874 C36.5822382,50.9601874 37.7073239,49.8194047 37.7073239,48.412178 C37.7073239,47.0049513 36.5822382,45.8641686 35.1943748,45.8641686 L32.3614436,45.8641686 L30.6861442,42.4668228 L44.4085213,42.4668228 Z M13.4154832,1.69867291 C17.1164523,1.69867291 20.1166806,4.74075998 20.1166806,8.49336456 C20.1166806,12.2459691 17.1164523,15.2880562 13.4154832,15.2880562 C9.714514,15.2880562 6.71428571,12.2459691 6.71428571,8.49336456 C6.71844036,4.74250628 9.71623629,1.70288552 13.4154832,1.69867291 Z M1.68838764,39.7659329 L1.68838764,37.3708041 L5.03898635,37.3708041 C5.5016075,37.3708041 5.87663603,36.9905431 5.87663603,36.5214676 C5.87663603,36.0523921 5.5016075,35.6721311 5.03898635,35.6721311 L1.68838764,35.6721311 L1.68838764,6.09823575 C1.65698784,5.59032824 2.02675226,5.14791872 2.52603732,5.09601874 L5.74344974,5.09601874 C4.20463769,8.6561545 5.24577008,12.8211732 8.27122744,15.2083172 C11.2966848,17.5954611 15.5342815,17.5954611 18.5597389,15.2083172 C21.5851962,12.8211732 22.6263286,8.6561545 21.0875166,5.09601874 L44.4085213,5.09601874 C44.9078063,5.14791872 45.2775708,5.59032824 45.246171,6.09823575 L45.246171,35.6721311 L8.38958507,35.6721311 C7.92696397,35.6721311 7.55193539,36.0523921 7.55193539,36.5214676 C7.55193539,36.9905431 7.92696397,37.3708041 8.38958507,37.3708041 L45.246171,37.3708041 L45.246171,39.7659329 C45.2775708,40.2738404 44.9078063,40.7162499 44.4085213,40.7681499 L2.52603732,40.7681499 C2.02675226,40.7162499 1.65698784,40.2738404 1.68838764,39.7659329 Z M36.0320245,48.412178 C36.0320245,48.8812535 35.6569959,49.2615144 35.1943748,49.2615144 L11.7401838,49.2615144 C11.2775627,49.2615144 10.9025341,48.8812535 10.9025341,48.412178 C10.9025341,47.9431025 11.2775627,47.5628415 11.7401838,47.5628415 L35.1943748,47.5628415 C35.6569959,47.5628415 36.0320245,47.9431025 36.0320245,48.412178 Z M30.4884589,45.8641686 L16.4460997,45.8641686 L18.1213991,42.4668228 L28.8131596,42.4668228 L30.4884589,45.8641686 Z" id="Shape" fill="#183165"></path>
                            <path d="M13.4154832,9.34270101 C13.8218862,9.34310275 14.1693736,9.63923537 14.2396848,10.0450948 C14.3099959,10.4509543 14.0828433,10.8494348 13.7009041,10.9902465 C13.3189649,11.1310582 12.8924427,10.9735716 12.6892409,10.6167057 C12.4510237,10.2262809 11.9499405,10.0984661 11.557878,10.3281209 C11.1658154,10.5577757 11.024703,11.0617637 11.2392693,11.4660422 C11.5433564,11.9830594 12.0181552,12.3742157 12.5795088,12.5701795 L12.5795088,12.7400468 C12.5795088,13.2091224 12.9545373,13.5893833 13.4171585,13.5893833 C13.8797796,13.5893833 14.2548081,13.2091224 14.2548081,12.7400468 L14.2548081,12.5837689 C15.408177,12.1718634 16.1002193,10.9763665 15.8926063,9.75448685 C15.6849934,8.53260713 14.6382992,7.64084493 13.4154832,7.6440281 C13.0090801,7.64362638 12.6615927,7.34749372 12.5912815,6.94163429 C12.5209704,6.53577486 12.748123,6.13729429 13.1300622,5.9964826 C13.5120014,5.85567092 13.9385236,6.01315755 14.1417254,6.37002342 C14.3799426,6.76044819 14.8810258,6.88826308 15.2730883,6.65860826 C15.6651509,6.42895343 15.8062633,5.92496546 15.591697,5.52068696 C15.2880253,5.00398037 14.8138649,4.61286111 14.2531328,4.41654957 L14.2531328,4.24668228 C14.2531328,3.77760671 13.8781043,3.39734582 13.4154832,3.39734582 C12.9528621,3.39734582 12.5778335,3.77760671 12.5778335,4.24668228 L12.5778335,4.40296019 C11.4247689,4.81476295 10.7327478,6.00977239 10.9399039,7.23140178 C11.1470601,8.45303117 12.192986,9.34504977 13.4154832,9.34270101 L13.4154832,9.34270101 Z" id="Shape" fill="#FF6C36"></path>
                            <path d="M33.5190755,16.1373927 C33.9254785,16.1377944 34.272966,16.433927 34.3432771,16.8397864 C34.4135882,17.2456459 34.1864357,17.6441265 33.8044964,17.7849382 C33.4225572,17.9257498 32.996035,17.7682632 32.7928332,17.4113973 C32.554616,17.0209726 32.0535328,16.8931577 31.6614703,17.1228125 C31.2694078,17.3524673 31.1282953,17.8564553 31.3428616,18.2607338 C31.6469487,18.7777511 32.1217475,19.1689074 32.6831011,19.3648712 L32.6831011,19.5347385 C32.6831011,20.003814 33.0581297,20.3840749 33.5207508,20.3840749 C33.9833719,20.3840749 34.3584004,20.003814 34.3584004,19.5347385 L34.3584004,19.3784606 C35.5117693,18.9665551 36.2038116,17.7710581 35.9961986,16.5491785 C35.7885858,15.3272988 34.7418915,14.4355366 33.5190755,14.4387198 C33.1126724,14.438318 32.765185,14.1421854 32.6948738,13.736326 C32.6245627,13.3304665 32.8517153,12.9319859 33.2336545,12.7911743 C33.6155937,12.6503626 34.0421159,12.8078492 34.2453177,13.1647151 C34.4835349,13.5551398 34.9846181,13.6829547 35.3766807,13.4532999 C35.7687432,13.2236451 35.9098556,12.7196571 35.6952893,12.3153786 C35.3916176,11.798672 34.9174572,11.4075528 34.3567251,11.2112412 L34.3567251,11.0413739 C34.3567251,10.5722984 33.9816966,10.1920375 33.5190755,10.1920375 C33.0564544,10.1920375 32.6814258,10.5722984 32.6814258,11.0413739 L32.6814258,11.1976518 C31.5283612,11.6094546 30.8363401,12.804464 31.0434962,14.0260934 C31.2506524,15.2477228 32.2965783,16.1397414 33.5190755,16.1373927 L33.5190755,16.1373927 Z" id="Shape" fill="#FF6C36"></path>
                            <path d="M33.5190755,23.7814208 C38.1452869,23.7814208 41.8955723,19.9788119 41.8955723,15.2880562 C41.8955723,10.5973005 38.1452869,6.79469165 33.5190755,6.79469165 C28.892864,6.79469165 25.1425787,10.5973005 25.1425787,15.2880562 C25.1476568,19.9766775 28.8949691,23.7762717 33.5190755,23.7814208 Z M33.5190755,8.49336456 C37.2200446,8.49336456 40.2202729,11.5354516 40.2202729,15.2880562 C40.2202729,19.0406608 37.2200446,22.0827479 33.5190755,22.0827479 C29.8181063,22.0827479 26.817878,19.0406608 26.817878,15.2880562 C26.8220327,11.5371979 29.8198286,8.49757718 33.5190755,8.49336456 Z" id="Shape" fill="#183165"></path>
                            <path d="M6.71428571,27.1787666 L20.1166806,27.1787666 C21.0419229,27.1787666 21.7919799,26.4182448 21.7919799,25.4800937 L21.7919799,20.3840749 C21.7919799,19.4459238 21.0419229,18.685402 20.1166806,18.685402 L6.71428571,18.685402 C5.78904343,18.685402 5.03898635,19.4459238 5.03898635,20.3840749 L5.03898635,25.4800937 C5.03898635,26.4182448 5.78904343,27.1787666 6.71428571,27.1787666 Z M6.71428571,20.3840749 L20.1166806,20.3840749 L20.1166806,25.4800937 L6.71428571,25.4800937 L6.71428571,20.3840749 Z" id="Shape" fill="#183165"></path>
                            <path d="M27.6555277,25.4800937 C26.7302854,25.4800937 25.9802283,26.2406154 25.9802283,27.1787666 L25.9802283,32.2747853 C25.9802283,33.2129365 26.7302854,33.9734582 27.6555277,33.9734582 L41.0579226,33.9734582 C41.9831649,33.9734582 42.7332219,33.2129365 42.7332219,32.2747853 L42.7332219,27.1787666 C42.7332219,26.2406154 41.9831649,25.4800937 41.0579226,25.4800937 L27.6555277,25.4800937 Z M27.6555277,32.2747853 L27.6555277,27.1787666 L41.0579226,27.1787666 L41.0579226,32.2747853 L27.6555277,32.2747853 Z" id="Shape" fill="#183165"></path>
                            <path d="M5.87663603,30.5761124 L20.9543303,30.5761124 C21.4169514,30.5761124 21.7919799,30.1958515 21.7919799,29.726776 C21.7919799,29.2577004 21.4169514,28.8774395 20.9543303,28.8774395 L5.87663603,28.8774395 C5.41401489,28.8774395 5.03898635,29.2577004 5.03898635,29.726776 C5.03898635,30.1958515 5.41401489,30.5761124 5.87663603,30.5761124 Z" id="Shape" fill="#183165"></path>
                            <path d="M15.9284322,33.1241218 C15.9284322,32.6550463 15.5534036,32.2747853 15.0907825,32.2747853 L5.87663603,32.2747853 C5.41401489,32.2747853 5.03898635,32.6550463 5.03898635,33.1241218 C5.03898635,33.5931973 5.41401489,33.9734582 5.87663603,33.9734582 L15.0907825,33.9734582 C15.5534036,33.9734582 15.9284322,33.5931973 15.9284322,33.1241218 Z" id="Shape" fill="#183165"></path>
                        </g>
                    </g>
                </g>
            </g>
        </g>
    </g>
</svg>