<?xml version="1.0" encoding="UTF-8"?>
<svg width="80px" height="77px" viewBox="0 0 80 77" version="1.1" xmlns="http://www.w3.org/2000/svg" xmlns:xlink="http://www.w3.org/1999/xlink">
    <!-- Generator: Sketch 56.3 (81716) - https://sketch.com -->
    <title>Mobile &amp; Display Ads</title>
    <desc>Created with Sketch.</desc>
    <defs>
        <linearGradient x1="-3.04574141%" y1="112.484128%" x2="104.87563%" y2="-12.6612369%" id="linearGradient-1">
            <stop stop-color="#1C7CFB" stop-opacity="0.267318619" offset="0%"></stop>
            <stop stop-color="#1C7CFB" stop-opacity="0" offset="100%"></stop>
        </linearGradient>
    </defs>
    <g id="Page-1" stroke="none" stroke-width="1" fill="none" fill-rule="evenodd">
        <g id="Hey-Digital_Home" transform="translate(-1080.000000, -1103.000000)">
            <g id="Group-7-Copy-2" transform="translate(940.000000, 1059.000000)">
                <g id="Mobile-&amp;-Display-Ads" transform="translate(136.000000, 41.000000)">
                    <g id="Group-10" transform="translate(4.000000, 3.000000)" fill-rule="nonzero">
                        <path d="M80,40.21625 C80,35.8989062 78.04625,31.8514062 74.6332813,28.3667187 C72.2584375,25.9420312 70.2810938,23.164375 68.771875,20.124375 C63.9454688,10.4029687 55.7165625,4 46.375625,4 C39.7376563,4 33.6617187,7.2340625 28.9689063,12.5942187 C25.8626563,16.1421875 21.940625,18.86375 17.5646875,20.6209375 C6.96484375,24.8775 0,32.0651562 0,40.21625 C0,48.3673437 6.96484375,55.555 17.5646875,59.8115625 C21.940625,61.56875 25.8626563,64.2903125 28.9690625,67.8382812 C33.661875,73.1984375 39.7378125,76.4325 46.3757813,76.4325 C55.7167187,76.4325 63.945625,70.0295312 68.7720312,60.308125 C70.28125,57.268125 72.2585938,54.4904687 74.6334375,52.0657812 C78.04625,48.5810937 80,44.5335937 80,40.21625 Z" id="Path" fill="url(#linearGradient-1)"></path>
                        <path d="M8.40171875,46.1915625 C8.20171875,46.1915625 8.001875,46.1153125 7.84921875,45.9628125 L6.83921875,44.9528125 L5.82921875,45.9628125 C5.5240625,46.2678125 5.02953125,46.2678125 4.724375,45.9628125 C4.41921875,45.6576563 4.41921875,45.1629688 4.724375,44.8579688 L6.286875,43.2954688 C6.59203125,42.9904688 7.0865625,42.9904688 7.39171875,43.2954688 L8.95421875,44.8579688 C9.259375,45.163125 9.259375,45.6578125 8.95421875,45.9628125 C8.8015625,46.1151563 8.6015625,46.1915625 8.40171875,46.1915625 Z" id="Path" fill="#6C6CFF"></path>
                        <path d="M74.3515625,61.6704687 C74.1515625,61.6704687 73.9517188,61.5942187 73.7990625,61.4417187 L72.7890625,60.4317187 L71.7790625,61.4417187 C71.4739063,61.7467187 70.979375,61.7467187 70.6742188,61.4417187 C70.3690625,61.1365625 70.3690625,60.641875 70.6742188,60.336875 L72.2367188,58.774375 C72.541875,58.469375 73.0364063,58.469375 73.3415625,58.774375 L74.9040625,60.336875 C75.2092188,60.6420312 75.2092188,61.1367187 74.9040625,61.4417187 C74.7514063,61.5940625 74.5515625,61.6704687 74.3515625,61.6704687 Z" id="Path" fill="#6C6CFF"></path>
                        <path d="M14.6484375,71.8829688 C14.4484375,71.8829688 14.2485937,71.8067188 14.0959375,71.6542188 C13.7907812,71.3490625 13.7907812,70.854375 14.0959375,70.549375 L15.6584375,68.986875 C15.9635937,68.681875 16.458125,68.681875 16.7632812,68.986875 C17.0684375,69.2920313 17.0684375,69.7867188 16.7632812,70.0917188 L15.2007812,71.6542188 C15.0482812,71.8065625 14.8484375,71.8829688 14.6484375,71.8829688 L14.6484375,71.8829688 Z" id="Path" fill="#FF9D33"></path>
                        <path d="M72.6953125,35.7370313 C72.4953125,35.7370313 72.2954687,35.6607813 72.1428125,35.5082813 C71.8376562,35.203125 71.8376562,34.7084375 72.1428125,34.4034375 L73.7053125,32.8409375 C74.0104687,32.5359375 74.505,32.5359375 74.8101562,32.8409375 C75.1153125,33.1460938 75.1153125,33.6407813 74.8101562,33.9457813 L73.2476562,35.5082813 C73.0951562,35.6607813 72.8953125,35.7370313 72.6953125,35.7370313 Z" id="Path" fill="#FF6C6C"></path>
                        <path d="M6.484375,23.7196875 C6.284375,23.7196875 6.08453125,23.6434375 5.931875,23.4909375 C5.62671875,23.1857813 5.62671875,22.6910938 5.931875,22.3860938 L7.494375,20.8235938 C7.79953125,20.5185938 8.2940625,20.5185938 8.59921875,20.8235938 C8.904375,21.12875 8.904375,21.6234375 8.59921875,21.9284375 L7.03671875,23.4909375 C6.88421875,23.6434375 6.684375,23.7196875 6.484375,23.7196875 Z" id="Path" fill="#FF6C6C"></path>
                        <path d="M46.484375,3.7196875 C46.284375,3.7196875 46.0845312,3.6434375 45.931875,3.4909375 C45.6267187,3.18578125 45.6267187,2.69109375 45.931875,2.38609375 L47.494375,0.82359375 C47.7995312,0.51859375 48.2940625,0.51859375 48.5992187,0.82359375 C48.904375,1.12875 48.904375,1.6234375 48.5992187,1.9284375 L47.0367187,3.4909375 C46.8842187,3.6434375 46.684375,3.7196875 46.484375,3.7196875 Z" id="Path-Copy-2" fill="#FF6C6C" transform="translate(47.265547, 2.157266) scale(-1, 1) translate(-47.265547, -2.157266) "></path>
                    </g>
                    <g id="website" transform="translate(19.000000, 21.000000)" fill-rule="nonzero">
                        <path d="M43.103418,0.0807617187 L6.89658203,0.0807617187 L2.58710938,0.0807617187 C1.15859375,0.0807617187 0,1.23945312 0,2.66787109 L0,32.8394531 L6.89658203,32.8394531 L19.8276367,32.8394531 L30.1724609,32.8394531 L43.1035156,32.8394531 L50,32.8394531 L50,2.66787109 C50,1.23945312 48.8414063,0.0807617187 47.4128906,0.0807617187 L43.103418,0.0807617187 L43.103418,0.0807617187 Z" id="Path" fill="#183165"></path>
                        <rect id="Rectangle" fill="#FFFFFF" x="3.44824219" y="3.52910156" width="43.103418" height="27.5862305"></rect>
                        <polygon id="Path" fill="#EAEFFF" points="11.2069336 6.97734375 11.2069336 23.3566406 31.7301758 23.3566406 35.3448242 19.7342773 35.3448242 6.97734375"></polygon>
                        <path d="M47.4128906,38.0118164 L2.58710938,38.0118164 C1.15859375,38.0118164 0,36.8532227 0,35.4248047 L0,31.115332 L50,31.115332 L50,35.4248047 C50,36.8532227 48.8414063,38.0118164 47.4128906,38.0118164 Z" id="Path" fill="#3761BA"></path>
                        <path d="M27.5862305,35.4256836 L22.4137695,35.4256836 C21.9378906,35.4256836 21.5516602,35.0394531 21.5516602,34.5635742 C21.5516602,34.0876953 21.9378906,33.7014648 22.4137695,33.7014648 L27.5862305,33.7014648 C28.0621094,33.7014648 28.4483398,34.0876953 28.4483398,34.5635742 C28.4483398,35.0394531 28.0621094,35.4256836 27.5862305,35.4256836 Z" id="Path" fill="#F0F0F0"></path>
                        <path d="M36.2069336,48.3566406 L13.7930664,48.3566406 C12.8405273,48.3566406 12.0689453,47.5850586 12.0689453,46.6325195 L12.0689453,46.6325195 C12.0689453,45.6799805 12.8405273,44.9083984 13.7930664,44.9083984 L36.2068359,44.9083984 C37.159375,44.9083984 37.930957,45.6799805 37.930957,46.6325195 L37.930957,46.6325195 C37.930957,47.5851563 37.1594727,48.3566406 36.2069336,48.3566406 Z" id="Path" fill="#3761BA"></path>
                        <path d="M29.3103516,38.0118164 L20.6896484,38.0118164 C20.6896484,41.8239258 19.3292969,44.9083984 15.5171875,44.9083984 L34.4827148,44.9083984 C30.6707031,44.9083984 29.3103516,41.8239258 29.3103516,38.0118164 Z" id="Path" fill="#28388B"></path>
                        <path d="M39.721582,25.2291016 L37.1121094,22.6196289 C37.0672852,22.5748047 37.0672852,22.5023437 37.1121094,22.4575195 L38.7983398,20.7704102 L30.1776367,18.1841797 L32.7638672,26.8048828 L34.4069336,25.1618164 C34.5094727,25.0592773 34.6758789,25.0592773 34.7793945,25.1618164 L37.2836914,27.6669922 L39.721582,25.2291016 Z" id="Path" fill="#3761BA"></path>
                        <rect id="Rectangle" fill="#3761BA" x="11.2069336" y="6.97734375" width="24.1378906" height="4.31035156"></rect>
                        <rect id="Rectangle" fill="#FF6C36" x="14.6551758" y="16.4601563" width="6.89658203" height="3.44824219"></rect>
                    </g>
                    <g id="Group-31" transform="translate(58.000000, 44.000000)">
                        <rect id="Rectangle" fill="#FFFFFF" x="0" y="0" width="15" height="25" rx="3"></rect>
                        <rect id="Rectangle" fill="#FF6C36" fill-rule="nonzero" x="2" y="8" width="11" height="3.44824219"></rect>
                        <path d="M10,12.4763123 L9.45316689,11.9294792 C9.44377366,11.920086 9.44377366,11.9049013 9.45316689,11.895508 L9.80652819,11.5419625 L8,11 L8.54196255,12.8065282 L8.88627852,12.4622122 C8.90776629,12.4407244 8.94263788,12.4407244 8.9643303,12.4622122 L9.48912309,12.9871892 L10,12.4763123 Z" id="Path" fill="#3761BA" fill-rule="nonzero"></path>
                        <path d="M12.2102779,-0.249999874 L12.2105291,-0.25 C13.8836383,-0.25 15.25,1.13353775 15.25,2.81480544 L15.2389775,22.4535482 C15.2389775,24.1325636 13.8689637,25.5327787 12.206999,25.5327634 L2.82017636,25.6367048 L2.8071856,25.6367048 C1.15919514,25.6367048 -0.25,24.1139855 -0.25,22.4153632 L-0.25,2.79104556 C-0.25,1.12337447 1.13124889,-0.240552173 2.80693441,-0.240552047 L12.2102779,-0.249999874 Z M6.68394394,1.62347785 C6.38717669,1.62347785 6.14662503,1.86411261 6.14662503,2.16079677 C6.14662503,2.45732562 6.38741509,2.69811568 6.68394394,2.69811568 L8.34558052,2.69811568 C8.64210937,2.69811568 8.88289943,2.45732562 8.88289943,2.16079677 C8.88289943,1.86426791 8.64210937,1.62347785 8.34558052,1.62347785 L6.68394394,1.62347785 Z M3.99062356,1.64505146 C3.89139635,1.74427263 3.83256703,1.88556959 3.83230107,2.02655889 C3.83230107,2.16370731 3.8916762,2.30518139 3.99133685,2.40484203 C4.09111329,2.50461847 4.23223829,2.56387781 4.36961999,2.56387781 C4.51010531,2.56387781 4.65203109,2.50465067 4.75183972,2.40484203 C4.84939163,2.30729013 4.9069389,2.16669994 4.9069389,2.02655889 C4.9069389,1.88389173 4.85027997,1.7454718 4.7530301,1.64552157 C4.55529699,1.45042491 4.18862806,1.45026822 3.9906236,1.6450515 Z M3.9906236,1.6450515 C3.99046445,1.64520806 3.99030541,1.64536475 3.99014647,1.64552157 L3.99109747,1.6445782 C3.9909394,1.64473585 3.99078143,1.6448936 3.99062356,1.64505146 Z M7.5145654,24.1702708 C8.02810129,24.1702708 8.44633109,23.7522334 8.44633109,23.2388988 C8.44633109,22.7255642 8.02810129,22.3075268 7.5145654,22.3075268 C7.00117829,22.3075268 6.58279971,22.7258092 6.58279971,23.2388988 C6.58279971,23.7519885 7.00117829,24.1702708 7.5145654,24.1702708 Z M13.1344216,21.0564508 L13.1344216,4.52275352 C13.1344216,4.44335001 13.07021,4.37909406 12.9907621,4.37909406 L1.96829729,4.37909406 C1.88884941,4.37909406 1.82463783,4.44335001 1.82463783,4.52275352 L1.82463783,21.0564508 C1.82463783,21.1358543 1.88884941,21.2001102 1.96829729,21.2001102 L12.9907621,21.2001102 C13.07021,21.2001102 13.1344216,21.1358543 13.1344216,21.0564508 Z" id="Shape" stroke="#FFFFFF" stroke-width="0.5" fill="#183165" fill-rule="nonzero"></path>
                    </g>
                </g>
            </g>
        </g>
    </g>
</svg>