<svg xmlns="http://www.w3.org/2000/svg" width="22" height="22" viewBox="0 0 22 22">
    <g fill="#4A4A4A">
        <path d="M21.018 16.194l-3.072-2.067c-.368-.247-.805-.377-1.262-.377-.761 0-1.497.353-2.017.953 2.536 1.995 4.935 3.547 7.03 4.547.036-.077.075-.152.108-.232.44-1.055.116-2.215-.787-2.824zM7.883 4.035L5.834.97C5.251.097 4.058-.244 3.036.184c-.098.041-.192.09-.286.136 1.046 2.115 2.581 4.5 4.52 7.013 1.002-.85 1.288-2.282.613-3.298z"/>
        <path d="M13.318 15.727c-1.231-.783-2.59-1.9-3.873-3.185-1.283-1.285-2.398-2.647-3.18-3.88l.571-.416C4.828 5.63 3.232 3.14 2.126.916l-.192.143c-.118.093-.227.194-.331.3-.58.578-1.009 1.296-1.278 2.13-1.167 3.632.872 8.899 5.073 13.108C8.775 19.98 12.852 22 16.305 22c.782 0 1.514-.108 2.175-.321.833-.27 1.549-.7 2.126-1.279.106-.105.207-.215.312-.348l.165-.226c-2.197-1.054-4.694-2.662-7.321-4.71l-.444.611z"/>
    </g>
</svg>
