<?xml version="1.0" encoding="UTF-8"?>
<svg width="256px" height="232px" viewBox="0 0 256 232" version="1.1" xmlns="http://www.w3.org/2000/svg" xmlns:xlink="http://www.w3.org/1999/xlink">
    <!-- Generator: Sketch 56.3 (81716) - https://sketch.com -->
    <title>No Long-Term Contracts</title>
    <desc>Created with Sketch.</desc>
    <g id="Page-1" stroke="none" stroke-width="1" fill="none" fill-rule="evenodd">
        <g id="Hey-Digital_Version_02" transform="translate(-332.000000, -2659.000000)">
            <g id="Group-32" transform="translate(332.000000, 2659.000000)">
                <g id="No-Long-Term-Contracts">
                    <g id="Group-13" fill="#E7EFFF">
                        <path d="M91.414346,232 C148.479534,232 250,197.878602 250,140.343374 C250,82.808146 196.683076,0 139.617888,0 C116.220065,0 80.3266367,61.5619165 63.0056884,74.7801428 C38.0824001,93.799983 0,77.2979753 0,111.242655 C0,168.777883 34.3491579,232 91.414346,232 Z" id="Oval"></path>
                    </g>
                    <g id="Group-392" transform="translate(8.000000, 37.000000)">
                        <g id="Group-123" transform="translate(0.917178, 0.235046)">
                            <path d="M94.7378834,126.085238 C92.5285276,118.454486 86.2087423,112.586388 78.0576687,112.389302 C73.3180215,112.274655 68.7202454,114.308397 64.6849693,116.625498 C59.2359663,119.754333 52.8118865,123.532324 46.2927147,122.582554 C42.1167178,121.974041 37.168865,119.630483 36.1891871,114.789225 C35.1519939,109.665376 39.2919479,106.151189 43.7171779,104.090222 C47.5089724,102.324118 52.8283742,98.101342 54.532362,94.0587807 C61.2888804,78.027339 42.3958589,59.7297929 47.7275307,41.458704 C53.3076687,22.3375383 79.1458589,19.1047929 92.1347393,32.0879218 C93.3797546,33.3329371 94.5442485,34.661158 95.6032975,36.0675997 C98.2539877,39.5875383 99.8134202,44.38125 103.497853,47.0231212 C108.269709,50.4418328 114.45069,49.3475077 119.589494,47.3172163 C129.410046,43.4368482 132.007055,40.8766488 141.608666,36.6975844 C148.515107,33.6918328 157.021626,31.0100844 164.780828,33.6814801 C170.341028,35.5952071 176.482132,39.0365414 179.591794,44.0185199 C185.374387,53.2830905 182.777761,63.2635353 191.919248,76.4383819 C196.06112,82.4073236 202.644325,84.0806365 207.88934,88.3935199 C221.487117,99.5752684 216.940721,123.147354 202.110966,131.213689 C189.933819,137.837155 174.940721,136.324118 161.735583,134.626649 C160.723313,134.496664 159.712193,134.357094 158.702224,134.209087" id="Stroke-1" stroke="#90B3FB" stroke-linejoin="round" stroke-dasharray="3.5,3.5"></path>
                            <path d="M170.436465,31.3762653 C166.521971,29.3087807 165.024655,24.4594709 167.091756,20.544977 C169.159241,16.6304831 174.008551,15.1331672 177.923044,17.2006518 C181.837538,19.2681365 183.335238,24.1174463 181.26737,28.0315567 C179.199885,31.946434 174.350959,33.44375 170.436465,31.3762653 L170.436465,31.3762653 Z M168.911541,34.2631518 C163.402722,31.3536426 161.29536,24.5292561 164.20487,19.0200537 C167.114379,13.5112347 173.939149,11.4042561 179.447968,14.3133819 C184.956787,17.2228911 187.064149,24.047661 184.15464,29.5564801 C181.24513,35.0656825 174.420744,37.172661 168.911541,34.2631518 L168.911541,34.2631518 Z M191.142753,39.187615 C192.285775,37.8843175 193.299962,36.4326304 194.145054,34.8329371 C194.989762,33.2328604 195.617063,31.5768021 196.049195,29.8981212 L191.516219,28.2911426 C191.878566,26.7251917 192.01852,25.137385 191.953719,23.56875 L196.711388,22.8287193 C196.479026,19.2896089 195.415376,15.8448236 193.611695,12.7903758 L189.265069,14.8616948 C188.434164,13.5296396 187.423811,12.2972776 186.241296,11.2083206 L189.078719,7.3252684 C187.775805,6.18224693 186.324118,5.16805982 184.724041,4.32335123 C183.124348,3.4782592 181.46829,2.85134202 179.789609,2.41921012 L178.182247,6.95218558 C176.616296,6.58945552 175.029256,6.44950153 173.460238,6.51468558 L172.719824,1.75663344 C169.181097,1.98937883 165.735928,3.05302914 162.681863,4.85594325 L164.753183,9.20295245 C163.420744,10.0338574 162.188382,11.0445936 161.099425,12.2271089 L157.216373,9.38930215 C156.073735,10.6925997 155.059548,12.1442868 154.214456,13.7439801 C153.369747,15.3436733 152.742446,17.000115 152.310698,18.678796 L156.843673,20.2857745 C156.480943,21.8517255 156.340606,23.4391488 156.40579,25.0081672 L151.647738,25.7481979 C151.880483,29.2873083 152.944517,32.7320936 154.747431,35.786158 L159.09444,33.7152224 C159.925345,35.0472776 160.936081,36.2796396 162.118597,37.3685966 L159.280406,41.2516488 C160.584087,42.3942868 162.035775,43.4084739 163.635468,44.253566 C165.235544,45.098658 166.891219,45.7255752 168.570284,46.1577071 L170.176879,41.6247316 C171.743213,41.9874617 173.330637,42.1274156 174.899655,42.0622316 L175.639302,46.8202837 C179.178796,46.5875383 182.623581,45.523888 185.677646,43.7205905 L183.606327,39.3735813 C184.938765,38.5430598 186.170744,37.5323236 187.259701,36.3498083 L191.142753,39.187615 Z" id="Fill-3" fill="#E4E9F9"></path>
                            <path d="M74.9119632,46.563727 C72.3724693,45.5315184 71.151227,42.6361963 72.1834356,40.0967025 C73.2160276,37.557592 76.1113497,36.3359663 78.6504601,37.3685583 C81.189954,38.4007669 82.4115798,41.296089 81.3789877,43.8355828 C80.3463957,46.3746933 77.4514571,47.596319 74.9119632,46.563727 L74.9119632,46.563727 Z M74.1504601,48.4364264 C70.5768405,46.983589 68.8578988,42.908819 70.3107362,39.3351994 C71.7635736,35.7619632 75.8383436,34.042638 79.4119632,35.4954755 C82.9855828,36.9486963 84.704908,41.0230828 83.2516871,44.5967025 C81.7988497,48.1703221 77.7240798,49.8896472 74.1504601,48.4364264 L74.1504601,48.4364264 Z M88.151227,50.0997699 C88.7750767,49.2263037 89.3103528,48.2692485 89.7321319,47.2316718 C90.153911,46.1937117 90.4384202,45.1346626 90.6009969,44.0736963 L87.7091258,43.3631902 C87.8360429,42.376227 87.8245399,41.3892638 87.6876534,40.4268405 L90.5733896,39.6776074 C90.2118098,37.5111963 89.3440951,35.4544479 88.0446319,33.6841258 L85.4944018,35.2282209 C84.9004601,34.4582822 84.2018405,33.7615798 83.4058282,33.1634202 L84.9146472,30.596319 C84.0415644,29.9724693 83.0845092,29.4368098 82.0465491,29.0150307 C81.0089724,28.5932515 79.9499233,28.3091258 78.8893405,28.1461656 L78.1784509,31.0384202 C77.1911043,30.9115031 76.2045245,30.9230061 75.2421012,31.0595092 L74.4924847,28.1741564 C72.3264571,28.5353528 70.2697086,29.4034509 68.4990031,30.7025307 L70.0430982,33.2531442 C69.2735429,33.8470859 68.5768405,34.5457055 67.978681,35.3413344 L65.4115798,33.8325153 C64.7877301,34.7059816 64.2520706,35.6626534 63.8302914,36.7006135 C63.4085123,37.7381902 63.1240031,38.7972393 62.9614264,39.8582055 L65.8532975,40.5690951 C65.7263804,41.5560583 65.7382669,42.5430215 65.8747699,43.5054448 L62.9890337,44.2550613 C63.3506135,46.4207055 64.2183282,48.4778374 65.5177914,50.2481595 L68.0680215,48.7040644 C68.6623466,49.4736196 69.3609663,50.1707055 70.1565951,50.7684816 L68.6477761,53.3359663 C69.5208589,53.959816 70.4779141,54.495092 71.5158742,54.9172546 C72.5534509,55.3390337 73.6125,55.6231595 74.6734663,55.7861196 L75.3839724,52.893865 C76.371319,53.0207822 77.3578988,53.0092791 78.3207055,52.8723926 L79.0699387,55.7581288 C81.2359663,55.3969325 83.2927147,54.5288344 85.0634202,53.2297546 L83.5193252,50.6791411 C84.2888804,50.0851994 84.9855828,49.3865798 85.5837423,48.5909509 L88.151227,50.0997699 Z" id="Fill-5" fill="#E4E9F9"></path>
                            <path d="M90.6337423,20.1603911 C88.9144172,19.2524156 88.2568252,17.122431 89.1648006,15.4031058 C90.0727761,13.6837807 92.2027607,13.0261887 93.9220859,13.9341641 C95.641411,14.8421396 96.2990031,16.9721242 95.3910276,18.6914494 C94.4830521,20.4107745 92.3530675,21.0683666 90.6337423,20.1603911 L90.6337423,20.1603911 Z M99.6310583,23.5058666 C100.126457,22.9406825 100.565874,22.3114647 100.932055,21.6178298 C101.298236,20.9245782 101.570092,20.2067868 101.757592,19.4790261 L99.7928681,18.7823236 C99.9496933,18.1036426 100.01066,17.4153758 99.9822853,16.735161 L102.044785,16.4142255 C101.943942,14.8800997 101.482669,13.3870015 100.701227,12.0633819 L98.8170245,12.9610046 C98.4569785,12.3835506 98.0187117,11.8494248 97.5060583,11.3774156 L98.7361196,9.69413344 C98.171319,9.19873466 97.5421012,8.75931748 96.8488497,8.3931365 C96.1552147,8.02657209 95.4374233,7.75471626 94.7096626,7.56759969 L94.0129601,9.53270706 C93.3338957,9.37549847 92.6460123,9.31453221 91.966181,9.34290644 L91.6452454,7.28040644 C90.1111196,7.38125 88.617638,7.84252301 87.2940184,8.62396472 L88.1916411,10.5081672 C87.6141871,10.8682132 87.0800613,11.3064801 86.6080521,11.8191334 L84.9247699,10.5890721 C84.4293712,11.1538727 83.989954,11.7830905 83.623773,12.476342 C83.2572086,13.169977 82.9857362,13.8881518 82.7982362,14.6155291 L84.7629601,15.3122316 C84.606135,15.9909126 84.5451687,16.6791794 84.5735429,17.3593942 L82.5110429,17.6799463 C82.6118865,19.2140721 83.0727761,20.7075537 83.8546012,22.0311733 L85.7388037,21.1335506 C86.0988497,21.7110046 86.5371166,22.2451304 87.0497699,22.7171396 L85.8197086,24.4004218 C86.3845092,24.8958206 87.013727,25.3352377 87.707362,25.7014187 C88.4006135,26.0679831 89.1184049,26.339839 89.8461656,26.5269555 L90.5428681,24.5618482 C91.2219325,24.7194402 91.909816,24.780023 92.5900307,24.7516488 L92.9105828,26.8141488 C94.4447086,26.7133052 95.9378067,26.2524156 97.2621933,25.4705905 L96.3641871,23.586388 C96.9416411,23.226342 97.4757669,22.7880752 97.9477761,22.2754218 L99.6310583,23.5058666 Z" id="Fill-7" fill="#E4E9F9"></path>
                            <path d="M53.2983896,54.0869632 C53.2857362,53.8312117 53.2642638,53.5593558 53.2324387,53.2687117 C52.9694018,50.8879601 51.3382669,51.1065184 50.3233129,51.1789877 C49.3079755,51.2510736 48.046089,51.2894172 47.5606595,50.1820552 C47.3493865,49.7000767 47.358589,49.1184049 47.2197853,48.5976994 C46.9122699,47.4431748 45.8854294,46.7514571 44.9046012,46.748773 C43.923773,46.7464724 42.9958589,47.3089724 42.1921779,48.0060583 C41.7746166,48.3680215 41.3041411,48.7921012 40.8068252,48.6555982 C40.4881902,48.5681748 40.2393405,48.2625767 40.0411043,47.9412577 C38.8785276,46.0539877 38.8861963,43.3101227 37.6131902,41.5351994 C36.2078988,39.5758436 33.5832822,39.5359663 31.8064417,40.9581288 C30.0296012,42.3802914 29.0092791,44.9144172 28.5437883,47.4715491 C28.3927147,48.3028374 28.2619632,49.2142638 27.7489264,49.7817485 C27.0157975,50.5923313 25.8934816,50.3243098 24.9153374,50.2142638 C23.7799847,50.0869632 22.5687117,50.2721626 21.647316,51.1042178 C20.8957822,51.7825153 20.4069018,52.9700153 20.4996933,54.0869632 L53.2983896,54.0869632 Z" id="Fill-9" fill="#FFFFFF"></path>
                            <path d="M53.2983896,54.0869632 C53.2857362,53.8312117 53.2642638,53.5593558 53.2324387,53.2687117 C52.9694018,50.8879601 51.3382669,51.1065184 50.3233129,51.1789877 C49.3079755,51.2510736 48.046089,51.2894172 47.5606595,50.1820552 C47.3493865,49.7000767 47.358589,49.1184049 47.2197853,48.5976994 C46.9122699,47.4431748 45.8854294,46.7514571 44.9046012,46.748773 C43.923773,46.7464724 42.9958589,47.3089724 42.1921779,48.0060583 C41.7746166,48.3680215 41.3041411,48.7921012 40.8068252,48.6555982 C40.4881902,48.5681748 40.2393405,48.2625767 40.0411043,47.9412577 C38.8785276,46.0539877 38.8861963,43.3101227 37.6131902,41.5351994 C36.2078988,39.5758436 33.5832822,39.5359663 31.8064417,40.9581288 C30.0296012,42.3802914 29.0092791,44.9144172 28.5437883,47.4715491 C28.3927147,48.3028374 28.2619632,49.2142638 27.7489264,49.7817485 C27.0157975,50.5923313 25.8934816,50.3243098 24.9153374,50.2142638 C23.7799847,50.0869632 22.5687117,50.2721626 21.647316,51.1042178 C20.8957822,51.7825153 20.4069018,52.9700153 20.4996933,54.0869632 L53.2983896,54.0869632 Z" id="Stroke-11" stroke="#90B3FB" stroke-linejoin="round"></path>
                            <path d="M118.976917,12.8464724 L151.252991,12.8464724 C151.252991,12.8464724 149.958896,11.3418712 148.495322,10.8288344 C146.652531,10.1831288 145.886043,11.9963957 144.723466,9.65168712 C144.071242,8.33611963 143.61342,6.6041411 141.896779,6.15437117 C139.211963,5.45115031 138.529448,7.67009202 137.250307,7.07039877 C136.127224,6.54394172 136.162117,4.43773006 135.028681,2.67699387 C133.920936,0.955751534 131.220399,-0.10291411 129.378374,0.794708589 C126.01296,2.43466258 126.450077,5.04355828 125.348083,5.90360429 C124.260276,6.75214724 121.764877,3.76403374 118.976917,6.9952454 C117.054755,9.22300613 118.976917,12.8464724 118.976917,12.8464724" id="Fill-13" fill="#FFFFFF"></path>
                            <path d="M118.976917,12.8464724 L151.252991,12.8464724 C151.252991,12.8464724 149.958896,11.3418712 148.495322,10.8288344 C146.652531,10.1831288 145.886043,11.9963957 144.723466,9.65168712 C144.071242,8.33611963 143.61342,6.6041411 141.896779,6.15437117 C139.211963,5.45115031 138.529448,7.67009202 137.250307,7.07039877 C136.127224,6.54394172 136.162117,4.43773006 135.028681,2.67699387 C133.920936,0.955751534 131.220399,-0.10291411 129.378374,0.794708589 C126.01296,2.43466258 126.450077,5.04355828 125.348083,5.90360429 C124.260276,6.75214724 121.764877,3.76403374 118.976917,6.9952454 C117.054755,9.22300613 118.976917,12.8464724 118.976917,12.8464724 Z" id="Stroke-15" stroke="#90B3FB" stroke-linejoin="round"></path>
                            <path d="M152.669632,1.75663344 C152.669632,2.53922546 152.035429,3.17342791 151.253221,3.17342791 C150.470629,3.17342791 149.836043,2.53922546 149.836043,1.75663344 C149.836043,0.974041411 150.470629,0.339838957 151.253221,0.339838957 C152.035429,0.339838957 152.669632,0.974041411 152.669632,1.75663344 Z" id="Stroke-17" stroke="#90B3FB" stroke-linejoin="round"></path>
                            <path d="M246.008857,115.902492 C246.008857,116.684701 245.374655,117.318903 244.592446,117.318903 C243.809854,117.318903 243.175268,116.684701 243.175268,115.902492 C243.175268,115.1199 243.809854,114.485698 244.592446,114.485698 C245.374655,114.485698 246.008857,115.1199 246.008857,115.902492 Z" id="Stroke-19" stroke="#90B3FB" stroke-linejoin="round"></path>
                            <path d="M178.363535,57.2154908 C178.363535,57.9980828 177.729333,58.6319018 176.947124,58.6319018 C176.164916,58.6319018 175.53033,57.9980828 175.53033,57.2154908 C175.53033,56.4328988 176.164916,55.7986963 176.947124,55.7986963 C177.729333,55.7986963 178.363535,56.4328988 178.363535,57.2154908 Z" id="Stroke-21" stroke="#90B3FB" stroke-linejoin="round"></path>
                            <path d="M3.18853528,74.0110046 C3.18853528,74.7935966 2.55433282,75.4277991 1.77212423,75.4277991 C0.989532209,75.4277991 0.355329755,74.7935966 0.355329755,74.0110046 C0.355329755,73.2284126 0.989532209,72.5942101 1.77212423,72.5942101 C2.55433282,72.5942101 3.18853528,73.2284126 3.18853528,74.0110046 Z" id="Stroke-23" stroke="#ADBBF9" stroke-linejoin="round"></path>
                            <path d="M60.9680598,20.9151074 C60.9680598,21.6976994 60.3338574,22.3315184 59.5512653,22.3315184 C58.7690567,22.3315184 58.1344709,21.6976994 58.1344709,20.9151074 C58.1344709,20.1325153 58.7690567,19.4983129 59.5512653,19.4983129 C60.3338574,19.4983129 60.9680598,20.1325153 60.9680598,20.9151074 Z" id="Stroke-25" stroke="#90B3FB" stroke-linejoin="round"></path>
                            <path d="M77.7442868,14.4734663 C77.7442868,15.0052914 77.3129218,15.436273 76.7810966,15.436273 C76.2492715,15.436273 75.8182899,15.0052914 75.8182899,14.4734663 C75.8182899,13.9416411 76.2492715,13.5102761 76.7810966,13.5102761 C77.3129218,13.5102761 77.7442868,13.9416411 77.7442868,14.4734663 Z" id="Stroke-27" stroke="#90B3FB" stroke-linejoin="round"></path>
                            <path d="M234.548466,82.628566 C234.548466,83.1603911 234.117485,83.5917561 233.585276,83.5917561 C233.053834,83.5917561 232.622853,83.1603911 232.622853,82.628566 C232.622853,82.0967408 233.053834,81.6653758 233.585276,81.6653758 C234.117485,81.6653758 234.548466,82.0967408 234.548466,82.628566 Z" id="Stroke-29" stroke="#90B3FB" stroke-linejoin="round"></path>
                            <path d="M165.562653,50.7615031 C165.562653,51.2933282 165.131672,51.7246933 164.599463,51.7246933 C164.068021,51.7246933 163.636656,51.2933282 163.636656,50.7615031 C163.636656,50.2296779 164.068021,49.7983129 164.599463,49.7983129 C165.131672,49.7983129 165.562653,50.2296779 165.562653,50.7615031 Z" id="Stroke-31" stroke="#90B3FB" stroke-linejoin="round"></path>
                            <path d="M203.431748,26.5365031 C203.431748,27.0683282 203.000767,27.4993098 202.468942,27.4993098 C201.937117,27.4993098 201.506135,27.0683282 201.506135,26.5365031 C201.506135,26.0046779 201.937117,25.5733129 202.468942,25.5733129 C203.000767,25.5733129 203.431748,26.0046779 203.431748,26.5365031 Z" id="Stroke-33" stroke="#90B3FB" stroke-linejoin="round"></path>
                            <path d="M201.382017,97.0673313 C201.382017,97.5995399 200.951035,98.0305215 200.418827,98.0305215 C199.887385,98.0305215 199.45602,97.5995399 199.45602,97.0673313 C199.45602,96.5355061 199.887385,96.1041411 200.418827,96.1041411 C200.951035,96.1041411 201.382017,96.5355061 201.382017,97.0673313 Z" id="Stroke-35" stroke="#90B3FB" stroke-linejoin="round"></path>
                            <path d="M51.9520706,106.285123 C51.9520706,106.817331 51.5207055,107.248313 50.9888804,107.248313 C50.4570552,107.248313 50.0260736,106.817331 50.0260736,106.285123 C50.0260736,105.753298 50.4570552,105.321933 50.9888804,105.321933 C51.5207055,105.321933 51.9520706,105.753298 51.9520706,106.285123 Z" id="Stroke-37" stroke="#90B3FB" stroke-linejoin="round"></path>
                            <path d="M54.8411426,62.3004985 C54.8411426,62.8323236 54.4097776,63.2636887 53.8779525,63.2636887 C53.3461273,63.2636887 52.9151457,62.8323236 52.9151457,62.3004985 C52.9151457,61.7686733 53.3461273,61.3376917 53.8779525,61.3376917 C54.4097776,61.3376917 54.8411426,61.7686733 54.8411426,62.3004985 Z" id="Stroke-39" stroke="#90B3FB" stroke-linejoin="round"></path>
                            <path d="M240.470744,68.8561733 L239.180867,68.8561733 C238.948888,68.8561733 238.761388,68.6682899 238.761388,68.4366948 L238.761388,67.1468175 C238.761388,66.9152224 238.948888,66.727339 239.180867,66.727339 L240.470744,66.727339 C240.702339,66.727339 240.890222,66.9152224 240.890222,67.1468175 L240.890222,68.4366948 C240.890222,68.6682899 240.702339,68.8561733 240.470744,68.8561733" id="Fill-41" fill="#E4E9F9"></path>
                            <path d="M42.1864264,113.175383 L40.8961656,113.175383 C40.6645706,113.175383 40.4770706,112.9875 40.4770706,112.755905 L40.4770706,111.465644 C40.4770706,111.234433 40.6645706,111.046166 40.8961656,111.046166 L42.1864264,111.046166 C42.4180215,111.046166 42.6059049,111.234433 42.6059049,111.465644 L42.6059049,112.755905 C42.6059049,112.9875 42.4180215,113.175383 42.1864264,113.175383" id="Fill-43" fill="#E4E9F9"></path>
                            <path d="M39.9451687,34.7457439 L38.6552914,34.7457439 C38.4236963,34.7457439 38.2358129,34.5578604 38.2358129,34.3262653 L38.2358129,33.036388 C38.2358129,32.8047929 38.4236963,32.6169095 38.6552914,32.6169095 L39.9451687,32.6169095 C40.1767638,32.6169095 40.3646472,32.8047929 40.3646472,33.036388 L40.3646472,34.3262653 C40.3646472,34.5578604 40.1767638,34.7457439 39.9451687,34.7457439" id="Fill-45" fill="#E4E9F9"></path>
                            <path d="M205.461273,19.5217791 L202.985813,19.5217791 C202.541411,19.5217791 202.180982,19.1613497 202.180982,18.7169479 L202.180982,16.2411043 C202.180982,15.7967025 202.541411,15.436273 202.985813,15.436273 L205.461273,15.436273 C205.906058,15.436273 206.266488,15.7967025 206.266488,16.2411043 L206.266488,18.7169479 C206.266488,19.1613497 205.906058,19.5217791 205.461273,19.5217791" id="Fill-47" fill="#E4E9F9"></path>
                            <path d="M182.358551,81.2434816 L181.06829,81.2434816 C180.836695,81.2434816 180.648811,81.0555982 180.648811,80.8240031 L180.648811,79.5337423 C180.648811,79.3025307 180.836695,79.1142638 181.06829,79.1142638 L182.358551,79.1142638 C182.590146,79.1142638 182.778029,79.3025307 182.778029,79.5337423 L182.778029,80.8240031 C182.778029,81.0555982 182.590146,81.2434816 182.358551,81.2434816" id="Fill-49" fill="#E4E9F9"></path>
                            <path d="M153.014877,65.9685966 C153.025613,65.784931 153.042868,65.5897623 153.069709,65.3815567 C153.285199,63.6729678 154.624156,63.8297929 155.457362,63.8819402 C156.290567,63.933704 157.32661,63.9613113 157.725,63.1664494 C157.898313,62.8209739 157.891028,62.4034126 158.004908,62.0299463 C158.257209,61.201342 159.1,60.7047929 159.905215,60.7032592 C160.709279,60.7017255 161.470399,61.1043328 162.129525,61.603566 C164.270245,63.2247316 164.884126,58.9563267 165.897546,57.7212807 C167.050537,56.3156058 169.198543,55.5276457 170.657132,56.5483512 C172.115337,57.5686733 172.953144,59.3869248 173.335046,61.2216641 C173.459279,61.8182899 173.504141,62.5495015 173.987653,62.8792561 C175.403298,63.8439801 177.225,61.972431 178.935123,63.4260353 C179.533666,63.9348543 179.647163,65.1672163 179.570859,65.9685966 L153.014877,65.9685966 Z" id="Fill-51" fill="#FFFFFF"></path>
                            <path d="M153.014877,65.9685966 C153.025613,65.784931 153.042868,65.5897623 153.069709,65.3815567 C153.285199,63.6729678 154.624156,63.8297929 155.457362,63.8819402 C156.290567,63.933704 157.32661,63.9613113 157.725,63.1664494 C157.898313,62.8209739 157.891028,62.4034126 158.004908,62.0299463 C158.257209,61.201342 159.1,60.7047929 159.905215,60.7032592 C160.709279,60.7017255 161.470399,61.1043328 162.129525,61.603566 C164.270245,63.2247316 164.884126,58.9563267 165.897546,57.7212807 C167.050537,56.3156058 169.198543,55.5276457 170.657132,56.5483512 C172.115337,57.5686733 172.953144,59.3869248 173.335046,61.2216641 C173.459279,61.8182899 173.504141,62.5495015 173.987653,62.8792561 C175.403298,63.8439801 177.225,61.972431 178.935123,63.4260353 C179.533666,63.9348543 179.647163,65.1672163 179.570859,65.9685966 L153.014877,65.9685966 Z" id="Stroke-53" stroke="#90B3FB" stroke-linejoin="round"></path>
                            <path d="M47.3931365,153.620322 C42.5860046,146.368021 32.521204,128.045936 41.2447469,121.739571 C46.0350077,118.277147 52.3850844,121.427837 55.4552531,129.06434 C58.3708972,136.315874 59.4863113,144.882975 60.7014187,153.517561" id="Fill-55" fill="#DC3B00"></path>
                            <path d="M47.4951687,153.560429 C45.1941718,150.036273 43.1240031,146.341488 41.4077454,142.496779 C39.5484663,138.332669 37.8375767,133.695399 37.9621933,129.066181 C38.073773,124.920859 40.5940951,120.676994 45.1554448,120.497929 C50.9177147,120.271702 54.3463957,126.282055 55.9905675,130.946933 C58.552684,138.217255 59.4771472,145.965337 60.5457822,153.560813 C60.5745399,153.765951 60.886273,153.678911 60.8575153,153.47454 C59.8199387,146.091488 58.9115798,138.581518 56.520092,131.485276 C54.9322853,126.772853 52.0147239,121.089571 46.5185583,120.269018 C42.4476227,119.661273 38.8981595,122.654755 37.9836656,126.50023 C36.9307515,130.92661 38.4092791,135.779755 40.0039877,139.889034 C41.883589,144.732209 44.4031442,149.366028 47.2907975,153.680061 C47.3751534,153.805828 47.5791411,153.68888 47.4951687,153.560429" id="Fill-57" fill="#ADBBF9"></path>
                            <g id="Group-62" transform="translate(43.711656, 120.398773)">
                                <path d="M0.00571319018,0.253949387 L11.3381518,33.2439801" id="Fill-59" fill="#FFFFFF"></path>
                                <path d="M0.00571319018,0.253949387 L11.3381518,33.2439801" id="Stroke-61" stroke="#FFFFFF" stroke-linejoin="round"></path>
                            </g>
                            <path d="M28.1189417,153.625959 C23.9720859,148.261695 14.906135,134.708397 22.4314417,130.043903 C26.563727,127.482554 31.6584356,129.813075 34.3072086,135.461848 C36.822546,140.826112 37.7845859,147.163152 38.8328988,153.550422" id="Fill-63" fill="#DC3B00"></path>
                            <path d="M28.2211656,153.566411 C26.2990031,151.034586 24.5064417,148.391948 22.9803681,145.601304 C21.3557515,142.630445 19.7648773,139.258129 19.6912577,135.806825 C19.6180215,132.378528 21.8963957,129.477071 25.4378067,129.182975 C29.8814417,128.81411 33.0022239,132.788804 34.5716258,136.447163 C36.8979294,141.869325 37.7288344,147.813727 38.6770706,153.593252 C38.7104294,153.798006 39.022546,153.71135 38.9891871,153.507362 C38.0562883,147.816411 37.2303681,141.98589 34.9983896,136.626227 C33.4983896,133.024617 30.7706288,129.233589 26.5382669,128.877761 C23.3833589,128.612807 20.2694785,130.674156 19.5750767,133.803758 C18.8427147,137.104755 20.2319018,140.669939 21.6291411,143.603988 C23.343865,147.203681 25.5804448,150.57408 28.0351994,153.709816 C28.1172546,153.81411 28.302454,153.67339 28.2211656,153.566411" id="Fill-65" fill="#ADBBF9"></path>
                            <g id="Group-70" transform="translate(24.539877, 129.217791)">
                                <path d="M0.0246165644,0.0218174847 L9.80069018,24.4251917" id="Fill-67" fill="#FFFFFF"></path>
                                <path d="M0.0246165644,0.0218174847 L9.80069018,24.4251917" id="Stroke-69" stroke="#FFFFFF" stroke-linejoin="round"></path>
                            </g>
                            <g id="Group-74" transform="translate(62.883436, 98.926380)">
                                <path d="M13.7319018,54.6235429 C2.36878834,34.0108129 -4.97016871,13.5748466 4.19854294,3.8666411 C13.2840491,-5.75260736 22.7871166,5.64654908 25.0992331,15.7473926 C27.9312883,28.1185583 28.3419479,41.510046 28.2859663,54.6235429" id="Fill-71" fill="#DC3B00"></path>
                                <path d="M13.7319018,54.6235429 C2.36878834,34.0108129 -4.97016871,13.5748466 4.19854294,3.8666411 C13.2840491,-5.75260736 22.7871166,5.64654908 25.0992331,15.7473926 C27.9312883,28.1185583 28.3419479,41.510046 28.2859663,54.6235429" id="Stroke-73" stroke="#ADBBF9" stroke-linejoin="round"></path>
                            </g>
                            <path d="M70.446089,100.288344 L84.0960123,153.519555" id="Stroke-75" stroke="#FFFFFF" stroke-linejoin="round"></path>
                            <path d="M59.563842,153.614724 C55.0496549,142.710583 44.8962807,120.652684 52.0569402,113.834816 C56.6363113,109.474387 64.9050997,114.819095 69.1600844,124.347853 C73.2003451,133.396549 74.4143021,142.712117 76.8364647,153.486656" id="Fill-77" fill="#DC3B00"></path>
                            <path d="M59.6778758,153.583282 C57.5348543,148.343252 55.2752684,143.153451 53.3918328,137.81066 C51.5014954,132.448696 49.6115414,126.645399 49.7269555,120.893098 C49.7695169,118.779601 50.1395322,116.530368 51.4186733,114.787653 C52.8895322,112.784969 55.2591641,112.070629 57.6337807,112.67684 C60.4221242,113.38888 62.7875383,115.386963 64.6479678,117.504678 C67.1817101,120.390031 68.8826304,123.819479 70.2380752,127.385813 C73.435161,135.799156 74.7219709,144.784969 76.6805598,153.529601 C76.7258052,153.733206 77.0379218,153.646933 76.9926764,153.444095 C75.1272623,145.111656 73.8734279,136.573313 70.9961273,128.504294 C68.8412193,122.4625 65.3960506,115.552991 59.1387653,112.869709 C57.1257285,112.006212 54.7679831,111.788037 52.852339,113.017331 C51.1299463,114.122776 50.1625383,116.021166 49.7438267,117.974387 C49.2227377,120.403451 49.3972009,122.950997 49.7572469,125.389647 C50.2112347,128.462883 51.0222009,131.479755 51.9554831,134.43911 C54.0260353,141.00161 56.7883052,147.309509 59.4497316,153.646166 C59.5076304,153.783819 59.7357745,153.72477 59.6778758,153.583282" id="Fill-79" fill="#ADBBF9"></path>
                            <path d="M147.632554,153.553298 C143.803183,109.671012 153.124502,93.6388037 163.321971,92.9194785 C168.152876,92.5789877 182.302799,95.3604294 165.21806,153.52684" id="Fill-81" fill="#FFFFFF"></path>
                            <path d="M147.707439,153.553298 C146.764187,139.103911 145.798313,124.089724 149.52339,109.917945 C151.13842,103.774156 154.166411,95.8496933 160.78681,93.5824387 C163.398006,92.6878834 166.365798,92.8523773 168.577837,94.6184816 C172.487347,97.7396472 173.094709,103.8125 173.242715,108.416794 C173.408359,113.582055 172.846626,118.765337 172.050997,123.86158 C170.852761,131.534126 169.050613,139.108129 167.015337,146.597776 C166.389954,148.899923 165.739647,151.195936 165.106979,153.496166 C165.067101,153.639954 165.285276,153.69862 165.329371,153.557515 C167.922546,145.231979 170.044862,136.702071 171.629218,128.12615 C172.671012,122.486963 173.477761,116.759586 173.56135,111.016871 C173.612347,107.524156 173.421396,103.93635 172.446319,100.562117 C171.871933,98.5747699 170.990414,96.5973926 169.534126,95.0947086 C167.658359,93.1598926 165.03911,92.4628067 162.418712,92.8780675 C156.016871,93.892638 152.394939,100.432899 150.432515,105.97546 C148.589724,111.182132 147.695169,116.705138 147.176764,122.187117 C146.417945,130.215874 146.51342,138.318252 146.98888,146.360429 C147.130752,148.761887 147.299847,151.16181 147.557515,153.553298 C147.568252,153.647239 147.713957,153.651074 147.707439,153.553298" id="Fill-83" fill="#ADBBF9"></path>
                            <g id="Group-88" transform="translate(156.058282, 92.791411)">
                                <path d="M9.25161043,0.229639571 L0.241257669,60.7353911" id="Fill-85" fill="#FFFFFF"></path>
                                <path d="M9.25161043,0.229639571 L0.241257669,60.7353911" id="Stroke-87" stroke="#ADBBF9" stroke-linejoin="round"></path>
                            </g>
                            <path d="M177.776419,153.556672 C180.900268,127.474233 191.422508,112.442025 200.929026,116.522163 C208.7051,119.859969 204.692446,134.379525 192.578949,153.540951" id="Fill-89" fill="#DC3B00"></path>
                            <path d="M177.848696,153.576534 C179.02661,145.891334 180.397009,138.283206 183.364417,131.051994 C185.330291,126.260583 188.01319,121.093021 192.309969,117.980675 C195.219479,115.872929 199.344479,115.106058 202.341794,117.533589 C205.83681,120.364877 204.883972,125.953067 203.903144,129.715721 C201.673466,138.272469 196.96411,145.962653 192.479831,153.482592 C192.403144,153.611426 192.597163,153.721472 192.678834,153.599156 C195.283896,149.688113 197.603298,145.551994 199.678451,141.33727 C201.296166,138.05161 202.763574,134.665491 203.813037,131.152071 C204.978298,127.250997 206.267025,121.660506 203.382822,118.155905 C201.071856,115.34839 196.890874,115.172393 193.828374,116.71227 C189.443405,118.917025 186.547699,123.615261 184.480215,127.877914 C182.729064,131.48911 181.415031,135.306212 180.372086,139.176994 C179.108666,143.866794 178.134356,148.715721 177.701186,153.556595 C177.694172,153.639801 177.836043,153.660123 177.848696,153.576534" id="Fill-91" fill="#ADBBF9"></path>
                            <g id="Group-96" transform="translate(185.199387, 116.180982)">
                                <path d="M15.7295629,0.341219325 L0.175115031,37.3600077" id="Fill-93" fill="#FFFFFF"></path>
                                <path d="M15.7295629,0.341219325 L0.175115031,37.3600077" id="Stroke-95" stroke="#FFFFFF" stroke-linejoin="round"></path>
                            </g>
                            <g id="Group-100" transform="translate(54.447853, 112.346626)">
                                <path d="M0.0843558282,0.131518405 L13.978911,41.2960123" id="Fill-97" fill="#FFFFFF"></path>
                                <path d="M0.0843558282,0.131518405 L13.978911,41.2960123" id="Stroke-99" stroke="#FFFFFF" stroke-linejoin="round"></path>
                            </g>
                            <path d="M178.936465,153.604985 C185.080253,140.580445 197.47059,110.841564 188.139302,100.296702 C183.015452,94.5064417 173.637768,101.616104 168.663842,114.385276 C163.940299,126.511426 160.40464,138.994939 157.473275,153.433972" id="Fill-101" fill="#DC3B00"></path>
                            <path d="M179.038689,153.664877 C182.256863,146.89839 185.148735,139.950153 187.482707,132.827454 C189.887615,125.489647 192.084701,117.527991 191.595437,109.730445 C191.29559,104.949003 189.025268,97.1955521 182.771817,98.1905675 C179.386081,98.7296779 176.547891,101.390337 174.448965,103.925613 C171.367293,107.648773 169.375729,111.997316 167.685161,116.485813 C163.172124,128.468175 159.869594,140.852761 157.31783,153.390721 C157.276035,153.593942 157.588152,153.680982 157.629563,153.476994 C159.810928,142.764571 162.525652,132.157592 166.103106,121.822086 C167.769133,117.007669 169.438612,112.099693 172.123044,107.740414 C174.149118,104.450153 176.814379,101.09931 180.338919,99.3286043 C183.072814,97.9543712 186.069363,98.1215491 188.142216,100.529141 C190.088152,102.789494 190.91714,105.807132 191.213919,108.718942 C191.968903,116.121166 189.998428,123.774923 187.827416,130.788344 C185.413305,138.585506 182.284854,146.154525 178.834317,153.545245 C178.770284,153.682132 178.972738,153.802531 179.038689,153.664877" id="Fill-103" fill="#ADBBF9"></path>
                            <g id="Group-108" transform="translate(168.711656, 98.159509)">
                                <path d="M16.6626917,0.319133436 L0.232860429,55.4828604" id="Fill-105" fill="#FFFFFF"></path>
                                <path d="M16.6626917,0.319133436 L0.232860429,55.4828604" id="Stroke-107" stroke="#527CD4" stroke-linejoin="round"></path>
                            </g>
                            <path d="M189.783857,153.556672 C197.883551,137.137577 204.912692,132.794785 211.515836,134.106518 C216.648888,135.12684 217.452186,142.710429 206.601342,153.546702" id="Fill-109" fill="#DC3B00"></path>
                            <path d="M189.848658,153.594479 C192.35671,149.126687 194.622814,144.587193 197.958321,140.649693 C200.017753,138.218328 202.483627,135.906212 205.507784,134.753988 C207.615529,133.951074 210.39467,133.626687 212.520437,134.573006 C214.888535,135.626687 215.284241,138.326074 214.815299,140.621702 C213.776189,145.712577 209.901956,149.776994 206.520054,153.464877 C206.419977,153.57454 206.574118,153.729448 206.683014,153.628221 C210.130483,150.434586 213.566833,146.201457 214.883934,141.60138 C215.526956,139.355598 215.617063,136.498236 213.613229,134.893175 C211.868597,133.495552 209.075652,133.53888 207.0051,134.000153 C203.993597,134.671166 201.419977,136.590644 199.298044,138.758206 C197.588689,140.503221 196.109011,142.469479 194.760851,144.502071 C192.872431,147.347929 191.077952,150.381672 189.719057,153.518942 C189.681863,153.604448 189.799962,153.680752 189.848658,153.594479" id="Fill-111" fill="#ADBBF9"></path>
                            <g id="Group-116" transform="translate(198.236196, 134.202454)">
                                <path d="M12.64375,0.0139570552 L0.269133436,19.3429448" id="Fill-113" fill="#FFFFFF"></path>
                                <path d="M12.64375,0.0139570552 L0.269133436,19.3429448" id="Stroke-115" stroke="#FFFFFF" stroke-linejoin="round"></path>
                            </g>
                        </g>
                    </g>
                    <g id="Group-43" transform="translate(77.000000, 55.000000)">
                        <g id="Group-46" transform="translate(22.000000, 0.000000)">
                            <polygon id="Fill-9" fill="#2D5FC8" points="2.9753012 132.625904 99.6560241 132.625904 99.6560241 -1.70530257e-13 2.9753012 -1.70530257e-13"></polygon>
                            <polygon id="Fill-10" fill="#FFFFFF" points="7.10542736e-13 135.864458 96.6801205 135.864458 96.6801205 3.23795181 7.10542736e-13 3.23795181"></polygon>
                            <path d="M19.2981928,22.3547741 L21.6162651,22.3547741 L21.6162651,24.4276657 C21.6162651,26.9240512 20.3680723,28.3505572 17.9608434,28.3505572 C15.5536145,28.3505572 14.3054217,26.9240512 14.3054217,24.4276657 L14.3054217,16.3144127 C14.3054217,13.8180271 15.5536145,12.3915211 17.9608434,12.3915211 C20.3680723,12.3915211 21.6162651,13.8180271 21.6162651,16.3144127 L21.6162651,17.8300753 L19.2981928,17.8300753 L19.2981928,16.1583886 C19.2981928,15.0439307 18.8078313,14.6204368 18.0277108,14.6204368 C17.2475904,14.6204368 16.7572289,15.0439307 16.7572289,16.1583886 L16.7572289,24.5836898 C16.7572289,25.6981476 17.2475904,26.0993524 18.0277108,26.0993524 C18.8078313,26.0993524 19.2981928,25.6981476 19.2981928,24.5836898 L19.2981928,22.3547741 Z M25.3608434,16.1583886 L25.3608434,24.5836898 C25.3608434,25.6981476 25.8512048,26.1216416 26.6313253,26.1216416 C27.4114458,26.1216416 27.9018072,25.6981476 27.9018072,24.5836898 L27.9018072,16.1583886 C27.9018072,15.0439307 27.4114458,14.6204368 26.6313253,14.6204368 C25.8512048,14.6204368 25.3608434,15.0439307 25.3608434,16.1583886 Z M22.9090361,24.4276657 L22.9090361,16.3144127 C22.9090361,13.8180271 24.2240964,12.3915211 26.6313253,12.3915211 C29.0385542,12.3915211 30.3536145,13.8180271 30.3536145,16.3144127 L30.3536145,24.4276657 C30.3536145,26.9240512 29.0385542,28.3505572 26.6313253,28.3505572 C24.2240964,28.3505572 22.9090361,26.9240512 22.9090361,24.4276657 Z M37.1740964,28.172244 L34.1204819,16.8716416 L34.1204819,28.172244 L31.9138554,28.172244 L31.9138554,12.5698343 L34.989759,12.5698343 L37.5084337,21.908991 L37.5084337,12.5698343 L39.6927711,12.5698343 L39.6927711,28.172244 L37.1740964,28.172244 Z M40.7403614,14.79875 L40.7403614,12.5698343 L48.3186747,12.5698343 L48.3186747,14.79875 L45.7554217,14.79875 L45.7554217,28.172244 L43.3036145,28.172244 L43.3036145,14.79875 L40.7403614,14.79875 Z M57.0114458,28.172244 L54.5150602,28.172244 C54.3813253,27.7710392 54.2921687,27.5258584 54.2921687,26.2553765 L54.2921687,23.8035693 C54.2921687,22.3547741 53.8018072,21.8198343 52.6873494,21.8198343 L51.8403614,21.8198343 L51.8403614,28.172244 L49.3885542,28.172244 L49.3885542,12.5698343 L53.0885542,12.5698343 C55.6295181,12.5698343 56.7216867,13.7511596 56.7216867,16.1583886 L56.7216867,17.3842922 C56.7216867,18.9891115 56.2090361,20.0367018 55.1168675,20.5493524 C56.3427711,21.062003 56.7439759,22.2433283 56.7439759,23.8704368 L56.7439759,26.2776657 C56.7439759,27.035497 56.7662651,27.5927259 57.0114458,28.172244 Z M53.0216867,14.79875 L51.8403614,14.79875 L51.8403614,19.5909187 L52.7987952,19.5909187 C53.7126506,19.5909187 54.2698795,19.1897139 54.2698795,17.9415211 L54.2698795,16.4035693 C54.2698795,15.2891115 53.8909639,14.79875 53.0216867,14.79875 Z M63.7873494,12.5698343 L66.2837349,28.172244 L63.8096386,28.172244 L63.3861446,25.3415211 L60.3771084,25.3415211 L59.9536145,28.172244 L57.7024096,28.172244 L60.1987952,12.5698343 L63.7873494,12.5698343 Z M61.8704819,15.3336898 L60.6891566,23.2240512 L63.0518072,23.2240512 L61.8704819,15.3336898 Z M72.2126506,22.3547741 L74.5307229,22.3547741 L74.5307229,24.4276657 C74.5307229,26.9240512 73.2825301,28.3505572 70.8753012,28.3505572 C68.4680723,28.3505572 67.2198795,26.9240512 67.2198795,24.4276657 L67.2198795,16.3144127 C67.2198795,13.8180271 68.4680723,12.3915211 70.8753012,12.3915211 C73.2825301,12.3915211 74.5307229,13.8180271 74.5307229,16.3144127 L74.5307229,17.8300753 L72.2126506,17.8300753 L72.2126506,16.1583886 C72.2126506,15.0439307 71.7222892,14.6204368 70.9421687,14.6204368 C70.1620482,14.6204368 69.6716867,15.0439307 69.6716867,16.1583886 L69.6716867,24.5836898 C69.6716867,25.6981476 70.1620482,26.0993524 70.9421687,26.0993524 C71.7222892,26.0993524 72.2126506,25.6981476 72.2126506,24.5836898 L72.2126506,22.3547741 Z M75.3108434,14.79875 L75.3108434,12.5698343 L82.8891566,12.5698343 L82.8891566,14.79875 L80.3259036,14.79875 L80.3259036,28.172244 L77.8740964,28.172244 L77.8740964,14.79875 L75.3108434,14.79875 Z" id="CONTRACT" fill="#FF6C36" fill-rule="nonzero"></path>
                            <path d="M71.1873494,115.892771 C71.1873494,113.148193 73.4120482,110.922892 76.1572289,110.922892 C78.9024096,110.922892 81.1271084,113.148193 81.1271084,115.892771 C81.1271084,118.637349 78.9024096,120.862651 76.1572289,120.862651 C73.4120482,120.862651 71.1873494,118.637349 71.1873494,115.892771" id="Fill-11" fill="#FF6C36"></path>
                            <path d="M68.3259036,115.892771 C68.3259036,111.56747 71.8319277,108.061446 76.1572289,108.061446 C80.4825301,108.061446 83.9885542,111.56747 83.9885542,115.892771 C83.9885542,120.21747 80.4825301,123.724096 76.1572289,123.724096 C71.8319277,123.724096 68.3259036,120.21747 68.3259036,115.892771 Z M66.8198795,115.892771 C66.8198795,110.736145 71,106.555422 76.1572289,106.555422 C81.3144578,106.555422 85.4945783,110.736145 85.4945783,115.892771 C85.4945783,121.049398 81.3144578,125.23012 76.1572289,125.23012 C71,125.23012 66.8198795,121.049398 66.8198795,115.892771 Z" id="Stroke-12" stroke="#FF6C36"></path>
                            <path d="M14.8620482,33.6638554 L81.1271084,33.6638554 M14.8620482,102.489157 L81.1271084,102.489157" id="Stroke-13" stroke="#FF6C36" stroke-linecap="round" stroke-linejoin="round"></path>
                            <polygon id="Fill-14" fill="#808080" points="14.8620482 41.1879518 81.1271084 41.1879518 81.1271084 38.6337349 14.8620482 38.6337349"></polygon>
                            <polygon id="Fill-15" fill="#808080" points="14.8620482 46.2415663 81.1271084 46.2415663 81.1271084 43.6873494 14.8620482 43.6873494"></polygon>
                            <polygon id="Fill-16" fill="#AEAEAE" points="14.8620482 51.2957831 81.1271084 51.2957831 81.1271084 48.7415663 14.8620482 48.7415663"></polygon>
                            <polygon id="Fill-17" fill="#AEAEAE" points="14.8620482 56.35 81.1271084 56.35 81.1271084 53.7951807 14.8620482 53.7951807"></polygon>
                            <polygon id="Fill-18" fill="#AEAEAE" points="14.8620482 61.403012 63.6493976 61.403012 63.6493976 58.8493976 14.8620482 58.8493976"></polygon>
                            <polygon id="Fill-19" fill="#808080" points="14.8620482 66.4572289 81.1271084 66.4572289 81.1271084 63.903012 14.8620482 63.903012"></polygon>
                            <polygon id="Fill-20" fill="#808080" points="14.8620482 71.5114458 81.1271084 71.5114458 81.1271084 68.9566265 14.8620482 68.9566265"></polygon>
                            <polygon id="Fill-21" fill="#AEAEAE" points="14.8620482 76.5650602 81.1271084 76.5650602 81.1271084 74.0108434 14.8620482 74.0108434"></polygon>
                            <polygon id="Fill-22" fill="#AEAEAE" points="14.8620482 81.6186747 81.1271084 81.6186747 81.1271084 79.0650602 14.8620482 79.0650602"></polygon>
                            <polygon id="Fill-23" fill="#AEAEAE" points="14.8620482 86.6728916 81.1271084 86.6728916 81.1271084 84.1180723 14.8620482 84.1180723"></polygon>
                            <polygon id="Fill-24" fill="#AEAEAE" points="14.8620482 91.726506 81.1271084 91.726506 81.1271084 89.1722892 14.8620482 89.1722892"></polygon>
                            <polygon id="Fill-25" fill="#AEAEAE" points="14.8620482 96.7807229 46.0831325 96.7807229 46.0831325 94.226506 14.8620482 94.226506"></polygon>
                            <polygon id="Fill-26" fill="#AEAEAE" points="14.8620482 123.818675 41.4253012 123.818675 41.4253012 121.26506 14.8620482 121.26506"></polygon>
                            <polygon id="Fill-27" fill="#808080" points="14.8620482 119.953012 33.9343373 119.953012 33.9343373 117.398795 14.8620482 117.398795"></polygon>
                        </g>
                        <g id="Group-44" transform="translate(0.000000, 18.000000)">
                            <path d="M39.542,131.256 C39.542,137.562667 30.6906667,142.676 19.7713333,142.676 C8.852,142.676 9.66338121e-13,137.562667 9.66338121e-13,131.256 C9.66338121e-13,124.949333 8.852,119.836667 19.7713333,119.836667 C30.6906667,119.836667 39.542,124.949333 39.542,131.256" id="Fill-136" fill="#A2B8E6"></path>
                            <path d="M14.6186667,133.32 C14.6186667,133.32 13.6593333,136.542 16.158,137.233333 C18.6566667,137.924667 19.09,136.529333 19.98,136.072 C20.8706667,135.614667 26.442,132.719333 27.488,131.404 C28.5333333,130.088 25.3706667,128.083333 20.486,131.187333 L14.6186667,133.32" id="Fill-137" fill="#102553"></path>
                            <path d="M4.466,127.612667 C4.466,127.612667 3.28333333,130.572667 5.58333333,131.439333 C7.88333333,132.306 8.72333333,129.96 9.40666667,129.526 C10.208,129.017333 12.8173333,127.331333 13.9173333,126.179333 C15.0173333,125.026667 13.3646667,122.51 8.48733333,125.022 L4.466,127.612667" id="Fill-138" fill="#102553"></path>
                            <path d="M6.64933333,80.622 C6.64933333,80.622 5.97533333,100.749333 6.168,104.598667 C4.14666667,109.314 3.926,123.484667 4.46933333,127.997333 C4.46933333,128.709333 9.922,128.826667 9.922,126.302 C9.922,123.778 12.1053333,109.924 12.698,107.934667 C13.2906667,105.945333 15.28,99.4006667 15.28,99.4006667 L15.28,80.622 L8.86333333,79.6686667 L6.64933333,80.622" id="Fill-139" fill="#183165"></path>
                            <path d="M29.622,72.716 C29.622,72.716 25.6833333,74.43 22.7553333,70.14 C19.8273333,65.85 25.258,66.6 25.258,66.6 L29.012,68.8246667 L29.622,72.716" id="Fill-140" fill="#304A5E"></path>
                            <path d="M14.2853333,132.986667 C14.3446667,133.808 20.7506667,134.922 20.7506667,132.029333 C20.7506667,129.136667 21.068,116.019333 21.9266667,110.556667 C22.7853333,105.094667 25.07,95.454 24.2333333,89.1013333 C23.3973333,82.7486667 23.2726667,80.2506667 23.142,78.66 L13.74,78.66 C13.74,78.66 14.7826667,105.800667 14.7826667,108.303333 C14.7826667,110.806 13.9806667,128.746 14.2853333,132.986667" id="Fill-141" fill="#183165"></path>
                            <path d="M15.0053333,48.1946667 C15.0053333,48.1946667 12.7726667,46.3153333 9.60133333,47.3926667 C6.86866667,48.32 4.85266667,51.4933333 4.85266667,56.646 C4.85266667,61.798 7.644,63.3906667 7.644,70.974 C7.644,78.5573333 4.89133333,80.4066667 5.334,86.1173333 C5.77666667,91.828 22.7713333,94.106 25.1293333,90.93 C26.9106667,87.946 23.2346667,74.4713333 23.734,70.332 C24.2333333,66.1933333 26.404,56.9966667 25.3973333,54.48 C24.7073333,52.756 19.336,48.9906667 15.0053333,48.1946667" id="Fill-142" fill="#3761BA"></path>
                            <path d="M24.8293333,68.29 C27.0066667,72.7866667 28.754,73.008 29.622,72.716 C30.9213333,72.2793333 31.5286667,70.6206667 30.7353333,67.06 C29.9426667,63.4986667 27.3213333,52.3573333 23.542,53.8886667 C19.646,55.4666667 22.6513333,63.794 24.8293333,68.29" id="Fill-143" fill="#183165"></path>
                            <path d="M13.776,44.9706667 C13.776,44.9706667 13.776,47.2166667 13.776,48.2753333 C13.776,49.334 16.754,50.6726667 19.3586667,49.4626667 L19.3586667,46.6713333 C19.3586667,46.6713333 22.31,47.0886667 22.952,46.6713333 C23.5933333,46.254 24.1706667,36.9926667 22.406,35.912 C19.5193333,33.6786667 12.3,34.62 12.3,39.0993333 C12.3,40.5113333 13.776,42.2433333 13.776,44.9706667" id="Fill-144" fill="#E18765"></path>
                            <path d="M11.8013333,39.018 C12.6613333,40.0186667 17.8186667,39.0713333 19.7433333,37.9466667 C21.6686667,36.8213333 25.8393333,33.5806667 24.0746667,30.4046667 C22.31,27.2286667 21.462,30.6933333 18.5566667,31.3353333 C15.6506667,31.9766667 7.48533333,33.996 11.8013333,39.018" id="Fill-145" fill="#5C3C35"></path>
                            <path d="M11.0386667,37.9466667 C10.5993333,40.094 12.936,45.8666667 13.904,45.8666667 C15.9893333,45.8373333 17.8186667,42.5393333 19.4866667,41.942 C21.1546667,41.3453333 22.6646667,37.7306667 21.268,36.9073333 C19.872,36.0833333 11.0386667,37.9466667 11.0386667,37.9466667" id="Fill-146" fill="#5C3C35"></path>
                            <path d="M20.658,50.5533333 C20.7486667,51.056 18.234,53.3146667 14.1913333,51.5253333 C10.1493333,49.736 12.4693333,48.4333333 12.4693333,48.4333333 L15.7433333,50.1833333 L18.054,50.262 L20.658,50.5533333" id="Fill-147" fill="#E7EFFF"></path>
                            <path d="M13.776,47.9006667 C13.776,47.9006667 14.69,50.216 19.3586667,49.0933333 C19.3586667,49.0933333 20.2726667,49.318 20.658,50.5533333 C19.4546667,52.2053333 13.054,51.612 12.3,48.6446667 C12.3,48.6446667 12.7653333,47.8626667 13.776,47.9006667" id="Fill-148" fill="#183165"></path>
                            <path d="M20.052,42.8586667 C19.5386667,42.546 18.5693333,41.1486667 19.5453333,40.64 C19.916,40.4473333 20.6733333,40.6173333 20.9893333,41.4633333" id="Fill-149" fill="#E18765"></path>
                            <path d="M17.534,20.4686667 C18.9153333,20.4686667 20.0506667,19.38 20.1093333,18 L20.728,3.28866667 C20.78,1.488 19.3353333,2.27373675e-13 17.534,2.27373675e-13 C15.7326667,2.27373675e-13 14.2873333,1.488 14.34,3.28866667 L14.9586667,18 C15.0166667,19.38 16.1526667,20.4686667 17.534,20.4686667" id="Fill-379" fill="#715C98"></path>
                            <path d="M20.01,24.3853333 C20.01,25.7533333 18.9013333,26.862 17.534,26.862 C16.1666667,26.862 15.058,25.7533333 15.058,24.3853333 C15.058,23.018 16.1666667,21.9093333 17.534,21.9093333 C18.9013333,21.9093333 20.01,23.018 20.01,24.3853333" id="Fill-380" fill="#715C98"></path>
                        </g>
                    </g>
                </g>
            </g>
        </g>
    </g>
</svg>