<?xml version="1.0" encoding="UTF-8"?>
<svg width="250px" height="197px" viewBox="0 0 250 197" version="1.1" xmlns="http://www.w3.org/2000/svg" xmlns:xlink="http://www.w3.org/1999/xlink">
    <!-- Generator: Sketch 56.3 (81716) - https://sketch.com -->
    <title>Creative PPC Experts</title>
    <desc>Created with Sketch.</desc>
    <defs>
        <polygon id="path-1" points="0.392 0.516851064 228.947234 0.516851064 228.947234 184.109349 0.392 184.109349"></polygon>
    </defs>
    <g id="Page-1" stroke="none" stroke-width="1" fill="none" fill-rule="evenodd">
        <g id="Hey-Digital_Version_02" transform="translate(-347.000000, -2009.000000)">
            <g id="Group-11" transform="translate(347.000000, 2009.000000)">
                <g id="Creative-PPC-Experts">
                    <g id="Group-92" transform="translate(10.000000, 0.000000)">
                        <g id="Group-3" transform="translate(0.212766, 11.961702)">
                            <mask id="mask-2" fill="white">
                                <use xlink:href="#path-1"></use>
                            </mask>
                            <g id="Clip-2"></g>
                            <path d="M135.536681,35.436 C134.921362,35.4274894 133.369021,35.3211064 131.203064,35.1747234 C115.757957,34.1304681 100.921362,30.0334468 86.9911489,23.0504681 C75.3571064,17.2181277 59.8490213,14.7338723 51.458383,16.9542979 C51.4328511,16.9611064 51.4064681,16.9679149 51.3800851,16.9747234 C48.3068936,17.7934468 45.2396596,15.9747234 44.3954043,12.9083404 C42.3988085,5.65982979 32.7477447,0.516851064 22.5579574,0.516851064 C10.3162553,0.516851064 0.392,7.37982979 0.392,15.8453617 C0.392,19.4189787 2.17923404,22.7074894 5.14689362,25.316 C13.6005106,32.7449362 18.2302979,43.543234 17.1988085,54.7491915 C16.9230638,57.7466383 17.0651915,60.7108936 17.659234,63.5551489 C17.9502979,64.9474894 18.3537021,66.2879149 18.8609362,67.5738723 C22.1000851,75.7874894 34.7741277,85.9364255 35.5502979,93.6342979 C41.5000851,152.68366 57.0098723,174.154298 113.811574,182.542383 C170.613277,190.931319 221.523064,164.800255 227.522213,124.178128 C233.521362,83.556 223.767319,36.6215319 135.536681,35.436" id="Fill-1" fill="#E7EFFF" mask="url(#mask-2)"></path>
                        </g>
                        <path d="M65.5308936,4.45838298 C64.3572766,4.33582979 63.283234,3.7826383 62.4704681,2.92817021 C60.7725957,1.14434043 58.148766,0.000510638298 55.202383,0.000510638298 C50.0840851,0.000510638298 45.9342979,3.4532766 45.9342979,7.71285106 C45.9342979,11.9732766 50.0840851,15.4260426 55.202383,15.4260426 C57.7249362,15.4260426 60.0091915,14.5851915 61.6789787,13.2234894 C62.5104681,12.5443404 63.5981277,12.339234 64.6662128,12.4558298 C66.9206809,12.7017872 69.1062128,10.9554043 69.1062128,8.45668085 C69.1062128,6.38008511 67.5181277,4.66604255 65.5308936,4.45838298" id="Fill-4" fill="#E7EFFF"></path>
                        <path d="M77.3235745,19.4110638 C77.3235745,20.6178723 75.9746383,21.5957447 74.3108085,21.5957447 C72.6469787,21.5957447 71.2980426,20.6178723 71.2980426,19.4110638 C71.2980426,18.2042553 72.6469787,17.2255319 74.3108085,17.2255319 C75.9746383,17.2255319 77.3235745,18.2042553 77.3235745,19.4110638" id="Fill-6" fill="#E7EFFF"></path>
                        <path d="M193.753106,44.7347234 C193.753106,46.8640851 190.899489,48.5908936 187.381191,48.5908936 C183.862043,48.5908936 181.009277,46.8640851 181.009277,44.7347234 C181.009277,42.6053617 183.862043,40.8785532 187.381191,40.8785532 C190.899489,40.8785532 193.753106,42.6053617 193.753106,44.7347234" id="Fill-8" fill="#E7EFFF"></path>
                        <path d="M199.300851,37.8577021 C199.300851,38.9351489 198.428511,39.8074894 197.351064,39.8074894 C196.273617,39.8074894 195.401277,38.9351489 195.401277,37.8577021 C195.401277,36.7811064 196.273617,35.9079149 197.351064,35.9079149 C198.428511,35.9079149 199.300851,36.7811064 199.300851,37.8577021" id="Fill-10" fill="#E7EFFF"></path>
                    </g>
                    <g id="Group-274" transform="translate(0.000000, 65.000000)">
                        <path d="M13.3106095,96.8975734 C13.3106095,96.8975734 -5.39029345,89.3180023 1.54085779,82.7801919 C8.47200903,76.2412528 10.6954853,85.395316 13.8343115,82.7801919 C16.9725734,80.1650677 1.54085779,74.0177765 3.50248307,67.3484763 C5.46467269,60.6791761 14.2259594,69.7028781 16.5803612,67.3484763 C18.9336343,64.9946388 10.956772,48.2553612 21.2880361,47.863149 C31.6193002,47.4715011 21.8111738,68.3947517 26.1266366,67.6103273 C30.441535,66.8259029 37.6345372,61.594526 39.5955982,64.9946388 C41.5577878,68.3947517 27.8264108,80.2948646 31.3580135,82.126693 C34.8879233,83.9562641 38.2886005,74.6718397 42.7349887,78.2028781 C47.181377,81.7344808 38.4189616,101.350169 23.9037246,100.042043 C23.9037246,100.042043 16.0566591,99.1154063 13.3106095,96.8975734" id="Fill-1" fill="#DC3B00"></path>
                        <path d="M20.7637698,58.4562077 C20.7637698,58.4562077 22.3337472,95.5961625 25.4725734,117.565688" id="Stroke-3" stroke="#FFFFFF"></path>
                        <path d="M13.9647291,71.6634876 C13.9647291,71.6634876 17.1639391,80.8508465 22.2339165,84.1036682" id="Stroke-5" stroke="#FFFFFF"></path>
                        <path d="M30.3111738,70.0950339 C29.9183973,70.7485327 26.922912,75.3422122 21.948307,77.8845372" id="Stroke-7" stroke="#FFFFFF"></path>
                        <path d="M10.0408578,88.0110045 C10.0408578,88.0110045 14.5069977,95.2203725 23.2231377,96.8975734" id="Stroke-9" stroke="#FFFFFF"></path>
                        <path d="M35.1498871,86.4414221 C35.1498871,86.4414221 29.1346501,91.5362302 23.1188488,92.4538375" id="Stroke-11" stroke="#FFFFFF"></path>
                        <path d="M236.802878,105.651411 C236.802878,105.651411 248.934932,100.734368 244.438318,96.4922686 C239.941704,92.2501693 238.498702,98.1886569 236.462585,96.4922686 C234.427032,94.7958804 244.438318,90.8077314 243.164616,86.4804176 C241.893172,82.1536682 236.20807,88.0069413 234.680982,86.4804176 C233.154458,84.9533296 238.329402,74.0932844 231.626806,73.8393341 C224.923646,73.5848194 231.288205,87.1593115 228.48798,86.6497178 C225.687754,86.1412528 221.020711,82.747912 219.748702,84.9533296 C218.476693,87.1593115 227.385271,94.8799661 225.09351,96.0678894 C222.802878,97.2558126 220.596896,91.2321106 217.712585,93.5227427 C214.828837,95.8133747 220.51281,108.539673 229.929853,107.691479 C229.929853,107.691479 235.020711,107.091027 236.802878,105.651411" id="Fill-13" fill="#DC3B00"></path>
                        <path d="M231.966366,80.7115688 C231.966366,80.7115688 230.948307,104.806941 228.911625,119.060327" id="Stroke-15" stroke="#FFFFFF"></path>
                        <path d="M236.377991,89.2801919 C236.377991,89.2801919 234.30237,95.2406885 231.012867,97.351298" id="Stroke-17" stroke="#FFFFFF"></path>
                        <path d="M225.77246,88.2623025 C226.02754,88.687246 227.970542,91.6663657 231.198533,93.3153499" id="Stroke-19" stroke="#FFFFFF"></path>
                        <path d="M238.922968,99.8862302 C238.922968,99.8862302 236.025113,104.562867 230.371614,105.651467" id="Stroke-21" stroke="#FFFFFF"></path>
                        <path d="M222.633916,98.8683409 C222.633916,98.8683409 226.536287,102.172517 230.439221,102.768454" id="Stroke-23" stroke="#FFFFFF"></path>
                        <path d="M33.5318284,103.898307 C33.5318284,103.898307 20.4934537,98.614447 25.3264108,94.0551919 C30.1576749,89.4959368 31.7079007,95.877991 33.8963883,94.0551919 C36.0843115,92.2318284 25.3264108,87.9457111 26.6937923,83.2961625 C28.0617381,78.6460497 34.1706546,84.9366817 35.8111738,83.2961625 C37.4522573,81.655079 31.8907449,69.9840858 39.0933409,69.7103837 C46.2970655,69.437246 39.458465,84.0258465 42.4674944,83.4784424 C45.4759594,82.9316027 50.4911964,79.2843115 51.8591422,81.655079 C53.227088,84.0258465 43.6525959,92.3232506 46.1147856,93.5997743 C48.5758465,94.8757336 50.946614,88.401693 54.0470655,90.8633183 C57.1469526,93.3260722 51.0380361,107.002709 40.9172686,106.090745 C40.9172686,106.090745 35.4471783,105.444582 33.5318284,103.898307" id="Fill-25" fill="#183165"></path>
                        <path d="M38.728781,77.0963318 C38.728781,77.0963318 39.8230248,102.990237 42.0109481,118.308521" id="Stroke-27" stroke="#FFFFFF"></path>
                        <path d="M33.9875847,86.3047404 C33.9875847,86.3047404 36.217833,92.7099323 39.7528217,94.977991" id="Stroke-29" stroke="#FFFFFF"></path>
                        <path d="M45.3850451,85.2108352 C45.1113431,85.6673815 43.0227427,88.8694131 39.553781,90.6419865" id="Stroke-31" stroke="#FFFFFF"></path>
                        <path d="M31.252991,97.7022009 C31.252991,97.7022009 34.3669865,102.728725 40.4426072,103.898025" id="Stroke-33" stroke="#FFFFFF"></path>
                        <path d="M48.7584086,96.6082393 C48.7584086,96.6082393 44.5642777,100.160158 40.3701467,100.800677" id="Stroke-35" stroke="#FFFFFF"></path>
                        <path d="M108.101637,112.775 C108.101637,112.775 116.463375,112.317889 114.623646,108.817325 C112.782788,105.316761 110.677257,108.611343 109.79746,107.162133 C108.917664,105.711795 115.803104,105.377709 115.931208,102.49509 C116.059312,99.6130361 111.405248,101.975903 110.79746,100.734368 C110.190237,99.4933973 115.576242,93.9956546 111.572291,92.4505079 C107.571163,90.9053612 108.602765,100.440914 107.014729,99.550395 C105.426129,98.6621332 103.307054,95.6406885 102.079063,96.7106659 C100.851072,97.7812077 104.638318,104.302088 103.006828,104.54588 C101.373081,104.789108 101.288995,100.685271 99.0683409,101.473081 C96.8476862,102.260892 97.6456546,111.141253 103.519244,112.582562 C103.519244,112.582562 106.725226,113.275564 108.101637,112.775" id="Fill-37" fill="#183165"></path>
                        <path d="M110.35237,96.6793454 C110.35237,96.6793454 104.734424,111.047856 100.543679,119.250451" id="Stroke-39" stroke="#FFFFFF"></path>
                        <path d="M111.24351,102.780643 C111.24351,102.780643 108.750282,105.956716 106.321388,106.550959" id="Stroke-41" stroke="#FFFFFF"></path>
                        <path d="M105.037472,99.9634312 C105.10237,100.272686 105.660497,102.479797 107.271106,104.147404" id="Stroke-43" stroke="#FFFFFF"></path>
                        <path d="M110.582167,109.725734 C110.582167,109.725734 107.857562,111.954853 104.210271,111.440181" id="Stroke-45" stroke="#FFFFFF"></path>
                        <path d="M100.935553,105.72912 C100.935553,105.72912 102.61219,108.539503 104.84921,109.709932" id="Stroke-47" stroke="#FFFFFF"></path>
                        <polygon id="Fill-49" fill="#9E9E9E" points="101.266253 71.6397856 61.2662528 71.6397856 69.2538375 14.7949774 109.254966 14.7949774"></polygon>
                        <polygon id="Fill-51" fill="#C7C7C7" points="102.414729 71.6397856 62.4136005 71.6397856 70.4023138 14.7949774 110.402878 14.7949774"></polygon>
                        <polygon id="Fill-53" fill="#C7C7C7" points="64.284763 69.9991535 71.8124153 16.4353837 108.531941 16.4353837 101.004289 69.9991535"></polygon>
                        <polygon id="Fill-55" fill="#6B2A31" points="57.4769187 119.362923 54.394526 119.362923 61.1016366 71.6400113 64.183465 71.6400113"></polygon>
                        <polygon id="Fill-57" fill="#6B2A31" points="94.4936795 119.362923 91.4112867 119.362923 98.1183973 71.6400113 101.200226 71.6400113"></polygon>
                        <polygon id="Fill-59" fill="#6B2A31" points="100.919582 73.6370203 60.8208239 73.6370203 61.101298 71.639842 101.200056 71.639842"></polygon>
                        <polygon id="Fill-61" fill="#805055" points="58.788544 119.362923 55.7072799 119.362923 62.4138262 71.6400113 65.4956546 71.6400113"></polygon>
                        <polygon id="Fill-63" fill="#805055" points="95.8053047 119.362923 92.7240406 119.362923 99.4311512 71.6400113 102.51298 71.6400113"></polygon>
                        <polygon id="Fill-65" fill="#805055" points="102.231208 73.6370203 62.1330135 73.6370203 62.4134876 71.639842 102.51281 71.639842"></polygon>
                        <polygon id="Fill-67" fill="#C7C7C7" points="78.7507336 71.6397856 118.751298 71.6397856 110.762585 14.7949774 70.7620203 14.7949774"></polygon>
                        <polygon id="Fill-69" fill="#FFFFFF" points="80.0629233 71.6397856 120.063488 71.6397856 111.635158 14.3559255 71.635158 14.3559255"></polygon>
                        <polygon id="Fill-71" fill="#F4EEDF" points="118.192438 69.9991535 110.664786 16.4353837 73.9458239 16.4353837 81.4734763 69.9991535"></polygon>
                        <polygon id="Fill-73" fill="#6B2A31" points="122.540632 119.362923 125.62246 119.362923 118.914786 71.6400113 115.834086 71.6400113"></polygon>
                        <polygon id="Fill-75" fill="#6B2A31" points="85.5238713 119.362923 88.6062641 119.362923 81.8980248 71.6400113 78.8173251 71.6400113"></polygon>
                        <polygon id="Fill-77" fill="#6B2A31" points="79.0979684 73.6370203 119.196163 73.6370203 118.915124 71.639842 78.8174944 71.639842"></polygon>
                        <polygon id="Fill-79" fill="#805055" points="123.689165 119.362923 126.771558 119.362923 120.063318 71.6400113 116.982619 71.6400113"></polygon>
                        <polygon id="Fill-81" fill="#805055" points="86.6718397 119.362923 89.7536682 119.362923 83.0459932 71.6400113 79.9652935 71.6400113"></polygon>
                        <polygon id="Fill-83" fill="#805055" points="80.2458804 73.6370203 120.345203 73.6370203 120.0636 71.639842 79.9654063 71.639842"></polygon>
                        <polygon id="Fill-85" fill="#A9D8FF" points="105.589108 49.2124718 110.938995 49.2124718 107.887077 28.0053612 102.537754 28.0053612"></polygon>
                        <polygon id="Fill-87" fill="#4A41A3" points="98.0103273 49.2124718 103.35965 49.2124718 101.102314 33.1526524 95.7535553 33.1526524"></polygon>
                        <polygon id="Fill-89" fill="#E09F2F" points="90.4314898 49.2124718 95.7808126 49.2124718 93.7170429 34.8829007 88.3677201 34.8829007"></polygon>
                        <polygon id="Fill-91" fill="#DC3B00" points="82.8526524 49.2124718 88.2025395 49.2124718 86.6094244 37.4652935 81.2601016 37.4652935"></polygon>
                        <polygon id="Fill-93" fill="#9E9E9E" points="112.826298 51.901298 113.829684 51.901298 109.940293 24.2252257 108.937472 24.2252257"></polygon>
                        <polygon id="Fill-95" fill="#9E9E9E" points="113.829853 51.901298 113.689334 50.897912 80.364842 50.897912 80.5059255 51.901298"></polygon>
                        <path d="M105.201129,59.9023138 C105.560045,62.4525395 107.917269,64.5213883 110.468623,64.5213883 C113.019413,64.5213883 114.795937,62.4525395 114.437585,59.9023138 C114.079233,57.3515237 111.721445,55.2832393 109.17009,55.2832393 C106.619865,55.2832393 104.842777,57.3515237 105.201129,59.9023138" id="Fill-97" fill="#FFFFFF"></path>
                        <path d="M110.507223,64.5211061 C111.339052,64.5211061 112.126298,64.2936795 112.793905,63.8506772 C114.778668,62.5340858 115.073815,59.6971783 113.452483,57.5261851 C112.583973,56.3647856 111.297856,55.5769752 109.925395,55.3664786 L109.902822,56.7485327 C110.858804,56.8946953 111.754402,57.443228 112.358804,58.2519187 C113.4886,59.7637698 113.282054,61.7383747 111.900564,62.6554176 C111.230135,63.0995485 110.388149,63.232167 109.528104,63.0284424 C108.66693,62.8247178 107.892664,62.3094808 107.34526,61.5775395 L106.252709,62.3027088 C107.037698,63.3546275 108.150564,64.0944695 109.386456,64.3873589 C109.765124,64.4765237 110.141535,64.5211061 110.507223,64.5211061" id="Fill-99" fill="#A9D8FF"></path>
                        <path d="M93.2911964,59.9023138 C93.6489842,62.4474605 96.001693,64.5101016 98.5468397,64.5101016 C101.091986,64.5101016 102.86456,62.4474605 102.507336,59.9023138 C102.148984,57.357167 99.7962754,55.294526 97.251693,55.294526 C94.7071106,55.294526 92.9334086,57.357167 93.2911964,59.9023138" id="Fill-101" fill="#FFFFFF"></path>
                        <path d="M100.048307,64.2406321 C100.601354,64.0352144 101.08386,63.7191874 101.484537,63.2998871 C102.276298,62.4708804 102.647065,61.3382619 102.530813,60.1102709 C102.415124,58.8817156 101.824266,57.705079 100.86772,56.7970655 C99.5200903,55.5165914 97.6837472,55.0036117 96.073702,55.4556433 L96.6278781,56.8060948 C97.7503386,56.4906321 99.0291196,56.8484199 99.9676072,57.7389391 C101.342325,59.0442438 101.534199,61.0769752 100.396501,62.2677201 C100.11772,62.5594808 99.7819413,62.7801354 99.3976298,62.9223476 L100.048307,64.2406321 Z" id="Fill-103" fill="#E09F2F"></path>
                        <path d="M81.4330135,59.8190745 C81.7958804,62.4042889 84.1852709,64.4996614 86.7710497,64.4996614 C89.3556998,64.4996614 91.1564898,62.4042889 90.7930587,59.8190745 C90.4301919,57.23386 88.0396727,55.1384876 85.4550226,55.1384876 C82.8709368,55.1384876 81.0690181,57.23386 81.4330135,59.8190745" id="Fill-105" fill="#FFFFFF"></path>
                        <path d="M86.8718962,64.6660835 C89.494921,64.6660835 91.3301354,62.5312077 90.9616253,59.9081828 C90.5931151,57.2840293 88.1585779,55.1497178 85.5344244,55.1497178 L85.7302483,56.5430587 C87.5857788,56.5430587 89.3069977,58.052088 89.5682844,59.9081828 C89.8284424,61.7625847 88.5310384,63.271614 86.6760722,63.271614 C84.8205418,63.271614 83.0987585,61.7625847 82.8386005,59.9081828 L81.4458239,59.9081828 C81.8137698,62.5312077 84.2488713,64.6660835 86.8718962,64.6660835" id="Fill-107" fill="#DC3B00"></path>
                        <path d="M196.660214,38.5937359 L203.09588,22.2269187 L200.531546,16.3172122 C198.348138,17.0231941 196.249944,18.8375282 195.628047,21.0468962 L191.203104,36.7590858 C190.770824,38.2918172 191.6636,39.8838036 193.195203,40.3155192 C194.62184,40.7167607 196.119018,39.9724041 196.660214,38.5937359" id="Fill-109" fill="#1F428B"></path>
                        <path d="M177.157619,29.3723476 L191.838205,40.3887133 C193.181885,41.3841986 195.089898,41.0213318 195.974774,39.6009029 C196.811682,38.2589165 196.401411,36.4914221 195.058296,35.6539503 L179.303217,25.9299097 L177.157619,29.3723476 Z" id="Fill-111" fill="#1F428B"></path>
                        <path d="M201.361174,77.5625282 L201.361174,77.5625282 C199.136005,78.1816027 196.807562,76.9299097 195.997743,74.682167 L198.566591,49.5405192 L210.010722,49.0439052 L204.536682,72.2628668 C203.722912,75.2013544 203.602144,76.9400677 201.361174,77.5625282" id="Fill-113" fill="#183165"></path>
                        <path d="M200.923025,111.516817 L193.900451,110.718849 L196.144244,75.0653499 C196.294921,72.3954853 198.365463,70.3384876 200.632957,70.6059819 C202.919639,70.876298 204.421896,73.3920993 203.873928,76.0365688 L200.923025,111.516817 Z" id="Fill-115" fill="#183165"></path>
                        <path d="M177.764391,22.3476298 C177.62105,22.1681716 177.464729,21.9819413 177.248025,21.9080135 C176.725451,21.7319413 176.23956,22.3081264 176.140801,22.8498871 C176.124436,22.9497743 176.110892,23.0553047 176.047122,23.1354402 C175.89193,23.3278781 175.584368,23.226298 175.366535,23.1094808 C174.40886,22.5959368 173.451749,22.0829571 172.494074,21.5705418 C172.056716,21.3357788 171.576467,21.0936795 171.087754,21.1766366 C170.473194,21.2799097 170.040914,21.8950339 169.977709,22.515237 C169.916196,23.1354402 170.150959,23.7477427 170.450056,24.2934537 C171.48053,26.1698646 173.266084,27.5073363 175.095655,28.6173815 C175.947235,29.1337472 176.930305,29.6314898 177.898702,29.3955982 C181.801637,28.4452596 179.205135,24.1506772 177.764391,22.3476298" id="Fill-117" fill="#F9CAC2"></path>
                        <path d="M214.615858,77.5955982 L214.615858,77.5955982 C216.911005,77.8365688 219.012585,76.21693 219.456716,73.8653499 L219.284029,50.5278781 L206.431885,49.4251693 L210.641253,72.8980813 C210.572404,75.3066591 212.303217,77.3540632 214.615858,77.5955982" id="Fill-119" fill="#183165"></path>
                        <path d="M213.7864,111.123307 L221.137415,111.123307 L219.495203,74.094526 C219.402652,71.4173251 217.133465,69.3812077 214.574774,69.6797404 C211.992381,69.9827878 210.229402,72.5273702 210.770034,75.1740971 L213.7864,111.123307 Z" id="Fill-121" fill="#183165"></path>
                        <path d="M197.875959,51.0790632 C197.875959,51.0790632 203.668849,53.8081828 209.151354,53.5999436 C213.784537,53.4244357 219.690293,51.4994921 219.690293,51.4994921 L218.182957,18.2884312 C218.124831,17.0056998 217.161512,15.9481377 215.890632,15.7715011 C214.065011,15.5186795 211.297517,15.1840293 208.342099,15.0119074 C206.355079,14.896219 203.737133,15.4221783 201.626524,15.9729684 C199.463431,16.5367381 197.95553,18.4955418 197.949887,20.7319977 L197.875959,51.0790632 Z" id="Fill-123" fill="#3761BA"></path>
                        <path d="M222.288883,37.5761287 L215.422065,22.3272573 L216.002201,15.8566027 C218.250508,16.3193567 220.534932,17.8938488 221.393849,20.0219526 L227.512923,35.1545711 C228.10886,36.6303047 227.39667,38.3108916 225.920372,38.9079571 C224.547912,39.4621332 222.977935,38.8876411 222.288883,37.5761287" id="Fill-125" fill="#1F428B"></path>
                        <path d="M240.104571,25.2993792 L223.816761,33.7604402 C222.337077,34.5409142 221.83877,36.4173251 222.734368,37.8298533 C223.582562,39.1656321 225.352878,39.5606659 226.689221,38.7136005 L242.278386,28.7237585 L240.104571,25.2993792 Z" id="Fill-127" fill="#1F428B"></path>
                        <path d="M242.532167,21.9748307 C242.722912,21.8478555 242.92833,21.7180587 243.157449,21.7146727 C243.707675,21.7056433 243.996614,22.4020316 243.924379,22.9477427 C243.910835,23.0481941 243.890519,23.1531603 243.92833,23.2485327 C244.015801,23.4793454 244.340293,23.4765237 244.584086,23.4319413 C245.651806,23.2344244 246.720655,23.0374718 247.78781,22.8410835 C248.277088,22.7507901 248.806998,22.66614 249.247178,22.8941309 C249.801919,23.1802483 250.025959,23.8980813 249.897291,24.5075621 C249.767494,25.1170429 249.357223,25.6288939 248.904628,26.0572235 C247.35158,27.5301354 245.243792,28.2603837 243.162528,28.7592551 C242.194131,28.9917607 241.106095,29.16614 240.255643,28.6469526 C236.829007,26.5521445 240.610609,23.2536117 242.532167,21.9748307" id="Fill-129" fill="#F9CAC2"></path>
                        <path d="M211.966648,15.3022573 L206.695767,23.0607223 L204.675451,15.3022573 C205.961569,15.0799097 207.247686,14.9484199 208.34193,15.0116253 C209.603781,15.085553 210.831208,15.1888262 211.966648,15.3022573" id="Fill-131" fill="#EAAFA7"></path>
                        <polygon id="Fill-133" fill="#EAAFA7" points="204.920203 18.9062641 212.038713 18.3729684 210.818623 10.4739842 204.376749 10.9119074"></polygon>
                        <path d="M201.949718,2.79215576 C201.809763,3.7035553 200.511795,8.96935666 203.711005,13.8632619 C203.711005,13.8632619 209.705361,14.0336907 210.674887,9.33955982 C210.674887,9.33955982 212.431095,2.11664786 209.278725,1.19621896 C206.125226,0.276354402 202.301862,0.498702032 201.949718,2.79215576" id="Fill-135" fill="#F9CAC2"></path>
                        <path d="M207.105361,2.88250564 C207.105361,2.88250564 205.780869,4.72223476 201.105361,5.33566591 C201.105361,5.33566591 199.112698,0.966027088 203.78877,0.200225734 C208.463149,-0.566139955 210.674774,1.11952596 210.674774,1.11952596 C210.674774,1.11952596 215.323194,2.11670429 211.966535,10.6234763 C211.57263,11.6217833 211.068679,12.0794582 211.068679,12.0794582 C211.068679,12.0794582 209.842946,12.1562077 209.766196,9.70417607 C209.766196,9.70417607 208.997009,9.9727991 207.881885,5.79503386 C207.105361,2.88250564 208.582788,3.95530474 207.105361,2.88250564" id="Fill-137" fill="#030502"></path>
                        <polygon id="Fill-139" fill="#1F428B" points="207.105361 22.4572799 209.225 17.0819977 211.984594 15.013149 213.364391 16.1626975"></polygon>
                        <path d="M209.224887,17.081772 C209.224887,17.081772 211.294865,17.7713883 211.294865,20.0710497 L214.399831,15.5761287 C214.399831,15.5761287 213.823081,13.8633747 211.754233,13.8633747 L209.224887,17.081772 Z" id="Fill-141" fill="#183165"></path>
                        <polygon id="Fill-143" fill="#1F428B" points="203.246501 19.8414786 205.546163 19.1518623 204.626298 15.0130361"></polygon>
                        <path d="M206.538826,22.4572799 C206.538826,22.4572799 205.316479,17.771614 204.39605,18.2315463 L203.246501,19.8415914 C203.246501,19.8415914 203.016817,16.1626975 204.626298,15.013149 L206.538826,22.4572799 Z" id="Fill-145" fill="#183165"></path>
                        <path d="M219.630361,111.123307 L215.492099,111.123307 C215.492099,111.123307 216.181716,115.952314 209.974041,116.641366 C209.974041,116.641366 208.133747,117.100734 208.363995,118.940463 L219.630361,118.940463 L219.630361,111.123307 Z" id="Fill-147" fill="#000000"></path>
                        <path d="M219.630361,118.940237 L208.363995,118.940237 C208.305305,118.473533 208.38149,118.095993 208.525959,117.790688 L219.630361,117.790688 L219.630361,118.940237 Z" id="Fill-149" fill="#3A1C09"></path>
                        <path d="M198.027483,111.026919 L193.900508,110.718792 C193.900508,110.718792 194.229515,115.585609 187.986287,115.812472 C187.986287,115.812472 186.118341,116.134707 186.211456,117.985722 L197.446219,118.822065 L198.027483,111.026919 Z" id="Fill-151" fill="#000000"></path>
                        <path d="M197.446106,118.822291 L186.211343,117.985948 C186.188205,117.514729 186.290914,117.143397 186.457957,116.850508 L197.531321,117.676129 L197.446106,118.822291 Z" id="Fill-153" fill="#3A1C09"></path>
                        <path d="M208.207562,7.48120767 C208.118397,7.36608352 208.693454,5.25886005 209.689503,5.64147856 C210.686117,6.0246614 210.532054,9.89542889 209.383634,10.240237 L208.207562,7.48120767 Z" id="Fill-155" fill="#F9CAC2"></path>
                        <polygon id="Fill-157" fill="#F9CAC2" points="69.5307562 105.628781 69.0589729 115.713995 65.0747743 116.634424 64.1374153 101.609029"></polygon>
                        <path d="M67.4426072,85.1744357 L67.4426072,85.1744357 C65.1079571,85.3742099 63.0091986,83.7556998 62.6079571,81.4475734 L58.0120203,43.7280474 L72.0041196,45.940237 L71.5735327,80.637754 C71.5927201,82.9977991 69.7930587,84.9740971 67.4426072,85.1744357" id="Fill-159" fill="#183165"></path>
                        <polygon id="Fill-161" fill="#F9CAC2" points="48.2304176 106.02009 44.790237 114.363205 41.5481377 112.252596 43.6000564 104.376749"></polygon>
                        <path d="M54.3201467,80.8438488 L54.3201467,80.8438488 C51.9809819,80.7129233 50.1316591,78.8145034 50.0594244,76.4730813 L50.1604402,45.3207111 L67.033465,46.4888826 L59.0498307,76.9341422 C58.7360609,79.2727427 56.6756772,80.9759029 54.3201467,80.8438488" id="Fill-163" fill="#183165"></path>
                        <path d="M41.5669865,109.429233 L46.6318849,111.116027 L58.998702,78.2142212 C59.964842,75.7757336 58.6443002,73.0325056 56.1363995,72.2655756 C53.6070542,71.4913093 50.9603273,73.0612867 50.4247743,75.6521445 L41.5669865,109.429233 Z" id="Fill-165" fill="#183165"></path>
                        <path d="M69.5968397,111.460045 L64.1448081,111.169977 L62.6227991,78.4143341 C62.5708804,75.7930023 64.7672686,73.6846501 67.3846501,73.8437923 C70.026298,74.0046275 71.9568849,76.4013544 71.55,79.0153499 L69.5968397,111.460045 Z" id="Fill-167" fill="#183165"></path>
                        <path d="M84.7401806,26.0822235 L71.017833,17.481772 L65.3524831,17.7763544 C64.0866817,20.6725169 65.4083521,24.0461061 68.3045147,25.3124718 L82.1357788,31.3147291 C83.6165914,31.961456 85.3417607,31.2859481 85.9890519,29.8051354 C86.5906321,28.4275959 86.0505643,26.8181151 84.7401806,26.0822235" id="Fill-169" fill="#1F428B"></path>
                        <path d="M49.9134876,48.4492099 C49.9134876,48.4492099 56.4022009,50.4689616 62.7848194,49.6980813 C68.0873025,49.0564334 72.1854966,47.9170429 72.1854966,47.9170429 L71.7645034,35.8391648 L71.1657449,17.4655756 C71.1657449,17.4655756 65.736851,15.3436795 60.497009,15.5163657 C58.5370767,15.5801354 54.713149,16.261851 51.4975734,16.9006772 C48.5382054,17.488149 46.6036682,20.3425508 47.1578442,23.3075621 C48.0207111,27.9204289 49.1279345,34.8267494 49.3683409,40.9582393 C49.5269187,45.0248307 49.9134876,48.4492099 49.9134876,48.4492099" id="Fill-171" fill="#3761BA"></path>
                        <path d="M53.7299097,38.7904628 L53.5572235,22.0788375 L51.4223476,19.0867381 C50.6085779,17.9450903 49.0148984,17.6211625 47.8670429,18.4270316 C46.1362302,19.6414786 45.1463883,21.7729684 45.4974041,24.0032167 L47.917833,39.4089729 C48.1689616,41.005474 49.66614,42.0957675 51.2626411,41.8457675 C52.7474041,41.6121332 53.8145598,40.2915914 53.7299097,38.7904628" id="Fill-173" fill="#1F428B"></path>
                        <path d="M80.9981377,15.4180023 L80.9213883,27.6488149 C80.5556998,29.3073928 81.6815463,30.9253386 83.3643905,31.1567156 C84.9552483,31.3768059 86.4225169,30.2650677 86.6437359,28.6736456 L85.9507336,16.1014108 L80.9981377,15.4180023 Z" id="Fill-175" fill="#1F428B"></path>
                        <path d="M64.0312077,15.9112302 L60.1920429,23.1228555 L55.560553,16.1403499 C57.2862867,15.8260158 59.0994921,15.5619074 60.4967833,15.5161964 C61.6322235,15.4789503 62.8393341,15.6392212 64.0312077,15.9112302" id="Fill-177" fill="#EAAFA7"></path>
                        <polygon id="Fill-179" fill="#EAAFA7" points="57.3826749 17.8844808 62.8612302 17.7038939 62.637754 10.9070542 57.1591986 11.0876411"></polygon>
                        <path d="M65.8813205,4.21258465 C65.8813205,4.21258465 67.0427201,10.9484763 63.7904628,14.2001693 C63.7904628,14.2001693 58.8745485,14.9744357 57.5201467,10.0968962 C56.1646163,5.21879233 56.8085214,2.50942438 57.8604402,1.69621896 C58.9123589,0.883577878 65.6826749,1.07996614 65.8813205,4.21258465" id="Fill-181" fill="#F9CAC2"></path>
                        <path d="M59.3765801,4.43775395 C59.3133747,4.20750564 62.0475734,7.10479684 66.751298,7.05231377 C66.751298,7.05231377 68.9601016,-0.548702032 60.1920429,0.0319977427 C60.1920429,0.0319977427 57.028386,0.0319977427 56.7518623,1.83165914 C56.7518623,1.83165914 51.4155192,5.16800226 57.1920429,12.0771445 C57.1920429,12.0771445 58.8991535,11.993623 58.9646163,9.90332957 C59.0289503,7.81247178 58.7829007,9.72895034 58.9646163,9.61269752 C59.1452032,9.4964447 60.7106659,9.30852144 59.3765801,4.43775395" id="Fill-183" fill="#030502"></path>
                        <path d="M58.5498871,6.79125282 C58.2886005,6.78335214 58.0606095,6.9035553 57.9341986,7.22522573 C57.8145598,7.52658014 57.8647856,7.86574492 57.91614,8.18685102 C58.0154628,8.7974605 58.1266366,9.43854402 58.5199774,9.91540632 C59.3918736,10.9707111 59.963544,9.50852144 60.0425508,8.75682844 C60.0679458,8.51077878 60.0848758,8.26134312 60.0357788,8.01867946 C59.93307,7.51529345 59.1531603,6.81044018 58.5498871,6.79125282" id="Fill-185" fill="#F9CAC2"></path>
                        <path d="M55.6576749,15.2446953 L57.2778781,14.6944695 L59.3766366,21.8948081 L57.3309255,18.8107223 C56.9590293,18.2486456 56.727088,18.6222348 56.0702032,18.4670429 L54.8563205,19.9613995 L54.5312641,16.9913093 C54.446614,16.2164786 54.9172686,15.4873589 55.6576749,15.2446953" id="Fill-187" fill="#1F428B"></path>
                        <path d="M61.9397856,19.8389955 L63.5882054,18.471614 C63.5882054,18.471614 64.5921558,18.3993792 65.0244357,19.5015237 C65.0244357,19.5015237 64.3308691,15.3203725 62.752991,14.4230813 L61.9397856,19.8389955 Z" id="Fill-189" fill="#1F428B"></path>
                        <polygon id="Fill-191" fill="#FFFFFF" points="95.6923251 26.2921558 83.405079 27.012246 82.1849887 6.226693 92.619526 5.61495485 93.6387133 6.46653499 94.5788939 7.30344244"></polygon>
                        <polygon id="Fill-193" fill="#F4EEDF" points="92.6193567 5.61489842 92.7536682 7.91455982 94.5792889 7.303386"></polygon>
                        <polygon id="Fill-195" fill="#A9D8FF" points="88.5687359 13.2395034 83.5060948 13.5363431 83.2098194 8.47426637 88.2718962 8.1768623"></polygon>
                        <path d="M89.4444131,9.00090293 L93.7344808,8.74920993" id="Stroke-197" stroke="#A3B3CB"></path>
                        <path d="M89.5403499,10.6429458 L93.8304176,10.3912528" id="Stroke-199" stroke="#A3B3CB"></path>
                        <path d="M89.6367946,12.2847065 L93.9268623,12.0335779" id="Stroke-201" stroke="#A3B3CB"></path>
                        <path d="M89.7337472,13.9272573 L94.0232506,13.6761287" id="Stroke-203" stroke="#A3B3CB"></path>
                        <path d="M83.646219,15.9324492 L94.1191309,15.3184537" id="Stroke-205" stroke="#A3B3CB"></path>
                        <path d="M83.7426637,17.5747743 L94.21614,16.9607788" id="Stroke-207" stroke="#A3B3CB"></path>
                        <path d="M83.8386005,19.2168172 L94.3120767,18.6028217" id="Stroke-209" stroke="#A3B3CB"></path>
                        <path d="M83.935553,20.8590858 L94.4079007,20.2456546" id="Stroke-211" stroke="#A3B3CB"></path>
                        <path d="M84.0314334,22.5019187 L94.5043454,21.8879233" id="Stroke-213" stroke="#A3B3CB"></path>
                        <path d="M84.1278781,24.1442438 L94.6002257,23.5308126" id="Stroke-215" stroke="#A3B3CB"></path>
                        <path d="M84.2243228,25.7867946 L94.6972348,25.1727991" id="Stroke-217" stroke="#A3B3CB"></path>
                        <path d="M82.8168172,15.5072799 C82.8168172,15.5072799 83.5137698,15.0558126 83.7191874,13.9717269 C83.9251693,12.8876411 83.7146727,12.4339165 84.4731377,11.8684537 C85.230474,11.302991 84.7869074,10.2138262 84.7869074,10.2138262 C84.7869074,10.2138262 83.8072235,11.328386 82.965237,11.4051354 C82.1232506,11.4818849 80.0786682,13.6009594 80.9979684,15.4181151 C80.9979684,15.4181151 82.1221219,16.3927201 82.8168172,15.5072799" id="Fill-219" fill="#F9CAC2"></path>
                        <path d="M67.5500564,41.8204853 L51.6510722,36.3187923 C50.0540068,35.7420429 48.3051354,36.6511851 47.8581828,38.2888826 C47.4354966,39.838544 48.3485892,41.4373025 49.8988149,41.8599887 L66.4659707,45.7933973 L67.5500564,41.8204853 Z" id="Fill-221" fill="#1F428B"></path>
                        <path d="M71.3774831,42.393623 C71.5857223,42.4658578 71.8041196,42.5476862 71.9395598,42.7203725 C72.2663093,43.135158 71.9023138,43.7604402 71.4435102,44.0222912 C71.3594244,44.0713883 71.2674379,44.1170993 71.2155192,44.1989278 C71.0908014,44.4009594 71.2815463,44.647009 71.4576185,44.8067156 C72.2284989,45.5081828 72.9988149,46.2090858 73.7696953,46.9094244 C74.1218397,47.2299661 74.4943002,47.5860609 74.5772573,48.0550226 C74.6799661,48.6441874 74.2617946,49.2322235 73.7217269,49.4878668 C73.1816591,49.7429458 72.5524266,49.7265801 71.9621332,49.6306433 C69.9361738,49.3005079 68.1545711,48.1154063 66.5642777,46.8168736 C65.823307,46.2119074 65.0586343,45.4833521 64.9610045,44.5318849 C64.569921,40.6989278 69.2849323,41.6690181 71.3774831,42.393623" id="Fill-223" fill="#F9CAC2"></path>
                        <path d="M65.6922686,41.1773138 C65.6273702,41.1976298 64.1567156,42.0486456 63.8429458,45.2337472 C63.8429458,45.2337472 64.9281603,46.4126411 65.6567156,45.6592551 C65.6567156,45.6592551 66.0382054,42.9781038 67.3243228,41.7427765 C67.3243228,41.7427765 66.6572799,40.875395 65.6922686,41.1773138" id="Fill-225" fill="#000000"></path>
                        <path d="M64.6231377,45.6958239 C65.4148984,45.9159142 66.2032731,45.5615124 66.385553,44.9063205 C66.5672686,44.2494357 66.0723476,43.5400677 65.2805869,43.3199774 C64.4888262,43.1010158 63.6987585,43.4554176 63.5176072,44.1111738 C63.3358916,44.76693 63.831377,45.4774266 64.6231377,45.6958239" id="Fill-227" fill="#60B8FF"></path>
                        <path d="M63.4971783,44.2100451 C63.7849887,43.7128668 64.469526,43.4713318 65.1568849,43.6615124 C65.9091422,43.8697517 66.3922122,44.5204289 66.2827314,45.1474041 C65.9954853,45.6445824 65.3103837,45.8866817 64.6230248,45.6959368 C63.8702032,45.4882619 63.3876975,44.836456 63.4971783,44.2100451" id="Fill-229" fill="#1F428B"></path>
                        <path d="M41.1839729,111.116196 C41.1839729,111.116196 42.5,110.402878 43.0411964,111.521953 C43.5835214,112.639898 45.8577878,112.885384 45.8577878,112.885384 C45.8577878,112.885384 47.729684,116.191253 51.4238149,116.467777 C51.4238149,116.467777 53.1845372,116.933352 53.1066591,119.006716 C53.1066591,119.006716 46.9125282,119.756716 40.5643341,118.018002 C40.5643341,118.018002 39.3256208,113.307506 41.1839729,111.116196" id="Fill-231" fill="#6B2A31"></path>
                        <path d="M64.290237,112.910045 C64.290237,112.910045 65.5187923,112.05395 66.1807562,113.105869 C66.8444131,114.157223 69.1322235,114.147065 69.1322235,114.147065 C69.1322235,114.147065 71.3602144,117.222686 75.0633747,117.085553 C75.0633747,117.085553 76.8630361,117.352483 77.018228,119.420203 C77.018228,119.420203 70.9465576,120.856998 64.4431716,119.837246 C64.4431716,119.837246 62.6869639,115.294921 64.290237,112.910045" id="Fill-233" fill="#6B2A31"></path>
                        <polygon id="Fill-235" fill="#EAAFA7" points="148.281208 106.673702 147.954458 113.757223 151.466309 113.481264 152.343849 106.124605"></polygon>
                        <polygon id="Fill-237" fill="#EAAFA7" points="160.556603 108.743115 161.282336 115.796727 164.714052 115.00553 164.493962 107.59921"></polygon>
                        <polygon id="Fill-239" fill="#1F428B" points="176.677201 85.0727991 182.449774 85.0727991 182.449774 79.3002257 176.677201 79.3002257"></polygon>
                        <polygon id="Fill-241" fill="#1F428B" points="178.395598 117.676072 180.905192 117.676072 180.905192 82.3583521 178.395598 82.3583521"></polygon>
                        <path d="M182.601975,114.734199 L176.698476,114.734199 C174.073758,114.734199 171.944526,116.862302 171.944526,119.48702 L187.354797,119.48702 C187.354797,116.862302 185.226129,114.734199 182.601975,114.734199" id="Fill-242" fill="#1F428B"></path>
                        <path d="M188.682393,80.9920993 L170.617494,80.9920993 C169.247291,80.9920993 168.136682,79.8809255 168.136682,78.5112867 L168.136682,77.6179458 C168.136682,76.2477427 169.247291,75.1371332 170.617494,75.1371332 L188.682393,75.1371332 C190.053725,75.1371332 191.163205,76.2477427 191.163205,77.6179458 L191.163205,78.5112867 C191.163205,79.8809255 190.053725,80.9920993 188.682393,80.9920993" id="Fill-243" fill="#1F428B"></path>
                        <path d="M155.465463,67.6089729 L168.253273,62.897912 C169.564221,62.3522009 170.130248,60.8047968 169.481828,59.5418172 C168.867833,58.3465576 167.402257,57.8747743 166.207562,58.4898984 L153.892664,64.5463318 L155.465463,67.6089729 Z" id="Fill-244" fill="#9E9E9E"></path>
                        <path d="M176.998871,22.6339165 C176.998871,22.6339165 170.474041,23.0244357 167.059255,29.3675508 C163.643341,35.7106659 170.742099,35.7106659 169.193567,38.9313205 C167.64447,42.1508465 163.997178,58.7417043 172.895598,59.9126975 C181.795147,61.0836907 191.209368,37.0769187 183.086907,27.025 C183.086907,27.025 181.474605,22.5362867 176.998871,22.6339165" id="Fill-245" fill="#030502"></path>
                        <path d="M170.31947,60.9808126 L176.247799,41.1106095 L173.838093,40.1721219 L173.561569,40.1817156 C172.585835,40.212754 171.73877,40.8611738 171.449831,41.7928894 L165.661456,59.4988713 C165.316648,60.8053047 166.096558,62.1450339 167.402991,62.4904063 C168.618567,62.8109481 169.879289,62.1580135 170.31947,60.9808126" id="Fill-246" fill="#1F428B"></path>
                        <path d="M155.282506,67.1774831 C155.130135,67.3067156 154.957449,67.4319977 154.765011,67.5601016 C154.048307,68.0352709 153.239616,68.4483634 152.792664,69.1831264 C152.733409,69.2807562 152.673589,69.3896727 152.56693,69.4314334 C152.316366,69.5273702 152.122799,69.1577314 152.197291,68.8992664 C152.271219,68.6424944 152.472686,68.4235327 152.490745,68.1560384 C151.555643,68.0076185 150.658352,68.6391084 149.7114,68.6441874 C149.149323,68.647009 148.605305,68.4274831 148.127314,68.1306433 C147.838939,67.9523138 147.554515,67.7288375 147.426975,67.4133747 C147.216479,66.888544 147.505982,66.2897856 147.892551,65.8778217 C148.462528,65.2711625 149.231151,64.8981377 149.991874,64.5612302 C151.911174,63.7113431 154.855869,62.0031038 155.889729,64.8507336 C156.265576,65.8879797 156.016704,66.5561512 155.282506,67.1774831" id="Fill-247" fill="#EAAFA7"></path>
                        <path d="M164.810045,109.638093 L160.251354,109.672517 L157.367043,87.3316591 C157.144131,85.1499436 158.829233,83.24193 161.022235,83.194526 C163.233296,83.1471219 165.006998,85.012246 164.84842,87.218228 L164.810045,109.638093 Z" id="Fill-248" fill="#183165"></path>
                        <path d="M148.496727,82.7132054 L148.496727,82.7132054 C149.523251,84.3808126 151.656433,84.9863431 153.406998,84.1088036 L181.865801,74.3503386 L175.868623,63.9620767 L149.490519,77.6782167 C147.895711,78.8390519 147.462302,81.0326185 148.496727,82.7132054" id="Fill-249" fill="#183165"></path>
                        <path d="M157.931659,89.4510158 L157.931659,89.4510158 C159.052991,91.0576749 161.216648,91.5396163 162.914165,90.5610609 L183.339108,79.7721219 C186.479063,78.1124153 188.332336,74.7467269 188.054684,71.2066591 L187.816535,68.1592551 L180.268567,66.35 L158.633126,84.3680587 C157.107731,85.618623 156.801862,87.8336343 157.931659,89.4510158" id="Fill-250" fill="#183165"></path>
                        <path d="M152.730869,106.997178 L147.954345,107.003386 L147.954345,80.7658014 C147.970147,78.5733634 149.854458,76.8606095 152.038995,77.0530474 C154.243284,77.248307 155.801975,79.2951467 155.402991,81.4717833 L152.730869,106.997178 Z" id="Fill-251" fill="#183165"></path>
                        <path d="M173.828894,40.184763 L177.92991,39.5606095 L186.149436,40.2965011 C186.149436,40.2965011 188.634763,50.1108352 188.651129,50.3975169 C188.651129,50.3975169 187.830587,58.2366817 187.816479,58.5306998 C187.644357,62.1125282 187.816479,68.1593679 187.816479,68.1593679 C187.816479,68.1593679 180.63702,71.9042889 171.76456,66.9810384 C171.182731,66.6576749 170.888713,65.98386 171.055192,65.3388262 L173.118397,57.3591422 L170.776975,51.7428894 C170.152257,50.2474041 170.168059,48.5617381 170.816479,47.0758465 L173.828894,40.184763 Z" id="Fill-252" fill="#3761BA"></path>
                        <polygon id="Fill-253" fill="#EAAFA7" points="180.756885 40.7948646 175.281151 41.0031038 174.807675 32.4709368 180.283973 32.2626975"></polygon>
                        <path d="M175.004966,38.2917043 C175.908465,38.2696953 178.156772,38.0772573 180.645485,36.9198081 C180.645485,36.9198081 181.030926,39.838544 183.330023,40.0439616 C183.330023,40.0439616 178.61614,44.8893341 174.37912,40.7917043 L174.489165,38.7956546 C174.503837,38.5185666 174.728442,38.2984763 175.004966,38.2917043" id="Fill-254" fill="#1F428B"></path>
                        <path d="M188.442099,60.2594244 L184.407675,47.4721783 L183.540858,42.7769187 C183.284086,41.3852709 184.43307,40.1363995 185.839955,40.2752257 C187.590519,40.447912 189.161061,41.4236456 190.092777,42.9157449 L193.319074,59.9196953 C193.345034,61.2707111 192.270542,62.3875282 190.92009,62.4140519 C189.663318,62.4383183 188.592212,61.507167 188.442099,60.2594244" id="Fill-255" fill="#1F428B"></path>
                        <path d="M172.036174,28.6839729 C171.816084,28.8244921 171.072856,32.8555305 174.118002,37.5970655 C174.118002,37.5970655 180.038431,36.2968397 179.485948,32.2624153 C178.932336,28.2291196 177.953217,24.9113995 172.036174,28.6839729" id="Fill-256" fill="#F9CAC2"></path>
                        <path d="M175.978217,61.7479684 L190.497968,57.8077878 C191.867607,57.4302483 193.267156,58.3021445 193.532393,59.6954853 C193.785214,61.0154628 192.919526,62.2891648 191.600113,62.5408578 L176.623251,65.1305869 L175.978217,61.7479684 Z" id="Fill-257" fill="#1F428B"></path>
                        <path d="M147.627596,112.130192 C147.627596,112.130192 146.274887,115.319244 142.827935,116.467099 C142.827935,116.467099 141.145655,116.033126 141.188544,118.370034 C141.188544,118.370034 148.270937,119.104797 151.599944,117.717099 C151.599944,117.717099 152.743284,112.844074 151.268115,112.419131 C149.792381,111.994187 150.276016,113.101975 149.257393,113.372856 C148.239898,113.6443 149.064955,111.936061 147.627596,112.130192" id="Fill-258" fill="#000000"></path>
                        <path d="M141.395147,117.152991 C141.262528,117.436851 141.178442,117.827935 141.1886,118.369695 C141.1886,118.369695 148.270993,119.105023 151.6,117.717325 C151.6,117.717325 151.725847,117.178386 151.840406,116.444752 C147.945372,117.477483 143.68465,117.340914 141.395147,117.152991" id="Fill-259" fill="#E09F2F"></path>
                        <path d="M160.414955,114.118059 C160.414955,114.118059 159.06281,117.307111 155.616422,118.454966 C155.616422,118.454966 153.933578,118.020993 153.976467,120.357901 C153.976467,120.357901 161.059424,121.093228 164.387302,119.704966 C164.387302,119.704966 165.530643,114.832506 164.05491,114.407562 C162.579176,113.982054 163.06281,115.090406 162.04588,115.360722 C161.027822,115.632167 161.851749,113.925056 160.414955,114.118059" id="Fill-260" fill="#000000"></path>
                        <path d="M154.181377,119.14193 C154.049887,119.42579 153.966366,119.815745 153.976524,120.357506 C153.976524,120.357506 161.059481,121.093397 164.387359,119.705135 C164.387359,119.705135 164.513205,119.166196 164.62833,118.433126 C160.732731,119.465293 156.471445,119.328725 154.181377,119.14193" id="Fill-261" fill="#E09F2F"></path>
                        <path d="M179.005474,67.6365688 L179.005474,68.5880361 C179.005474,69.2302483 178.484594,69.7511287 177.841817,69.7511287 L149.675339,69.7511287 C149.033691,69.7511287 148.512246,69.2302483 148.512246,68.5880361 L148.512246,67.6365688 L179.005474,67.6365688 Z" id="Fill-262" fill="#DC3B00"></path>
                        <path d="M148.512133,67.6365688 L169.509876,67.6365688 L163.450621,53.1213318 L143.191027,53.1213318 C142.840011,53.1213318 142.601862,53.4785553 142.737867,53.8030474 L148.512133,67.6365688 Z" id="Fill-263" fill="#DC3B00"></path>
                        <path d="M162.604515,53.1215011 L168.664334,67.6367381 L148.511964,67.6367381 L142.737698,53.8032167 C142.602257,53.4787246 142.840406,53.1215011 143.191422,53.1215011 L162.604515,53.1215011 Z" id="Fill-264" fill="#FF6C36"></path>
                        <path d="M153.800564,60.9830135 C153.800564,61.8187923 154.477765,62.4965576 155.314108,62.4965576 C156.149887,62.4965576 156.827088,61.8187923 156.827088,60.9830135 C156.827088,60.1483634 156.149887,59.4705982 155.314108,59.4705982 C154.477765,59.4705982 153.800564,60.1483634 153.800564,60.9830135" id="Fill-265" fill="#F4EEDF"></path>
                        <path d="M169.509876,67.6365688 L179.005361,67.6365688 L179.005361,68.5880361 C179.005361,69.2302483 178.484481,69.7511287 177.842269,69.7511287 L169.509876,69.7511287 L169.509876,67.6365688 Z" id="Fill-266" fill="#DC3B00"></path>
                        <path d="M168.136512,68.6935666 C168.136512,69.277088 168.609424,69.7511287 169.19351,69.7511287 C169.776467,69.7511287 170.249944,69.277088 170.249944,68.6935666 C170.249944,68.1100451 169.776467,67.6365688 169.19351,67.6365688 C168.609424,67.6365688 168.136512,68.1100451 168.136512,68.6935666" id="Fill-267" fill="#805055"></path>
                        <path d="M177.20886,63.9623025 C177.20886,64.1581264 176.671614,66.0130926 174.817777,65.9634312 C172.963375,65.9148984 172.788995,65.1395034 171.987077,65.7681716 C171.186287,66.3968397 171.108973,66.3748307 170.035609,66.35 C168.962246,66.324605 168.901862,66.1795711 168.664278,65.611851 C168.427822,65.0430023 168.686851,64.2072235 169.751185,63.2788939 C170.816084,62.3528217 175.186851,61.4374718 175.978047,61.7478555 C176.769244,62.0593679 177.20886,63.9623025 177.20886,63.9623025" id="Fill-268" fill="#F7BDB2"></path>
                        <path d="M170.914108,28.0011851 C170.840745,28.5147291 172.490293,31.7760158 176.24763,32.416535 C180.00553,33.0564898 178.560835,38.4746614 182.227314,39.6789503 C182.227314,39.6789503 184.722799,28.5869639 181.209819,25.6591986 C177.69684,22.7314334 171.64605,22.8284989 170.914108,28.0011851" id="Fill-269" fill="#030502"></path>
                        <path d="M139.636005,119.315576 L136.904628,119.315576 L136.904628,78.6496614 C136.904628,76.7128668 135.327314,75.137246 133.391084,75.137246 C131.453725,75.137246 129.87754,76.7128668 129.87754,78.6496614 L129.87754,119.315576 L127.145034,119.315576 L127.145034,78.6496614 C127.145034,75.2060948 129.946953,72.4047404 133.391084,72.4047404 C136.83465,72.4047404 139.636005,75.2060948 139.636005,78.6496614 L139.636005,119.315576 Z" id="Fill-270" fill="#6B2A31"></path>
                        <path d="M200.923025,119.315576 L198.189955,119.315576 L198.189955,78.6496614 C198.189955,76.7128668 196.61377,75.137246 194.676975,75.137246 C192.739616,75.137246 191.163431,76.7128668 191.163431,78.6496614 L191.163431,119.315576 L188.430926,119.315576 L188.430926,78.6496614 C188.430926,75.2060948 191.232844,72.4047404 194.676975,72.4047404 C198.12167,72.4047404 200.923025,75.2060948 200.923025,78.6496614 L200.923025,119.315576 Z" id="Fill-271" fill="#6B2A31"></path>
                        <polygon id="Fill-272" fill="#805055" points="125.680587 72.5349887 202.581264 72.5349887 202.581264 69.5231377 125.680587 69.5231377"></polygon>
                        <polygon id="Fill-273" fill="#6B2A31" points="125.680587 75.1371332 202.581264 75.1371332 202.581264 72.5349887 125.680587 72.5349887"></polygon>
                    </g>
                </g>
            </g>
        </g>
    </g>
</svg>