<?xml version="1.0" encoding="UTF-8"?>
<svg width="17px" height="16px" viewBox="0 0 17 16" version="1.1" xmlns="http://www.w3.org/2000/svg" xmlns:xlink="http://www.w3.org/1999/xlink">
    <!-- Generator: Sketch 56.3 (81716) - https://sketch.com -->
    <title>dollar (1)</title>
    <desc>Created with Sketch.</desc>
    <g id="Page-1" stroke="none" stroke-width="1" fill="none" fill-rule="evenodd">
        <g id="Hey-Digital_Landing-Page-Design-Case-Studies" transform="translate(-570.000000, -623.000000)" fill="#183165" fill-rule="nonzero">
            <g id="Group-4" transform="translate(443.000000, 611.000000)">
                <g id="Group-4-Copy-3" transform="translate(115.000000, 0.000000)">
                    <g id="dollar-(1)" transform="translate(12.000000, 12.000000)">
                        <path d="M11.3842537,15.354571 L5.63248175,15.354571 C5.5244377,15.354571 5.42683658,15.2915118 5.38238721,15.1931074 C5.3379379,15.0945691 5.35561049,14.9794292 5.42710433,14.8985635 L5.77640656,14.5037409 C6.22558594,13.9880214 6.37259011,13.2659873 6.1583764,12.6208024 C6.14900454,12.5928207 6.14445251,12.5640357 6.14445251,12.5347152 C6.14445251,12.383159 6.26722374,12.2457945 6.41864606,12.2457945 L10.5685011,12.2457945 C10.7199234,12.2457945 10.8426947,12.3682979 10.8426947,12.519988 C10.8426947,12.5493085 10.8380088,12.5932223 10.8287708,12.6208024 C10.6061224,13.2920946 10.7574108,13.9935106 11.2337686,14.4974483 L11.5893634,14.8988313 C11.6608572,14.979697 11.6781281,15.0948368 11.6340804,15.1933751 C11.5898989,15.2915118 11.49203,15.354571 11.3842537,15.354571 L11.3842537,15.354571 Z M6.23870654,14.8061839 L10.7736108,14.8061839 C10.2924332,14.2599389 10.091474,13.5174206 10.2205377,12.7939138 L6.76620777,12.7939138 C6.89045172,13.5009529 6.70073871,14.2413291 6.23870654,14.8061839 L6.23870654,14.8061839 Z" id="Shape"></path>
                        <path d="M16.0871818,12.7941816 L0.885639815,12.7941816 C0.397366431,12.7941816 -2.84217094e-14,12.3952086 -2.84217094e-14,11.9051947 L-2.84217094e-14,9.87150328 C-2.84217094e-14,9.71994708 0.122905133,9.59730973 0.274193548,9.59730973 L16.6988959,9.59730973 C16.8503182,9.59730973 16.9730894,9.71994708 16.9730894,9.87150328 L16.9730894,11.9051947 C16.9730894,12.3952086 16.5758569,12.7941816 16.0871818,12.7941816 L16.0871818,12.7941816 Z M0.548387097,10.1456968 L0.548387097,11.9051947 C0.548387097,12.0896862 0.702754843,12.2455267 0.885639815,12.2455267 L16.0871818,12.2455267 C16.2700668,12.2455267 16.4244345,12.0896862 16.4244345,11.9051947 L16.4244345,10.1456968 L0.548387097,10.1456968 Z" id="Shape"></path>
                        <path d="M16.7258065,10.1456968 L0.286510837,10.1456968 C0.135222387,10.1456968 0.0125850726,10.0231934 0.0123172883,9.87177106 L0,0.888986895 C0,0.39870525 0.397366431,0 0.885639815,0 L16.0871818,0 C16.5793378,0 16.9662613,0.383308665 16.9871472,0.892200101 L17,9.87123549 C17,9.94393428 16.971215,10.0138215 16.9199376,10.0653667 C16.8683924,10.1169118 16.798773,10.1456968 16.7258065,10.1456968 Z M0.560436601,9.59730973 L16.4513452,9.59730973 L16.4392956,0.903446321 C16.4307271,0.702219308 16.2826518,0.548119347 16.0874496,0.548119347 L0.885639815,0.548119347 C0.702754843,0.548119347 0.548387097,0.704093696 0.548387097,0.888719145 L0.560436601,9.59730973 Z" id="Shape"></path>
                        <path d="M8.08683529,8.32447863 C6.15810862,8.32447863 4.58885932,6.74813351 4.58885932,4.81070439 C4.58885932,2.87327526 6.15784083,1.29666235 8.08683529,1.29666235 C10.0156959,1.29666235 11.5849452,2.87300751 11.5849452,4.8104366 C11.5849452,5.42924647 11.4193312,6.04069274 11.1061775,6.57903856 C11.0299978,6.71011058 10.8622417,6.75415827 10.7314374,6.67797852 C10.6003654,6.60206653 10.5561839,6.43390877 10.6323636,6.30310453 C10.8970514,5.84856981 11.0368259,5.33218089 11.0368259,4.8104366 C11.0368259,3.17518271 9.71352067,1.84504945 8.08710307,1.84504945 C6.46055161,1.84504945 5.13751417,3.1754505 5.13751417,4.8104366 C5.13751417,6.44542277 6.46081936,7.77582379 8.08710307,7.77582379 C8.69654108,7.77582379 9.28308498,7.58825292 9.78354178,7.23346144 C9.90738407,7.14549995 10.0779517,7.17482046 10.1660471,7.29852884 C10.2534731,7.42183563 10.2244204,7.59293881 10.1009797,7.68076644 C9.50680444,8.10183025 8.81034213,8.32447863 8.08683529,8.32447863 Z" id="Path"></path>
                        <path d="M7.93193201,5.99062027 C8.18082157,5.99062027 8.35580741,5.95085685 8.45608619,5.87106225 C8.55649888,5.79153539 8.6067052,5.68978388 8.6067052,5.5660755 C8.6067052,5.47503467 8.58474829,5.39698054 8.54110226,5.33218089 C8.49759011,5.26724737 8.43908297,5.21021295 8.36651809,5.16147933 C8.2938193,5.11287959 8.20960655,5.06869803 8.11414757,5.02987178 C8.01855469,4.9906439 7.92068579,4.95329038 7.82054088,4.91767736 C7.7234753,4.88179657 7.62694526,4.84203316 7.53148628,4.79811935 C7.43616118,4.75420554 7.35114511,4.70078598 7.27683972,4.63719128 C7.20226658,4.57386436 7.14161733,4.49728296 7.09502581,4.40798261 C7.04816658,4.31854839 7.02460307,4.20889774 7.02460307,4.07862903 C7.02460307,3.84781376 7.09341925,3.65850241 7.23105152,3.51056104 C7.36841608,3.36275358 7.56830424,3.26916896 7.83044828,3.22994108 L7.83044828,2.6692367 L8.23317006,2.6692367 L8.23317006,3.21574944 C8.3754883,3.22230973 8.50816689,3.23984848 8.63107202,3.26916896 C8.75384325,3.29822172 8.85090882,3.32620338 8.92226876,3.35231068 L8.83015686,3.73280777 C8.75250443,3.70348729 8.65543881,3.67363125 8.53896013,3.64270413 C8.42234753,3.61164315 8.27681608,3.59638044 8.10209803,3.59638044 C7.90796684,3.59638044 7.75828503,3.63386783 7.65332031,3.70870872 C7.54795394,3.78354965 7.4953377,3.88918377 7.4953377,4.02574501 C7.4953377,4.10058594 7.51073432,4.16391286 7.5416614,4.21599356 C7.57245464,4.26807429 7.61677011,4.31413024 7.67500947,4.35496472 C7.73311492,4.39553145 7.80193106,4.4323494 7.88145791,4.46474924 C7.96071699,4.49728296 8.04894627,4.53128937 8.14574406,4.56690242 C8.2718624,4.61576991 8.3916882,4.66624401 8.50495368,4.71832471 C8.6182192,4.77040544 8.71769467,4.83292904 8.80324627,4.90616336 C8.88906563,4.97939768 8.9578818,5.06628811 9.00969475,5.16723634 C9.06150767,5.26805066 9.08734722,5.38988469 9.08734722,5.53300625 C9.08734722,5.76408927 9.01772777,5.95005354 8.87862273,6.09143458 C8.7396516,6.23294954 8.52436683,6.32158045 8.23317006,6.35719349 L8.23317006,6.98644627 L7.83044828,6.98644627 L7.83044828,6.37165292 C7.60391728,6.36536038 7.41942571,6.33992249 7.27710747,6.29600868 C7.13478926,6.25209487 7.02781628,6.21072485 6.95685797,6.17176473 L7.07829038,5.80572707 C7.17535596,5.85124748 7.29196855,5.89382247 7.42759263,5.93278256 C7.56308277,5.97107328 7.73137444,5.99062027 7.93193201,5.99062027 Z" id="Path"></path>
                        <path d="M10.1657793,8.56908392 C10.142082,8.56908392 10.1182507,8.5661385 10.0949549,8.55971209 C10.0001654,8.53454194 9.92612777,8.46050434 9.90082379,8.3655809 L9.31213771,6.16333009 C9.28696763,6.0686744 9.31414597,5.96786008 9.38349768,5.89850837 C9.45284935,5.82902279 9.55339592,5.80278165 9.64858714,5.82768397 L11.8402611,6.41918156 C11.9345152,6.44461946 12.008285,6.51838931 12.033589,6.61304497 C12.0587591,6.707299 12.0321163,6.80797944 11.9630324,6.87733115 L10.3601783,8.48821825 C10.307696,8.54083448 10.2375409,8.56908392 10.1657793,8.56908392 Z M9.96468624,6.48116966 L10.3074282,7.76377425 L11.2408644,6.82578598 L9.96468624,6.48116966 Z" id="Shape"></path>
                        <path d="M12.1248976,8.92333983 C12.054341,8.92333983 11.9839182,8.89616149 11.9304987,8.84247419 L10.7746818,7.68103422 C10.6677089,7.57352571 10.6683783,7.40014648 10.7754851,7.29330741 C10.8829936,7.18606664 11.0566406,7.18686996 11.1634797,7.29437847 L12.3192966,8.45581844 C12.4261356,8.56332692 12.4256001,8.73657227 12.3183594,8.84354525 C12.2646721,8.89709868 12.1947848,8.92333983 12.1248976,8.92333983 L12.1248976,8.92333983 Z" id="Path"></path>
                    </g>
                </g>
            </g>
        </g>
    </g>
</svg>