<?xml version="1.0" encoding="UTF-8"?>
<svg width="80px" height="77px" viewBox="0 0 80 77" version="1.1" xmlns="http://www.w3.org/2000/svg" xmlns:xlink="http://www.w3.org/1999/xlink">
    <!-- Generator: Sketch 56.3 (81716) - https://sketch.com -->
    <title>Remarketing</title>
    <desc>Created with Sketch.</desc>
    <defs>
        <linearGradient x1="-3.04574141%" y1="112.484128%" x2="104.87563%" y2="-12.6612369%" id="linearGradient-1">
            <stop stop-color="#1C7CFB" stop-opacity="0.267318619" offset="0%"></stop>
            <stop stop-color="#1C7CFB" stop-opacity="0" offset="100%"></stop>
        </linearGradient>
        <path d="M9.72423077,8.63884615 C8.26038462,8.15076923 3.90480769,6.97480769 0.0557692308,8.71519231 L1.75653846,0.0426923077 C1.75653846,0.0426923077 3.13615385,3.46057692 10.6784615,5.10807692 C11.0361538,5.18615385 11.3119231,5.47307692 11.3709615,5.83423077 C11.4728846,6.45769231 11.4621154,7.45807692 10.6853846,8.37615385 C10.4511538,8.65326923 10.0684615,8.75365385 9.72423077,8.63884615" id="path-2"></path>
        <linearGradient x1="0%" y1="50%" x2="100%" y2="50%" id="linearGradient-4">
            <stop stop-color="#DE4A24" offset="0%"></stop>
            <stop stop-color="#F59454" offset="100%"></stop>
        </linearGradient>
        <path d="M3.50403846,0.452692308 C3.45865385,0.829615385 3.39365385,1.22096154 3.30538462,1.61923077 C3.15711538,2.29057692 2.96192308,2.91596154 2.73923077,3.46980769 C2.38134615,3.04788462 1.01730769,2.40576923 0.408461538,2.13461538 L0.408653846,2.13288462 C0.382115385,2.12192308 0.357307692,2.11096154 0.334038462,2.10192308 L0.326346154,2.09769231 C0.180769231,2.03269231 0.0859615385,1.89038462 0.0778846154,1.73019231 C0.0505769231,1.16115385 0.298076923,0.647307692 0.469807692,0.362307692 C0.543269231,0.243846154 0.667115385,0.168269231 0.802884615,0.162115385 L0.848461538,0.160769231 L0.879230769,0.1625 C2.24596154,0.33 3.44596154,0.447884615 3.50403846,0.452692308" id="path-5"></path>
        <linearGradient x1="67.5198921%" y1="89.9277954%" x2="67.5198921%" y2="12.0056225%" id="linearGradient-7">
            <stop stop-color="#CB3A15" offset="0%"></stop>
            <stop stop-color="#F59454" offset="100%"></stop>
        </linearGradient>
        <path d="M16.2123077,0.108076923 L13.3176923,0.108076923 C13.3176923,0.108076923 12.0523077,0.843461538 10.7157692,3.21057692 C8.975,4.04730769 6.57519231,5.11173077 4.53942308,5.69230769 C3.44153846,6.00538462 2.3275,5.22730769 2.2575,4.0875 C2.22730769,3.59307692 2.21903846,3.00807692 2.25346154,2.33423077 C2.29019231,1.61211538 1.55019231,1.07346154 0.888653846,1.36576923 L0.853461538,1.38192308 C0.565576923,1.51807692 0.363076923,1.78865385 0.3075,2.10192308 C0.2375,2.49576923 0.140192308,3.155 0.0942307692,3.96769231 C-0.0623076923,6.73846154 2.17134615,9.06365385 4.94653846,9.04461538 C6.05192308,9.03711538 7.31,8.955 8.64711538,8.73826923 C8.57903846,9.02173077 8.51365385,9.31192308 8.45153846,9.61403846 C8.14769231,11.0798077 7.90692308,12.7575 7.76788462,14.6742308 C7.76788462,14.6742308 11.2167308,20.1592308 20.4821154,16.1238462 C20.4821154,16.1238462 19.4767308,3.60365385 16.2123077,0.108076923" id="path-8"></path>
        <linearGradient x1="100%" y1="81.2630045%" x2="24.830477%" y2="13.1992307%" id="linearGradient-10">
            <stop stop-color="#DE4A24" offset="0%"></stop>
            <stop stop-color="#F59454" offset="100%"></stop>
        </linearGradient>
    </defs>
    <g id="Page-1" stroke="none" stroke-width="1" fill="none" fill-rule="evenodd">
        <g id="Hey-Digital_Version_02" transform="translate(-679.000000, -1505.000000)">
            <g id="Group-7-Copy-4" transform="translate(540.000000, 1461.000000)">
                <g id="Remarketing" transform="translate(136.000000, 41.000000)">
                    <g id="Group-10" transform="translate(3.000000, 3.000000)" fill-rule="nonzero">
                        <path d="M80,40.21625 C80,35.8989062 78.04625,31.8514062 74.6332813,28.3667187 C72.2584375,25.9420312 70.2810938,23.164375 68.771875,20.124375 C63.9454688,10.4029687 55.7165625,4 46.375625,4 C39.7376563,4 33.6617187,7.2340625 28.9689063,12.5942187 C25.8626563,16.1421875 21.940625,18.86375 17.5646875,20.6209375 C6.96484375,24.8775 0,32.0651562 0,40.21625 C0,48.3673437 6.96484375,55.555 17.5646875,59.8115625 C21.940625,61.56875 25.8626563,64.2903125 28.9690625,67.8382812 C33.661875,73.1984375 39.7378125,76.4325 46.3757813,76.4325 C55.7167187,76.4325 63.945625,70.0295312 68.7720312,60.308125 C70.28125,57.268125 72.2585938,54.4904687 74.6334375,52.0657812 C78.04625,48.5810937 80,44.5335937 80,40.21625 Z" id="Path" fill="url(#linearGradient-1)"></path>
                        <path d="M8.40171875,46.1915625 C8.20171875,46.1915625 8.001875,46.1153125 7.84921875,45.9628125 L6.83921875,44.9528125 L5.82921875,45.9628125 C5.5240625,46.2678125 5.02953125,46.2678125 4.724375,45.9628125 C4.41921875,45.6576563 4.41921875,45.1629688 4.724375,44.8579688 L6.286875,43.2954688 C6.59203125,42.9904688 7.0865625,42.9904688 7.39171875,43.2954688 L8.95421875,44.8579688 C9.259375,45.163125 9.259375,45.6578125 8.95421875,45.9628125 C8.8015625,46.1151563 8.6015625,46.1915625 8.40171875,46.1915625 Z" id="Path" fill="#6C6CFF"></path>
                        <path d="M74.3515625,61.6704687 C74.1515625,61.6704687 73.9517188,61.5942187 73.7990625,61.4417187 L72.7890625,60.4317187 L71.7790625,61.4417187 C71.4739063,61.7467187 70.979375,61.7467187 70.6742188,61.4417187 C70.3690625,61.1365625 70.3690625,60.641875 70.6742188,60.336875 L72.2367188,58.774375 C72.541875,58.469375 73.0364063,58.469375 73.3415625,58.774375 L74.9040625,60.336875 C75.2092188,60.6420312 75.2092188,61.1367187 74.9040625,61.4417187 C74.7514063,61.5940625 74.5515625,61.6704687 74.3515625,61.6704687 Z" id="Path" fill="#6C6CFF"></path>
                        <path d="M14.6484375,71.8829688 C14.4484375,71.8829688 14.2485937,71.8067188 14.0959375,71.6542188 C13.7907812,71.3490625 13.7907812,70.854375 14.0959375,70.549375 L15.6584375,68.986875 C15.9635937,68.681875 16.458125,68.681875 16.7632812,68.986875 C17.0684375,69.2920313 17.0684375,69.7867188 16.7632812,70.0917188 L15.2007812,71.6542188 C15.0482812,71.8065625 14.8484375,71.8829688 14.6484375,71.8829688 L14.6484375,71.8829688 Z" id="Path" fill="#FF9D33"></path>
                        <path d="M72.6953125,35.7370313 C72.4953125,35.7370313 72.2954687,35.6607813 72.1428125,35.5082813 C71.8376562,35.203125 71.8376562,34.7084375 72.1428125,34.4034375 L73.7053125,32.8409375 C74.0104687,32.5359375 74.505,32.5359375 74.8101562,32.8409375 C75.1153125,33.1460938 75.1153125,33.6407813 74.8101562,33.9457813 L73.2476562,35.5082813 C73.0951562,35.6607813 72.8953125,35.7370313 72.6953125,35.7370313 Z" id="Path" fill="#FF6C6C"></path>
                        <path d="M6.484375,23.7196875 C6.284375,23.7196875 6.08453125,23.6434375 5.931875,23.4909375 C5.62671875,23.1857813 5.62671875,22.6910938 5.931875,22.3860938 L7.494375,20.8235938 C7.79953125,20.5185938 8.2940625,20.5185938 8.59921875,20.8235938 C8.904375,21.12875 8.904375,21.6234375 8.59921875,21.9284375 L7.03671875,23.4909375 C6.88421875,23.6434375 6.684375,23.7196875 6.484375,23.7196875 Z" id="Path" fill="#FF6C6C"></path>
                        <path d="M46.484375,3.7196875 C46.284375,3.7196875 46.0845312,3.6434375 45.931875,3.4909375 C45.6267187,3.18578125 45.6267187,2.69109375 45.931875,2.38609375 L47.494375,0.82359375 C47.7995312,0.51859375 48.2940625,0.51859375 48.5992187,0.82359375 C48.904375,1.12875 48.904375,1.6234375 48.5992187,1.9284375 L47.0367187,3.4909375 C46.8842187,3.6434375 46.684375,3.7196875 46.484375,3.7196875 Z" id="Path-Copy-2" fill="#FF6C6C" transform="translate(47.265547, 2.157266) scale(-1, 1) translate(-47.265547, -2.157266) "></path>
                    </g>
                    <g id="Group-41" transform="translate(21.000000, 15.000000)">
                        <g id="monitor" transform="translate(0.000000, 8.000000)" fill-rule="nonzero">
                            <polygon id="Path" fill="#294384" points="33.3336507 44.8403668 16.6670478 44.8403668 19.8153175 36.5072881 30.1853811 36.5072881"></polygon>
                            <path d="M34.8410283,45.8822243 L15.1592253,45.8822243 L19.0947847,35.4654306 L30.9050237,35.4654306 L34.8410283,45.8822243 Z M18.1744254,43.7989546 L31.8258281,43.7989546 L29.4648484,37.5487003 L20.5354052,37.5487003 L18.1744254,43.7989546 Z" id="Shape" fill="#294384"></path>
                            <path d="M1.04185736,28.1737641 L1.04185736,32.5588222 C1.04185736,34.7395573 2.9074986,36.5072881 5.20884187,36.5072881 L44.7918566,36.5072881 C47.0931999,36.5072881 48.9583961,34.7395573 48.9583961,32.5588222 L48.9583961,28.1737641 L1.04185736,28.1737641 Z" id="Path" fill="#7DAEF7"></path>
                            <path d="M44.7918566,37.5487003 L5.20839686,37.5487003 C2.33650198,37.5487003 -2.84217094e-14,35.3105539 -2.84217094e-14,32.5588222 L-2.84217094e-14,27.1323517 L49.9998085,27.1323517 L49.9998085,32.5588222 C49.9998085,35.3105539 47.6633064,37.5487003 44.7918566,37.5487003 Z M2.08326969,29.2156215 L2.08326969,32.5588222 C2.08326969,34.16144 3.48517097,35.4654306 5.20839686,35.4654306 L44.7918566,35.4654306 C46.5150825,35.4654306 47.9165387,34.16144 47.9165387,32.5588222 L47.9165387,29.2156215 L2.08326969,29.2156215 Z" id="Shape" fill="#445EA0"></path>
                            <path d="M48.9588412,28.1737641 L1.04185736,28.1737641 L1.04185736,5.25735208 C1.04185736,2.95600881 2.9074986,1.09036756 5.20884187,1.09036756 L44.7918566,1.09036756 C47.0931999,1.09036756 48.9588412,2.95600881 48.9588412,5.25735208 L48.9588412,28.1737641 Z" id="Path" fill="#EBF0F3"></path>
                            <path d="M49.9998085,29.2156215 L0,29.2156215 L0,5.25735208 C0,2.38545732 2.33650198,0.0489553377 5.20839686,0.0489553377 L44.7918566,0.0489553377 C47.6633064,0.0489553377 49.9998085,2.38545732 49.9998085,5.25735208 L49.9998085,29.2156215 Z M2.08326969,27.1323517 L47.9165387,27.1323517 L47.9165387,5.25735208 C47.9165387,3.5341262 46.5150825,2.13222503 44.7918566,2.13222503 L5.20839686,2.13222503 C3.48517097,2.13222503 2.08326969,3.5341262 2.08326969,5.25735208 L2.08326969,27.1323517 Z" id="Shape" fill="#445EA0"></path>
                            <g id="Group" transform="translate(12.418620, 31.217447)">
                                <path d="M24.0397132,14.6647769 L1.12285615,14.6647769 C0.547409106,14.6647769 0.0814438138,14.1983666 0.0814438138,13.6229194 C0.0814438138,13.0479175 0.547409106,12.5815072 1.12285615,12.5815072 L24.0397132,12.5815072 C24.6156053,12.5815072 25.0815705,13.0479175 25.0815705,13.6229194 C25.0815705,14.1983666 24.6156053,14.6647769 24.0397132,14.6647769 Z" id="Path" fill="#445EA0"></path>
                                <path d="M14.6647769,2.16471351 L10.4982374,2.16471351 C9.92234535,2.16471351 9.45638005,1.6983032 9.45638005,1.12285615 C9.45638005,0.547854125 9.92234535,0.0814438138 10.4982374,0.0814438138 L14.6647769,0.0814438138 C15.240669,0.0814438138 15.7061892,0.547854125 15.7061892,1.12285615 C15.7061892,1.6983032 15.240669,2.16471351 14.6647769,2.16471351 Z" id="Path" fill="#2A3D4F"></path>
                            </g>
                        </g>
                        <g id="Group-40" transform="translate(5.000000, -0.000000)">
                            <path d="M29.8506534,35.071623 L24.3031534,35.071623 C22.8668072,33.7268153 21.5391149,32.3031615 21.5391149,32.3031615 C20.3696918,33.7675846 19.9550764,34.3510461 19.418538,35.071623 L14.0225764,35.071623 C14.7239226,32.7137384 15.6494995,29.6437384 16.1412303,28.0212384 C16.1669995,27.931623 16.1925764,27.8481615 16.216038,27.7689307 C16.3806534,27.2260461 16.4791149,26.9010461 16.4791149,26.9010461 C17.7233457,27.3327769 18.9181534,27.6064307 20.0341149,27.7689307 C22.3814226,28.1154692 24.3739226,27.9721999 25.7014226,27.7689307 C26.8193072,27.5979692 27.4693072,27.3864307 27.4693072,27.3864307 C27.4841149,27.5018153 27.503538,27.6300846 27.5314226,27.7689307 C27.5975764,28.1131615 27.7002687,28.5279692 27.8283457,28.9896999 C28.3350764,30.8004692 29.2306534,33.3208538 29.8506534,35.071623" id="Fill-263" fill="#B0CFFF"></path>
                            <path d="M22.5733457,14.2273922 L22.5733457,14.2273922 C21.7737303,14.2273922 21.1254611,13.579123 21.1254611,12.7795076 L21.1254611,7.87200763 L24.0212303,7.87200763 L24.0212303,12.7795076 C24.0212303,13.579123 23.3729611,14.2273922 22.5733457,14.2273922" id="Fill-264" fill="#EDC4C8"></path>
                            <path d="M21.2237303,10.4152769 L21.2237303,10.4152769 C19.7443072,10.3043153 18.6352687,9.01489225 18.7462303,7.53546917 L19.0543072,3.43662302 L24.4114226,3.83893071 L24.103538,7.93777687 C23.9923841,9.41719994 22.7031534,10.5264307 21.2237303,10.4152769" id="Fill-265" fill="#EDC4C8"></path>
                            <path d="M19.6856534,6.10777687 C19.6856534,6.50200763 19.366038,6.82143071 18.9718072,6.82143071 C18.5775764,6.82143071 18.2579611,6.50200763 18.2579611,6.10777687 C18.2579611,5.71335379 18.5775764,5.39393071 18.9718072,5.39393071 C19.366038,5.39393071 19.6856534,5.71335379 19.6856534,6.10777687" id="Fill-266" fill="#EDC4C8"></path>
                            <path d="M26.3406534,3.90777687 C26.4489226,2.46719994 25.368538,1.21143071 23.9277687,1.10316148 L16.5387303,0.548353788 C16.1852687,1.96758456 17.1923841,3.29681533 18.5843072,3.4012384 L23.7850764,3.79181533 L23.4333457,8.47566148 C22.8979611,8.66835379 22.0993072,9.09585379 21.6312303,10.0071999 C21.6312303,10.0071999 21.1316149,8.09527687 18.7916149,8.2662384 C18.7916149,8.2662384 18.4052687,8.86950763 18.2983457,9.7012384 C18.1269995,11.0304692 19.611038,11.9462384 20.7129611,11.1833538 L20.7519995,11.1558538 C20.7519995,11.1558538 23.7983457,11.6514307 24.0021918,9.10566148 L24.0158457,9.10662302 L24.0737303,8.33489225 C25.3152687,7.73931533 26.1441149,6.52585379 26.2471918,5.15258456 L26.3291149,4.06162302 C26.331038,4.03508456 26.3300764,4.00931533 26.331038,3.98296917 L26.3350764,3.98335379 L26.3406534,3.90777687" id="Fill-267" fill="#070225"></path>
                            <path d="M8.80969182,14.4239307 L8.80969182,14.4239307 C8.5043072,14.3320076 8.3316149,14.0098922 8.42353797,13.7045076 L10.2162303,7.75816148 C10.3083457,7.45296917 10.6304611,7.27989225 10.9356534,7.37200763 C11.241038,7.46412302 11.4139226,7.7862384 11.3219995,8.09143071 L9.5291149,14.0379692 C9.43719182,14.3431615 9.11488413,14.5160461 8.80969182,14.4239307" id="Fill-268" fill="#353563"></path>
                            <g id="Group-271" transform="translate(1.846807, 0.364508)">
                                <mask id="mask-3" fill="white">
                                    <use xlink:href="#path-2"></use>
                                </mask>
                                <g id="Clip-270"></g>
                                <path d="M9.72423077,8.63884615 C8.26038462,8.15076923 3.90480769,6.97480769 0.0557692308,8.71519231 L1.75653846,0.0426923077 C1.75653846,0.0426923077 3.13615385,3.46057692 10.6784615,5.10807692 C11.0361538,5.18615385 11.3119231,5.47307692 11.3709615,5.83423077 C11.4728846,6.45769231 11.4621154,7.45807692 10.6853846,8.37615385 C10.4511538,8.65326923 10.0684615,8.75365385 9.72423077,8.63884615" id="Fill-269" fill="url(#linearGradient-4)" mask="url(#mask-3)"></path>
                            </g>
                            <path d="M3.80603797,5.06066148 C3.2991149,7.35546917 2.2493072,9.12450763 1.33603797,9.32162302 C1.22738413,9.3485461 1.11988413,9.34950763 1.01526874,9.32643071 C0.0408456658,9.11027687 -0.289154334,6.8537384 0.276230281,4.28239225 C0.843345666,1.7112384 2.09257644,-0.197992365 3.06699951,0.0164307115 C3.25296105,0.0568153268 3.41546105,0.172584558 3.5518072,0.350469173 C4.13603797,1.1035461 4.26449951,2.97989225 3.80603797,5.06066148" id="Fill-272" fill="#DF4018"></path>
                            <path d="M4.00469182,3.89412302 C3.9593072,4.2710461 3.8943072,4.66239225 3.80603797,5.06066148 C3.65776874,5.73200763 3.46257644,6.35739225 3.23988413,6.9112384 C2.69757644,8.25585379 1.98257644,9.18258456 1.33603797,9.32162302 C0.844307204,8.68777687 0.674307204,7.25393071 0.909114897,5.5760461 L0.909307204,5.57431533 L0.914884127,5.53758456 C0.956999512,5.23508456 1.01257644,4.92566148 1.0818072,4.61143071 C1.15738413,4.27027687 1.24449951,3.94181533 1.34142259,3.62739225 L1.3491149,3.60219994 C1.90507644,1.8137384 2.77853797,0.517584558 3.5518072,0.350469173 C4.02353797,0.959315327 4.19873028,2.30258456 4.00469182,3.89412302" id="Fill-273" fill="#FF8768"></path>
                            <g id="Group-279" transform="translate(0.500653, 3.441431)">
                                <mask id="mask-6" fill="white">
                                    <use xlink:href="#path-5"></use>
                                </mask>
                                <g id="Clip-278"></g>
                                <path d="M3.50403846,0.452692308 C3.45865385,0.829615385 3.39365385,1.22096154 3.30538462,1.61923077 C3.15711538,2.29057692 2.96192308,2.91596154 2.73923077,3.46980769 C2.38134615,3.04788462 1.01730769,2.40576923 0.408461538,2.13461538 L0.408653846,2.13288462 C0.382115385,2.12192308 0.357307692,2.11096154 0.334038462,2.10192308 L0.326346154,2.09769231 C0.180769231,2.03269231 0.0859615385,1.89038462 0.0778846154,1.73019231 C0.0505769231,1.16115385 0.298076923,0.647307692 0.469807692,0.362307692 C0.543269231,0.243846154 0.667115385,0.168269231 0.802884615,0.162115385 L0.848461538,0.160769231 L0.879230769,0.1625 C2.24596154,0.33 3.44596154,0.447884615 3.50403846,0.452692308" id="Fill-277" fill="url(#linearGradient-7)" mask="url(#mask-6)"></path>
                            </g>
                            <path d="M1.53026874,4.67066148 C1.41046105,5.21239225 1.08392259,5.6010461 0.800845666,5.5385461 C0.51796105,5.47585379 0.385845666,4.98585379 0.505653358,4.4437384 C0.625653358,3.90200763 0.95219182,3.51335379 1.23507644,3.57585379 C1.51815336,3.6385461 1.65026874,4.1285461 1.53026874,4.67066148" id="Fill-280" fill="#FFFFFF"></path>
                            <path d="M9.76757644,14.8702769 C9.92334567,14.4296999 10.1037303,13.9975846 10.3073841,13.5768153 C10.7162303,13.4835461 10.993538,13.2254692 11.1933457,12.856623 C11.3929611,12.4877769 11.483538,12.0714307 11.5719995,11.6614307 C11.6175764,11.4510461 11.6629611,11.2406615 11.7081534,11.0300846 C11.7696918,10.7460461 11.8304611,10.446623 11.7437303,10.169123 C11.7046918,10.0437384 11.6225764,9.91739225 11.4948841,9.88700763 C11.3577687,9.85412302 11.2198841,9.9435461 11.1275764,10.0498922 C10.7548841,10.4777769 10.8269995,11.1739307 10.4396918,11.5883538 C10.2266149,11.8162384 9.91065336,11.9158538 9.60334567,11.9696999 C9.29603797,12.0235461 8.97988413,12.0418153 8.68603797,12.1470076 L8.67738413,12.1502769 C8.28796105,12.2927769 8.03392259,12.6750846 8.03123028,13.0896999 C8.02719182,13.7100846 8.11738413,14.2081615 8.41296105,14.7096999 C8.48546105,14.8327769 8.6241149,14.8958538 8.7668072,14.8877769 C8.98738413,14.8752769 9.23584567,14.9368153 9.46969182,14.8902769 C9.58469182,14.8673922 9.72853797,14.9810461 9.76757644,14.8702769" id="Fill-290" fill="#EDC4C8"></path>
                            <path d="M7.95623028,10.129123 C8.2118072,9.94296917 8.59699951,9.92719994 8.8943072,9.90912302 C9.34699951,9.88162302 9.80853797,9.97546917 10.2089226,10.1900846 C10.5562303,10.3760461 10.8800764,10.6925846 10.8937303,11.0858538 C10.8991149,11.2404692 10.8558457,11.3921999 10.8129611,11.5408538 C10.7827687,11.6456615 10.7525764,11.7502769 10.7221918,11.8548922 C10.6681534,12.0423922 10.6129611,12.2320076 10.5129611,12.3996999 C10.3248841,12.7152769 9.9868072,12.9254692 9.62776874,13.0050846 C9.26873028,13.0845076 8.89046105,13.0423922 8.53853797,12.9356615 C8.2491149,12.8477769 7.96353797,12.7093153 7.77296105,12.4746999 C7.39199951,12.0046999 7.5091149,11.3062384 7.63007644,10.7629692 C7.66507644,10.6056615 7.70469182,10.4462384 7.78892259,10.3089307 C7.83373028,10.2358538 7.89065336,10.1768153 7.95623028,10.129123" id="Fill-291" fill="#EDC4C8"></path>
                            <g id="Group-294" transform="translate(7.808346, 12.672200)">
                                <mask id="mask-9" fill="white">
                                    <use xlink:href="#path-8"></use>
                                </mask>
                                <g id="Clip-293"></g>
                                <path d="M16.2123077,0.108076923 L13.3176923,0.108076923 C13.3176923,0.108076923 12.0523077,0.843461538 10.7157692,3.21057692 C8.975,4.04730769 6.57519231,5.11173077 4.53942308,5.69230769 C3.44153846,6.00538462 2.3275,5.22730769 2.2575,4.0875 C2.22730769,3.59307692 2.21903846,3.00807692 2.25346154,2.33423077 C2.29019231,1.61211538 1.55019231,1.07346154 0.888653846,1.36576923 L0.853461538,1.38192308 C0.565576923,1.51807692 0.363076923,1.78865385 0.3075,2.10192308 C0.2375,2.49576923 0.140192308,3.155 0.0942307692,3.96769231 C-0.0623076923,6.73846154 2.17134615,9.06365385 4.94653846,9.04461538 C6.05192308,9.03711538 7.31,8.955 8.64711538,8.73826923 C8.57903846,9.02173077 8.51365385,9.31192308 8.45153846,9.61403846 C8.14769231,11.0798077 7.90692308,12.7575 7.76788462,14.6742308 C7.76788462,14.6742308 11.2167308,20.1592308 20.4821154,16.1238462 C20.4821154,16.1238462 19.4767308,3.60365385 16.2123077,0.108076923" id="Fill-292" fill="url(#linearGradient-10)" mask="url(#mask-9)"></path>
                            </g>
                            <path d="M21.5800764,20.1012384 C21.5800764,20.1012384 19.6473841,21.8854692 16.2598841,22.2862384 C16.326038,21.9645076 16.3956534,21.6560461 16.4683457,21.3552769 L16.4683457,21.3537384 C16.4683457,21.3537384 19.7314226,20.7735461 21.5800764,20.1012384" id="Fill-295" fill="#3F52B6"></path>
                        </g>
                    </g>
                </g>
            </g>
        </g>
    </g>
</svg>