<?xml version="1.0" encoding="UTF-8"?>
<svg width="80px" height="77px" viewBox="0 0 80 77" version="1.1" xmlns="http://www.w3.org/2000/svg" xmlns:xlink="http://www.w3.org/1999/xlink">
    <!-- Generator: Sketch 56.3 (81716) - https://sketch.com -->
    <title>Remarketing</title>
    <desc>Created with Sketch.</desc>
    <defs>
        <linearGradient x1="-3.04574141%" y1="112.484128%" x2="104.87563%" y2="-12.6612369%" id="linearGradient-1">
            <stop stop-color="#1C7CFB" stop-opacity="0.267318619" offset="0%"></stop>
            <stop stop-color="#1C7CFB" stop-opacity="0" offset="100%"></stop>
        </linearGradient>
    </defs>
    <g id="Page-1" stroke="none" stroke-width="1" fill="none" fill-rule="evenodd">
        <g id="Hey-Digital_Home" transform="translate(-679.000000, -1425.000000)" fill-rule="nonzero">
            <g id="Group-7-Copy-4" transform="translate(540.000000, 1381.000000)">
                <g id="Remarketing" transform="translate(136.000000, 41.000000)">
                    <g id="Group-10" transform="translate(3.000000, 3.000000)">
                        <path d="M80,40.21625 C80,35.8989062 78.04625,31.8514062 74.6332813,28.3667187 C72.2584375,25.9420312 70.2810938,23.164375 68.771875,20.124375 C63.9454688,10.4029687 55.7165625,4 46.375625,4 C39.7376563,4 33.6617187,7.2340625 28.9689063,12.5942187 C25.8626563,16.1421875 21.940625,18.86375 17.5646875,20.6209375 C6.96484375,24.8775 0,32.0651562 0,40.21625 C0,48.3673437 6.96484375,55.555 17.5646875,59.8115625 C21.940625,61.56875 25.8626563,64.2903125 28.9690625,67.8382812 C33.661875,73.1984375 39.7378125,76.4325 46.3757813,76.4325 C55.7167187,76.4325 63.945625,70.0295312 68.7720312,60.308125 C70.28125,57.268125 72.2585938,54.4904687 74.6334375,52.0657812 C78.04625,48.5810937 80,44.5335937 80,40.21625 Z" id="Path" fill="url(#linearGradient-1)"></path>
                        <path d="M8.40171875,46.1915625 C8.20171875,46.1915625 8.001875,46.1153125 7.84921875,45.9628125 L6.83921875,44.9528125 L5.82921875,45.9628125 C5.5240625,46.2678125 5.02953125,46.2678125 4.724375,45.9628125 C4.41921875,45.6576563 4.41921875,45.1629688 4.724375,44.8579688 L6.286875,43.2954688 C6.59203125,42.9904688 7.0865625,42.9904688 7.39171875,43.2954688 L8.95421875,44.8579688 C9.259375,45.163125 9.259375,45.6578125 8.95421875,45.9628125 C8.8015625,46.1151563 8.6015625,46.1915625 8.40171875,46.1915625 Z" id="Path" fill="#6C6CFF"></path>
                        <path d="M74.3515625,61.6704687 C74.1515625,61.6704687 73.9517188,61.5942187 73.7990625,61.4417187 L72.7890625,60.4317187 L71.7790625,61.4417187 C71.4739063,61.7467187 70.979375,61.7467187 70.6742188,61.4417187 C70.3690625,61.1365625 70.3690625,60.641875 70.6742188,60.336875 L72.2367188,58.774375 C72.541875,58.469375 73.0364063,58.469375 73.3415625,58.774375 L74.9040625,60.336875 C75.2092188,60.6420312 75.2092188,61.1367187 74.9040625,61.4417187 C74.7514063,61.5940625 74.5515625,61.6704687 74.3515625,61.6704687 Z" id="Path" fill="#6C6CFF"></path>
                        <path d="M14.6484375,71.8829688 C14.4484375,71.8829688 14.2485937,71.8067188 14.0959375,71.6542188 C13.7907812,71.3490625 13.7907812,70.854375 14.0959375,70.549375 L15.6584375,68.986875 C15.9635937,68.681875 16.458125,68.681875 16.7632812,68.986875 C17.0684375,69.2920313 17.0684375,69.7867188 16.7632812,70.0917188 L15.2007812,71.6542188 C15.0482812,71.8065625 14.8484375,71.8829688 14.6484375,71.8829688 L14.6484375,71.8829688 Z" id="Path" fill="#FF9D33"></path>
                        <path d="M72.6953125,35.7370313 C72.4953125,35.7370313 72.2954687,35.6607813 72.1428125,35.5082813 C71.8376562,35.203125 71.8376562,34.7084375 72.1428125,34.4034375 L73.7053125,32.8409375 C74.0104687,32.5359375 74.505,32.5359375 74.8101562,32.8409375 C75.1153125,33.1460938 75.1153125,33.6407813 74.8101562,33.9457813 L73.2476562,35.5082813 C73.0951562,35.6607813 72.8953125,35.7370313 72.6953125,35.7370313 Z" id="Path" fill="#FF6C6C"></path>
                        <path d="M6.484375,23.7196875 C6.284375,23.7196875 6.08453125,23.6434375 5.931875,23.4909375 C5.62671875,23.1857813 5.62671875,22.6910938 5.931875,22.3860938 L7.494375,20.8235938 C7.79953125,20.5185938 8.2940625,20.5185938 8.59921875,20.8235938 C8.904375,21.12875 8.904375,21.6234375 8.59921875,21.9284375 L7.03671875,23.4909375 C6.88421875,23.6434375 6.684375,23.7196875 6.484375,23.7196875 Z" id="Path" fill="#FF6C6C"></path>
                        <path d="M46.484375,3.7196875 C46.284375,3.7196875 46.0845312,3.6434375 45.931875,3.4909375 C45.6267187,3.18578125 45.6267187,2.69109375 45.931875,2.38609375 L47.494375,0.82359375 C47.7995312,0.51859375 48.2940625,0.51859375 48.5992187,0.82359375 C48.904375,1.12875 48.904375,1.6234375 48.5992187,1.9284375 L47.0367187,3.4909375 C46.8842187,3.6434375 46.684375,3.7196875 46.484375,3.7196875 Z" id="Path-Copy-2" fill="#FF6C6C" transform="translate(47.265547, 2.157266) scale(-1, 1) translate(-47.265547, -2.157266) "></path>
                    </g>
                    <g id="008-web-promotion" transform="translate(21.000000, 18.000000)">
                        <path d="M49,12 L49,37 C49,40.3137085 46.3137085,43 43,43 L7,43 C3.6862915,43 1,40.3137085 1,37 L1,12 C1,8.6862915 3.6862915,6 7,6 L7,35 L43,35 L43,9 L40,6 L43,6 C46.3137085,6 49,8.6862915 49,12 Z" id="Path" fill="#DCD9D9"></path>
                        <path d="M6.89,6 L46,6 L46,26 C46,29.3137085 43.3137085,32 40,32 L1,32 L1,11.89 C1,8.63704282 3.63704282,6 6.89,6 Z" id="Path" fill="#F0F0F0"></path>
                        <path d="M1,35 L49,35 L49,37 C49,40.3137085 46.3137085,43 43,43 L7,43 C3.6862915,43 1,40.3137085 1,37 L1,35 Z" id="Path" fill="#3761BA"></path>
                        <polygon id="Path" fill="#3761BA" points="32 54 18 54 20.0014296 44 29.9985704 44"></polygon>
                        <path d="M43,9 L43,35 L7,35 L7,3 C7,1.8954305 7.8954305,1 9,1 L35,1 L43,9 Z" id="Path" fill="#DCD9D9"></path>
                        <path d="M40,7 L40,26 C40,29.3137085 37.3137085,32 34,32 L7,32 L7,1 C7,1.9 7.9,1 9,1 L35,1 L40,7 Z" id="Path" fill="#F0F0F0"></path>
                        <path d="M43,9 L37,9 C35.8954305,9 35,8.1045695 35,7 L35,1 L43,9 Z" id="Path" fill="#3761BA"></path>
                        <path d="M27.74,13.0078359 C27.6770972,12.997388 27.6129028,12.997388 27.55,13.0078359 C27.1822546,13.0531107 26.8530699,13.2580107 26.65,13.5680382 C25.6488535,15.0895447 23.9508785,16.0064818 22.13,16.0089198 L21,16.0089198 L21,22.0110875 L22.09,22.0110875 C23.9070682,22.0090835 25.6042432,22.9180763 26.61,24.4319618 C26.8130699,24.7419893 27.1422546,24.9468893 27.51,24.9921641 C27.5729028,25.002612 27.6370972,25.002612 27.7,24.9921641 C28.4179702,24.9921641 29,24.409924 29,23.6916944 L29,14.2882983 C28.9896353,13.5931858 28.4346121,13.029149 27.74,13.0078359 L27.74,13.0078359 Z" id="Path" fill="#FF6C36"></path>
                        <path d="M19,16 L21,16 L21,22 L19,22 C17.3431458,22 16,20.6568542 16,19 C16,17.3431458 17.3431458,16 19,16 Z" id="Path" fill="#FF6C36"></path>
                        <g id="Group">
                            <path d="M7,20.3233256 C6.44771525,20.3233256 6,19.8683725 6,19.3071594 L6,18.2909931 C6,17.7297799 6.44771525,17.2748268 7,17.2748268 C7.55228475,17.2748268 8,17.7297799 8,18.2909931 L8,19.3071594 C8,19.8683725 7.55228475,20.3233256 7,20.3233256 Z" id="Path" fill="#033C59"></path>
                            <path d="M35,44.7113164 L7,44.7113164 C3.13400675,44.7113164 0,41.5266444 0,37.5981524 L0,12.1939954 C0,8.2655034 3.13400675,5.08083141 7,5.08083141 C7.55228475,5.08083141 8,5.53578455 8,6.09699769 L8,14.2263279 C8,14.7875411 7.55228475,15.2424942 7,15.2424942 C6.44771525,15.2424942 6,14.7875411 6,14.2263279 L6,7.2147806 C3.67166873,7.69773251 1.99951499,9.77923566 2,12.1939954 L2,37.5981524 C2,40.4042181 4.23857625,42.6789838 7,42.6789838 L35,42.6789838 C35.5522847,42.6789838 36,43.133937 36,43.6951501 C36,44.2563633 35.5522847,44.7113164 35,44.7113164 Z" id="Path" fill="#183165"></path>
                            <path d="M43,44.7113164 L39,44.7113164 C38.4477153,44.7113164 38,44.2563633 38,43.6951501 C38,43.133937 38.4477153,42.6789838 39,42.6789838 L43,42.6789838 C45.7614237,42.6789838 48,40.4042181 48,37.5981524 L48,12.1939954 C48,9.38792968 45.7614237,7.11316397 43,7.11316397 L42.41,7.11316397 L43.71,8.42401848 C43.8971865,8.61578819 44.0015368,8.87539651 44,9.14549654 L44,35.5658199 C44,36.127033 43.5522847,36.5819861 43,36.5819861 L7,36.5819861 C6.44771525,36.5819861 6,36.127033 6,35.5658199 L6,23.3718245 C6,22.8106113 6.44771525,22.3556582 7,22.3556582 C7.55228475,22.3556582 8,22.8106113 8,23.3718245 L8,34.5496536 L42,34.5496536 L42,9.56212471 L39.29,6.81847575 C39.0062554,6.52626626 38.9234033,6.08927188 39.08,5.7108545 C39.2334036,5.33139209 39.5962981,5.08287913 40,5.08083141 L43,5.08083141 C46.8659932,5.08083141 50,8.2655034 50,12.1939954 L50,37.5981524 C50,41.5266444 46.8659932,44.7113164 43,44.7113164 L43,44.7113164 Z" id="Path" fill="#183165"></path>
                            <path d="M43,44.7113164 L39,44.7113164 C38.4477153,44.7113164 38,44.2563633 38,43.6951501 C38,43.133937 38.4477153,42.6789838 39,42.6789838 L43,42.6789838 C45.7614237,42.6789838 48,40.4042181 48,37.5981524 L48,36.5819861 L2,36.5819861 L2,37.5981524 C2,40.4042181 4.23857625,42.6789838 7,42.6789838 L35,42.6789838 C35.5522847,42.6789838 36,43.133937 36,43.6951501 C36,44.2563633 35.5522847,44.7113164 35,44.7113164 L7,44.7113164 C3.13400675,44.7113164 0,41.5266444 0,37.5981524 L0,35.5658199 C0,35.0046067 0.44771525,34.5496536 1,34.5496536 L49,34.5496536 C49.5522847,34.5496536 50,35.0046067 50,35.5658199 L50,37.5981524 C50,41.5266444 46.8659932,44.7113164 43,44.7113164 Z" id="Path" fill="#183165"></path>
                            <path d="M26,40.6466513 L24,40.6466513 C23.4477153,40.6466513 23,40.1916981 23,39.630485 C23,39.0692718 23.4477153,38.6143187 24,38.6143187 L26,38.6143187 C26.5522847,38.6143187 27,39.0692718 27,39.630485 C27,40.1916981 26.5522847,40.6466513 26,40.6466513 Z" id="Path" fill="#F0F0F0"></path>
                            <path d="M32,54.8730697 L18,54.8730697 C17.7009167,54.8709694 17.41842,54.7330297 17.23,54.4969977 C17.0320136,54.2655308 16.9474909,53.9555832 17,53.6535797 L19,43.4919169 C19.0964736,43.011145 19.5172392,42.6690907 20,42.6789838 L30,42.6789838 C30.4827608,42.6690907 30.9035264,43.011145 31,43.4919169 L33,53.6535797 C33.0579624,53.9524934 32.9808836,54.2620629 32.79,54.4969977 C32.5971772,54.7385877 32.306084,54.8771265 32,54.8730697 Z M19.22,52.8406467 L30.78,52.8406467 L29.18,44.7113164 L20.82,44.7113164 L19.22,52.8406467 Z" id="Shape" fill="#183165"></path>
                            <path d="M34,54.8729792 L16,54.8729792 C15.4477153,54.8729792 15,54.4180261 15,53.8568129 C15,53.2955998 15.4477153,52.8406467 16,52.8406467 L34,52.8406467 C34.5522847,52.8406467 35,53.2955998 35,53.8568129 C35,54.4180261 34.5522847,54.8729792 34,54.8729792 Z" id="Path" fill="#183165"></path>
                            <path d="M43,36.5819861 L7,36.5819861 C6.44771525,36.5819861 6,36.127033 6,35.5658199 L6,23.3718245 C6,22.8106113 6.44771525,22.3556582 7,22.3556582 C7.55228475,22.3556582 8,22.8106113 8,23.3718245 L8,34.5496536 L42,34.5496536 L42,9.56212471 L34.59,2.03233256 L9,2.03233256 C8.44771525,2.03233256 8,2.4872857 8,3.04849885 L8,14.2263279 C8,14.7875411 7.55228475,15.2424942 7,15.2424942 C6.44771525,15.2424942 6,14.7875411 6,14.2263279 L6,3.04849885 C6,1.36485942 7.34314575,-1.70068429e-05 9,-1.70068429e-05 L35,-1.70068429e-05 C35.265803,-0.00156160248 35.5212812,0.104475597 35.71,0.294688222 L43.71,8.42401848 C43.8971865,8.61578819 44.0015368,8.87539651 44.0000167,9.14549654 L44.0000167,35.5658199 C44.0000167,36.127033 43.5522847,36.5819861 43,36.5819861 Z" id="Path" fill="#183165"></path>
                            <path d="M7,20.3233256 C6.44771525,20.3233256 6,19.8683725 6,19.3071594 L6,18.2909931 C6,17.7297799 6.44771525,17.2748268 7,17.2748268 C7.55228475,17.2748268 8,17.7297799 8,18.2909931 L8,19.3071594 C8,19.8683725 7.55228475,20.3233256 7,20.3233256 Z" id="Path" fill="#033C59"></path>
                            <path d="M43,10.1616628 L37,10.1616628 C35.3431458,10.1616628 34,8.79680339 34,7.11316397 L34,1.01616628 C34.0020151,0.605938038 34.2465745,0.237176867 34.62,0.0812933025 C34.9923971,-0.0778350144 35.4224393,0.00635656502 35.71,0.294688222 L43.71,8.42401848 C43.9937446,8.71622796 44.0765967,9.15322235 43.92,9.53163972 C43.7665964,9.91110213 43.4037019,10.1596151 43,10.1616628 Z M36,3.46512702 L36,7.11316397 C36,7.67437711 36.4477153,8.12933025 37,8.12933025 L40.59,8.12933025 L36,3.46512702 Z" id="Shape" fill="#183165"></path>
                        </g>
                        <path d="M35,20 L34,20 C33.4477153,20 33,19.5522847 33,19 C33,18.4477153 33.4477153,18 34,18 L35,18 C35.5522847,18 36,18.4477153 36,19 C36,19.5522847 35.5522847,20 35,20 Z" id="Path" fill="#3761BA"></path>
                        <path d="M33.1359568,17 C32.8357568,17.0017205 32.5472176,16.8836094 32.334077,16.6717382 C32.1202658,16.4592105 32,16.1699088 32,15.8681093 C32,15.5663098 32.1202658,15.2770081 32.334077,15.0644804 L33.1359568,14.2721701 C33.5840611,13.8875864 34.2520313,13.9134435 34.6691997,14.3315218 C35.0863682,14.7496002 35.1121689,15.4190276 34.7284223,15.8681093 L33.9378366,16.6717382 C33.724696,16.8836094 33.4361569,17.0017205 33.1359568,17 L33.1359568,17 Z" id="Path" fill="#3761BA"></path>
                        <path d="M33.9011164,24 C33.6047153,23.9987737 33.3211388,23.8793592 33.1136588,23.6684001 L32.3262011,22.8946671 C32.0448695,22.61429 31.934997,22.2056314 32.0379715,21.822629 C32.140946,21.4396267 32.4411232,21.1404678 32.8254292,21.0378427 C33.2097353,20.9352175 33.6197849,21.0447173 33.9011164,21.3250945 L34.6774832,22.1098808 C35.1075056,22.541002 35.1075056,23.2372789 34.6774832,23.6684001 C34.4727104,23.8766606 34.1936617,23.9958472 33.9011164,24 L33.9011164,24 Z" id="Path" fill="#3761BA"></path>
                        <path d="M17,7 L12,7 C11.4477153,7 11,6.55228475 11,6 C11,5.44771525 11.4477153,5 12,5 L17,5 C17.5522847,5 18,5.44771525 18,6 C18,6.55228475 17.5522847,7 17,7 Z" id="Path" fill="#F5F7FF"></path>
                        <path d="M17,11 L12,11 C11.4477153,11 11,10.5522847 11,10 C11,9.44771525 11.4477153,9 12,9 L17,9 C17.5522847,9 18,9.44771525 18,10 C18,10.5522847 17.5522847,11 17,11 Z" id="Path" fill="#F5F7FF"></path>
                        <path d="M27.7,25.9879286 C27.5671541,26.0040238 27.4328459,26.0040238 27.3,25.9879286 C26.6728586,25.8827357 26.1182236,25.5208543 25.77,24.9896531 C24.9583711,23.7479917 23.5751854,22.9975567 22.09,22.9931021 L21,22.9931021 C20.4477153,22.9931021 20,22.5461589 20,21.9948266 L20,16.0051734 C20,15.4538411 20.4477153,15.0068979 21,15.0068979 L22.09,15.0068979 C23.5778101,15.0021818 24.9638909,14.2522141 25.78,13.0103469 C26.1241858,12.4796943 26.6756067,12.117543 27.3,12.0120714 C27.4328459,11.9959762 27.5671541,11.9959762 27.7,12.0120714 C28.9702549,12.0120714 30,13.0400407 30,14.3081051 L30,23.6918949 C30,24.9599593 28.9702549,25.9879286 27.7,25.9879286 L27.7,25.9879286 Z M22,20.996551 L22.09,20.996551 C24.2429481,20.9908637 26.2540289,22.0678447 27.44,23.8616018 C27.486041,23.9286701 27.5590535,23.972402 27.64,23.9813948 L27.7,23.9813948 C27.8634857,23.9762099 27.9948061,23.845116 28,23.6819122 L28,14.3081051 C28.002713,14.2296103 27.9733615,14.1533839 27.9186791,14.0969134 C27.8639967,14.040443 27.7886772,14.0086224 27.71,14.0086224 L27.64,14.0086224 C27.5639452,14.0167087 27.4948943,14.0566165 27.45,14.1184327 C26.2641813,15.9199968 24.249403,17.0044498 22.09,17.003449 L22,17.003449 L22,20.996551 Z M27.7,13.0103469 L27.7,14.0086224 L27.7,13.0103469 Z" id="Shape" fill="#183165"></path>
                        <path d="M21,23 L19,23 C16.790861,23 15,21.209139 15,19 C15,16.790861 16.790861,15 19,15 L21,15 C21.5522847,15 22,15.4477153 22,16 L22,22 C22,22.5522847 21.5522847,23 21,23 Z M19,17 C17.8954305,17 17,17.8954305 17,19 C17,20.1045695 17.8954305,21 19,21 L20,21 L20,17 L19,17 Z" id="Shape" fill="#183165"></path>
                        <path d="M20.9993512,28 C20.5897602,28.0003937 20.2213829,27.7507509 20.0698344,27.37008 L18.0708735,22.3707381 C17.9387539,22.0385248 17.9938353,21.6610348 18.215369,21.3804648 C18.4369027,21.0998949 18.7912325,20.9588702 19.1448858,21.0105135 C19.4985391,21.0621568 19.7977875,21.2986222 19.9299071,21.6308355 L21.928868,26.6301774 C22.0271961,26.8767759 22.0234498,27.1523715 21.918455,27.396204 C21.8134602,27.6400365 21.6158384,27.832084 21.3691589,27.9300063 C21.2514325,27.9765539 21.1259387,28.0003051 20.9993512,28 L20.9993512,28 Z" id="Path" fill="#183165"></path>
                    </g>
                </g>
            </g>
        </g>
    </g>
</svg>