<?xml version="1.0" encoding="UTF-8"?>
<svg width="46px" height="42px" viewBox="0 0 46 42" version="1.1" xmlns="http://www.w3.org/2000/svg" xmlns:xlink="http://www.w3.org/1999/xlink">
    <!-- Generator: Sketch 56.3 (81716) - https://sketch.com -->
    <title>Restaurants</title>
    <desc>Created with Sketch.</desc>
    <g id="Page-1" stroke="none" stroke-width="1" fill="none" fill-rule="evenodd">
        <g id="Hey-Digital_Home" transform="translate(-897.000000, -756.000000)" fill-rule="nonzero">
            <g id="Group-14" transform="translate(0.000000, 667.000000)">
                <g id="Group-54" transform="translate(876.000000, 89.000000)">
                    <g id="Restaurants" transform="translate(21.000000, 0.000000)">
                        <path d="M29,15.6443515 L18,15.6443515 C18,12.3306796 20.4624674,9.64435146 23.5,9.64435146 C26.5375326,9.64435146 29,12.3306796 29,15.6443515 Z" id="Path" fill="#E48E66"></path>
                        <path d="M27.4290375,39.2490724 L27.4133616,39.2566075 C23.890472,41.0642848 19.6935155,41.0612707 16.1729201,39.2490724 C13.7397023,40.9776309 10.4584523,40.9829054 8.01949941,39.2626356 L8,39.2490724 L11.9151713,17.6443515 L34.1337684,17.6443515 L38,39.2490724 L37.6818923,39.4159755 C34.4648756,41.1113794 30.5875561,41.0480843 27.4290375,39.2490724 Z" id="Path" fill="#F8EC7D"></path>
                        <g id="Group" transform="translate(0.000000, 0.644351)" fill="#63316D">
                            <path d="M45.1467576,7.54341439 C44.6729699,7.48563011 44.2411965,7.81331843 44.1819261,8.27486154 L42.355799,22.516869 L35.6169841,22.516869 L34.7268034,17.5956926 C34.6540284,17.193031 34.2950301,16.8993549 33.875636,16.8993549 L12.0761481,16.8993549 C11.6575043,16.8993549 11.2988811,17.1919338 11.2253558,17.593864 L10.3235461,22.516869 L3.54796865,22.516869 L1.72184149,8.27486154 C1.66294619,7.81331843 1.23079775,7.48563011 0.757009979,7.54341439 C0.283597414,7.60083306 -0.0525180396,8.02214662 0.00675231937,8.48405551 L1.927412,23.4640931 C1.98143056,23.8857724 2.34905693,24.2021232 2.78495661,24.2021232 L4.32561084,24.2021232 L2.50848667,34.830416 C2.43008476,35.2897648 2.74819403,35.7238787 3.21898067,35.8003149 C3.69014251,35.8767511 4.13542049,35.5666175 4.21382239,35.1076345 L6.07821285,24.2021232 L10.0155653,24.2021232 L7.38403636,38.5659166 C7.32476605,38.8888505 7.46318858,39.2158074 7.73890831,39.404155 L7.75091243,39.4122009 C10.2867835,41.1844974 13.66857,41.2927516 16.3181052,39.6857621 C19.7895475,41.2814141 23.8124294,41.2737339 27.2778698,39.6649159 C28.827152,40.4541474 30.5437416,40.8802154 32.2914669,40.9094733 C32.352988,40.9105705 32.414134,40.9109362 32.4756552,40.9109362 C34.3201637,40.9102047 36.1357874,40.4669477 37.7630964,39.6199319 L38.0752036,39.4579163 C38.405317,39.286392 38.5850036,38.9268858 38.5201064,38.5677452 L35.9215889,24.2021232 L39.82593,24.2021232 L41.6903203,35.1076345 C41.7732238,35.5622289 42.2158758,35.8668766 42.6832864,35.7911718 C43.1503218,35.7151013 43.4676808,35.286839 43.3952809,34.830416 L41.5781568,24.2021232 L43.118811,24.2021232 C43.5547107,24.2021232 43.9223371,23.8857724 43.9763556,23.4640931 L45.8970153,8.48405551 C45.9562857,8.02214662 45.6201702,7.60119876 45.1467576,7.54341439 L45.1467576,7.54341439 Z M28.1616733,38.2126276 L28.1616733,27.3853812 C28.1616733,26.9201808 27.7749155,26.5427541 27.2973765,26.5427541 C26.8202125,26.5427541 26.4330796,26.9201808 26.4330796,27.3853812 L26.4330796,38.1884899 C23.479315,39.5244781 20.0716444,39.5244781 17.1178799,38.1884899 L17.1178799,30.6622644 C17.1178799,30.197064 16.731122,29.8196373 16.253583,29.8196373 C15.7764191,29.8196373 15.3892861,30.197064 15.3892861,30.6622644 L15.3892861,38.2638289 C13.4922595,39.4056179 11.1019385,39.425367 9.18578027,38.3146645 L12.7997716,18.5846091 L33.150512,18.5846091 L36.7086091,38.2546858 C34.0166845,39.5745822 30.8397182,39.5588561 28.1616733,38.2126276 Z" id="Shape"></path>
                            <path d="M16.7097397,15.8131559 L28.2336981,15.8131559 C28.7112371,15.8131559 29.0979951,15.4360949 29.0979951,14.9705288 C29.0987452,11.7283893 26.6333984,8.98838825 23.3360158,8.56670899 L23.3360158,7.78040326 C23.3360158,7.31483718 22.9492579,6.93777615 22.4717189,6.93777615 C21.994555,6.93777615 21.607422,7.31483718 21.607422,7.78040326 L21.607422,8.56744039 C18.3130403,8.99350843 15.8499443,11.7305837 15.8454428,14.9705288 C15.8454428,15.4360949 16.2325758,15.8131559 16.7097397,15.8131559 Z M22.4717189,10.1956418 C24.8436586,10.1956418 26.8746062,11.8520039 27.2940003,14.1279017 L17.6509379,14.1279017 C18.0725828,11.8538325 20.1012796,10.1989333 22.4717189,10.1956418 L22.4717189,10.1956418 Z" id="Shape"></path>
                            <path d="M25.3527085,6.6942043 C25.8302475,6.6942043 26.2170054,6.31677757 26.2170054,5.85157718 L26.2170054,3.69819678 C26.2170054,3.23299639 25.8302475,2.85556966 25.3527085,2.85556966 C24.8755446,2.85556966 24.4884116,3.23299639 24.4884116,3.69819678 L24.4884116,5.85157718 C24.4884116,6.31677757 24.8755446,6.6942043 25.3527085,6.6942043 Z" id="Path"></path>
                            <path d="M21.415356,5.1025753 C21.892895,5.1025753 22.2796529,4.72514857 22.2796529,4.25994819 L22.2796529,0.889439732 C22.2796529,0.424239346 21.892895,0.0468126175 21.415356,0.0468126175 C20.9381921,0.0468126175 20.5510591,0.424239346 20.5510591,0.889439732 L20.5510591,4.25994819 C20.5510591,4.72514857 20.9381921,5.1025753 21.415356,5.1025753 Z" id="Path"></path>
                            <path d="M17.7661025,7.34958094 C18.2436415,7.34958094 18.6303994,6.97215421 18.6303994,6.50695383 L18.6303994,4.72807436 C18.6303994,4.26287398 18.2436415,3.88544725 17.7661025,3.88544725 C17.2889386,3.88544725 16.9018056,4.26287398 16.9018056,4.72807436 L16.9018056,6.50695383 C16.9018056,6.97215421 17.2889386,7.34958094 17.7661025,7.34958094 Z" id="Path"></path>
                        </g>
                    </g>
                </g>
            </g>
        </g>
    </g>
</svg>