<svg xmlns="http://www.w3.org/2000/svg" width="25" height="25" viewBox="0 0 25 25">
    <g fill="none">
        <path fill="#03A9F4" d="M24.556 12.63C24.556 6.137 19.22.873 12.633.873c-.694 0-1.375.06-2.04.172C9.529.385 8.268 0 6.917 0 3.096 0 0 3.052 0 6.819c0 1.258.347 2.434.95 3.448-.158.763-.242 1.555-.242 2.363 0 6.493 5.339 11.757 11.923 11.757.747 0 1.475-.068 2.185-.196.975.515 2.086.809 3.27.809C21.905 25 25 21.947 25 18.183c0-1.088-.26-2.116-.719-3.028.181-.816.275-1.658.275-2.525z"/>
        <path fill="#FAFAFA" d="M18.748 18.248c-.551.77-1.365 1.38-2.423 1.811-1.045.428-2.297.649-3.725.649-1.713 0-3.148-.297-4.27-.885-.802-.426-1.461-1.003-1.963-1.718-.508-.72-.762-1.433-.762-2.125 0-.428.167-.803.497-1.108.326-.305.745-.456 1.245-.456.41 0 .762.12 1.05.359.273.231.51.572.698 1.008.211.478.44.881.683 1.195.236.308.572.564 1.002.766.433.2 1.015.304 1.73.304.987 0 1.796-.209 2.402-.617.596-.398.883-.88.883-1.467 0-.462-.151-.828-.46-1.114-.324-.3-.752-.533-1.27-.694-.543-.165-1.28-.347-2.188-.534-1.24-.261-2.291-.569-3.125-.922-.855-.36-1.546-.856-2.049-1.477-.512-.634-.772-1.426-.772-2.357 0-.888.272-1.688.81-2.378.532-.686 1.31-1.222 2.315-1.586.99-.361 2.166-.543 3.499-.543 1.064 0 2 .122 2.783.363.785.24 1.448.565 1.968.967.525.406.916.836 1.16 1.286.246.453.373.905.373 1.34 0 .42-.164.804-.489 1.135-.328.334-.74.503-1.225.503-.44 0-.788-.108-1.027-.316-.223-.195-.456-.5-.712-.934-.297-.556-.658-.995-1.07-1.306-.402-.302-1.07-.452-1.993-.452-.853 0-1.55.17-2.065.503-.497.32-.74.69-.74 1.127 0 .267.079.49.24.683.169.206.408.383.71.533.313.154.637.28.96.367.331.09.886.226 1.65.4.966.203 1.852.433 2.636.681.795.248 1.48.556 2.042.917.57.367 1.022.836 1.344 1.399.322.567.484 1.262.484 2.072-.001.967-.282 1.85-.836 2.621z"/>
    </g>
</svg>
