<?xml version="1.0" encoding="UTF-8"?>
<svg width="44px" height="40px" viewBox="0 0 44 40" version="1.1" xmlns="http://www.w3.org/2000/svg" xmlns:xlink="http://www.w3.org/1999/xlink">
    <!-- Generator: Sketch 56.3 (81716) - https://sketch.com -->
    <title>Small Business</title>
    <desc>Created with Sketch.</desc>
    <g id="Page-1" stroke="none" stroke-width="1" fill="none" fill-rule="evenodd">
        <g id="Hey-Digital_Home" transform="translate(-560.000000, -755.000000)" fill-rule="nonzero">
            <g id="Group-14" transform="translate(0.000000, 667.000000)">
                <g id="Group-52" transform="translate(529.000000, 88.000000)">
                    <g id="Small-Business" transform="translate(31.000000, 0.000000)">
                        <polygon id="Path" fill="#FF5249" points="5.34482759 1 1 12 43 12 38.6551724 1"></polygon>
                        <path d="M39,19.1290323 C37.7916057,19.1290323 36.8125,18.1757498 36.8125,17 C36.8125,18.1757498 35.8330384,19.1290323 34.625,19.1290323 C33.4166057,19.1290323 32.4375,18.1757498 32.4375,17 C32.4375,18.1757498 31.4580384,19.1290323 30.25,19.1290323 C29.0416057,19.1290323 28.0625,18.1757498 28.0625,17 C28.0625,18.1757498 27.0830384,19.1290323 25.875,19.1290323 C24.6666057,19.1290323 23.6875,18.1757498 23.6875,17 C23.6875,18.1757498 22.7080384,19.1290323 21.5,19.1290323 C20.2916057,19.1290323 19.3125,18.1757498 19.3125,17 C19.3125,18.1757498 18.3330384,19.1290323 17.125,19.1290323 C15.9166057,19.1290323 14.9375,18.1757498 14.9375,17 C14.9375,18.1757498 13.9580384,19.1290323 12.75,19.1290323 C11.5416057,19.1290323 10.5625,18.1757498 10.5625,17 C10.5625,18.1757498 9.5830384,19.1290323 8.375,19.1290323 C7.16660568,19.1290323 6.1875,18.1757498 6.1875,17 C6.1875,18.1757498 5.2080384,19.1290323 4,19.1290323 L4,39 L6.91666667,39 L6.91666667,26.2258065 L14.2083333,26.2258065 L14.2083333,39 L39,39 L39,19.1290323 Z M36.0833333,34.0322581 L18.5833333,34.0322581 L18.5833333,22.6774194 L36.0833333,22.6774194 L36.0833333,34.0322581 Z" id="Shape" fill="#76B1FF"></path>
                        <g id="Group" fill="#000000">
                            <path d="M39.4662162,0.592176625 C39.355087,0.317471572 39.0856614,0.138100538 38.7865774,0.138100538 L5.12337573,0.138100538 C4.82393451,0.138100538 4.55486619,0.317471572 4.4433797,0.592176625 L0.0525273098,11.439144 C-0.0378767734,11.6619447 -0.0103625031,11.9147581 0.125779626,12.1135486 C0.261921755,12.312339 0.489182669,12.4313307 0.732523343,12.4313307 L1.46433207,12.4313307 L1.46433207,16.7701177 C1.46933472,18.0850301 2.37123181,19.2311647 3.65975827,19.5598928 L3.65975827,39.1871836 C3.65975827,39.58653 3.98707125,39.9103147 4.391567,39.9103147 L39.5183861,39.9103147 C39.9225247,39.9103147 40.2501949,39.58653 40.2501949,39.1871836 L40.2501949,19.5598928 C41.5383641,19.2311647 42.4406185,18.0850301 42.4456211,16.7701177 L42.4456211,12.4313307 L43.1774298,12.4313307 C43.4204132,12.4313307 43.6476742,12.312339 43.7838163,12.1135486 C43.9199584,11.9147581 43.9474727,11.6619447 43.8570686,11.439144 L39.4662162,0.592176625 Z M5.61863306,1.58436337 L38.2909629,1.58436337 L42.0965112,10.9850684 L1.81308467,10.9850684 L5.61863306,1.58436337 Z M36.5911512,16.7701177 C36.5911512,17.5688104 35.9358108,18.21638 35.1275337,18.21638 C34.3188995,18.21638 33.6639163,17.5688104 33.6639163,16.7701177 L33.6639163,12.4313307 L36.5911512,12.4313307 L36.5911512,16.7701177 Z M32.2002988,16.7701177 C32.2002988,17.5688104 31.5449584,18.21638 30.7366813,18.21638 C29.9280471,18.21638 29.2730639,17.5688104 29.2730639,16.7701177 L29.2730639,12.4313307 L32.2002988,12.4313307 L32.2002988,16.7701177 Z M27.8094464,16.7701177 C27.8094464,17.5688104 27.154106,18.21638 26.345829,18.21638 C25.5371947,18.21638 24.8822115,17.5688104 24.8822115,16.7701177 L24.8822115,12.4313307 L27.8094464,12.4313307 L27.8094464,16.7701177 Z M23.418594,16.7701177 C23.418594,17.5688104 22.7632536,18.21638 21.9549766,18.21638 C21.1463423,18.21638 20.4913591,17.5688104 20.4913591,16.7701177 L20.4913591,12.4313307 L23.418594,12.4313307 L23.418594,16.7701177 Z M19.0277416,16.7701177 C19.0277416,17.5688104 18.3724012,18.21638 17.5641242,18.21638 C16.7554899,18.21638 16.1005067,17.5688104 16.1005067,16.7701177 L16.1005067,12.4313307 L19.0277416,12.4313307 L19.0277416,16.7701177 Z M14.6368892,16.7701177 C14.6368892,17.5688104 13.9815489,18.21638 13.1732718,18.21638 C12.3646375,18.21638 11.7096543,17.5688104 11.7096543,16.7701177 L11.7096543,12.4313307 L14.6368892,12.4313307 L14.6368892,16.7701177 Z M10.2460369,16.7701177 C10.2460369,17.5688104 9.59069647,18.21638 8.78241939,18.21638 C7.97378511,18.21638 7.31880193,17.5688104 7.31880193,16.7701177 L7.31880193,12.4313307 L10.2460369,12.4313307 L10.2460369,16.7701177 Z M2.92794954,16.7701177 L2.92794954,12.4313307 L5.85518447,12.4313307 L5.85518447,16.7701177 C5.85518447,17.5688104 5.19984407,18.21638 4.391567,18.21638 C3.58293272,18.21638 2.92794954,17.5688104 2.92794954,16.7701177 Z M8.05061066,38.4640524 L8.05061066,26.8939539 L13.9050805,26.8939539 L13.9050805,38.4640524 L8.05061066,38.4640524 Z M15.368698,38.4640524 L15.368698,26.1708227 C15.368698,25.7711234 15.0410278,25.4476916 14.6368892,25.4476916 L7.31880193,25.4476916 C6.91430618,25.4476916 6.5869932,25.7711234 6.5869932,26.1708227 L6.5869932,38.4640524 L5.12337573,38.4640524 L5.12337573,19.5598928 C5.69152807,19.4137129 6.20179314,19.1012271 6.5869932,18.6630407 C7.13549244,19.2975459 7.93769495,19.6626423 8.78241939,19.6626423 C9.62678662,19.6626423 10.428989,19.2975459 10.9778456,18.6630407 C11.5263448,19.2975459 12.3285473,19.6626423 13.1732718,19.6626423 C14.017639,19.6626423 14.8198414,19.2975459 15.368698,18.6630407 C15.9171972,19.2975459 16.7193997,19.6626423 17.5641242,19.6626423 C18.4084914,19.6626423 19.2106938,19.2975459 19.7595504,18.6630407 C20.3080496,19.2975459 21.1102521,19.6626423 21.9549766,19.6626423 C22.7993438,19.6626423 23.6015462,19.2975459 24.1504028,18.6630407 C24.698902,19.2975459 25.5011045,19.6626423 26.345829,19.6626423 C27.1901962,19.6626423 27.9923986,19.2975459 28.5412552,18.6630407 C29.0897544,19.2975459 29.8919569,19.6626423 30.7366813,19.6626423 C31.5810486,19.6626423 32.383251,19.2975459 32.9321075,18.6630407 C33.4806068,19.2975459 34.2828093,19.6626423 35.1275337,19.6626423 C35.971901,19.6626423 36.7741034,19.2975459 37.3229599,18.6630407 C37.7078028,19.1012271 38.2180679,19.4137129 38.7865774,19.5598928 L38.7865774,38.4640524 L15.368698,38.4640524 Z M40.9820036,16.7701177 C40.9820036,17.5688104 40.3266632,18.21638 39.5183861,18.21638 C38.7097518,18.21638 38.0547687,17.5688104 38.0547687,16.7701177 L38.0547687,12.4313307 L40.9820036,12.4313307 L40.9820036,16.7701177 Z" id="Shape"></path>
                            <path d="M36.5911512,21.8320358 L19.0277416,21.8320358 C18.6232459,21.8320358 18.2959329,22.1554676 18.2959329,22.555167 L18.2959329,34.1252655 C18.2959329,34.5246119 18.6232459,34.8483966 19.0277416,34.8483966 L36.5911512,34.8483966 C36.9952897,34.8483966 37.3229599,34.5246119 37.3229599,34.1252655 L37.3229599,22.555167 C37.3229599,22.1554676 36.9952897,21.8320358 36.5911512,21.8320358 Z M35.8593425,33.4021343 L19.7595504,33.4021343 L19.7595504,23.2782981 L35.8593425,23.2782981 L35.8593425,33.4021343 Z" id="Shape"></path>
                            <polygon id="Path" points="11.7096543 31.955872 13.1732718 31.955872 13.1732718 33.4021343 11.7096543 33.4021343"></polygon>
                        </g>
                    </g>
                </g>
            </g>
        </g>
    </g>
</svg>