<svg xmlns="http://www.w3.org/2000/svg" width="86" height="87" viewBox="0 0 86 87">
    <g fill="none">
        <path fill="#E1E8FA" d="M86 70.591C86 79.661 66.754 87 43 87S0 79.66 0 70.591C0 66.071 4.775 61.97 12.53 59c1.173 1.718 2.493 3.33 3.944 4.819.267.283.534.551.815.805.534.537 1.083 1.029 1.646 1.506.03.03.044.06.074.075.504.433 1.008.85 1.542 1.238.122.104.25.199.386.284.534.417 1.082.805 1.646 1.178.08.056.165.105.251.15.446.313.89.581 1.35.85.37.238.756.447 1.142.656.519.299 1.052.567 1.601.82.43.224.89.418 1.334.627.682.298 1.38.567 2.077.82.385.135.756.269 1.141.389.534.178 1.068.343 1.617.492.03.019.066.029.103.03.012.01.028.016.045.014.355.105.726.194 1.097.269.025.03.066.041.103.03.37.105.747.19 1.128.253.14.044.283.075.43.09.4.075.8.15 1.216.209 1.138.19 2.287.319 3.44.387.222.015.444.03.652.03.563.03 1.126.045 1.69.045.564 0 1.127-.015 1.69-.045.208 0 .43-.015.653-.03 1.153-.068 2.3-.198 3.44-.387.415-.06.816-.134 1.215-.209.147-.015.29-.046.43-.09.38-.063.757-.148 1.128-.253.037.011.078 0 .104-.03.37-.075.74-.164 1.096-.269.017.002.033-.003.045-.015.037 0 .072-.01.104-.03.549-.148 1.082-.313 1.616-.491.386-.12.756-.254 1.142-.389.697-.253 1.394-.522 2.076-.82.444-.209.904-.403 1.334-.627.549-.253 1.082-.521 1.602-.82.385-.209.77-.418 1.141-.656.46-.269.904-.537 1.35-.85.086-.045.171-.094.252-.15.563-.373 1.112-.76 1.645-1.178.136-.085.264-.18.386-.284.534-.387 1.038-.805 1.542-1.238.03-.015.044-.044.074-.075.564-.477 1.112-.97 1.646-1.506.282-.254.548-.522.815-.805 1.451-1.49 2.77-3.101 3.945-4.819C81.225 61.969 86 66.07 86 70.591z"/>
        <path fill="#3761BA" d="M75 70.5C75 64.7 60.45 60 42.5 60S10 64.7 10 70.5C10 76.299 24.55 81 42.5 81S75 76.299 75 70.5z"/>
        <path fill="#FFF" d="M78 48.695c-.118.39-.236.78-.369 1.17-.237.78-.517 1.545-.827 2.295-.147.375-.31.735-.473 1.11-.162.375-.325.735-.501 1.096-.266.584-.562 1.154-.872 1.724-.192.36-.399.72-.605 1.08-.429.735-.887 1.47-1.388 2.175-1.17 1.727-2.484 3.349-3.93 4.845-.265.27-.53.54-.812.81H57.384L50 51.5 57.384 38h14.768L78 48.695z"/>
        <path fill="#F35229" d="M69 65c-.536.516-1.088 1.016-1.655 1.488-.03.03-.045.059-.075.073-.507.428-1.013.84-1.55 1.223-.122.103-.252.196-.388.28-.537.412-1.088.796-1.655 1.163-.081.056-.166.105-.254.148-.436.304-.889.584-1.357.84-.372.235-.76.441-1.148.648-.537.28-1.074.56-1.61.81-.448.22-.88.412-1.342.618-.686.295-1.387.56-2.088.81-.373.148-.76.266-1.148.384-.537.176-1.074.339-1.625.486-.033.018-.068.028-.105.029l5.055-9H69zM33 74c-.037 0-.072-.01-.104-.03-.552-.146-1.089-.309-1.626-.485-.387-.118-.775-.236-1.148-.383-.701-.251-1.402-.516-2.088-.81-.462-.207-.894-.398-1.342-.62-.536-.25-1.073-.53-1.61-.81-.388-.206-.776-.412-1.148-.647-.467-.256-.92-.536-1.357-.84-.088-.043-.172-.092-.254-.148-.566-.367-1.118-.75-1.655-1.163-.136-.084-.266-.177-.388-.28-.537-.382-1.043-.795-1.55-1.223-.03-.014-.045-.043-.075-.073-.566-.472-1.118-.972-1.655-1.488h10.945L33 74z"/>
        <path fill="#FFF" d="M36 51.5L28.616 65h-10.84c-.28-.27-.546-.54-.812-.81-1.445-1.496-2.76-3.118-3.928-4.845-.502-.705-.96-1.44-1.389-2.175-.206-.36-.413-.72-.605-1.08-.31-.57-.605-1.14-.87-1.724-.178-.361-.34-.72-.503-1.096-.163-.375-.325-.735-.472-1.11-.31-.75-.591-1.515-.828-2.295-.132-.39-.25-.78-.369-1.17L13.848 38h14.768L36 51.5z"/>
        <path fill="#F35229" d="M13 38.5L7.456 49c-1.941-6.851-1.941-14.149 0-21L13 38.5z"/>
        <path fill="#FFF" d="M36 25.5L28.616 39H13.848L8 28.305C9.807 22.1 13.177 16.48 17.777 12h10.839L36 25.5z"/>
        <path fill="#F35229" d="M58 38.5L50.5 52 35.5 52 28 38.5 35.5 25 50.5 25z"/>
        <path fill="#FFF" d="M58 64.5l-5.085 9.165c-.012.012-.028.017-.045.015-.375.105-.735.195-1.11.27-.026.03-.067.042-.105.03-.375.105-.75.18-1.14.255-.141.045-.287.075-.435.09-.405.09-.825.15-1.23.21-1.152.19-2.314.321-3.48.39-.21.015-.435.03-.66.03-.57.03-1.14.045-1.71.045-.57 0-1.14-.015-1.71-.045-.225 0-.45-.015-.66-.03-1.166-.069-2.328-.2-3.48-.39-.405-.06-.825-.12-1.23-.21-.148-.015-.294-.045-.435-.09-.39-.075-.765-.15-1.14-.255-.038.012-.08 0-.105-.03-.375-.075-.735-.165-1.11-.27-.017.002-.033-.003-.045-.015L28 64.5 35.5 51h15L58 64.5zM78 28.305L72.152 39H57.384L50 25.5 57.384 12h10.84c4.599 4.48 7.969 10.099 9.776 16.305z"/>
        <path fill="#F35229" d="M69 12H58.055L53 3c6.018 1.615 11.524 4.711 16 9zM33 3l-5.055 9H17c4.477-4.289 9.982-7.385 16-9z"/>
        <path fill="#FFF" d="M58 11.5L50.5 25h-15L28 11.5l5.085-9.165c6.49-1.78 13.34-1.78 19.83 0L58 11.5z"/>
        <path fill="#F35229" d="M80 38.5c.005 3.556-.485 7.094-1.456 10.5L73 38.5 78.544 28c.97 3.406 1.461 6.944 1.456 10.5z"/>
        <path fill="#183165" d="M80.994 37.053v-.16c-.014-.342-.031-.684-.058-.993-.031-.544-.076-1.09-.148-1.715-.06-.521-.121-1.052-.203-1.53-.08-.56-.176-1.133-.296-1.645-.222-1.17-.508-2.329-.858-3.468l-.007-.026c-.125-.402-.247-.802-.37-1.157-.25-.808-.542-1.602-.872-2.38-.126-.312-.26-.614-.394-.92l-.1-.222c-.172-.393-.344-.769-.515-1.106-.281-.61-.592-1.203-.916-1.79-.2-.367-.414-.74-.639-1.12-.419-.695-.852-1.39-1.308-2.044-.307-.444-.615-.878-.933-1.3-1.003-1.356-2.1-2.64-3.286-3.84-.296-.312-.593-.608-.856-.842-.536-.523-1.089-1.037-1.654-1.51-.044-.043-.091-.085-.138-.125-.534-.454-1.07-.888-1.667-1.333-.122-.1-.25-.191-.382-.276-.543-.418-1.098-.809-1.658-1.176-.099-.069-.202-.131-.308-.188-.424-.298-.864-.572-1.319-.822-.386-.249-.79-.468-1.288-.74-.54-.284-1.077-.568-1.588-.809-.424-.212-.836-.398-1.405-.656-.71-.308-1.436-.585-2.113-.83-.41-.164-.833-.295-1.223-.414-.528-.176-1.056-.339-1.597-.487-.085-.032-.172-.057-.262-.075-.38-.106-.74-.198-1.121-.273l-.056-.012c-.361-.101-.727-.184-1.096-.247-.2-.061-.405-.106-.613-.133C49.365.607 48.97.54 48.54.485 47.352.287 46.154.153 44.951.08c-.24-.016-.5-.03-.63-.028-.397-.032-.776-.032-1.072-.031-.458-.03-.918-.03-1.376 0-.397 0-.78 0-1.052.03-.256 0-.516.016-.74.033-1.222.071-2.439.207-3.647.407-.38.056-.772.115-1.155.197-.16.016-.32.049-.474.098-.425.08-.835.165-1.245.28l-.05.013c-.36.072-.709.158-1.068.257-.082.017-.163.04-.241.071-.568.148-1.12.322-1.63.495-.426.13-.85.262-1.211.409-.725.262-1.45.539-2.296.907-.434.197-.846.384-1.242.582-.54.255-1.077.538-1.712.872-.402.218-.806.445-1.108.634-.483.267-.95.559-1.403.874-.102.055-.201.115-.297.18-.573.375-1.128.766-1.67 1.184-.144.094-.283.195-.415.303-.564.41-1.101.848-1.63 1.303-.046.04-.091.08-.133.122-.646.545-1.178 1.036-1.643 1.497-.296.277-.569.553-.85.835-1.19 1.204-2.294 2.49-3.302 3.85-.325.43-.633.862-.932 1.299-.464.663-.896 1.359-1.333 2.073-.215.367-.428.74-.624 1.094-.329.592-.64 1.184-.904 1.758-.188.376-.36.752-.533 1.144l-.099.222c-.135.307-.268.609-.385.9-.32.747-.6 1.512-.84 2.29-.16.413-.297.835-.41 1.263l-.008.031c-.345 1.124-.627 2.266-.848 3.42-.128.56-.224 1.133-.296 1.652-.07.518-.148 1.05-.219 1.65-.063.546-.11 1.092-.14 1.603-.027.342-.043.684-.058 1.026v.16C4.015 37.527 4 38 4 38.49c0 .49.015.964.03 1.452v.164c.016.34.03.68.057.989.032.543.078 1.09.148 1.715.06.521.122 1.052.204 1.53.08.559.176 1.133.296 1.645.22 1.173.506 2.334.855 3.476v.027c.124.401.247.801.37 1.156.25.808.541 1.603.871 2.381.126.312.259.614.394.92l.1.222c.172.393.344.769.515 1.107.282.608.592 1.201.917 1.788.2.367.413.74.632 1.11.508.858.987 1.598 1.448 2.232 1.215 1.769 2.582 3.43 4.085 4.962.296.312.593.609.857.843.537.523 1.088 1.036 1.656 1.51.043.044.089.086.136.124.533.455 1.07.889 1.666 1.333.122.1.25.192.381.277.544.418 1.099.809 1.66 1.176.1.068.203.132.31.19.423.297.863.57 1.316.82.386.248.791.468 1.288.74.54.286 1.08.569 1.587.809.425.213.839.4 1.406.657.71.308 1.437.585 2.114.83.409.164.833.296 1.222.414.529.176 1.056.339 1.597.487.085.033.173.057.262.076.38.105.741.197 1.122.272l.051.013c.363.1.731.183 1.102.245.2.061.405.106.613.133.382.081.778.148 1.206.204 1.187.197 2.384.331 3.584.403.239.016.48.024.675.03.593.032 1.185.047 1.768.047.582 0 1.185-.015 1.688-.044.257 0 .516-.017.741-.033 1.22-.073 2.436-.21 3.641-.41.38-.056.774-.116 1.156-.197.16-.017.316-.05.47-.098.425-.081.835-.166 1.244-.28l.051-.013c.36-.072.709-.158 1.067-.257.083-.016.164-.04.242-.072.567-.148 1.12-.321 1.63-.494.426-.13.85-.262 1.211-.409.724-.262 1.45-.54 2.293-.906.436-.198.849-.385 1.243-.584.539-.254 1.078-.537 1.714-.871.401-.218.806-.445 1.108-.634.482-.267.949-.558 1.4-.873.102-.055.2-.115.296-.18.573-.376 1.129-.767 1.673-1.185.143-.09.28-.19.413-.296.564-.409 1.1-.848 1.63-1.303.045-.04.091-.08.133-.121.567-.48 1.12-.988 1.611-1.47.02-.016.036-.035.054-.053l.012-.01c.287-.261.564-.533.82-.804 1.502-1.53 2.868-3.187 4.083-4.952.481-.663.96-1.404 1.473-2.27.214-.367.428-.74.623-1.094.329-.593.64-1.185.904-1.758.188-.376.36-.752.533-1.145l.1-.222c.134-.306.268-.608.384-.898.328-.77.616-1.557.864-2.357.14-.4.263-.8.385-1.197l.009-.032c.345-1.123.628-2.265.847-3.42.13-.558.226-1.133.296-1.65.072-.52.15-1.051.22-1.65.064-.547.11-1.094.14-1.604.027-.34.042-.681.059-1.022v-.165c.014-.487.029-.96.029-1.45s.018-.976.003-1.464zm-7.164 1.451l3.622-6.514c.073.366.148.74.202 1.125.077.464.13.943.194 1.49.056.49.099.981.128 1.505.027.305.04.61.057 1.037.015.459.028.903.028 1.363 0 .46-.013.906-.031 1.481-.014.305-.028.61-.055.948-.028.49-.07.982-.136 1.552-.055.467-.108.944-.193 1.45-.05.346-.123.715-.195 1.083l-3.621-6.52zm-2.835-21.263c.296.398.584.796.874 1.218.427.61.822 1.247 1.194 1.865.2.345.4.688.592 1.036.296.532.574 1.063.846 1.648.168.335.32.67.473 1.018l.1.226c.122.276.244.545.365.844.31.74.564 1.438.794 2.176.058.17.11.343.164.514l-5.134 9.238H58.195L54.49 30.36l-2.881-5.183 2.88-5.182 3.703-6.663h9.396c.12.118.239.225.366.36 1.096 1.11 2.112 2.295 3.04 3.549zM49.043 50.35h-13.07l-3.703-6.664-2.88-5.183 2.879-5.182 3.703-6.664h13.07l3.703 6.664 2.882 5.182-2.88 5.183-3.704 6.664zM56.73 5.928c.398.18.777.349 1.195.56.502.236 1.001.5 1.575.802.336.182.676.363 1.087.622.417.23.82.484 1.21.76.059.041.224.14.29.173.53.348 1.045.71 1.549 1.101.06.046.212.162.28.199.018.014.125.1.148.112.05.037.096.082.148.12h-6.017L55.43 5.39c.42.16.846.33 1.3.538zm-22.37-2.01c.333-.093.663-.157 1.149-.259.048-.015.098-.026.148-.034.06-.006.12-.015.18-.028.337-.076.687-.126 1.14-.192 1.09-.18 2.187-.304 3.29-.37.175-.01.361-.024.672-.03.312-.006.615-.024 1.037-.028.175-.01.365-.01.532-.01.168 0 .359 0 .637.014.308 0 .615 0 1.052.03.188 0 .375.013.557.026 1.139.068 2.273.197 3.398.385.338.05.688.1 1.025.175.06.013.12.022.18.028.1.017.198.04.296.07.345.066.675.13 1.007.223l.048.012c.055.019.111.033.168.045.148.029.297.072.445.108l4.306 7.768-1.197 2.154-5.387 9.692h-13.07l-5.386-9.694-1.197-2.152 4.31-7.767c.148-.035.297-.079.445-.108.057-.01.113-.026.168-.045l.048-.013zm-13.184 6.147c.067-.037.131-.078.192-.125.503-.39 1.019-.753 1.652-1.164.064-.032.127-.069.186-.11.417-.294.85-.564 1.297-.81.324-.21.664-.39 1.072-.61.502-.264 1.001-.528 1.531-.78.39-.195.77-.364 1.261-.592.386-.167.8-.316 1.205-.472l-2.75 4.968h-6.028c.067-.05.126-.1.196-.148l.186-.157zM8.801 27.227c.213-.69.468-1.386.787-2.149.113-.278.234-.547.355-.823l.101-.227c.148-.348.305-.682.492-1.057.253-.544.532-1.076.831-1.616.187-.343.387-.686.575-1.012.383-.637.78-1.274 1.213-1.892.283-.414.567-.812.871-1.22.926-1.247 1.938-2.429 3.03-3.535.116-.117.25-.244.37-.364h9.396l3.703 6.663 2.881 5.182-2.879 5.183-3.703 6.664h-13.07L8.61 27.77c.055-.168.114-.344.191-.543zM7.564 45.02c-.073-.367-.148-.74-.201-1.125-.077-.466-.13-.943-.194-1.49-.056-.49-.1-.982-.129-1.506-.025-.296-.04-.608-.057-1.036-.014-.453-.028-.898-.028-1.359 0-.46.014-.904.032-1.48.013-.307.026-.612.054-.95.028-.491.072-.982.136-1.553.056-.466.11-.944.193-1.45.05-.346.123-.715.195-1.083l3.621 6.516-3.622 6.516zm5.703 13.685c-.426-.592-.857-1.254-1.313-2.025-.2-.342-.4-.686-.593-1.037-.296-.532-.574-1.063-.846-1.648-.167-.335-.32-.67-.472-1.017l-.101-.227c-.121-.275-.243-.545-.365-.844-.31-.74-.564-1.438-.793-2.175-.058-.17-.11-.344-.165-.514l5.134-9.233h13.07l3.702 6.664 2.881 5.182-2.879 5.183-3.703 6.664h-9.398c-.12-.119-.237-.226-.362-.356-1.396-1.425-2.667-2.969-3.797-4.614v-.003zm15.02 12.384c-.397-.18-.776-.351-1.199-.562-.502-.236-1-.5-1.573-.802-.336-.182-.676-.363-1.087-.622-.416-.23-.82-.484-1.208-.76-.063-.042-.223-.139-.297-.173-.53-.348-1.046-.71-1.55-1.102-.057-.044-.219-.163-.283-.2-.019-.014-.122-.097-.148-.11-.05-.037-.096-.081-.148-.119h6.022l2.764 4.981c-.404-.161-.84-.331-1.293-.53zm22.369 2.002c-.332.093-.663.157-1.148.259-.049.015-.098.027-.149.034-.06.006-.12.015-.178.028-.338.076-.688.126-1.141.193-1.09.18-2.188.303-3.29.368-.175.012-.362.026-.63.027-1.098.06-2.199.06-3.297 0-.189 0-.376-.013-.558-.027-1.139-.068-2.273-.196-3.398-.384-.338-.05-.687-.1-1.025-.175-.059-.013-.119-.023-.179-.029-.1-.016-.2-.04-.297-.069-.345-.067-.675-.13-1.007-.223l-.047-.012c-.055-.019-.112-.034-.17-.045-.147-.03-.295-.073-.443-.108l-4.31-7.77 1.198-2.154 5.387-9.692h13.069l5.387 9.693 1.197 2.153-4.31 7.767c-.149.036-.297.078-.445.108-.057.011-.114.026-.17.044l-.046.014zm13.174-6.144c-.066.036-.127.076-.186.121-.503.392-1.02.754-1.643 1.159-.068.034-.134.073-.196.117-.417.293-.85.563-1.295.81-.324.208-.665.389-1.072.608-.501.265-1 .529-1.534.78-.39.196-.77.366-1.26.593-.386.167-.8.317-1.203.472l2.754-4.968h6.027c-.067.05-.126.1-.195.148l-.197.16zm12.387-17.165c-.214.69-.469 1.386-.787 2.149-.112.278-.234.547-.356.823l-.1.226c-.148.348-.305.683-.492 1.058-.253.545-.532 1.077-.831 1.615-.186.344-.386.687-.58 1.022-.463.78-.89 1.444-1.334 2.063-1.13 1.641-2.4 3.181-3.797 4.604-.107.112-.216.223-.329.336h-9.416l-3.704-6.664-2.881-5.183 2.88-5.182 3.703-6.664h13.068l5.132 9.235c-.056.186-.11.359-.178.562h.002z"/>
    </g>
</svg>
