<?xml version="1.0" encoding="UTF-8"?>
<svg width="59px" height="60px" viewBox="0 0 59 60" version="1.1" xmlns="http://www.w3.org/2000/svg" xmlns:xlink="http://www.w3.org/1999/xlink">
    <!-- Generator: Sketch 56.3 (81716) - https://sketch.com -->
    <title>soccer</title>
    <desc>Created with Sketch.</desc>
    <g id="Page-1" stroke="none" stroke-width="1" fill="none" fill-rule="evenodd">
        <g id="Hey-Digital_Home_Get-My-Free-Proposal" transform="translate(-539.000000, -134.000000)" fill-rule="nonzero">
            <g id="Group-3" transform="translate(340.000000, 56.000000)">
                <g id="Group-5" transform="translate(199.000000, 68.500000)">
                    <g id="soccer" transform="translate(0.000000, 9.500000)">
                        <path d="M59,48.683496 C59,54.9384381 45.7961908,60 29.5002289,60 C13.2038091,60 0,54.9384381 0,48.683496 C0,45.5659815 3.2757681,42.7369712 8.59602951,40.6896552 C9.40100586,41.8742366 10.3062607,42.9861131 11.3017205,44.0127812 C11.4848778,44.2082047 11.6680351,44.3934403 11.8612661,44.5680249 C12.2275807,44.938496 12.6039689,45.2779402 12.9904308,45.6071964 C13.0105781,45.6280354 13.0206518,45.6484113 13.0412569,45.6585993 C13.3869664,45.9572916 13.7326756,46.2453329 14.0989902,46.5125352 C14.1823269,46.584314 14.2707002,46.6496095 14.3636526,46.7079588 C14.7299672,46.9960001 15.1063553,47.2636655 15.4928173,47.5206798 C15.5482224,47.5591162 15.6059169,47.5933848 15.665443,47.6234855 C15.9708577,47.8397481 16.2758147,48.0249836 16.5913031,48.2102192 C16.8454339,48.3746158 17.1100961,48.5186365 17.3747584,48.662657 C17.7305414,48.8687316 18.096856,49.0535041 18.4732443,49.2285518 C18.7681275,49.3827603 19.0836159,49.516593 19.3885728,49.6606137 C19.8565397,49.8662252 20.3345802,50.0514607 20.8130786,50.2265084 C21.077283,50.3191262 21.3318717,50.411744 21.5960761,50.4941737 C21.9623907,50.6173553 22.3287053,50.7308122 22.7050934,50.8336179 C22.7266144,50.8465844 22.7508827,50.8535307 22.7760669,50.8539938 C22.7843089,50.8618663 22.7952984,50.865571 22.8067458,50.8641818 C23.0508028,50.9364237 23.3049336,50.9980145 23.5595222,51.0494174 C23.5769221,51.0702564 23.6048536,51.0781288 23.6304956,51.0702564 C23.8846264,51.1429613 24.1428782,51.2013106 24.4038773,51.2448409 C24.499577,51.2754048 24.5984819,51.2962438 24.6987606,51.3068948 C24.9734965,51.3582976 25.2482325,51.4097005 25.533042,51.4509154 C26.3142079,51.5815065 27.1022421,51.6708827 27.8930237,51.7181178 C28.0455021,51.7283057 28.1979806,51.7389568 28.3403854,51.7389568 C28.7268473,51.7593327 29.1133091,51.7695206 29.5002289,51.7695206 C29.8866908,51.7695206 30.2731526,51.7593327 30.6596145,51.7389568 C30.8020194,51.7389568 30.9544978,51.7283057 31.1074342,51.7181178 C31.8982157,51.6708827 32.685792,51.5815065 33.4674158,51.4509154 C33.7522254,51.4097005 34.0269614,51.3582976 34.3012393,51.3068948 C34.401518,51.2962438 34.5004229,51.2754048 34.5965805,51.2448409 C34.8571218,51.2013106 35.1153735,51.1429613 35.3695043,51.0702564 C35.3951463,51.0781288 35.4230778,51.0702564 35.4409356,51.0494174 C35.6950664,50.9980145 35.9491971,50.9364237 36.1932542,50.8641818 C36.2047015,50.865571 36.215691,50.8618663 36.223933,50.8539938 C36.2491172,50.8535307 36.2733855,50.8465844 36.2953643,50.8336179 C36.6717526,50.7308122 37.0376092,50.6173553 37.4039238,50.4941737 C37.6685862,50.411744 37.9227169,50.3191262 38.1873792,50.2265084 C38.6654197,50.0514607 39.1434602,49.8662252 39.6114271,49.6606137 C39.916384,49.516593 40.2318724,49.3827603 40.5267557,49.2285518 C40.9031439,49.0535041 41.2694585,48.8687316 41.6256995,48.662657 C41.8899038,48.5186365 42.1545661,48.3746158 42.4086968,48.2102192 C42.7241852,48.0249836 43.0291422,47.8397481 43.3345569,47.6234855 C43.394083,47.5933848 43.4522355,47.5591162 43.5076406,47.5206798 C43.8941024,47.2636655 44.2704907,46.9960001 44.6363473,46.7079588 C44.7292997,46.6496095 44.8176731,46.584314 44.9010097,46.5125352 C45.2673243,46.2453329 45.6130336,45.9572916 45.958743,45.6585993 C45.9793481,45.6484113 45.9894218,45.6280354 46.010027,45.6071964 C46.3964889,45.2779402 46.7728772,44.938496 47.1387339,44.5680249 C47.3324226,44.3934403 47.5151221,44.2082047 47.6982794,44.0127812 C48.6937392,42.9861131 49.5989942,41.8742366 50.4044283,40.6896552 C55.7242318,42.7369712 59,45.5659815 59,48.683496 L59,48.683496 Z" id="Path" fill="#E1E8FA"></path>
                        <path d="M51.4534884,48.6206896 C51.4534884,44.6211907 41.4709357,41.3793103 29.1572048,41.3793103 C16.8430178,41.3793103 6.86046512,44.6211907 6.86046512,48.6206896 C6.86046512,52.6197229 16.8430178,55.862069 29.1572048,55.862069 C41.4709357,55.862069 51.4534884,52.6197229 51.4534884,48.6206896 L51.4534884,48.6206896 Z" id="Path" fill="#3761BA"></path>
                        <path d="M53.5116279,33.5829025 C53.430451,33.8520521 53.3497301,34.1207361 53.25852,34.3898859 C53.0961659,34.9277197 52.9037126,35.455309 52.6911931,35.9726539 C52.5899499,36.2310935 52.4782176,36.4792886 52.3669413,36.7381939 C52.2552089,36.9966334 52.1439325,37.2448286 52.0226231,37.4934894 C51.8402029,37.8967483 51.6372605,38.2897628 51.4247409,38.6827772 C51.2929423,38.931438 51.1511106,39.1796331 51.0092789,39.4278283 C50.7155825,39.9344631 50.4013636,40.4415635 50.0570455,40.9277093 C49.2548528,42.1188597 48.3532409,43.2369021 47.3617872,44.2692635 C47.179367,44.4555263 46.9974028,44.6417891 46.8044936,44.8275862 L39.3681343,44.8275862 L34.3023256,35.5172413 L39.3681343,26.2068966 L49.4997518,26.2068966 L53.5116279,33.5829025 Z" id="Path" fill="#FFFFFF"></path>
                        <path d="M47.3372093,44.8275862 C46.9692763,45.1833373 46.5907519,45.5285713 46.2020968,45.8536858 C46.1813747,45.8742626 46.1712438,45.8943822 46.1505217,45.9044421 C45.8028504,46.1993771 45.4551791,46.483795 45.0867856,46.7476361 C45.0029761,46.818512 44.9141012,46.8829862 44.8206213,46.9406014 C44.4526884,47.2250195 44.074164,47.4893178 43.6855089,47.7430992 C43.6297894,47.7810521 43.5713069,47.8148895 43.5114429,47.8446116 C43.2121233,48.0544957 42.9012913,48.2479182 42.5803285,48.4239647 C42.3247555,48.5862933 42.0585913,48.7285023 41.7928875,48.8707112 C41.424494,49.0636765 41.0561005,49.2566417 40.6877071,49.4294875 C40.3810194,49.5817562 40.0844627,49.7139054 39.7671838,49.8561144 C39.2965611,50.0591394 38.8158076,50.2420449 38.3350541,50.4148906 C38.0790207,50.5164031 37.8133169,50.5977961 37.5471526,50.6791889 C37.1787591,50.800821 36.8108262,50.9128507 36.4323018,51.0143632 C36.4101982,51.0271665 36.3857922,51.0340255 36.3604651,51.0344828 L39.8284292,44.8275862 L47.3372093,44.8275862 Z" id="Path" fill="#F35229"></path>
                        <path d="M22.6395349,51.0344828 C22.6142078,51.0340255 22.5898018,51.0271665 22.5681586,51.0143632 C22.1896344,50.9128507 21.8212409,50.800821 21.4528474,50.6791889 C21.1871436,50.5977961 20.9209793,50.5164031 20.6654063,50.4148906 C20.1841923,50.2420449 19.7034389,50.0591394 19.2328161,49.8561144 C18.9159977,49.7139054 18.6189805,49.5817562 18.312293,49.4294875 C17.9438995,49.2566417 17.575506,49.0636765 17.207573,48.8707112 C16.9414087,48.7285023 16.6752444,48.5862933 16.4196714,48.4239647 C16.0991691,48.2479182 15.7883371,48.0544957 15.488557,47.8446116 C15.428693,47.8148895 15.3706711,47.7810521 15.3149516,47.7430992 C14.9262963,47.4893178 14.5477721,47.2250195 14.1793786,46.9406014 C14.0858988,46.8829862 13.9970239,46.818512 13.9132143,46.7476361 C13.5448208,46.483795 13.1971495,46.1993771 12.8494782,45.9044421 C12.8287561,45.8943822 12.8186252,45.8742626 12.7983635,45.8536858 C12.4097084,45.5285713 12.0311842,45.1833373 11.6627907,44.8275862 L19.1715707,44.8275862 L22.6395349,51.0344828 Z" id="Path" fill="#F35229"></path>
                        <path d="M24.6976744,35.5172413 L19.6318657,44.8275862 L12.1955066,44.8275862 C12.0030532,44.6417891 11.820633,44.4555263 11.6382128,44.2692635 C10.6467591,43.2369021 9.74514735,42.1188597 8.94341055,40.9277093 C8.59863638,40.4415635 8.28487365,39.9344631 7.99072112,39.4278283 C7.84888939,39.1796331 7.70705766,38.931438 7.5752591,38.6827772 C7.36273963,38.2897628 7.1602531,37.8967483 6.97783291,37.4934894 C6.85606752,37.2448286 6.7447912,36.9966334 6.63305886,36.7381939 C6.52178243,36.4792886 6.41050623,36.2310935 6.30926296,35.9726539 C6.09628736,35.455309 5.90383411,34.9277197 5.74148014,34.3898859 C5.65072606,34.1207361 5.56954902,33.8520521 5.48837209,33.5829025 L9.50024815,26.2068966 L19.6318657,26.2068966 L24.6976744,35.5172413 Z" id="Path" fill="#FFFFFF"></path>
                        <path d="M8.91860465,26.5514956 L5.11505211,33.7931034 C3.78335472,29.0682286 3.78335472,24.0352197 5.11505211,19.3103448 L8.91860465,26.5514956 Z" id="Path" fill="#F35229"></path>
                        <path d="M24.6976744,17.5862068 L19.6318657,26.8965517 L9.50024815,26.8965517 L5.48837209,19.5210114 C6.72837338,15.2406929 9.04009325,11.3650301 12.1955066,8.27586207 L19.6318657,8.27586207 L24.6976744,17.5862068 Z" id="Path" fill="#FFFFFF"></path>
                        <polygon id="Path" fill="#F35229" points="39.7906977 26.5517242 34.645233 35.862069 24.354767 35.862069 19.2093023 26.5517242 24.354767 17.2413793 34.645233 17.2413793"></polygon>
                        <path d="M39.7906977,44.4827296 L36.3021764,50.8035371 C36.2938385,50.8114532 36.2827211,50.8151784 36.2711406,50.8137815 C36.0140527,50.8864238 35.7671556,50.948356 35.5100676,51.0000437 C35.492002,51.0209982 35.4637455,51.0289143 35.4378051,51.0209982 C35.1807171,51.0931748 34.923166,51.1448626 34.6558872,51.1965503 C34.5586106,51.2272836 34.4585547,51.2482381 34.3571092,51.2589482 C34.0796396,51.3208803 33.7915157,51.3623237 33.5135828,51.403767 C32.7228637,51.5350819 31.9261227,51.6249533 31.1261392,51.6724503 C30.9820773,51.6826946 30.8273613,51.6934047 30.6731085,51.6934047 C30.2821495,51.7138936 29.8911906,51.7241379 29.5002316,51.7241379 C29.1088094,51.7241379 28.7178505,51.7138936 28.3268915,51.6934047 C28.1726388,51.6934047 28.018386,51.6826946 27.8743241,51.6724503 C27.0743405,51.6249533 26.2771363,51.5350819 25.4868804,51.403767 C25.2089474,51.3623237 24.9208237,51.3208803 24.6428908,51.2589482 C24.5414453,51.2482381 24.4413894,51.2272836 24.3445761,51.1965503 C24.076834,51.1448626 23.8197462,51.0931748 23.5621949,51.0209982 C23.5362545,51.0289143 23.507998,51.0209982 23.4903957,51.0000437 C23.2328445,50.948356 22.9859475,50.8864238 22.7288595,50.8137815 C22.7172789,50.8151784 22.7061615,50.8114532 22.6978236,50.8035371 L19.2093023,44.4827296 L24.354767,35.1724138 L34.645233,35.1724138 L39.7906977,44.4827296 Z" id="Path" fill="#FFFFFF"></path>
                        <path d="M53.5116279,19.5210114 L49.4997518,26.8965517 L39.3681343,26.8965517 L34.3023256,17.5862068 L39.3681343,8.27586207 L46.8044936,8.27586207 C49.9599068,11.3650301 52.2716266,15.2406929 53.5116279,19.5210114 L53.5116279,19.5210114 Z" id="Path" fill="#FFFFFF"></path>
                        <path d="M47.3372093,8.27586207 L39.8284292,8.27586207 L36.3604651,2.06896552 C40.4892351,3.18248441 44.2661891,5.31806298 47.3372093,8.27586207 L47.3372093,8.27586207 Z" id="Path" fill="#F35229"></path>
                        <path d="M22.6395349,2.06896552 L19.1715707,8.27586207 L11.6627907,8.27586207 C14.7342713,5.31806298 18.5107649,3.18248441 22.6395349,2.06896552 Z" id="Path" fill="#F35229"></path>
                        <path d="M39.7906977,7.93099815 L34.645233,17.2413793 L24.354767,17.2413793 L19.2093023,7.93099815 L22.6978236,1.61061185 C27.1503089,0.382669613 31.8496911,0.382669613 36.3021764,1.61061185 L39.7906977,7.93099815 Z" id="Path" fill="#FFFFFF"></path>
                        <path d="M54.8837209,26.5514956 C54.8871532,29.0042245 54.550802,31.4441526 53.8845845,33.7931034 L50.0813953,26.5514956 L53.8845845,19.3103448 C54.550802,21.6592956 54.8871532,24.0992238 54.8837209,26.5514956 L54.8837209,26.5514956 Z" id="Path" fill="#F35229"></path>
                        <path d="M55.5658191,25.5539746 L55.5658191,25.4436498 C55.5557549,25.2078305 55.5443182,24.9720114 55.5260196,24.7587168 C55.5045189,24.3836126 55.4734112,24.0071293 55.4244625,23.5759434 C55.3837481,23.2164685 55.3412039,22.8500983 55.2853932,22.5200435 C55.2304974,22.1348261 55.164165,21.739036 55.0818214,21.3864564 C54.929943,20.5787872 54.7332331,19.7803117 54.4935215,18.9947073 L54.4884895,18.9763199 C54.4029436,18.6995886 54.31877,18.4237767 54.2345965,18.1787637 C54.0625897,17.6216237 53.8631351,17.0736774 53.63669,16.5367635 C53.5502291,16.3220899 53.4587362,16.1138519 53.3663282,15.902396 L53.298166,15.7493204 C53.1796826,15.478565 53.0616567,15.2193018 52.9445457,14.9867004 C52.7514955,14.566547 52.538317,14.157426 52.3155316,13.7529018 C52.1782921,13.4996145 52.0319034,13.2421901 51.8777377,12.979709 C51.5899924,12.5007156 51.2930976,12.020803 50.9801917,11.5703101 C50.7697579,11.2641589 50.5584092,10.9649029 50.339741,10.6739214 C49.6521713,9.73845924 48.8987268,8.85356269 48.0858118,8.02566727 C47.8826975,7.81053397 47.6791256,7.60597337 47.498427,7.44462349 C47.1306252,7.08422924 46.7513869,6.72981089 46.3634567,6.40297374 C46.3337215,6.3735538 46.3012415,6.34505329 46.2687616,6.3174721 C45.9027897,6.00396583 45.5349879,5.70470986 45.125557,5.39809903 C45.0418409,5.32960565 44.9540076,5.26616897 44.8634297,5.20732909 C44.4910532,4.9191056 44.1099851,4.64972935 43.7261721,4.39644204 C43.6580098,4.3490943 43.5875602,4.30588382 43.5143658,4.26681038 C43.2234182,4.06133058 42.9214914,3.87239939 42.6099579,3.70001691 C42.3446283,3.52855386 42.0674047,3.37731702 41.7261359,3.18930514 C41.3560469,2.99347873 40.9868727,2.79811198 40.6364547,2.6317054 C40.3459645,2.48552514 40.0632512,2.35727257 39.6730337,2.17937385 C39.1853762,1.96699873 38.687197,1.77576913 38.2228702,1.6075238 C37.9424443,1.49398119 37.6514967,1.40342298 37.3843372,1.32159883 C37.0215676,1.20024159 36.6597129,1.08761841 36.2887091,0.985567944 C36.2301536,0.963502991 36.1702256,0.946034843 36.1089253,0.933623395 C35.8486278,0.860992864 35.600682,0.797556181 35.3394695,0.745611632 L35.3010425,0.737337215 C35.0535539,0.667464862 34.8024058,0.610463731 34.5489703,0.566793481 C34.4117309,0.52450232 34.2712891,0.493703292 34.1290175,0.474856174 C33.8668902,0.418774475 33.5946986,0.372805822 33.3010063,0.334192153 C32.4853465,0.198124938 31.6637396,0.105268199 30.8384731,0.0560817103 C30.6737858,0.0450492334 30.495832,0.0349361885 30.4057113,0.0367749346 C30.1339773,0.0142503238 29.8741373,0.0142503238 29.6705654,0.015169638 C29.3562871,-0.00505654601 29.0410939,-0.00505654601 28.7268155,0.015169638 C28.4541665,0.015169638 28.1920391,0.015169638 28.0049359,0.0358556204 C27.8292695,0.0358556204 27.6513157,0.0468880973 27.4971501,0.0583802312 C26.6590745,0.107566602 25.8242012,0.201342773 24.9957324,0.339248616 C24.73452,0.377862403 24.4655306,0.418774475 24.2029459,0.474856174 C24.0926968,0.486348308 23.9838202,0.508873036 23.8781458,0.542430124 C23.5862833,0.59851194 23.3049424,0.656892042 23.024059,0.735498469 L22.9888342,0.7446922 C22.7427182,0.794798003 22.5030066,0.853637879 22.2568905,0.922131261 C22.2001649,0.933623395 22.1448116,0.949712336 22.0912883,0.971317632 C21.7019857,1.0733681 21.3232048,1.1928866 20.9732443,1.3124051 C20.6809242,1.40204389 20.3899766,1.49306188 20.1420307,1.59419292 C19.6452239,1.7748497 19.1470447,1.9660793 18.5669793,2.22028604 C18.2691697,2.35589348 17.9864565,2.48460571 17.7151797,2.62159235 C17.3450907,2.79719255 16.9763741,2.99209964 16.5404101,3.22286234 C16.2650163,3.37317975 15.9873351,3.52947329 15.7801036,3.66002415 C15.4493565,3.84435854 15.1282163,4.04524153 14.8175976,4.26267323 C14.748063,4.30036758 14.6799006,4.34173931 14.6144832,4.38632899 C14.2210635,4.64559208 13.8399953,4.91542811 13.4680763,5.20319194 C13.3697214,5.26800771 13.2745687,5.33788006 13.1835333,5.41234934 C12.796518,5.69459682 12.4282588,5.99753027 12.0654893,6.31103643 C12.0339241,6.33861762 12.0028166,6.36619882 11.9739963,6.3951591 C11.5311703,6.77072297 11.1661134,7.10997169 10.8472604,7.42761511 C10.6436886,7.61838494 10.4570429,7.80915488 10.2639927,8.00360231 C9.44741805,8.83379614 8.69031374,9.72099121 7.99862693,10.6587517 C7.77584165,10.9557092 7.56449284,11.2531264 7.35909117,11.5542211 C7.04115309,12.0116091 6.74425845,12.491522 6.44461896,12.9838462 C6.29731535,13.2371335 6.1509266,13.494558 6.01688932,13.7386515 C5.79090176,14.1468532 5.57772309,14.5555145 5.39656702,14.9508449 C5.267562,15.2101081 5.14999346,15.4693713 5.03105272,15.7401267 L4.96289037,15.8932024 C4.87048254,16.104658 4.77898957,16.3128961 4.69847576,16.5133195 C4.47889265,17.0290877 4.28675743,17.5568078 4.12252752,18.0932621 C4.01227853,18.3778081 3.91895571,18.6687896 3.84164418,18.9643681 L3.83569705,18.9855136 C3.59918777,19.7605452 3.40522268,20.5479882 3.25425923,21.3446249 C3.16596855,21.7298423 3.10009362,22.1256323 3.05114497,22.4832685 C3.00219621,22.8409046 2.94958772,23.2072747 2.90063896,23.6209926 C2.85717989,23.9979356 2.82561473,24.3744189 2.80411385,24.7269985 C2.78581526,24.9628176 2.7748361,25.1986368 2.76477193,25.434456 L2.76477193,25.5447807 C2.75425021,25.8808116 2.74418605,26.2076488 2.74418605,26.5455184 C2.74418605,26.8838477 2.75425021,27.2106847 2.76477193,27.5467156 L2.76477193,27.6597986 C2.77575109,27.8946983 2.78581526,28.1295982 2.80411385,28.3419734 C2.82561473,28.716618 2.85717989,29.0935608 2.9056711,29.5247468 C2.94638544,29.8842216 2.98938719,30.2505919 3.04519784,30.5806468 C3.10009362,30.9654044 3.16596855,31.3616542 3.24831222,31.7142338 C3.39973311,32.5237418 3.59552805,33.324056 3.83478218,34.1119588 L3.83478218,34.1303463 C3.92032802,34.4070775 4.00450154,34.6828894 4.08867507,34.9279024 C4.26068184,35.4850424 4.46013662,36.0329887 4.68658162,36.5699026 C4.77258501,36.7845763 4.86407797,36.9928142 4.95694336,37.2042702 L5.02464815,37.3573457 C5.14358901,37.6281011 5.26161499,37.8873643 5.37826843,38.1204254 C5.57177608,38.5401192 5.78495475,38.9492401 6.00774003,39.3537643 C6.14497947,39.6070516 6.29091078,39.864476 6.44141668,40.1196021 C6.79000493,40.7112187 7.11846461,41.2214707 7.43457283,41.6586326 C8.26853123,42.8786407 9.20633406,44.0237198 10.2374598,45.0809989 C10.4405742,45.2961322 10.6436886,45.5006927 10.8248447,45.6620426 C11.1935612,46.0224369 11.5718847,46.3768552 11.9611873,46.7036924 C11.990465,46.733572 12.0220301,46.7625323 12.0545101,46.789194 C12.420482,47.1027003 12.7882837,47.4019563 13.1977146,47.7085671 C13.2814307,47.7766007 13.3688065,47.8404972 13.458927,47.899337 C13.8317609,48.1875605 14.2128291,48.4569368 14.5970995,48.7102241 C14.6661767,48.7575718 14.7370838,48.801242 14.8107356,48.8407751 C15.1007683,49.046255 15.4022376,49.2347264 15.7133137,49.4066492 C15.9781858,49.5781123 16.255867,49.7293491 16.5971357,49.917361 C16.9672247,50.1145665 17.3373139,50.3094736 17.685902,50.4749607 C17.9773071,50.6220604 18.2609354,50.7507726 18.6502378,50.9282116 C19.1378954,51.1405868 19.6360746,51.3318164 20.1004014,51.5000616 C20.3808273,51.6136042 20.6717749,51.7046222 20.9389344,51.7859867 C21.3017039,51.9078036 21.6635586,52.0199671 22.0345626,52.1220175 C22.0926607,52.1445422 22.1530459,52.1615506 22.2143463,52.1744218 C22.4746437,52.2465926 22.7225897,52.3100294 22.9838021,52.3619739 L23.0190269,52.3711677 C23.2678878,52.4405804 23.5204084,52.4971217 23.7752163,52.5398726 C23.9124557,52.5821638 24.0528974,52.6129628 24.1951689,52.6318099 C24.4572963,52.6878916 24.7294878,52.7338603 25.0231803,52.772474 C25.8374677,52.9085412 26.6581595,53.0009381 27.4815962,53.0505844 C27.6453687,53.0616169 27.8109709,53.0666734 27.9450081,53.0708105 C28.3516943,53.0933352 28.7579231,53.1034483 29.1577473,53.1034483 C29.5571142,53.1034483 29.9706624,53.0933352 30.3160483,53.073109 C30.4917148,53.073109 30.6696686,53.0616169 30.8242917,53.0505844 C31.6614524,53.0000188 32.4949532,52.9057831 33.3220496,52.7674175 C33.583262,52.7288037 33.8527088,52.6878916 34.1148362,52.6318099 C34.2241702,52.6203178 34.3321319,52.5977931 34.4373489,52.564236 C34.728754,52.5081542 35.0100948,52.4497741 35.2909782,52.3711677 L35.3262031,52.3619739 C35.5723191,52.3123278 35.8120306,52.2530282 36.0581468,52.1845349 C36.1148723,52.1735024 36.1702256,52.1569538 36.223749,52.1353485 C36.6130516,52.033298 36.9922899,51.9137795 37.341793,51.794261 C37.6345705,51.7046222 37.9250607,51.6136042 38.1730066,51.5124732 C38.6698134,51.3318164 39.1679926,51.1405868 39.7462281,50.8872995 C40.0449526,50.7507726 40.3285808,50.6220604 40.5989425,50.4850738 C40.9685741,50.3094736 41.3386631,50.1145665 41.7746272,49.8838038 C42.050021,49.7334864 42.3277021,49.5771928 42.5349337,49.446642 C42.8652233,49.2627674 43.1859061,49.0618843 43.4951524,48.8449122 C43.5651444,48.807218 43.6328492,48.7653865 43.6987242,48.7203371 C44.0916865,48.461074 44.4727547,48.1916977 44.8460459,47.9034742 C44.9439435,47.8409568 45.0386386,47.7724636 45.1296741,47.6993734 C45.5166893,47.4175855 45.8844912,47.1141924 46.2472607,46.8006862 C46.2788258,46.7731051 46.3103908,46.7455238 46.3387537,46.7170233 C46.7280562,46.386049 47.1072946,46.0357678 47.4444461,45.7038741 C47.4577126,45.692382 47.4691493,45.6795108 47.4810433,45.6670992 L47.4892776,45.6597442 C47.686445,45.4800068 47.8762929,45.2924547 48.0524169,45.1053622 C49.0821702,44.0503817 50.0195156,42.9076009 50.8530165,41.690351 C51.1833061,41.2329628 51.5117659,40.7222512 51.8635563,40.1246587 C52.01086,39.871831 52.1572488,39.6144066 52.2912859,39.3703131 C52.5168161,38.9616517 52.7304522,38.5529904 52.9111508,38.1581196 C53.0401558,37.8983968 53.1581817,37.6391336 53.2771227,37.3683782 L53.3452849,37.2153026 C53.4376927,37.0038467 53.5291857,36.7956087 53.6092421,36.5956451 C53.8343148,36.0642475 54.0319396,35.5222771 54.201659,34.9706532 C54.2972692,34.6939219 54.3819001,34.41811 54.4660737,34.1445966 L54.4720207,34.1229913 C54.7089875,33.3479597 54.9029526,32.5605167 55.0534585,31.7643396 C55.1417492,31.3791224 55.2080817,30.9828725 55.2565729,30.6256961 C55.3055216,30.2680599 55.3585875,29.9012301 55.4070789,29.4879719 C55.4509955,29.1110289 55.4825605,28.734086 55.502689,28.3819662 C55.5219025,28.1470663 55.5319667,27.9121665 55.5434033,27.6772666 C55.5434033,27.6722101 55.5434033,27.5687806 55.5434033,27.563724 C55.5534676,27.2276932 55.5635318,26.9008561 55.5635318,26.5629864 C55.5635318,26.2251168 55.5758834,25.8900054 55.5658191,25.5539746 L55.5658191,25.5539746 Z M50.650817,26.5547122 L53.135766,22.0617359 C53.1856297,22.3145635 53.2373232,22.571988 53.2739204,22.8376868 C53.3269863,23.1580882 53.3635835,23.4881432 53.4070426,23.8650862 C53.4459272,24.2029558 53.4752049,24.5422044 53.4953334,24.9035181 C53.513632,25.1140545 53.5227812,25.3241312 53.5342178,25.6183306 C53.5442821,25.9350547 53.5534313,26.2412059 53.5534313,26.5588493 C53.5534313,26.8764927 53.5442821,27.1831037 53.5319305,27.5802728 C53.5227812,27.7903496 53.512717,28.0008859 53.4944184,28.233947 C53.4752049,28.5718167 53.4459272,28.9110653 53.4010955,29.3040973 C53.3635835,29.6258779 53.3269863,29.9554731 53.2688882,30.3039155 C53.2341209,30.5429525 53.1847147,30.7971592 53.1348511,31.0513658 L50.650817,26.5547122 Z M48.7056766,11.8902519 C48.9092484,12.1646848 49.1064158,12.4395773 49.305413,12.730559 C49.5981905,13.1511721 49.8694671,13.5906324 50.1247326,14.0163022 C50.2615146,14.2544198 50.3987539,14.4911584 50.5309613,14.7311148 C50.7340757,15.0979446 50.9243811,15.4643147 51.1114841,15.8679196 C51.2263078,16.0986821 51.3310673,16.3294448 51.4353692,16.5694012 L51.5044465,16.7256946 C51.5881624,16.9155452 51.6714211,17.1012585 51.7546797,17.3076578 C51.9669434,17.8183695 52.1416949,18.2992016 52.2995203,18.8080747 C52.3388623,18.9252946 52.3745445,19.0448132 52.4120567,19.162493 L48.8895775,25.5337483 L39.9241819,25.5337483 L37.3834223,20.938262 L35.4067169,17.3637395 L37.3825074,13.7896768 L39.923267,9.19419038 L46.3694037,9.19419038 C46.4517475,9.27601465 46.5331762,9.34956449 46.620552,9.44242111 C47.3721666,10.2077993 48.0693431,11.0255815 48.7056766,11.8902519 L48.7056766,11.8902519 Z M33.6454773,34.7247209 L24.6796242,34.7247209 L22.1388646,30.1292347 L20.1626166,26.5547122 L22.1379496,22.9806493 L24.6787093,18.385163 L33.6445623,18.385163 L36.1853219,22.9806493 L38.1629424,26.5547122 L36.1871518,30.1292347 L33.6454773,34.7247209 Z M38.9191317,4.08799234 C39.1922382,4.21256743 39.4525356,4.32886809 39.7389087,4.47412903 C40.0838372,4.63731778 40.4260208,4.81935365 40.8194406,5.02759162 C41.0500029,5.15308602 41.2837674,5.2776611 41.5655657,5.45647925 C41.8514813,5.61553073 42.1287049,5.79067127 42.3958644,5.98052178 C42.4361213,6.00902241 42.5491151,6.07751567 42.5939466,6.1000404 C42.9576312,6.33999671 43.3112514,6.59006619 43.6570948,6.85944244 C43.6987242,6.8911609 43.8030262,6.9711463 43.8487726,6.99642909 C43.8620391,7.00654213 43.9352335,7.06492235 43.9507873,7.07411608 C43.9850972,7.09939887 44.0166623,7.1301979 44.0523445,7.15594034 L39.9241819,7.15594034 L38.0275328,3.71748506 C38.3152782,3.82780982 38.6080556,3.94502992 38.9191317,4.08799234 Z M23.5730168,2.70203753 C23.8008343,2.63768129 24.0272794,2.59401116 24.3607712,2.52367903 C24.3937087,2.51310633 24.4280186,2.50529157 24.4623284,2.50023511 C24.5035003,2.49609796 24.5446722,2.48966229 24.5853865,2.48046856 C24.8168636,2.42852401 25.0570328,2.39404749 25.3676513,2.34807884 C26.1151489,2.22350376 26.8685934,2.13846178 27.6247828,2.09341244 C27.7450959,2.08559779 27.8727286,2.07640406 28.0863647,2.07226691 C28.3000008,2.06812977 28.5081474,2.0557182 28.7977226,2.05296002 C28.9175783,2.04560504 29.0479557,2.04560504 29.1627794,2.04560504 C29.2776031,2.04560504 29.4084381,2.04560504 29.5996584,2.0557182 C29.8110072,2.0557182 30.0214409,2.0557182 30.3210804,2.07640406 C30.4500855,2.07640406 30.5781757,2.08559779 30.703521,2.09479153 C31.4844134,2.14167961 32.2625611,2.23039908 33.0347617,2.36003075 C33.2662389,2.39404749 33.5064079,2.42852401 33.7378852,2.48046856 C33.7785995,2.48966229 33.8197713,2.49609796 33.8609432,2.50023511 C33.9295629,2.51172724 33.9972677,2.5278163 34.0640576,2.54804251 C34.3010243,2.59401116 34.5274694,2.63768129 34.755287,2.70203753 L34.7877669,2.71031183 C34.8257365,2.72318305 34.8641635,2.73329609 34.9035055,2.74111085 C35.0050627,2.76133706 35.1070774,2.79121666 35.2086345,2.81558001 L38.1629424,8.17276696 L37.341793,9.6589335 L33.6454773,16.3427757 L24.6796242,16.3427757 L20.983766,9.65755441 L20.1626166,8.17276696 L23.1196692,2.81649945 C23.2212263,2.79213597 23.323241,2.76225638 23.4247983,2.74203017 C23.4641402,2.73467518 23.5025672,2.72410248 23.5405368,2.71123114 L23.5730168,2.70203753 Z M14.5280224,6.9412667 C14.5737688,6.91598391 14.6176854,6.88748341 14.6593147,6.85530529 C15.0047007,6.58592904 15.358321,6.33585956 15.7924551,6.05269266 C15.8368292,6.0306277 15.8798309,6.00488526 15.9205452,5.97638463 C16.2064608,5.77412256 16.5033555,5.58748988 16.8098568,5.41786546 C17.0321848,5.27352395 17.2659493,5.14894887 17.5454603,4.99679271 C17.8899314,4.8152165 18.2325725,4.63318063 18.596257,4.45987884 C18.8634165,4.32473094 19.123714,4.20843028 19.4613231,4.05121742 C19.7261951,3.93583607 20.0098233,3.83286629 20.2875045,3.7252997 L18.401377,7.15180319 L14.265895,7.15180319 C14.3116415,7.1168669 14.3523559,7.08330981 14.3999323,7.04975272 L14.5280224,6.9412667 Z M6.03793276,18.7772756 C6.18432151,18.3015 6.35907301,17.8215873 6.57774125,17.2952462 C6.65505278,17.103557 6.73831132,16.9178436 6.82156997,16.7275333 L6.89064719,16.5712399 C6.99220432,16.3312836 7.10016602,16.1005209 7.22825617,15.8421771 C7.4020928,15.4666133 7.59285572,15.0997833 7.7982574,14.727897 C7.92634755,14.4911584 8.06358699,14.2544198 8.19259201,14.0296331 C8.45563432,13.5906324 8.72736848,13.1511721 9.02472055,12.724583 C9.21914307,12.4395773 9.41402315,12.1646848 9.6226271,11.8838163 C10.2575883,11.0232831 10.9520198,10.2082589 11.7008897,9.44517929 C11.7809461,9.36473412 11.872439,9.27693396 11.9556977,9.19419038 L18.401377,9.19419038 L20.9416791,13.7896768 L22.9183847,17.3637395 L20.9430515,20.938262 L18.402292,25.5337483 L9.4355239,25.5337483 L5.90709776,19.1519202 C5.94460994,19.0356194 5.98532428,18.9142622 6.03793276,18.7772756 Z M5.18933549,31.0481481 C5.13947185,30.7948608 5.08777824,30.5374363 5.05118105,30.2721972 C4.99857269,29.9513359 4.9619755,29.6217407 4.91805888,29.2447978 C4.87963183,28.9069281 4.84989653,28.5676794 4.8297682,28.2063658 C4.81238448,28.0018054 4.80232019,27.7866721 4.7908836,27.4915533 C4.78081943,27.1789664 4.77167014,26.8723555 4.77167014,26.5547122 C4.77167014,26.2370687 4.78081943,25.9309174 4.79317101,25.5337483 C4.80232019,25.3222926 4.8114696,25.1117561 4.83068307,24.8782353 C4.84989653,24.539906 4.87963183,24.2011171 4.92400589,23.8076254 C4.9619755,23.4863045 4.99857269,23.1562496 5.0562132,22.8078072 C5.09098052,22.5692298 5.14084428,22.3145635 5.19025036,22.0603569 L7.6742844,26.5547122 L5.18933549,31.0481481 Z M9.10203208,40.4864319 C8.80925459,40.0777706 8.51373238,39.6213019 8.20082644,39.0894446 C8.06358699,38.8536253 7.92634755,38.6164272 7.79414024,38.374632 C7.59102574,38.0078021 7.40072038,37.641432 7.21407473,37.2378272 C7.09925115,37.0070645 6.99449162,36.776302 6.8897322,36.5363455 L6.8206551,36.3800521 C6.73739645,36.1902016 6.65413779,36.0040286 6.57042181,35.798089 C6.35815814,35.2873772 6.18340652,34.8065452 6.02603862,34.2976722 C5.98623927,34.1804521 5.95055695,34.0609336 5.9130449,33.9432538 L9.4355239,27.5761356 L18.401377,27.5761356 L20.9416791,32.1716218 L22.9183847,35.7456847 L20.9430515,39.3202072 L18.402292,43.9156936 L11.9547827,43.9156936 C11.873354,43.8338693 11.7923827,43.7603195 11.7068368,43.6706806 C10.7489054,42.6874112 9.87697755,41.622777 9.10203208,40.4882708 L9.10203208,40.4864319 Z M19.4064273,49.0269481 C19.1337781,48.9023731 18.8739381,48.7846934 18.5839055,48.6389726 C18.2394345,48.4762437 17.8972508,48.2946675 17.5047459,48.0864295 C17.2741837,47.9604753 17.0404191,47.8359004 16.7590783,47.6575419 C16.4731627,47.4980307 16.1963965,47.3233498 15.9296946,47.1334993 C15.8866929,47.1040794 15.7769013,47.0374248 15.7261227,47.0139807 C15.3624383,46.7740244 15.0088179,46.5239549 14.663432,46.2541189 C14.6236325,46.2237796 14.512926,46.1410361 14.4690094,46.1152936 C14.4557429,46.1060999 14.3848358,46.0490988 14.3674522,46.039905 C14.3331423,46.0141626 14.3015773,45.9838232 14.265895,45.9580808 L18.3972598,45.9580808 L20.2934515,49.3933182 C20.0162279,49.2820741 19.7170458,49.164854 19.4064273,49.0269481 L19.4064273,49.0269481 Z M34.7520847,50.4073868 C34.5247247,50.4717429 34.2978221,50.5158728 33.9647878,50.5862048 C33.9313927,50.5967776 33.8975404,50.6045923 33.8627731,50.6096488 C33.8216012,50.613786 33.7804294,50.6202217 33.7401725,50.6289556 C33.5082378,50.6813599 33.2685262,50.7158365 32.9574502,50.7618051 C32.2099526,50.8863801 31.4565081,50.9709624 30.7003188,51.0160117 C30.5804629,51.0242862 30.4523728,51.0334798 30.268472,51.0343992 C29.5150274,51.0757711 28.759753,51.0757711 28.0063084,51.0343992 C27.8768458,51.0343992 27.7487556,51.0252055 27.6238678,51.0160117 C26.8425179,50.9691238 26.0643702,50.8804042 25.292627,50.7507726 C25.0606925,50.7167558 24.8209808,50.6822794 24.5895036,50.6303347 C24.5487893,50.621141 24.5076174,50.6147054 24.4664456,50.6105682 C24.3978259,50.599076 24.3296636,50.5829871 24.2628738,50.5627608 C24.0263644,50.5167922 23.7994619,50.473122 23.5721019,50.4087659 L23.5396219,50.4004914 C23.5016524,50.3876202 23.4627678,50.3775072 23.4234258,50.3696925 C23.3218686,50.3494662 23.2203115,50.3195866 23.1187542,50.2952233 L20.1626166,44.9366573 L20.983766,43.4509505 L24.6796242,36.7671082 L33.6454773,36.7671082 L37.341793,43.4518698 L38.1629424,44.9366573 L35.2054324,50.2933845 C35.1038751,50.3177479 35.0023179,50.3471678 34.9007607,50.3678537 C34.8614188,50.3752087 34.8225342,50.3853218 34.7845647,50.398193 L34.7520847,50.4073868 Z M43.7902171,46.170456 C43.7453855,46.195279 43.7032989,46.2228602 43.663042,46.2541189 C43.317656,46.5239549 42.9635782,46.7740244 42.5358487,47.0530542 C42.4891872,47.0764981 42.4438981,47.1036196 42.4008965,47.1334993 C42.114981,47.3357614 41.8185438,47.5223941 41.5124998,47.6920184 C41.2901719,47.8359004 41.0564074,47.9604753 40.7768963,48.1117123 C40.4333402,48.2946675 40.0906991,48.4762437 39.7247272,48.6500051 C39.4566529,48.7846934 39.1963553,48.9023731 38.8610337,49.0586664 C38.5957041,49.1740478 38.3120759,49.2770176 38.0348522,49.3841246 L39.9241819,45.9580808 L44.0592065,45.9580808 C44.01346,45.9930169 43.9727456,46.0265741 43.9251693,46.0601312 L43.7902171,46.170456 Z M52.2880837,34.3326083 C52.1416949,34.8083838 51.9669434,35.2882967 51.7487326,35.8141781 C51.6714211,36.006327 51.5881624,36.1920403 51.5044465,36.3818909 L51.4353692,36.5381843 C51.3338121,36.7781407 51.2263078,37.0089033 51.0982177,37.2677068 C50.9243811,37.6432707 50.7331607,38.0101006 50.527759,38.3815273 C50.4001263,38.6187256 50.2628869,38.8554642 50.1297647,39.0862268 C49.8127415,39.6236003 49.519964,40.0819077 49.2148351,40.5089566 C48.4394322,41.6407048 47.5679617,42.7030404 46.6100303,43.6840116 C46.5368359,43.7612389 46.4618117,43.8380065 46.3845002,43.9156936 L39.9241819,43.9156936 L37.3834223,39.3202072 L35.4067169,35.7456847 L37.3825074,32.1716218 L39.923267,27.5761356 L48.8886625,27.5761356 L52.4093118,33.9446329 C52.3704273,34.0728854 52.3338301,34.192404 52.2871687,34.3326083 L52.2880837,34.3326083 Z" id="Shape" fill="#183165"></path>
                    </g>
                </g>
            </g>
        </g>
    </g>
</svg>