<svg xmlns="http://www.w3.org/2000/svg" width="100" height="63" viewBox="0 0 100 63">
    <g fill="none" fill-rule="evenodd" opacity=".3" transform="rotate(45 57.657 55.314)">
        <g fill-rule="nonzero">
            <path fill="#F35229" d="M58 28.929c0 15.977-12.952 28.928-28.929 28.928C13.094 57.857.143 44.906.143 28.93S13.094 0 29.07 0 58 12.952 58 28.929z" transform="translate(20 2)"/>
            <path fill="#FFF" d="M18.212 2.108L29.043 8.734 29.043 18.77 20 25.34 9.448 22.971 7.346 9.83z" transform="translate(20 2)"/>
            <path fill="#FFF" d="M.325 32.174L9.448 22.971 20 25.34 23.454 35.97 16.933 46.006 4.102 43.543zM38.897 1.712L29.1 8.734 29.1 18.77 38.143 25.34 48.695 22.971 50.289 9.267z" transform="translate(20 2)"/>
            <path fill="#FFF" d="M57.801 32.322L48.695 22.971 38.143 25.34 34.688 35.97 41.21 46.006 54.007 43.602z" transform="translate(20 2)"/>
            <path fill="#FFF" d="M34.69 57.311L41.21 46.006 34.688 35.97 23.454 35.97 16.933 46.006 23.454 57.311z" transform="translate(20 2)"/>
        </g>
        <path fill="#183165" fill-rule="nonzero" d="M75.845 45.57c2.065-3.502 3.44-7.446 3.941-11.651l.005-.04c.137-1.158.209-2.336.209-3.53 0-7.882-3.06-15.072-8.07-20.473-.08-.11-.173-.211-.28-.298-3.254-3.416-7.297-6.092-11.841-7.736-.082-.037-.167-.067-.253-.089C56.335.62 52.869 0 49.258 0 45.23 0 41.38.77 37.853 2.166c-.095.029-.188.066-.277.112-4.338 1.766-8.18 4.484-11.258 7.89-.1.088-.19.187-.266.296-4.692 5.33-7.537 12.286-7.537 19.886 0 1.139.067 2.263.191 3.37l.005.041c.229 2.01.657 3.96 1.264 5.83L3.461 55.896c-.615.606-.615 1.59 0 2.195.307.304.709.455 1.111.455s.805-.151 1.112-.455l15.524-15.324c.432.947.912 1.87 1.437 2.763.048.107.109.207.18.3 3.897 6.46 10.153 11.379 17.588 13.588L29.338 70.35c-.614.606-.614 1.589 0 2.195.307.303.71.455 1.112.455.402 0 .805-.152 1.112-.455l12.449-12.29c1.706.29 3.458.444 5.247.444 11.198 0 21.016-5.943 26.39-14.801.08-.101.146-.21.197-.327zm-13.602.062l-5.594-8.498 2.974-9.036 7.07-1.567 1.839-.408 8.037 8.148c-.488 3.33-1.589 6.467-3.186 9.295l-11.14 2.066zm-20.376-8.498l-5.591 8.494L25.1 43.51c-1.6-2.853-2.697-6.018-3.173-9.376l8.048-8.014 8.917 1.977 1.982 6.022.993 3.014zM26.374 15.135l1.418 8.75-6.128 6.103c.074-5.493 1.799-10.599 4.71-14.853zm18.362 20.672l-2.777-8.437 7.27-5.214 7.27 5.214-2.777 8.437h-8.986zm32.117-5.697l-6.16-6.245 1.089-9.242c3.15 4.385 5.02 9.725 5.07 15.487zm-7.849-18.774l-1.391 11.81-3.383.75-5.476 1.213-7.895-5.663v-8.402l8.532-6.037c3.649 1.427 6.917 3.6 9.613 6.33zM55.641 3.841l-6.45 4.564-7.19-4.343c2.314-.623 4.746-.958 7.257-.958 2.196 0 4.333.256 6.383.737zM38.186 5.396l9.47 5.72v8.33l-5.568 3.994-2.326 1.669-8.907-1.974-1.83-11.293c2.558-2.724 5.67-4.931 9.16-6.446zM27.532 47.132l8.483 1.608 4.32 7.393c-5.104-1.726-9.538-4.89-12.803-9.001zM44.59 57.203l-5.73-9.805 5.586-8.487h9.622l5.586 8.487-5.73 9.805c-1.518.256-3.077.392-4.667.392-1.591 0-3.15-.135-4.667-.392zm13.59-1.07l4.318-7.39 8.45-1.567c-3.262 4.089-7.682 7.237-12.768 8.957z"/>
        <path fill="#3761BA" fill-rule="nonzero" d="M21.353 56.454L.454 77.354c-.605.605-.605 1.587 0 2.192.303.303.7.454 1.096.454.397 0 .794-.151 1.097-.454l20.9-20.9c.604-.605.604-1.587 0-2.192-.606-.605-1.588-.605-2.194 0z"/>
        <path stroke="#3761BA" stroke-linecap="round" stroke-width="3" d="M4.488 57.128l16.438-16.439M30.314 71.607l11.472-11.472"/>
        <circle cx="48.692" cy="30.308" r="29.5" stroke="#183165" stroke-width="2"/>
        <path fill="#3761BA" fill-rule="nonzero" d="M25.5 75c-.394 0-.781.16-1.06.44-.279.278-.44.665-.44 1.06s.16.78.44 1.06c.279.28.666.44 1.06.44.395 0 .782-.16 1.06-.44.28-.28.44-.665.44-1.06s-.16-.782-.44-1.06c-.278-.28-.665-.44-1.06-.44z"/>
    </g>
</svg>
