<svg xmlns="http://www.w3.org/2000/svg" width="128" height="78" viewBox="0 0 128 78">
    <g fill="none" fill-rule="evenodd" transform="rotate(45 75.735 69.746)">
        <g fill-rule="nonzero">
            <path fill="#F35229" d="M74 36.91c0 20.383-16.525 36.908-36.91 36.908C16.708 73.818.183 57.293.183 36.91S16.707 0 37.09 0 74 16.525 74 36.91z" transform="translate(25.667 2.333)"/>
            <path fill="#FFF" d="M23.236 2.689L37.054 11.144 37.054 23.948 25.518 32.33 12.054 29.308 9.372 12.542z" transform="translate(25.667 2.333)"/>
            <path fill="#FFF" d="M.415 41.049L12.054 29.308 25.518 32.33 29.924 45.893 21.604 58.698 5.234 55.555zM49.628 2.184L37.127 11.144 37.127 23.948 48.665 32.33 62.128 29.308 64.162 11.823z" transform="translate(25.667 2.333)"/>
            <path fill="#FFF" d="M73.746 41.238L62.128 29.308 48.665 32.33 44.258 45.893 52.578 58.698 68.906 55.631z" transform="translate(25.667 2.333)"/>
            <path fill="#FFF" d="M44.259 73.12L52.578 58.698 44.258 45.893 29.924 45.893 21.604 58.698 29.924 73.12z" transform="translate(25.667 2.333)"/>
        </g>
        <path fill="#183165" fill-rule="nonzero" d="M96.834 58.313c2.627-4.462 4.378-9.487 5.015-14.844l.007-.051c.173-1.475.265-2.975.265-4.496 0-10.043-3.895-19.202-10.27-26.083-.102-.14-.221-.27-.357-.38-4.141-4.352-9.287-7.76-15.07-9.855-.104-.046-.212-.085-.323-.113-4.1-1.444-8.51-2.234-13.106-2.234-5.126 0-10.025.981-14.515 2.76-.122.036-.24.084-.352.143-5.522 2.25-10.411 5.712-14.329 10.051-.128.112-.242.238-.338.377-5.973 6.79-9.593 15.652-9.593 25.334 0 1.451.084 2.884.243 4.294l.006.052c.291 2.56.836 5.044 1.609 7.428L4.708 71.466c-.782.773-.782 2.025 0 2.797.39.386.902.58 1.414.58.512 0 1.024-.194 1.415-.58L27.295 54.74c.55 1.207 1.161 2.382 1.83 3.52.06.136.138.263.228.382 4.96 8.23 12.923 14.496 22.385 17.311L37.642 89.881c-.78.773-.78 2.025 0 2.797.391.386.904.58 1.416.58.512 0 1.024-.194 1.415-.58L56.317 77.02c2.17.371 4.402.567 6.678.567 14.252 0 26.748-7.572 33.589-18.857.1-.129.184-.268.25-.417zm-17.313.078l-7.119-10.825 3.785-11.513 8.998-1.996 2.34-.52 10.23 10.38c-.622 4.243-2.023 8.239-4.055 11.843L79.521 58.39zM53.588 47.566l-7.116 10.82-14.223-2.697c-2.037-3.634-3.433-7.666-4.038-11.945l10.242-10.21 11.35 2.52 2.522 7.671 1.263 3.84zM33.87 19.539l1.805 11.148-7.799 7.774c.093-6.997 2.289-13.502 5.994-18.922zm23.37 26.336l-3.535-10.75 9.253-6.642 9.253 6.643-3.535 10.749H57.24zm40.876-7.259l-7.84-7.955 1.386-11.775c4.01 5.587 6.389 12.39 6.454 19.73zM88.126 14.7l-1.77 15.046-4.306.954-6.97 1.546-10.048-7.214V14.327l10.86-7.691c4.644 1.818 8.803 4.588 12.235 8.063zM71.12 5.151l-8.209 5.814-9.15-5.533c2.943-.794 6.04-1.22 9.235-1.22 2.795 0 5.515.326 8.124.94zm-22.216 1.98l12.054 7.289V25.03l-7.088 5.089-2.96 2.125-11.336-2.514-2.33-14.388c3.256-3.469 7.218-6.281 11.66-8.211zm-13.56 53.171l10.797 2.049 5.499 9.418c-6.496-2.199-12.14-6.23-16.295-11.467zm21.712 12.831l-7.293-12.492 7.11-10.811h12.246l7.11 10.81-7.292 12.492c-1.932.327-3.917.5-5.941.5-2.025 0-4.008-.172-5.94-.499zm17.296-1.364l5.496-9.415 10.755-1.996c-4.151 5.21-9.777 9.22-16.25 11.411z"/>
        <path fill="#F35229" fill-rule="nonzero" d="M28.08 71.795L1.084 98.79c-.782.783-.782 2.05 0 2.833.391.39.903.586 1.416.586.512 0 1.025-.196 1.416-.587l26.995-26.994c.782-.783.782-2.05 0-2.833-.782-.781-2.05-.781-2.833 0z"/>
        <path stroke="#3761BA" stroke-linecap="round" stroke-width="3" d="M5.957 72.94L27.23 51.668M38.46 90.72l15.002-14.34"/>
        <circle cx="62.667" cy="38.626" r="37.5" stroke="#183165" stroke-width="2"/>
        <path fill="#3761BA" fill-rule="nonzero" d="M32.969 95.315c-.526 0-1.042.214-1.414.586-.371.372-.586.887-.586 1.415 0 .526.214 1.04.586 1.412.372.374.888.587 1.414.587.526 0 1.042-.213 1.414-.587.372-.372.586-.886.586-1.412 0-.528-.214-1.043-.586-1.415-.372-.372-.888-.586-1.414-.586z"/>
    </g>
</svg>
