<?xml version="1.0" encoding="UTF-8"?>
<svg width="90px" height="55px" viewBox="0 0 90 55" version="1.1" xmlns="http://www.w3.org/2000/svg" xmlns:xlink="http://www.w3.org/1999/xlink">
    <!-- Generator: Sketch 56.3 (81716) - https://sketch.com -->
    <title>soccer (1)</title>
    <desc>Created with Sketch.</desc>
    <g id="Page-1" stroke="none" stroke-width="1" fill="none" fill-rule="evenodd">
        <g id="Hey-Digital_Home_Get-My-Free-Proposal_02" transform="translate(-667.000000, -149.000000)">
            <g id="Group-3" transform="translate(340.000000, 56.000000)">
                <g id="Group-5" transform="translate(199.000000, 70.000000)">
                    <g id="soccer-(1)" transform="translate(177.970466, 50.793112) rotate(45.000000) translate(-177.970466, -50.793112) translate(142.074923, 15.293112)">
                        <g id="Group" transform="translate(18.021695, 1.618635)" fill-rule="nonzero">
                            <path d="M51.9574468,25.6103857 C51.9574468,39.7546254 40.3549701,51.2207713 26.0425572,51.2207713 C11.7301443,51.2207713 0.127667548,39.7546254 0.127667548,25.6103857 C0.127667548,11.4661458 11.7301443,0 26.0425572,0 C40.3549701,0 51.9574468,11.4661458 51.9574468,25.6103857 Z" id="Path" fill="#F35229"></path>
                            <polygon id="Path" fill="#FFFFFF" points="16.3147213 1.86609282 26.0169146 7.73234255 26.0169146 16.6169072 17.916568 22.4330135 8.4637083 20.3361526 6.58033815 8.70232266"></polygon>
                            <polygon id="Path" fill="#FFFFFF" points="0.29134412 28.4831227 8.4637083 20.3361526 17.916568 22.4330135 21.0105982 31.8443543 15.1684405 40.728919 3.6750815 38.5484857"></polygon>
                            <polygon id="Path" fill="#FFFFFF" points="34.8450758 1.51562761 26.0681999 7.73234255 26.0681999 16.6169072 34.1690921 22.4330135 43.6219516 20.3361526 45.0497558 8.20358364"></polygon>
                            <polygon id="Path" fill="#FFFFFF" points="51.7790395 28.6141428 43.6219516 20.3361526 34.1690921 22.4330135 31.0745163 31.8443543 36.9166738 40.728919 48.3805712 38.6007859"></polygon>
                            <polygon id="Path" fill="#FFFFFF" points="31.0756076 50.73659 36.9166738 40.728919 31.0745163 31.8443543 21.0105982 31.8443543 15.1684405 40.728919 21.0105982 50.73659"></polygon>
                        </g>
                        <path d="M67.9896327,40.462309 C69.8346679,37.3661988 71.0634109,33.8793902 71.5112244,30.1621285 C71.5128708,30.1503379 71.5139683,30.1385474 71.5156147,30.1267567 C71.6374462,29.1031162 71.7022036,28.0623259 71.7022036,27.0070652 C71.7022036,20.0388073 68.9670294,13.683126 64.4910902,8.90845981 C64.4197473,8.81091928 64.3357823,8.7219536 64.2402927,8.64531466 C61.332798,5.62530749 57.7195582,3.26021586 53.6590537,1.80675368 C53.5860646,1.7745973 53.5103315,1.7478005 53.432952,1.72850676 C50.5545432,0.726303922 47.4571669,0.17857585 44.2302759,0.17857585 C40.6313048,0.17857585 37.1920317,0.859216392 34.0392275,2.09348008 C33.9536161,2.11866917 33.8712974,2.15189722 33.7917228,2.1926286 C29.9150633,3.75327825 26.4818269,6.15642133 23.7312865,9.1667817 C23.6412848,9.24449258 23.5611614,9.33185041 23.4936601,9.42831914 C19.3003481,14.1402806 16.7583483,20.2890901 16.7583483,27.0070652 C16.7583483,28.0140915 16.8176178,29.0082553 16.9290223,29.9868771 C16.9301199,29.9992035 16.9317663,30.0109942 16.9334126,30.0227849 C17.1375629,31.7988813 17.5200703,33.5224559 18.0628245,35.1768947 L3.30528624,49.5887867 C2.75649526,50.124724 2.75649526,50.9934786 3.30528624,51.529416 C3.57968173,51.7973847 3.93913986,51.931369 4.29859785,51.931369 C4.65805597,51.931369 5.0175141,51.7973847 5.29190959,51.529416 L19.1642479,37.9825267 C19.5505968,38.8201969 19.9797514,39.6358937 20.4489677,40.4253294 C20.4917733,40.5196544 20.5461037,40.608084 20.6092147,40.6900825 C24.0918422,46.4015672 29.6829247,50.7490912 36.3265883,52.702047 L26.4296917,62.3666058 C25.8814495,62.9025431 25.8814495,63.7712976 26.4296917,64.307235 C26.7040872,64.5752037 27.0640941,64.7091881 27.4235522,64.7091881 C27.7830104,64.7091881 28.1424683,64.5752037 28.416864,64.307235 L39.5414058,53.4427124 C41.0659472,53.6999623 42.6321966,53.8355546 44.2302759,53.8355546 C54.2374795,53.8355546 63.0110009,48.5817604 67.8140196,40.7511793 C67.8842648,40.6622137 67.9435343,40.5657451 67.9896327,40.462309 L67.9896327,40.462309 Z M55.8339124,40.5164387 L50.8355242,33.0047404 L53.4933189,25.0165937 L59.8104519,23.6311956 L61.454081,23.2710457 L68.6361084,30.4735082 C68.1998195,33.4168763 67.2163861,36.1898162 65.7895296,38.6905001 L55.8339124,40.5164387 Z M37.6255765,33.0047404 L32.6293834,40.5126872 L22.643034,38.6411939 C21.212336,36.1196085 20.2321952,33.3220153 19.8074311,30.3529223 L26.9987881,23.268902 L34.9677819,25.0165937 L36.7387302,30.3400598 L37.6255765,33.0047404 Z M23.7812265,13.5577166 L25.0483849,21.2929008 L19.5725484,26.6871106 C19.6378546,21.8320539 21.1794084,17.3183892 23.7812265,13.5577166 Z M40.1895279,31.8315735 L37.7078952,24.372933 L44.2044829,19.7638715 L50.7010704,24.3734689 L48.2194375,31.8315735 L40.1895279,31.8315735 Z M68.8896499,26.794834 L63.3852763,21.274679 L64.3582827,13.1048496 C67.1735805,16.9812846 68.8441002,21.7018211 68.8896499,26.794834 Z M61.8761012,10.1995329 L60.6325408,20.6390572 L57.6098,21.3014758 L52.7162309,22.3744225 L45.6609741,17.3687674 L45.6609741,9.94121118 L53.2858759,4.60434667 C56.5462432,5.86594333 59.46636,7.78781485 61.8761012,10.1995329 Z M49.9344095,3.57427509 L44.1710065,7.60827579 L37.7457617,3.7693563 C39.8130574,3.21841267 41.9868184,2.92257524 44.2302759,2.92257524 C46.1933014,2.92257524 48.103094,3.14874088 49.9344095,3.57427509 Z M34.3361234,4.94841854 L42.799578,10.0055237 L42.799578,17.3687674 L37.8231412,20.8995228 L35.7448699,22.3744225 L27.7852055,20.6294104 L26.1498084,10.6465048 C28.4355228,8.23907406 31.2173442,6.28772609 34.3361234,4.94841854 Z M24.8156975,41.8423478 L32.3961473,43.2636538 L36.2568918,49.7988741 C31.69589,48.2730605 27.7336191,45.4760033 24.8156975,41.8423478 L24.8156975,41.8423478 Z M40.0600134,50.7453396 L34.9392447,42.0770883 L39.9310475,34.5755729 L48.5295046,34.5755729 L53.5213073,42.0770883 L48.4016363,50.7448037 C47.045025,50.9715052 45.6516447,51.091021 44.2302759,51.091021 C42.8089074,51.0915552 41.4160758,50.9720411 40.0600134,50.7453396 L40.0600134,50.7453396 Z M52.204209,49.7988741 L56.0627584,43.2663334 L63.6141223,41.8809353 C60.6994933,45.4958329 56.7492958,48.2784198 52.204209,49.7988741 L52.204209,49.7988741 Z" id="Shape" fill="#183165" fill-rule="nonzero"></path>
                        <path d="M19.7153315,49.8169548 L0.76176063,68.5483613 C0.212493206,69.0911747 0.212493206,69.9710753 0.76176063,70.5138888 C1.0363942,70.7847527 1.3961644,70.920456 1.7559346,70.920456 C2.1157048,70.920456 2.47547499,70.7847527 2.75010856,70.5133458 L21.704229,51.7824824 C22.252947,51.2396689 22.252947,50.3597682 21.704229,49.8169548 C21.1549615,49.2746843 20.2645989,49.2746843 19.7153315,49.8169548 L19.7153315,49.8169548 Z" id="Path" fill="#F35229" fill-rule="nonzero"></path>
                        <path d="M4.18261215,50.6118349 L19.1192012,35.8507531" id="Line-5" stroke="#3761BA" stroke-width="3" stroke-linecap="round"></path>
                        <path d="M27.0040295,62.9490732 L37.5374301,52.9986902" id="Line-5-Copy" stroke="#3761BA" stroke-width="3" stroke-linecap="round"></path>
                        <ellipse id="Oval" stroke="#183165" stroke-width="2" cx="44.0004179" cy="26.8014585" rx="26.3297872" ry="26.0204082"></ellipse>
                        <path d="M23.1482903,66.1372817 C22.7791246,66.1372817 22.4170901,66.2857568 22.1559863,66.5436917 C21.8948826,66.8016267 21.744035,67.1592676 21.744035,67.5255786 C21.744035,67.8902641 21.8943341,68.2468212 22.1559863,68.505298 C22.4170901,68.7648586 22.7791246,68.9127919 23.1482903,68.9127919 C23.5180043,68.9127919 23.8800389,68.7648586 24.1411426,68.505298 C24.4022463,68.247363 24.5525456,67.8902641 24.5525456,67.5255786 C24.5525456,67.1592676 24.4027948,66.8016267 24.1411426,66.5436917 C23.8800389,66.2857568 23.5180043,66.1372817 23.1482903,66.1372817 Z" id="Path" fill="#3761BA" fill-rule="nonzero"></path>
                    </g>
                </g>
            </g>
        </g>
    </g>
</svg>