<?xml version="1.0" encoding="UTF-8"?>
<svg width="70px" height="44px" viewBox="0 0 70 44" version="1.1" xmlns="http://www.w3.org/2000/svg" xmlns:xlink="http://www.w3.org/1999/xlink">
    <!-- Generator: Sketch 56.3 (81716) - https://sketch.com -->
    <title>soccer (1)</title>
    <desc>Created with Sketch.</desc>
    <g id="Page-1" stroke="none" stroke-width="1" fill="none" fill-rule="evenodd" opacity="0.3">
        <g id="Hey-Digital_Home_Get-My-Free-Proposal" transform="translate(-681.000000, -142.000000)">
            <g id="Group-3" transform="translate(340.000000, 56.000000)">
                <g id="Group-5" transform="translate(199.000000, 68.500000)">
                    <g id="soccer-(1)" transform="translate(181.242196, 39.985667) rotate(45.000000) translate(-181.242196, -39.985667) translate(153.242196, 11.985667)">
                        <g id="Group" transform="translate(13.828571, 1.389040)" fill-rule="nonzero">
                            <path d="M40.1028571,20.0915846 C40.1028571,31.1878716 31.1475968,40.1831692 20.1006981,40.1831692 C9.05379944,40.1831692 0.0985389726,31.1878716 0.0985389726,20.0915846 C0.0985389726,8.99529747 9.05379944,0 20.1006981,0 C31.1475968,0 40.1028571,8.99529747 40.1028571,20.0915846 Z" id="Path" fill="#F35229"></path>
                            <polygon id="Path" fill="#FFFFFF" points="12.5923612 1.46396709 20.0809061 6.06609429 20.0809061 13.0361175 13.8287312 17.5989067 6.5326321 15.9538999 5.07897091 6.82705267"></polygon>
                            <polygon id="Path" fill="#FFFFFF" points="0.224871166 22.3452733 6.5326321 15.9538999 13.8287312 17.5989067 16.2168287 24.9821907 11.7076154 31.9522139 2.83657642 30.2416438"></polygon>
                            <polygon id="Path" fill="#FFFFFF" points="26.8948377 1.18902388 20.1204901 6.06609429 20.1204901 13.0361175 26.3730861 17.5989067 33.6691851 15.9538999 34.7712221 6.43578728"></polygon>
                            <polygon id="Path" fill="#FFFFFF" points="39.9651551 22.4480598 33.6691851 15.9538999 26.3730861 17.5989067 23.9845675 24.9821907 28.4937807 31.9522139 37.34208 30.2826738"></polygon>
                            <polygon id="Path" fill="#FFFFFF" points="23.9854098 39.8033244 28.4937807 31.9522139 23.9845675 24.9821907 16.2168287 24.9821907 11.7076154 31.9522139 16.2168287 39.8033244"></polygon>
                        </g>
                        <path d="M52.4417155,31.6498328 C53.8692958,29.2173033 54.8200253,26.4778126 55.1665171,23.5572613 C55.167791,23.5479977 55.1686402,23.5387342 55.1699141,23.5294706 C55.2641802,22.7252241 55.3142857,21.9075035 55.3142857,21.0784139 C55.3142857,15.6036434 53.1979679,10.6101575 49.734748,6.85883223 C49.679547,6.78219729 49.6145798,6.71229938 49.5406956,6.65208625 C47.2910463,4.2793488 44.4953327,2.42116068 41.3535519,1.27921501 C41.2970772,1.25395062 41.2384793,1.2328971 41.1786076,1.21773853 C38.9514633,0.430335039 36.5548947,1.45519152e-11 34.0581153,1.45519152e-11 C31.2734419,1.45519152e-11 28.6123336,0.534760749 26.1728782,1.50448813 C26.1066371,1.52427852 26.0429437,1.55038489 25.9813735,1.58238643 C22.9818412,2.80854638 20.3254037,4.69663049 18.1971965,7.06178871 C18.1275584,7.12284403 18.0655636,7.1914787 18.013335,7.26727156 C14.7687956,10.9693314 12.8019448,15.8002837 12.8019448,21.0784139 C12.8019448,21.869607 12.8478041,22.6506945 12.9340024,23.419571 C12.9348517,23.4292555 12.9361256,23.4385192 12.9373994,23.4477828 C13.0953589,24.8432134 13.3913207,26.1973791 13.8112722,27.4972266 L2.39275248,38.8202579 C1.96813013,39.2413293 1.96813013,39.9238861 2.39275248,40.3449575 C2.60506366,40.5554932 2.88319133,40.660761 3.16131889,40.660761 C3.43944656,40.660761 3.71757422,40.5554932 3.9298854,40.3449575 L14.6634892,29.7015353 C14.9624234,30.35967 15.2944781,31.0005407 15.6575302,31.6207789 C15.6906507,31.6948875 15.7326884,31.7643642 15.78152,31.8287882 C18.4761734,36.3161462 22.8022259,39.7318776 27.9427042,41.2662618 L20.2850646,48.8594426 C19.8608668,49.280514 19.8608668,49.9630707 20.2850646,50.3841421 C20.4973758,50.5946778 20.775928,50.6999457 21.0540557,50.6999457 C21.3321834,50.6999457 21.6103109,50.5946778 21.8226222,50.3841421 L30.4301419,41.8481824 C31.6097428,42.0502967 32.821615,42.1568279 34.0581153,42.1568279 C41.8011039,42.1568279 48.5895415,38.0290648 52.3058364,31.8767903 C52.360188,31.8068924 52.4060472,31.7310997 52.4417155,31.6498328 L52.4417155,31.6498328 Z M43.0363303,31.692361 L39.1688699,25.790624 L41.225316,19.5145546 L46.113144,18.4260851 L47.3848879,18.1431251 L52.9419206,23.8019038 C52.6043458,26.114428 51.8434225,28.2930515 50.7394044,30.2577707 L43.0363303,31.692361 Z M28.9477852,25.790624 L25.0820233,31.6894136 L17.3551703,30.2190322 C16.2481799,28.2378912 15.4898044,26.0398983 15.1611467,23.7071628 L20.725398,18.1414408 L26.8913392,19.5145546 L28.2615955,23.6970571 L28.9477852,25.790624 Z M18.2358372,10.5116268 L19.2162901,16.5889505 L14.9794082,20.8270343 C15.0299383,17.0125484 16.2227025,13.4662849 18.2358372,10.5116268 Z M30.9316208,24.8688987 L29.0114786,19.0088479 L34.0381581,15.3876337 L39.0648375,19.0092689 L37.1446951,24.8688987 L30.9316208,24.8688987 Z M53.1380962,20.9116696 L48.8791339,16.5746341 L49.6319893,10.1558215 C51.810302,13.201431 53.1028525,16.910228 53.1380962,20.9116696 Z M47.7114225,7.87319324 L46.7492282,16.0752433 L44.4104083,16.5956876 L40.6240508,17.4386726 L35.1651058,13.5058656 L35.1651058,7.67023687 L41.0648087,3.47720768 C43.5874902,4.46840984 45.8469057,5.97837199 47.7114225,7.87319324 Z M38.4716401,2.66790848 L34.012256,5.83731304 L29.0407775,2.82117847 C30.64033,2.38831706 32.3222591,2.15588564 34.0581153,2.15588564 C35.5769895,2.15588564 37.0546753,2.33357783 38.4716401,2.66790848 Z M26.4025989,3.74753558 L32.9511249,7.72076544 L32.9511249,13.5058656 L29.1006493,16.2798841 L27.4926045,17.4386726 L21.3338819,16.0676641 L20.0685072,8.22436685 C21.8370593,6.33291406 23.98947,4.79979307 26.4025989,3.74753558 Z M19.0362503,32.7340917 L24.9015588,33.8507731 L27.8887771,38.9853179 C24.3597407,37.7865276 21.2939673,35.5889559 19.0362503,32.7340917 L19.0362503,32.7340917 Z M30.8314101,39.72893 L26.8692589,32.9185209 L30.7316238,27.0247844 L37.3846068,27.0247844 L41.2469718,32.9185209 L37.2856699,39.728509 C36.2360034,39.9066222 35.1578872,40.0005225 34.0581153,40.0005225 C32.9583434,40.0009422 31.8806518,39.9070433 30.8314101,39.72893 L30.8314101,39.72893 Z M40.2278781,38.9853179 L43.2133979,33.8528784 L49.0562015,32.7644088 C46.8010322,35.6045355 43.7446004,37.7907383 40.2278781,38.9853179 L40.2278781,38.9853179 Z" id="Shape" fill="#183165" fill-rule="nonzero"></path>
                        <path d="M14.7642022,39.2082673 L0.314069594,53.7234241 C-0.104689865,54.1440558 -0.104689865,54.8258997 0.314069594,55.2465313 C0.523449217,55.4564265 0.797736689,55.5615844 1.07202416,55.5615844 C1.34631163,55.5615844 1.62059911,55.4564265 1.82997873,55.2461106 L16.2805302,40.7313745 C16.6988709,40.3107429 16.6988709,39.6288989 16.2805302,39.2082673 C15.8617708,38.7880563 15.1829616,38.7880563 14.7642022,39.2082673 L14.7642022,39.2082673 Z" id="Path" fill="#3761BA" fill-rule="nonzero"></path>
                        <path d="M3.10285579,39.6762651 L14.4688888,28.259417" id="Line-5" stroke="#3761BA" stroke-width="3" stroke-linecap="round"></path>
                        <path d="M20.9596356,49.7323322 L28.8918468,41.7646577" id="Line-5-Copy" stroke="#3761BA" stroke-width="3" stroke-linecap="round"></path>
                        <ellipse id="Oval" stroke="#183165" stroke-width="2" cx="33.6673084" cy="21.0492367" rx="20.3971429" ry="20.4883342"></ellipse>
                        <path d="M17.6314286,52.0889853 C17.3587734,52.0889853 17.091385,52.2004447 16.8985412,52.394075 C16.7056975,52.5877053 16.5942857,52.8561843 16.5942857,53.1311718 C16.5942857,53.4049391 16.7052924,53.6726044 16.8985412,53.8666415 C17.091385,54.0614921 17.3587734,54.1725448 17.6314286,54.1725448 C17.9044888,54.1725448 18.1718772,54.0614921 18.3647209,53.8666415 C18.5575647,53.6730112 18.6685714,53.4049391 18.6685714,53.1311718 C18.6685714,52.8561843 18.5579698,52.5877053 18.3647209,52.394075 C18.1718772,52.2004447 17.9044888,52.0889853 17.6314286,52.0889853 Z" id="Path" fill="#3761BA" fill-rule="nonzero"></path>
                    </g>
                </g>
            </g>
        </g>
    </g>
</svg>