<svg xmlns="http://www.w3.org/2000/svg" width="70" height="72" viewBox="0 0 70 72">
    <g fill="none" opacity=".3">
        <path fill="#E1E8FA" d="M69.908 57.857c0 7.328-15.645 13.258-34.953 13.258-19.309 0-34.953-5.93-34.953-13.258 0-3.652 3.88-6.967 10.185-9.365.953 1.388 2.026 2.69 3.205 3.893.217.229.434.446.663.65.434.435.88.832 1.338 1.218.024.024.036.048.06.06.41.35.82.688 1.254 1 .099.085.203.161.313.23.434.337.88.65 1.338.952.066.045.134.085.205.12.362.253.723.47 1.097.688.3.192.615.36.928.53.422.241.856.457 1.302.663.349.18.723.337 1.084.506.555.24 1.121.458 1.688.663.313.108.615.217.928.313.434.145.868.278 1.314.398.025.015.054.023.084.024.01.01.023.013.036.012.29.084.59.157.892.217.02.024.054.033.084.024.301.085.607.154.917.205.113.036.23.06.349.072.325.06.651.12.988.17.926.152 1.86.257 2.797.312.18.012.361.025.53.025.458.024.916.035 1.374.035.458 0 .916-.011 1.374-.035.168 0 .35-.013.53-.025.937-.055 1.87-.16 2.796-.313.338-.048.663-.108.988-.169.12-.012.236-.036.35-.072.31-.051.615-.12.916-.205.03.01.064 0 .085-.024.3-.06.602-.133.891-.217.014.001.027-.003.037-.012.03 0 .058-.009.084-.024.446-.12.88-.253 1.314-.398.313-.096.614-.205.928-.313.566-.205 1.133-.422 1.687-.663.362-.169.735-.326 1.085-.506.446-.206.88-.422 1.302-.663.313-.17.626-.338.928-.53.373-.217.735-.435 1.097-.688.07-.035.139-.075.205-.12.458-.301.904-.615 1.337-.952.11-.069.215-.145.314-.23.434-.312.843-.65 1.253-1 .024-.012.036-.036.06-.06.459-.386.904-.783 1.338-1.218.23-.204.446-.421.663-.65 1.18-1.203 2.252-2.505 3.206-3.893 6.303 2.398 10.185 5.713 10.185 9.365z"/>
        <path fill="#3761BA" d="M61.47 57.857c0-4.66-11.87-8.437-26.515-8.437-14.645 0-26.516 3.777-26.516 8.437 0 4.66 11.871 8.437 26.516 8.437 14.644 0 26.516-3.778 26.516-8.437z"/>
        <path fill="#FFF" d="M63.833 39.934c-.097.314-.193.627-.301.94-.193.627-.422 1.242-.675 1.845-.12.3-.253.59-.386.892-.133.3-.265.59-.41.88-.216.47-.458.927-.71 1.385-.157.29-.326.58-.495.868-.35.59-.723 1.181-1.133 1.748-.954 1.388-2.027 2.69-3.206 3.893-.217.217-.434.434-.663.65h-8.847l-6.026-10.847 6.026-10.847H59.06l4.773 8.593z"/>
        <path fill="#F35229" d="M55.854 53.035c-.434.423-.88.832-1.337 1.218-.025.024-.037.048-.061.06-.41.35-.82.688-1.253 1-.1.085-.204.161-.314.23-.433.337-.88.65-1.337.952-.066.045-.135.085-.205.12-.353.25-.72.479-1.097.688-.302.192-.615.36-.928.53-.434.229-.868.457-1.302.663-.362.18-.711.337-1.085.506-.554.24-1.12.458-1.687.663-.302.12-.615.217-.928.313-.434.145-.868.278-1.314.398-.026.015-.055.023-.084.024l4.085-7.365h8.847zM26.988 60.4c-.03 0-.059-.009-.084-.024-.446-.12-.88-.253-1.314-.398-.313-.096-.627-.193-.928-.313-.567-.205-1.133-.422-1.688-.663-.373-.169-.723-.326-1.084-.506-.434-.206-.868-.434-1.302-.663-.313-.17-.627-.338-.928-.53-.378-.21-.744-.439-1.097-.688-.07-.035-.14-.075-.205-.12-.458-.301-.904-.615-1.338-.952-.11-.069-.214-.145-.313-.23-.434-.312-.844-.65-1.253-1-.025-.012-.037-.036-.06-.06-.459-.386-.905-.795-1.339-1.218h8.847l4.086 7.365z"/>
        <path fill="#FFF" d="M28.928 42.188l-6.026 10.847h-8.847c-.229-.216-.446-.433-.663-.65-1.179-1.203-2.252-2.505-3.205-3.893-.41-.567-.784-1.157-1.134-1.748-.168-.289-.337-.578-.494-.868-.253-.458-.494-.916-.71-1.385-.146-.29-.278-.58-.41-.88-.133-.302-.266-.591-.386-.892-.253-.603-.482-1.218-.676-1.844-.107-.314-.204-.627-.3-.94l4.772-8.594h12.053l6.026 10.847z"/>
        <path fill="#F35229" d="M10.85 31.34l-4.774 8.594c-1.67-5.607-1.67-11.58 0-17.187l4.773 8.594z"/>
        <path fill="#FFF" d="M28.928 20.493l-6.026 10.848H10.849l-4.773-8.594c1.476-4.987 4.226-9.502 7.98-13.101h8.846l6.026 10.847z"/>
        <path fill="#F35229" d="M47.007 31.341L40.981 42.188 28.928 42.188 22.902 31.341 28.928 20.493 40.981 20.493z"/>
        <path fill="#FFF" d="M47.007 53.035L42.922 60.4c-.01.01-.023.013-.037.012-.3.084-.59.157-.891.217-.021.024-.054.033-.085.024-.3.084-.603.145-.916.205-.114.036-.23.06-.35.072-.325.073-.662.12-.988.17-.926.152-1.859.257-2.796.312-.168.012-.35.025-.53.025-.458.024-.916.035-1.374.035-.458 0-.916-.011-1.374-.035-.18 0-.362-.013-.53-.025-.937-.055-1.871-.16-2.797-.313-.325-.048-.663-.096-.988-.169-.119-.012-.236-.036-.35-.072-.313-.06-.614-.12-.916-.205-.03.01-.063 0-.084-.024-.302-.06-.59-.133-.892-.217-.013.001-.026-.003-.036-.012l-4.086-7.365 6.026-10.847h12.053l6.026 10.847zM63.833 22.747l-4.773 8.594H47.007l-6.026-10.848 6.026-10.847h8.847c3.754 3.599 6.504 8.114 7.979 13.101z"/>
        <path fill="#F35229" d="M55.854 9.646h-8.847l-4.085-7.364c4.864 1.321 9.314 3.855 12.932 7.364zM26.988 2.282l-4.086 7.364h-8.847c3.62-3.51 8.068-6.043 12.933-7.364z"/>
        <path fill="#FFF" d="M47.007 9.646l-6.026 10.847H28.928L22.902 9.646l4.086-7.364c5.215-1.43 10.719-1.43 15.934 0l4.085 7.364z"/>
        <path fill="#F35229" d="M65.087 31.34c.004 2.911-.418 5.807-1.254 8.594l-4.773-8.593 4.773-8.594c.836 2.788 1.258 5.683 1.254 8.594z"/>
        <path fill="#183165" d="M66.268 30.16v-.13c-.012-.279-.026-.557-.047-.81-.026-.442-.063-.886-.12-1.395-.049-.424-.1-.857-.166-1.246-.065-.455-.143-.922-.241-1.338-.18-.953-.414-1.896-.698-2.823l-.006-.022c-.101-.326-.201-.652-.3-.94-.205-.658-.441-1.305-.71-1.939-.103-.253-.211-.499-.32-.749l-.081-.18c-.141-.32-.28-.626-.42-.9-.229-.496-.482-.979-.746-1.456-.163-.3-.336-.603-.519-.913-.341-.565-.693-1.132-1.064-1.663-.25-.362-.5-.715-.76-1.058-.815-1.104-1.709-2.149-2.673-3.126-.241-.254-.482-.495-.697-.686-.436-.425-.886-.843-1.346-1.229-.035-.035-.074-.068-.112-.1-.434-.371-.87-.724-1.356-1.086-.1-.08-.203-.156-.31-.225-.442-.34-.894-.658-1.35-.957-.08-.056-.164-.107-.25-.153-.346-.243-.704-.466-1.073-.67-.315-.202-.644-.38-1.048-.602-.44-.231-.877-.462-1.293-.658-.344-.173-.68-.324-1.142-.534-.579-.25-1.17-.476-1.72-.675-.333-.134-.678-.24-.995-.337-.43-.143-.859-.276-1.299-.397-.07-.026-.14-.046-.213-.061-.309-.086-.603-.16-.913-.222l-.045-.01c-.294-.082-.592-.15-.892-.201-.163-.05-.33-.086-.498-.109-.311-.066-.634-.12-.982-.166-.968-.16-1.942-.27-2.92-.328-.196-.013-.407-.025-.514-.023-.322-.026-.63-.026-.872-.025-.373-.024-.746-.024-1.12 0-.322 0-.633 0-.855.024-.209 0-.42.013-.602.027-.994.058-1.984.169-2.967.331-.31.046-.629.094-.94.16-.13.014-.26.04-.385.08-.347.066-.68.135-1.013.228l-.042.01c-.292.06-.576.13-.868.21-.067.014-.133.033-.197.058-.461.12-.91.262-1.325.403-.347.106-.692.213-.986.333-.59.213-1.18.438-1.868.738-.353.16-.689.312-1.01.474-.44.207-.877.437-1.394.71-.326.177-.656.362-.901.516-.393.217-.773.454-1.142.71-.082.045-.163.094-.24.147-.467.306-.92.624-1.36.964-.117.076-.23.159-.338.247-.459.333-.895.69-1.326 1.06-.037.033-.074.066-.108.1-.525.443-.958.843-1.336 1.218-.242.225-.463.45-.692.68-.969.98-1.867 2.027-2.687 3.134-.264.35-.515.701-.758 1.057-.377.54-.73 1.106-1.085 1.687-.175.299-.348.603-.507.89-.268.483-.521.965-.736 1.431-.153.306-.292.612-.433.932l-.081.18c-.11.25-.218.496-.314.732-.26.61-.488 1.232-.683 1.865-.13.336-.241.68-.333 1.028l-.007.025c-.28.915-.51 1.844-.69 2.785-.104.454-.182.921-.24 1.343-.058.422-.12.855-.179 1.343-.051.445-.089.89-.114 1.305-.022.279-.035.557-.047.835v.13c-.012.397-.024.783-.024 1.182 0 .4.012.785.024 1.181v.134c.013.277.025.554.047.805.025.442.063.887.12 1.396.048.424.1.857.166 1.246.065.454.143.922.24 1.338.18.955.412 1.9.696 2.83v.022c.101.326.201.652.301.94.204.658.44 1.305.71 1.939.101.253.21.499.32.749l.08.18c.141.32.281.626.42.9.229.496.482.979.746 1.456.163.3.336.603.514.904.414.699.803 1.3 1.178 1.817.99 1.44 2.101 2.791 3.324 4.039.241.254.482.495.697.686.437.425.886.843 1.348 1.229.034.035.072.07.11.1.434.37.87.724 1.356 1.086.1.08.203.156.31.225.442.34.894.658 1.35.957.082.056.166.108.253.154.344.243.702.465 1.07.668.315.202.644.38 1.049.603.439.233.877.463 1.29.658.346.174.683.325 1.145.535.578.25 1.169.476 1.72.675.332.134.677.241.994.337.43.144.86.276 1.3.397.068.026.14.047.212.062.31.085.603.16.913.221l.042.01c.295.083.594.15.897.2.162.05.329.086.498.109.31.066.633.12.982.166.965.16 1.939.27 2.915.328.194.013.39.019.55.024.482.026.964.038 1.438.038s.964-.012 1.374-.036c.208 0 .42-.013.602-.026.993-.06 1.982-.171 2.963-.334.31-.046.629-.094.94-.16.13-.014.258-.04.382-.08.346-.066.68-.135 1.013-.228l.042-.011c.291-.059.576-.129.868-.21.067-.012.133-.032.196-.057.462-.12.911-.262 1.326-.403.347-.106.692-.213.986-.333.589-.213 1.18-.438 1.866-.737.354-.162.69-.313 1.01-.475.44-.207.878-.437 1.395-.71.327-.177.656-.362.902-.516.392-.217.772-.454 1.139-.71.083-.044.163-.094.241-.147.466-.306.918-.624 1.36-.964.117-.074.23-.155.337-.24.459-.333.895-.692 1.325-1.062.038-.032.075-.065.109-.098.462-.39.911-.804 1.311-1.196.016-.014.03-.029.044-.043l.01-.01c.233-.211.458-.433.667-.653 1.222-1.246 2.333-2.594 3.322-4.03.391-.54.781-1.143 1.198-1.849.175-.298.348-.602.507-.89.268-.482.521-.965.736-1.43.153-.307.293-.613.434-.933l.08-.18c.11-.25.219-.496.313-.732.267-.627.502-1.267.703-1.918.113-.326.214-.652.314-.975l.007-.025c.28-.915.51-1.844.69-2.784.104-.454.183-.922.24-1.344.058-.422.121-.855.179-1.342.052-.445.09-.89.113-1.306.023-.277.035-.554.048-.832v-.134c.012-.396.024-.782.024-1.18 0-.4.015-.795.003-1.191zm-5.83 1.18l2.948-5.302c.06.298.12.602.164.916.063.378.106.767.158 1.212.046.399.08.8.104 1.226.022.248.033.496.047.843.011.374.022.736.022 1.11 0 .375-.01.737-.025 1.206-.011.248-.023.496-.045.771-.022.4-.057.8-.11 1.264-.045.38-.088.768-.157 1.18-.041.282-.1.582-.16.882L60.44 31.34zm-2.306-17.307c.241.324.475.649.711.992.348.496.67 1.015.972 1.517.162.281.325.56.482.844.24.433.466.865.688 1.342.136.272.26.544.384.828l.082.184c.1.224.198.443.297.687.252.603.459 1.17.646 1.77.047.14.09.28.134.42l-4.178 7.519H47.718l-3.014-5.424-2.344-4.219 2.343-4.218 3.013-5.424h7.645c.098.097.195.184.298.293.892.904 1.718 1.869 2.473 2.89zm-17.86 26.95H29.637l-3.013-5.424-2.344-4.218 2.343-4.219 3.013-5.423H40.27l3.013 5.423 2.346 4.219-2.343 4.218-3.015 5.424zm6.254-36.158c.324.147.632.284.972.455.409.193.815.408 1.281.654.274.148.551.295.885.506.34.188.668.394.985.618.048.034.182.115.235.141.431.284.85.579 1.26.897.05.037.174.132.228.161.016.012.103.081.12.092.042.03.08.066.121.097h-4.895l-2.25-4.059c.341.13.689.269 1.058.438zm-18.2-1.636c.27-.076.538-.127.934-.21.039-.013.08-.022.12-.028.05-.005.098-.013.146-.023.275-.062.56-.102.928-.157.887-.147 1.78-.247 2.677-.3.143-.01.294-.02.547-.025.254-.005.5-.02.844-.023.142-.009.297-.009.433-.009s.291 0 .518.012c.25 0 .5 0 .856.025.153 0 .305.01.453.021.926.056 1.85.16 2.765.313.275.04.56.081.834.143.048.01.097.018.146.023.081.013.161.032.24.056.282.055.55.106.82.182l.039.01c.045.015.09.027.137.036.12.024.242.06.362.088l3.504 6.323-.974 1.754-4.384 7.888H29.638l-4.383-7.89-.974-1.752 3.507-6.322c.12-.029.242-.064.362-.088.047-.008.092-.02.137-.036l.039-.011zM17.599 8.192c.054-.03.106-.063.155-.101.41-.318.83-.613 1.344-.947.053-.026.104-.057.152-.09.34-.24.691-.46 1.055-.66.264-.17.54-.317.872-.497.409-.214.815-.429 1.247-.633.316-.16.625-.297 1.025-.483.315-.136.65-.257.98-.384L22.192 8.44h-4.904c.054-.041.102-.081.159-.12l.152-.129zm-10.07 13.97c.174-.562.382-1.128.641-1.75.092-.226.19-.445.29-.67l.081-.184c.12-.283.249-.556.4-.86.207-.444.433-.877.677-1.316.151-.28.314-.559.467-.824.312-.518.634-1.037.987-1.54.23-.336.462-.66.71-.992.752-1.016 1.576-1.978 2.464-2.879l.302-.296h7.644l3.013 5.424 2.344 4.218-2.342 4.219-3.014 5.424H11.56l-4.184-7.532c.044-.138.092-.28.155-.443zM6.524 36.643c-.059-.3-.12-.603-.163-.916-.063-.379-.106-.768-.158-1.212-.046-.4-.081-.8-.105-1.226-.02-.241-.033-.495-.046-.844-.012-.369-.023-.73-.023-1.105s.011-.737.026-1.205c.01-.25.021-.498.044-.774.023-.4.058-.8.11-1.264.046-.379.09-.768.158-1.18.04-.281.1-.582.159-.882l2.945 5.305-2.947 5.303zm4.64 11.14c-.346-.483-.697-1.022-1.068-1.65-.163-.278-.326-.558-.482-.843-.241-.433-.467-.866-.688-1.342-.136-.272-.26-.545-.385-.828l-.082-.184c-.099-.224-.197-.444-.297-.687-.251-.603-.459-1.17-.645-1.77-.047-.14-.09-.28-.134-.42l4.177-7.514h10.633l3.013 5.424 2.344 4.218-2.342 4.219-3.014 5.424h-7.646c-.097-.097-.193-.184-.294-.29-1.136-1.16-2.17-2.417-3.09-3.756v-.002zm12.221 10.079c-.323-.147-.631-.286-.975-.458-.409-.192-.814-.406-1.28-.652-.273-.149-.55-.296-.884-.506-.34-.189-.668-.395-.984-.619-.05-.034-.181-.113-.241-.14-.432-.284-.851-.58-1.26-.898-.048-.035-.18-.133-.231-.163-.016-.011-.1-.079-.12-.09-.041-.03-.079-.066-.121-.096h4.9l2.248 4.054c-.328-.13-.683-.27-1.052-.432zm18.2 1.63c-.27.075-.54.127-.934.21-.04.013-.08.022-.121.028-.049.005-.098.012-.145.023-.275.062-.56.102-.929.156-.886.148-1.78.247-2.677.3-.142.01-.294.021-.512.022-.893.049-1.789.049-2.683 0-.153 0-.305-.01-.453-.021-.927-.056-1.85-.16-2.765-.314-.275-.04-.56-.08-.834-.142-.048-.01-.097-.018-.146-.023-.081-.014-.162-.033-.241-.056-.28-.055-.55-.106-.82-.182l-.038-.01c-.045-.015-.091-.027-.138-.036-.12-.024-.24-.06-.361-.088l-3.506-6.325.974-1.753 4.383-7.888h10.633l4.384 7.89.974 1.751-3.508 6.323c-.12.028-.24.063-.361.088-.047.008-.093.02-.138.035l-.038.011zm10.719-5.001c-.054.029-.104.061-.151.098-.41.319-.83.614-1.337.943-.055.028-.11.06-.16.095-.34.239-.69.46-1.054.66-.263.17-.54.316-.872.495-.408.216-.814.43-1.248.635-.318.159-.627.298-1.024.482-.315.137-.651.258-.98.385l2.24-4.044h4.905c-.055.041-.103.08-.16.12l-.16.13zM62.38 40.52c-.174.562-.381 1.128-.64 1.749-.092.227-.19.446-.29.67l-.082.184c-.12.284-.248.556-.4.861-.206.444-.432.877-.676 1.315-.151.28-.314.56-.472.832-.376.634-.723 1.175-1.085 1.679-.92 1.336-1.953 2.59-3.09 3.747-.086.091-.175.182-.267.274h-7.661l-3.014-5.424-2.344-4.219 2.343-4.218 3.013-5.424H58.35l4.175 7.516c-.046.152-.09.293-.144.458z"/>
    </g>
</svg>
