<?xml version="1.0" encoding="UTF-8"?>
<svg width="50px" height="50px" viewBox="0 0 50 50" version="1.1" xmlns="http://www.w3.org/2000/svg" xmlns:xlink="http://www.w3.org/1999/xlink">
    <!-- Generator: Sketch 56.3 (81716) - https://sketch.com -->
    <title>soccer</title>
    <desc>Created with Sketch.</desc>
    <g id="Page-1" stroke="none" stroke-width="1" fill="none" fill-rule="evenodd" opacity="0.3">
        <g id="Hey-Digital_Home_Get-My-Free-Proposal_02" transform="translate(-539.000000, -151.000000)" fill-rule="nonzero">
            <g id="Group-3" transform="translate(340.000000, 56.000000)">
                <g id="Group-5" transform="translate(199.000000, 70.000000)">
                    <g id="soccer" transform="translate(0.000000, 25.500000)">
                        <path d="M49.4806801,40.1784637 C49.4806801,45.2673641 38.4074895,49.3853534 24.741108,49.3853534 C11.0743425,49.3853534 0.00115202224,45.2673641 0.00115202224,40.1784637 C0.00115202224,37.642114 2.7483293,35.3404857 7.21009242,33.6748288 C7.88517462,34.6385814 8.64435401,35.5431828 9.47918251,36.3784602 C9.63278482,36.5374529 9.78638713,36.688157 9.94843762,36.8301957 C10.2556422,37.1316039 10.5712949,37.4077691 10.8953958,37.6756456 C10.9122921,37.6925998 10.9207402,37.7091773 10.9380205,37.717466 C11.2279449,37.9604764 11.5178691,38.1948212 11.8250738,38.4122118 C11.8949629,38.4706097 11.9690759,38.5237328 12.0470291,38.5712047 C12.3542338,38.8055496 12.6698865,39.0233169 12.9939874,39.2324189 C13.0404521,39.26369 13.0888368,39.2915702 13.1387576,39.3160596 C13.3948894,39.4920067 13.6506373,39.6427107 13.9152172,39.7934148 C14.1283404,39.9271647 14.3502957,40.0443372 14.5722511,40.1615095 C14.8706236,40.3291678 15.1778282,40.4794952 15.493481,40.6219106 C15.7407807,40.7473717 16.0053607,40.8562554 16.2611085,40.9734279 C16.6535624,41.1407094 17.0544644,41.2914135 17.4557505,41.4338289 C17.6773218,41.5091809 17.8908291,41.584533 18.1124004,41.6515963 C18.419605,41.7518144 18.7268096,41.8441208 19.0424623,41.9277615 C19.0605106,41.9383108 19.0808629,41.9439622 19.1019832,41.9443389 C19.1088953,41.9507438 19.1181114,41.9537579 19.1277116,41.9526277 C19.3323867,42.0114023 19.5455099,42.0615114 19.7590171,42.1033318 C19.7736093,42.120286 19.7970336,42.1266909 19.818538,42.120286 C20.0316612,42.1794373 20.2482404,42.2269091 20.4671238,42.2623246 C20.547381,42.2871908 20.6303262,42.304145 20.7144235,42.3128105 C20.944827,42.3546308 21.1752304,42.3964512 21.414082,42.4299828 C22.0691959,42.5362293 22.7300698,42.608944 23.3932478,42.6473736 C23.5211217,42.6556622 23.6489956,42.6643277 23.7684214,42.6643277 C24.0925223,42.6809052 24.4166231,42.6891939 24.741108,42.6891939 C25.0652089,42.6891939 25.3893097,42.6809052 25.7134106,42.6643277 C25.8328364,42.6643277 25.9607103,42.6556622 26.0889683,42.6473736 C26.7521462,42.608944 27.4126361,42.5362293 28.068134,42.4299828 C28.3069857,42.3964512 28.5373891,42.3546308 28.7674085,42.3128105 C28.8515058,42.304145 28.9344511,42.2871908 29.0150923,42.2623246 C29.2335916,42.2269091 29.4501708,42.1794373 29.6632941,42.120286 C29.6847984,42.1266909 29.7082227,42.120286 29.723199,42.1033318 C29.9363222,42.0615114 30.1494453,42.0114023 30.3541205,41.9526277 C30.3637206,41.9537579 30.3729367,41.9507438 30.3798488,41.9443389 C30.4009691,41.9439622 30.4213214,41.9383108 30.4397537,41.9277615 C30.7554065,41.8441208 31.062227,41.7518144 31.3694316,41.6515963 C31.591387,41.584533 31.8045103,41.5091809 32.0264655,41.4338289 C32.4273676,41.2914135 32.8282696,41.1407094 33.2207236,40.9734279 C33.4764713,40.8562554 33.7410513,40.7473717 33.9883511,40.6219106 C34.3040038,40.4794952 34.6112084,40.3291678 34.909965,40.1615095 C35.1315363,40.0443372 35.3534916,39.9271647 35.5666148,39.7934148 C35.8311948,39.6427107 36.0869426,39.4920067 36.3430744,39.3160596 C36.3929952,39.2915702 36.441764,39.26369 36.4882287,39.2324189 C36.8123295,39.0233169 37.1279823,38.8055496 37.4348029,38.5712047 C37.5127561,38.5237328 37.5868692,38.4706097 37.6567583,38.4122118 C37.9639629,38.1948212 38.2538872,37.9604764 38.5438115,37.717466 C38.5610918,37.7091773 38.56954,37.6925998 38.5868202,37.6756456 C38.9109211,37.4077691 39.2265739,37.1316039 39.5333945,36.8301957 C39.6958289,36.688157 39.8490472,36.5374529 40.0026495,36.3784602 C40.837478,35.5431828 41.5966575,34.6385814 42.2721236,33.6748288 C46.7335027,35.3404857 49.4806801,37.642114 49.4806801,40.1784637 L49.4806801,40.1784637 Z" id="Path" fill="#E1E8FA"></path>
                        <path d="M43.5090063,40.1784637 C43.5090063,36.9424702 35.1061919,34.3194656 24.741108,34.3194656 C14.3756402,34.3194656 5.97282576,36.9424702 5.97282576,40.1784637 C5.97282576,43.4140806 14.3756402,46.037462 24.741108,46.037462 C35.1061919,46.037462 43.5090063,43.4140806 43.5090063,40.1784637 L43.5090063,40.1784637 Z" id="Path" fill="#3761BA"></path>
                        <path d="M45.1809673,27.7321898 C45.1126144,27.9499572 45.0446454,28.1673478 44.9678442,28.3851153 C44.8311381,28.8202733 44.6690877,29.2471427 44.4901409,29.6657233 C44.4048917,29.8748252 44.3108103,30.0756384 44.2171129,30.2851171 C44.1230315,30.4942189 44.029334,30.6950322 43.9271885,30.8962221 C43.7735862,31.2224965 43.6027037,31.5404822 43.4237569,31.8584678 C43.3127793,32.0596577 43.1933535,32.2604709 43.0739276,32.4612841 C42.826628,32.8711993 42.562048,33.2814911 42.2721236,33.6748288 C41.5966575,34.6385814 40.837478,35.5431828 40.0026495,36.3784602 C39.8490472,36.5291643 39.6958289,36.6798683 39.5333945,36.8301957 L33.2717963,36.8301957 L29.0062602,29.2972517 L33.2717963,21.7643079 L41.8028686,21.7643079 L45.1809673,27.7321898 Z" id="Path" fill="#FFFFFF"></path>
                        <path d="M39.5333945,36.8301957 C39.2265739,37.1233151 38.9109211,37.4077691 38.5868202,37.6756456 C38.56954,37.6925998 38.5610918,37.7091773 38.5438115,37.717466 C38.2538872,37.9604764 37.9639629,38.1948212 37.6567583,38.4122118 C37.5868692,38.4706097 37.5127561,38.5237328 37.4348029,38.5712047 C37.1279823,38.8055496 36.8123295,39.0233169 36.4882287,39.2324189 C36.441764,39.26369 36.3929952,39.2915702 36.3430744,39.3160596 C36.0934707,39.4889926 35.8342668,39.6483622 35.5666148,39.7934148 C35.3534916,39.9271647 35.1315363,40.0443372 34.909965,40.1615095 C34.6027604,40.3205024 34.2955557,40.4794952 33.9883511,40.6219106 C33.7326032,40.7473717 33.4853035,40.8562554 33.2207236,40.9734279 C32.8282696,41.1407094 32.4273676,41.2914135 32.0264655,41.4338289 C31.8129583,41.5174696 31.591387,41.584533 31.3694316,41.6515963 C31.062227,41.7518144 30.7554065,41.8441208 30.4397537,41.9277615 C30.4213214,41.9383108 30.4009691,41.9439622 30.3798488,41.9443389 L33.2717963,36.8301957 L39.5333945,36.8301957 Z" id="Path" fill="#F35229"></path>
                        <path d="M19.1019832,41.9443389 C19.0808629,41.9439622 19.0605106,41.9383108 19.0424623,41.9277615 C18.7268096,41.8441208 18.419605,41.7518144 18.1124004,41.6515963 C17.8908291,41.584533 17.6688737,41.5174696 17.4557505,41.4338289 C17.0544644,41.2914135 16.6535624,41.1407094 16.2611085,40.9734279 C15.9969125,40.8562554 15.7492288,40.7473717 15.493481,40.6219106 C15.1862764,40.4794952 14.8790718,40.3205024 14.5722511,40.1615095 C14.3502957,40.0443372 14.1283404,39.9271647 13.9152172,39.7934148 C13.6479492,39.6483622 13.3887453,39.4889926 13.1387576,39.3160596 C13.0888368,39.2915702 13.0404521,39.26369 12.9939874,39.2324189 C12.6698865,39.0233169 12.3542338,38.8055496 12.0470291,38.5712047 C11.9690759,38.5237328 11.8949629,38.4706097 11.8250738,38.4122118 C11.5178691,38.1948212 11.2279449,37.9604764 10.9380205,37.717466 C10.9207402,37.7091773 10.9122921,37.6925998 10.8953958,37.6756456 C10.5712949,37.4077691 10.2556422,37.1233151 9.94843762,36.8301957 L16.2100357,36.8301957 L19.1019832,41.9443389 Z" id="Path" fill="#F35229"></path>
                        <path d="M20.4755719,29.2972517 L16.2100357,36.8301957 L9.94843762,36.8301957 C9.78638713,36.6798683 9.63278482,36.5291643 9.47918251,36.3784602 C8.64435401,35.5431828 7.88517462,34.6385814 7.21009242,33.6748288 C6.91978405,33.2814911 6.65558808,32.8711993 6.40790438,32.4612841 C6.28847856,32.2604709 6.16905274,32.0596577 6.05807509,31.8584678 C5.87912845,31.5404822 5.70862979,31.2224965 5.55502748,30.8962221 C5.45249801,30.6950322 5.3588006,30.4942189 5.26471921,30.2851171 C5.17102171,30.0756384 5.07732439,29.8748252 4.99207506,29.6657233 C4.81274434,29.2471427 4.65069396,28.8202733 4.5139879,28.3851153 C4.43757073,28.1673478 4.36921765,27.9499572 4.30086467,27.7321898 L7.67896344,21.7643079 L16.2100357,21.7643079 L20.4755719,29.2972517 Z" id="Path" fill="#FFFFFF"></path>
                        <path d="M7.67896344,21.7643079 L4.30086467,27.7321898 C3.11812689,23.8383729 3.11812689,19.6906196 4.30086467,15.7968027 L7.67896344,21.7643079 Z" id="Path" fill="#F35229"></path>
                        <path d="M20.4755719,14.2313639 L16.2100357,21.7643079 L7.67896344,21.7643079 L4.30086467,15.7968027 C5.34497639,12.3336227 7.29150164,9.19784732 9.94843762,6.69842004 L16.2100357,6.69842004 L20.4755719,14.2313639 Z" id="Path" fill="#FFFFFF"></path>
                        <polygon id="Path" fill="#F35229" points="33.2717963 21.7643079 29.0062602 29.2972517 20.4755719 29.2972517 16.2100357 21.7643079 20.4755719 14.2313639 29.0062602 14.2313639"></polygon>
                        <path d="M33.2717963,36.8301957 L30.3798488,41.9443389 C30.3729367,41.9507438 30.3637206,41.9537579 30.3541205,41.9526277 C30.1409972,42.0114023 29.9363222,42.0615114 29.723199,42.1033318 C29.7082227,42.120286 29.6847984,42.1266909 29.6632941,42.120286 C29.4501708,42.1786838 29.2366636,42.2205042 29.0150923,42.2623246 C28.9344511,42.2871908 28.8515058,42.304145 28.7674085,42.3128105 C28.5373891,42.3629196 28.2985375,42.3964512 28.068134,42.4299828 C27.4126361,42.5362293 26.7521462,42.608944 26.0889683,42.6473736 C25.9695425,42.6556622 25.8412846,42.6643277 25.7134106,42.6643277 C25.3893097,42.6809052 25.0652089,42.6891939 24.741108,42.6891939 C24.4166231,42.6891939 24.0925223,42.6809052 23.7684214,42.6643277 C23.6405475,42.6643277 23.5126736,42.6556622 23.3932478,42.6473736 C22.7300698,42.608944 22.0691959,42.5362293 21.414082,42.4299828 C21.1836785,42.3964512 20.944827,42.3629196 20.7144235,42.3128105 C20.6303262,42.304145 20.547381,42.2871908 20.4671238,42.2623246 C20.2451684,42.2205042 20.0320453,42.1786838 19.818538,42.120286 C19.7970336,42.1266909 19.7736093,42.120286 19.7590171,42.1033318 C19.5455099,42.0615114 19.3408349,42.0114023 19.1277116,41.9526277 C19.1181114,41.9537579 19.1088953,41.9507438 19.1019832,41.9443389 L16.2100357,36.8301957 L20.4755719,29.2972517 L29.0062602,29.2972517 L33.2717963,36.8301957 Z" id="Path" fill="#FFFFFF"></path>
                        <path d="M45.1809673,15.7968027 L41.8028686,21.7643079 L33.2717963,21.7643079 L29.0062602,14.2313639 L33.2717963,6.69842004 L39.5333945,6.69842004 C42.1903304,9.19784732 44.1368556,12.3336227 45.1809673,15.7968027 L45.1809673,15.7968027 Z" id="Path" fill="#FFFFFF"></path>
                        <path d="M39.5333945,6.69842004 L33.2717963,6.69842004 L30.3798488,1.58465355 C33.8228446,2.50206462 36.9724599,4.26153492 39.5333945,6.69842004 L39.5333945,6.69842004 Z" id="Path" fill="#F35229"></path>
                        <path d="M19.1019832,1.58465355 L16.2100357,6.69842004 L9.94843762,6.69842004 C12.5097561,4.26153492 15.6589874,2.50206462 19.1019832,1.58465355 Z" id="Path" fill="#F35229"></path>
                        <path d="M33.2717963,6.69842004 L29.0062602,14.2313639 L20.4755719,14.2313639 L16.2100357,6.69842004 L19.1019832,1.58465355 C22.7930467,0.591136767 26.6887853,0.591136767 30.3798488,1.58465355 L33.2717963,6.69842004 Z" id="Path" fill="#FFFFFF"></path>
                        <path d="M46.0684282,21.7643079 C46.0714768,23.7856264 45.7727203,25.7963957 45.1809673,27.7321898 L41.8028686,21.7643079 L45.1809673,15.7968027 C45.7727203,17.7325966 46.0714768,19.743366 46.0684282,21.7643079 L46.0684282,21.7643079 Z" id="Path" fill="#F35229"></path>
                        <path d="M46.9043853,20.9441009 L46.9043853,20.8536784 C46.8959372,20.6604004 46.886337,20.4671224 46.8709767,20.2923057 C46.8529285,19.9848693 46.8268161,19.6763027 46.7857275,19.3229016 C46.751551,19.0282751 46.7158385,18.7279972 46.6689897,18.4574834 C46.6229091,18.1417583 46.5672282,17.8173678 46.4981072,17.5283927 C46.3706173,16.866425 46.2054947,16.2119925 46.0042757,15.5681092 L46.0000517,15.5530388 C45.9282426,15.3262292 45.8575856,15.100173 45.7869285,14.8993598 C45.6425423,14.4427265 45.4751158,13.9936283 45.2850329,13.5535723 C45.2124559,13.3776253 45.1356547,13.2069529 45.0580855,13.0336431 L45.0008687,12.908182 C44.9014111,12.6862703 44.8023377,12.4737775 44.7040322,12.2831368 C44.5419817,11.938778 44.3630351,11.6034614 44.1760243,11.2719124 C44.0608225,11.0643175 43.9379407,10.8533318 43.8085308,10.6382017 C43.5669911,10.2456175 43.3177713,9.8522799 43.0551114,9.48305478 C42.8784687,9.23213252 42.7010581,8.98686159 42.5175033,8.7483724 C41.9403426,7.98166532 41.3078852,7.25640191 40.6255068,6.57785677 C40.4550084,6.40153299 40.2841257,6.23387461 40.1324435,6.10163185 C39.8237028,5.80625183 39.505362,5.51576968 39.1797251,5.24789313 C39.1547648,5.22378048 39.1275003,5.20042139 39.100236,5.17781578 C38.7930314,4.92086526 38.4842906,4.67559433 38.1406055,4.42429533 C38.0703324,4.36815799 37.9966033,4.31616512 37.9205702,4.26793981 C37.6079895,4.03171113 37.2881127,3.81092969 36.9659318,3.60333478 C36.908715,3.56452845 36.8495781,3.52911304 36.7881371,3.49708835 C36.5439095,3.3286766 36.2904657,3.17382812 36.0289578,3.03254302 C35.8062344,2.89201148 35.573527,2.76805739 35.2870586,2.61396238 C34.976398,2.45346258 34.6665053,2.29333951 34.3723569,2.15695226 C34.1285132,2.03714255 33.8911976,1.93202643 33.5636407,1.7862202 C33.1542905,1.61215702 32.7361082,1.45542477 32.3463423,1.31753048 C32.1109468,1.22447068 31.8667191,1.15024894 31.6424598,1.08318567 C31.3379432,0.983720968 31.0341946,0.891414738 30.722766,0.80777392 C30.6736133,0.789689429 30.6233085,0.775372492 30.5718517,0.765200039 C30.3533524,0.705671875 30.1452213,0.653679012 29.925954,0.611105131 L29.8936975,0.604323399 C29.6859503,0.547055845 29.4751312,0.500337577 29.262392,0.464545332 C29.1471903,0.429883391 29.0293005,0.404640432 28.9098747,0.389193287 C28.6898394,0.343228588 28.4613559,0.305552566 28.2148243,0.273904707 C27.530142,0.162383681 26.8404676,0.0862780671 26.1477212,0.045964699 C26.0094791,0.0369224537 25.8601009,0.028633777 25.7844517,0.0301408179 C25.5563523,0.011679591 25.338237,0.011679591 25.1673545,0.0124330632 C24.9035425,-0.00414436733 24.6389625,-0.00414436733 24.3751505,0.0124330632 C24.1462831,0.0124330632 23.9262478,0.0124330632 23.7691894,0.0293873456 C23.6217311,0.0293873456 23.4723529,0.038429591 23.342943,0.0478485725 C22.6394444,0.0881618441 21.9386339,0.165021026 21.2431994,0.278048997 C21.0239321,0.309696952 20.7981367,0.343228588 20.5777174,0.389193287 C20.485172,0.398612268 20.3937787,0.417073592 20.3050733,0.444577064 C20.0600777,0.49054186 19.8239141,0.538390336 19.5881345,0.602816358 L19.5585661,0.610351562 C19.351971,0.651418403 19.150752,0.699643711 18.9441568,0.755781057 C18.8965401,0.765200039 18.8500754,0.778386574 18.8051468,0.796094329 C18.4783579,0.879735147 18.1604011,0.977692805 17.8666367,1.07565046 C17.621257,1.14911863 17.3770293,1.22371721 17.1688982,1.30660446 C16.7518679,1.4546712 16.3336856,1.61140345 15.8467663,1.81975193 C15.5967785,1.93089612 15.359463,2.03638899 15.1317475,2.14866358 C14.8210869,2.29258594 14.5115783,2.45233227 14.1456207,2.64146595 C13.9144493,2.76466647 13.6813577,2.89276505 13.5074031,2.99976485 C13.2297669,3.15084578 12.9601949,3.31548997 12.699455,3.49369753 C12.6410861,3.52459192 12.5838692,3.55850029 12.5289564,3.5950461 C12.1987115,3.80753877 11.8788347,4.02869705 11.5666379,4.264549 C11.4840766,4.31767216 11.4042034,4.37493972 11.3277864,4.43597492 C11.0029174,4.66730565 10.6937928,4.91559066 10.3892762,5.17254109 C10.3627798,5.1951467 10.3366675,5.21775231 10.3124751,5.24148823 C9.9407575,5.54930131 9.63432084,5.82735041 9.36666884,6.08769174 C9.1957863,6.24404716 9.03911194,6.40040268 8.87706146,6.55977228 C8.19161117,7.2402012 7.55608159,7.96734848 6.97546486,8.73593933 C6.78845412,8.97932639 6.61104341,9.22309028 6.43862484,9.46986825 C6.1717408,9.8447446 5.92252108,10.2380824 5.67099727,10.6415925 C5.54734746,10.8491874 5.42446561,11.0601731 5.31195185,11.2602328 C5.12225305,11.5947959 4.94330631,11.9297357 4.79124002,12.2537495 C4.68295044,12.4662423 4.58426088,12.6787351 4.48441948,12.9006468 L4.42720255,13.026108 C4.34963343,13.1994176 4.27283227,13.3700901 4.20524726,13.5343575 C4.02092449,13.9570825 3.85964206,14.3896032 3.72178396,14.8292824 C3.6292386,15.062497 3.55090142,15.3009862 3.48600447,15.5432431 L3.48101232,15.560574 C3.28248136,16.1957918 3.11966291,16.841182 2.99294095,17.4941074 C2.91882786,17.8098326 2.86353103,18.1342231 2.82244249,18.4273426 C2.78135385,18.720462 2.73719316,19.0207399 2.69610452,19.3598241 C2.65962404,19.6687675 2.63312757,19.9773341 2.61507927,20.2663092 C2.59971904,20.4595872 2.5905029,20.6528652 2.58205483,20.8461431 L2.58205483,20.9365656 C2.57322267,21.2119773 2.56477459,21.4798539 2.56477459,21.7567727 C2.56477459,22.0340682 2.57322267,22.3019446 2.58205483,22.5773564 L2.58205483,22.6700394 C2.59127096,22.8625639 2.59971904,23.0550883 2.61507927,23.2291516 C2.63312757,23.5362112 2.65962404,23.8451545 2.7003286,24.1985557 C2.73450509,24.4931821 2.77060169,24.7934601 2.81745034,25.0639739 C2.86353103,25.3793221 2.91882786,25.7040895 2.9879489,25.9930646 C3.11505484,26.6565394 3.27940931,27.3124789 3.48024436,27.9582459 L3.48024436,27.9733164 C3.55205336,28.200126 3.62271042,28.4261821 3.69336749,28.6269954 C3.83775366,29.0836287 4.00518027,29.5327269 4.19526306,29.9727828 C4.26745614,30.1487298 4.3442573,30.3194022 4.4222105,30.492712 L4.47904335,30.6181731 C4.57888485,30.8400849 4.67795839,31.0525776 4.77587979,31.2435951 C4.93831426,31.5875772 5.117261,31.9228937 5.30427173,32.2544427 C5.41947347,32.4620376 5.54197133,32.6730233 5.66830921,32.8821253 C5.96092166,33.3670157 6.23663775,33.7852195 6.50198577,34.1435185 C7.20202832,35.1434402 7.98924011,36.0819498 8.85478917,36.9484984 C9.02528773,37.1248221 9.1957863,37.2924805 9.34785258,37.4247233 C9.65736119,37.7201033 9.97493399,38.0105855 10.3017229,38.278462 C10.3262993,38.3029514 10.3527957,38.3266873 10.3800601,38.3485394 C10.6872647,38.6054899 10.9960054,38.8507608 11.3396905,39.1020598 C11.4099635,39.1578203 11.4833087,39.21019 11.5589578,39.2584153 C11.8719225,39.494644 12.1917993,39.7154254 12.5143641,39.9230204 C12.572349,39.9618267 12.63187,39.9976188 12.6936949,40.0300203 C12.9371545,40.1984321 13.1902143,40.3529037 13.4513382,40.4938121 C13.6736776,40.6343437 13.9067691,40.7582977 14.1932374,40.9123927 C14.503898,41.0740229 14.8145588,41.2337692 15.1071711,41.3694029 C15.3517828,41.4899661 15.5898665,41.595459 15.9166553,41.7408884 C16.3260055,41.9149517 16.7441878,42.0716839 17.1339537,42.2095781 C17.3693492,42.3026379 17.6135768,42.3772365 17.8378362,42.443923 C18.1423528,42.5437645 18.4461014,42.635694 18.7575301,42.7193347 C18.8062988,42.737796 18.8569875,42.7517361 18.9084443,42.7622854 C19.1269436,42.8214367 19.3350748,42.8734297 19.554342,42.9160036 L19.5839105,42.9235388 C19.7928096,42.9804296 20.0047808,43.026771 20.218672,43.0618098 C20.3338738,43.0964717 20.4517635,43.1217147 20.5711893,43.1371618 C20.7912247,43.1831265 21.019708,43.2208026 21.2662398,43.2524504 C21.94977,43.3639715 22.6386764,43.4397002 23.3298868,43.4803904 C23.4673609,43.4894327 23.6063709,43.493577 23.7188847,43.4969678 C24.0602658,43.5154291 24.4012629,43.5237178 24.7368839,43.5237178 C25.072121,43.5237178 25.4192622,43.5154291 25.7091866,43.4988517 C25.8566448,43.4988517 26.0060231,43.4894327 26.135817,43.4803904 C26.8385476,43.4389468 27.5382061,43.3617109 28.2324885,43.2483061 C28.4517558,43.2166582 28.6779352,43.1831265 28.8979706,43.1371618 C28.9897479,43.1277429 29.0803732,43.1092815 29.1686946,43.0817781 C29.4133063,43.0358133 29.6494699,42.9879648 29.8852493,42.9235388 L29.9148179,42.9160036 C30.1214129,42.8753135 30.3226319,42.8267114 30.5292271,42.7705741 C30.5768437,42.7615318 30.6233085,42.7479686 30.6682371,42.7302608 C30.9950261,42.64662 31.3133668,42.5486623 31.6067473,42.4507047 C31.852511,42.3772365 32.0963546,42.3026379 32.3044857,42.2197507 C32.721516,42.0716839 33.1396983,41.9149517 33.6250816,41.7073568 C33.8758374,41.595459 34.1139209,41.4899661 34.3408684,41.3776916 C34.651145,41.2337692 34.9618057,41.0740229 35.3277633,40.8848892 C35.5589347,40.7616887 35.7920262,40.6335901 35.9659808,40.5265903 C36.243233,40.3758862 36.512421,40.2112419 36.772009,40.0334111 C36.8307618,40.0025168 36.8875947,39.9682316 36.9428915,39.931309 C37.2727525,39.7188164 37.5926293,39.4980348 37.905978,39.2618061 C37.9881553,39.2105667 38.0676444,39.1544295 38.1440616,39.0945246 C38.4689304,38.8635706 38.7776711,38.6149089 39.0821877,38.3579583 C39.1086841,38.3353528 39.1351804,38.3127471 39.1589888,38.289388 C39.4857777,38.0181207 39.8041185,37.7310293 40.0871308,37.4590085 C40.0982669,37.4495895 40.1078671,37.4390402 40.1178512,37.4288677 L40.1247633,37.4228395 C40.2902698,37.2755262 40.4496322,37.1218081 40.5974744,36.9684666 C41.4618714,36.103802 42.2486993,35.167176 42.9483578,34.1695149 C43.2256099,33.7946385 43.5013261,33.376058 43.7966266,32.8862697 C43.9202765,32.6790515 44.0431583,32.4680658 44.155672,32.2680062 C44.3449868,31.9330663 44.5243175,31.5981264 44.6759998,31.2744894 C44.7842894,31.0616199 44.8833628,30.8491271 44.9832044,30.6272154 L45.0404213,30.5017542 C45.1179904,30.3284444 45.1947916,30.1577721 45.2619926,29.9938814 C45.4509234,29.5583466 45.6168139,29.1141463 45.7592801,28.662034 C45.8395373,28.4352243 45.9105783,28.2091682 45.9812354,27.9849959 L45.9862274,27.9672882 C46.1851425,27.3320704 46.3479609,26.6866802 46.4742988,26.0341315 C46.5484119,25.7184064 46.6040928,25.3936391 46.6447974,25.1008964 C46.685886,24.8077769 46.7304307,24.5071223 46.7711353,24.1684148 C46.8079999,23.8594715 46.8344963,23.5505281 46.8513925,23.2619298 C46.8675207,23.0694053 46.8759689,22.8768808 46.885569,22.6843563 C46.885569,22.680212 46.885569,22.5954409 46.885569,22.5912965 C46.8940172,22.3158848 46.9024653,22.0480083 46.9024653,21.7710895 C46.9024653,21.4941707 46.9128334,21.2195125 46.9043853,20.9441009 L46.9043853,20.9441009 Z M42.7786272,21.7643079 L44.8645466,18.0818534 C44.9064033,18.2890716 44.9497959,18.5000573 44.9805164,18.7178247 C45.025061,18.9804265 45.0557815,19.2509404 45.092262,19.5598838 C45.1249025,19.8368026 45.1494789,20.1148516 45.1663752,20.4109851 C45.1817354,20.5835413 45.1894155,20.7557207 45.1990156,20.9968472 C45.2074638,21.2564351 45.2151438,21.5073573 45.2151438,21.7676987 C45.2151438,22.02804 45.2074638,22.2793391 45.1970956,22.60486 C45.1894155,22.7770394 45.1809673,22.9495955 45.1656071,23.1406129 C45.1494789,23.4175317 45.1249025,23.6955807 45.0872699,24.0177107 C45.0557815,24.2814429 45.025061,24.55158 44.9762923,24.8371643 C44.9471079,25.0330796 44.9056352,25.241428 44.8637786,25.4497763 L42.7786272,21.7643079 Z M41.1458347,9.7452799 C41.3167172,9.97020583 41.4822237,10.1955084 41.6492663,10.4339977 C41.89503,10.7787332 42.1227454,11.138916 42.3370206,11.487796 C42.4518384,11.6829578 42.56704,11.8769893 42.6780178,12.0736582 C42.8485163,12.3743128 43.0082627,12.6745907 43.1653211,13.0053862 C43.2617065,13.1945198 43.3496438,13.3836535 43.4371971,13.5803222 L43.495182,13.7084207 C43.565455,13.8640228 43.6353441,14.0162338 43.7052332,14.1853992 C43.8834119,14.6039797 44.0301021,14.998071 44.162584,15.4151446 C44.1956086,15.5112184 44.225561,15.6091761 44.2570495,15.7056267 L41.300205,20.9275233 L33.7744598,20.9275233 L31.6416918,17.1610514 L29.9824029,14.2313639 L31.6409237,11.3020532 L33.7736919,7.53558121 L39.1847172,7.53558121 C39.2538383,7.60264458 39.3221913,7.66292622 39.3955364,7.73903173 C40.0264578,8.36633758 40.6116827,9.03659394 41.1458347,9.7452799 L41.1458347,9.7452799 Z M28.5039806,28.4604673 L20.9778514,28.4604673 L18.8450834,24.6939954 L17.1861784,21.7643079 L18.8443153,18.8349971 L20.9770834,15.0685252 L28.5032125,15.0685252 L30.6359807,18.8349971 L32.2960376,21.7643079 L30.6375167,24.6939954 L28.5039806,28.4604673 Z M32.9307992,3.35052865 C33.1600506,3.45263069 33.3785499,3.547951 33.6189375,3.66700723 C33.9084779,3.80075714 34.1957141,3.94995419 34.5259592,4.12062654 C34.7194981,4.22348206 34.915725,4.3255841 35.1522725,4.4721439 C35.3922762,4.60250289 35.6249837,4.74604851 35.8492431,4.90165046 C35.8830356,4.92500965 35.977885,4.98114689 36.0155175,4.99960822 C36.3208021,5.19627701 36.6176386,5.40123457 36.9079469,5.62201601 C36.9428915,5.64801254 37.0304448,5.71356877 37.0688454,5.73429061 C37.0799815,5.74257928 37.1414225,5.79042785 37.1544787,5.79796306 C37.1832792,5.8186849 37.2097755,5.84392785 37.2397279,5.86502643 L33.7744598,5.86502643 L32.1823719,3.04685995 C32.4239115,3.13728241 32.6696752,3.23335629 32.9307992,3.35052865 Z M20.0489414,2.21459664 C20.2401763,2.16185012 20.4302592,2.12605797 20.7101994,2.06841358 C20.7378478,2.05974817 20.7666483,2.05334317 20.7954486,2.04919888 C20.8300092,2.04580806 20.8645698,2.04053337 20.8987463,2.03299817 C21.0930531,1.99042429 21.2946562,1.96216725 21.5553961,1.92449122 C22.1828616,1.82238918 22.8153191,1.75268856 23.4500806,1.71576601 C23.5510741,1.70936111 23.6582117,1.70182591 23.8375424,1.69843509 C24.0168732,1.69504427 24.1915958,1.68487172 24.4346714,1.68261111 C24.5352809,1.67658295 24.6447225,1.67658295 24.741108,1.67658295 C24.8374935,1.67658295 24.9473192,1.67658295 25.1078335,1.68487172 C25.2852443,1.68487172 25.4618868,1.68487172 25.7134106,1.70182591 C25.8217003,1.70182591 25.9292219,1.70936111 26.0344394,1.71689632 C26.6899373,1.75532591 27.3431311,1.82804061 27.9913329,1.93428704 C28.1856398,1.96216725 28.3872428,1.99042429 28.5815498,2.03299817 C28.6157263,2.04053337 28.6502868,2.04580806 28.6848473,2.04919888 C28.7424482,2.05861786 28.799281,2.07180449 28.8553459,2.08838194 C29.0542609,2.12605797 29.2443437,2.16185012 29.4355787,2.21459664 L29.462843,2.22137828 C29.4947155,2.23192757 29.526972,2.24021624 29.5599964,2.24662124 C29.6452458,2.26319869 29.7308791,2.28768808 29.8161283,2.30765635 L32.2960376,6.69842004 L31.6067473,7.91648582 L28.5039806,13.3945795 L20.9778514,13.3945795 L17.8754688,7.91535552 L17.1861784,6.69842004 L19.6683918,2.30840992 C19.753641,2.28844155 19.8392743,2.26395216 19.9245236,2.24737471 C19.9575481,2.24134655 19.9898046,2.23268113 20.0216771,2.22213175 L20.0489414,2.21459664 Z M12.4563794,5.68907938 C12.4947798,5.66835754 12.5316444,5.64499846 12.5665889,5.61862519 C12.8565133,5.39784375 13.1533498,5.19288619 13.5177712,4.96080189 C13.5550198,4.9427174 13.5911163,4.92161883 13.6252928,4.89825965 C13.8652965,4.73248515 14.1145162,4.57952054 14.3718001,4.44049595 C14.5584269,4.32219329 14.7546539,4.22009124 14.9892813,4.09538368 C15.2784378,3.94656337 15.5660581,3.79736632 15.8713427,3.65532774 C16.095602,3.54456019 16.3141013,3.44923987 16.5974976,3.32038783 C16.8198369,3.22582099 17.0579205,3.1414267 17.291012,3.05326485 L15.7077562,5.86163561 L12.236344,5.86163561 C12.2747445,5.83300174 12.3089211,5.80549826 12.3488577,5.77799479 L12.4563794,5.68907938 Z M5.32961616,15.3899016 C5.45249801,14.9999548 5.59918817,14.6066171 5.78274298,14.1752267 C5.84763993,14.0181177 5.91752893,13.8659065 5.98741803,13.7099278 L6.04540293,13.5818293 C6.13065216,13.3851605 6.22127752,13.1960268 6.32879914,12.9842876 C6.47472133,12.6764745 6.63485181,12.3758198 6.80727038,12.0710208 C6.914792,11.8769893 7.02999373,11.6829578 7.13828331,11.498722 C7.35908666,11.138916 7.58718613,10.7787332 7.83678984,10.4290997 C7.99999227,10.1955084 8.16357878,9.97020583 8.33868541,9.7400053 C8.87168542,9.03471017 9.45460614,8.36671431 10.0832236,7.74129234 C10.1504246,7.67535928 10.2272258,7.60339805 10.2971149,7.53558121 L15.7077562,7.53558121 L17.8401402,11.3020532 L19.4994292,14.2313639 L17.8412922,17.1610514 L15.7085242,20.9275233 L8.18162697,20.9275233 L5.21979046,15.6969612 C5.25127899,15.6016408 5.28545548,15.5021761 5.32961616,15.3899016 Z M4.61728543,25.4471391 C4.57542882,25.2395442 4.5320361,25.0285584 4.50131564,24.8111678 C4.45715505,24.5481891 4.42643458,24.2780521 4.38957003,23.9691087 C4.35731354,23.6921899 4.33235309,23.4141408 4.31545694,23.1180073 C4.30086467,22.9503491 4.29241649,22.7740253 4.28281637,22.5321452 C4.2743683,22.2759482 4.26668818,22.0246491 4.26668818,21.7643079 C4.26668818,21.5039665 4.2743683,21.2530442 4.28473648,20.9275233 C4.29241649,20.7542137 4.30009671,20.5816575 4.3162249,20.3902633 C4.33235309,20.1129678 4.35731354,19.8352955 4.39456208,19.5127888 C4.42643458,19.2494334 4.45715505,18.9789196 4.50553972,18.6933353 C4.53472416,18.4977967 4.57658087,18.2890716 4.61805339,18.0807232 L6.70320479,21.7643079 L4.61728543,25.4471391 Z M7.90168679,33.1827799 C7.65592309,32.8478401 7.40785541,32.4737172 7.14519546,32.0378057 C7.02999373,31.8445276 6.914792,31.6501194 6.80381436,31.4519435 C6.63331569,31.1512888 6.47356929,30.8510109 6.31689494,30.5202155 C6.22050956,30.3310818 6.13257216,30.1419482 6.04463487,29.9452793 L5.98665007,29.8171808 C5.91676097,29.6615789 5.84687187,29.508991 5.77659888,29.3402024 C5.59842021,28.9216218 5.45172995,28.5275307 5.31963196,28.1104571 C5.28622354,28.0143832 5.25627104,27.9164255 5.22478261,27.8199749 L8.18162697,22.601469 L15.7077562,22.601469 L17.8401402,26.367941 L19.4994292,29.2972517 L17.8412922,32.2269392 L15.7085242,35.9934113 L10.2963468,35.9934113 C10.2279938,35.9263479 10.1600247,35.8660663 10.0882157,35.792598 C9.28410758,34.9867079 8.55219262,34.1141312 7.90168679,33.184287 L7.90168679,33.1827799 Z M16.5514169,40.1826081 C16.3225494,40.0805062 16.1044341,39.9840556 15.8609745,39.8646225 C15.5718182,39.7312494 15.2845819,39.5824291 14.9551048,39.4117568 C14.7615659,39.3085244 14.565339,39.2064225 14.3291755,39.0602394 C14.0891718,38.9295037 13.8568483,38.7863348 13.632973,38.6307328 C13.5968765,38.6066202 13.5047151,38.5519899 13.4620904,38.5327751 C13.1568059,38.3361063 12.8599693,38.1311487 12.5700451,37.9099905 C12.5366365,37.8851243 12.4437071,37.8173075 12.4068425,37.7962089 C12.3957064,37.7886737 12.3361855,37.7419554 12.3215933,37.7344202 C12.2927928,37.7133217 12.2662965,37.6884554 12.236344,37.6673569 L15.7043001,37.6673569 L17.296004,40.482886 C17.0632966,40.3917101 16.8121568,40.2956362 16.5514169,40.1826081 L16.5514169,40.1826081 Z M29.4328906,41.3140191 C29.2420397,41.3667655 29.0515729,41.4029345 28.7720167,41.4605788 C28.7439842,41.4692443 28.7155678,41.4756492 28.6863834,41.4797936 C28.6518228,41.4831844 28.6172623,41.4884591 28.5834698,41.4956175 C28.3887789,41.5385682 28.1875598,41.5668252 27.9264359,41.6045013 C27.2989704,41.7066032 26.666513,41.7759271 26.0317515,41.8128496 C25.9311419,41.8196314 25.8236203,41.8271665 25.66925,41.82792 C25.0367925,41.8618285 24.4027989,41.8618285 23.7703414,41.82792 C23.6616677,41.82792 23.5541461,41.8203848 23.4493126,41.8128496 C22.7934307,41.7744201 22.1402369,41.7017053 21.4924191,41.595459 C21.2977283,41.5675787 21.0965092,41.5393218 20.9022023,41.4967478 C20.8680258,41.4892126 20.8334652,41.483938 20.7989048,41.4805471 C20.7413039,41.4711281 20.684087,41.4579416 20.6280222,41.441364 C20.4294912,41.4036881 20.2390243,41.3678958 20.0481735,41.3151494 L20.020909,41.3083677 C19.9890366,41.2978184 19.9563961,41.2895297 19.9233716,41.2831248 C19.8381223,41.2665473 19.752873,41.2420579 19.6676237,41.2220896 L17.1861784,36.8301957 L17.8754688,35.6125067 L20.9778514,30.134413 L28.5039806,30.134413 L31.6067473,35.6132601 L32.2960376,36.8301957 L29.8134403,41.2205826 C29.728191,41.2405508 29.6429417,41.2646635 29.5576924,41.2816177 C29.524668,41.2876458 29.4920274,41.2959346 29.460155,41.3064839 L29.4328906,41.3140191 Z M37.0196927,37.8414201 C36.98206,37.8617651 36.9467316,37.8843708 36.9129391,37.9099905 C36.6230147,38.1311487 36.3257942,38.3361063 35.9667489,38.5647998 C35.9275802,38.5840145 35.8895636,38.6062433 35.8534671,38.6307328 C35.6134636,38.7965073 35.3646278,38.9494719 35.1077279,39.0884964 C34.9211011,39.2064225 34.7248741,39.3085244 34.4902466,39.4324786 C34.2018582,39.5824291 33.9142379,39.7312494 33.6070333,39.8736647 C33.382006,39.9840556 33.1635066,40.0805062 32.8820304,40.2086046 C32.6593071,40.3031714 32.4212235,40.3875657 32.188516,40.4753509 L33.7744598,37.6673569 L37.245488,37.6673569 C37.2070875,37.6959906 37.172911,37.7234942 37.1329744,37.7509977 L37.0196927,37.8414201 Z M44.1529839,28.1390909 C44.0301021,28.5290376 43.8834119,28.9223754 43.7002411,29.3533891 C43.6353441,29.5108748 43.565455,29.6630859 43.495182,29.8186879 L43.4371971,29.9467864 C43.3519479,30.1434552 43.2617065,30.3325888 43.1541849,30.5447049 C43.0082627,30.8525179 42.8477483,31.1531726 42.6753297,31.4575949 C42.5681921,31.6520032 42.4529903,31.8460347 42.3412447,32.0351683 C42.0751286,32.475601 41.8293649,32.8512309 41.5732332,33.2012412 C40.9223434,34.1288248 40.1908124,34.9995177 39.3867042,35.8035241 C39.3252633,35.8668198 39.2622864,35.9297387 39.1973894,35.9934113 L33.7744598,35.9934113 L31.6416918,32.2269392 L29.9824029,29.2972517 L31.6409237,26.367941 L33.7736919,22.601469 L41.299437,22.601469 L44.2547454,27.8211052 C44.222105,27.9262213 44.1913845,28.024179 44.1522159,28.1390909 L44.1529839,28.1390909 Z" id="Shape" fill="#183165"></path>
                    </g>
                </g>
            </g>
        </g>
    </g>
</svg>