<?xml version="1.0" encoding="UTF-8"?>
<svg width="42px" height="43px" viewBox="0 0 42 43" version="1.1" xmlns="http://www.w3.org/2000/svg" xmlns:xlink="http://www.w3.org/1999/xlink">
    <!-- Generator: Sketch 56.3 (81716) - https://sketch.com -->
    <title>Startup</title>
    <desc>Created with Sketch.</desc>
    <g id="Page-1" stroke="none" stroke-width="1" fill="none" fill-rule="evenodd">
        <g id="Hey-Digital_Home" transform="translate(-404.000000, -756.000000)" fill-rule="nonzero">
            <g id="Group-14" transform="translate(0.000000, 667.000000)">
                <g id="Group-51" transform="translate(394.000000, 89.000000)">
                    <g id="Startup" transform="translate(10.000000, 0.000000)">
                        <path d="M41,1.95117188 C41,1.95117188 40.8352117,6.54731259 38.9252049,11.9511719 L31,4.02596696 C36.4038593,2.11596013 41,1.95117188 41,1.95117188 Z" id="Path" fill="#FF5249"></path>
                        <path d="M31.481674,3.95117188 L39,11.4694979 C37.8222747,14.8050362 35.9422882,18.4645705 32.9501856,21.4566731 C30.1928991,24.2139596 26.8758286,26.421101 23.4076949,27.9511719 L15,19.543477 C16.0238272,17.222856 17.4526493,14.7467169 19.3407357,12.4017962 C20.0016875,11.5812765 20.7185285,10.7769566 21.4944988,10.0009863 C24.4866014,7.00888365 28.1461357,5.12889715 31.481674,3.95117188 Z" id="Path" fill="#FFFFFF"></path>
                        <path d="M31.9749375,10.9762344 C33.3416875,12.3429844 33.3416875,14.5593594 31.9749375,15.9261094 C30.6081875,17.2928594 28.3926875,17.2928594 27.0250625,15.9261094 C25.6583125,14.5584844 25.6583125,12.3429844 27.0250625,10.9762344 C28.3918125,9.60948437 30.6081875,9.60948437 31.9749375,10.9762344 Z" id="Path" fill="#7BD8E8"></path>
                        <g id="Group" transform="translate(9.000000, 10.951172)" fill="#FF5249">
                            <path d="M21.7468632,12.6905739 C25.9062316,18.9515951 18.1201263,22.9984613 13.7581965,22.9984613 C16.0404421,20.7081796 15.3738456,17.7481444 15.3738456,17.7481444 L14.5224421,16.893743 C16.8345474,15.870081 19.3016,14.4414894 21.6379158,12.5537077 L21.7468632,12.6905739 Z" id="Path"></path>
                            <path d="M5.20784561,14.4188134 L5.07710877,14.2876162 C4.69135439,13.8996937 4.50170526,13.3376514 4.63728421,12.8063838 C4.97381053,11.4911725 5.47093333,10.0237077 6.1456,8.48740493 L14.5224421,16.893743 C12.9915298,17.5707852 11.529214,18.0696585 10.2186175,18.4073697 C9.68921404,18.5434261 9.12914386,18.3531092 8.74258246,17.9659965 L8.61184561,17.8347993 L5.20784561,14.4188134 Z" id="Path"></path>
                            <path d="M10.3340211,1.23754577 L10.470407,1.34687676 C8.58924912,3.69141901 7.16567018,6.16715845 6.1456,8.48740493 L5.29419649,7.63300352 C5.29419649,7.63300352 2.34454737,6.96405986 0.0623017544,9.25434155 C0.0623017544,4.87705282 4.09496842,-2.93646831 10.3340211,1.23754577 Z" id="Path"></path>
                        </g>
                        <path d="M14.4166509,24.9511719 L18,28.5345209 C17.7425901,29.5531164 17.1317727,30.6252327 16.2083255,31.5486799 C14.2178592,33.5391462 9,33.9511719 9,33.9511719 C9,33.9511719 9.41202567,28.7333127 11.402492,26.7428464 C12.3259392,25.8193992 13.3980555,25.2085817 14.4166509,24.9511719 Z" id="Path" fill="#FFDD78"></path>
                        <path d="M21.7075,22.6586353 C22.0975,22.2675864 22.0975,21.6345073 21.7075,21.2444585 C21.3165,20.8534097 20.6835,20.8534097 20.2925,21.2444585 C19.9025,21.6345073 19.9025,22.2675864 20.2925,22.6586353 C20.6835,23.0486841 21.3165,23.0486841 21.7075,22.6586353 Z" id="Path" fill="#000000"></path>
                        <path d="M32.8274212,15.7815691 C34.3906996,14.2182849 34.3910196,11.6872494 32.8274212,10.1237251 C31.2639828,8.56036081 28.7330368,8.5602808 27.1695184,10.1237251 C25.6101606,11.6830887 25.6100805,14.2210853 27.1697584,15.7817291 C28.7296763,17.3406927 31.2676633,17.3413328 32.8274212,15.7815691 Z M28.3011309,11.2552619 C29.239114,10.3172753 30.7577456,10.3171153 31.6958886,11.2552619 C32.6338717,12.1931684 32.6340317,13.7118857 31.6958886,14.6499523 C30.7603059,15.5856185 29.2373537,15.5856185 28.3012909,14.6501123 C27.3655482,13.713806 27.3654682,12.1908481 28.3011309,11.2552619 Z" id="Shape" fill="#000000"></path>
                        <path d="M8.5047929,21.0177311 C8.60589861,21.0596609 8.71215359,21.0800128 8.81742776,21.0800128 C9.03018293,21.0800128 9.2391783,20.9968888 9.3955366,20.8406125 C11.0370126,19.1991388 13.0616604,19.3017973 13.7230568,19.3887628 L14.0092914,19.674997 C13.4459765,21.0154425 12.992186,22.3483685 12.6593627,23.6447591 C12.5392129,24.113915 12.5797532,24.6103703 12.7583433,25.0644871 C11.9714026,25.427143 11.2121699,25.9596431 10.5511004,26.6207116 C8.44717001,28.7247207 8.01994324,33.8522518 8.00277898,34.069502 C7.98398002,34.3079215 8.07045523,34.5426629 8.23956412,34.7117716 C8.39347037,34.8655959 8.60164841,34.9511719 8.81742776,34.9511719 C8.83884222,34.9511719 8.86033842,34.9503545 8.88183462,34.9486381 C9.0990852,34.9315556 14.2267872,34.5043295 16.3307176,32.4004021 C16.9915418,31.7395788 17.523961,30.980429 17.8866175,30.1936528 C18.3673804,30.3827047 18.8622017,30.405999 19.3071649,30.2919794 C20.6029852,29.9592383 21.9357497,29.5056119 23.2763606,28.9422162 L23.5625952,29.2284503 C23.6494791,29.8899275 23.7521377,31.9145724 22.1107435,33.5558825 C21.8770642,33.7896431 21.8070994,34.1411831 21.9336246,34.4465432 C22.060068,34.7519849 22.3580724,34.9511719 22.6886888,34.9511719 C25.9237444,34.9511719 30.4465286,33.0245266 32.1122798,29.9119958 C32.8357127,28.5603526 33.3282455,26.4220151 31.7574699,23.753466 C32.4233617,23.1906423 33.0647331,22.602154 33.6697326,21.9971554 C36.3686092,19.2982828 38.4873335,15.8047058 39.9672203,11.6136884 C41.816057,6.38284496 41.9928489,1.98258733 41.9994694,1.79786739 C42.0076429,1.5710542 41.9210859,1.35110671 41.7606409,1.19058019 C41.6001141,1.0301354 41.3810654,0.943169906 41.1533528,0.951752027 C40.9685509,0.95837252 36.5683686,1.13524594 31.3377627,2.98399821 C27.1464123,4.46388276 23.6528302,6.58268577 20.9540354,9.2815584 C20.349281,9.88631184 19.7607919,10.5276006 19.1977222,11.1938184 C16.5292509,9.62304507 14.3909103,10.1155771 13.0391017,10.839009 C9.92656631,12.5047577 8,17.0276171 8,20.2626679 C8,20.5932022 8.19943243,20.8912878 8.5047929,21.0177311 Z M15.1748268,31.2444313 C14.0509761,32.3682805 11.4146265,32.9610189 9.74830314,33.2030348 C9.99040103,31.5366321 10.5832221,28.9003681 11.7069911,27.7766007 C12.3363476,27.1472452 13.0660741,26.6700793 13.7995604,26.4013363 L16.5500933,29.1518651 C16.2813499,29.8853504 15.804265,30.6150758 15.1748268,31.2444313 Z M18.9011074,28.7084555 C18.6645674,28.7690208 18.390593,28.6800937 18.1869104,28.4767383 C14.2194311,24.5093465 19.3123959,29.6023038 14.4751787,24.7650119 C14.2713326,24.5607575 14.1824053,24.2868652 14.2428072,24.0507343 C14.5046031,23.0311783 14.8469894,21.9851404 15.2633454,20.9290492 L22.0223883,27.6880822 C20.9661321,28.1045194 19.9202561,28.4468234 18.9011074,28.7084555 Z M30.671217,29.1406675 C29.6003303,31.1414459 26.9040692,32.6162629 24.4469636,33.1239158 C25.2303897,31.6496709 25.403095,29.7729654 25.1168604,28.6349762 C25.0504102,28.3706469 24.8779501,28.2377466 24.8683055,28.2221354 C26.8489801,27.2628177 28.7247075,26.1119145 30.4659814,24.7880611 C31.3165934,26.3421605 31.38664,27.8038183 30.671217,29.1406675 Z M38.8378933,9.8264822 L33.1249715,4.11356877 C36.2375069,3.1468133 38.9452925,2.78481128 40.2968559,2.65468998 C40.1666527,4.0064966 39.8045684,6.71427828 38.8378933,9.8264822 Z M22.110253,10.4374475 C24.5316406,8.01598166 27.6566814,6.08884602 31.401107,4.70164837 L38.2498128,11.5503442 C36.8627766,15.2946826 34.9356381,18.4197188 32.5140054,20.8412663 C31.7774949,21.577694 30.984424,22.2891927 30.1567794,22.9559009 C28.1671957,24.5578967 25.9773623,25.9148526 23.6410604,26.9950556 L15.9563731,19.3105429 C17.0365776,16.974081 18.3935355,14.7842507 19.9953702,12.7949152 C20.6626515,11.9666996 21.3740695,11.1735482 22.110253,10.4374475 Z M13.8107581,12.2802331 C15.1478544,11.5647294 16.6093509,11.6348576 18.1632891,12.4854684 C16.8394338,14.2265764 15.6885288,16.1023827 14.7292098,18.0832179 C14.7170313,18.0756984 14.5699091,17.8907332 14.2965885,17.8291054 C14.1842035,17.803686 12.0215876,17.3385351 9.82742224,18.5046409 C10.3351576,16.0474572 11.809895,13.3511183 13.8107581,12.2802331 Z" id="Shape" fill="#000000"></path>
                        <path d="M17.4144543,38.7084897 L19.7574656,36.3651232 C20.0809138,36.0415746 20.080831,35.5170713 19.7572999,35.1936884 C19.4336031,34.8702226 18.9089939,34.8703883 18.5855457,35.193854 L16.2425344,37.5372206 C15.9190862,37.8607692 15.919169,38.3852725 16.2427001,38.7086554 C16.5663969,39.0320383 17.0910061,39.0320383 17.4144543,38.7084897 Z" id="Path" fill="#000000"></path>
                        <path d="M5.41390986,26.7086051 L7.75727641,24.3655817 C8.08082501,24.0421318 8.08090784,23.5175199 7.75752491,23.1939043 C7.43414199,22.8702887 6.90972157,22.8702887 6.58609014,23.1937386 L4.24272359,25.536762 C3.91917499,25.8602119 3.91909216,26.3848238 4.24247509,26.7084394 C4.56577518,27.0318893 5.0901956,27.0322207 5.41390986,26.7086051 Z" id="Path" fill="#000000"></path>
                        <path d="M12.6380894,36.1847891 L7.23372825,41.5890146 C6.92210388,41.9005974 6.92210388,42.4058322 7.23364847,42.717415 C7.54503349,43.0289977 8.05028621,43.0291573 8.36191058,42.7174948 L13.7662718,37.3132693 C14.0778961,37.0016865 14.0778961,36.4964517 13.7663515,36.1848689 C13.4549665,35.8732862 12.9497138,35.8732862 12.6380894,36.1847891 Z" id="Path" fill="#000000"></path>
                        <path d="M5.63808942,36.1847891 L0.23372825,41.5890146 C-0.0778961185,41.9005974 -0.0778961185,42.4058322 0.233648469,42.717415 C0.545033495,43.0289977 1.05028621,43.0291573 1.36191058,42.7174948 L6.76627175,37.3132693 C7.07789612,37.0016865 7.07789612,36.4964517 6.76635153,36.1848689 C6.45488672,35.8732862 5.949634,35.8732862 5.63808942,36.1847891 Z" id="Path" fill="#000000"></path>
                        <path d="M1.36214561,35.7174443 L6.7663249,30.3130985 C7.077905,30.001475 7.077905,29.4963833 6.76624511,29.1847598 C6.4547448,28.8732959 5.94943449,28.8732959 5.63785439,29.1848396 L0.233675102,34.5891854 C-0.0779049976,34.9008089 -0.0779049976,35.4059006 0.233754892,35.7175241 C0.545334991,36.0290678 1.05056551,36.0290678 1.36214561,35.7174443 Z" id="Path" fill="#000000"></path>
                        <path d="M24.5001318,19.6938162 L25.7426444,18.4513037 C26.0857852,18.1081628 26.0857852,17.5517562 25.7426444,17.2085275 C25.3994157,16.8653867 24.8431848,16.8653867 24.4998682,17.2085275 L23.2573556,18.4510401 C22.9142148,18.7941809 22.9142148,19.3505875 23.2573556,19.6938162 C23.6005843,20.0369571 24.1569031,20.0369571 24.5001318,19.6938162 Z" id="Path" fill="#000000"></path>
                    </g>
                </g>
            </g>
        </g>
    </g>
</svg>