<svg xmlns="http://www.w3.org/2000/svg" width="16" height="16" viewBox="0 0 16 16">
    <g fill="#F35229">
        <path d="M11.829 5.214c-.237-.275-.631-.287-.881-.025l-3.98 4.16L5.07 7.2c-.24-.272-.635-.278-.882-.013-.246.265-.251.7-.011.972l2.327 2.633c.122.138.284.208.447.208.154 0 .308-.063.429-.188l4.426-4.626c.25-.262.26-.696.023-.972z"/>
        <path d="M8 0C3.589 0 0 3.589 0 8s3.589 8 8 8 8-3.589 8-8-3.589-8-8-8zm0 14.703c-3.696 0-6.703-3.007-6.703-6.703S4.304 1.297 8 1.297 14.703 4.304 14.703 8 11.696 14.703 8 14.703z"/>
    </g>
</svg>
