<?xml version="1.0" encoding="UTF-8"?>
<svg width="40px" height="41px" viewBox="0 0 40 41" version="1.1" xmlns="http://www.w3.org/2000/svg" xmlns:xlink="http://www.w3.org/1999/xlink">
    <!-- Generator: Sketch 56.3 (81716) - https://sketch.com -->
    <title>target (1)</title>
    <desc>Created with Sketch.</desc>
    <g id="Page-1" stroke="none" stroke-width="1" fill="none" fill-rule="evenodd">
        <g id="Hey-Digital_Version_02" transform="translate(-141.000000, -4756.000000)" fill-rule="nonzero">
            <g id="Group-7" transform="translate(0.000000, 4546.000000)">
                <g id="Group-30" transform="translate(141.000000, 210.000000)">
                    <g id="target-(1)">
                        <path d="M18.0648683,40.1685985 C28.037471,40.1685985 36.1218124,32.0842571 36.1218124,22.1116965 C36.1218124,19.0432455 35.3588198,16.1559958 34.0100316,13.6270179 C33.8625079,13.6480927 33.7107692,13.6565227 33.5632455,13.6565227 C33.4789463,13.6565227 33.390432,13.6523077 33.30196,13.6480927 L31.0048051,13.4710643 L29.3524974,15.1233298 C30.6127713,17.154942 31.3420021,19.5490411 31.3420021,22.1116965 C31.3420021,29.4415174 25.3989041,35.3846154 18.0690411,35.3846154 C10.7392624,35.3846154 4.79190727,29.4415174 4.79190727,22.1116965 C4.79190727,14.7819178 10.7350053,8.83881981 18.0648261,8.83881981 C20.6317808,8.83881981 23.0258377,9.56800843 25.0531928,10.8282824 L26.5495047,9.3319705 L26.3472287,6.69761855 C26.3303688,6.48687039 26.3345416,6.27612223 26.3556164,6.06958904 C23.8730032,4.78402529 21.053235,4.05483667 18.0606112,4.05483667 C8.09222339,4.05483667 0.00792413066,12.1391359 0.00792413066,22.1116965 C0.00792413066,32.0842571 8.09226554,40.1685985 18.0648683,40.1685985 Z" id="Path" fill="#102553"></path>
                        <path d="M18.0648683,17.4457323 C18.1828872,17.4457323 18.3009062,17.4499895 18.4189252,17.4583772 L21.752961,14.1243414 L21.8245732,14.052687 C20.6823182,13.5173867 19.4094415,13.2181243 18.0648261,13.2181243 C13.1543941,13.2181243 9.17546891,17.1970495 9.17546891,22.1074816 C9.17546891,27.0179136 13.1543941,31.0010537 18.0648261,31.0010537 C22.9752582,31.0010537 26.9542255,27.0221286 26.9542255,22.1116965 C26.9542255,20.7671233 26.6548788,19.4942466 26.1196207,18.3519494 L26.0480084,18.4236038 L22.7138883,21.7575975 C22.7223604,21.8756586 22.7265753,21.9937197 22.7265753,22.1116544 C22.7265753,24.6869968 20.6401686,26.7776607 18.0606112,26.7776607 C15.4810537,26.7776607 13.3988198,24.6869547 13.3988198,22.1116544 C13.3989041,19.5363541 15.4895258,17.4457323 18.0648683,17.4457323 Z" id="Path" fill="#102553"></path>
                        <path d="M36.6739305,6.01053741 L37.7445311,4.93993678 C38.2334668,4.45100105 38.2334668,3.66280295 37.7445311,3.17386723 L37.0026133,2.42781876 C36.7581876,2.1833509 36.4378925,2.06111697 36.1217703,2.06111697 C35.8056481,2.06111697 35.4810537,2.1833509 35.240843,2.42781876 L34.0142887,3.65437302 L33.7613909,0.387776607 C33.7445311,0.147523709 33.5463435,0 33.3398946,0 C33.2345205,0 33.1291465,0.0379346681 33.0448472,0.12223393 L28.2187144,4.9483667 C27.7845311,5.3825079 27.5610959,5.98524763 27.6075448,6.60063224 L27.6201475,6.79030558 L27.8519705,9.81243414 L26.1069758,11.5574289 L22.9668282,14.6975764 L22.895216,14.7692308 L19.8562276,17.8082613 L18.5074394,19.1570495 C18.330411,19.3340358 18.2208219,19.5701159 18.2039621,19.8187566 L18.1196628,20.8767545 C18.0690832,21.4921391 18.558019,22.0147945 19.1691886,22.0147945 C19.1860063,22.0147945 19.2029083,22.0147945 19.2239831,22.0147945 L20.3409484,21.9599579 C20.6022339,21.9472708 20.8509589,21.8377239 21.0322023,21.6522234 L22.3683456,20.3161222 L25.407334,17.2771338 L25.4790306,17.2054795 L28.6191781,14.0653319 L30.5159115,12.1685985 L33.2724131,12.3793467 L33.394647,12.3877766 C33.4494837,12.3919916 33.504236,12.3919916 33.5548577,12.3919916 C34.1111907,12.3919916 34.6465332,12.1728135 35.0469547,11.776607 L39.8688303,6.95468915 C40.1217281,6.70179136 39.9616017,6.26343519 39.6033298,6.23814542 L36.6739305,6.01053741 Z" id="Path" fill="#FF6C36"></path>
                    </g>
                </g>
            </g>
        </g>
    </g>
</svg>