<?xml version="1.0" encoding="UTF-8"?>
<svg width="378px" height="527px" viewBox="0 0 378 527" version="1.1" xmlns="http://www.w3.org/2000/svg" xmlns:xlink="http://www.w3.org/1999/xlink">
    <!-- Generator: Sketch 56.3 (81716) - https://sketch.com -->
    <title>Group 61</title>
    <desc>Created with Sketch.</desc>
    <g id="Page-1" stroke="none" stroke-width="1" fill="none" fill-rule="evenodd">
        <g id="Hey-Digital_Landing-Page-Design" transform="translate(-744.000000, -2080.000000)">
            <g id="Group-62" transform="translate(322.000000, 2080.000000)">
                <g id="Group-61" transform="translate(422.000000, 0.000000)">
                    <path d="M279.907715,500.447583 C279.103038,501.15209 278.267111,501.865322 277.417513,502.449867 C276.968301,502.772676 276.858927,503.437923 277.200719,503.941766 C277.534699,504.465239 278.200706,504.585202 278.661637,504.196959 C279.466314,503.553523 280.241695,502.903544 280.993638,502.247022 C281.538552,503.123839 282.11081,504.005019 282.712365,504.88838 C283.050251,505.418396 283.722117,505.457657 284.175236,505.097769 C284.632261,504.726975 284.702573,504.055185 284.360781,503.597146 C283.704539,502.746502 283.083454,501.854417 282.50143,500.890354 C283.263139,500.205476 284.00141,499.442078 284.710385,498.630695 C285.08538,498.209735 285.093193,497.535763 284.7514,497.121347 C284.593199,496.927226 284.386171,496.829075 284.17133,496.815988 C283.925239,496.813807 283.67329,496.89669 283.476027,497.092992 C282.815879,497.760421 282.130341,498.427849 281.41746,499.090915 C280.907701,498.21846 280.427239,497.354729 279.97412,496.49318 C279.837403,496.231443 279.61475,496.085307 279.374519,496.030778 C279.16749,495.969706 278.942884,495.998061 278.741715,496.128929 C278.308127,496.410296 278.136254,497.060275 278.384297,497.583749 C278.847182,498.606702 279.3628,499.516237 279.907715,500.447583" id="Fill-9" fill="#00C02C"></path>
                    <path d="M246.62258,474.828136 C245.177535,475.109705 243.695143,475.365678 242.178277,475.593208 C241.376751,475.712662 240.851019,476.423696 241.037754,477.205834 C241.218744,477.985128 242.037507,478.53689 242.839033,478.411748 C244.252477,478.195594 245.631446,477.953842 246.981687,477.692181 C247.188532,479.08012 247.501673,480.391267 247.806196,481.776362 C247.987186,482.555655 248.811694,483.107418 249.610347,482.982276 C250.414746,482.862822 250.89164,482.120503 250.713523,481.344053 C250.368781,479.87079 250.061385,478.417436 249.797083,476.992524 C251.245001,476.600033 252.658444,476.176257 254.025922,475.735415 C254.749881,475.502196 255.149208,474.71437 254.948108,473.989115 C254.853304,473.650663 254.646459,473.386158 254.376411,473.224042 C254.069015,473.039174 253.68118,472.985135 253.290472,473.110277 C252.014925,473.5113 250.667557,473.940765 249.354664,474.25362 C249.202402,472.879902 249.081743,471.528937 248.995557,470.203569 C248.969701,469.799702 248.780093,469.464094 248.487062,469.250783 C248.237124,469.06307 247.909619,468.969214 247.556258,469.009032 C246.800697,469.091512 246.200271,469.748507 246.246237,470.493671 C246.335295,471.910051 246.458828,473.354873 246.62258,474.828136" id="Fill-10" fill="#00C02C"></path>
                    <path d="M64.9277751,484.822015 C63.3222045,484.38255 61.693556,483.889816 60.0418294,483.350473 C59.1714585,483.067484 58.2714159,483.556888 58.0505263,484.482428 C57.8263398,485.404639 58.3703216,486.41674 59.2439894,486.69307 C60.7407636,487.212438 62.4089745,487.588647 63.9815764,487.954868 C63.546391,489.502983 63.1276898,491.09105 62.7386604,492.719068 C62.514474,493.641279 63.0650495,494.65338 63.9354204,494.93304 C64.8453536,495.199382 65.7289119,494.643392 65.8970518,493.757804 C66.3091592,492.009931 66.7509384,490.30534 67.2223893,488.647358 C68.8906001,488.976957 70.5291393,489.256616 72.1347098,489.499654 C73.0380493,489.589545 73.8292956,488.966969 73.9677637,488.111344 C74.0468883,487.705172 73.9776543,487.315646 73.7897333,487.002694 C73.5754374,486.643131 73.209486,486.386777 72.7578163,486.320191 C71.2511515,486.087141 69.7181119,485.820799 68.1619942,485.514505 C68.6433357,484.016329 69.081818,482.598055 69.7312993,481.113196 C69.9159234,480.673731 69.8961423,480.21762 69.7181119,479.838082 C69.5631595,479.508483 69.2829264,479.242141 68.9103813,479.102311 C68.0993539,478.799346 67.1531552,479.188872 66.8102818,480.011204 C66.1608005,481.565978 65.5278035,483.170692 64.9277751,484.822015" id="Fill-11" fill="#00C02C" transform="translate(66.000000, 487.000000) scale(-1, 1) translate(-66.000000, -487.000000) "></path>
                    <path d="M94.8217056,454.613765 C93.6575483,453.59545 92.4963087,452.527912 91.3321514,451.411149 C90.7194371,450.823542 89.8207894,450.863536 89.3218648,451.546515 C88.8200226,452.220264 88.9163063,453.278573 89.5319383,453.86618 C90.6202357,454.896801 91.7056154,455.893581 92.7880775,456.841136 C91.8223229,457.954822 90.7719555,459.114655 89.9374969,460.296023 C89.4385723,460.969772 89.5436091,462.028081 90.1621588,462.609536 C90.7836262,463.203297 91.6793562,463.101773 92.1753631,462.428024 C93.1177761,461.151285 94.0601892,459.917616 95.0171906,458.739324 C96.2717962,459.683804 97.5293195,460.579059 98.775172,461.425091 C99.4345693,461.871181 100.315711,461.674286 100.759199,461.01592 C100.96052,460.711348 101.03638,460.360629 100.983861,460.025293 C100.928425,459.64381 100.715434,459.286938 100.362394,459.046972 C99.1515537,458.256317 98.1449515,457.397979 97.0479011,456.508877 C98.0369971,455.45672 99.0260931,454.447635 100.018107,453.48162 C100.315711,453.186278 100.45576,452.798642 100.438254,452.414082 C100.423665,452.075669 100.283616,451.737256 100.023942,451.469603 C99.4637462,450.891224 98.5592631,450.832771 97.9961495,451.374232 C96.9399466,452.404852 95.8779084,453.484697 94.8217056,454.613765" id="Fill-12" fill="#00C02C"></path>
                    <path d="M4.40173154,7.86317527 C4.06564415,7.10416719 3.7380438,6.31723024 3.42402275,5.50729305 C3.25767646,5.08014565 2.7739143,4.87807207 2.33428483,5.0768599 C1.89465535,5.27400485 1.66550486,5.79808186 1.83354855,6.22194351 C2.10852915,6.9678086 2.48705183,7.72845955 2.84860039,8.45953876 C2.09155504,8.76182769 1.32602264,9.09040262 0.553700589,9.43869204 C0.114071115,9.63583699 -0.113381972,10.1615569 0.056359138,10.5870614 C0.226100248,11.0191374 0.731928754,11.1932821 1.15288671,10.9895657 C1.98122332,10.6117045 2.80277029,10.2601294 3.61243538,9.9331973 C4.01811663,10.6856339 4.43228494,11.4134273 4.85324289,12.1116491 C5.09088045,12.4878673 5.59331413,12.6045114 5.99390315,12.400795 C6.18061837,12.3071511 6.31301644,12.1592924 6.37751806,11.9884335 C6.45050673,11.7962171 6.43692745,11.5744291 6.31810867,11.3756412 C5.92600671,10.7184914 5.53899698,10.0399842 5.1604743,9.33847668 C5.91073001,9.06411662 6.62534008,8.80289956 7.42142588,8.60082598 C7.65736602,8.53675387 7.83389678,8.38889515 7.92555698,8.20325032 C8.00703271,8.04060573 8.02570423,7.85003227 7.96120261,7.65945881 C7.8220149,7.25038303 7.36201649,7.00230896 6.92408443,7.11895306 C6.09574782,7.34402689 5.25552932,7.59210095 4.40173154,7.86317527" id="Fill-13" fill="#00C02C"></path>
                    <path d="M42.7890307,29.7104406 C42.834293,28.0625545 42.824594,26.2733291 43.0282743,24.6575655 C43.1220319,23.7806202 42.4592626,23.0289529 41.5216865,23.0032548 C40.5647122,22.942222 39.7887872,23.7484977 39.7370588,24.6672023 C39.6465342,26.2861781 39.5948059,27.8762437 39.5721747,29.4373991 C37.9944605,29.3313947 36.3585518,29.2318148 34.7355752,29.2125413 C33.8400284,29.2253903 33.0479382,30.0091802 33.0026759,30.9246725 C32.9509476,31.8465894 33.6557462,32.5564974 34.54806,32.5372239 C36.2647942,32.5307994 37.8457415,32.4569176 39.5754078,32.6111057 C39.5689417,34.2043836 39.7855541,35.9518496 39.9342731,37.5579765 C40.0280307,38.4188605 40.8039558,39.0484622 41.6413082,38.9970662 C42.0325038,38.9745804 42.365505,38.8043309 42.6047485,38.5409261 C42.8763223,38.2421865 43.0218082,37.8213813 42.9733129,37.362029 C42.8633902,35.88118 42.8213609,34.4099678 42.7922637,32.8841473 C44.3311818,33.0383355 45.8345366,33.221434 47.3055612,33.4334427 C47.748485,33.4976878 48.1623117,33.3627731 48.4597497,33.0897316 C48.7119253,32.8359635 48.9317708,32.5500729 48.9834991,32.1646025 C49.1063539,31.3454778 48.5308761,30.5327776 47.6676595,30.3657404 C45.9961876,30.0156047 44.4605026,29.8999636 42.7890307,29.7104406" id="Fill-14" fill="#00C02C"></path>
                    <path d="M283.99802,14.8478799 C284.79985,13.3575218 285.652427,11.8573371 286.555754,10.3473259 C287.036175,9.54810091 286.762132,8.57199822 285.896021,8.16911019 C285.036677,7.76949768 283.916823,8.10359995 283.446551,8.90282497 C282.607507,10.3145708 281.815827,11.7164901 281.071513,13.0987563 C279.637017,12.3257354 278.182222,11.6313268 276.663145,10.9172651 C275.807184,10.5176526 274.68733,10.8615814 274.220442,11.6608064 C273.736638,12.4633069 274.081729,13.4230321 274.93769,13.8193691 C276.561648,14.5694614 278.13824,15.3392068 279.6607,16.1286053 C278.963752,17.7041267 278.320935,19.2599951 277.725484,20.7962104 C277.410842,21.6085375 277.854047,22.5289565 278.676176,22.8728853 C279.058482,23.0333854 279.461089,23.0366609 279.80618,22.9121914 C280.205403,22.7713444 280.540344,22.4634462 280.709506,22.0278031 C281.271125,20.5964042 281.863193,19.1125971 282.529692,17.6844737 C283.920206,18.5393824 285.263354,19.4073932 286.56252,20.288506 C286.951594,20.5538225 287.408332,20.6258838 287.817704,20.5243429 C288.179712,20.4326286 288.504503,20.2098937 288.727797,19.8692404 C289.208218,19.1355256 289.042439,18.1299433 288.311658,17.6320655 C286.927911,16.6919934 285.490032,15.7617479 283.99802,14.8478799" id="Fill-15" fill="#00C02C"></path>
                    <g id="Group-60" transform="translate(51.000000, 34.000000)">
                        <rect id="Rectangle-Copy-14" stroke="#183165" stroke-width="5" fill="#FFFFFF" x="2.5" y="2.5" width="256" height="392" rx="10"></rect>
                        <rect id="Rectangle-Copy-15" fill="#EBF1FF" x="5" y="180" width="251" height="104"></rect>
                        <path d="M2.5,52.5 L258.5,52.5 L258.5,12.819426 C258.5,9.13275464 258.2301,7.73509797 257.459803,6.29476863 C256.821268,5.10081018 255.89919,4.17873248 254.705231,3.54019651 C253.264902,2.76989995 251.867245,2.5 248.180574,2.5 L12.819426,2.5 C9.13275464,2.5 7.73509797,2.76989995 6.29476863,3.54019651 C5.10081018,4.17873248 4.17873248,5.10081018 3.54019651,6.29476863 C2.76989995,7.73509797 2.5,9.13275464 2.5,12.819426 L2.5,52.5 Z" id="Rectangle-Copy-12" stroke="#183165" stroke-width="5" fill="#FFFFFF"></path>
                        <path d="M91,87 L174,87" id="Line-5-Copy-30" stroke="#183165" stroke-width="5" stroke-linecap="round" stroke-linejoin="round"></path>
                        <path d="M107,110 L157,110" id="Line-5-Copy-24" stroke="#183165" stroke-width="5" stroke-linecap="round" stroke-linejoin="round"></path>
                        <path d="M38,246 L71,246" id="Line-5-Copy-23" stroke="#183165" stroke-width="5" stroke-linecap="round" stroke-linejoin="round"></path>
                        <path d="M28,311 L61,311" id="Line-5-Copy-22" stroke="#183165" stroke-width="5" stroke-linecap="round" stroke-linejoin="round"></path>
                        <path d="M38,259 L71,259" id="Line-5-Copy-21" stroke="#183165" stroke-width="5" stroke-linecap="round" stroke-linejoin="round"></path>
                        <path d="M28,329 L61,329" id="Line-5-Copy-20" stroke="#183165" stroke-width="5" stroke-linecap="round" stroke-linejoin="round"></path>
                        <circle id="Oval-Copy-15" fill="#183165" cx="54.5" cy="214.5" r="16.5"></circle>
                        <path d="M114,246 L147,246" id="Line-5-Copy-26" stroke="#183165" stroke-width="5" stroke-linecap="round" stroke-linejoin="round"></path>
                        <path d="M114,259 L147,259" id="Line-5-Copy-25" stroke="#183165" stroke-width="5" stroke-linecap="round" stroke-linejoin="round"></path>
                        <circle id="Oval-Copy-16" fill="#183165" cx="130.5" cy="214.5" r="16.5"></circle>
                        <path d="M192,246 L225,246" id="Line-5-Copy-28" stroke="#183165" stroke-width="5" stroke-linecap="round" stroke-linejoin="round"></path>
                        <path d="M192,259 L225,259" id="Line-5-Copy-27" stroke="#183165" stroke-width="5" stroke-linecap="round" stroke-linejoin="round"></path>
                        <circle id="Oval-Copy-17" fill="#183165" cx="208.5" cy="214.5" r="16.5"></circle>
                        <circle id="Oval-Copy-14" fill="#FF5056" cx="30.5" cy="28.5" r="7.5"></circle>
                        <circle id="Oval-Copy-13" fill="#FFD268" cx="53.5" cy="28.5" r="7.5"></circle>
                        <circle id="Oval-Copy-12" fill="#B8E986" cx="75.5" cy="28.5" r="7.5"></circle>
                        <path d="M122,350 L155,350" id="Line-5-Copy-19" stroke="#183165" stroke-width="5" stroke-linecap="round" stroke-linejoin="round"></path>
                        <rect id="Rectangle-Copy-10" fill="#00C02C" x="84" y="131" width="96" height="33" rx="3"></rect>
                        <path d="M91,344 L110,344 C111.104569,344 112,344.895431 112,346 L112,367 C112,368.104569 111.104569,369 110,369 L91,369 C89.8954305,369 89,368.104569 89,367 L89,346 C89,344.895431 89.8954305,344 91,344 Z" id="Rectangle" fill="#183165"></path>
                        <path d="M122,311 L155,311" id="Line-5-Copy-29" stroke="#183165" stroke-width="5" stroke-linecap="round" stroke-linejoin="round"></path>
                        <path d="M91,304 L110,304 C111.104569,304 112,304.895431 112,306 L112,327 C112,328.104569 111.104569,329 110,329 L91,329 C89.8954305,329 89,328.104569 89,327 L89,306 C89,304.895431 89.8954305,304 91,304 Z" id="Rectangle-Copy-11" fill="#183165"></path>
                        <path d="M203,350 L236,350" id="Line-5-Copy-32" stroke="#183165" stroke-width="5" stroke-linecap="round" stroke-linejoin="round"></path>
                        <g id="Group-58" transform="translate(198.000000, 330.000000)">
                            <circle id="Oval-Copy-8" stroke="#183165" stroke-width="5" fill="#00C02C" cx="63" cy="63" r="63"></circle>
                            <text id="87%" font-family="Lato-Black, Lato" font-size="44" font-weight="700" fill="#FFFFFF">
                                <tspan x="19.484" y="80">87%</tspan>
                            </text>
                            <g id="Group-57-Copy" transform="translate(43.000000, 16.868421)" fill="#FFFFFF">
                                <polygon id="Star" points="20 12.1315789 15.297718 14.6037149 16.1957739 9.36764692 12.3915479 5.65944299 17.648859 4.89551097 20 0.131578947 22.351141 4.89551097 27.6084521 5.65944299 23.8042261 9.36764692 24.702282 14.6037149"></polygon>
                                <circle id="Oval" cx="36.5" cy="7.63157895" r="2.5"></circle>
                                <circle id="Oval-Copy-7" cx="2.5" cy="7.63157895" r="2.5"></circle>
                            </g>
                        </g>
                        <path d="M172,344 L191,344 C192.104569,344 193,344.895431 193,346 L193,367 C193,368.104569 192.104569,369 191,369 L172,369 C170.895431,369 170,368.104569 170,367 L170,346 C170,344.895431 170.895431,344 172,344 Z" id="Rectangle-Copy-18" fill="#183165"></path>
                        <path d="M203,311 L236,311" id="Line-5-Copy-31" stroke="#183165" stroke-width="5" stroke-linecap="round" stroke-linejoin="round"></path>
                        <path d="M172,304 L191,304 C192.104569,304 193,304.895431 193,306 L193,327 C193,328.104569 192.104569,329 191,329 L172,329 C170.895431,329 170,328.104569 170,327 L170,306 C170,304.895431 170.895431,304 172,304 Z" id="Rectangle-Copy-17" fill="#183165"></path>
                    </g>
                    <circle id="Oval-Copy-13" fill="#FFD268" cx="13" cy="41" r="4"></circle>
                    <circle id="Oval-Copy-22" fill="#FFD268" cx="61" cy="454" r="4"></circle>
                    <circle id="Oval-Copy-23" fill="#FFD268" cx="259" cy="495" r="4"></circle>
                    <circle id="Oval-Copy-24" fill="#FFD268" cx="268" cy="524" r="3"></circle>
                    <circle id="Oval-Copy-20" fill="#FFD268" cx="32" cy="8" r="3"></circle>
                    <circle id="Oval-Copy-25" fill="#FFD268" cx="312" cy="3" r="3"></circle>
                    <circle id="Oval-Copy-21" fill="#FFD268" cx="73" cy="13" r="8"></circle>
                </g>
            </g>
        </g>
    </g>
</svg>