<?xml version="1.0" encoding="UTF-8"?>
<svg width="303px" height="435px" viewBox="0 0 303 435" version="1.1" xmlns="http://www.w3.org/2000/svg" xmlns:xlink="http://www.w3.org/1999/xlink">
    <!-- Generator: Sketch 56.3 (81716) - https://sketch.com -->
    <title>Group 59</title>
    <desc>Created with Sketch.</desc>
    <g id="Page-1" stroke="none" stroke-width="1" fill="none" fill-rule="evenodd">
        <g id="Hey-Digital_Landing-Page-Design" transform="translate(-322.000000, -2114.000000)">
            <g id="Group-62" transform="translate(322.000000, 2080.000000)">
                <g id="Group-59" transform="translate(0.000000, 34.000000)">
                    <rect id="Rectangle" stroke="#183165" stroke-width="5" fill="#FFFFFF" x="2.5" y="2.5" width="255" height="391" rx="10"></rect>
                    <rect id="Rectangle-Copy-5" fill="#EBF1FF" x="5" y="49" width="250" height="131"></rect>
                    <path d="M5,286 L255,286 L255,386 C255,388.761424 252.761424,391 250,391 L10,391 C7.23857625,391 5,388.761424 5,386 L5,286 Z" id="Rectangle-Copy-19" fill="#EBF1FF"></path>
                    <path d="M2.5,51.5 L257.5,51.5 L257.5,12.819426 C257.5,9.13275464 257.2301,7.73509797 256.459803,6.29476863 C255.821268,5.10081018 254.89919,4.17873248 253.705231,3.54019651 C252.264902,2.76989995 250.867245,2.5 247.180574,2.5 L12.819426,2.5 C9.13275464,2.5 7.73509797,2.76989995 6.29476863,3.54019651 C5.10081018,4.17873248 4.17873248,5.10081018 3.54019651,6.29476863 C2.76989995,7.73509797 2.5,9.13275464 2.5,12.819426 L2.5,51.5 Z" id="Rectangle-Copy-9" stroke="#183165" stroke-width="5" fill="#FFFFFF"></path>
                    <path d="M91,87 L173,87" id="Line-5-Copy" stroke="#183165" stroke-width="5" stroke-linecap="round" stroke-linejoin="round"></path>
                    <path d="M107,197 L217,197" id="Line-5-Copy-3" stroke="#183165" stroke-width="5" stroke-linecap="round" stroke-linejoin="round"></path>
                    <path d="M107,214 L217,214" id="Line-5-Copy-4" stroke="#183165" stroke-width="5" stroke-linecap="round" stroke-linejoin="round"></path>
                    <path d="M107,230 L217,230" id="Line-5-Copy-5" stroke="#183165" stroke-width="5" stroke-linecap="round" stroke-linejoin="round"></path>
                    <path d="M107,247 L217,247" id="Line-5-Copy-6" stroke="#183165" stroke-width="5" stroke-linecap="round" stroke-linejoin="round"></path>
                    <path d="M107,263 L217,263" id="Line-5-Copy-7" stroke="#183165" stroke-width="5" stroke-linecap="round" stroke-linejoin="round"></path>
                    <path d="M107,110 L156,110" id="Line-5-Copy-2" stroke="#183165" stroke-width="5" stroke-linecap="round" stroke-linejoin="round"></path>
                    <path d="M44,246 L77,246" id="Line-5-Copy-8" stroke="#183165" stroke-width="5" stroke-linecap="round" stroke-linejoin="round"></path>
                    <path d="M38,351 L71,351" id="Line-5-Copy-10" stroke="#183165" stroke-width="5" stroke-linecap="round" stroke-linejoin="round"></path>
                    <path d="M44,259 L77,259" id="Line-5-Copy-9" stroke="#183165" stroke-width="5" stroke-linecap="round" stroke-linejoin="round"></path>
                    <path d="M38,364 L71,364" id="Line-5-Copy-11" stroke="#183165" stroke-width="5" stroke-linecap="round" stroke-linejoin="round"></path>
                    <rect id="Rectangle" stroke="#183165" stroke-width="5" x="27.5" y="134.5" width="100" height="23" rx="3"></rect>
                    <circle id="Oval" fill="#183165" cx="60.5" cy="214.5" r="16.5"></circle>
                    <circle id="Oval-Copy-4" fill="#FF5056" cx="30.5" cy="28.5" r="7.5"></circle>
                    <circle id="Oval-Copy-5" fill="#FFD268" cx="53.5" cy="28.5" r="7.5"></circle>
                    <circle id="Oval-Copy-6" fill="#B8E986" cx="75.5" cy="28.5" r="7.5"></circle>
                    <circle id="Oval-Copy" fill="#183165" cx="54.5" cy="319.5" r="16.5"></circle>
                    <path d="M114,350 L147,350" id="Line-5-Copy-13" stroke="#183165" stroke-width="5" stroke-linecap="round" stroke-linejoin="round"></path>
                    <path d="M114,363 L147,363" id="Line-5-Copy-12" stroke="#183165" stroke-width="5" stroke-linecap="round" stroke-linejoin="round"></path>
                    <circle id="Oval-Copy-2" fill="#183165" cx="130.5" cy="318.5" r="16.5"></circle>
                    <path d="M191,350 L224,350" id="Line-5-Copy-15" stroke="#183165" stroke-width="5" stroke-linecap="round" stroke-linejoin="round"></path>
                    <path d="M191,363 L224,363" id="Line-5-Copy-14" stroke="#183165" stroke-width="5" stroke-linecap="round" stroke-linejoin="round"></path>
                    <circle id="Oval-Copy-3" fill="#183165" cx="207.5" cy="318.5" r="16.5"></circle>
                    <rect id="Rectangle-Copy-8" fill="#183165" x="142" y="132" width="96" height="28" rx="3"></rect>
                    <circle id="Oval" stroke="#183165" stroke-width="5" fill="#F32929" cx="260.5" cy="392.5" r="39.5"></circle>
                    <text id="68%" font-family="Lato-Black, Lato" font-size="24" font-weight="700" fill="#FFFFFF">
                        <tspan x="237.264" y="402">68%</tspan>
                    </text>
                    <g id="Group-57" transform="translate(246.000000, 365.000000)" fill="#FFFFFF">
                        <polygon id="Star" points="14 8.25 10.4732885 9.94959347 11.1468305 6.34979673 8.2936609 3.80040653 12.2366442 3.27520327 14 0 15.7633558 3.27520327 19.7063391 3.80040653 16.8531695 6.34979673 17.5267115 9.94959347"></polygon>
                        <circle id="Oval" cx="26" cy="6" r="2"></circle>
                        <circle id="Oval-Copy-7" cx="2" cy="6" r="2"></circle>
                    </g>
                </g>
            </g>
        </g>
    </g>
</svg>